<svg class="main-svg" xmlns="http://www.w3.org/2000/svg" xmlns:xlink="http://www.w3.org/1999/xlink" width="1200" height="400" style="" viewBox="0 0 1200 400"><rect x="0" y="0" width="1200" height="400" style="fill: rgb(255, 255, 255); fill-opacity: 1;"/><defs id="defs-4ec917"><g class="clips"><clipPath id="clip4ec917xyplot" class="plotclip"><rect width="473.09999999999997" height="220"/></clipPath><clipPath id="clip4ec917x2y2plot" class="plotclip"><rect width="473.09999999999997" height="220"/></clipPath><clipPath class="axesclip" id="clip4ec917x"><rect x="80" y="0" width="473.09999999999997" height="400"/></clipPath><clipPath class="axesclip" id="clip4ec917y"><rect x="0" y="100" width="1200" height="220"/></clipPath><clipPath class="axesclip" id="clip4ec917xy"><rect x="80" y="100" width="473.09999999999997" height="220"/></clipPath><clipPath class="axesclip" id="clip4ec917y2"><rect x="0" y="100" width="1200" height="220"/></clipPath><clipPath class="axesclip" id="clip4ec917xy2"><rect x="80" y="100" width="473.09999999999997" height="220"/></clipPath><clipPath class="axesclip" id="clip4ec917x2"><rect x="602.9" y="0" width="473.09999999999997" height="400"/></clipPath><clipPath class="axesclip" id="clip4ec917x2y"><rect x="602.9" y="100" width="473.09999999999997" height="220"/></clipPath><clipPath class="axesclip" id="clip4ec917x2y2"><rect x="602.9" y="100" width="473.09999999999997" height="220"/></clipPath></g><g class="gradients"/><g class="patterns"/></defs><g class="bglayer"><rect class="bg" x="80" y="100" width="473.09999999999997" height="220" style="fill: rgb(229, 236, 246); fill-opacity: 1; stroke-width: 0;"/><rect class="bg" x="602.9" y="100" width="473.09999999999997" height="220" style="fill: rgb(229, 236, 246); fill-opacity: 1; stroke-width: 0;"/></g><g class="layer-below"><g class="imagelayer"/><g class="shapelayer"/></g><g class="cartesianlayer"><g class="subplot xy"><g class="layer-subplot"><g class="shapelayer"/><g class="imagelayer"/></g><g class="minor-gridlayer"><g class="x"/><g class="y"/></g><g class="gridlayer"><g class="x"><path class="xgrid crisp" transform="translate(196.47,0)" d="M0,100v220" style="stroke: rgb(255, 255, 255); stroke-opacity: 1; stroke-width: 1px;"/><path class="xgrid crisp" transform="translate(315.40999999999997,0)" d="M0,100v220" style="stroke: rgb(255, 255, 255); stroke-opacity: 1; stroke-width: 1px;"/><path class="xgrid crisp" transform="translate(434.36,0)" d="M0,100v220" style="stroke: rgb(255, 255, 255); stroke-opacity: 1; stroke-width: 1px;"/></g><g class="y"><path class="ygrid crisp" transform="translate(0,282.94)" d="M80,0h473.09999999999997" style="stroke: rgb(255, 255, 255); stroke-opacity: 1; stroke-width: 1px;"/><path class="ygrid crisp" transform="translate(0,246.79)" d="M80,0h473.09999999999997" style="stroke: rgb(255, 255, 255); stroke-opacity: 1; stroke-width: 1px;"/><path class="ygrid crisp" transform="translate(0,210.64)" d="M80,0h473.09999999999997" style="stroke: rgb(255, 255, 255); stroke-opacity: 1; stroke-width: 1px;"/><path class="ygrid crisp" transform="translate(0,174.49)" d="M80,0h473.09999999999997" style="stroke: rgb(255, 255, 255); stroke-opacity: 1; stroke-width: 1px;"/><path class="ygrid crisp" transform="translate(0,138.35)" d="M80,0h473.09999999999997" style="stroke: rgb(255, 255, 255); stroke-opacity: 1; stroke-width: 1px;"/><path class="ygrid crisp" transform="translate(0,102.2)" d="M80,0h473.09999999999997" style="stroke: rgb(255, 255, 255); stroke-opacity: 1; stroke-width: 1px;"/></g></g><g class="zerolinelayer"><path class="yzl zl crisp" transform="translate(0,319.09000000000003)" d="M80,0h473.09999999999997" style="stroke: rgb(255, 255, 255); stroke-opacity: 1; stroke-width: 2px;"/></g><path class="xlines-below"/><path class="ylines-below"/><g class="overlines-below"/><g class="xaxislayer-below"/><g class="yaxislayer-below"/><g class="overaxes-below"/><g class="plot" transform="translate(80,100)" clip-path="url(#clip4ec917xyplot)"><g class="scatterlayer mlayer"><g class="trace scatter trace0bf96d" style="stroke-miterlimit: 2; opacity: 1;"><g class="fills"/><g class="errorbars"/><g class="lines"><path class="js-line" d="M0,157.75L0.21,154.73L0.41,156.2L0.62,167.19L3.3,101.95L3.51,103.89L4.13,117.63L4.34,122.93L6.2,156.23L6.4,157.4L6.81,161.02L7.02,157.47L7.23,156.06L7.64,147.81L8.05,151.4L8.26,151.29L8.88,147.98L9.09,149.61L9.29,150.8L10.12,169.02L10.33,165.41L10.53,159.11L11.15,151.03L11.77,151.32L11.98,140.28L12.6,126.43L12.8,130.27L13.01,139.18L14.87,179.44L15.07,188.54L15.69,189.96L15.9,195.41L16.93,198.3L17.14,198.81L17.76,192.53L17.97,190.42L19.2,172.77L19.41,166.08L23.13,65.75L23.33,66.19L23.95,69.68L24.16,68.21L24.37,67.19L26.23,52.78L26.43,53.29L26.64,54.76L27.05,55.03L27.46,52.05L27.67,47.64L27.88,48.62L28.08,42.39L28.91,34.64L29.12,36.47L29.32,40.89L29.94,62.75L30.15,72.86L30.36,73.13L30.56,79.7L30.98,85.28L31.18,97.28L33.25,153.11L33.45,154.69L33.66,157.65L34.07,154.4L34.28,151.68L35.52,142.41L35.73,131.74L37.38,100.22L37.58,99.92L37.79,98.99L38,99.37L38.2,108.16L40.68,150.34L40.89,150.95L41.51,155.85L41.71,153.61L41.92,151.75L42.13,155.05L42.54,151.75L42.75,150.21L43.57,133.98L43.78,124.76L45.02,91.85L45.22,90.48L45.43,91.09L45.64,86.64L45.84,82.77L46.05,85.43L46.26,89.9L46.88,115.02L47.29,107.31L47.5,106.86L47.91,103.71L48.12,107.38L48.53,104.31L48.73,107.96L48.94,109.31L49.35,98.24L49.56,99.64L49.77,106.01L49.97,105.47L50.18,105.69L50.39,107.02L50.59,103.66L50.8,110.15L51.01,115.29L51.21,114.41L51.42,114.73L51.63,120.77L53.07,145.61L53.28,147.07L54.52,133.22L54.72,139.72L55.14,137.04L55.34,138.56L55.55,142.97L58.03,186.74L58.23,186.89L58.44,187.53L58.65,177.84L59.89,120.22L60.09,112.39L61.13,61.39L61.33,71.28L62.57,17.49L62.78,34.16L62.98,30.55L63.6,11L64.02,16.24L64.22,22.88L64.64,29.55L64.84,48.49L66.29,114.59L66.49,118.3L68.56,136.73L68.77,137.15L69.59,153.81L69.8,137.16L70,137.42L70.21,135.38L70.42,135.36L70.62,133.75L71.04,138.05L71.24,134.7L71.45,120.05L72.07,91.78L72.28,111.39L72.48,110.79L72.69,110.25L72.9,105.86L73.52,101.05L73.72,103.78L75.37,165.83L75.58,169.18L76.61,183.31L76.82,183.26L77.03,183.96L78.68,161.54L78.88,155.68L80.74,111.56L80.95,105.03L81.78,86.47L81.98,81.33L83.63,60.92L83.84,60.97L84.05,61.19L84.25,63.02L84.87,62.95L85.08,61.41L85.49,62.12L85.7,66.12L87.76,93.96L87.97,96.42L89,101.12L89.21,101.95L90.66,124.14L90.86,121.49L91.07,121.02L91.27,122.43L91.48,122.43L91.69,123.39L92.93,110.87L93.13,113.19L93.34,115.83L95.4,138.52L95.61,135.48L95.82,134.31L96.23,135.26L96.44,135.73L97.06,139.1L97.26,140.29L98.5,147.71L98.71,147L98.92,146.79L99.53,145.36L99.74,145.78L99.95,146.39L100.36,147.83L100.57,151.65L101.6,158.35L101.81,155.92L102.01,153.53L103.05,140.39L103.25,134.25L103.87,128.26L104.28,128.9L104.49,129.81L104.7,130.13L104.9,126.58L105.32,128.76L105.52,130.33L107.38,161.16L107.59,156.46L108.21,169.71L108.41,168.37L108.62,158.58L108.83,158.05L109.03,158.23L109.24,154.35L109.65,146.56L109.86,150.48L110.07,156.25L110.27,156.53L110.48,153.75L110.69,153.93L110.89,156.47L111.93,176.31L112.13,178.52L112.34,179.19L112.75,178.35L112.96,177.32L113.99,180.17L114.2,183.45L116.06,197.53L116.47,196.63L116.67,190.37L117.71,174.34L117.91,159.61L119.15,117.82L119.36,105.37L120.39,65.79L120.6,71.27L120.8,68.99L121.01,67.8L121.22,61.22L121.63,63.8L121.84,74.88L123.28,115.06L123.49,116.68L125.97,159.02L126.17,155.87L126.38,153L127,154.76L127.21,156.54L127.62,157.96L127.83,156.64L128.24,157.37L128.45,159.73L128.86,166.46L129.06,163.96L129.27,152.43L129.89,136.78L130.3,141.9L130.51,142.41L130.72,143L130.92,134.41L131.54,128.87L131.75,138.89L132.78,153.31L132.99,152.78L133.19,154.58L133.4,164.1L135.26,198.09L135.47,198.73L135.88,198.29L136.09,199.5L136.29,197.84L136.5,197.42L136.71,194.1L137.53,188.69L137.74,184.47L142.07,98.33L142.28,100.18L142.69,103.84L143.11,102.79L143.31,101.29L143.52,101.05L143.73,102.45L146.2,126.16L146.41,129.25L147.03,130.89L147.24,128.91L147.65,126.64L147.86,124.09L148.48,120.15L148.68,120.76L148.89,122.37L149.3,125.07L149.51,127.04L151.37,150.24L151.57,149.87L151.99,152.21L152.19,150.59L152.4,150.02L152.61,149.92L152.81,148.04L153.85,143.59L154.05,144.24L155.5,137.21L155.91,137.98L156.12,137.97L156.32,139.29L156.53,137.41L156.74,137.57L156.94,137.62L157.36,139.74L157.56,143.4L159.42,157.56L159.63,156.36L159.83,154.89L160.45,158.46L161.07,158.03L161.28,157.45L163.76,140.54L163.96,140.67L164.17,139.75L165,122.17L165.2,129L165.62,134.02L166.03,133.42L166.24,130.79L166.65,127.92L166.85,141L167.89,160.11L168.09,159.34L168.3,157.32L168.51,158.38L168.71,164.64L170.16,173.84L170.37,174.34L171.6,184.64L171.81,183.32L173.46,174.09L173.67,176.19L174.29,180.18L174.5,183.21L175.94,201.89L176.15,196.28L176.35,193.46L177.18,175.63L177.39,149.52L178.63,101.14L178.83,97.08L179.86,66.36L180.07,71.47L180.28,75.61L181.31,58.17L181.52,60.46L181.72,63.16L182.76,113.22L182.96,122.27L184.2,155.03L184.41,156.14L184.61,150.64L185.03,158.4L185.23,159.12L185.44,159.12L185.65,155.16L185.85,153.89L186.06,156.9L186.27,160.04L187.09,166.95L187.3,163.9L187.51,162.95L187.92,165.91L188.12,169.32L188.54,159.85L188.74,149.01L189.57,132.58L189.78,136.78L189.98,136.64L190.19,137.19L190.4,130.9L190.6,127.49L191.02,131.85L191.22,137.31L191.84,148.52L192.25,145.57L192.46,145.88L192.67,146.92L192.87,153.21L194.94,183.52L195.15,183.93L196.39,175.98L196.59,173.84L197.62,157.11L197.83,150.36L201.96,46.51L202.17,47.99L202.58,49.09L202.79,46.94L203.2,51.93L203.41,59.31L204.65,72.21L204.85,71.2L205.47,76.43L205.68,73.2L205.88,70.82L207.74,56.17L207.95,55.56L208.36,62.25L208.57,66.22L212.49,151.48L212.7,148.4L212.91,145.97L214.76,129.78L214.97,130.41L215.18,132.69L215.59,131.39L215.8,132.05L216,132.98L217.04,139.91L217.24,139.15L217.45,137.76L217.86,135.86L218.27,137.32L218.48,137.8L220.96,153.93L221.17,152.94L223.44,133.75L223.64,132.84L223.85,130.49L224.26,134.06L224.47,135.44L225.71,155.18L225.92,156.48L226.74,169.98L226.95,172.78L227.15,174.32L227.36,173.46L227.57,164.27L227.77,164.27L227.98,166.52L228.6,159.87L228.81,162.32L229.01,163.68L229.22,164.55L229.43,162.01L229.84,164.56L230.05,174.07L230.25,172.81L230.66,174.65L230.87,178.7L231.08,178.93L231.28,178.65L231.49,177.8L232.11,175.72L232.32,176.87L232.52,176.48L232.73,176.8L232.94,175.01L235.41,200.02L235.62,196.78L236.03,191L236.24,179.42L236.65,178.69L236.86,163.23L237.89,119.26L238.1,112.79L239.13,77.21L239.54,79.8L239.75,80.6L240.37,77.04L240.58,81.55L240.99,84.63L241.2,98.48L242.85,153.58L243.05,156.89L244.91,172.21L245.12,168.97L245.33,168.99L245.74,168.52L246.15,170.02L246.36,167.96L246.98,157.62L247.39,159.18L247.6,161.01L247.8,161.55L248.01,159.65L248.84,126.95L249.04,127.63L249.25,130.51L250.49,117.04L250.7,128.38L251.52,147.54L251.73,145.14L251.93,145.41L252.14,145.59L252.35,146.78L253.79,179.26L254,181.3L255.03,193.12L255.24,191.14L256.89,178.84L257.1,175.13L260.81,100.4L261.02,98.4L261.23,97.73L261.43,101.77L261.64,103.05L261.85,100.01L262.05,95.38L263.29,62.02L263.71,64.36L263.91,65.13L265.15,88.38L265.36,98.14L265.56,101.59L265.98,97.67L266.18,94.36L267.01,87.33L267.22,89.64L267.63,87.73L267.84,89.64L270.11,126.19L270.31,131.77L271.55,154.5L271.76,157.85L272.17,164.39L272.79,163.64L273,162.58L275.48,132.22L275.68,127.95L277.54,99.6L277.75,98.8L277.95,99.08L278.16,100.86L278.99,111.24L279.19,115.46L280.85,138.51L281.05,136.84L281.88,128.46L282.08,129.84L282.29,128.87L282.7,127.97L282.91,131.62L283.12,132.35L283.32,129.89L285.39,157.93L285.59,160.79L286.63,172.25L286.83,172.91L287.66,171.39L287.87,165.98L288.07,166.22L288.28,167.89L288.9,174.83L289.11,174.11L289.31,175.17L290.76,186.83L290.96,186.71L291.17,186.04L292,182.96L292.2,182.72L293.03,182.53L293.24,182.79L295.09,201.35L295.3,199.41L297.78,112.23L297.98,114.28L298.19,119.55L298.4,110.21L298.6,102.75L299.02,105.12L299.22,94.74L299.84,83.05L300.26,83.43L300.46,85.38L303.56,188.88L303.77,189.21L303.97,189.19L304.18,188.15L304.39,190.64L305.01,190.58L305.21,191.11L305.42,190.88L305.63,192.71L306.25,190.29L306.45,191.47L306.66,192.76L307.07,194.59L307.28,193.91L307.48,189L308.93,163.82L309.14,163.88L309.76,163.41L309.96,168.79L311.41,193.43L311.61,194.34L313.89,208.15L314.09,207.55L314.92,208.85L315.12,207.99L315.95,207.42L316.16,209L319.46,207.38L319.67,207L321.73,202.54L321.94,202.2L322.97,201.67L323.18,201.67L324.42,199.69L324.62,197.74L326.48,180.91L326.69,180.67L328.96,206.84L329.17,206.57L329.37,206.84L330.41,206.59L330.61,206.22L331.85,203.41L332.06,203.55L333.3,204.99L333.5,206.7L334.74,207.29L334.95,207.13L335.78,207.14L335.98,206.43L336.81,203.89L337.01,203.08L338.25,201.82L338.46,202.82L338.67,203.04L338.87,204.37L339.29,204.71L339.49,205.55L339.7,204.53L339.91,199.12L340.94,193.2L341.14,192.73L341.97,191.92L342.18,192.52L343,200.65L343.21,200.5L343.42,200.87L344.45,202.49L344.65,203.49L346.1,205.15L346.31,202.02L348.78,163.01L349.4,164.77L349.61,166.52L350.64,177.94L350.85,185.32L351.06,185.61L351.26,191.96L351.88,187.94L352.3,188.17L352.5,191.38L353.95,202.07L354.15,203.94L355.39,207.14L355.6,206.69L356.84,199.52L357.04,198.25L357.66,194.1L357.87,192.14L359.52,175.07L359.73,175.58L359.94,176.16L360.97,161.33L361.17,164.1L362.41,170.99L362.62,178.28L363.86,206.07L364.07,206.76L365.1,207.33L365.31,207.43L365.51,207.77L365.92,207.26L366.13,207.01L366.75,207.27L366.96,198.04L368.4,146.02L368.61,140.67L370.26,101.3L370.47,98.68L371.09,94.61L371.29,98.19L372.53,126.56L372.74,123.55L372.95,119.32L374.8,53.07L375.01,56.45L375.84,99.57L376.04,117.3L377.7,197.01L377.9,200.47L378.11,202.39L378.73,201.36L378.93,201.25L379.35,201.68L379.55,200.2L379.97,197.82L380.17,196.99L381.41,193.57L381.62,192.78L381.83,192.66L382.03,189.9L382.65,186.95L382.86,187.01L383.06,188.87L383.27,188.7L383.68,189.25L383.89,187.66L384.1,187.15L384.3,189.63L384.72,191.98L384.92,184.07L387.19,152.47L387.4,154.37L390.5,183.44L390.71,183.41L390.91,184.43L391.12,184.32L391.32,182L391.53,182.12L391.74,184.02L392.77,191.33L392.98,193.34L393.18,193.29L393.39,194.06L393.6,194.37L393.8,197.44L394.22,199.26L394.42,197.79L394.63,197.51L394.84,197.09L395.25,197.44L395.45,197.68L396.69,196.13L396.9,196.85L398.35,199.48L398.55,197.29L400.62,188.44L400.82,188.7L402.06,191.49L402.27,184.44L403.92,186.96L404.13,186.04L404.54,185.36L404.75,192.04L405.99,182.94L406.19,182.98L406.4,183.04L408.46,193.23L408.67,193.34L408.88,193.89L409.08,192.64L409.29,192.11L409.5,191.06L409.7,193.36L409.91,194.19L410.74,196.51L410.94,195.49L411.36,194.51L411.56,196.61L411.77,198.01L411.97,193.96L413.01,185.51L413.21,185.99L414.04,189L414.25,182.65L414.87,196.52L415.07,194.01L415.28,183.48L417.34,144.61L417.55,143.11L418.17,152.29L418.38,146.91L418.58,144.91L419,142.02L419.2,147.13L420.44,164.59L420.65,164.27L421.68,178.05L421.89,177.94L422.51,167.87L422.92,168.77L423.13,170.64L423.95,161.46L424.16,164.11L424.37,165.21L424.57,168.37L424.98,165.71L425.19,165.58L425.6,163.39L425.81,165.75L426.02,168.74L427.05,173.09L427.26,178.63L428.08,170.85L428.29,164.65L428.7,148.75L428.91,137.14L429.32,137.5L429.73,136.43L429.94,140.67L430.56,149.62L430.77,156.24L431.18,173.93L431.39,189.68L433.45,199.96L433.66,198.76L433.86,198.59L435.52,176.01L435.72,168.63L439.65,37.34L440.06,38.51L440.27,37.32L440.68,35.06L440.89,37.69L441.09,42.02L441.71,61.85L441.92,70.06L443.78,92.55L443.98,90.74L444.19,90.97L444.6,86.52L444.81,86.71L445.02,90.81L446.46,105.06L446.67,109.86L449.97,163.11L450.18,162.32L450.38,161.12L452.66,142.19L452.86,143.28L453.07,143.64L453.28,143.52L453.48,144.28L453.9,144L454.93,148.27L455.13,147.12L455.34,147.49L456.17,146.56L456.37,146.51L458.64,160.28L458.85,158.65L460.3,129.81L460.71,132.23L460.92,131.59L461.74,126.29L461.95,131.49L463.39,151.34L463.6,156.66L465.87,195.25L466.08,191.5L468.14,171.41L468.35,171.83L470.21,187.22L470.42,187.46L470.83,185.87L471.03,187.95L471.24,188.46L471.45,188.24L471.65,190.7L473.1,201.75" style="vector-effect: none; fill: none; stroke: rgb(99, 110, 250); stroke-opacity: 1; stroke-width: 2px; opacity: 1;"/></g><g class="points"/><g class="text"/></g></g></g><g class="overplot"/><path class="xlines-above crisp" d="M0,0" style="fill: none;"/><path class="ylines-above crisp" d="M0,0" style="fill: none;"/><g class="overlines-above"/><g class="xaxislayer-above"><g class="xtick"><text text-anchor="middle" x="0" y="333" transform="translate(196.47,0)" style="font-family: 'Open Sans', verdana, arial, sans-serif; font-size: 12px; fill: rgb(42, 63, 95); fill-opacity: 1; white-space: pre; opacity: 1;"><tspan class="line" dy="0em" x="0" y="333">Mar 9</tspan><tspan class="line" dy="1.3em" x="0" y="333">2022</tspan></text></g><g class="xtick"><text text-anchor="middle" x="0" y="333" style="font-family: 'Open Sans', verdana, arial, sans-serif; font-size: 12px; fill: rgb(42, 63, 95); fill-opacity: 1; white-space: pre; opacity: 1;" transform="translate(315.40999999999997,0)">Mar 11</text></g><g class="xtick"><text text-anchor="middle" x="0" y="333" style="font-family: 'Open Sans', verdana, arial, sans-serif; font-size: 12px; fill: rgb(42, 63, 95); fill-opacity: 1; white-space: pre; opacity: 1;" transform="translate(434.36,0)">Mar 13</text></g></g><g class="yaxislayer-above"><g class="ytick"><text text-anchor="end" x="79" y="4.199999999999999" transform="translate(0,319.09000000000003)" style="font-family: 'Open Sans', verdana, arial, sans-serif; font-size: 12px; fill: rgb(42, 63, 95); fill-opacity: 1; white-space: pre; opacity: 1;">0</text></g><g class="ytick"><text text-anchor="end" x="79" y="4.199999999999999" style="font-family: 'Open Sans', verdana, arial, sans-serif; font-size: 12px; fill: rgb(42, 63, 95); fill-opacity: 1; white-space: pre; opacity: 1;" transform="translate(0,282.94)">0.02</text></g><g class="ytick"><text text-anchor="end" x="79" y="4.199999999999999" style="font-family: 'Open Sans', verdana, arial, sans-serif; font-size: 12px; fill: rgb(42, 63, 95); fill-opacity: 1; white-space: pre; opacity: 1;" transform="translate(0,246.79)">0.04</text></g><g class="ytick"><text text-anchor="end" x="79" y="4.199999999999999" style="font-family: 'Open Sans', verdana, arial, sans-serif; font-size: 12px; fill: rgb(42, 63, 95); fill-opacity: 1; white-space: pre; opacity: 1;" transform="translate(0,210.64)">0.06</text></g><g class="ytick"><text text-anchor="end" x="79" y="4.199999999999999" style="font-family: 'Open Sans', verdana, arial, sans-serif; font-size: 12px; fill: rgb(42, 63, 95); fill-opacity: 1; white-space: pre; opacity: 1;" transform="translate(0,174.49)">0.08</text></g><g class="ytick"><text text-anchor="end" x="79" y="4.199999999999999" style="font-family: 'Open Sans', verdana, arial, sans-serif; font-size: 12px; fill: rgb(42, 63, 95); fill-opacity: 1; white-space: pre; opacity: 1;" transform="translate(0,138.35)">0.1</text></g><g class="ytick"><text text-anchor="end" x="79" y="4.199999999999999" style="font-family: 'Open Sans', verdana, arial, sans-serif; font-size: 12px; fill: rgb(42, 63, 95); fill-opacity: 1; white-space: pre; opacity: 1;" transform="translate(0,102.2)">0.12</text></g></g><g class="overaxes-above"/></g><g class="subplot x2y2"><g class="layer-subplot"><g class="shapelayer"/><g class="imagelayer"/></g><g class="minor-gridlayer"><g class="x2"/><g class="y2"/></g><g class="gridlayer"><g class="x2"><path class="x2grid crisp" transform="translate(719.37,0)" d="M0,100v220" style="stroke: rgb(255, 255, 255); stroke-opacity: 1; stroke-width: 1px;"/><path class="x2grid crisp" transform="translate(838.31,0)" d="M0,100v220" style="stroke: rgb(255, 255, 255); stroke-opacity: 1; stroke-width: 1px;"/><path class="x2grid crisp" transform="translate(957.26,0)" d="M0,100v220" style="stroke: rgb(255, 255, 255); stroke-opacity: 1; stroke-width: 1px;"/></g><g class="y2"><path class="y2grid crisp" transform="translate(0,267.43)" d="M602.9,0h473.09999999999997" style="stroke: rgb(255, 255, 255); stroke-opacity: 1; stroke-width: 1px;"/><path class="y2grid crisp" transform="translate(0,221.07)" d="M602.9,0h473.09999999999997" style="stroke: rgb(255, 255, 255); stroke-opacity: 1; stroke-width: 1px;"/><path class="y2grid crisp" transform="translate(0,174.70999999999998)" d="M602.9,0h473.09999999999997" style="stroke: rgb(255, 255, 255); stroke-opacity: 1; stroke-width: 1px;"/><path class="y2grid crisp" transform="translate(0,128.35)" d="M602.9,0h473.09999999999997" style="stroke: rgb(255, 255, 255); stroke-opacity: 1; stroke-width: 1px;"/></g></g><g class="zerolinelayer"><path class="y2zl zl crisp" transform="translate(0,313.78999999999996)" d="M602.9,0h473.09999999999997" style="stroke: rgb(255, 255, 255); stroke-opacity: 1; stroke-width: 2px;"/></g><path class="xlines-below"/><path class="ylines-below"/><g class="overlines-below"/><g class="xaxislayer-below"/><g class="yaxislayer-below"/><g class="overaxes-below"/><g class="plot" transform="translate(602.9,100)" clip-path="url(#clip4ec917x2y2plot)"><g class="scatterlayer mlayer"><g class="trace scatter trace942235" style="stroke-miterlimit: 2; opacity: 1;"><g class="fills"/><g class="errorbars"/><g class="lines"><path class="js-line" d="M0,138.2L1.03,185.97L1.24,173.82L1.45,179.16L1.86,173.29L2.07,183.39L2.27,193.06L2.48,161.71L2.89,157.69L3.51,183.4L3.72,170.24L3.92,146.19L4.34,184.25L4.54,172.3L4.75,181.08L4.96,152.49L5.37,156.63L5.58,164.62L5.99,175.42L6.2,171.72L6.4,157.87L6.61,154.27L6.81,133.98L7.43,132.09L7.64,166.3L7.85,160.26L8.05,146.16L8.26,147.41L8.47,178.23L8.67,165.84L8.88,185.48L9.09,196.72L9.5,189.79L9.71,196.42L10.33,150.06L10.53,165.66L10.74,155.89L10.94,173.58L11.56,164.19L11.77,136.84L13.01,192.01L13.22,158.11L14.25,179.53L14.46,183.1L14.87,178.97L15.07,174.49L15.28,174.98L15.49,178.66L15.69,177.99L15.9,179.35L16.11,173.44L16.52,181.26L16.93,177.14L17.14,174.35L17.35,148.26L17.97,161.18L18.17,156.57L18.38,155.04L18.59,132.83L18.79,133.51L19,127.7L19.41,114.77L19.62,118.37L19.82,108.46L20.03,96.31L20.65,97.75L20.86,100.42L21.27,78.37L21.68,83.38L21.89,83.65L22.3,55.7L22.51,75.47L22.72,78.96L23.33,111.54L23.54,84.16L24.78,46.62L24.99,70.98L25.19,70.98L25.4,73.05L25.61,94.03L26.02,71.37L26.23,89.61L26.43,83.58L26.64,81.3L26.85,88.61L27.26,50.23L27.46,74.49L27.67,75.97L27.88,68.74L28.08,73.17L28.29,94.07L28.5,64.97L28.91,105.12L29.12,109.12L29.32,107.62L29.53,111.86L29.74,105.66L29.94,117.62L30.15,109.13L30.36,122.47L30.56,122.55L30.77,133.02L30.98,117.57L31.39,140.62L31.6,139.7L32.21,130.32L32.42,141.97L32.63,149.22L33.25,145.73L33.45,133.63L34.07,120.09L34.28,127.37L34.49,130.87L34.69,125.3L34.9,127.34L35.11,124.04L35.52,109.77L35.73,118.07L35.93,100.34L36.34,128.93L36.76,119.6L36.96,123.8L37.38,127.97L37.79,117.78L38,126.52L38.2,139.66L38.41,117.56L38.82,134.7L39.03,135.29L39.65,133.58L39.86,143.3L40.06,142.84L40.27,137.18L40.68,140.86L40.89,129.48L41.09,143L41.3,141.45L41.51,115.14L41.92,149.97L42.33,121.78L42.54,134.5L43.57,106.27L43.78,100.99L43.99,83.46L44.19,118.88L44.4,128.92L45.64,97.34L45.84,96.39L46.67,140.6L46.88,117.29L47.08,73.75L47.5,110.3L47.7,110.74L48.32,99.91L48.53,133.66L48.73,135.62L48.94,110.89L49.35,134.6L49.56,89.55L50.39,100.23L50.59,123.49L50.8,116.75L51.01,118.01L51.21,132.72L51.83,143.3L52.04,89.76L52.45,137.67L52.86,116.87L53.07,117.42L53.28,113.19L53.69,119.31L53.9,128.1L54.1,150.56L54.31,83.18L55.34,159.57L55.55,175.62L56.38,183.22L56.58,179.45L56.79,178.72L57,172.9L57.2,173.13L57.41,177.88L58.03,194.69L58.23,160.91L58.65,84.28L58.85,143.92L59.06,146.12L60.09,35.4L60.3,65.46L60.51,101.29L60.92,128.28L61.13,122.07L61.33,98.05L61.74,104.39L62.16,11L62.36,51.45L62.57,103.08L63.4,64.91L63.6,118.09L64.22,122.72L64.43,89.46L64.64,88.72L65.46,147.42L65.67,123.96L66.08,146.39L66.29,119.41L66.7,136.63L66.91,111.36L67.94,160.03L68.15,143.1L68.56,173.61L68.97,156.83L69.18,156.74L69.59,57.12L69.8,143.86L70,146.31L70.21,151.92L70.42,145.46L70.83,148.87L71.04,119.86L71.24,91.37L71.86,98.97L72.07,131.36L72.48,124.4L72.9,146.31L73.1,144.26L73.52,144.21L74.34,159.29L74.55,159.27L74.75,157.24L74.96,165.8L75.17,158.95L75.37,167.2L75.58,160.77L75.79,165.97L75.99,170.13L76.41,167.29L76.61,167.29L77.03,147.11L77.44,147.82L77.65,141.34L77.85,139.85L78.06,129.41L78.47,119.41L78.68,119.77L78.88,102.74L79.09,120.86L79.71,109.95L79.92,111.12L80.12,112.82L80.33,97.35L80.54,79.73L80.95,99.19L81.16,83.94L81.36,80.85L81.57,74.9L81.78,79.03L81.98,91.38L82.19,86.51L82.39,100.09L83.01,72.54L83.43,76.72L83.63,86.8L84.05,88.06L84.25,62.32L84.46,85.57L84.67,98.48L85.29,98.33L85.49,86.61L85.91,113.17L86.32,107.31L86.53,105.44L86.73,96.06L87.14,96.59L87.35,106.07L87.56,106.37L87.76,112.18L87.97,93.58L88.59,100.55L88.8,107.75L90.24,136.84L90.45,95.32L91.48,128.01L91.69,68.77L92.1,117.67L92.72,117.52L92.93,101.87L93.55,132.27L93.75,131.78L93.96,137.25L94.79,122.38L94.99,131.22L95.2,135.51L95.4,105.02L96.44,139.39L96.64,136.51L97.06,142.98L97.26,136.88L97.47,136.92L97.68,134.15L97.88,115.45L98.92,135.04L99.12,125.67L99.33,149.17L99.95,142.99L100.15,145.31L100.36,141.78L100.57,144.67L100.77,148.39L101.6,103.32L101.81,121.26L102.01,133.45L102.43,112.32L102.84,120.43L103.05,122.69L103.46,117.42L103.87,131.73L104.08,127.97L104.28,143.42L104.49,139.63L104.7,118.13L105.11,117.26L105.94,162.14L106.14,166.11L106.35,167.45L106.56,143.99L106.76,163.49L107.38,152.58L107.59,164.37L108.21,169.31L108.41,160.55L108.62,172.57L108.83,172.29L109.03,115.25L109.24,114.66L109.45,122.23L110.48,163.16L110.69,167.89L110.89,163.41L111.31,170.43L111.51,144.24L112.13,167.61L112.34,163.18L112.54,161L112.75,159.37L112.96,170.92L113.37,168.07L113.78,180.35L113.99,141.52L115.02,192.05L115.23,188.64L115.44,186.56L115.64,193.69L116.26,198.04L116.47,176.07L116.67,185.38L116.88,165.31L117.09,158.65L117.29,187.74L117.5,186.04L117.71,107.63L117.91,105.05L118.12,154.55L118.33,165.6L118.53,164.9L118.74,130.64L119.15,64.99L119.57,74.45L119.77,114.14L119.98,94.92L120.19,107.11L120.39,145.02L120.6,157.42L120.8,126.24L121.22,156.1L121.42,126.72L122.46,177.18L122.66,147.65L122.87,144.55L123.08,167.94L123.28,153.85L123.49,169.72L123.7,178.3L123.9,153.15L124.52,168.77L124.73,176.47L124.93,177.08L125.14,172.75L125.76,148.89L126.17,158.18L126.38,148.33L126.79,163.6L127.21,156.28L127.41,120.93L128.45,186.22L128.65,179.3L129.06,109.87L129.48,137.15L129.68,139.07L130.3,187.94L130.51,166.11L130.72,121.84L131.75,175.08L131.96,167.59L132.16,157.62L132.37,168.24L132.58,159.46L132.78,181.1L133.4,194.33L133.61,184.4L134.23,174.38L134.64,177.93L134.85,185.79L135.05,176.22L135.47,183.55L135.67,182.75L135.88,182.45L136.09,176.43L136.29,160.69L136.91,165.32L137.12,160.76L137.32,157.99L137.53,138.1L137.74,137.04L137.94,140.84L138.36,136.1L138.56,137.13L138.77,125.29L139.6,108.71L140.01,109.57L140.22,120.26L141.46,84.56L141.66,97.57L142.28,126.08L142.49,122.53L142.69,110.2L143.11,94.34L143.31,97.13L143.52,109.87L143.73,89.35L144.14,114.94L144.35,115.35L145.17,131.55L145.38,129.2L145.59,130.96L146.2,107.5L146.41,122.55L146.62,120.79L147.03,106.83L147.24,120.58L147.44,103.26L147.86,112.01L148.06,116.11L148.48,131.47L148.68,117.05L150.33,151.25L150.54,137.36L150.95,140.31L151.16,125.35L151.37,135.6L151.57,139.03L151.78,135.18L151.99,130.08L152.4,139.31L152.61,129.17L152.81,124.93L153.02,123.11L153.23,124.42L153.43,130.89L153.64,122.91L153.85,133.42L154.26,127.22L154.46,124.54L154.67,126.59L154.88,104.25L155.7,130.65L155.91,128.98L156.12,124.06L156.32,112.03L156.53,125.54L156.74,132.63L157.15,140.33L157.36,129.21L157.56,127.06L157.77,135.24L158.18,133.57L159.01,147.31L159.21,142.15L159.42,127.86L159.83,141.18L160.04,146.89L160.25,150.98L160.45,121.96L160.87,138.97L161.07,124.57L161.28,126.7L161.49,129.25L161.69,122.53L161.9,122.84L162.11,132.24L162.93,116.87L163.14,135.18L163.34,138.83L163.55,128.53L163.76,136.75L163.96,129.44L164.17,93.62L164.38,94.11L164.58,121.34L165,150.3L165.41,139.91L165.62,143.28L165.82,146.94L166.03,110.54L167.06,164.11L167.27,160.78L167.47,159.7L167.68,162.17L167.89,150.8L168.3,153.37L168.51,130.65L168.71,136.94L168.92,163.97L169.33,178.3L169.54,174.28L169.75,154.98L170.16,173.95L170.57,161.68L170.78,166.3L170.99,137.54L171.4,161.3L171.6,167.71L171.81,153.77L172.22,163.03L172.43,167.95L172.64,175.12L172.84,112.58L173.88,186.28L174.08,181.45L174.91,196.97L175.12,196.9L175.32,198.14L175.53,197.05L175.73,197.26L175.94,175.03L176.15,185.91L176.35,159.56L176.56,150.14L176.97,183.6L177.18,90.39L178.21,149.08L178.42,130.03L178.63,131.34L179.04,104.8L179.25,104.81L179.45,67.25L179.66,48.62L179.86,123.63L180.07,128.25L180.28,99.39L180.69,145.67L180.9,105.26L181.93,154.21L182.14,143.5L182.34,116.88L183.17,171.65L183.38,132.61L184.41,177.29L184.61,172.13L184.82,155.51L185.23,135.6L185.85,135.99L186.06,154.79L186.27,156.95L186.47,127.73L186.89,171.59L187.3,169.16L187.51,179.76L187.71,181.18L187.92,161.89L188.12,159.88L188.33,102.46L189.57,171.49L189.78,146.28L189.98,151.6L190.19,127.02L190.6,162.68L190.81,137.03L191.02,147.09L191.43,145.41L191.64,157.07L191.84,142.13L192.87,170.69L193.08,165.39L193.29,156.21L193.91,168.84L194.32,166.31L194.53,157.16L194.73,156.85L194.94,165.5L195.77,136.47L196.18,144.71L196.39,151.84L197.83,107.79L198.04,107.8L198.24,91.03L198.86,93.2L199.07,103.37L200.72,44.75L200.93,54.4L201.13,64.54L201.75,89.92L201.96,81.99L202.17,89.4L202.37,90.17L202.58,77.15L202.99,90.94L203.2,74.18L203.41,76.92L204.23,94.19L204.44,81L205.06,101.76L205.26,86.96L205.47,84.08L205.68,70.75L205.88,67.75L206.09,72.9L206.3,77.05L206.71,84.83L206.92,63.75L207.95,94.57L208.16,93.36L208.36,94.12L208.57,101.53L208.78,96.9L208.98,99.83L209.19,111.2L209.39,93.49L209.81,106.86L210.01,135.42L210.22,132.18L210.43,143.9L210.63,128.35L211.25,130.74L211.46,140.65L212.49,119.7L212.7,121.92L212.91,130.34L213.32,116.75L213.73,121.29L213.94,119.77L214.14,122.81L214.35,112.27L214.76,128.72L214.97,128.23L215.18,119.51L215.38,124.21L215.59,111.03L216.62,138.91L216.83,123.24L217.04,119.8L217.24,124.35L217.45,123.55L217.65,123.4L218.07,122.11L218.69,148.12L218.89,131.8L219.72,147.84L219.93,121.49L220.34,140.93L220.55,119.1L220.75,128.17L220.96,136.5L221.37,116.85L221.78,121.6L221.99,128.62L222.2,137.48L222.4,125.44L222.82,135.21L223.02,123.54L223.44,139.57L223.64,105.18L224.47,151.63L224.68,146.68L224.88,154.88L225.09,162.21L225.3,147.17L225.5,142.86L225.71,173.64L226.33,167.66L226.53,166.23L227.15,173.81L227.36,163.85L227.57,168.43L227.77,153.55L227.98,101.26L228.39,161.51L228.6,159.59L229.01,168.16L229.22,152.1L230.25,171.43L230.46,141.18L231.08,168.13L231.28,164.39L231.49,161.68L231.7,156.42L231.9,169.86L232.11,172.59L232.32,135.21L232.73,164.02L232.94,158.7L233.76,190.06L233.97,191.92L234.18,194.21L234.59,194.07L234.79,189.75L235.21,195.3L235.41,174.87L235.62,184.54L235.83,168.13L236.03,143.43L236.45,194.44L236.65,90.59L236.86,91.75L237.07,129.35L237.69,154.42L237.89,105.45L238.1,99.02L238.31,123.72L238.51,72.14L238.92,108.75L239.13,122.2L239.34,104L239.54,140.73L239.75,135.38L240.37,132.56L240.99,165.13L241.2,172.27L241.82,121.28L242.02,152.16L242.23,154.27L242.44,155.3L242.64,168.04L242.85,136.4L243.26,159.09L243.47,165.18L243.88,184.9L244.09,170.82L244.29,156.95L244.5,158.7L244.71,144.6L244.91,144.9L245.12,150.88L245.33,126.47L245.74,146.67L245.95,146.16L246.15,142.95L246.36,123.97L247.39,183.26L247.6,182.4L247.8,113.01L248.01,95.93L248.22,123.34L248.42,138.32L249.04,146.53L249.25,156.6L249.46,169.68L249.66,153.84L249.87,143.7L250.28,141.18L250.49,167.16L250.7,162.87L250.9,160.42L251.11,164.16L251.32,163.91L251.52,146.72L252.35,182.63L252.55,180.65L252.76,174.7L253.79,177.73L254,164.89L254.41,172.08L254.83,168.64L255.03,165.33L255.24,152.03L255.45,168.37L255.65,167.78L255.86,164.08L256.27,159.31L256.48,144.97L257.3,133.84L257.51,137.78L258.13,114.45L258.34,123.88L258.54,115.85L258.96,94.38L259.16,108.02L259.37,112.83L260.19,97.47L260.4,107.04L260.61,105.72L261.23,115.38L261.43,100.37L262.67,55.91L262.88,83.53L263.09,87.58L263.29,112.86L263.5,114.07L263.71,124.07L264.53,97.29L264.74,108.94L264.94,114.41L265.15,109.14L265.36,95.52L265.56,77.72L265.77,96.41L265.98,95.38L266.18,96.01L266.39,87L266.6,105.93L266.8,100.94L267.01,103.19L268.45,120.02L268.66,131.19L268.87,111.06L269.49,122.12L269.69,141.07L270.52,157.84L270.73,153.99L270.93,152.12L271.14,154.41L271.35,141.74L271.55,140.42L271.97,142.13L272.17,140.95L272.38,143.82L272.79,145.1L273,131.56L273.41,133.92L273.62,138.64L273.82,118.56L274.03,139.36L274.24,131.42L274.44,139.77L275.48,103.86L275.68,105.37L275.89,111.93L276.3,101.94L276.51,110.32L277.33,106.13L277.54,107.79L278.37,120.74L278.57,137.58L278.78,129.95L278.99,144.5L279.19,146.93L280.23,58.22L280.43,122.6L280.64,103.37L281.05,115.78L281.26,124.67L281.67,141.89L281.88,125.07L282.08,126.9L282.29,147.2L282.7,134.17L282.91,127.11L284.15,163.16L284.36,162.98L284.56,172.95L284.77,172.31L284.98,148.51L286.01,169.75L286.21,167.97L286.63,176.61L287.04,170.9L287.25,169.96L287.45,138.55L287.87,171.54L288.07,148.26L288.28,162.55L288.49,177.14L288.69,159.07L289.11,176.63L289.31,177.92L289.72,175.7L289.93,154.05L290.96,179.77L291.17,175.17L291.38,177.6L291.79,176.7L292,142.48L292.2,139.57L292.41,161.77L293.44,195.82L293.65,194.82L294.06,191.64L294.68,199.28L294.89,193.25L295.3,180.15L295.51,159.72L295.92,197.84L296.13,107.43L296.95,174.52L297.16,168.1L297.37,123.27L297.57,115.22L297.78,134.68L297.98,78.7L299.64,163.89L299.84,159.48L300.05,146.61L300.88,181.33L301.08,177.92L301.29,178.84L301.91,191.7L302.11,191.16L302.32,172.75L303.35,197.67L303.56,191.15L303.77,173.38L304.18,165.83L304.39,172.79L304.59,172.37L304.8,161.87L305.01,162.61L305.21,166.7L305.42,172.22L305.83,163.29L306.04,189.86L306.86,197.94L307.07,175.59L307.48,143.22L307.9,158.46L308.1,161.43L308.93,191.36L309.14,184.55L309.34,188.05L309.55,187.99L309.76,180.61L310.79,204.6L310.99,203.66L311.2,204.47L311.61,206.85L312.03,205.58L312.23,205.44L313.47,201.83L313.68,203.1L314.09,203.32L314.71,191.72L314.92,199.62L315.12,201.68L315.54,200.48L315.74,199.58L315.95,193.15L316.16,195.5L318.84,199.25L319.67,181.18L319.87,187.1L320.08,190.05L320.29,189.5L320.49,190.74L320.7,193.13L321.53,189.35L321.73,189.04L321.94,189.52L322.15,183.41L322.56,189.59L322.77,188.76L322.97,182.38L323.18,178.04L323.38,184.94L323.59,189.52L324,188.67L324.21,168.64L324.42,171.66L324.62,166.49L324.83,166.29L325.04,164.44L325.24,167.63L325.45,169.24L325.66,169.38L325.86,167.99L326.07,168.04L326.28,191.59L326.69,194.69L326.9,194.4L327.1,192.32L327.93,195.78L328.13,195.69L328.34,190.18L328.96,196.88L329.17,196.57L329.37,196.64L330.2,188.17L330.41,190.63L330.61,190.87L330.82,188.95L331.64,195.94L331.85,195.62L332.06,194.92L333.09,197.35L333.3,193.91L333.71,196.71L334.12,196.19L334.33,194.98L334.54,191.97L334.95,196.08L335.16,195.85L335.36,196.45L335.57,195.28L335.78,185.69L336.6,194.09L336.81,193.94L337.01,190.45L337.84,194.81L338.05,194.61L338.25,193.05L338.46,194.78L338.67,194.48L338.87,189.52L339.29,194.03L339.49,173.78L339.7,157.41L340.11,172.39L340.32,178.06L340.52,183.21L341.14,183.04L341.35,181.44L341.56,182.8L341.76,189.04L341.97,177.62L342.59,182.7L342.8,187.97L343,185.78L343.42,187.76L343.62,191.06L343.83,190.97L344.04,188.8L344.65,194.15L345.07,193.89L345.27,195.33L345.69,190.42L345.89,196.64L346.1,113.16L346.51,188.78L346.72,181.05L347.55,152.72L347.75,164.74L347.96,180.97L348.17,159.86L348.37,171.79L348.58,168.18L348.99,189.05L349.2,183.31L349.4,160.36L349.61,175.7L349.82,119.71L350.23,179.51L350.64,178.7L350.85,180.69L351.26,155.74L351.68,169.28L351.88,180.54L352.91,197.56L353.12,198.15L353.95,192.08L354.15,196.51L354.36,195.14L354.77,197.24L354.98,197.79L355.39,200.02L355.6,176.4L356.43,200.18L356.63,199.57L356.84,190.62L357.04,188.65L357.25,201.08L357.46,200.2L357.66,203.21L358.08,199.02L358.28,200.58L358.49,203.95L359.52,198.51L359.73,194.18L360.35,180.46L360.56,199.76L360.76,191.22L360.97,205.89L361.17,206.75L361.79,206.38L362,207.25L363.24,208.6L363.45,208.06L363.65,206.18L364.27,207.3L364.48,208.47L364.89,208.14L365.1,207.41L365.31,206.57L365.72,207.56L365.92,209L366.54,206.55L366.75,165.43L366.96,150.82L367.37,173.81L367.58,175.35L369.44,126.98L369.64,134.61L370.05,155.79L370.26,155.56L370.47,130.59L370.67,124.97L371.09,128.02L371.29,132.08L371.71,131.52L371.91,132.14L372.12,130.4L372.33,133.33L372.53,125.98L372.74,124.15L372.95,122.7L373.15,124.86L373.36,128.57L373.57,129.37L373.77,134.82L374.8,166.83L375.01,165.88L375.22,164.82L375.42,176.82L376.25,190.31L376.46,179.4L376.66,176.89L376.87,183.01L377.08,183.35L377.49,184.23L377.7,182.49L377.9,176.86L378.11,185.28L378.31,184.99L378.52,186.37L378.93,183.05L379.14,167.28L380.17,173.79L380.38,173.05L380.79,173.06L381,171.13L381.21,174.16L381.41,173.74L381.62,155.87L381.83,158.11L382.03,169.03L382.65,173.15L382.86,169.59L383.68,174.84L383.89,169.14L384.1,172.06L384.3,170.91L384.51,160.76L384.72,131.84L385.34,140.96L385.54,144.88L385.75,167.86L386.16,166.04L386.37,126.87L386.57,124.49L386.78,128.23L386.99,143.62L388.02,167.5L388.23,165.92L388.85,178.3L389.05,144.69L389.88,179.12L390.5,175.78L390.71,177.17L390.91,180.55L391.12,176.07L391.32,178.11L391.53,169.51L392.36,180.78L392.56,179.75L392.77,175.82L393.6,183.57L393.8,181.44L394.01,173.88L394.63,178.07L394.84,183.48L395.25,179.99L395.45,181.62L395.66,181.6L396.07,185.27L396.28,182.57L396.49,166.51L396.9,178.96L397.11,182.13L397.31,183.78L397.52,181.16L397.73,179.65L397.93,181.12L398.14,180.05L398.35,161.7L398.76,168.8L398.97,158.39L400,172.23L400.2,170.21L400.62,175.99L401.03,175.41L401.24,175.62L401.44,169.63L402.06,171.65L402.27,176.47L402.48,170.75L402.68,178.36L402.89,180.74L403.3,182.47L403.51,185.79L403.71,182.47L403.92,161.18L404.75,175.03L404.95,170.9L405.57,176.4L405.78,185L405.99,186.43L406.19,184.83L406.4,178.56L407.02,163.67L407.23,178.53L407.64,176.14L408.05,190.79L408.26,190.52L408.46,190.56L408.67,188.41L408.88,169.79L409.7,187.76L409.91,185.93L410.12,186.71L410.32,191.54L410.74,178.86L411.15,185.69L411.36,185.78L411.56,190.83L411.77,175.85L411.97,174.03L412.18,181.89L412.59,202.04L413.01,199.64L413.21,200.41L413.42,197.04L413.63,200.8L413.83,197.48L414.04,174.23L414.45,200.14L414.66,172.19L414.87,181.85L415.07,146.11L415.49,165.97L415.69,172.58L415.9,184.64L416.1,177.17L416.31,122.35L416.52,110.46L416.72,114.27L416.93,154.53L417.14,156.64L417.34,185.8L418.17,172.56L418.38,180.85L418.58,183.43L418.79,158.57L419.41,173.73L419.62,188.09L419.82,185.18L420.03,170.45L420.24,153.24L420.44,190.14L420.65,187.18L420.85,187.35L421.06,190.82L421.27,155.75L421.89,157.43L422.09,176.58L422.3,184.53L422.51,179.32L422.71,156.16L422.92,155.38L423.13,137.44L423.33,136.28L423.54,148.6L423.75,136.83L423.95,176.53L424.16,183.54L424.37,152.21L424.57,154.56L424.78,171.88L424.98,161.64L425.19,182.67L425.4,186.92L425.6,188.64L425.81,197.51L426.02,198.58L426.22,166.21L426.84,198.68L427.05,198.35L427.26,168.71L427.88,151.89L428.08,154.07L428.29,167.58L428.5,142.38L428.91,178.28L429.11,183.69L429.94,164.26L430.15,176.6L430.35,176.58L430.56,177.45L430.77,182.76L431.18,177.36L431.39,181.27L431.59,179.77L432.21,183.75L432.42,177.24L432.63,174.15L432.83,179.24L433.04,179.92L433.24,179.8L433.45,176.62L434.28,156.19L434.48,161.5L435.31,130.51L435.52,116.37L435.93,127.2L436.14,115.75L436.34,117.41L437.37,72.21L437.58,88.49L439.03,47.97L439.23,61.15L439.65,82.3L440.06,75.28L440.27,73.09L440.47,66.22L440.68,90.97L440.89,95.43L441.09,74.39L441.71,114.74L441.92,105.07L442.12,105.05L442.33,84.93L442.74,106.21L442.95,107.66L443.36,110.4L443.57,89.96L444.6,111.48L444.81,103.95L445.02,118.88L445.43,108.6L445.64,104.21L447.08,143.18L447.29,128.47L448.32,146.65L448.53,140.79L448.94,153.56L449.35,152.28L449.56,148.53L450.18,127.27L450.59,132.79L450.8,134.46L451.21,137.46L451.62,123.6L451.83,127.72L452.04,127.88L452.24,114.52L452.45,134.01L452.66,132.5L452.86,131.95L453.07,130.92L453.28,135.91L453.48,129.04L453.69,136.14L454.1,131.96L454.31,136.21L454.51,139.21L454.72,119.43L455.75,140.3L455.96,125.98L456.99,153.98L457.2,148.56L457.61,153.1L457.82,127.3L458.03,130.35L458.23,146.24L459.06,105.55L459.26,108.12L459.47,125.6L459.68,120.67L459.88,130.44L460.09,127.98L460.3,137.08L460.71,143.61L460.92,127.72L462.16,158.52L462.36,150.91L462.57,145.78L462.77,167.98L463.19,175.08L463.39,162.25L464.22,180.22L464.43,171.69L465.05,181.67L465.25,180.11L465.46,178.04L465.87,126.44L466.29,137.73L466.49,142.09L466.9,170.39L467.11,138.07L467.52,165.79L467.73,170.9L467.94,176.83L468.14,173.01L468.35,147.18L468.76,181.23L469.18,174.86L469.38,169.21L470,180.02L470.21,162.25L470.42,153.49L470.62,173.35L470.83,170.51L471.86,196.88L472.07,196.82L472.48,199.74L472.69,196.75L472.89,197.44L473.1,197.59" style="vector-effect: none; fill: none; stroke: rgb(239, 85, 59); stroke-opacity: 1; stroke-width: 2px; opacity: 1;"/></g><g class="points"/><g class="text"/></g></g></g><g class="overplot"/><path class="xlines-above crisp" d="M0,0" style="fill: none;"/><path class="ylines-above crisp" d="M0,0" style="fill: none;"/><g class="overlines-above"/><g class="xaxislayer-above"><g class="x2tick"><text text-anchor="middle" x="0" y="333" transform="translate(719.37,0)" style="font-family: 'Open Sans', verdana, arial, sans-serif; font-size: 12px; fill: rgb(42, 63, 95); fill-opacity: 1; white-space: pre; opacity: 1;"><tspan class="line" dy="0em" x="0" y="333">Mar 9</tspan><tspan class="line" dy="1.3em" x="0" y="333">2022</tspan></text></g><g class="x2tick"><text text-anchor="middle" x="0" y="333" style="font-family: 'Open Sans', verdana, arial, sans-serif; font-size: 12px; fill: rgb(42, 63, 95); fill-opacity: 1; white-space: pre; opacity: 1;" transform="translate(838.31,0)">Mar 11</text></g><g class="x2tick"><text text-anchor="middle" x="0" y="333" style="font-family: 'Open Sans', verdana, arial, sans-serif; font-size: 12px; fill: rgb(42, 63, 95); fill-opacity: 1; white-space: pre; opacity: 1;" transform="translate(957.26,0)">Mar 13</text></g></g><g class="yaxislayer-above"><g class="y2tick"><text text-anchor="end" x="601.9" y="4.199999999999999" transform="translate(0,313.78999999999996)" style="font-family: 'Open Sans', verdana, arial, sans-serif; font-size: 12px; fill: rgb(42, 63, 95); fill-opacity: 1; white-space: pre; opacity: 1;">0</text></g><g class="y2tick"><text text-anchor="end" x="601.9" y="4.199999999999999" style="font-family: 'Open Sans', verdana, arial, sans-serif; font-size: 12px; fill: rgb(42, 63, 95); fill-opacity: 1; white-space: pre; opacity: 1;" transform="translate(0,267.43)">2000</text></g><g class="y2tick"><text text-anchor="end" x="601.9" y="4.199999999999999" style="font-family: 'Open Sans', verdana, arial, sans-serif; font-size: 12px; fill: rgb(42, 63, 95); fill-opacity: 1; white-space: pre; opacity: 1;" transform="translate(0,221.07)">4000</text></g><g class="y2tick"><text text-anchor="end" x="601.9" y="4.199999999999999" style="font-family: 'Open Sans', verdana, arial, sans-serif; font-size: 12px; fill: rgb(42, 63, 95); fill-opacity: 1; white-space: pre; opacity: 1;" transform="translate(0,174.70999999999998)">6000</text></g><g class="y2tick"><text text-anchor="end" x="601.9" y="4.199999999999999" style="font-family: 'Open Sans', verdana, arial, sans-serif; font-size: 12px; fill: rgb(42, 63, 95); fill-opacity: 1; white-space: pre; opacity: 1;" transform="translate(0,128.35)">8000</text></g></g><g class="overaxes-above"/></g></g><g class="polarlayer"/><g class="smithlayer"/><g class="ternarylayer"/><g class="geolayer"/><g class="funnelarealayer"/><g class="pielayer"/><g class="iciclelayer"/><g class="treemaplayer"/><g class="sunburstlayer"/><g class="glimages"/><defs id="topdefs-4ec917"><g class="clips"/><clipPath id="legend4ec917"><rect width="92" height="48" x="0" y="0"/></clipPath></defs><g class="layer-above"><g class="imagelayer"/><g class="shapelayer"/></g><g class="infolayer"><g class="legend" pointer-events="all" transform="translate(1095.92,100)"><rect class="bg" shape-rendering="crispEdges" style="stroke: rgb(68, 68, 68); stroke-opacity: 1; fill: rgb(255, 255, 255); fill-opacity: 1; stroke-width: 0px;" width="92" height="48" x="0" y="0"/><g class="scrollbox" transform="" clip-path="url(#legend4ec917)"><g class="groups"><g class="traces" transform="translate(0,14.5)" style="opacity: 1;"><text class="legendtext" text-anchor="start" x="40" y="4.680000000000001" style="font-family: 'Open Sans', verdana, arial, sans-serif; font-size: 12px; fill: rgb(42, 63, 95); fill-opacity: 1; white-space: pre;">res</text><g class="layers" style="opacity: 1;"><g class="legendfill"/><g class="legendlines"><path class="js-line" d="M5,0h30" style="fill: none; stroke: rgb(99, 110, 250); stroke-opacity: 1; stroke-width: 2px;"/></g><g class="legendsymbols"><g class="legendpoints"/></g></g><rect class="legendtoggle" x="0" y="-9.5" width="86.171875" height="19" style="fill: rgb(0, 0, 0); fill-opacity: 0;"/></g><g class="traces" transform="translate(0,33.5)" style="opacity: 1;"><text class="legendtext" text-anchor="start" x="40" y="4.680000000000001" style="font-family: 'Open Sans', verdana, arial, sans-serif; font-size: 12px; fill: rgb(42, 63, 95); fill-opacity: 1; white-space: pre;">db time</text><g class="layers" style="opacity: 1;"><g class="legendfill"/><g class="legendlines"><path class="js-line" d="M5,0h30" style="fill: none; stroke: rgb(239, 85, 59); stroke-opacity: 1; stroke-width: 2px;"/></g><g class="legendsymbols"><g class="legendpoints"/></g></g><rect class="legendtoggle" x="0" y="-9.5" width="86.171875" height="19" style="fill: rgb(0, 0, 0); fill-opacity: 0;"/></g></g></g><rect class="scrollbar" rx="20" ry="3" width="0" height="0" style="fill: rgb(128, 139, 164); fill-opacity: 1;" x="0" y="0"/></g><g class="g-gtitle"/><g class="g-xtitle"/><g class="g-x2title"/><g class="g-ytitle"/><g class="g-y2title"/></g></svg>