<svg class="main-svg" xmlns="http://www.w3.org/2000/svg" xmlns:xlink="http://www.w3.org/1999/xlink" width="1200" height="400" style="" viewBox="0 0 1200 400"><rect x="0" y="0" width="1200" height="400" style="fill: rgb(255, 255, 255); fill-opacity: 1;"/><defs id="defs-354efd"><g class="clips"><clipPath id="clip354efdxyplot" class="plotclip"><rect width="473.09999999999997" height="220"/></clipPath><clipPath id="clip354efdx2y2plot" class="plotclip"><rect width="473.09999999999997" height="220"/></clipPath><clipPath class="axesclip" id="clip354efdx"><rect x="80" y="0" width="473.09999999999997" height="400"/></clipPath><clipPath class="axesclip" id="clip354efdy"><rect x="0" y="100" width="1200" height="220"/></clipPath><clipPath class="axesclip" id="clip354efdxy"><rect x="80" y="100" width="473.09999999999997" height="220"/></clipPath><clipPath class="axesclip" id="clip354efdy2"><rect x="0" y="100" width="1200" height="220"/></clipPath><clipPath class="axesclip" id="clip354efdxy2"><rect x="80" y="100" width="473.09999999999997" height="220"/></clipPath><clipPath class="axesclip" id="clip354efdx2"><rect x="602.9" y="0" width="473.09999999999997" height="400"/></clipPath><clipPath class="axesclip" id="clip354efdx2y"><rect x="602.9" y="100" width="473.09999999999997" height="220"/></clipPath><clipPath class="axesclip" id="clip354efdx2y2"><rect x="602.9" y="100" width="473.09999999999997" height="220"/></clipPath></g><g class="gradients"/><g class="patterns"/></defs><g class="bglayer"><rect class="bg" x="80" y="100" width="473.09999999999997" height="220" style="fill: rgb(229, 236, 246); fill-opacity: 1; stroke-width: 0;"/><rect class="bg" x="602.9" y="100" width="473.09999999999997" height="220" style="fill: rgb(229, 236, 246); fill-opacity: 1; stroke-width: 0;"/></g><g class="layer-below"><g class="imagelayer"/><g class="shapelayer"/></g><g class="cartesianlayer"><g class="subplot xy"><g class="layer-subplot"><g class="shapelayer"/><g class="imagelayer"/></g><g class="minor-gridlayer"><g class="x"/><g class="y"/></g><g class="gridlayer"><g class="x"><path class="xgrid crisp" transform="translate(167.99,0)" d="M0,100v220" style="stroke: rgb(255, 255, 255); stroke-opacity: 1; stroke-width: 1px;"/><path class="xgrid crisp" transform="translate(323.45,0)" d="M0,100v220" style="stroke: rgb(255, 255, 255); stroke-opacity: 1; stroke-width: 1px;"/><path class="xgrid crisp" transform="translate(478.92,0)" d="M0,100v220" style="stroke: rgb(255, 255, 255); stroke-opacity: 1; stroke-width: 1px;"/></g><g class="y"><path class="ygrid crisp" transform="translate(0,253.9)" d="M80,0h473.09999999999997" style="stroke: rgb(255, 255, 255); stroke-opacity: 1; stroke-width: 1px;"/><path class="ygrid crisp" transform="translate(0,194.56)" d="M80,0h473.09999999999997" style="stroke: rgb(255, 255, 255); stroke-opacity: 1; stroke-width: 1px;"/><path class="ygrid crisp" transform="translate(0,135.22)" d="M80,0h473.09999999999997" style="stroke: rgb(255, 255, 255); stroke-opacity: 1; stroke-width: 1px;"/></g></g><g class="zerolinelayer"><path class="yzl zl crisp" transform="translate(0,313.23)" d="M80,0h473.09999999999997" style="stroke: rgb(255, 255, 255); stroke-opacity: 1; stroke-width: 2px;"/></g><path class="xlines-below"/><path class="ylines-below"/><g class="overlines-below"/><g class="xaxislayer-below"/><g class="yaxislayer-below"/><g class="overaxes-below"/><g class="plot" transform="translate(80,100)" clip-path="url(#clip354efdxyplot)"><g class="scatterlayer mlayer"><g class="trace scatter trace71305c" style="stroke-miterlimit: 2; opacity: 1;"><g class="fills"/><g class="errorbars"/><g class="lines"><path class="js-line" d="M0,117.75L0.62,148.25L0.93,135.18L1,131.88L1.23,138L1.39,123.35L1.47,115.55L1.54,114.12L1.77,124.21L1.85,124.49L2.54,142.08L2.62,145.22L3.55,162.54L3.86,161.05L3.93,160.35L4.16,157.82L4.32,159.13L4.4,161.53L4.7,164.21L4.94,160.03L5.17,162.28L5.24,160.53L6.17,138.59L6.32,141.47L6.4,143.98L8.41,206.04L8.48,206.11L8.95,206.49L9.25,206.19L9.33,205.79L9.79,204.48L10.26,204.83L10.33,205.22L10.49,204.37L10.64,205.47L10.95,205.17L11.03,205.62L11.41,206.19L11.64,205.27L11.72,204.88L12.57,193.68L12.72,195.29L12.8,197.65L13.5,206.36L13.73,203.52L13.8,202.65L14.42,195.78L15.11,196.14L15.19,196.25L16.19,190.89L16.27,191.03L16.35,186.85L16.58,186.58L16.66,187.84L16.73,187.25L16.81,182.73L17.66,161.3L17.81,165.02L17.89,164.08L17.97,173.83L18.66,167.19L18.74,169.08L19.05,170.95L19.12,170.31L19.2,169.25L20.05,160L20.28,163.74L20.36,164.47L21.67,111.75L21.75,103.56L21.98,91.63L22.29,109.93L22.36,113.18L22.9,141.78L23.13,125.16L23.21,122.36L23.83,119.25L24.14,134.03L24.21,134.02L24.29,132.61L24.52,140.26L24.6,142.29L25.6,150.75L25.68,150.04L25.76,151.26L26.76,161.49L26.84,157.77L27.3,161.01L27.45,154.99L27.53,151.2L27.68,139.9L28.3,146.5L28.38,147.25L29.3,168.51L29.38,171.78L30.61,207.57L30.77,207.28L30.85,207.24L31.15,206.31L31.62,206.69L31.69,207.04L32.08,208.71L32.7,208.27L32.77,208.16L33.47,208.01L33.54,207.55L34.47,194.83L34.55,192.74L34.86,187.59L35.24,192.56L35.32,193.52L36.17,202.62L36.4,201.23L36.48,200.72L36.63,199.63L37.17,201.1L37.25,200.75L38.56,193.98L38.63,193.5L38.94,191.55L39.02,188.83L39.87,180.9L39.95,182.62L40.02,182.69L40.18,181.94L40.25,178.95L40.87,166.75L41.18,171.19L41.26,171.56L41.41,175.02L43.57,125.37L43.65,118.68L44.11,91.73L44.5,107.28L44.57,114.52L45.04,149.32L45.57,138.8L45.65,133.61L45.96,120.76L46.27,132.58L46.35,134.62L46.65,142.27L46.73,132.51L47.89,160.95L47.97,159.2L48.04,157.91L48.51,153.28L48.74,157.24L48.81,158.66L48.89,162.37L49.35,156.49L49.43,156.75L49.51,155.31L49.89,145.53L50.28,152.88L50.36,152.68L50.43,152.89L50.51,150.6L50.82,149.77L51.74,178.31L51.82,183.22L53.13,207.23L53.21,207.36L53.36,207.64L53.52,206.6L53.59,206.36L53.75,206.55L53.9,205.67L53.98,205.47L54.21,205.25L54.29,205.39L54.37,206.23L54.6,207.34L54.75,206.18L55.21,207.14L55.29,207.28L55.6,206.74L55.68,208.18L55.75,208.81L56.22,206.85L56.29,205.01L57.07,188.06L57.45,193.29L57.53,193.82L57.91,200.84L58.45,198.72L58.53,198.41L58.76,197.31L58.99,198.06L59.07,198.9L59.46,200.66L59.76,198.85L59.84,198.4L60.69,194.16L60.77,194.45L61,196.47L61.38,192.64L61.46,183.41L61.69,183.88L61.77,182.55L61.85,181.69L62.69,163.43L62.93,163.47L63,163.42L63.08,163.23L63.16,164.57L63.23,164.97L63.39,170.98L63.93,164.99L64.01,163.97L65.32,140.5L65.39,147.95L66.32,104.8L66.63,114.74L66.7,120.45L67.24,155.05L67.63,140.87L67.71,136.37L68.02,123.14L68.09,117.24L68.17,116.11L68.32,121.94L68.4,123.5L69.94,141.27L70.02,142.01L70.71,133.17L70.87,139.16L70.95,140.94L71.56,155.28L71.72,146.18L71.79,142.44L72.8,111.72L72.87,113.1L72.95,117.76L74.34,137.37L74.42,138.07L75.11,150.02L75.19,152.9L76.04,176.4L76.42,169.36L76.5,168.68L78.73,148.37L78.81,149.62L78.89,150.61L79.66,152.7L79.74,151.15L81.51,145.14L81.59,146.4L83.21,176.53L83.52,171.96L83.59,170.49L84.44,147.23L84.52,145.8L84.6,154.43L85.21,141.44L85.29,139.96L86.75,118.55L86.83,119.3L86.91,121.23L86.99,120.9L87.06,122.46L87.14,123.63L87.22,121.83L87.37,126.8L87.76,126.1L87.83,126.06L87.91,126.56L88.07,124.34L88.14,124.74L88.22,121.2L88.84,114.54L89.07,116.68L89.14,119L89.38,122.32L89.53,116.71L89.61,113.72L89.99,114.45L90.22,104.59L90.3,105.25L90.38,94.01L91,61.27L91.23,73.87L91.3,87.92L91.46,104.89L92.08,95.5L92.15,96.2L92.85,112.69L92.92,116.06L93.46,141.27L93.54,146.14L93.77,151.57L93.85,146.21L93.93,137.38L94.85,167.74L95.16,155.64L95.24,155.06L96.7,125.7L96.78,128.68L96.86,131.13L97.47,146.47L97.55,148.45L98.17,163.44L98.63,158.32L98.71,157.39L98.78,157.64L99.02,156.68L99.09,156.7L99.17,164.53L99.48,159.58L99.94,163.54L100.02,164.28L100.63,177.05L100.87,174.15L100.94,171.56L101.25,162.84L101.33,160L102.56,140.96L102.64,141.11L102.95,141.34L103.57,139.03L103.64,139.63L103.72,141.28L105.34,163.52L105.42,163.52L105.57,165.69L105.65,164.59L105.72,162.83L106.73,139.49L106.8,148L106.88,148.27L107.04,147.2L107.11,146.35L108.65,134.54L108.73,132.04L109.27,135.07L109.66,118.26L109.73,116.19L110.04,109.52L110.35,120L110.43,118.68L110.66,116.23L110.89,122.42L110.97,121.7L111.05,121.63L111.2,128.78L111.28,135.64L111.66,146.4L112.05,137.71L112.13,135.14L112.36,128.95L112.66,139.43L112.74,141.94L113.05,147.77L113.28,141.84L113.44,143.14L113.51,141.81L113.59,141.3L113.67,143.07L113.74,145.24L114.44,159.57L114.67,151.37L114.75,148.04L115.52,141.31L115.6,145.73L115.67,147.36L116.83,133.52L116.91,135.06L118.22,170.11L118.29,174.13L119.3,207.45L119.53,205.46L119.61,205.09L120.53,189.2L120.92,191.31L120.99,192.91L122.07,201.61L122.15,201.69L122.3,203.99L122.38,205.83L122.54,207.28L122.92,203.95L123,202.72L123.69,194.26L124,197.68L124.08,198.53L125.08,203.82L125.31,203.47L125.39,203.45L125.7,204.44L126.01,203.69L126.08,202.9L127.16,190.61L127.55,193.59L127.63,193.35L128.01,192.11L128.09,181.65L128.47,176.39L128.55,174.58L129.01,176.12L129.55,167.3L129.63,166.42L129.71,165.58L130.25,166.96L130.32,166.72L130.4,166.37L131.87,153.27L131.94,150.47L133.02,92.66L133.25,104.09L133.33,108.73L134.57,159.6L134.64,156.49L135.03,162.03L136.03,135.96L136.11,136.42L136.18,136.15L136.26,137.75L136.34,140.14L138.19,172.73L138.27,168.08L138.96,147.71L139.12,148.21L139.19,151.86L140.12,168.36L140.19,168.95L141.66,208.87L141.81,207.49L141.89,206.53L142.2,205.41L142.28,204.06L142.43,202.34L142.97,204.55L143.05,204.71L143.36,208.6L143.9,207.2L143.97,207.09L144.44,206.58L144.51,207.32L144.59,207.94L145.98,198.6L146.21,200.1L146.29,200.74L146.9,203.58L147.29,202.36L147.37,202.19L147.98,202.58L148.06,202.29L148.14,202.02L148.21,202.45L148.45,200.08L148.52,199.18L149.6,191.13L149.68,191.71L149.76,193.53L150.53,196.31L150.61,196.3L150.68,192.61L152.07,167.92L152.15,169.96L152.3,173.95L152.76,168.8L152.84,168.93L152.92,167.49L153.15,164.36L153.23,164.52L153.3,162.08L153.61,163.42L155.16,103.01L155.46,113.63L155.54,114.05L156.08,147.56L156.54,141.18L156.62,137.55L156.7,137.08L156.77,132.02L156.93,112.46L157.62,116.56L157.7,117.93L157.78,117.15L157.93,121.05L158.01,124.4L158.93,152.96L159.09,151.04L159.17,149.22L159.55,143.16L159.78,150.15L159.86,151.73L160.48,165.61L160.71,159.98L160.78,159.04L161.86,145.07L161.94,147.02L163.1,190.01L163.18,193.34L164.18,207.25L164.25,207.18L164.41,207.34L164.49,206.83L164.56,206.31L166.49,207.69L166.57,207.55L167.34,205.1L167.42,204.58L168.34,191.21L168.65,193.55L168.73,195.31L168.96,199.43L169.58,198.68L169.65,198.21L169.88,197.42L170.04,199.35L170.12,199.99L170.42,201.16L170.66,199.74L170.73,198.68L171.35,193.11L171.66,194.92L171.73,195.94L172.66,171.78L173.05,172.24L173.12,170.51L173.43,179.3L173.97,176.06L174.05,176.23L174.43,179.24L174.74,176.54L174.82,174.25L177.13,116.01L177.21,108.23L177.36,101.42L177.6,109.04L177.67,113.84L177.83,111.03L178.29,144.94L178.6,131.05L178.68,128.47L178.75,136.65L179.22,111.48L179.37,122.88L179.45,126.08L181.07,152.66L181.14,151.73L181.22,151.1L181.3,151.37L181.45,149.65L181.53,148.39L181.61,147.05L181.99,151.46L182.07,155.6L182.53,166.42L182.92,161.41L182.99,158.61L183.46,143.04L183.92,144.53L184,146.28L186.08,207.27L186.31,206.95L186.39,206.91L187.39,206.52L187.47,206.73L187.77,207.05L188.01,206.65L188.08,205.5L188.47,206.18L188.78,205.56L188.85,205.22L189.01,206.51L189.24,204.79L189.32,204.14L189.63,200.95L189.7,199.79L190.32,196.29L190.55,197.89L190.63,198.69L191.4,203.62L191.78,202.97L191.86,202.82L192.63,203.95L192.71,203.15L192.79,201.49L193.56,191.7L193.87,195.32L193.94,195.56L195.56,164.91L195.64,172.77L196.33,168.09L196.49,169.22L196.57,171.01L196.8,173.88L197.18,170.29L197.34,171.6L197.41,170.11L198.57,143.85L198.65,140.8L199.19,123.08L199.26,112.93L199.57,92.97L199.96,115.17L200.04,119L200.5,156.88L200.96,143.12L201.04,140.05L201.42,107.42L201.96,118.07L202.04,120.8L203.2,158.23L203.27,160.3L204.35,172.95L204.66,170.18L204.74,169.74L204.89,166.37L204.97,165.16L205.2,157.16L205.28,151.59L205.43,147.24L205.51,143.75L206.59,166.32L206.67,168.34L208.29,207.77L208.6,206.37L208.67,206.19L209.06,205.2L209.37,206.06L209.44,206.56L209.68,206.28L209.91,207.09L209.98,207.46L210.06,207.59L210.14,207.47L210.22,206.36L210.6,206.54L211.06,205.28L211.14,206.55L211.68,204.01L211.76,203.45L212.68,198.6L212.84,198.72L212.91,198.46L213.15,197.45L213.53,198.57L213.61,198.41L213.69,198.35L213.84,198.62L214.07,197.94L214.15,197.54L214.3,196.98L214.53,198.29L214.61,198.88L214.92,200.19L215.15,198.61L215.23,198.16L215.69,191.63L216.15,193.39L216.23,195.04L216.62,199.82L217,196.17L217.08,195.97L218.16,170.55L218.54,172.7L218.62,174.65L219.16,176.46L219.31,174.81L219.39,173.84L219.78,176.89L219.85,176.73L219.93,164.8L220.32,168.12L220.7,156.04L220.78,154L220.86,161.84L221.32,139.76L221.4,137.56L221.78,99.07L222.17,118.19L222.25,122.67L222.71,146.3L223.09,138.64L223.17,136.33L223.56,127.98L223.94,132.9L224.02,135.38L224.1,135.05L224.17,136.31L224.25,138.75L224.33,138.62L224.4,137.07L224.64,139.48L224.71,142.8L225.64,158.13L225.95,154.34L226.02,153.73L226.33,147.26L226.56,151.45L226.64,153.54L227.18,163.41L227.41,154.45L227.49,148.18L228.34,109.81L228.65,116.64L228.72,121.01L229.03,138.78L229.11,144.79L230.11,176.57L230.19,175.99L230.27,176.5L231.65,187.64L231.88,186.69L231.96,186.29L232.35,186.67L232.66,185.18L232.73,180.63L233.58,151.87L233.81,161.14L233.89,162.79L234.28,171.43L234.58,164.13L234.66,160.68L235.82,133.01L235.89,133.15L235.97,133.19L236.28,131.98L236.36,131.43L236.9,129.13L237.05,130.9L237.13,131.77L237.98,135.77L238.05,137.88L238.82,145.8L239.13,142.15L239.21,140.92L241.52,116.78L241.6,116.89L241.76,117.19L243.84,116.8L244.99,81.27L245.07,68.16L245.46,16.13L245.92,49.09L246,59.56L246.38,98.25L246.84,84.46L246.92,79.27L247.38,66.32L247.62,72.12L247.69,81.11L248.16,94.16L248.23,74.47L248.31,53.16L248.39,45.14L248.77,73.25L248.85,77.37L249.16,104.83L249.24,120.28L251.01,47.26L251.09,50.23L251.16,71.03L252.24,130.68L252.32,129.64L252.55,127.41L252.86,132.85L252.94,134.93L253.55,152.62L253.63,155.38L254.02,163.8L254.32,155.31L254.4,153.6L255.33,129.15L255.56,136.54L255.64,137.76L256.33,132.36L256.41,128.41L257.18,126.71L257.26,127.17L257.33,128.54L257.87,125.06L257.95,125.05L258.03,124.62L258.26,125.7L258.33,127.64L258.87,118.89L259.11,122.2L259.18,125.68L259.34,130.5L260.03,129.54L260.11,129.41L261.03,142.16L261.27,141.37L261.34,130.64L261.73,124.14L262.19,126L262.27,134.74L262.42,134.68L262.5,133.58L262.58,134.24L262.73,132.41L262.88,132.55L262.96,129.63L263.04,130.21L263.19,127.02L263.27,125.91L264.35,116.92L264.5,117.56L264.58,119.09L264.74,121.28L264.97,117.35L265.12,118.17L265.2,116.08L266.12,99.7L266.35,106.26L266.43,106.75L266.74,118.66L266.82,121.6L267.05,124.89L267.59,123.99L267.67,122.75L267.9,120.3L268.13,126.16L268.21,128.62L268.59,139.16L269.05,135.67L269.13,135.71L269.36,142.48L269.67,133.31L269.9,138.59L269.98,137.35L270.9,126.14L270.98,128.31L272.37,149.85L272.45,151.88L273.84,187.36L273.91,190.96L274.45,201.22L274.76,198.81L274.84,197.93L275.15,193.97L275.69,195.01L275.76,195.27L275.84,195.14L275.92,195.43L275.99,195.36L276.07,197.17L276.69,202.4L276.77,202.89L277.15,206.42L277.61,206.15L277.69,205.82L278.08,202.93L278.15,201.91L278.46,197.11L278.54,195.84L279.08,190.06L279.39,193.08L279.46,194.11L280.24,203.73L280.54,203.33L280.62,203.43L281.24,203.34L281.32,202.67L281.39,202.82L281.62,201.64L281.7,201.07L282.39,197.74L282.7,198.3L282.78,198.2L283.01,199.47L283.24,197.94L283.32,192.41L284.17,178.87L284.25,183.89L284.32,185.35L284.48,169.58L284.55,155.84L284.71,129.9L285.33,131.86L285.4,146.57L285.63,181.38L286.33,174.33L286.4,175.49L286.48,177.16L286.64,170.32L286.94,172.01L287.02,170.77L287.79,135.82L287.87,132.47L288.49,84.05L288.87,95.69L288.95,104.16L289.41,153.47L289.87,140.38L289.95,137.89L290.34,124.29L290.41,125.94L290.49,139.59L291.96,181.94L292.03,181.56L292.11,172.1L292.96,158.36L293.04,167.57L293.11,169.43L293.96,183.52L294.04,179.14L294.12,173.58L294.89,137.37L294.96,142.58L295.04,147.61L295.97,194.31L296.04,195.78L296.66,202.53L296.97,201.26L297.05,200.98L297.12,201.13L297.2,200.15L297.28,199.61L298.2,194.39L298.28,194.72L298.36,195.17L299.44,203.61L299.51,205.03L299.9,207.2L300.36,206.01L300.44,205.84L301.37,200.8L301.44,201.4L301.52,202.43L302.21,205.4L302.6,204.72L302.68,204.8L303.14,201.22L303.76,201.86L303.83,201.66L304.22,197.9L304.3,196.23L304.6,194.57L304.91,196.68L304.99,197.93L305.22,201.77L305.68,198.77L305.76,187.86L306.15,181.01L306.61,182.93L306.69,190.08L307.46,174.19L307.61,180.31L307.69,184.91L308,184.28L308.15,188.42L308.46,186.63L308.54,184.88L308.77,170.66L308.85,168.09L310.39,108.43L310.46,104.66L310.54,103.99L310.62,87.76L310.7,78.37L311.08,108.14L311.16,113.64L311.24,105.45L311.62,131.49L311.7,127.5L311.78,127.76L311.93,126.62L312.08,130.06L312.16,139.19L312.39,135.14L312.55,140.63L312.62,143.97L312.86,154.22L313.4,145.63L313.47,147.81L314.4,177.4L314.86,172.39L314.94,169.31L315.09,166.4L315.4,171.28L315.55,171.21L315.63,171.94L315.71,170.92L315.86,175.21L315.94,178.04L316.17,179.58L316.33,172.43L316.4,169.88L316.56,160.92L317.17,166.21L317.25,169.51L318.33,191.72L318.41,194.39L319.41,206.71L319.72,206.08L319.8,206.08L320.34,198.87L320.8,199.68L320.88,201.53L321.41,207.5L321.8,207.23L321.88,207.13L322.26,206.43L322.34,205.89L322.49,205.83L322.57,204.78L323.19,196.61L323.27,195.61L323.57,192.68L323.96,196.09L324.04,196.37L325.5,205.12L325.58,205.58L325.66,205.86L325.96,204.83L326.04,203.92L326.5,198.9L326.97,200.88L327.04,201.25L327.43,203.74L327.66,202.91L327.74,201.17L328.82,175.38L328.9,186.95L330.44,169.08L330.75,169.53L330.82,170.57L330.9,170.18L330.98,161.43L331.05,160.98L331.13,164.39L331.21,165.35L331.36,165.76L331.44,164.87L331.52,162.7L332.83,101.97L333.14,113.68L333.21,118.42L333.37,113.08L333.44,123.06L333.52,130.42L334.29,148.85L334.37,145.57L334.45,141.2L334.99,110.34L335.37,119.12L335.45,122.84L335.53,112.23L335.99,133.29L336.14,129.96L336.22,131.14L336.38,132.63L336.45,144.13L336.53,146.75L336.92,142.58L337.15,143.83L337.22,144.77L337.99,165.43L338.3,156.05L338.38,154.33L338.92,134.94L339.31,139.82L339.38,141.22L340.08,157.07L340.15,160.25L341.77,203.83L341.93,203.82L342,203.51L342.31,203.7L342.62,202.53L342.7,202.88L342.78,203.49L342.85,203.33L343.16,204.38L343.24,204.62L343.78,205.89L344.16,205.58L344.24,205.55L345.09,198.98L345.17,197.6L345.86,183.18L346.17,187.19L346.25,188.02L346.63,197.83L347.25,195.41L347.33,195.14L347.4,194.51L347.79,197.53L347.87,197.9L348.64,190.04L348.71,187.77L350.1,176.62L350.18,163.56L350.26,162.17L350.56,167.81L350.64,169.76L350.87,171.9L351.03,169.65L351.1,180.65L351.72,160.68L352.18,165.11L352.26,166.33L352.49,168.16L352.65,161.7L352.72,156.81L353.96,126.6L354.03,127.72L354.11,130.77L354.19,130.63L354.27,127.43L355.11,110.66L355.27,114.52L355.35,119.43L355.96,135.09L356.19,127.72L356.27,124.36L356.43,129.09L356.81,119.91L356.96,125.3L357.04,130.22L357.58,142.34L357.81,132.52L357.89,133.3L358.2,125.11L358.51,129.24L358.58,140.72L358.97,146.5L359.28,140.22L359.36,138.62L359.97,148.13L360.05,151.66L360.28,157.47L360.51,146.92L360.67,147.04L360.74,141.41L361.05,133.36L361.36,143.05L361.44,142.31L361.59,139.49L361.98,146.69L362.05,148.81L362.52,163.97L362.59,167.99L363.98,201.41L364.06,201.74L365.06,205.31L365.29,204.97L365.37,204.78L365.6,204.19L365.99,204.89L366.06,205.27L366.6,207.61L366.84,206.52L366.91,205.82L368.3,190.3L368.53,192.75L368.61,194.47L368.99,198.12L369.46,196.54L369.53,196.46L370.31,194.78L370.38,193.88L371.15,191.27L371.23,191.64L371.31,192.65L371.54,196.69L372.16,195.37L372.23,194.88L373.24,180.53L373.31,170.44L374.01,161.62L374.16,162.68L374.24,171.61L374.47,175.23L375.01,173.43L375.09,170.85L376.55,135.36L376.63,135.54L376.71,134.76L377.25,104.62L377.55,119.37L377.63,124.11L378.17,156.53L378.48,140.79L378.56,134.93L378.63,135.81L378.79,132.25L378.87,126.69L379.1,117.63L379.41,132.22L379.48,135.31L380.18,125.27L380.56,126.94L380.64,127.23L380.79,130.18L381.26,125.94L381.33,126.1L381.41,126.32L381.49,126.54L381.56,124.19L382.49,149.72L382.57,143.5L382.64,137.1L383.26,103.48L383.8,107.53L383.88,109.75L384.26,113.71L384.34,113.69L387.81,114.08L387.89,113.35L388.12,117.71L388.2,118.02L388.81,129.18L389.28,125.48L389.35,125.4L389.66,123.96L390.2,128.02L390.36,126.58L390.43,126.09L390.59,127.11L390.9,124.66L390.97,124.45L392.36,120.37L392.44,120.48L394.29,142.61L394.52,138.89L394.6,127.34L394.91,127.74L395.06,122.95L395.45,125L395.52,133.61L395.83,133.66L396.99,121.16L397.06,122L397.14,123.48L397.91,114.02L398.3,115.69L398.38,116.03L399.3,106.66L399.38,107.16L399.46,111.39L400.3,122.1L400.38,118.94L400.46,115.47L401.54,52.87L401.92,58L402,72.15L402.31,105.54L402.93,98.75L403,97.94L403.23,98.69L403.47,97.22L403.54,96.25L403.62,95.82L403.7,85.93L403.85,66.24L404.39,95.22L404.47,101.65L404.62,114.57L404.7,130.48L405.78,170L406.01,162.57L406.09,158.44L407.4,125.9L407.48,128.57L407.55,127.73L407.86,131L407.94,132.51L408.86,154.55L408.94,157.11L409.79,176.7L409.94,173.9L410.02,172.04L410.79,153.16L411.02,159.24L411.1,161.75L412.02,137.47L412.33,140.83L412.41,141.64L412.8,145.46L413.03,141.84L413.1,140.43L414.11,134.99L414.18,135.28L414.26,134.97L414.49,133.97L414.57,134.62L414.65,137.19L416.34,159.41L416.42,160.08L416.73,158.66L417.11,161.82L417.19,160.13L418.43,148.64L418.66,150.6L418.73,153.01L419.35,153.52L420.66,112.2L420.74,108L421.36,96.89L421.43,107.3L421.51,107.67L421.59,105.92L421.82,113.13L421.9,111.95L421.97,114.04L422.59,154.43L422.98,144.13L423.05,140.4L423.44,132.16L423.75,139.28L423.82,140.69L424.21,139.79L424.83,148.77L424.9,146.6L424.98,145.7L425.21,149.83L425.29,152.48L425.6,146.01L425.67,142.99L426.68,124.3L426.75,122.47L426.91,121.82L426.99,124.48L427.06,126.18L427.22,126.15L427.6,141.97L427.68,144.79L428.99,179.95L429.14,177.15L429.22,164.03L429.61,72.53L429.68,60.75L430.07,11L430.46,53.54L430.53,68.72L430.92,71.67L431.07,62.42L431.23,70.66L431.3,72.5L433.39,200.75L433.46,201.46L434,206.13L434.31,205.33L434.39,205.08L434.54,204.48L434.93,205.86L435.01,206.35L435.85,208.41L436.01,208.21L436.08,208.1L436.32,207.68L436.47,208.62L436.78,208.33L436.86,208.22L437.86,206.85L437.94,206L438.78,196.24L439.17,198.22L439.25,199.69L439.4,201.05L439.63,198.63L439.86,200.04L439.94,197.32L440.71,185.12L441.02,187.67L441.1,188.43L441.64,190.38L442.56,173.9L442.64,170.68L443.8,111.68L443.87,100.87L443.95,99.36L444.18,109.18L444.26,113.68L444.8,144.87L445.26,140.37L445.34,142.53L445.42,140.66L445.72,150.23L445.8,154.74L446.26,164.48L446.57,156.48L446.65,154.57L447.34,145.65L447.42,153.71L447.5,154.07L447.73,151.9L447.81,153.8L447.88,152.1L448.11,149.34L448.35,153.47L448.42,155.31L448.65,162.92L448.73,152.13L449.12,153.44L449.19,149.9L449.58,135.42L449.89,145.87L449.97,145.44L451.28,187.16L451.35,189.33L452.43,206.2L452.59,205.41L452.66,204.12L453.59,195.58L453.74,197.1L453.82,197.15L453.98,196.81L454.05,198.69L454.13,199.36L454.9,206.21L455.21,205.37L455.29,205.09L455.44,204.58L455.9,206.02L455.98,206.41L456.6,209L457.06,208.2L457.14,208.32L457.68,208.78L457.75,207.94L457.83,207.98L458.14,207.29L458.22,206.85L458.6,205.14L459.22,205.72L459.3,205.5L459.6,204.91L459.68,204.01L460.61,194.83L460.84,197.35L460.92,197.41L462.07,183.68L462.15,188.29L462.77,178.97L463.15,182.01L463.23,182.76L463.69,184.14L463.77,183.26L463.85,182.09L465.77,132.5L465.85,127.25L466.16,109.98L466.55,127.18L466.62,128.56L467.01,153.47L467.55,142.81L467.62,143.41L467.86,138.8L468.32,159.13L468.4,163.02L469.4,143.83L469.63,147.32L469.71,157.49L469.78,159.64L470.32,155.58L470.4,155.52L470.48,154.38L470.86,158.93L470.94,157.97L471.02,159.92L471.1,163.14L471.56,157.45L471.71,159.58L471.79,157.57L472.41,167.04L472.79,165.66L472.87,166.43L472.95,166.22L473.02,167.46L473.1,168.49" style="vector-effect: none; fill: none; stroke: rgb(99, 110, 250); stroke-opacity: 1; stroke-width: 2px; opacity: 1;"/></g><g class="points"/><g class="text"/></g></g></g><g class="overplot"/><path class="xlines-above crisp" d="M0,0" style="fill: none;"/><path class="ylines-above crisp" d="M0,0" style="fill: none;"/><g class="overlines-above"/><g class="xaxislayer-above"><g class="xtick"><text text-anchor="middle" x="0" y="333" transform="translate(167.99,0)" style="font-family: 'Open Sans', verdana, arial, sans-serif; font-size: 12px; fill: rgb(42, 63, 95); fill-opacity: 1; white-space: pre; opacity: 1;"><tspan class="line" dy="0em" x="0" y="333">Jan 23</tspan><tspan class="line" dy="1.3em" x="0" y="333">2022</tspan></text></g><g class="xtick"><text text-anchor="middle" x="0" y="333" style="font-family: 'Open Sans', verdana, arial, sans-serif; font-size: 12px; fill: rgb(42, 63, 95); fill-opacity: 1; white-space: pre; opacity: 1;" transform="translate(323.45,0)">Jan 30</text></g><g class="xtick"><text text-anchor="middle" x="0" y="333" style="font-family: 'Open Sans', verdana, arial, sans-serif; font-size: 12px; fill: rgb(42, 63, 95); fill-opacity: 1; white-space: pre; opacity: 1;" transform="translate(478.92,0)">Feb 6</text></g></g><g class="yaxislayer-above"><g class="ytick"><text text-anchor="end" x="79" y="4.199999999999999" transform="translate(0,313.23)" style="font-family: 'Open Sans', verdana, arial, sans-serif; font-size: 12px; fill: rgb(42, 63, 95); fill-opacity: 1; white-space: pre; opacity: 1;">0</text></g><g class="ytick"><text text-anchor="end" x="79" y="4.199999999999999" style="font-family: 'Open Sans', verdana, arial, sans-serif; font-size: 12px; fill: rgb(42, 63, 95); fill-opacity: 1; white-space: pre; opacity: 1;" transform="translate(0,253.9)">0.02</text></g><g class="ytick"><text text-anchor="end" x="79" y="4.199999999999999" style="font-family: 'Open Sans', verdana, arial, sans-serif; font-size: 12px; fill: rgb(42, 63, 95); fill-opacity: 1; white-space: pre; opacity: 1;" transform="translate(0,194.56)">0.04</text></g><g class="ytick"><text text-anchor="end" x="79" y="4.199999999999999" style="font-family: 'Open Sans', verdana, arial, sans-serif; font-size: 12px; fill: rgb(42, 63, 95); fill-opacity: 1; white-space: pre; opacity: 1;" transform="translate(0,135.22)">0.06</text></g></g><g class="overaxes-above"/></g><g class="subplot x2y2"><g class="layer-subplot"><g class="shapelayer"/><g class="imagelayer"/></g><g class="minor-gridlayer"><g class="x2"/><g class="y2"/></g><g class="gridlayer"><g class="x2"><path class="x2grid crisp" transform="translate(690.89,0)" d="M0,100v220" style="stroke: rgb(255, 255, 255); stroke-opacity: 1; stroke-width: 1px;"/><path class="x2grid crisp" transform="translate(846.3499999999999,0)" d="M0,100v220" style="stroke: rgb(255, 255, 255); stroke-opacity: 1; stroke-width: 1px;"/><path class="x2grid crisp" transform="translate(1001.8199999999999,0)" d="M0,100v220" style="stroke: rgb(255, 255, 255); stroke-opacity: 1; stroke-width: 1px;"/></g><g class="y2"><path class="y2grid crisp" transform="translate(0,228.84)" d="M602.9,0h473.09999999999997" style="stroke: rgb(255, 255, 255); stroke-opacity: 1; stroke-width: 1px;"/><path class="y2grid crisp" transform="translate(0,148.04)" d="M602.9,0h473.09999999999997" style="stroke: rgb(255, 255, 255); stroke-opacity: 1; stroke-width: 1px;"/></g></g><g class="zerolinelayer"><path class="y2zl zl crisp" transform="translate(0,309.65)" d="M602.9,0h473.09999999999997" style="stroke: rgb(255, 255, 255); stroke-opacity: 1; stroke-width: 2px;"/></g><path class="xlines-below"/><path class="ylines-below"/><g class="overlines-below"/><g class="xaxislayer-below"/><g class="yaxislayer-below"/><g class="overaxes-below"/><g class="plot" transform="translate(602.9,100)" clip-path="url(#clip354efdx2y2plot)"><g class="scatterlayer mlayer"><g class="trace scatter trace72b7e1" style="stroke-miterlimit: 2; opacity: 1;"><g class="fills"/><g class="errorbars"/><g class="lines"><path class="js-line" d="M0,162.59L0.54,105.38L0.69,163.42L0.77,147.58L0.85,159.95L1,143.02L1.23,185.64L1.77,181.62L1.85,186.33L1.93,150.78L2.24,190.1L2.62,159.51L2.7,159.97L2.85,156.48L3.01,168.72L3.08,163.96L3.16,143.7L3.47,185.37L3.93,174.03L4.01,171.99L4.09,173.49L4.16,149.23L4.24,131.14L4.63,164.02L4.7,149.51L4.78,183.16L4.94,170.59L5.09,176.27L5.17,186.84L5.48,202.53L5.78,186.05L5.94,191.25L6.01,192.54L7.17,162.62L7.25,163.38L8.41,122.35L8.56,123.6L8.64,134.69L8.87,126.54L9.25,153.54L9.49,150.77L9.56,153.25L9.64,157.46L9.79,128.9L10.18,154.78L10.26,141.68L10.72,137.04L11.18,157.8L11.26,156.2L11.41,148.49L11.8,177.22L12.03,160.06L12.11,149.06L12.18,158.93L12.8,143.51L12.88,149.38L13.11,156L13.19,150.72L13.26,143.17L14.19,167.53L14.27,170.27L14.42,147.92L14.88,159.99L14.96,167.94L15.11,165.48L15.27,171.49L15.35,166.23L15.42,174.41L15.5,177.16L15.73,168.5L15.81,140.86L16.27,127.61L16.66,168.57L16.73,152.65L17.51,189.3L17.58,186.16L17.66,171.5L18.04,191.6L18.43,187.25L18.51,184.36L18.58,157.34L19.12,186.78L19.2,179.81L19.28,184.55L19.36,191.17L19.51,171.47L19.97,182.84L20.05,171.42L20.9,200.82L20.98,201.07L21.05,201.26L21.13,200.76L21.21,200.88L21.28,203.26L21.67,204.08L21.82,125.14L22.29,148.46L22.36,150.7L22.59,108.15L22.98,140.65L23.06,156.77L23.21,138.27L23.6,180.14L23.67,170.04L23.75,150.85L24.52,190.91L24.6,187.09L24.68,172.8L25.22,174.35L25.37,155.5L25.45,172.36L25.68,181.12L25.76,175.95L25.83,189.78L26.06,158.74L26.14,172.59L26.22,179.6L26.3,180.31L26.37,162.09L26.53,139.25L26.91,148.97L26.99,170.76L27.53,201.59L27.76,191.5L27.84,187.61L27.92,187.48L27.99,188.06L28.07,191L28.22,192.41L28.3,184.19L28.53,191.52L28.76,173.26L28.92,182.82L29,179.11L30.61,131.36L30.69,143.99L30.77,145.9L30.92,157.5L31.08,144.84L31.46,151.61L31.54,133.09L32.16,158.7L32.31,145.04L32.39,143L32.93,127.4L33.08,147.09L33.16,143.91L33.24,141L33.54,155.88L33.62,153.93L33.7,156.83L33.85,140.68L34.47,178.64L34.7,174.46L34.78,163.84L35.16,164.8L35.32,152.92L35.55,153.28L35.63,157.97L35.7,144.98L36.24,165.99L36.32,162.56L36.4,167.13L36.48,168.31L36.55,165.08L36.63,154.74L36.86,153.13L37.48,173.03L37.71,170.67L37.79,151.59L37.94,160.32L38.02,134.21L38.09,122.14L38.25,111.78L38.87,167.77L38.94,137.42L39.71,178.1L39.79,170.04L39.87,164.57L40.1,164.09L40.64,178.43L40.72,176.48L40.79,149.11L41.1,180.51L41.18,180.24L41.26,80.91L41.56,189.61L42.03,184.27L42.1,177.08L42.49,165.65L42.95,200.23L43.11,198.22L43.18,196.54L43.49,198.68L43.57,173.75L43.88,202.5L44.03,130.95L44.19,158.98L44.26,157.52L44.42,168.09L44.57,122.9L44.65,136.37L44.73,110.78L45.57,177.11L45.88,168.89L45.96,158.12L46.04,182.17L46.35,154.56L46.73,180.25L46.81,181.31L47.58,157.32L47.66,177.73L48.12,185.97L48.27,150.54L48.43,171.03L48.51,162.58L48.58,118.88L49.2,162.63L49.28,166.09L50.28,192.12L50.36,192.34L51.51,164.03L51.59,165.13L51.67,164.6L51.82,165.03L52.36,134.47L52.44,143.19L52.52,148.73L53.36,126.22L53.44,138.13L53.83,117.89L54.06,145.67L54.13,149.76L54.52,130.29L54.98,132.84L55.06,137.17L55.14,130.86L55.68,143.51L55.75,150.61L55.99,155.4L56.06,124.78L56.68,176.64L56.91,171.9L56.99,163.9L57.45,150.88L57.53,161.29L57.91,152.19L58.07,167.56L58.14,163.36L58.22,165.87L58.84,146.89L59.07,158.58L59.15,161.3L59.3,157.33L59.84,176.59L59.92,174.59L60,148.41L60.15,154.91L60.23,118.76L60.38,130.21L60.46,109.33L60.54,98.41L60.84,150.42L60.92,131.19L61,151.84L61.15,149.55L61.92,184.51L62,177.86L62.08,168.45L62.62,189.28L62.69,183.11L62.77,182.9L62.85,185.95L62.93,183.63L63,161.23L63.39,182.65L63.47,98.11L63.54,167.23L63.62,187.6L63.77,192.66L63.85,184.54L63.93,170.08L64.08,190.6L64.47,167.71L64.62,177.46L64.7,174.07L65.86,202.07L65.93,180.84L66.09,190.87L66.78,113.34L66.94,125.99L67.01,134.79L67.94,181.48L68.02,172.94L68.09,172.85L68.86,196.65L69.02,193.58L69.09,176.29L69.17,175.9L69.25,171.71L69.71,161.48L70.1,199.83L70.33,194.35L70.41,181.46L70.56,198.46L70.79,160.8L71.02,176.87L71.1,175.07L71.95,205.59L72.03,205.35L72.1,203.68L72.57,204.46L72.8,202.09L72.87,189.86L73.72,199.6L73.8,198.91L73.88,198.87L74.72,191.03L74.8,185.77L74.88,192.37L75.11,168.17L75.42,177.21L75.5,178.52L75.73,175.01L75.88,175.5L75.96,169.69L76.27,189.78L76.73,188.93L76.81,188.75L77.19,190.48L77.27,189.96L77.35,184.38L78.12,195.2L78.19,193.97L78.66,194.97L78.73,188.51L78.97,191.13L79.04,193L79.2,190.98L79.51,195.17L79.81,194.48L79.89,193.22L80.12,192.94L80.66,195.96L80.74,195.02L81.05,193.65L81.12,196.31L81.43,194.17L81.51,190.8L82.05,194.39L82.13,193.15L82.2,184.64L82.28,185.82L82.36,184.9L82.44,166.12L82.59,161.62L82.9,176.69L82.98,178.45L83.13,177.45L83.21,187.98L83.28,190.08L83.59,183.39L83.75,189.94L83.82,183.74L84.21,193.02L84.67,190.97L84.75,187.78L85.06,196.15L85.21,180.82L85.29,185.31L85.37,180.86L85.67,128.21L85.83,191.41L85.91,190.41L86.21,182.62L86.68,201.62L86.75,196.11L86.83,195.31L86.91,199.37L87.06,197.58L87.14,201.03L87.29,196.8L87.45,203.73L87.76,197.27L87.83,201.31L88.14,201.1L88.3,203.99L88.37,203.55L88.45,187.2L89.22,205.67L89.3,205.41L89.38,201.77L89.53,206.36L89.76,206.21L89.84,187.15L90.07,200.5L90.46,172.29L90.53,199.73L91.3,208.76L91.38,208.4L91.92,208.68L92.23,200.99L92.31,191.74L92.38,206.95L92.85,167.03L93,183.94L93.08,171.92L93.23,181.02L93.54,145.98L93.62,155.36L93.69,150.53L93.93,170.35L94.08,148.37L94.31,153.93L94.39,152.48L94.77,147.7L96.24,198.34L96.47,194.36L96.55,193.25L97.24,164.35L97.7,169.58L97.78,174.66L98.01,152.99L98.09,123.82L98.17,30.42L98.55,175.49L98.78,172.74L98.86,172.82L99.02,173.07L99.09,167.78L99.25,168.43L99.32,142.98L99.48,163.84L99.63,162.03L99.71,142.4L99.94,183.39L100.48,173.92L100.56,175.41L100.94,173.92L101.56,197.7L101.64,197.63L102.1,194.96L102.33,195.68L102.41,197.68L102.64,199.17L102.79,196.86L103.1,198.18L103.18,197.03L103.57,197.86L103.72,187.57L103.87,197.14L103.95,196.64L104.11,197L104.18,195.3L104.26,195.74L104.34,193.99L104.41,185.71L104.57,187.18L104.64,177.93L105.11,173.83L105.34,190.05L105.42,188.89L105.49,178.13L106.34,197.1L106.42,192.36L106.5,192.17L106.57,192.9L106.65,195.14L106.73,194.58L107.11,197.01L107.19,197.5L107.27,198.42L107.34,193.87L107.42,185.07L107.88,181.84L108.12,198.8L108.19,198.18L108.27,197.23L108.35,186.61L108.96,191.28L109.04,196.05L109.12,197.97L109.27,183.69L109.35,185.02L109.66,204.03L110.2,202.77L110.27,186.05L110.43,201.99L110.66,165.65L110.97,188.51L111.05,189.13L111.12,149.57L111.82,175.25L111.89,185.83L112.05,171.01L112.28,185.96L112.36,190.24L112.43,191.22L112.51,175L112.59,173.85L112.66,187.91L112.74,186.02L112.82,190.96L112.9,189.16L112.97,163.11L113.13,166.68L113.2,176.58L113.44,187.69L113.67,165.22L114.05,187.32L114.13,181.62L114.36,179.01L114.44,186.45L114.59,186.17L114.67,197.27L114.82,168.89L115.29,171.25L115.36,180.16L115.6,189.74L115.75,162.91L116.06,182.34L116.14,188.35L116.21,180.6L116.6,199L116.83,194.07L116.91,194.8L117.83,175.78L117.91,171.51L119.45,87.38L119.68,100.31L119.76,117.6L119.91,102.57L119.99,120.46L120.3,118.17L120.38,97.66L120.84,95.1L121.07,122.97L121.15,119.54L121.22,111.68L121.3,83.55L121.84,142.22L121.92,150.28L122.23,138.02L122.3,150.45L122.38,151.59L122.54,156L122.69,148.19L122.77,163.76L123.15,157.25L123.46,171.97L123.54,170.07L123.62,165.19L124.54,140.24L124.62,159.4L124.69,160.53L124.77,153.63L124.93,154.8L125,152.12L125.23,160L125.39,153.66L125.47,139.57L126.08,169.41L126.31,165.57L126.39,169.07L126.47,171.43L126.62,155.24L126.78,165.16L126.85,135.66L127.09,101.16L127.32,137.03L127.39,158.46L127.86,157.1L128.55,187.88L128.63,180.63L128.94,170.48L129.09,184.41L129.32,179.3L129.4,184.13L129.48,186.29L129.55,183.15L129.63,156.39L129.71,157.48L129.78,172.89L129.94,183.56L130.02,177.75L130.09,160.2L130.4,189.54L130.86,181.76L130.94,175.06L131.25,155.48L131.87,199L131.94,200.9L132.17,202.17L132.33,200.97L132.41,180.89L132.48,200.51L132.95,132.73L133.02,142.85L133.1,154.81L133.25,169.6L133.56,106.76L133.79,151.38L133.87,148.04L134.26,138.05L134.64,174.5L134.72,159.25L134.8,148.23L135.11,185.13L135.26,170.84L135.34,184.42L135.41,184.66L135.49,188.11L135.72,162.86L135.8,163.99L135.88,149.59L136.88,188.36L136.96,186.42L137.73,138.59L137.8,167.23L138.11,133.44L138.42,160.73L138.5,168.13L139.42,186.72L139.58,186.69L139.66,184.96L141.04,134.16L141.12,137.35L141.2,139.44L141.43,140.39L141.66,103.13L141.97,133.66L142.05,141.71L142.2,113.49L142.74,138.57L142.82,137.86L142.89,142.29L143.2,124.3L143.43,137.99L143.51,120.84L143.82,145.82L144.36,143.04L144.44,139.31L144.74,162.19L144.9,133.49L145.21,154.15L145.28,147.77L145.36,132.61L145.9,158.68L146.06,137.04L146.13,140.72L146.83,162.79L146.98,159.89L147.06,158.58L147.37,156.38L147.52,161.46L147.6,160.57L147.68,152.22L148.29,171.21L148.52,170.53L148.6,173.55L148.83,158.67L148.99,167.62L149.06,137.88L149.53,101.65L149.76,141.7L149.83,161.57L150.37,142.69L150.45,145.81L150.53,162.22L150.76,184.94L151.38,178.28L151.45,180.23L151.53,177.18L151.69,184.33L151.76,177.23L151.84,148.81L152.61,191.17L152.69,183.93L152.76,169.47L153.38,168.6L153.69,192.68L153.77,198.52L153.92,195.87L154.08,201.08L154.15,201.06L154.23,201.46L154.62,198.85L154.69,202.22L154.77,180.3L154.85,178.97L154.92,191.02L155,185.41L155.08,123.44L155.23,164.99L155.7,113.05L155.85,149.65L155.93,146.33L156.08,138.71L156.23,166.36L156.47,142.91L156.54,162.79L157.01,161.08L157.31,183.58L157.39,161.62L157.55,172.14L157.62,176.95L157.85,183.15L157.93,165.3L158.01,165.7L158.09,151.41L159.01,190.03L159.09,189.16L159.17,191.04L159.24,163.69L159.4,188.95L159.7,144.46L159.86,154.62L159.94,142.71L160.86,194.07L160.94,197.43L161.56,186.73L161.71,193.24L161.79,192.42L163.41,136.23L163.48,147.5L163.71,158.34L163.79,153.36L163.87,144.28L163.95,134.66L164.25,150.76L164.56,140.04L164.64,145.52L164.72,144.78L164.79,136.92L165.41,154.38L165.57,142.73L165.64,135.62L165.72,134.22L165.87,140.88L166.03,140.8L166.11,147.14L166.18,138.65L166.26,153.11L166.72,150.37L166.8,155.14L166.88,155L166.95,149.85L167.11,125.58L167.72,175.34L167.96,171.02L168.03,157.21L168.19,167.39L168.65,156.98L168.73,157.76L168.8,156.38L168.88,155.61L168.96,140.45L169.65,165.82L169.73,161.95L169.81,166.31L169.88,152.21L170.42,172.07L170.5,171.65L170.58,169.83L170.66,172.92L170.89,169.26L170.96,170.24L171.04,150.68L171.2,160.79L171.27,140.91L171.58,110.46L171.89,146.36L171.97,148.72L172.97,184.98L173.05,181.44L173.12,170.71L173.66,182.57L173.74,178.93L173.82,179.87L173.89,182.23L173.97,180.86L174.05,140.54L174.82,191.84L174.9,184.63L174.97,170.81L175.51,191.48L175.59,190.99L175.67,174.18L175.82,161.38L175.9,186.56L175.98,198.79L176.13,192.38L176.36,203L176.59,200.74L176.67,201.29L176.82,199.08L176.9,201.87L177.13,202.98L177.75,105.36L177.83,121.73L177.9,126.64L177.98,119.04L178.29,143.7L178.37,167.45L178.6,168.93L178.68,157.38L178.75,158.87L178.83,174.44L179.22,152.82L179.45,182.69L179.52,180.71L179.6,150.38L179.99,191.86L180.37,168.8L180.45,169.09L180.83,149.32L180.91,176.21L180.99,166.88L181.07,184.13L181.3,190.85L181.37,187.6L181.45,158.64L181.61,181.43L181.91,143.15L182.07,154.47L182.15,142.28L183.15,197.88L183.23,196.18L183.38,192.86L183.46,190.97L184.23,173.17L184.3,174.32L184.38,176.69L186.08,115.8L186.16,130.13L186.23,135.27L186.46,151.15L186.7,131.34L186.93,139.89L187,122.15L187.39,150.09L187.77,142.66L187.85,146.85L188.08,147.78L188.39,132.35L188.47,147.75L188.55,153.27L189.09,162.91L189.24,160.02L189.32,144.37L189.47,166.03L190.09,164.99L190.17,161.67L190.4,161.69L191.17,131.24L191.24,144.31L191.32,159.81L191.4,160.36L191.48,159.86L191.55,154.98L191.63,157.93L191.86,141.7L192.02,152.14L192.09,141.61L192.71,173.33L192.94,167.35L193.02,169.43L193.1,177.26L193.48,147.96L193.56,149.33L193.64,155.46L193.94,135.57L194.25,167.5L194.41,147.25L194.48,166.38L194.64,160.4L195.18,187.4L195.25,183.2L195.33,170.13L195.72,186.46L196.1,182.04L196.18,180.85L196.33,145.95L196.87,175.56L196.95,184.16L197.03,187.63L197.18,164.47L197.41,180.81L197.49,167.49L197.88,153.78L198.42,200.87L198.49,203.29L198.8,203.22L198.88,201.8L198.96,202.47L199.03,199.74L199.11,195.81L200.19,112.14L200.27,126.27L200.34,124.76L200.42,145.28L200.88,141.1L201.19,175.93L201.35,167.72L201.42,155.15L201.73,195.54L202.2,185.8L202.27,185.94L203.04,150.57L203.12,161.2L203.2,161.09L203.43,181.04L203.58,179.71L203.66,140.63L203.97,184.57L204.2,117.57L204.28,132.05L204.35,126.45L205.36,196.84L205.43,193.29L205.97,176.63L206.21,180.71L206.28,186.47L207.21,153.25L207.28,157.13L208.36,113.4L208.44,118.43L208.52,144.02L208.83,129.66L209.21,132.68L209.29,148.51L209.52,153.76L209.6,152.31L209.68,142.52L209.83,130.42L210.06,144.66L210.14,138.46L210.22,142.73L210.37,146.76L210.52,134.58L210.6,112.19L211.14,162.32L211.45,159.55L211.53,140.27L211.6,141.62L211.68,138.01L211.76,155.71L211.91,158.77L212.22,144.1L212.3,166.87L212.37,168.96L212.61,160.97L212.91,164.81L212.99,159.06L213.38,143.81L213.69,162.45L213.76,163.18L214.23,167L214.3,159.33L214.46,162.17L214.53,152.52L215.38,175.7L215.46,162.86L215.54,166.65L215.61,157.86L215.69,132.65L216.54,163.71L216.62,143.8L217.31,184.4L217.46,178.59L217.54,178.12L217.7,187.26L217.77,134.53L218.24,176.82L218.31,179.78L218.47,122.3L218.7,155.61L218.78,170.28L218.93,163.21L219.24,180.97L219.31,176.91L219.39,149.82L219.93,182.15L220.24,180.47L220.32,181.89L220.93,201.63L221.17,201.14L221.24,188.05L221.32,194.52L221.4,164.09L221.63,185.26L221.71,137.31L222.01,173.22L222.25,101.43L222.4,117.36L222.48,132.88L222.71,151.98L222.78,165.44L223.02,169.53L223.48,145.07L223.56,158.03L223.63,164.85L223.71,163.86L223.79,174.07L224.02,170.35L224.33,189.03L224.48,186.06L224.56,167.51L224.64,165.64L224.79,175.65L225.02,169.11L225.1,173.32L225.41,145.36L225.48,186.35L225.87,177.52L226.26,195.58L226.33,181.8L226.41,136.82L227.03,184.73L227.1,193.59L227.95,205.41L228.11,205.03L228.18,204.55L228.26,204.02L228.34,197.24L229.19,176.21L229.26,175.38L229.65,182.7L229.96,180.25L230.03,175.91L230.34,182.04L230.57,164.57L230.65,166.78L230.73,157.07L231.27,176.87L231.5,169.2L231.58,170.6L231.96,174.82L232.19,174.29L232.27,160.15L232.5,168.49L232.66,116.7L233.12,143.3L233.2,141.95L234.04,191.64L234.12,189.5L234.2,183.68L234.97,200.32L235.2,199.59L235.28,198.87L235.59,197.32L236.13,201.01L236.2,200.62L236.28,201.25L236.51,199.99L236.82,200.45L236.9,199.08L236.97,196.76L237.28,200.32L237.59,199.34L237.67,198.52L237.75,199.09L237.82,197.94L237.9,193.72L237.98,190.46L238.52,196.24L238.59,197.29L239.44,200.81L239.52,201.22L240.52,203.79L240.6,200.91L241.45,204.76L241.52,202.95L241.6,201.36L241.76,204.2L243.84,200.4L243.91,183.61L244.53,201.44L244.61,204.36L244.69,207.24L245.07,195.03L245.38,205.9L245.46,205.87L245.92,208.4L246.23,208.18L246.31,208.37L246.61,209L246.69,192.37L246.77,184.84L247.08,207.07L247.23,206.94L247.31,206.55L247.77,207.09L248,204.11L248.08,167.18L248.46,167.64L248.93,134.17L249,134.34L249.39,156.99L249.47,131.82L249.85,142.62L249.93,140.39L250.16,115L250.24,140.65L250.39,131.75L250.55,154.83L250.62,159.95L251.63,199.24L251.93,197.57L252.01,197.48L252.17,197.65L252.24,197.09L252.32,200.8L252.4,201.3L252.63,200.32L252.71,189.3L253.01,193.47L253.09,185.8L253.17,180.56L253.55,186.11L253.71,178.51L253.79,177.85L254.17,197.37L254.71,194.55L254.79,179.42L254.94,199.18L255.48,172.43L255.56,183.18L256.25,201.61L256.33,201.23L256.41,194.87L256.95,200.77L257.18,198.98L257.26,199.93L257.33,196.66L257.95,201.04L258.03,200.75L258.1,200.91L258.18,200.47L258.26,193.97L258.8,200.86L259.03,200L259.11,196.13L259.18,192.14L259.57,201.85L259.72,200.46L259.8,200.78L260.11,185.92L260.65,192.89L260.73,198.61L260.88,200.93L260.96,199.45L261.03,191.26L261.65,201.29L261.88,200.7L261.96,192.32L262.81,201L262.88,200.46L262.96,197.72L263.42,204.37L263.58,201.28L263.66,200.65L263.81,194.67L264.35,205.28L264.43,203.12L264.5,200.52L264.74,198.24L265.12,205.9L265.43,205.56L265.51,205.85L265.58,205.35L265.66,194.7L266.05,205.69L266.35,188.56L266.43,195.05L266.59,191.77L266.66,172.67L267.43,200.76L267.51,188.08L267.59,189.06L267.9,194.51L268.05,179.3L268.13,186.68L268.21,195.38L268.36,196.95L268.44,180.61L268.75,194.4L268.82,196.5L269.13,172.96L269.29,178.31L269.36,193.85L269.67,183.17L270.21,202.53L270.29,197.17L270.6,194.23L270.67,197.14L270.75,186.04L270.98,180.48L271.37,195.44L271.52,190.61L271.6,191.71L271.91,192.14L272.83,180.49L272.91,184.12L273.91,146.16L273.99,134.84L274.45,107.83L274.76,117.26L274.84,125.52L274.91,92.24L275.3,127.62L275.53,115.95L275.61,116.93L275.84,113.44L276.61,148.62L276.69,148.07L276.77,127.48L278.08,166.77L278.15,163.55L278.54,171.69L278.85,163.33L278.92,164.82L279,164.92L279.62,143.51L279.85,146.47L279.93,149.85L280,135.4L280.24,152.27L280.62,151.75L280.7,153.73L281.01,145.34L281.24,159.75L281.39,154.13L281.47,162.43L281.86,146.94L281.93,159.96L282.55,117.81L282.78,134.51L282.86,145.05L282.93,142.72L283.09,160.24L283.17,164.19L283.24,145.69L283.78,175.63L283.86,170.48L283.94,171.39L284.01,176.44L284.25,139.79L284.32,148.11L284.4,137.86L284.55,134.36L284.63,135.34L284.71,149.52L284.79,149.66L284.86,165.51L284.94,172.03L285.25,142.8L285.33,137.93L286.17,179.71L286.25,171.69L286.56,184.09L286.71,139.96L286.94,179.6L287.02,190.24L287.18,186.79L287.41,198.41L287.48,199.98L287.72,202.74L287.79,202.63L287.87,186.72L287.95,202.7L288.33,146.76L288.41,110.05L289.1,108.87L289.18,153.01L289.26,154.02L289.49,138.87L289.64,164.67L289.87,164.18L289.95,164L290.03,167.14L290.18,163.78L290.26,135.68L290.57,167.4L290.65,127.95L291.11,164.74L291.19,150.17L291.26,151.75L291.34,142.38L291.42,136.74L291.57,130.22L291.73,147.69L291.96,143.35L292.03,116.94L292.88,180.92L292.96,171.15L293.04,173.87L293.27,158.8L293.35,161.31L293.42,159.24L293.81,164L293.88,155.85L293.96,196.85L294.04,197.95L294.27,192.19L294.35,194.76L294.42,181.3L295.27,158.58L295.35,165.81L295.43,166.11L296.04,146.7L296.12,153.18L296.2,142.37L296.66,120.95L296.97,131.4L297.05,135.6L297.28,116.19L297.82,119.33L297.89,116.92L298.05,110.06L298.43,132.69L298.51,103.94L299.21,139.66L299.36,136.7L299.44,132.08L299.67,131.43L300.44,164.43L300.52,164.22L300.59,160.87L301.21,137.67L301.37,146.48L301.44,149.23L301.75,127.12L302.21,133.93L302.29,147.63L302.52,148.17L302.6,145.5L302.68,144.82L302.83,161.15L303.45,152.44L303.52,153L303.6,152.67L303.68,164.14L303.91,159.64L304.22,172.46L304.3,154L304.37,157.96L304.53,129.05L304.68,143.21L304.76,127.74L304.84,126.37L304.99,134.62L305.07,144.67L305.3,122.47L305.68,153.22L305.76,161.99L305.91,166.59L306.07,142L306.15,140.56L306.38,134.08L306.99,159.53L307.07,158.44L307.23,165.56L307.3,128.8L307.53,128.3L308.07,167.21L308.15,165.94L308.23,145.65L309.23,190.05L309.31,191.09L309.39,190.54L309.46,198.41L309.69,201.38L309.77,201.11L309.85,196.68L309.92,201.71L310.31,176.91L310.46,191.03L310.54,123.01L310.62,123.79L310.7,160.06L310.85,173.68L310.93,161.39L311,135.14L311.16,115.22L311.31,151.88L311.54,148.36L311.62,167.95L312.01,125.44L312.39,148.49L312.47,151.45L312.86,137.43L313.24,174.89L313.32,162.76L313.4,165.75L314.32,146.69L314.4,176.99L314.47,176.83L314.55,163.87L314.63,164.36L314.71,146.23L315.17,175.02L315.55,159.22L315.63,148.14L316.25,195L316.56,187.44L316.63,168.28L316.71,160.33L317.17,176.84L317.25,175.91L317.33,178.38L318.02,159.53L318.1,154.64L318.41,156.52L318.56,152.08L318.64,148.49L318.72,149.26L318.79,147.18L318.87,123.65L319.26,147.05L319.64,128.21L319.72,139.78L320.03,123.46L320.41,135.48L320.49,139.7L320.72,135.77L320.88,142.36L320.95,142.29L321.03,145.71L321.49,146.56L321.65,125.59L321.88,136.18L321.95,140.13L322.03,140.62L322.11,149.11L322.19,147.52L322.26,155.68L322.42,152.02L322.49,165.2L322.57,156.42L323.19,168.84L323.27,167.23L323.34,169.83L323.65,159.91L323.73,156.31L324.42,146.16L324.5,151.3L324.58,157.69L325.42,144.61L325.5,152.09L325.58,152.23L325.66,151.73L325.73,159.43L325.81,152.7L326.35,166.18L326.43,165.27L326.97,122.02L327.2,133.91L327.28,139.33L327.66,138.6L328.2,176.05L328.28,170.39L328.36,173L328.59,161.82L329.2,178.64L329.28,176.9L329.43,175.81L329.51,153.38L330.13,182.07L330.36,174.77L330.44,155.47L330.9,119.02L330.98,183.07L331.29,180.05L331.36,178.48L332.13,201.54L332.29,201.14L332.37,201.93L332.6,203.92L333.29,103.75L333.37,131.74L333.44,130.61L333.52,121.75L333.75,160.72L333.98,152.81L334.06,167.7L334.45,186.93L334.6,147.21L334.76,161.1L334.83,169.58L334.99,177.32L335.06,154.87L335.37,188.17L335.91,171.5L335.99,155.59L336.76,194.91L336.84,193.52L336.92,166.07L337.07,186.93L337.38,150.61L337.53,160.82L337.61,150.04L338.69,197.58L338.77,191.78L338.84,188.1L339.15,194.39L339.54,189.9L339.61,187.13L340.62,158.66L340.69,162.54L340.77,163.65L340.85,160.71L340.93,152.98L341.08,140.14L341.31,160.8L341.62,146.13L341.7,152.72L341.93,158.42L342,149.47L342.24,154.86L342.31,160.05L342.54,137.45L343.08,145.1L343.16,146.44L343.24,150.44L343.39,138.07L343.7,144.34L343.78,128.03L345.4,180L345.47,172.47L345.55,179.39L345.94,154.87L346.09,162.18L346.17,161.74L346.4,160.01L346.48,167.99L346.63,155.02L347.17,165.93L347.25,165.67L347.33,167.94L347.56,154.9L347.63,160.41L347.71,156.54L348.64,180.03L348.71,159.96L348.79,165.38L349.02,139.71L349.1,141.9L349.18,116.07L350.18,177.37L350.26,175.08L350.33,176.29L350.41,157.73L351.34,180.13L351.41,175.71L351.57,183.35L351.72,159.77L352.11,179.3L352.18,158.16L352.88,198.55L353.03,196.29L353.11,198.08L353.88,203.71L353.96,192.09L354.03,162.69L354.34,199.81L354.73,175.48L354.81,189.25L354.88,187.55L354.96,136.31L355.27,162.41L355.58,117.12L355.65,121.21L355.73,140.82L356.35,128.91L356.5,172.8L356.58,168.96L356.66,160.86L356.89,152.38L357.43,183.83L357.5,182.68L357.58,191.44L357.97,158.45L358.2,164.97L358.28,172.31L358.43,170.14L358.97,197.52L359.05,193.92L359.12,174.27L359.28,190.28L359.59,142.67L359.74,163.67L359.82,146.62L360.9,198.11L361.36,197.9L361.44,194.93L363.21,161.44L363.29,146.45L363.6,160.7L363.83,134L363.91,133.67L364.21,131.11L364.6,144.87L364.68,129.31L365.22,158.48L365.52,152.48L365.6,148.35L365.99,132.57L366.06,119.63L366.14,119.91L366.22,137.75L366.3,137.43L366.37,140.44L366.91,163.62L366.99,139.53L367.22,160.3L367.3,145.69L367.61,176.24L368.15,161.66L368.22,161.4L368.38,154.99L368.61,167.34L368.99,164.72L369.07,165.51L369.15,170.69L369.3,158.46L369.69,169.01L369.77,161.97L370.38,175.63L370.61,167.69L370.69,165.66L370.85,167.48L370.92,155.8L371.08,166.51L371.46,142.58L371.54,146.15L372.62,177.39L372.7,177.21L372.77,171.85L373,168.14L373.47,179.21L373.54,176.99L373.62,178.58L373.7,184.53L374.01,156.66L374.08,173.25L374.16,158.75L375.01,191.95L375.09,191.63L375.63,195.01L375.78,176.61L375.86,196.09L376.01,184.05L376.17,202.39L376.4,200.87L376.48,201.07L376.63,201.32L376.71,187.3L376.78,187.64L376.86,178.97L377.01,191.41L377.09,185.68L377.17,140.79L377.4,179.58L377.86,134.43L377.94,122.76L378.87,188.16L378.94,187.57L379.02,176.07L379.41,196.06L379.56,195.03L379.64,197.22L379.95,203.71L380.64,170.57L380.72,193.23L381.18,201.38L381.33,185.62L381.49,200.22L381.56,180.44L381.8,178.85L381.87,181.07L381.95,184.91L382.03,181.77L382.34,196.82L382.49,192.48L382.57,199.36L382.88,206.18L383.49,204.8L383.57,204.24L383.8,201.86L383.96,204.89L384.26,203.63L384.34,203.69L387.81,204.7L387.89,199.79L388.27,195.79L388.43,201.53L388.66,201.25L388.74,200.1L389.04,202.73L389.43,198.43L389.51,200.91L389.58,201.59L389.66,195.65L390.28,202.28L390.36,201.52L391.05,201.04L391.13,203.17L391.2,202.86L391.28,202.3L391.67,203.12L391.82,202.99L391.9,201.24L391.98,198.85L392.05,203.22L392.59,202.46L392.67,202.04L392.9,201.42L392.98,202.4L393.05,202.08L393.13,200.07L393.29,201.56L393.36,188.99L393.44,184.1L393.67,192.77L393.98,186.85L394.06,193.05L394.83,202.14L394.91,202.31L395.06,200.45L395.14,195.91L395.21,195.6L395.29,199.99L395.6,201.81L395.68,198.8L395.75,198.26L396.22,197.05L396.45,203.32L396.52,202.98L396.6,193.96L396.91,204.68L397.22,189.35L397.37,199.83L397.45,200.01L397.99,199.68L398.53,205.45L398.61,205.39L398.68,205.95L399.15,206.86L399.3,205.1L399.38,188.68L400.15,206.88L400.38,205.27L400.46,205.97L400.61,206.94L400.77,203.54L400.84,201.95L401,181.11L401.31,189.12L401.38,201.86L402.23,206.52L402.31,205.72L402.39,204.9L402.77,206.62L403,206.37L403.08,206.36L403.31,205.1L403.39,206.43L403.47,195.42L404.47,138.43L404.54,156.87L404.62,149.38L404.78,164.73L405.24,157.98L405.32,158.72L405.39,157.24L405.55,164.93L405.62,157.57L405.7,172.64L405.86,155.06L406.16,171.13L406.24,173.16L406.78,186.49L406.86,198.1L406.94,198.28L407.01,196.73L407.09,197.17L407.17,194.96L407.48,195.94L407.55,195.67L407.63,193.77L408.02,195.82L408.4,178.29L408.63,186.46L408.71,187.14L408.79,188.87L408.94,176.52L409.02,174.76L409.09,171.25L409.48,178.68L409.63,177.63L409.71,188.75L409.87,191.02L410.02,187.79L410.1,190.26L410.17,178.14L410.25,162.76L410.64,192.21L410.95,165.78L411.02,174.29L411.49,197.57L411.79,191.5L411.87,168.28L412.56,197.03L412.64,196.67L412.72,193.31L412.8,189.66L413.1,195.32L413.34,194.39L413.41,196.14L413.57,197.49L413.72,195.23L414.03,196.75L414.11,193.93L414.42,196.14L414.57,187.28L414.88,191.77L414.96,192.69L415.19,192.91L415.5,186.9L415.57,175.41L415.73,172.13L415.96,183.41L416.11,181.97L416.19,182.11L417.11,192.02L417.19,190.49L417.27,191.79L417.35,188.63L417.42,176.39L418.12,194.05L418.27,190.77L418.35,181.87L418.43,182.7L418.5,180.67L418.58,175.13L419.12,190.93L419.35,181.17L419.43,189.5L419.89,188.82L420.28,196.06L420.35,192.47L420.43,177.02L420.82,201.7L421.05,201.09L421.12,191.49L421.28,202.26L422.05,142.13L422.13,147.92L422.2,163.44L422.28,154.03L422.74,183.35L422.82,188.09L422.9,189.42L422.98,171.68L423.36,193.82L423.52,171.61L423.82,184.7L423.9,164.49L424.29,187.93L424.52,170.15L424.59,169.22L424.98,190.6L425.06,181.51L425.13,163.43L425.52,192.66L425.91,184.02L425.98,175.41L426.14,186.56L426.21,172.98L426.37,162.23L426.91,185.85L427.06,180.15L427.14,173.26L427.45,188.84L427.91,184.26L427.99,181.92L428.06,181.53L428.3,184.38L428.37,179.62L429.45,11L429.68,63.59L429.76,83.81L430.07,91.81L430.53,35.04L430.69,39.74L430.76,90.85L431,55.55L431.38,106.89L431.46,116.42L431.54,114.15L431.61,66.68L432.15,130.81L432.46,124.09L432.54,125.49L432.69,120.23L432.85,139.94L433,131.63L433.08,134.98L434,160.86L434.08,152.19L434.16,152.94L434.39,160.68L434.7,142.62L434.85,148.7L434.93,149.23L435.47,131.98L435.55,145.48L435.85,152.65L436.32,149.04L436.39,143.38L436.62,141.89L436.93,155.85L437.16,147.56L437.24,147.86L437.4,154.18L437.55,128.15L437.7,148.65L437.78,131.67L438.01,123.66L438.63,148.42L438.71,135.99L439.94,165.12L440.02,158.89L440.4,171.27L440.56,142.25L440.71,158.48L440.79,143.08L441.64,179.17L441.71,177.67L441.79,171.59L442.02,179.14L442.18,165.58L442.25,169.38L442.33,181.28L442.41,178.79L442.56,190.78L442.64,189.29L442.72,196.1L443.18,198.06L443.26,196.51L443.33,181.34L443.56,195.96L443.72,162.46L443.8,112.47L444.34,96.36L444.8,168.46L444.88,173.43L444.95,157.32L445.57,183.62L445.65,158.33L445.72,153.68L446.42,186.85L446.57,183.79L446.65,166.36L447.04,157.83L447.11,170.53L447.19,169.24L447.27,184.64L447.81,191.39L448.04,149.62L448.19,156.12L448.27,172.84L448.65,146.29L448.81,180.46L449.04,156.98L449.12,175.08L449.27,168.17L449.43,183.76L449.5,192.07L449.58,192.59L449.66,184.12L449.81,184.58L451.05,165.56L451.12,166.67L451.2,159.27L451.28,160.08L451.35,153.49L451.43,152.64L452.12,131.86L452.51,132.1L452.59,120.66L452.74,126.51L452.82,137.23L452.9,138.33L452.97,135.65L453.05,122.32L453.44,142.5L453.9,134.93L453.98,135.43L454.67,136.7L454.75,128.57L454.82,136.28L454.9,127.16L455.52,139.13L455.59,140.38L455.83,135.28L455.98,151.95L456.29,139.85L456.37,134.92L456.91,151.63L457.21,145.51L457.29,150.55L457.37,151.13L457.45,144.57L457.6,146.81L457.68,134.29L458.45,160.56L458.53,155.25L458.6,146.71L459.22,161.66L459.3,158.88L459.68,170.5L459.76,142.15L459.84,152.44L459.99,116.24L460.38,131.69L460.45,132.17L461.3,158.4L461.38,146.84L462.23,181.6L462.3,176.68L462.54,177.89L462.61,181.55L462.69,185.12L462.77,148.21L463.61,183.03L463.69,159.53L464.23,190.83L464.31,187.7L464.39,150.7L465,199.77L465.23,199.57L465.31,199L465.47,200.34L465.77,172.77L465.85,195.96L465.93,202.49L466.01,156.45L466.08,125.58L466.31,166.12L466.55,112.55L466.85,141.98L466.93,152.09L467.01,152.39L467.09,170.55L467.39,149.11L467.78,184.78L467.86,169.69L467.93,159.15L468.24,184.19L468.55,176.34L468.63,182.69L468.7,187.21L469.01,166.76L469.17,176.9L469.24,169.23L469.48,161.19L470.09,195.03L470.17,164.7L470.32,173.03L470.4,157.5L470.56,166.82L470.63,146.14L470.86,143.6L471.25,183.46L471.48,174.98L471.56,163.88L472.41,188.15L472.48,184.57L472.87,186.39L472.95,173.55L473.1,175.77" style="vector-effect: none; fill: none; stroke: rgb(239, 85, 59); stroke-opacity: 1; stroke-width: 2px; opacity: 1;"/></g><g class="points"/><g class="text"/></g></g></g><g class="overplot"/><path class="xlines-above crisp" d="M0,0" style="fill: none;"/><path class="ylines-above crisp" d="M0,0" style="fill: none;"/><g class="overlines-above"/><g class="xaxislayer-above"><g class="x2tick"><text text-anchor="middle" x="0" y="333" transform="translate(690.89,0)" style="font-family: 'Open Sans', verdana, arial, sans-serif; font-size: 12px; fill: rgb(42, 63, 95); fill-opacity: 1; white-space: pre; opacity: 1;"><tspan class="line" dy="0em" x="0" y="333">Jan 23</tspan><tspan class="line" dy="1.3em" x="0" y="333">2022</tspan></text></g><g class="x2tick"><text text-anchor="middle" x="0" y="333" style="font-family: 'Open Sans', verdana, arial, sans-serif; font-size: 12px; fill: rgb(42, 63, 95); fill-opacity: 1; white-space: pre; opacity: 1;" transform="translate(846.3499999999999,0)">Jan 30</text></g><g class="x2tick"><text text-anchor="middle" x="0" y="333" style="font-family: 'Open Sans', verdana, arial, sans-serif; font-size: 12px; fill: rgb(42, 63, 95); fill-opacity: 1; white-space: pre; opacity: 1;" transform="translate(1001.8199999999999,0)">Feb 6</text></g></g><g class="yaxislayer-above"><g class="y2tick"><text text-anchor="end" x="601.9" y="4.199999999999999" transform="translate(0,309.65)" style="font-family: 'Open Sans', verdana, arial, sans-serif; font-size: 12px; fill: rgb(42, 63, 95); fill-opacity: 1; white-space: pre; opacity: 1;">0</text></g><g class="y2tick"><text text-anchor="end" x="601.9" y="4.199999999999999" style="font-family: 'Open Sans', verdana, arial, sans-serif; font-size: 12px; fill: rgb(42, 63, 95); fill-opacity: 1; white-space: pre; opacity: 1;" transform="translate(0,228.84)">5k</text></g><g class="y2tick"><text text-anchor="end" x="601.9" y="4.199999999999999" style="font-family: 'Open Sans', verdana, arial, sans-serif; font-size: 12px; fill: rgb(42, 63, 95); fill-opacity: 1; white-space: pre; opacity: 1;" transform="translate(0,148.04)">10k</text></g></g><g class="overaxes-above"/></g></g><g class="polarlayer"/><g class="smithlayer"/><g class="ternarylayer"/><g class="geolayer"/><g class="funnelarealayer"/><g class="pielayer"/><g class="iciclelayer"/><g class="treemaplayer"/><g class="sunburstlayer"/><g class="glimages"/><defs id="topdefs-354efd"><g class="clips"/><clipPath id="legend354efd"><rect width="92" height="48" x="0" y="0"/></clipPath></defs><g class="layer-above"><g class="imagelayer"/><g class="shapelayer"/></g><g class="infolayer"><g class="legend" pointer-events="all" transform="translate(1095.92,100)"><rect class="bg" shape-rendering="crispEdges" style="stroke: rgb(68, 68, 68); stroke-opacity: 1; fill: rgb(255, 255, 255); fill-opacity: 1; stroke-width: 0px;" width="92" height="48" x="0" y="0"/><g class="scrollbox" transform="" clip-path="url(#legend354efd)"><g class="groups"><g class="traces" transform="translate(0,14.5)" style="opacity: 1;"><text class="legendtext" text-anchor="start" x="40" y="4.680000000000001" style="font-family: 'Open Sans', verdana, arial, sans-serif; font-size: 12px; fill: rgb(42, 63, 95); fill-opacity: 1; white-space: pre;">res</text><g class="layers" style="opacity: 1;"><g class="legendfill"/><g class="legendlines"><path class="js-line" d="M5,0h30" style="fill: none; stroke: rgb(99, 110, 250); stroke-opacity: 1; stroke-width: 2px;"/></g><g class="legendsymbols"><g class="legendpoints"/></g></g><rect class="legendtoggle" x="0" y="-9.5" width="86.171875" height="19" style="fill: rgb(0, 0, 0); fill-opacity: 0;"/></g><g class="traces" transform="translate(0,33.5)" style="opacity: 1;"><text class="legendtext" text-anchor="start" x="40" y="4.680000000000001" style="font-family: 'Open Sans', verdana, arial, sans-serif; font-size: 12px; fill: rgb(42, 63, 95); fill-opacity: 1; white-space: pre;">db time</text><g class="layers" style="opacity: 1;"><g class="legendfill"/><g class="legendlines"><path class="js-line" d="M5,0h30" style="fill: none; stroke: rgb(239, 85, 59); stroke-opacity: 1; stroke-width: 2px;"/></g><g class="legendsymbols"><g class="legendpoints"/></g></g><rect class="legendtoggle" x="0" y="-9.5" width="86.171875" height="19" style="fill: rgb(0, 0, 0); fill-opacity: 0;"/></g></g></g><rect class="scrollbar" rx="20" ry="3" width="0" height="0" style="fill: rgb(128, 139, 164); fill-opacity: 1;" x="0" y="0"/></g><g class="g-gtitle"/><g class="g-xtitle"/><g class="g-x2title"/><g class="g-ytitle"/><g class="g-y2title"/></g></svg>