<svg class="main-svg" xmlns="http://www.w3.org/2000/svg" xmlns:xlink="http://www.w3.org/1999/xlink" width="1200" height="400" style="" viewBox="0 0 1200 400"><rect x="0" y="0" width="1200" height="400" style="fill: rgb(255, 255, 255); fill-opacity: 1;"/><defs id="defs-e8ade0"><g class="clips"><clipPath id="clipe8ade0xyplot" class="plotclip"><rect width="473.09999999999997" height="220"/></clipPath><clipPath id="clipe8ade0x2y2plot" class="plotclip"><rect width="473.09999999999997" height="220"/></clipPath><clipPath class="axesclip" id="clipe8ade0x"><rect x="80" y="0" width="473.09999999999997" height="400"/></clipPath><clipPath class="axesclip" id="clipe8ade0y"><rect x="0" y="100" width="1200" height="220"/></clipPath><clipPath class="axesclip" id="clipe8ade0xy"><rect x="80" y="100" width="473.09999999999997" height="220"/></clipPath><clipPath class="axesclip" id="clipe8ade0y2"><rect x="0" y="100" width="1200" height="220"/></clipPath><clipPath class="axesclip" id="clipe8ade0xy2"><rect x="80" y="100" width="473.09999999999997" height="220"/></clipPath><clipPath class="axesclip" id="clipe8ade0x2"><rect x="602.9" y="0" width="473.09999999999997" height="400"/></clipPath><clipPath class="axesclip" id="clipe8ade0x2y"><rect x="602.9" y="100" width="473.09999999999997" height="220"/></clipPath><clipPath class="axesclip" id="clipe8ade0x2y2"><rect x="602.9" y="100" width="473.09999999999997" height="220"/></clipPath></g><g class="gradients"/><g class="patterns"/></defs><g class="bglayer"><rect class="bg" x="80" y="100" width="473.09999999999997" height="220" style="fill: rgb(229, 236, 246); fill-opacity: 1; stroke-width: 0;"/><rect class="bg" x="602.9" y="100" width="473.09999999999997" height="220" style="fill: rgb(229, 236, 246); fill-opacity: 1; stroke-width: 0;"/></g><g class="layer-below"><g class="imagelayer"/><g class="shapelayer"/></g><g class="cartesianlayer"><g class="subplot xy"><g class="layer-subplot"><g class="shapelayer"/><g class="imagelayer"/></g><g class="minor-gridlayer"><g class="x"/><g class="y"/></g><g class="gridlayer"><g class="x"><path class="xgrid crisp" transform="translate(158,0)" d="M0,100v220" style="stroke: rgb(255, 255, 255); stroke-opacity: 1; stroke-width: 1px;"/><path class="xgrid crisp" transform="translate(236.01,0)" d="M0,100v220" style="stroke: rgb(255, 255, 255); stroke-opacity: 1; stroke-width: 1px;"/><path class="xgrid crisp" transform="translate(314.01,0)" d="M0,100v220" style="stroke: rgb(255, 255, 255); stroke-opacity: 1; stroke-width: 1px;"/><path class="xgrid crisp" transform="translate(392.02,0)" d="M0,100v220" style="stroke: rgb(255, 255, 255); stroke-opacity: 1; stroke-width: 1px;"/><path class="xgrid crisp" transform="translate(470.02,0)" d="M0,100v220" style="stroke: rgb(255, 255, 255); stroke-opacity: 1; stroke-width: 1px;"/><path class="xgrid crisp" transform="translate(548.03,0)" d="M0,100v220" style="stroke: rgb(255, 255, 255); stroke-opacity: 1; stroke-width: 1px;"/></g><g class="y"><path class="ygrid crisp" transform="translate(0,257.26)" d="M80,0h473.09999999999997" style="stroke: rgb(255, 255, 255); stroke-opacity: 1; stroke-width: 1px;"/><path class="ygrid crisp" transform="translate(0,201.67000000000002)" d="M80,0h473.09999999999997" style="stroke: rgb(255, 255, 255); stroke-opacity: 1; stroke-width: 1px;"/><path class="ygrid crisp" transform="translate(0,146.09)" d="M80,0h473.09999999999997" style="stroke: rgb(255, 255, 255); stroke-opacity: 1; stroke-width: 1px;"/></g></g><g class="zerolinelayer"><path class="xzl zl crisp" transform="translate(80,0)" d="M0,100v220" style="stroke: rgb(255, 255, 255); stroke-opacity: 1; stroke-width: 2px;"/><path class="yzl zl crisp" transform="translate(0,312.84000000000003)" d="M80,0h473.09999999999997" style="stroke: rgb(255, 255, 255); stroke-opacity: 1; stroke-width: 2px;"/></g><path class="xlines-below"/><path class="ylines-below"/><g class="overlines-below"/><g class="xaxislayer-below"/><g class="yaxislayer-below"/><g class="overaxes-below"/><g class="plot" transform="translate(80,100)" clip-path="url(#clipe8ade0xyplot)"><g class="scatterlayer mlayer"><g class="trace scatter tracee46016" style="stroke-miterlimit: 2; opacity: 1;"><g class="fills"/><g class="errorbars"/><g class="lines"><path class="js-line" d="M0,126.45L0.62,150.38L0.86,139.59L0.94,137.41L1.25,138.54L1.48,112.93L1.72,126.89L1.79,130.72L3.59,169.07L3.98,166.92L4.06,166.56L4.52,168.15L4.99,163.53L5.07,164.6L5.15,166.11L5.38,161.16L5.46,157.17L5.77,149.18L6.32,150.51L6.4,152.38L8.5,205.93L8.58,205.83L8.66,205.97L9.75,204.43L9.83,204.3L9.91,204.04L10.14,205.08L10.37,204.71L10.45,205.38L10.61,204.53L11.15,205.41L11.23,205.52L11.86,205.69L11.93,204.63L12.71,196.24L12.87,197.43L12.95,199.28L13.65,206.48L13.88,203.91L13.96,203.25L14.59,198.33L15.21,199.12L15.29,198.82L15.68,197.99L15.76,196.94L16.46,193.18L16.54,188.5L17.16,177.86L17.24,165.95L17.32,165.13L17.55,170.18L17.63,170.37L17.86,165.93L18.02,170.78L18.1,170.49L18.18,180.68L18.49,173.5L19.03,176.68L19.11,177.21L19.27,177.77L19.42,176.16L19.5,174.88L20.28,168.71L20.44,169.49L20.52,172.07L20.59,172.45L20.67,170.52L20.75,168.31L22.23,106.13L22.62,120.36L22.7,122.97L23.17,143.37L23.4,122.21L23.48,120.2L24.1,115.91L25.12,153.57L25.2,151.97L25.27,151.58L25.51,154.36L25.59,154.13L26.05,159.42L26.13,161.5L26.52,159.32L26.76,161.09L26.83,162.25L27.07,166.55L27.38,160.49L27.61,163.81L27.69,161.94L28,146.99L28.39,158.23L28.47,157.78L28.63,157.29L29.1,164.86L29.17,167.43L29.8,182.2L29.88,186.35L30.97,207.27L31.05,206.92L31.12,206.64L31.67,205.49L31.98,206.08L32.06,206.53L32.45,208.13L33,207.78L33.07,207.73L33.62,206.92L33.7,206.67L34.17,205.05L34.24,204.57L34.48,203.29L34.56,201.52L35.18,191.65L35.57,194.93L35.65,196.12L36.58,204.08L36.74,203.19L36.82,203.03L37.05,201.71L37.52,202.81L37.6,203.1L38.92,196.24L39,194.92L39.78,180.88L40.33,181.38L40.41,183.54L40.56,184.87L40.87,179.55L40.95,174.51L41.34,171.36L41.42,173.51L41.73,176.9L41.81,175.64L41.89,180.15L43.6,146.57L43.68,152.76L44.31,118.44L44.38,112.41L44.7,103.94L45.01,114.23L45.09,119.39L45.55,149.43L46.02,137.51L46.1,138.25L46.41,121.41L46.8,138.35L46.88,140.63L47.11,143.04L47.19,146.07L47.27,136.07L47.9,150.84L47.97,151.7L48.13,152.94L48.21,165.27L48.36,166.51L48.52,164.82L48.6,163.74L48.99,159.33L49.3,162.99L49.38,163.82L49.46,167.09L50,158.74L50.08,157.33L50.39,149.32L50.55,156.26L50.63,158.55L50.78,157.73L50.94,162.02L51.02,162.86L51.33,160.38L51.64,163.84L51.72,165.8L52.03,173.07L52.11,175.14L53.59,205.63L53.67,205.78L53.98,206.31L54.14,205.33L54.21,204.94L54.45,205.07L54.53,204.28L54.6,204.19L54.84,203.48L55.15,205.39L55.23,205.54L55.38,204.33L55.93,205.55L56.01,205.52L56.24,204.51L56.4,207.01L56.55,206.83L56.63,206.92L57.02,203.24L57.1,201.5L57.65,192L58.04,195.44L58.11,196.78L58.58,202.87L58.97,201.38L59.05,201.03L59.44,199.92L59.67,200.66L59.75,201.36L60.14,202.82L60.45,201.25L60.53,201.05L61.47,195.77L61.55,196.69L63.73,169.64L63.81,169.85L63.89,171.07L64.12,177.14L64.43,174.34L64.51,173.08L65.21,156.04L65.52,160.37L65.6,161.17L66.77,135.65L66.85,129.09L67.16,118.4L67.47,128.82L67.55,132.44L67.79,147.12L67.86,151.8L68.02,157.77L68.18,150.37L68.25,150.91L68.33,146.04L68.96,122.14L69.27,132.76L69.35,132.53L70.83,154.49L70.98,151.67L71.06,149.06L71.53,145.85L71.69,149.48L71.76,150.35L72.39,162L72.54,154.01L72.62,151.41L73.64,124.19L73.71,124.37L73.79,129.34L75.27,148.18L75.35,148.59L76.52,173.85L76.6,175.74L76.91,183.1L77.22,178.55L77.3,177.21L78.63,164.54L78.71,163.23L79.64,159.2L79.72,160.34L79.8,161.09L80.19,162.77L80.58,162.51L80.66,160.95L82.45,155.38L82.53,156.33L84.17,181.55L84.56,177.18L84.64,166.26L85.42,156.73L85.49,155.52L85.57,163.42L86.2,152.23L86.27,151.13L87.44,130.43L87.6,131.93L87.68,133.38L87.76,131.65L88.15,136.34L88.22,135.67L88.3,136.3L88.54,135.63L88.93,138.6L89,137.12L89.08,135.85L89.16,136.96L89.32,131.36L89.39,129.58L89.86,128.12L90.02,130.94L90.1,130.64L90.41,134.89L90.72,128.23L90.8,129L91.03,129.54L91.19,127.82L91.27,120.52L91.34,120.8L91.42,109.76L92.05,78.39L92.28,92.01L92.36,107.42L92.51,123.26L93.06,112.43L93.14,111.39L93.76,118.36L93.84,120.08L94.85,156.38L95.24,150.98L95.32,150.23L95.95,172.45L96.18,161.83L96.26,159.63L97.58,140.08L97.66,137.18L98.13,144.31L98.21,145.19L98.44,152.54L98.52,154.39L99.3,171.63L99.61,165.78L99.69,166.39L100,163.68L100.24,165.78L100.31,173.46L100.63,169.33L101.17,170.82L101.25,173.04L101.8,182.72L102.03,179.68L102.11,177.36L102.42,171.78L102.5,169.37L103.75,151.35L103.82,151.41L104.14,151.69L104.6,149.69L104.84,150.28L104.92,151.98L106.4,170.76L106.48,170.69L106.79,172.84L107.02,168.86L107.1,157.87L107.33,158L107.65,153.41L107.72,150.91L107.8,150.59L107.96,151.18L108.04,159.95L110.14,143.3L110.3,144.92L110.38,145.47L110.53,148.28L110.69,140.17L110.77,135.22L111.31,122.81L111.55,131.46L111.63,132.58L111.94,128.84L112.09,131.09L112.17,134.51L112.25,133.9L112.33,134.72L112.41,133.94L112.48,139.48L112.95,153.5L113.26,145.85L113.34,143.9L113.65,137.47L113.89,144.64L113.97,148.44L114.28,157.38L114.75,149.8L114.82,148.95L114.9,148.55L114.98,150.24L115.06,152.22L115.76,166.58L115.99,158.73L116.07,155.58L116.85,149.86L116.93,153.81L117.01,155.09L117.94,144.03L118.1,144.53L118.18,144.7L119.19,162.22L119.27,165.09L120.6,207.03L120.91,204.02L120.99,203.43L121.92,186.05L122.31,188.57L122.39,190.19L123.56,200.28L123.64,200.47L124.03,207.03L124.42,203.62L124.5,202.4L125.12,197.46L125.35,199.33L125.43,200.18L126.52,205.05L126.68,204.99L126.76,204.73L126.99,204.94L127.07,205.37L127.15,205.46L127.93,201.33L128.01,200.21L129.33,191.87L129.41,192.8L129.49,192.29L129.57,182.92L129.72,183.44L129.88,181.2L129.96,180.66L130.5,182.85L130.97,174.36L131.05,173.83L131.2,172.98L131.44,173.91L131.83,173.32L131.91,173.22L132.14,173.3L133.47,159.51L133.54,156.57L134.01,140.51L134.09,135.06L134.56,106.48L134.95,122.25L135.03,128.01L136.04,160.06L136.12,162.08L136.35,156.78L136.59,166.3L136.82,163.81L136.9,161.72L137.68,141.55L137.91,147.14L137.99,148.06L138.69,162.39L138.85,161.67L138.93,163.11L139.63,176.03L139.86,170.98L139.94,164.44L140.56,153.79L140.8,159.6L140.88,166.02L143.14,207.96L143.45,206.17L143.53,205.22L143.84,203.99L143.92,202.64L144.15,200.11L144.47,202.81L144.62,202.82L144.7,202.78L145.01,206.85L145.56,205.47L145.64,205.32L146.1,205.17L146.18,205.93L146.26,206.99L146.81,204.43L146.88,204.12L147.66,198.61L147.98,200.19L148.05,200.78L148.83,204.25L149.22,204.02L149.3,204.05L149.93,204.2L150,203.49L151.33,192.69L151.56,194.68L151.64,195.25L152.03,193.1L152.34,196.94L152.42,193.57L153.83,173.89L153.9,175.78L154.06,179.55L154.53,175.27L154.61,175.98L154.68,174.49L154.92,172.28L155,172.52L155.07,170.14L155.39,170.85L157.02,115.65L157.34,122.07L157.41,123.65L157.88,150.5L158.35,142.05L158.43,137.33L158.51,137.8L158.58,133.37L158.74,112.14L159.36,120.46L159.44,121.36L159.52,121.22L159.6,119.27L160.85,160.6L161.16,155.75L161.24,154.34L161.39,152.8L161.55,157.52L161.63,158.62L162.33,168.52L162.41,167.77L162.48,164.21L162.95,154.12L163.19,159.42L163.26,160.75L163.73,155.25L163.89,159.21L163.97,162.3L166.07,206.76L166.15,206.58L166.31,206.97L166.38,206.26L166.46,205.65L167.01,204.54L167.24,205.05L167.32,205.59L168.02,206.95L168.18,206.44L168.26,206.34L169.43,203.07L169.5,201.97L169.82,196.75L169.89,195.4L169.97,194.42L170.44,195.97L170.52,195.93L170.6,196.72L170.91,201.38L171.53,200.4L171.61,199.99L171.84,199.51L172,201.48L172.08,202.01L172.39,203L172.62,201.78L172.7,200.9L174.42,183.32L174.5,171.93L174.58,171.67L174.65,172.01L174.73,175.3L175.12,174.18L175.43,184.3L175.75,181.75L175.82,181.43L175.9,181.17L176.14,182.27L176.21,183.47L176.45,184.36L176.76,181.8L176.84,179.98L179.33,121.21L179.41,116.77L179.49,114.06L179.8,125.76L179.96,120.13L180.04,128.06L180.35,144.8L180.58,135.91L180.66,131.68L180.82,135.63L181.28,116.06L181.44,129.03L181.52,132.36L182.92,155.67L183,156.7L183.39,159.25L183.62,156.79L183.7,155.53L183.78,155.34L183.86,156.48L183.94,157.74L184.64,169.91L184.95,165.19L185.03,164.71L185.57,152.98L186.04,155.42L186.12,156.9L188.15,205.98L188.38,205.03L188.46,204.97L189.16,205.36L189.24,205.74L190.1,205.47L190.18,205.62L190.25,204.49L190.96,205L191.03,204.74L191.19,206.45L191.42,205.06L191.5,204.67L191.74,203.16L191.81,202.21L192.52,198.37L192.75,199.63L192.83,200.33L193.61,203.9L194,203.5L194.08,203.31L194.86,204.5L194.93,203.95L195.01,202.7L195.79,195.5L196.1,198.14L196.18,198L197.59,171.2L197.66,174.1L197.82,171.99L197.9,179.97L198.29,175.92L198.37,175.74L198.44,175.92L198.68,174.66L198.76,175.4L198.83,177.13L199.07,179.7L199.46,176.44L199.61,178.16L199.69,177.06L200.78,157.9L200.86,153.54L201.88,107.28L202.19,118.83L202.27,123.5L202.34,123.98L202.42,131.37L202.81,159L203.2,144.41L203.28,142.05L203.51,125.16L203.59,118.01L203.75,107.86L204.22,126.84L204.29,126.21L206.09,173L206.32,172.34L206.4,171.29L206.71,177.28L206.95,174.52L207.03,172.59L207.18,172.2L207.26,168.72L207.88,150.23L208.12,156.1L208.2,159.59L210.46,207.08L210.54,207.11L211.47,203.07L211.78,203.75L211.86,204.58L211.94,204.24L212.33,205.32L212.41,205.74L212.49,206.29L212.95,204.51L213.03,204.75L213.5,204.18L213.58,205.63L213.66,205.78L214.98,200.67L215.06,200.09L215.53,199.6L216.31,200.81L216.39,200.81L216.78,199.6L217.01,200.97L217.09,201.4L217.4,202.46L217.63,201.09L217.71,200.61L218.26,195.49L218.65,196.39L218.73,197.7L219.04,201.22L219.43,197.61L219.51,197.89L220.21,183.28L220.29,181.22L220.68,177.38L221.07,178.08L221.14,179.29L221.69,180.62L221.85,178.96L221.92,178.24L222.31,181.98L222.39,181.88L222.47,170.89L222.55,170.23L222.78,173.85L222.86,173.92L223.95,148.58L224.03,137.55L224.34,112.29L224.81,126.55L224.89,128.91L225.12,148.15L225.67,136.47L225.75,132.24L226.14,120.53L226.53,131.01L226.6,133.26L226.68,133.06L226.76,135.23L228.16,165.45L228.24,166.12L229.02,157.37L229.26,162.12L229.33,163.98L229.8,169.37L229.96,165.59L230.04,161.12L230.97,122.18L231.21,126.34L231.28,128.34L232.92,182.99L233,183.82L234.33,190.92L234.56,189.82L234.64,189.54L235.34,188.09L235.42,183.01L236.28,150.93L236.51,161.86L236.59,164.29L236.98,178.03L237.37,168.96L237.45,165.44L238.54,142.19L238.62,142.31L238.7,142.48L239.63,138.41L239.79,140.04L239.87,140.96L240.96,147.38L241.04,148.78L241.58,154.82L241.89,151.1L241.97,149.75L244.08,128.68L244.16,128.4L244.7,125.16L244.86,126.61L244.94,128.14L245.01,128.5L245.17,126.02L245.25,127.04L245.33,124.81L246.11,53.93L246.18,44.88L246.34,38.6L246.65,58.12L246.73,70.16L247.2,118.24L247.67,105.22L247.74,99.57L248.29,85.65L248.45,93.11L248.52,100.96L248.91,110.72L248.99,108.33L249.07,87.78L249.23,61.98L249.85,80.12L249.93,87.12L250.08,119.12L250.71,102.38L250.79,108.27L251.88,50.39L251.96,53.19L252.03,76.91L253.13,142.21L253.2,141.03L253.28,139.42L253.44,138.19L253.67,141.38L253.75,143.52L254.92,173.05L255.15,167.03L255.23,164.83L256.32,141.83L256.48,147.17L256.56,149.33L256.64,149.69L256.79,147.1L256.87,146.17L257.73,138.61L257.81,138.83L258.12,137.45L258.27,139.12L258.35,138.69L258.43,139.89L259.05,135.54L259.21,136.82L259.29,138.74L259.91,130.12L260.07,133.91L260.15,138.06L260.3,141.75L260.69,137.25L260.93,139.3L261,140.13L261.08,139.95L261.16,140.43L261.24,141.55L262.02,152.21L262.25,151.91L262.33,140.81L262.41,141.29L262.56,139.73L262.64,137.45L262.8,135.76L263.11,138.79L263.19,138.74L263.27,146.06L264.05,141.03L264.12,138.62L265.37,127.64L265.68,130.34L265.76,132.96L267.17,114.24L267.4,117.95L267.48,118.38L268.18,138.77L268.57,135.62L268.65,136.27L268.96,134.2L269.2,138.56L269.27,141.32L269.66,151.23L270.13,148.3L270.21,148.2L270.44,154.57L270.68,147.37L270.76,145.29L270.99,149.8L271.22,145.42L271.3,141.44L271.46,136.59L271.69,141.7L272.08,139.45L272.16,142.15L273.8,165.14L273.88,166.15L275.59,199.65L275.83,196.92L275.9,196.05L276.45,190.51L276.92,191.87L277,191.73L277.15,191.76L277.23,193.84L277.46,195.26L277.54,196.05L278.63,204.88L278.87,204.23L278.95,204.25L279.73,198.11L279.8,196.99L280.27,194.04L280.51,195.81L280.58,196.72L281.99,204.94L282.07,204.94L284.48,198.62L284.56,193.48L285.42,182.81L285.5,187.75L285.58,189.25L285.65,187.84L285.73,174.14L285.97,135.16L286.59,136.17L286.67,150.1L286.9,185.03L287.6,180.19L287.68,181.1L287.76,182.39L287.99,176.13L288.15,178.01L288.23,177.79L288.62,165.46L288.7,161.42L289.16,144.17L289.24,140.56L289.87,97.62L290.26,110.05L290.33,122.47L290.72,154.9L291.19,139.82L291.27,137.19L291.66,118.01L291.74,122.04L291.82,136.98L291.97,136.95L293.22,181.47L293.3,183.36L293.38,182.83L293.45,172.37L294.23,160.38L294.31,160.87L294.39,171.56L295.33,187.25L295.4,183.47L295.48,178.38L296.26,148.07L296.34,152.63L296.42,157.02L297.35,196.44L297.43,197.43L297.9,201.29L298.21,199.31L298.29,198.99L298.6,197.49L298.68,196.8L299.62,191L299.77,191.59L299.85,192.08L301.41,206.16L301.88,205.9L301.96,205.3L302.82,200.97L303.13,201.3L303.21,201.21L303.67,203.98L304.22,203.22L304.3,203.03L304.61,201.23L305,203L305.08,203.27L305.16,203.45L305.47,202.75L305.55,202.27L306.09,197.58L306.48,199.58L306.56,200.7L306.64,202.21L307.11,197.48L307.18,197.22L307.57,180.8L307.96,184.98L308.04,185.37L308.2,190.14L308.98,173.39L309.06,176.35L309.13,180.44L309.68,189.85L309.99,189.03L310.07,187.51L310.23,185.86L310.3,175.17L312.1,117.37L312.18,101.1L312.25,90.12L312.72,119.1L312.8,110.06L312.88,113.14L313.81,138.16L313.89,133.16L313.97,131.47L314.36,149.57L314.44,153.57L314.98,143.7L315.22,150.84L315.3,152.18L315.84,168.2L315.92,179.26L316.54,173.33L316.62,170.25L316.7,169.94L316.86,171.38L316.93,173.25L317.09,172.77L317.71,181.64L317.87,178.8L317.95,174.61L318.18,165.89L318.65,170.84L318.73,171.48L320.99,205.93L321.15,204.98L321.22,204.25L321.54,203.38L321.61,201.42L322,195.82L322.47,196.48L322.55,198.47L323.25,205.83L323.56,205.63L323.64,205.51L324.11,204.51L324.19,204.64L324.27,204.08L325.28,195.89L325.59,197.72L325.67,198.41L325.98,200.69L326.06,201.82L327,204.58L327.07,204.41L327.39,205.27L327.7,204.29L327.78,203.82L328.24,200L328.79,201.48L328.87,202.12L329.02,201.85L329.18,202.66L329.41,201.92L329.49,200.22L330.35,178.15L330.58,179.45L330.66,191.21L332.46,175.79L332.69,176.21L332.77,167.86L332.85,167.33L333,171.32L333.08,171.58L333.16,172.13L333.32,169.33L333.39,166.76L333.63,161.37L333.71,166.38L334.72,114.1L335.19,116.74L335.27,128.04L336.12,148.71L336.2,144.71L336.83,116.28L337.14,120.4L337.22,122.49L337.37,114.85L338.62,151.39L338.7,150.66L338.78,150.52L339.87,167.91L339.95,164.69L340.8,144.98L340.88,148.59L340.96,152.2L341.12,151.24L341.35,153.7L341.43,155.84L342.83,195.96L342.91,198.16L343.61,203.31L343.85,203.1L343.92,203.01L344.24,203.11L344.55,201.98L344.7,202.83L344.78,202.68L345.48,204.79L345.72,204.41L345.8,203.1L346.19,203.83L346.42,203.01L346.5,202.37L346.73,202.66L347.12,198.83L347.2,196.91L347.82,187.71L348.14,191.08L348.21,191.7L348.6,199.68L349.15,197.36L349.23,197.2L349.54,196.38L349.62,199.15L349.85,199.62L350.01,198.99L350.09,198.69L351.41,187.35L351.49,183.04L352.11,175.35L352.19,162.4L352.27,161.85L352.35,164.41L352.43,168.82L352.58,170.47L352.66,172.68L352.89,175.71L353.05,174.12L353.13,184.9L353.75,166.28L354.22,171.21L354.3,172.37L354.53,174.55L354.61,171.44L354.69,168.71L356.01,137.08L356.09,138.12L356.17,140.38L356.56,137.27L356.64,131.3L356.95,134.06L357.18,120.44L357.42,126.76L357.5,129.81L357.57,129.48L357.65,134.92L358.43,114.24L358.98,114.96L359.06,118.78L359.68,143.27L359.91,136.05L359.99,137.57L360.15,129.31L360.54,135.77L360.62,136.88L361.08,155.73L361.4,150.07L361.47,149.14L362.41,159.67L362.49,155.95L362.57,152.43L363.19,142.78L363.35,149.17L363.43,154.13L363.74,150.58L364.6,169.54L364.67,172.58L366,201.38L366.08,201.23L366.16,201.02L366.23,200.86L366.47,201.36L366.7,201.22L366.78,201.56L367.95,202.97L368.03,203.01L368.81,206.63L369.12,205.29L369.2,204.72L369.35,204.97L369.43,204.39L369.51,203.61L370.29,193.46L370.68,194.64L370.76,195.94L371.23,200.1L371.62,199.32L371.69,199.05L372.55,197.8L372.63,197.19L373.41,194.8L373.49,195.08L373.57,195.8L373.8,198.95L374.35,197.77L374.42,197.05L375.2,188.86L375.28,187.94L375.52,185.17L375.59,175.8L376.3,167.65L376.45,168.56L376.53,177.14L377.23,180.4L377.31,178.92L377.39,176.73L379.57,116.65L379.81,124.16L379.88,127.88L380.51,160.2L380.82,142.9L380.9,135.07L380.98,136.14L381.05,133.68L381.13,133.85L381.21,128.78L381.44,123.26L381.6,137.65L381.68,140.29L381.83,144.76L382.3,141.46L382.38,140.3L382.54,138.74L383,140.61L383.08,143.2L383.16,143.79L383.39,141.56L383.47,142.11L383.55,140.36L383.94,138.25L384.17,142.27L384.25,143.69L384.88,158.63L385.03,147.36L385.11,143.36L385.66,115.47L386.2,119.84L386.28,122.11L387.84,140.01L388.15,137.25L388.23,137.1L388.7,135.69L388.85,137.4L388.93,137.8L389.32,139.19L389.63,137.97L389.71,136.5L390.88,132.36L390.96,132.4L391.04,133.18L391.51,131.16L391.74,132.96L391.82,133.36L392.75,146.11L392.83,147.58L393.38,152.98L393.53,149.71L393.61,148.22L394.16,133.89L394.39,136.64L394.47,136.69L394.55,137.02L394.63,144.67L395.64,133.4L395.72,134.61L395.8,136.05L396.81,126.21L397.2,127.17L397.28,127.89L397.36,128.21L397.51,127.44L397.59,125.93L398.45,120.69L398.53,121.33L398.61,124.58L399.46,134.76L399.54,132.11L399.62,129.75L400.4,99.04L400.48,94.2L400.87,73.61L401.18,91.37L401.26,96.25L401.49,121.85L402.04,113.35L402.12,114.64L402.9,100.79L402.97,87.59L403.05,83.77L403.52,96.97L403.6,101.85L405,174.35L405.24,166.29L405.31,162.2L406.56,137.17L406.64,137.1L407.89,159.18L407.97,160.29L409.06,182.56L409.29,178.4L409.37,176.47L410.15,161.16L410.46,166.53L410.54,165.4L411.32,149.31L411.63,149.72L411.71,149.98L412.1,153.91L412.33,151.55L412.41,150.11L413.58,144.04L413.66,143.66L413.82,143.59L413.89,144.02L413.97,146.69L415.77,166.55L415.84,167.04L416.08,165.26L416.39,167.75L416.47,168.86L417.72,157.49L417.79,157.04L417.95,157.23L418.03,159.53L418.73,162.59L418.81,161.85L418.89,158.89L420.52,115.88L420.6,114.81L420.76,112.88L420.84,122.42L420.99,119.03L421.23,124.32L421.3,123.26L421.38,126.89L422.01,160.2L422.4,149.45L422.47,146.19L422.63,141.31L423.1,149.07L423.18,149.75L423.49,154.77L423.64,149.48L423.8,150.39L423.88,149.3L423.96,148.25L424.19,155L424.27,155.9L424.74,160.28L425.2,150.12L425.28,150.59L425.36,150.79L425.44,151.3L425.52,148.45L425.59,143L425.99,144.9L426.14,132.83L426.22,131.04L426.3,130.03L426.61,135.61L426.69,134.13L426.77,134.92L426.92,135.7L427,143.83L428.17,179.82L428.25,181.7L428.48,184.48L428.64,180.28L428.72,166.79L429.57,11L429.89,36.47L429.96,52.83L430.43,70.11L430.74,69.35L430.82,70.85L432.85,198.69L432.93,199.32L433.63,206.39L434.02,205.66L434.1,205.52L434.96,208.85L435.03,208.8L435.11,208.19L435.81,208.01L435.89,207.84L436.05,209L436.44,208.39L436.52,208.23L437.45,207.24L437.53,206.39L438.39,195.64L438.78,197.59L438.86,199.09L439.48,201.58L439.56,199.33L439.64,197.83L440.34,188.58L440.65,191.06L440.73,191.73L441.12,191.09L441.2,193.58L441.27,193.93L442.99,148.5L443.07,142.68L443.61,110.4L444,126.05L444.08,127.51L444.47,144.34L444.94,140.2L445.02,144.1L445.1,140.86L445.41,154.66L445.49,159.17L445.95,170.75L446.27,163.28L446.34,162.17L446.81,156.09L446.89,153.88L447.05,153.63L447.51,161.84L447.67,159.85L447.75,158.92L447.83,157.58L448.14,161.91L448.22,165.32L448.37,168.05L448.45,157.12L448.53,156.6L448.76,163.91L448.84,158.04L448.92,154.72L449.31,141.81L449.62,153.08L449.7,153.18L451.02,191.8L451.1,193.52L451.8,205.66L452.27,204.79L452.35,204.13L453.36,193.62L453.52,195.39L453.6,195.41L453.75,195.24L453.83,197.26L454.69,204.49L455,203.6L455.08,203.44L455.24,202.76L455.7,204.19L455.78,204.69L456.48,208.31L456.95,207.86L457.03,208.01L457.5,208.56L457.58,207.62L457.66,207.69L457.73,207.58L458.44,206.18L458.51,207.12L458.59,207.33L459.14,206.72L459.22,206.59L459.53,205.55L459.61,204.68L460.15,200.63L460.23,199.17L460.46,194.56L461.01,195.3L461.09,188.85L461.4,194.09L461.56,191.23L461.63,189.32L462.02,191.56L462.49,186.35L462.57,185.3L462.65,184.02L463.12,187.49L463.19,188L463.58,188.29L463.66,187.78L463.74,186.68L465.14,157.65L465.22,155.49L466.08,121.48L466.31,128.8L466.39,132.23L466.78,148.21L466.86,153.48L466.94,155.18L467.17,147.91L467.25,145.12L467.41,137.29L467.64,148L467.87,142.5L467.95,154.62L468.34,168.59L468.65,163.29L468.73,154.59L469.36,152.13L469.51,153.96L469.59,156.99L469.75,167.64L470.37,162.71L470.45,161.74L470.68,160.99L471.07,166.34L471.38,165.07L471.46,160.77L471.85,164.92L472.01,163.99L472.09,166.91L473.1,176.43" style="vector-effect: none; fill: none; stroke: rgb(99, 110, 250); stroke-opacity: 1; stroke-width: 2px; opacity: 1;"/></g><g class="points"/><g class="text"/></g></g></g><g class="overplot"/><path class="xlines-above crisp" d="M0,0" style="fill: none;"/><path class="ylines-above crisp" d="M0,0" style="fill: none;"/><g class="overlines-above"/><g class="xaxislayer-above"><g class="xtick"><text text-anchor="middle" x="0" y="333" transform="translate(80,0)" style="font-family: 'Open Sans', verdana, arial, sans-serif; font-size: 12px; fill: rgb(42, 63, 95); fill-opacity: 1; white-space: pre; opacity: 1;">0</text></g><g class="xtick"><text text-anchor="middle" x="0" y="333" style="font-family: 'Open Sans', verdana, arial, sans-serif; font-size: 12px; fill: rgb(42, 63, 95); fill-opacity: 1; white-space: pre; opacity: 1;" transform="translate(158,0)">1000</text></g><g class="xtick"><text text-anchor="middle" x="0" y="333" style="font-family: 'Open Sans', verdana, arial, sans-serif; font-size: 12px; fill: rgb(42, 63, 95); fill-opacity: 1; white-space: pre; opacity: 1;" transform="translate(236.01,0)">2000</text></g><g class="xtick"><text text-anchor="middle" x="0" y="333" style="font-family: 'Open Sans', verdana, arial, sans-serif; font-size: 12px; fill: rgb(42, 63, 95); fill-opacity: 1; white-space: pre; opacity: 1;" transform="translate(314.01,0)">3000</text></g><g class="xtick"><text text-anchor="middle" x="0" y="333" style="font-family: 'Open Sans', verdana, arial, sans-serif; font-size: 12px; fill: rgb(42, 63, 95); fill-opacity: 1; white-space: pre; opacity: 1;" transform="translate(392.02,0)">4000</text></g><g class="xtick"><text text-anchor="middle" x="0" y="333" style="font-family: 'Open Sans', verdana, arial, sans-serif; font-size: 12px; fill: rgb(42, 63, 95); fill-opacity: 1; white-space: pre; opacity: 1;" transform="translate(470.02,0)">5000</text></g><g class="xtick"><text text-anchor="middle" x="0" y="333" style="font-family: 'Open Sans', verdana, arial, sans-serif; font-size: 12px; fill: rgb(42, 63, 95); fill-opacity: 1; white-space: pre; opacity: 1;" transform="translate(548.03,0)">6000</text></g></g><g class="yaxislayer-above"><g class="ytick"><text text-anchor="end" x="79" y="4.199999999999999" transform="translate(0,312.84000000000003)" style="font-family: 'Open Sans', verdana, arial, sans-serif; font-size: 12px; fill: rgb(42, 63, 95); fill-opacity: 1; white-space: pre; opacity: 1;">0</text></g><g class="ytick"><text text-anchor="end" x="79" y="4.199999999999999" style="font-family: 'Open Sans', verdana, arial, sans-serif; font-size: 12px; fill: rgb(42, 63, 95); fill-opacity: 1; white-space: pre; opacity: 1;" transform="translate(0,257.26)">0.02</text></g><g class="ytick"><text text-anchor="end" x="79" y="4.199999999999999" style="font-family: 'Open Sans', verdana, arial, sans-serif; font-size: 12px; fill: rgb(42, 63, 95); fill-opacity: 1; white-space: pre; opacity: 1;" transform="translate(0,201.67000000000002)">0.04</text></g><g class="ytick"><text text-anchor="end" x="79" y="4.199999999999999" style="font-family: 'Open Sans', verdana, arial, sans-serif; font-size: 12px; fill: rgb(42, 63, 95); fill-opacity: 1; white-space: pre; opacity: 1;" transform="translate(0,146.09)">0.06</text></g></g><g class="overaxes-above"/></g><g class="subplot x2y2"><g class="layer-subplot"><g class="shapelayer"/><g class="imagelayer"/></g><g class="minor-gridlayer"><g class="x2"/><g class="y2"/></g><g class="gridlayer"><g class="x2"><path class="x2grid crisp" transform="translate(680.75,0)" d="M0,100v220" style="stroke: rgb(255, 255, 255); stroke-opacity: 1; stroke-width: 1px;"/><path class="x2grid crisp" transform="translate(758.5999999999999,0)" d="M0,100v220" style="stroke: rgb(255, 255, 255); stroke-opacity: 1; stroke-width: 1px;"/><path class="x2grid crisp" transform="translate(836.45,0)" d="M0,100v220" style="stroke: rgb(255, 255, 255); stroke-opacity: 1; stroke-width: 1px;"/><path class="x2grid crisp" transform="translate(914.3,0)" d="M0,100v220" style="stroke: rgb(255, 255, 255); stroke-opacity: 1; stroke-width: 1px;"/><path class="x2grid crisp" transform="translate(992.15,0)" d="M0,100v220" style="stroke: rgb(255, 255, 255); stroke-opacity: 1; stroke-width: 1px;"/><path class="x2grid crisp" transform="translate(1070.01,0)" d="M0,100v220" style="stroke: rgb(255, 255, 255); stroke-opacity: 1; stroke-width: 1px;"/></g><g class="y2"><path class="y2grid crisp" transform="translate(0,228.84)" d="M602.9,0h473.09999999999997" style="stroke: rgb(255, 255, 255); stroke-opacity: 1; stroke-width: 1px;"/><path class="y2grid crisp" transform="translate(0,148.04)" d="M602.9,0h473.09999999999997" style="stroke: rgb(255, 255, 255); stroke-opacity: 1; stroke-width: 1px;"/></g></g><g class="zerolinelayer"><path class="x2zl zl crisp" transform="translate(602.9,0)" d="M0,100v220" style="stroke: rgb(255, 255, 255); stroke-opacity: 1; stroke-width: 2px;"/><path class="y2zl zl crisp" transform="translate(0,309.65)" d="M602.9,0h473.09999999999997" style="stroke: rgb(255, 255, 255); stroke-opacity: 1; stroke-width: 2px;"/></g><path class="xlines-below"/><path class="ylines-below"/><g class="overlines-below"/><g class="xaxislayer-below"/><g class="yaxislayer-below"/><g class="overaxes-below"/><g class="plot" transform="translate(602.9,100)" clip-path="url(#clipe8ade0x2y2plot)"><g class="scatterlayer mlayer"><g class="trace scatter trace9efbd8" style="stroke-miterlimit: 2; opacity: 1;"><g class="fills"/><g class="errorbars"/><g class="lines"><path class="js-line" d="M0,200.31L0.16,195.76L0.23,173.08L0.39,191.75L0.47,188.41L0.54,127.24L0.86,168.17L1.17,113.27L1.25,120.76L1.32,134.98L1.48,105.38L1.87,169.46L1.95,143.02L2.02,168.74L2.1,166.55L2.18,185.64L2.8,186.33L2.88,150.78L2.96,162.39L3.04,178.38L3.19,190.1L3.5,169.05L3.58,159.51L3.74,163.78L3.81,156.48L4.13,143.7L4.44,185.37L4.67,183.11L4.75,156.07L4.83,153.49L4.9,174.03L4.98,171.99L5.06,173.49L5.22,131.14L5.76,183.16L5.84,180.93L5.92,170.59L6.31,198.17L6.38,198.05L6.46,202.53L6.7,195.05L6.77,186.05L7.01,192.54L7.32,185.36L7.47,189L7.55,182.19L7.63,184.48L7.94,176.59L8.02,170.33L8.1,170.14L8.17,162.62L8.25,163.38L8.33,158.83L8.41,163.26L8.49,148.57L8.72,155.11L8.95,132.31L9.19,146.12L9.26,137.39L9.42,122.35L9.73,145.54L9.81,146.13L9.89,126.54L10.28,153.54L10.51,150.77L10.59,153.25L10.67,157.46L10.82,128.9L11.21,154.78L11.29,141.68L11.76,137.04L12.22,157.8L12.3,156.2L12.46,148.49L12.85,177.22L13.08,160.06L13.16,149.06L13.23,158.93L13.86,143.51L13.94,149.38L14.17,156L14.32,143.17L14.48,148.5L14.56,144.45L15.34,170.27L15.41,164.21L15.49,147.92L15.88,169.13L16.12,166.43L16.19,165.48L16.58,177.16L16.82,168.5L16.89,140.86L17.36,127.61L17.75,168.57L17.83,152.65L18.61,189.3L18.68,186.16L18.76,171.5L19.15,191.6L19.54,187.25L19.62,184.36L19.7,157.34L20.24,186.78L20.32,179.81L20.4,184.55L20.47,191.17L20.63,171.47L21.1,182.84L21.18,171.42L22.03,200.82L22.11,201.07L22.19,201.26L22.27,200.76L22.34,200.88L22.42,203.26L22.81,204.08L22.97,125.14L23.43,148.46L23.51,150.7L23.74,108.15L24.13,140.65L24.21,156.77L24.37,138.27L24.76,180.14L24.83,170.04L24.91,150.85L25.69,190.91L25.77,187.09L25.85,172.8L26.39,174.35L26.55,155.5L26.63,172.36L27.01,189.78L27.09,187.01L27.17,163.55L27.48,180.31L27.71,139.25L28.1,148.97L28.18,170.76L28.73,201.59L28.96,191.5L29.04,187.61L29.12,187.48L29.19,188.06L29.27,191L29.43,192.41L29.51,184.19L29.74,191.52L29.97,173.26L30.13,182.82L30.21,179.11L31.84,131.36L31.92,143.99L32,145.9L32.15,157.5L32.31,144.84L32.7,151.61L32.78,133.09L33.4,158.7L33.55,145.04L33.63,143L34.18,127.4L34.33,147.09L34.41,143.91L34.49,141L34.8,155.88L34.88,153.93L34.96,156.83L35.11,140.68L35.73,178.64L35.97,174.46L36.04,163.84L36.43,164.8L36.59,152.92L36.82,153.28L36.9,157.97L36.98,144.98L37.52,165.99L37.6,162.56L37.68,167.13L37.76,168.31L37.84,165.08L37.91,154.74L38.15,153.13L38.77,173.03L39,170.67L39.08,151.59L39.16,149.1L39.24,160.32L39.31,134.21L39.47,136.47L39.55,111.78L39.94,136.23L40.02,149.96L40.25,137.42L40.79,175.24L40.87,173.45L40.95,175.4L41.03,178.1L41.18,164.57L41.34,176.39L41.42,164.09L41.96,178.43L42.04,176.48L42.12,149.11L42.43,180.51L42.51,180.24L42.58,80.91L42.9,189.61L43.36,184.27L43.44,177.08L43.83,165.65L44.3,200.23L44.45,198.22L44.53,196.54L44.84,198.68L44.92,173.75L45.23,202.5L45.39,130.95L45.54,158.98L45.62,157.52L45.78,168.09L45.93,122.9L46.01,136.37L46.09,110.78L46.94,177.11L47.26,168.89L47.33,158.12L47.41,182.17L47.72,154.56L48.11,180.25L48.19,181.31L48.97,157.32L49.05,177.73L49.51,185.97L49.67,150.54L49.82,171.03L49.9,162.58L49.98,118.88L50.6,162.63L50.68,166.09L51.69,192.12L51.77,192.34L52.94,164.03L53.02,165.13L53.09,164.6L53.25,165.03L53.79,134.47L53.87,143.19L53.95,148.73L54.81,126.22L54.88,138.13L55.12,139.43L55.27,117.89L55.43,139.24L55.51,145.67L55.59,149.76L55.66,137.58L55.9,142.27L55.97,130.29L56.05,142.71L56.75,137.99L56.83,136.15L57.45,155.4L57.53,124.78L58.15,176.64L58.39,171.9L58.47,163.9L58.93,150.88L59.24,156.57L59.32,160.75L59.4,152.19L59.56,167.56L60.02,159.12L60.1,160.98L60.26,163.73L60.33,146.89L60.96,170L61.19,166.55L61.27,168.44L61.35,176.59L61.5,148.41L61.66,154.91L61.74,118.76L61.89,130.21L61.97,109.33L62.05,98.41L62.36,150.42L62.44,131.19L62.51,151.84L62.67,149.55L63.37,184.34L63.45,184.51L63.6,168.45L63.99,188.79L64.07,186.79L64.15,189.28L64.62,152.26L64.93,182.65L65.01,98.11L65.32,192.66L65.78,187.28L65.86,184.29L65.94,184.48L66.02,167.71L66.8,200.89L67.03,199.93L67.11,198.64L67.42,202.07L67.5,180.84L67.65,190.87L68.35,113.34L68.51,125.99L68.59,134.79L69.52,181.48L69.6,172.94L69.68,172.85L70.46,196.65L70.61,193.58L70.69,176.29L70.77,175.9L70.84,171.71L71.31,161.48L71.7,199.83L71.93,194.35L72.01,181.46L72.17,198.46L72.4,160.8L72.63,176.87L72.71,175.07L73.57,205.59L73.65,205.35L73.72,203.68L74.19,204.46L74.43,202.09L74.5,189.86L75.36,199.6L75.44,198.91L75.52,198.87L76.37,191.03L76.45,185.77L76.53,192.37L76.76,168.17L77.07,177.21L77.15,178.52L77.38,175.01L77.54,175.5L77.62,169.69L77.93,189.78L78.4,188.93L78.47,188.75L78.86,190.48L78.94,189.96L79.02,184.38L79.8,195.2L79.88,193.97L80.34,194.97L80.42,188.51L80.65,191.13L80.73,193L80.89,190.98L81.2,195.17L81.51,194.48L81.59,193.22L81.82,192.94L82.37,195.96L82.44,195.02L82.76,193.65L82.83,196.31L82.99,195.47L83.07,195.7L83.92,184.64L84.08,184.9L84.16,166.12L84.31,161.62L84.62,176.69L84.7,178.45L84.86,177.45L84.94,187.98L85.01,190.08L85.32,183.39L85.48,189.94L85.56,183.74L85.95,193.02L86.41,190.97L86.49,187.78L86.8,196.15L86.96,180.82L87.04,185.31L87.12,180.86L87.43,128.21L87.58,191.41L87.66,190.41L87.97,182.62L88.44,201.62L88.52,196.11L88.59,195.31L88.67,199.37L88.83,197.58L88.91,201.03L89.06,196.8L89.22,203.73L89.53,197.27L89.61,201.31L89.92,201.1L90.07,203.99L90.15,203.55L90.23,187.2L91.01,205.67L91.09,205.41L91.16,201.77L91.32,206.36L91.55,206.21L91.63,187.15L91.86,200.5L92.25,172.29L92.33,199.73L93.11,208.76L93.19,208.4L93.73,208.68L94.04,200.99L94.12,191.74L94.2,206.95L94.67,167.03L94.82,183.94L94.9,171.92L95.06,181.02L95.37,145.98L95.45,155.36L95.52,150.53L95.76,170.35L95.91,148.37L96.15,153.93L96.22,152.48L96.61,147.7L98.09,198.34L98.4,193.25L98.48,190.94L98.56,190.62L98.64,185.79L98.71,191.17L99.1,164.35L99.18,176.94L99.26,172.68L99.34,176.9L99.8,161.71L99.88,152.99L100.04,30.42L100.27,174.05L100.35,171.76L100.43,175.49L100.97,167.78L101.13,168.43L101.21,142.98L101.36,163.84L101.52,162.03L101.6,142.4L101.83,183.39L102.37,173.92L102.45,175.41L102.84,173.92L103.46,197.7L103.54,197.63L104.01,194.96L104.24,195.68L104.32,197.68L104.55,199.17L104.71,196.86L105.02,198.18L105.1,197.03L105.49,197.86L105.64,187.57L105.8,197.14L105.88,196.64L106.03,197L106.11,195.3L106.19,195.74L106.27,193.99L106.34,185.71L106.5,187.18L106.58,177.93L107.05,173.83L107.28,190.05L107.36,188.89L107.43,178.13L108.29,197.1L108.37,192.36L108.45,192.17L108.52,192.9L108.6,195.14L108.68,194.58L109.07,197.01L109.15,197.5L109.22,198.42L109.3,193.87L109.38,185.07L109.85,181.84L110.08,198.8L110.16,198.18L110.24,197.23L110.31,186.61L110.94,191.28L111.02,196.05L111.25,183.69L111.64,204.03L112.03,203.53L112.11,202.74L112.65,165.65L112.96,188.51L113.04,189.13L113.12,149.57L113.74,185.18L113.82,175.25L114.05,171.01L114.44,191.22L114.52,175L114.6,173.85L114.83,190.96L114.99,163.11L115.38,187.63L115.45,187.69L115.69,165.22L116.23,179.91L116.31,179.48L116.39,179.01L116.46,186.45L116.7,197.27L116.85,168.89L117.17,176.04L117.24,182.95L117.63,189.74L117.79,162.91L117.94,183.43L118.02,179.3L118.64,199L119.03,193.76L119.11,194.53L121.37,107.19L121.45,116.92L121.53,87.38L122.07,120.46L122.38,118.17L122.46,97.66L122.93,95.1L123.16,122.97L123.24,119.54L123.32,111.68L123.39,83.55L123.94,142.22L124.02,150.28L124.33,138.02L124.41,150.45L124.48,151.59L124.64,156L124.8,148.19L124.87,163.76L125.26,157.25L125.57,171.97L125.65,170.07L125.73,165.19L126.66,140.24L126.74,159.4L126.82,160.53L126.9,153.63L127.05,154.8L127.13,152.12L127.36,160L127.52,153.66L127.6,139.57L128.22,169.41L128.45,165.57L128.53,169.07L128.61,171.43L128.77,155.24L128.92,165.16L129,135.66L129.23,101.16L129.47,137.03L129.54,158.46L130.01,157.1L130.71,187.88L130.79,180.63L131.1,170.48L131.26,184.41L131.49,179.3L131.57,184.13L131.65,186.29L131.72,183.15L131.8,156.39L131.88,157.48L131.96,172.89L132.11,183.56L132.19,177.75L132.27,160.2L132.58,189.54L133.05,181.76L133.13,175.06L133.44,155.48L133.98,197.54L134.06,199L134.37,202.17L134.53,200.97L134.6,180.89L134.68,200.51L135.15,132.73L135.23,142.85L135.46,169.6L135.69,110.28L135.77,106.76L136.16,171.42L136.71,163.24L136.78,166.8L137.02,148.23L137.72,188.11L137.8,185.72L138.11,149.59L138.57,153.02L138.65,177.38L138.73,178.5L138.81,167.36L139.12,188.36L139.2,186.42L139.28,151.62L139.35,153.35L139.43,176.17L139.98,138.59L140.21,138.7L140.29,157.11L140.37,133.44L140.91,172.63L140.99,178.43L141.07,178.64L141.14,180.99L141.46,180.49L141.69,186.72L141.92,184.96L142,181.05L143.01,139.51L143.09,144.13L143.95,103.13L144.1,103.16L144.18,129.79L144.34,141.71L144.49,113.49L144.8,135.3L144.88,121.24L145.19,142.29L145.66,132.92L145.74,137.99L145.81,120.84L146.13,145.82L146.44,145.59L146.52,136.46L147.06,162.19L147.22,133.49L147.37,149.25L147.45,151.7L147.53,154.15L147.61,147.77L147.68,132.61L148.23,158.68L148.46,140.72L148.54,149.5L149.08,149.29L149.16,162.79L149.47,160.41L149.55,158.12L149.71,156.38L149.86,161.46L149.94,160.57L150.02,152.22L150.64,171.21L150.88,170.53L150.95,173.55L151.19,158.67L151.34,167.62L151.42,137.88L151.89,101.65L152.12,141.7L152.2,161.57L152.74,142.69L152.82,145.81L152.9,162.22L153.13,184.94L153.68,170.59L153.76,178.28L153.91,177.18L154.07,184.33L154.14,177.23L154.22,148.81L155,191.17L155.08,183.93L155.16,169.47L155.78,168.6L156.01,187.47L156.09,192.68L156.64,201.46L156.87,201.34L156.95,199.61L157.03,198.85L157.1,202.22L157.18,180.3L157.26,178.97L157.34,191.02L157.49,123.44L157.73,155.12L157.8,161.3L158.12,113.05L158.5,138.71L158.58,163.05L158.66,166.36L158.74,154.19L158.82,159.54L158.89,142.91L159.75,183.58L159.83,161.62L159.98,172.14L160.06,176.95L160.3,183.15L160.37,165.3L160.45,165.7L160.53,151.41L161.46,190.03L161.54,189.16L161.62,191.04L161.7,163.69L161.85,188.95L162.16,144.46L162.32,154.62L162.4,142.71L163.33,194.07L163.41,197.43L164.03,186.73L164.19,193.24L164.27,192.42L165.9,136.23L165.98,147.5L166.21,158.34L166.29,153.36L166.37,144.28L166.45,134.66L166.76,150.76L167.07,140.04L167.15,145.52L167.3,136.92L167.38,150L167.92,154.38L168.24,134.22L168.31,139.02L168.7,138.65L169.33,155.14L169.4,155L169.48,149.85L169.64,125.58L170.26,175.34L170.49,171.02L170.57,157.21L170.73,167.39L171.19,156.98L171.27,157.76L171.35,156.38L171.43,155.61L171.51,140.45L172.21,165.82L172.28,161.95L172.36,166.31L172.44,152.21L172.98,172.07L173.06,171.65L173.14,169.83L173.22,172.92L173.45,169.26L173.53,170.24L173.61,150.68L173.76,160.79L173.84,140.91L174.15,110.46L174.46,146.36L174.54,148.72L175.55,184.98L175.63,181.44L175.71,170.71L176.25,182.57L176.33,178.93L176.41,179.87L176.49,182.23L176.57,180.86L176.64,140.54L177.42,191.84L177.5,184.63L177.58,170.81L178.12,191.48L178.2,190.99L178.28,174.18L178.43,161.38L178.51,186.56L178.59,198.79L178.75,192.38L178.98,203L179.21,200.74L179.29,201.29L179.45,199.08L179.52,201.87L179.76,202.98L180.38,105.36L180.46,121.73L180.54,126.64L180.61,119.04L180.93,143.7L181,167.45L181.24,168.93L181.31,157.38L181.39,158.87L181.47,174.44L181.86,152.82L182.09,182.69L182.17,180.71L182.25,150.38L182.64,191.86L183.03,168.8L183.11,169.09L183.49,149.32L183.57,176.21L183.65,166.88L183.73,184.13L183.96,190.85L184.04,187.6L184.12,158.64L184.27,181.43L184.58,143.15L184.74,154.47L184.82,142.28L185.83,197.88L185.91,196.18L185.99,195.82L187.39,156.08L187.54,157.5L187.62,157.46L188.79,115.8L188.87,130.13L188.94,135.27L189.18,151.15L189.41,131.34L189.64,139.89L189.72,122.15L190.11,150.09L190.5,142.66L190.58,146.85L190.81,147.78L191.12,132.35L191.2,147.75L191.28,153.27L191.82,162.91L191.98,160.02L192.06,144.37L192.21,166.03L192.91,161.67L192.99,158.41L193.15,161.69L193.23,153.24L193.38,155.31L193.46,143.22L193.93,131.24L194.16,160.36L194.32,154.98L194.39,157.93L194.86,141.61L195.02,160.22L195.17,146.37L195.25,159.88L195.33,155.51L195.48,173.33L195.8,169.43L195.87,177.26L196.73,135.57L196.81,150.66L196.88,156.16L197.2,147.25L197.97,187.4L198.05,183.2L198.13,170.13L198.52,186.46L198.91,182.04L198.99,180.85L199.14,145.95L199.69,175.56L199.77,184.16L199.84,187.63L200,164.47L200.23,180.81L200.31,167.49L200.7,153.78L201.24,200.87L201.32,203.29L201.63,203.22L201.71,201.8L201.79,202.47L201.87,199.74L201.95,195.81L203.04,112.14L203.11,126.27L203.19,124.76L203.27,145.28L203.74,141.1L204.05,175.93L204.2,167.72L204.28,155.15L204.59,195.54L205.06,185.8L205.14,185.94L205.92,150.57L205.99,161.2L206.07,161.09L206.3,181.04L206.46,179.71L206.54,140.63L206.85,184.57L207.08,117.57L207.16,132.05L207.24,126.45L208.25,196.84L208.33,193.29L208.87,176.63L209.11,180.71L209.19,186.47L210.12,153.25L210.2,157.13L211.29,113.4L211.37,118.43L211.44,144.02L211.75,129.66L212.14,132.68L212.22,148.51L212.46,153.76L212.53,152.31L212.61,142.52L212.77,130.42L212.92,144.12L213,144.66L213.31,146.76L213.55,112.19L213.7,142.79L213.78,146.78L214.09,162.32L214.4,159.55L214.48,140.27L214.56,141.62L214.63,138.01L214.71,155.71L214.87,158.77L215.18,144.1L215.26,166.87L215.34,168.96L215.57,160.97L215.88,164.81L215.96,159.06L216.35,143.81L216.66,162.45L216.74,163.18L217.2,167L217.28,159.33L217.44,162.17L217.52,152.52L218.37,175.7L218.45,162.86L218.53,166.65L218.61,157.86L218.68,132.65L219.54,163.71L219.62,143.8L220.32,184.4L220.55,178.12L220.63,186.66L220.71,187.26L220.79,134.53L221.1,181.25L221.49,122.3L221.64,165.66L221.72,155.61L222.42,149.82L222.58,181.1L222.65,168.78L222.73,161.74L222.97,182.15L223.2,170.52L223.28,180.47L223.98,201.63L224.21,201.14L224.29,188.05L224.37,194.52L224.44,164.09L224.68,185.26L224.76,137.31L225.07,173.22L225.3,101.43L225.38,102.19L225.46,117.36L226.08,169.53L226.31,156.45L226.39,155.09L226.55,145.07L226.86,174.07L226.94,182.88L227.09,170.35L227.32,184.65L227.4,189.03L227.56,186.06L227.64,167.51L227.71,165.64L227.87,175.65L228.1,169.11L228.18,173.32L228.49,145.36L228.57,186.35L228.96,177.52L229.35,195.58L229.43,181.8L229.5,136.82L230.13,184.73L230.21,193.59L231.06,205.41L231.22,205.03L231.3,204.55L231.37,204.02L231.45,197.24L232.31,176.21L232.38,175.38L232.77,182.7L233.09,180.25L233.16,175.91L233.47,182.04L233.71,164.57L233.79,166.78L233.86,157.07L234.41,176.87L234.56,157.23L234.64,169.2L235.11,174.82L235.34,174.29L235.42,160.15L235.65,168.49L235.81,116.7L236.28,143.3L236.36,141.95L237.21,191.64L237.29,189.5L237.37,183.68L238.15,200.32L238.38,199.59L238.46,198.87L238.77,197.32L239.31,201.01L239.39,200.62L239.47,201.25L240.09,199.08L240.17,196.76L240.48,200.32L240.95,199.09L241.03,197.94L241.18,190.46L241.73,196.24L241.8,197.29L242.66,200.81L242.74,201.22L243.75,203.79L243.83,200.91L244.69,204.76L244.76,202.95L245,204.2L245.07,200.4L245.15,183.61L245.93,207.24L246.24,205.81L246.32,195.03L247.18,208.4L247.25,208.23L247.33,208.23L247.41,207.94L247.88,209L247.96,192.37L248.03,184.84L248.34,207.07L248.5,206.94L248.58,206.55L249.05,207.09L249.28,204.11L249.36,167.18L249.75,167.64L250.21,134.17L250.29,134.34L250.68,156.99L250.76,131.82L251.15,142.62L251.22,140.39L251.46,115L251.54,140.65L251.69,131.75L251.85,154.83L251.93,159.95L252.94,199.24L253.17,197.81L253.25,197.57L253.48,197.65L253.56,197.09L253.64,200.8L253.72,201.3L253.95,200.32L254.03,189.3L254.34,193.47L254.42,185.8L254.49,180.56L254.88,186.11L255.04,178.51L255.12,177.85L255.51,197.37L256.05,194.55L256.13,179.42L256.29,199.18L256.83,172.43L256.91,183.18L257.61,201.61L257.69,201.23L257.76,194.87L258.31,200.77L258.54,198.98L258.62,199.93L258.7,196.66L259.32,201.04L259.4,200.75L259.48,200.91L259.55,200.47L259.63,193.97L260.18,200.86L260.41,200L260.49,196.13L260.57,192.14L260.96,201.85L261.11,200.46L261.19,200.78L261.5,185.92L262.05,192.89L262.12,198.61L262.28,200.93L262.36,199.45L262.44,191.26L263.06,201.29L263.29,200.7L263.37,192.32L264.23,201L264.3,200.46L264.38,197.72L264.85,204.37L265,201.28L265.08,200.65L265.24,194.67L265.78,205.28L265.86,203.12L265.94,200.52L266.17,198.24L266.56,205.9L266.87,205.56L266.95,205.85L267.03,205.35L267.11,194.7L267.5,205.69L267.81,188.56L267.88,195.05L268.04,191.77L268.12,172.67L268.9,200.76L268.97,188.08L269.05,189.06L269.36,194.51L269.52,179.3L269.6,186.68L269.68,195.38L269.83,196.95L269.91,180.61L270.22,194.4L270.3,196.5L270.61,172.96L270.77,178.31L270.84,193.85L271.15,183.17L271.7,202.53L271.78,197.17L272.09,194.23L272.17,197.14L272.24,186.04L272.48,180.48L272.87,195.44L273.02,190.61L273.1,191.71L273.41,192.14L274.35,180.49L274.42,184.12L275.44,146.16L275.51,134.84L275.98,107.83L276.29,117.26L276.37,125.52L276.45,92.24L276.84,127.62L277.07,115.95L277.15,116.93L277.38,113.44L278.16,148.62L278.24,148.07L278.32,127.48L279.64,166.77L279.72,163.55L280.11,171.69L280.42,163.33L280.5,164.82L281.59,135.4L281.66,144.82L282.05,144.22L282.44,156.33L282.52,146.27L282.6,145.34L282.68,151.19L282.75,147.56L282.83,159.75L283.07,162.43L283.69,132.23L283.77,138.64L283.84,149.77L284.16,117.81L284.47,145.05L284.55,142.72L285.4,175.63L285.48,170.48L285.56,171.39L285.64,176.44L285.79,143.87L285.87,139.79L286.18,134.36L286.57,172.03L286.65,164.9L286.72,144.88L286.96,137.93L287.58,176.19L287.66,161.19L287.97,155.93L288.2,184.09L288.28,175.52L288.36,139.96L289.22,200.29L289.29,200.42L289.37,202.74L289.53,186.72L289.68,199.3L289.76,189.74L289.84,199.62L289.99,146.76L290.07,110.05L290.77,108.87L290.85,153.01L290.93,154.02L291.16,138.87L291.32,164.67L291.55,164.18L291.63,164L291.71,167.14L291.86,163.78L291.94,135.68L292.25,167.4L292.33,127.95L292.72,164.56L292.8,164.74L293.73,116.94L293.81,147L294.28,140.55L294.59,180.92L294.67,171.15L294.74,173.87L295.6,155.85L295.68,196.85L295.76,197.95L295.99,192.19L296.07,194.76L296.14,181.3L297,158.58L297.08,165.81L297.16,166.11L297.78,146.7L297.86,153.18L297.94,142.37L298.4,120.95L298.71,131.4L298.79,135.6L299.03,116.19L299.57,119.33L299.65,116.92L299.8,110.06L300.19,132.69L300.27,103.94L300.97,139.66L301.13,136.7L301.21,132.08L301.44,131.43L302.22,164.43L302.3,164.22L302.37,160.87L303,137.67L303.15,146.48L303.23,149.23L303.54,127.12L304.01,133.93L304.09,147.63L304.32,148.17L304.4,145.5L304.47,144.82L304.63,161.15L305.25,152.44L305.33,153L305.41,152.67L305.49,164.14L305.72,159.64L306.03,172.46L306.11,154L306.19,157.96L306.34,129.05L306.5,143.21L306.58,127.74L306.65,126.37L306.81,134.62L306.89,144.67L307.12,122.47L307.51,153.22L307.59,161.99L307.74,166.59L307.9,142L307.98,140.56L308.21,134.08L308.83,159.53L308.91,158.44L309.07,165.56L309.15,128.8L309.38,128.3L309.92,167.21L310,165.94L310.08,145.65L311.09,190.05L311.17,191.09L311.25,190.54L311.33,198.41L311.56,201.38L311.64,201.11L311.72,196.68L311.79,201.71L312.18,176.91L312.34,191.03L312.42,123.01L312.49,123.79L312.57,160.06L312.73,173.68L312.8,161.39L312.88,135.14L313.04,115.22L313.19,151.88L313.43,148.36L313.51,167.95L313.89,125.44L314.28,148.49L314.36,151.45L314.75,137.43L315.14,174.89L315.22,162.76L315.3,165.75L315.45,151.89L315.61,158.72L315.69,148.68L316,161.15L316.15,153.57L316.23,146.69L316.31,176.99L316.62,146.23L317.01,173.41L317.09,175.02L317.55,148.14L317.94,151.46L318.02,160.19L318.18,195L318.72,162.36L318.8,166.21L318.96,163.05L319.27,178.38L319.58,173.99L319.66,170.83L320.82,123.65L320.9,138.17L320.98,146.6L321.21,147.05L321.99,123.46L322.07,124.6L322.15,129.86L322.22,126.13L322.61,142.28L322.69,135.77L322.77,141.61L323,145.71L323.08,140.84L323.16,136.02L323.24,134.53L323.39,143.05L323.47,146.56L323.63,125.59L324.09,149.11L324.17,147.52L324.25,155.68L324.33,147.55L324.64,167.26L324.87,159.12L324.95,168.82L325.34,169.83L325.81,153.35L325.88,153.91L326.27,155.43L326.43,146.16L326.51,151.3L326.58,157.69L327.44,144.61L327.52,152.09L327.6,152.23L327.67,151.73L327.75,159.43L327.83,152.7L328.38,166.18L328.45,165.27L329,122.02L329.23,133.91L329.31,139.33L329.7,138.6L330.24,176.05L330.4,173L330.48,175.51L330.63,161.82L331.02,176.77L331.18,173.76L331.26,178.64L331.49,175.81L331.57,153.38L332.19,182.07L332.42,174.77L332.5,155.47L332.97,119.02L333.05,183.07L333.36,180.05L333.44,178.48L334.21,201.54L334.37,201.14L334.45,201.93L334.68,203.92L335.38,103.75L335.46,131.74L335.54,130.61L335.62,121.75L335.85,160.72L336.08,152.81L336.16,167.7L336.55,186.93L336.71,147.21L336.86,161.1L336.94,169.58L337.09,177.32L337.17,154.87L337.48,188.17L338.03,171.5L338.11,155.59L338.89,194.91L338.96,193.52L339.04,166.07L339.2,186.93L339.51,150.61L339.66,160.82L339.74,150.04L340.83,197.58L340.91,191.78L340.99,188.1L341.3,194.39L341.69,189.9L341.77,187.13L342.7,162.34L342.78,158.66L342.93,163.65L343.17,145.2L343.24,140.14L343.48,160.8L344.1,158.42L344.18,149.47L344.49,160.05L344.72,137.45L344.96,156.52L345.04,158.53L345.58,138.07L345.81,139.74L345.89,144.34L345.97,128.03L346.44,157.41L346.51,157.1L346.59,161.82L346.9,164.81L346.98,155.91L347.14,164.28L347.22,164.38L347.29,165.1L347.37,178.44L347.6,180L348.15,154.87L348.38,161.74L348.46,160.67L348.54,160.91L348.62,160.01L348.69,167.99L348.85,155.02L349.39,165.93L349.47,165.67L349.55,167.94L349.78,154.9L349.86,160.41L349.94,156.54L350.87,180.03L350.95,159.96L351.03,165.38L351.26,139.71L351.34,141.9L351.42,116.07L352.43,177.37L352.51,175.08L352.59,176.29L352.66,157.73L353.21,178.64L353.29,167.83L353.37,171.75L353.83,183.35L353.91,181.28L353.99,159.77L354.3,182.84L354.38,179.3L354.46,158.16L355.16,198.55L355.31,196.29L355.39,198.08L356.17,203.71L356.25,192.09L356.32,162.69L356.64,199.81L357.02,175.48L357.1,189.25L357.18,187.55L357.26,136.31L357.57,162.41L357.88,117.12L357.96,121.21L358.04,140.82L358.66,128.91L358.81,172.8L358.89,168.96L358.97,160.86L359.2,152.38L359.75,183.83L359.83,182.68L359.9,191.44L360.29,158.45L360.45,174.92L360.53,164.97L361.31,197.52L361.38,193.92L361.46,174.27L361.62,190.28L361.93,142.67L362.08,163.67L362.16,146.62L363.25,198.11L363.72,197.9L363.8,194.93L365.59,161.44L365.67,146.45L365.98,160.7L366.21,134L366.29,133.67L366.6,131.11L366.99,144.87L367.07,129.31L367.61,158.48L367.92,152.48L368,148.35L368.39,132.57L368.47,119.63L368.55,119.91L368.62,137.75L368.7,137.43L368.78,140.44L369.32,163.62L369.4,139.53L369.64,160.3L369.71,145.69L370.03,176.24L370.49,164.04L370.57,161.66L370.65,161.4L370.73,166.21L370.8,154.99L371.04,167.34L371.43,164.72L371.5,165.51L371.58,170.69L371.74,158.46L372.13,169.01L372.21,161.97L372.83,175.63L373.06,167.69L373.14,165.66L373.3,167.48L373.37,155.8L373.53,166.51L373.92,142.58L374,146.15L375.09,177.39L375.16,177.21L375.24,171.85L375.47,168.14L375.94,179.21L376.02,176.99L376.1,178.58L376.18,184.53L376.49,156.66L376.56,173.25L376.64,158.75L377.5,191.95L377.58,191.63L378.12,195.01L378.28,176.61L378.36,196.09L378.51,184.05L378.67,202.39L378.98,201.07L379.06,201.27L380.46,122.76L380.54,143.22L381.39,188.16L381.47,187.57L381.55,176.07L381.94,196.06L382.09,195.03L382.17,197.22L382.48,203.71L383.18,170.57L383.26,193.23L383.73,201.38L383.88,185.62L384.04,200.22L384.12,180.44L384.35,178.85L384.51,184.91L384.58,181.77L384.66,188.4L385.44,206.18L385.6,205.57L385.67,204.18L386.06,204.8L386.37,201.86L386.45,203.58L386.53,204.89L387.46,195.79L387.54,200.8L387.62,201.53L388.24,202.73L388.63,198.43L388.71,200.91L388.79,201.59L388.87,195.65L389.72,202.51L389.8,201.7L390.27,201.04L390.34,203.17L390.58,202.89L390.66,202.57L390.89,203.12L391.12,201.24L391.2,198.85L391.28,203.22L391.98,202.22L392.06,202.46L392.37,200.07L392.52,201.56L392.6,188.99L392.68,184.1L392.91,192.77L393.22,186.85L393.3,193.05L394.08,202.14L394.16,202.31L394.31,200.45L394.39,195.91L394.47,195.6L394.55,199.99L394.86,201.81L394.94,198.8L395.02,198.26L395.48,197.05L395.72,203.32L395.79,202.98L395.87,193.96L396.18,204.68L396.49,189.35L396.65,199.83L396.73,200.01L397.27,199.68L397.82,205.45L397.9,205.39L398.36,205.09L398.44,206.86L398.6,205.1L398.67,188.68L399.45,206.88L399.69,205.27L399.76,205.97L399.92,206.94L400,206.58L400.08,203.54L400.23,199.77L400.31,181.11L401.09,206.28L401.32,205.96L401.4,206.43L401.56,206.52L401.71,204.9L402.18,205.85L402.26,206.43L402.49,206.2L402.57,206.43L402.64,205.1L402.72,206.43L402.8,195.42L402.88,187.61L403.73,146.01L403.81,138.43L404.12,164.73L404.59,157.98L404.67,158.72L404.75,157.24L404.9,164.93L404.98,157.57L405.06,172.64L405.21,155.06L405.53,171.13L405.6,173.16L406.15,186.49L406.23,198.1L406.3,198.28L406.38,196.73L406.46,197.17L406.54,194.96L406.85,195.94L406.93,195.67L407,193.77L407.39,195.82L407.78,178.29L408.02,186.46L408.09,187.14L408.17,188.87L408.33,176.52L408.41,174.76L408.48,171.25L408.87,178.68L409.03,177.63L409.11,188.75L409.26,191.02L409.42,187.79L409.5,190.26L409.57,178.14L409.65,162.76L410.04,192.21L410.35,165.78L410.43,174.29L410.9,197.57L411.21,191.5L411.29,168.28L411.99,197.03L412.06,196.67L412.14,193.31L412.22,189.66L412.53,195.32L412.77,194.39L412.84,196.14L413,197.49L413.15,195.23L413.47,196.75L413.54,193.93L413.86,196.14L414.01,187.28L414.32,191.77L414.4,192.69L414.63,192.91L414.95,186.9L415.02,175.41L415.18,172.13L415.41,183.41L415.57,181.97L415.65,182.11L416.58,192.02L416.66,190.49L416.74,191.79L416.81,188.63L416.89,176.39L417.59,194.05L417.75,190.77L417.83,181.87L417.9,182.7L417.98,180.67L418.06,175.13L418.6,190.93L418.84,181.17L418.92,189.5L419.38,188.82L419.77,196.06L419.85,192.47L419.93,177.02L420.32,201.7L420.55,201.09L420.63,191.49L420.78,202.26L421.56,142.13L421.64,147.92L421.72,163.44L421.8,154.03L422.26,183.35L422.34,188.09L422.42,189.42L422.5,171.68L422.89,193.82L423.04,171.61L423.35,184.7L423.43,164.49L423.82,187.93L424.05,170.15L424.13,169.22L424.52,190.6L424.6,181.51L424.68,163.43L425.07,192.66L425.46,184.02L425.53,175.41L425.69,186.56L425.77,172.98L425.92,162.23L426.47,185.85L426.62,180.15L426.7,173.26L427.01,188.84L427.48,184.26L427.56,181.92L427.64,181.53L427.71,183.72L427.79,183.69L427.87,184.38L428.72,104.32L428.88,109.53L428.96,67.33L429.04,11L429.66,91.81L429.74,73.51L429.81,71.37L429.89,90.5L429.97,61.26L430.13,35.04L430.28,39.74L430.36,90.85L430.59,55.55L430.98,106.89L431.06,116.42L431.14,114.15L431.22,66.68L431.76,130.81L432.07,124.09L432.15,125.49L432.31,120.23L432.38,135.14L432.46,139.94L432.62,131.63L433.01,152.99L433.08,151.57L433.16,157.18L433.24,143.67L433.63,160.86L433.86,159.85L433.94,157.02L434.02,160.68L434.33,142.62L434.41,143.21L434.56,149.23L434.72,137.51L435.03,143.54L435.11,131.98L435.5,152.65L435.89,148L435.97,149.04L436.28,141.89L436.59,155.85L436.67,152.91L436.74,148.5L436.82,147.56L436.98,152.35L437.06,154.18L437.68,123.66L437.91,124.49L437.99,138.08L438.07,133.84L438.3,148.42L438.61,142.25L438.69,147.68L439.62,165.12L439.7,158.89L440.09,171.27L440.25,142.25L440.4,158.48L440.48,143.08L441.34,179.17L441.41,177.67L441.88,165.58L442.04,181.28L442.12,178.79L442.19,188.03L442.89,198.06L442.97,196.51L443.05,181.34L443.28,195.96L443.44,162.46L443.52,112.47L443.83,156.91L444.06,96.36L444.37,137.45L444.45,151.19L445.31,183.62L445.39,158.33L445.46,153.68L445.7,178.41L445.77,183.83L446.16,186.85L446.55,158.71L446.63,166.86L446.71,166.99L446.79,157.83L447.56,191.39L447.64,187.04L447.72,159.81L448.03,172.84L448.42,146.29L448.5,168.56L448.81,156.98L449.36,192.59L449.43,184.12L449.59,184.58L450.52,170.02L450.76,170.83L450.83,165.56L450.91,166.67L450.99,159.27L451.07,160.08L451.15,153.49L451.69,138.02L451.77,143.86L451.85,133.76L452,139.9L452.39,120.66L452.55,126.51L452.63,137.23L452.7,138.33L452.78,135.65L452.86,122.32L453.25,142.5L453.72,134.93L453.79,135.43L454.49,136.7L454.57,128.57L454.65,136.28L454.73,127.16L455.35,139.13L455.43,140.38L455.66,135.28L455.82,151.95L456.13,139.85L456.21,134.92L456.75,151.63L457.06,145.51L457.14,150.55L457.22,151.13L457.3,144.57L457.45,146.81L457.53,134.29L458.31,160.56L458.39,155.25L458.46,146.71L459.55,170.5L459.63,142.15L459.71,152.44L459.87,116.24L460.25,131.69L460.33,132.17L461.19,158.4L461.27,146.84L462.12,181.6L462.2,176.68L462.43,177.89L462.51,181.55L462.59,185.12L462.67,148.21L463.52,183.03L463.6,159.53L464.15,190.83L464.22,187.7L464.3,150.7L464.93,199.77L465.16,199.57L465.24,199L465.39,200.34L465.7,172.77L465.78,195.96L465.86,202.49L465.94,156.45L466.02,125.58L466.25,166.12L466.48,112.55L466.79,141.98L466.87,152.09L466.95,152.39L467.03,170.55L467.34,149.11L467.65,178.93L467.73,184.78L467.88,159.15L468.51,176.34L468.58,182.69L468.66,187.21L468.97,166.76L469.13,176.9L469.21,169.23L469.44,161.19L470.06,195.03L470.14,164.7L470.3,173.03L470.38,157.5L470.53,166.82L470.61,146.14L470.84,143.6L471.23,183.46L471.47,174.98L471.54,163.88L472.4,188.15L472.48,184.57L472.87,186.39L472.94,173.55L473.1,175.77" style="vector-effect: none; fill: none; stroke: rgb(239, 85, 59); stroke-opacity: 1; stroke-width: 2px; opacity: 1;"/></g><g class="points"/><g class="text"/></g></g></g><g class="overplot"/><path class="xlines-above crisp" d="M0,0" style="fill: none;"/><path class="ylines-above crisp" d="M0,0" style="fill: none;"/><g class="overlines-above"/><g class="xaxislayer-above"><g class="x2tick"><text text-anchor="middle" x="0" y="333" transform="translate(602.9,0)" style="font-family: 'Open Sans', verdana, arial, sans-serif; font-size: 12px; fill: rgb(42, 63, 95); fill-opacity: 1; white-space: pre; opacity: 1;">0</text></g><g class="x2tick"><text text-anchor="middle" x="0" y="333" style="font-family: 'Open Sans', verdana, arial, sans-serif; font-size: 12px; fill: rgb(42, 63, 95); fill-opacity: 1; white-space: pre; opacity: 1;" transform="translate(680.75,0)">1000</text></g><g class="x2tick"><text text-anchor="middle" x="0" y="333" style="font-family: 'Open Sans', verdana, arial, sans-serif; font-size: 12px; fill: rgb(42, 63, 95); fill-opacity: 1; white-space: pre; opacity: 1;" transform="translate(758.5999999999999,0)">2000</text></g><g class="x2tick"><text text-anchor="middle" x="0" y="333" style="font-family: 'Open Sans', verdana, arial, sans-serif; font-size: 12px; fill: rgb(42, 63, 95); fill-opacity: 1; white-space: pre; opacity: 1;" transform="translate(836.45,0)">3000</text></g><g class="x2tick"><text text-anchor="middle" x="0" y="333" style="font-family: 'Open Sans', verdana, arial, sans-serif; font-size: 12px; fill: rgb(42, 63, 95); fill-opacity: 1; white-space: pre; opacity: 1;" transform="translate(914.3,0)">4000</text></g><g class="x2tick"><text text-anchor="middle" x="0" y="333" style="font-family: 'Open Sans', verdana, arial, sans-serif; font-size: 12px; fill: rgb(42, 63, 95); fill-opacity: 1; white-space: pre; opacity: 1;" transform="translate(992.15,0)">5000</text></g><g class="x2tick"><text text-anchor="middle" x="0" y="333" style="font-family: 'Open Sans', verdana, arial, sans-serif; font-size: 12px; fill: rgb(42, 63, 95); fill-opacity: 1; white-space: pre; opacity: 1;" transform="translate(1070.01,0)">6000</text></g></g><g class="yaxislayer-above"><g class="y2tick"><text text-anchor="end" x="601.9" y="4.199999999999999" transform="translate(0,309.65)" style="font-family: 'Open Sans', verdana, arial, sans-serif; font-size: 12px; fill: rgb(42, 63, 95); fill-opacity: 1; white-space: pre; opacity: 1;">0</text></g><g class="y2tick"><text text-anchor="end" x="601.9" y="4.199999999999999" style="font-family: 'Open Sans', verdana, arial, sans-serif; font-size: 12px; fill: rgb(42, 63, 95); fill-opacity: 1; white-space: pre; opacity: 1;" transform="translate(0,228.84)">5k</text></g><g class="y2tick"><text text-anchor="end" x="601.9" y="4.199999999999999" style="font-family: 'Open Sans', verdana, arial, sans-serif; font-size: 12px; fill: rgb(42, 63, 95); fill-opacity: 1; white-space: pre; opacity: 1;" transform="translate(0,148.04)">10k</text></g></g><g class="overaxes-above"/></g></g><g class="polarlayer"/><g class="smithlayer"/><g class="ternarylayer"/><g class="geolayer"/><g class="funnelarealayer"/><g class="pielayer"/><g class="iciclelayer"/><g class="treemaplayer"/><g class="sunburstlayer"/><g class="glimages"/><defs id="topdefs-e8ade0"><g class="clips"/><clipPath id="legende8ade0"><rect width="92" height="48" x="0" y="0"/></clipPath></defs><g class="layer-above"><g class="imagelayer"/><g class="shapelayer"/></g><g class="infolayer"><g class="legend" pointer-events="all" transform="translate(1095.92,100)"><rect class="bg" shape-rendering="crispEdges" style="stroke: rgb(68, 68, 68); stroke-opacity: 1; fill: rgb(255, 255, 255); fill-opacity: 1; stroke-width: 0px;" width="92" height="48" x="0" y="0"/><g class="scrollbox" transform="" clip-path="url(#legende8ade0)"><g class="groups"><g class="traces" transform="translate(0,14.5)" style="opacity: 1;"><text class="legendtext" text-anchor="start" x="40" y="4.680000000000001" style="font-family: 'Open Sans', verdana, arial, sans-serif; font-size: 12px; fill: rgb(42, 63, 95); fill-opacity: 1; white-space: pre;">res</text><g class="layers" style="opacity: 1;"><g class="legendfill"/><g class="legendlines"><path class="js-line" d="M5,0h30" style="fill: none; stroke: rgb(99, 110, 250); stroke-opacity: 1; stroke-width: 2px;"/></g><g class="legendsymbols"><g class="legendpoints"/></g></g><rect class="legendtoggle" x="0" y="-9.5" width="86.171875" height="19" style="fill: rgb(0, 0, 0); fill-opacity: 0;"/></g><g class="traces" transform="translate(0,33.5)" style="opacity: 1;"><text class="legendtext" text-anchor="start" x="40" y="4.680000000000001" style="font-family: 'Open Sans', verdana, arial, sans-serif; font-size: 12px; fill: rgb(42, 63, 95); fill-opacity: 1; white-space: pre;">db time</text><g class="layers" style="opacity: 1;"><g class="legendfill"/><g class="legendlines"><path class="js-line" d="M5,0h30" style="fill: none; stroke: rgb(239, 85, 59); stroke-opacity: 1; stroke-width: 2px;"/></g><g class="legendsymbols"><g class="legendpoints"/></g></g><rect class="legendtoggle" x="0" y="-9.5" width="86.171875" height="19" style="fill: rgb(0, 0, 0); fill-opacity: 0;"/></g></g></g><rect class="scrollbar" rx="20" ry="3" width="0" height="0" style="fill: rgb(128, 139, 164); fill-opacity: 1;" x="0" y="0"/></g><g class="g-gtitle"/><g class="g-xtitle"/><g class="g-x2title"/><g class="g-ytitle"/><g class="g-y2title"/></g></svg>