<svg class="main-svg" xmlns="http://www.w3.org/2000/svg" xmlns:xlink="http://www.w3.org/1999/xlink" width="1200" height="400" style="" viewBox="0 0 1200 400"><rect x="0" y="0" width="1200" height="400" style="fill: rgb(255, 255, 255); fill-opacity: 1;"/><defs id="defs-983610"><g class="clips"><clipPath id="clip983610xyplot" class="plotclip"><rect width="473.09999999999997" height="220"/></clipPath><clipPath id="clip983610x2y2plot" class="plotclip"><rect width="473.09999999999997" height="220"/></clipPath><clipPath class="axesclip" id="clip983610x"><rect x="80" y="0" width="473.09999999999997" height="400"/></clipPath><clipPath class="axesclip" id="clip983610y"><rect x="0" y="100" width="1200" height="220"/></clipPath><clipPath class="axesclip" id="clip983610xy"><rect x="80" y="100" width="473.09999999999997" height="220"/></clipPath><clipPath class="axesclip" id="clip983610y2"><rect x="0" y="100" width="1200" height="220"/></clipPath><clipPath class="axesclip" id="clip983610xy2"><rect x="80" y="100" width="473.09999999999997" height="220"/></clipPath><clipPath class="axesclip" id="clip983610x2"><rect x="602.9" y="0" width="473.09999999999997" height="400"/></clipPath><clipPath class="axesclip" id="clip983610x2y"><rect x="602.9" y="100" width="473.09999999999997" height="220"/></clipPath><clipPath class="axesclip" id="clip983610x2y2"><rect x="602.9" y="100" width="473.09999999999997" height="220"/></clipPath></g><g class="gradients"/><g class="patterns"/></defs><g class="bglayer"><rect class="bg" x="80" y="100" width="473.09999999999997" height="220" style="fill: rgb(229, 236, 246); fill-opacity: 1; stroke-width: 0;"/><rect class="bg" x="602.9" y="100" width="473.09999999999997" height="220" style="fill: rgb(229, 236, 246); fill-opacity: 1; stroke-width: 0;"/></g><g class="layer-below"><g class="imagelayer"/><g class="shapelayer"/></g><g class="cartesianlayer"><g class="subplot xy"><g class="layer-subplot"><g class="shapelayer"/><g class="imagelayer"/></g><g class="minor-gridlayer"><g class="x"/><g class="y"/></g><g class="gridlayer"><g class="x"><path class="xgrid crisp" transform="translate(167.99,0)" d="M0,100v220" style="stroke: rgb(255, 255, 255); stroke-opacity: 1; stroke-width: 1px;"/><path class="xgrid crisp" transform="translate(323.45,0)" d="M0,100v220" style="stroke: rgb(255, 255, 255); stroke-opacity: 1; stroke-width: 1px;"/><path class="xgrid crisp" transform="translate(478.92,0)" d="M0,100v220" style="stroke: rgb(255, 255, 255); stroke-opacity: 1; stroke-width: 1px;"/></g><g class="y"><path class="ygrid crisp" transform="translate(0,256.73)" d="M80,0h473.09999999999997" style="stroke: rgb(255, 255, 255); stroke-opacity: 1; stroke-width: 1px;"/><path class="ygrid crisp" transform="translate(0,201.05)" d="M80,0h473.09999999999997" style="stroke: rgb(255, 255, 255); stroke-opacity: 1; stroke-width: 1px;"/><path class="ygrid crisp" transform="translate(0,145.38)" d="M80,0h473.09999999999997" style="stroke: rgb(255, 255, 255); stroke-opacity: 1; stroke-width: 1px;"/></g></g><g class="zerolinelayer"><path class="yzl zl crisp" transform="translate(0,312.4)" d="M80,0h473.09999999999997" style="stroke: rgb(255, 255, 255); stroke-opacity: 1; stroke-width: 2px;"/></g><path class="xlines-below"/><path class="ylines-below"/><g class="overlines-below"/><g class="xaxislayer-below"/><g class="yaxislayer-below"/><g class="overaxes-below"/><g class="plot" transform="translate(80,100)" clip-path="url(#clip983610xyplot)"><g class="scatterlayer mlayer"><g class="trace scatter tracedb38b1" style="stroke-miterlimit: 2; opacity: 1;"><g class="fills"/><g class="errorbars"/><g class="lines"><path class="js-line" d="M0,127.5L0.62,148.23L0.85,136.6L0.93,133.69L1.23,137.84L1.47,116.07L1.7,128.34L1.77,131.95L2.93,161.97L3.01,163.96L3.32,167.08L3.39,168.79L3.55,170.5L4.01,168.31L4.09,167.08L4.47,168.52L4.94,163.24L5.01,164.94L5.09,166.6L5.4,158.88L5.48,158.13L5.71,154.28L5.78,156.46L5.86,157.58L6.17,154.83L6.32,157.26L6.4,159.62L8.25,205.08L8.33,205.01L8.41,205.57L9.02,204.8L9.1,204.74L9.25,204.98L9.41,204.07L9.64,204.27L9.72,204.29L9.79,204.04L10.1,205.01L10.26,204.84L10.33,205.4L10.49,204.26L10.95,205.23L11.03,205.44L11.49,206.54L11.72,206.24L11.8,205.26L12.57,196.98L12.72,198.16L12.8,199.52L13.5,206.37L13.8,203.8L13.88,203.37L14.42,199.55L14.96,200.63L15.04,200.54L16.27,192.87L16.35,187.94L16.81,181.28L16.89,179.26L17.2,165.71L17.66,167.77L17.74,172.25L17.81,172.83L17.89,172.46L17.97,183.06L18.28,177L18.74,179.81L18.82,180.12L19.05,181.61L19.28,178.44L19.36,177.27L20.05,172.32L20.2,173.75L20.28,175.64L20.36,176.18L20.51,172.46L20.59,169.37L21.52,135.47L21.59,130.22L21.98,107.98L22.36,119.29L22.44,123.14L22.9,139.16L23.13,118.87L23.21,116.83L24.37,143.61L24.45,145.66L25.53,157.94L25.6,159.5L25.68,158.65L25.99,163.14L26.06,163.33L26.22,161.19L26.53,163.53L26.6,165.01L26.68,166.96L27.07,160.4L27.3,164.32L27.38,162.49L27.68,149.42L28.07,162.26L28.15,161.59L28.76,169.19L28.84,171.54L29.38,182.47L29.46,185.26L30.61,206.9L30.69,206.45L31.31,205.2L31.62,205.77L31.69,206.23L32.16,208.16L32.62,207.26L32.7,207.18L33.54,205.56L33.62,205.15L34.16,201.84L34.24,200.87L34.78,193.6L35.16,196.56L35.24,197.63L36.17,204.9L36.32,204.23L36.4,204.08L36.63,202.88L37.09,203.9L37.17,204.18L37.71,201.73L37.79,200.88L38.09,199.97L38.17,199.41L39.33,180.91L39.64,183.69L39.71,184.05L40.1,185.31L40.87,172.61L41.1,175.51L41.18,177.97L41.33,177.38L41.41,181.71L41.64,177.45L41.72,176.43L42.34,158.16L42.64,163.84L42.72,164.16L43.57,141.13L43.65,132.25L44.19,104.78L44.5,114.06L44.57,120.66L45.04,147.12L45.42,133.34L45.5,135.69L45.57,137.22L45.81,128.7L45.88,123.48L47.43,152.75L47.5,153.47L47.58,154.01L47.66,166.34L47.81,167.56L47.97,166.05L48.04,164.92L48.51,159.78L48.74,163.46L48.81,164.35L48.89,167.28L49.12,158.37L49.35,158.66L49.43,158.5L49.82,150.14L49.97,158.19L50.05,161.01L50.2,160.56L50.28,164.91L50.51,164.42L51.28,172.42L51.36,174.68L52.82,204.91L52.9,204.7L52.98,205.08L53.36,205.75L53.44,205.09L53.52,204.51L54.21,202.27L54.37,203.64L54.44,204.53L54.75,203.21L55.14,204.76L55.21,204.62L55.29,204.68L55.6,203.4L55.68,205.14L55.99,206.43L56.29,204.45L56.37,203.3L56.99,194.02L57.37,197.27L57.45,198.43L57.76,201.9L57.84,203.17L57.91,203.73L58.38,202.1L58.45,201.93L58.76,201.11L58.99,201.73L59.07,202.35L59.46,203.99L59.84,202.78L59.92,201.49L61.15,194.52L61.23,193.81L62.31,177.29L62.39,182.05L62.69,172.13L63.23,174.42L63.31,177.76L63.39,180.5L63.93,175.81L64.01,175.3L65.32,154.88L65.39,161.94L66.32,120.58L66.7,128.82L66.78,132.91L67.24,156.87L67.55,146.17L67.63,141.52L68.17,123.38L68.48,133.47L68.56,133.15L70.02,156.1L70.48,153.08L70.56,152.07L70.71,149.62L71.02,155.11L71.1,156.84L71.56,163.76L71.72,155.96L71.79,153.56L72.8,123.83L72.95,129.69L73.03,132.49L76.04,185.36L76.34,181.58L76.42,180.52L77.81,167.74L77.89,167.11L78.73,162.46L78.81,163.63L78.89,164.52L79.27,166.63L79.66,166.03L79.74,164.41L80.89,160.78L80.97,161.29L81.51,159.23L81.66,161.42L81.74,162.22L83.21,183.33L83.59,179.95L83.67,169.09L84.36,160.6L84.44,159.2L84.6,166.77L86.52,132.23L86.6,133.54L86.68,136.52L86.75,134.87L87.14,138.6L87.29,137.64L87.37,139.04L88.07,136.37L88.14,136.41L88.22,132.97L89.07,127.58L89.14,131.85L89.53,126.08L89.61,123.81L89.84,122.98L89.99,125.38L90.15,123.28L90.22,115.97L90.3,115.81L90.38,105.91L91,74.21L91.23,86.93L91.3,99.28L91.46,116L92.08,108.09L92.15,108.76L92.77,123.21L92.85,127.82L93.77,156.45L93.85,150.78L93.93,142.05L94.85,172.74L95.08,161.73L95.16,159.76L95.78,152.65L95.85,150.28L96.24,151.64L96.32,149.93L96.39,147.34L96.62,141.61L97.09,148.96L97.16,150.32L98.17,176.73L98.4,170.03L98.48,170.04L98.55,170.48L98.86,168.61L98.94,168.93L99.02,168.66L99.09,169.21L99.17,177.83L99.48,173.14L100.02,174.28L100.1,176.76L100.63,185.16L100.94,180.99L101.02,180.21L102.79,153.26L102.87,153.38L103.26,151.86L103.64,152.72L103.72,154.41L105.18,173.85L105.26,173.13L105.57,175.68L105.8,172.13L105.88,161.27L106.73,153.6L106.8,162.74L107.5,158.62L107.58,157.44L108.89,146.57L108.96,147.7L109.04,149.03L109.27,150.91L109.35,146.47L109.43,143.54L110.12,124.61L110.35,133.45L110.43,133.15L110.51,132.03L110.81,136.07L110.89,138.25L110.97,136.92L111.2,141.17L111.28,146.77L111.43,154.67L111.97,146.84L112.05,144.95L112.36,138.27L112.59,145.83L112.66,149.35L113.05,158.49L113.36,150.5L113.44,150.3L113.59,149.79L113.74,153.38L113.82,155.35L114.13,160L114.21,162.99L114.44,168.34L114.75,158L114.82,157.74L115.52,152.29L115.6,155.54L115.67,156.8L116.6,147.16L116.67,149.32L116.75,148.98L116.83,148.55L116.98,151.62L117.06,152.93L117.21,151.99L117.45,154.79L117.52,156.31L119.14,206.38L119.45,204.58L119.53,202.44L120.07,194.08L120.15,191.32L120.53,183.51L120.99,187.44L121.07,189.35L122.15,199.24L122.23,199.54L122.61,207.05L123.08,203.14L123.15,202.21L123.69,199.15L123.92,200.58L124,201.4L125.16,205.72L125.23,205.64L125.31,205.39L126.08,204.94L126.16,204.21L126.85,198.9L126.93,196.83L127.24,191.37L127.78,192.1L127.86,192.05L127.93,192.97L128.01,192.3L128.09,183.31L128.24,184.1L128.55,181.06L128.63,179.21L128.94,176.79L129.01,185.65L129.71,176.07L130.02,176.42L130.09,176.61L130.32,177.28L130.71,176.09L130.79,175.32L132.71,127.78L132.79,123.25L133.02,106.87L133.41,121.86L133.49,127.87L134.49,159.14L134.57,161.41L134.8,157.32L135.03,165.91L135.18,163.24L135.26,163.94L136.03,142.34L136.42,148.99L136.49,158.17L137.88,175.94L137.96,176.02L138.04,176.38L138.19,175.15L138.27,170.7L138.96,155.2L139.12,157.67L139.19,162.09L140.12,180.69L140.19,181.39L141.51,207.44L141.74,205.71L141.81,204.92L142.43,198.69L142.74,200.3L142.82,201.71L143.05,201.18L143.13,202.15L143.36,205.89L143.97,204.68L144.05,204.68L144.36,204.73L144.44,204.55L144.51,205.59L144.59,206.75L145.13,204.19L145.21,204.04L146.13,197.76L146.29,199L146.36,200.24L147.44,205.08L147.6,205.03L147.68,205.15L148.21,205.29L148.29,204.68L149.6,191.52L149.91,194.63L149.99,195.2L150.61,196.9L151.69,176.59L151.76,176.93L151.84,177.12L152.07,175.79L152.22,181.21L152.3,181.76L152.53,180.04L152.61,180.25L152.69,178.93L152.84,179.29L153.84,168.81L153.92,166.43L155.23,117.76L155.62,123.19L155.7,130.2L156.08,148.74L156.54,141.12L156.62,136.86L156.7,137.94L156.77,133.41L156.85,126.19L156.93,114.4L157.62,121.73L157.7,121.3L157.78,119.85L158.01,128.09L158.09,134.24L159.01,162.2L159.4,157.85L159.47,156.91L159.55,155.66L159.86,160.91L159.94,162.1L160.17,168.87L160.55,168.2L160.63,164.61L161.09,156.83L161.25,160.38L161.32,162.75L161.4,163.72L161.79,160.19L161.86,160.01L164.18,206.6L164.25,206.48L164.33,206.68L165.26,203.87L165.33,204.42L165.41,205.21L166.11,206.37L166.26,205.91L166.34,205.86L167.49,202.77L167.57,201.93L167.8,199.2L167.88,197.53L168.03,195.58L168.57,197.32L168.65,198.05L168.96,202.17L169.58,201.21L169.65,200.86L169.88,200.46L170.04,202.47L170.12,202.85L170.42,203.94L170.73,202.43L170.81,201.72L172.43,182.25L172.51,172.2L172.66,171.67L172.74,175.38L172.81,177.35L173.12,176.06L173.51,186.76L173.74,184.39L173.82,184.03L173.89,183.75L174.13,185.16L174.2,186.13L174.59,187.47L174.74,185.47L174.82,183.89L177.06,134.64L177.13,129.53L177.83,116.53L177.9,119.48L177.98,125.91L178.29,143.68L178.52,132.91L178.6,130.48L178.75,135.22L179.22,117.57L179.29,127.7L179.37,129.79L180.14,156.48L180.68,155.02L180.76,156.26L181.45,160.4L181.53,159.16L181.61,157.73L182.53,169.9L182.76,167.51L182.84,165.81L182.92,165.68L182.99,163.95L183.46,156.95L183.84,159.83L183.92,160.14L186,205.42L186.23,203.95L186.31,203.94L188.01,205.05L188.08,203.87L189.01,206.6L189.09,206.19L189.16,205.74L190.32,199.18L190.63,200.56L190.71,201.14L191.01,202.21L191.09,202.93L191.48,203.95L191.86,203.64L191.94,203.42L192.09,203.19L192.17,204.26L192.32,204.21L192.4,204.45L192.63,205L192.86,202.76L192.94,202.26L194.56,191.29L194.64,189.89L195.33,173.78L195.49,175.13L195.56,174.59L195.64,183.15L196.33,177.41L196.41,176.77L196.8,181.86L197.34,181.51L197.41,180.22L198.42,166.75L198.49,161.81L199.57,109.14L199.96,123.73L200.04,124.51L200.5,157.44L200.88,142.59L200.96,139.85L201.42,110.37L201.58,122.43L201.66,124.43L201.81,124.57L201.89,127.35L201.96,126.44L202.04,128.93L202.12,135.1L204.35,178.08L204.43,174.01L204.51,173.83L204.59,174.37L204.66,172.27L205.13,164.83L205.2,160.6L205.51,152.76L205.82,163.61L205.9,166.04L205.97,165.72L206.13,168.18L206.21,170.26L208.06,206.73L208.13,206.77L209.29,202.09L209.37,203.05L209.44,203.87L209.75,203.86L209.83,204.61L210.14,205.49L210.22,204.67L210.29,204.07L210.6,204.46L211.06,203.72L211.14,205.15L211.29,205.71L211.76,204.4L211.83,203.72L212.68,200.55L212.99,200.63L213.07,200.54L213.99,201.95L214.07,201.56L214.15,201.29L214.3,200.96L214.46,202.29L214.53,202.24L214.61,202.65L214.92,203.71L215.15,202.6L215.23,202.27L216.08,197.28L216.23,198.3L216.31,199.21L216.62,201.78L216.92,198.28L217,198.64L217.08,198.56L218.16,179.4L218.62,180.51L218.7,181.21L219.01,180.75L219.08,181.21L219.16,181.91L219.39,179.69L219.55,182.92L219.7,182.9L219.78,183.99L219.85,183.81L219.93,172.71L220.01,172.14L220.24,175.46L220.32,175.63L221.4,149.25L221.47,138.33L221.78,113.39L222.25,127.32L222.32,130.35L222.55,145.34L223.02,138.41L223.09,134.28L223.56,123.12L223.86,130.14L223.94,131.23L225.64,168.12L225.72,167.6L226.33,160.72L226.64,165.51L226.72,166.3L227.18,170.72L227.26,170.05L227.33,167.15L228.34,122.64L228.65,131.69L228.72,137.16L230.5,188.4L230.57,189.18L230.73,188.74L231.42,192.06L231.73,191.67L231.81,191.37L232.66,188.9L232.73,182.97L233.58,147.89L233.74,156.8L233.81,162.1L234.28,181.69L234.66,173.59L234.74,170.22L235.82,145.64L235.89,145.71L235.97,145.83L236.43,143.52L236.51,142.97L236.9,141.51L237.05,143.36L237.13,144.4L238.52,156.62L238.59,157.74L238.82,159.22L239.06,156.37L239.13,155.68L241.29,129.62L241.37,129.3L241.52,128.51L241.76,128.95L243.84,128.58L244.07,128.8L244.99,93.14L245.07,81.44L245.61,33.96L245.92,64.28L246,74.24L246.38,111.26L246.84,97.98L246.92,93.65L247.31,80.27L247.62,85L247.69,93.15L248.16,106.68L248.23,89.56L248.31,72.23L248.46,62.09L248.93,85.24L249,83.13L249.24,120.59L249.62,105.74L249.7,100.86L249.78,99.93L249.93,105.86L250.01,100.5L250.08,93.51L251.01,50.49L251.09,52L251.16,76.28L252.24,146.53L252.32,145.45L252.4,143.86L252.55,142.77L252.86,146.98L252.94,149.04L254.02,176.4L254.25,170.65L254.32,168.4L255.4,145.49L255.56,151.82L255.64,152.5L255.71,152.65L255.87,151.67L255.94,150.94L256.56,140.92L256.87,142.23L256.95,142.14L258.03,137.44L258.1,137.68L258.18,138.25L258.33,139.62L258.64,136.01L258.72,135.12L258.87,134.02L259.11,136.13L259.18,138.69L259.34,143.89L259.95,141.71L260.03,142.39L260.11,142.02L260.19,142.79L260.26,144.92L261.03,156.67L261.27,155.92L261.34,144.88L262.19,140.03L262.27,149.14L262.42,149.39L262.5,147.91L262.65,148.89L262.96,145.39L263.04,145.41L264.43,129.76L264.5,130.31L264.74,133.14L265.12,130.09L265.2,128.88L266.12,117.48L266.28,120.86L266.35,122.12L267.05,140.83L267.36,137.82L267.43,136.1L267.9,132L268.05,135.26L268.13,137.71L269.36,157.08L269.44,155.8L270.36,141.8L270.67,143.49L270.75,142L270.9,141.19L271.06,145.84L271.14,148.19L273.22,179.67L273.3,180.59L274.37,198.63L274.61,195.43L274.68,194.87L275.3,188.13L275.69,189.19L275.76,189.49L275.84,189.28L275.99,189.42L276.07,191.46L276.69,198.53L276.77,199.37L277.54,204.29L277.61,204.11L277.69,204L278.38,201.05L278.46,200.27L279.08,196.5L279.39,198.33L279.46,199L280.31,205.61L280.54,205.34L280.62,205.48L281.24,205.7L281.39,205.37L281.47,205.22L282.86,199.15L283.24,199.25L283.32,193.65L284.17,184.56L284.25,189.53L284.32,190.65L284.4,188.78L284.48,174.73L284.71,134.4L285.33,136.3L285.4,150.82L285.71,186.18L286.33,182.69L286.4,183.62L286.48,184.71L286.71,177.96L286.87,179.82L286.94,179.75L287.64,159.35L287.72,154.82L288.56,98.91L288.95,110.04L289.03,122.2L289.41,153.97L289.87,137.83L289.95,135.5L290.34,122.38L290.41,124.52L290.49,138.23L291.96,183.01L292.03,182.55L292.11,171.81L292.88,161.26L292.96,161.79L293.04,172.36L293.96,188.31L294.04,184.6L294.12,180.04L294.89,151.33L294.96,155.41L295.04,159.48L295.97,196.77L296.04,197.45L296.43,200.67L296.82,198.04L296.89,197.45L296.97,197.78L297.12,197.1L297.2,195.48L298.2,188.47L298.43,189.87L298.51,190.64L298.59,189.73L298.97,191.96L299.05,194.21L299.98,205.72L300.21,205.7L300.29,205.79L300.44,206.06L300.67,205.01L300.75,205.01L301.29,201.23L301.37,200.7L301.67,200.37L302.21,203.38L302.6,202.79L302.68,202.69L303.14,201.44L303.68,204.1L303.76,204.02L303.83,204.04L304.22,201.55L304.3,200.47L304.37,200.62L304.53,199.22L304.6,198.75L304.76,198.39L304.99,199.69L305.07,200.72L305.14,202.08L305.61,197.39L305.68,196.97L306.15,181.05L306.45,184.29L306.53,185.42L306.69,189.65L307.46,174.47L307.53,176.49L307.61,180.64L308.15,190.21L308.46,189.33L308.54,188.35L308.69,187.07L308.77,175.96L310.54,119.42L310.62,102.73L310.7,90.6L311.16,117.8L311.31,110.53L311.39,115.16L311.47,113.86L311.54,124.72L311.62,129.12L311.93,121.39L312.16,136.3L312.24,136.75L312.47,133.18L312.62,140.5L312.7,145.31L312.86,153.39L313.16,143.66L313.32,149.27L313.4,142.47L314.32,179.38L314.78,176.85L314.86,175.98L315.09,169.12L315.63,174.86L315.71,173.66L316.02,182.05L316.25,179.52L316.33,175.68L316.56,167.97L316.94,171.66L317.02,173.07L319.33,205.46L319.41,205.11L319.49,204.22L320.34,193.85L320.8,194.19L320.88,196.61L321.57,205.03L321.88,204.96L321.95,205L322.8,202.5L322.88,201.63L323.57,197.37L323.96,198.93L324.04,199.15L324.96,204.2L325.27,204.03L325.35,204.11L325.66,205.01L326.04,203.76L326.12,203.34L326.66,200.14L327.04,200.71L327.12,201.47L327.28,200.99L327.58,202.55L327.66,202.1L327.74,199.99L328.59,178.98L328.82,180.67L328.9,193.12L330.13,185.28L330.21,180.96L331.05,168.88L331.36,174.15L331.44,173.9L332.52,139.55L332.6,130.45L333.37,115.98L333.44,126.41L333.75,145.89L334.37,144.27L334.45,142.13L334.99,117.09L335.37,122.48L335.45,125.27L335.53,115.9L335.99,137.79L336.07,135.33L336.14,135.09L336.38,137.75L336.45,149.52L337.38,160.3L337.45,157.28L337.99,168.44L338.07,164.74L338.15,160.79L338.23,161.55L338.38,158.19L338.46,155.66L338.92,147.54L339.07,155.72L339.23,153.43L339.31,155.68L341.54,203.41L341.93,202.81L342,202.91L342.31,203.08L342.62,201.63L342.85,202.61L342.93,202.59L343.55,204.21L343.78,203.7L343.86,201.98L344.16,203.52L344.47,202.72L344.55,201.95L344.78,202.85L345.01,201.17L345.09,200.22L345.86,189.42L346.17,192.38L346.25,192.97L346.63,200.55L347.17,198.24L347.25,198.01L347.56,197.12L347.63,199.8L347.87,200.3L348.1,199.87L348.17,199.44L350.1,175.34L350.18,163.38L350.87,176.74L351.03,175.5L351.1,186.43L351.72,168.19L352.11,172.01L352.18,174L352.49,177.63L352.65,172.71L352.72,169.57L353.96,138.82L354.03,139.46L354.11,142.45L354.19,143.18L354.5,141.79L354.57,134.63L354.73,135.2L355.11,121.62L355.35,127.67L355.42,130.15L355.5,128.93L355.65,134.1L355.89,131.58L355.96,133.82L356.35,113.43L356.89,118.46L356.96,122.96L357.58,143.47L357.89,139.19L357.97,137.54L358.04,130.76L358.58,149.42L358.66,152.19L358.89,153.19L358.97,158.37L359.74,151.55L359.9,153.45L359.97,153.71L360.28,160.01L360.44,154.11L360.51,149.34L360.97,146.04L361.36,157.5L361.51,155.29L361.59,154.24L361.9,158.09L361.98,160.71L363.83,201.55L363.91,201.17L363.98,200.65L364.06,200.16L364.29,200.79L364.75,200.58L364.83,201.25L365.45,202.74L365.68,202.51L365.76,202.6L366.37,204.98L366.45,205.47L366.68,206.02L366.99,204.91L367.14,205.22L367.22,204.63L368.22,194.56L368.46,196.01L368.53,197.2L369.07,201.09L369.46,200.25L369.53,200.16L370.38,198.9L370.46,198.04L371.15,196.35L371.31,197.04L371.39,197.98L371.54,199.64L371.69,197.72L372.08,198.72L372.16,197.76L373.24,186.87L373.31,177.05L374.08,169.27L374.16,170.07L374.24,178.79L374.93,182.47L375.01,181.42L375.09,179.67L377.25,119.16L377.48,125.31L377.55,129.15L378.17,159.51L378.4,145.22L378.48,141.43L379.1,124.54L379.25,138.8L379.33,141.19L379.71,145.78L379.95,142.15L380.02,141.27L380.18,138.61L380.48,142.09L380.56,142.34L380.95,145.78L381.18,144.13L381.26,142.51L381.33,142.75L381.49,142.12L381.56,140.5L381.87,147.94L381.95,150.86L382.49,161.41L382.57,155.28L382.64,149.62L383.26,117.84L383.8,120.27L383.88,122.24L384.34,125.92L387.81,126.3L387.89,125.54L388.12,130.4L388.2,130.85L388.81,142.88L389.28,139.09L389.35,139.06L389.66,138.48L390.2,142.5L390.36,141.42L390.43,140.99L390.59,141.05L390.66,139.33L391.82,134L391.9,134.04L392.44,133.77L392.82,136.71L392.98,136.5L393.05,136.84L393.36,139.02L393.44,141.59L394.29,155.94L394.44,153.72L394.52,152.75L395.06,138.87L395.29,140.47L395.37,139.77L395.45,139.43L395.52,148.36L397.06,135.02L397.14,136.42L397.22,136.04L399.3,119.12L399.38,119.42L399.46,123.26L400.3,131.92L400.38,128.78L401.46,68.34L401.92,69.94L402,85.38L402.31,116.76L402.93,111.2L403,110.16L403.23,110.94L403.47,109.25L403.54,108.86L403.62,108.56L403.7,100.16L403.85,84.26L404.39,102.19L404.47,106.5L405.78,174.79L405.93,170.33L406.01,166.53L407.09,141.71L407.24,141.94L407.32,142.07L407.4,141.41L407.63,145.22L407.71,145.24L408.25,153L408.32,155.67L409.79,186.99L409.87,186.47L409.94,184.5L412.02,153.02L412.1,155.05L412.8,158.7L412.95,156.88L413.03,156.14L414.11,149.42L414.18,149.66L414.49,148.9L414.57,149.36L414.65,151.96L415.8,169.13L416.03,168.33L416.11,166.83L416.19,165.85L416.5,169.21L416.73,168.13L416.81,169.79L417.11,173L417.5,170.89L417.58,170.5L418.19,161.44L418.58,161.84L418.66,163.47L419.35,166.71L419.43,165.5L419.51,162.45L421.36,113.61L421.43,123.98L421.59,123.23L422.13,139.86L422.2,146.47L422.59,160.93L422.98,150.83L423.05,147.51L423.21,142.28L423.67,150.22L423.75,151.09L424.05,155.49L424.21,150.04L424.36,151.09L424.44,150.32L424.52,149.64L424.67,153.46L424.75,156.18L424.9,155.37L425.29,162L425.52,157.52L425.6,155.69L426.83,131.16L426.91,131.61L426.99,134.51L427.6,153.17L427.68,156.73L428.99,185.61L429.14,180.13L429.22,165.48L429.92,26.35L429.99,14.16L430.07,11L430.15,19.62L430.3,19.33L430.38,34.2L430.92,67.34L431.23,66.2L431.3,68.06L433.46,199.06L433.54,200.78L434.16,206.63L434.39,206.42L434.47,206.15L435.39,208.87L435.47,208.61L435.55,207.77L436.47,209L436.78,208.45L436.86,208.23L437.7,207.53L437.78,207.71L437.86,207.18L438.78,194.25L439.17,196.73L439.25,198.71L439.86,201.93L439.94,199.73L440.02,198.25L440.63,190.5L440.71,189.41L441.64,195.42L441.71,193.77L441.79,192.9L441.95,192.37L442.02,188.38L442.79,173.78L442.87,170.42L443.33,151.87L443.41,143.86L443.95,110.7L444.26,117.85L444.34,126.5L444.41,126.19L444.49,134.3L444.72,136.63L444.8,142.03L445.18,136.63L445.26,138.5L445.34,143.35L445.42,142.21L445.57,149.34L445.65,150.13L446.26,172.4L446.57,164.52L446.65,163.57L446.8,161.99L446.88,158.78L447.04,158.76L447.11,157.58L447.34,154.91L447.5,163.43L447.65,161.14L447.73,161.73L448.11,159.95L448.65,168.79L448.73,157.72L448.81,157.31L448.89,157.81L448.96,160.87L449.04,164.27L449.43,149.93L449.5,145.12L449.58,142.88L449.81,155.81L449.89,155.13L449.97,155.43L451.12,191.64L451.2,193.17L452.05,205.31L452.51,203.58L452.59,202.7L453.59,191.74L453.67,192.89L453.74,193.72L453.98,193.45L454.05,195.49L454.9,202.88L455.21,201.97L455.29,201.67L455.52,201.03L455.83,202L455.9,202.85L456.83,207.99L457.14,207.3L457.21,207.4L457.68,208.24L457.75,207.05L457.99,207.63L458.06,207.51L458.6,206.81L458.68,207.68L458.99,207.95L459.3,207.46L459.37,207.38L459.68,206.66L459.76,205.88L460.3,200.21L460.38,198.43L461.22,188.31L461.46,189.98L461.53,194.17L462.07,187.99L462.46,189.78L462.54,189.88L462.77,187.46L463.31,189.54L463.38,189.57L463.69,190.25L463.85,188.68L463.92,187.54L464.15,187.94L464.93,176.07L465,171.76L466.16,125.3L466.47,132.31L466.55,133.53L466.62,133.1L466.7,138.96L467.01,154.45L467.32,142.22L467.39,138.2L467.47,135.94L467.7,146.67L467.93,143.58L468.01,155.33L468.4,169.59L468.7,164.1L468.78,155.52L469.17,155.64L469.4,154.25L469.55,155.35L469.63,158.5L469.78,170L470.4,165.23L470.48,163.37L470.71,161.79L470.86,164.49L471.02,163.61L471.1,166.44L471.56,161.26L471.79,162.78L471.87,166.41L472.02,165.97L472.1,169.2L473.1,180.65" style="vector-effect: none; fill: none; stroke: rgb(99, 110, 250); stroke-opacity: 1; stroke-width: 2px; opacity: 1;"/></g><g class="points"/><g class="text"/></g></g></g><g class="overplot"/><path class="xlines-above crisp" d="M0,0" style="fill: none;"/><path class="ylines-above crisp" d="M0,0" style="fill: none;"/><g class="overlines-above"/><g class="xaxislayer-above"><g class="xtick"><text text-anchor="middle" x="0" y="333" transform="translate(167.99,0)" style="font-family: 'Open Sans', verdana, arial, sans-serif; font-size: 12px; fill: rgb(42, 63, 95); fill-opacity: 1; white-space: pre; opacity: 1;"><tspan class="line" dy="0em" x="0" y="333">Jan 23</tspan><tspan class="line" dy="1.3em" x="0" y="333">2022</tspan></text></g><g class="xtick"><text text-anchor="middle" x="0" y="333" style="font-family: 'Open Sans', verdana, arial, sans-serif; font-size: 12px; fill: rgb(42, 63, 95); fill-opacity: 1; white-space: pre; opacity: 1;" transform="translate(323.45,0)">Jan 30</text></g><g class="xtick"><text text-anchor="middle" x="0" y="333" style="font-family: 'Open Sans', verdana, arial, sans-serif; font-size: 12px; fill: rgb(42, 63, 95); fill-opacity: 1; white-space: pre; opacity: 1;" transform="translate(478.92,0)">Feb 6</text></g></g><g class="yaxislayer-above"><g class="ytick"><text text-anchor="end" x="79" y="4.199999999999999" transform="translate(0,312.4)" style="font-family: 'Open Sans', verdana, arial, sans-serif; font-size: 12px; fill: rgb(42, 63, 95); fill-opacity: 1; white-space: pre; opacity: 1;">0</text></g><g class="ytick"><text text-anchor="end" x="79" y="4.199999999999999" style="font-family: 'Open Sans', verdana, arial, sans-serif; font-size: 12px; fill: rgb(42, 63, 95); fill-opacity: 1; white-space: pre; opacity: 1;" transform="translate(0,256.73)">0.02</text></g><g class="ytick"><text text-anchor="end" x="79" y="4.199999999999999" style="font-family: 'Open Sans', verdana, arial, sans-serif; font-size: 12px; fill: rgb(42, 63, 95); fill-opacity: 1; white-space: pre; opacity: 1;" transform="translate(0,201.05)">0.04</text></g><g class="ytick"><text text-anchor="end" x="79" y="4.199999999999999" style="font-family: 'Open Sans', verdana, arial, sans-serif; font-size: 12px; fill: rgb(42, 63, 95); fill-opacity: 1; white-space: pre; opacity: 1;" transform="translate(0,145.38)">0.06</text></g></g><g class="overaxes-above"/></g><g class="subplot x2y2"><g class="layer-subplot"><g class="shapelayer"/><g class="imagelayer"/></g><g class="minor-gridlayer"><g class="x2"/><g class="y2"/></g><g class="gridlayer"><g class="x2"><path class="x2grid crisp" transform="translate(690.89,0)" d="M0,100v220" style="stroke: rgb(255, 255, 255); stroke-opacity: 1; stroke-width: 1px;"/><path class="x2grid crisp" transform="translate(846.3499999999999,0)" d="M0,100v220" style="stroke: rgb(255, 255, 255); stroke-opacity: 1; stroke-width: 1px;"/><path class="x2grid crisp" transform="translate(1001.8199999999999,0)" d="M0,100v220" style="stroke: rgb(255, 255, 255); stroke-opacity: 1; stroke-width: 1px;"/></g><g class="y2"><path class="y2grid crisp" transform="translate(0,228.84)" d="M602.9,0h473.09999999999997" style="stroke: rgb(255, 255, 255); stroke-opacity: 1; stroke-width: 1px;"/><path class="y2grid crisp" transform="translate(0,148.04)" d="M602.9,0h473.09999999999997" style="stroke: rgb(255, 255, 255); stroke-opacity: 1; stroke-width: 1px;"/></g></g><g class="zerolinelayer"><path class="y2zl zl crisp" transform="translate(0,309.65)" d="M602.9,0h473.09999999999997" style="stroke: rgb(255, 255, 255); stroke-opacity: 1; stroke-width: 2px;"/></g><path class="xlines-below"/><path class="ylines-below"/><g class="overlines-below"/><g class="xaxislayer-below"/><g class="yaxislayer-below"/><g class="overaxes-below"/><g class="plot" transform="translate(602.9,100)" clip-path="url(#clip983610x2y2plot)"><g class="scatterlayer mlayer"><g class="trace scatter tracebb351e" style="stroke-miterlimit: 2; opacity: 1;"><g class="fills"/><g class="errorbars"/><g class="lines"><path class="js-line" d="M0,162.59L0.54,105.38L0.69,163.42L0.77,147.58L0.85,159.95L1,143.02L1.23,185.64L1.77,181.62L1.85,186.33L1.93,150.78L2.24,190.1L2.62,159.51L2.7,159.97L2.85,156.48L3.01,168.72L3.08,163.96L3.16,143.7L3.47,185.37L3.93,174.03L4.01,171.99L4.09,173.49L4.16,149.23L4.24,131.14L4.63,164.02L4.7,149.51L4.78,183.16L4.94,170.59L5.09,176.27L5.17,186.84L5.48,202.53L5.78,186.05L5.94,191.25L6.01,192.54L7.17,162.62L7.25,163.38L8.41,122.35L8.56,123.6L8.64,134.69L8.87,126.54L9.25,153.54L9.49,150.77L9.56,153.25L9.64,157.46L9.79,128.9L10.18,154.78L10.26,141.68L10.72,137.04L11.18,157.8L11.26,156.2L11.41,148.49L11.8,177.22L12.03,160.06L12.11,149.06L12.18,158.93L12.8,143.51L12.88,149.38L13.11,156L13.19,150.72L13.26,143.17L14.19,167.53L14.27,170.27L14.42,147.92L14.88,159.99L14.96,167.94L15.11,165.48L15.27,171.49L15.35,166.23L15.42,174.41L15.5,177.16L15.73,168.5L15.81,140.86L16.27,127.61L16.66,168.57L16.73,152.65L17.51,189.3L17.58,186.16L17.66,171.5L18.04,191.6L18.43,187.25L18.51,184.36L18.58,157.34L19.12,186.78L19.2,179.81L19.28,184.55L19.36,191.17L19.51,171.47L19.97,182.84L20.05,171.42L20.9,200.82L20.98,201.07L21.05,201.26L21.13,200.76L21.21,200.88L21.28,203.26L21.67,204.08L21.82,125.14L22.29,148.46L22.36,150.7L22.59,108.15L22.98,140.65L23.06,156.77L23.21,138.27L23.6,180.14L23.67,170.04L23.75,150.85L24.52,190.91L24.6,187.09L24.68,172.8L25.22,174.35L25.37,155.5L25.45,172.36L25.68,181.12L25.76,175.95L25.83,189.78L26.06,158.74L26.14,172.59L26.22,179.6L26.3,180.31L26.37,162.09L26.53,139.25L26.91,148.97L26.99,170.76L27.53,201.59L27.76,191.5L27.84,187.61L27.92,187.48L27.99,188.06L28.07,191L28.22,192.41L28.3,184.19L28.53,191.52L28.76,173.26L28.92,182.82L29,179.11L30.61,131.36L30.69,143.99L30.77,145.9L30.92,157.5L31.08,144.84L31.46,151.61L31.54,133.09L32.16,158.7L32.31,145.04L32.39,143L32.93,127.4L33.08,147.09L33.16,143.91L33.24,141L33.54,155.88L33.62,153.93L33.7,156.83L33.85,140.68L34.47,178.64L34.7,174.46L34.78,163.84L35.16,164.8L35.32,152.92L35.55,153.28L35.63,157.97L35.7,144.98L36.24,165.99L36.32,162.56L36.4,167.13L36.48,168.31L36.55,165.08L36.63,154.74L36.86,153.13L37.48,173.03L37.71,170.67L37.79,151.59L37.94,160.32L38.02,134.21L38.09,122.14L38.25,111.78L38.87,167.77L38.94,137.42L39.71,178.1L39.79,170.04L39.87,164.57L40.1,164.09L40.64,178.43L40.72,176.48L40.79,149.11L41.1,180.51L41.18,180.24L41.26,80.91L41.56,189.61L42.03,184.27L42.1,177.08L42.49,165.65L42.95,200.23L43.11,198.22L43.18,196.54L43.49,198.68L43.57,173.75L43.88,202.5L44.03,130.95L44.19,158.98L44.26,157.52L44.42,168.09L44.57,122.9L44.65,136.37L44.73,110.78L45.57,177.11L45.88,168.89L45.96,158.12L46.04,182.17L46.35,154.56L46.73,180.25L46.81,181.31L47.58,157.32L47.66,177.73L48.12,185.97L48.27,150.54L48.43,171.03L48.51,162.58L48.58,118.88L49.2,162.63L49.28,166.09L50.28,192.12L50.36,192.34L51.51,164.03L51.59,165.13L51.67,164.6L51.82,165.03L52.36,134.47L52.44,143.19L52.52,148.73L53.36,126.22L53.44,138.13L53.83,117.89L54.06,145.67L54.13,149.76L54.52,130.29L54.98,132.84L55.06,137.17L55.14,130.86L55.68,143.51L55.75,150.61L55.99,155.4L56.06,124.78L56.68,176.64L56.91,171.9L56.99,163.9L57.45,150.88L57.53,161.29L57.91,152.19L58.07,167.56L58.14,163.36L58.22,165.87L58.84,146.89L59.07,158.58L59.15,161.3L59.3,157.33L59.84,176.59L59.92,174.59L60,148.41L60.15,154.91L60.23,118.76L60.38,130.21L60.46,109.33L60.54,98.41L60.84,150.42L60.92,131.19L61,151.84L61.15,149.55L61.92,184.51L62,177.86L62.08,168.45L62.62,189.28L62.69,183.11L62.77,182.9L62.85,185.95L62.93,183.63L63,161.23L63.39,182.65L63.47,98.11L63.54,167.23L63.62,187.6L63.77,192.66L63.85,184.54L63.93,170.08L64.08,190.6L64.47,167.71L64.62,177.46L64.7,174.07L65.86,202.07L65.93,180.84L66.09,190.87L66.78,113.34L66.94,125.99L67.01,134.79L67.94,181.48L68.02,172.94L68.09,172.85L68.86,196.65L69.02,193.58L69.09,176.29L69.17,175.9L69.25,171.71L69.71,161.48L70.1,199.83L70.33,194.35L70.41,181.46L70.56,198.46L70.79,160.8L71.02,176.87L71.1,175.07L71.95,205.59L72.03,205.35L72.1,203.68L72.57,204.46L72.8,202.09L72.87,189.86L73.72,199.6L73.8,198.91L73.88,198.87L74.72,191.03L74.8,185.77L74.88,192.37L75.11,168.17L75.42,177.21L75.5,178.52L75.73,175.01L75.88,175.5L75.96,169.69L76.27,189.78L76.73,188.93L76.81,188.75L77.19,190.48L77.27,189.96L77.35,184.38L78.12,195.2L78.19,193.97L78.66,194.97L78.73,188.51L78.97,191.13L79.04,193L79.2,190.98L79.51,195.17L79.81,194.48L79.89,193.22L80.12,192.94L80.66,195.96L80.74,195.02L81.05,193.65L81.12,196.31L81.43,194.17L81.51,190.8L82.05,194.39L82.13,193.15L82.2,184.64L82.28,185.82L82.36,184.9L82.44,166.12L82.59,161.62L82.9,176.69L82.98,178.45L83.13,177.45L83.21,187.98L83.28,190.08L83.59,183.39L83.75,189.94L83.82,183.74L84.21,193.02L84.67,190.97L84.75,187.78L85.06,196.15L85.21,180.82L85.29,185.31L85.37,180.86L85.67,128.21L85.83,191.41L85.91,190.41L86.21,182.62L86.68,201.62L86.75,196.11L86.83,195.31L86.91,199.37L87.06,197.58L87.14,201.03L87.29,196.8L87.45,203.73L87.76,197.27L87.83,201.31L88.14,201.1L88.3,203.99L88.37,203.55L88.45,187.2L89.22,205.67L89.3,205.41L89.38,201.77L89.53,206.36L89.76,206.21L89.84,187.15L90.07,200.5L90.46,172.29L90.53,199.73L91.3,208.76L91.38,208.4L91.92,208.68L92.23,200.99L92.31,191.74L92.38,206.95L92.85,167.03L93,183.94L93.08,171.92L93.23,181.02L93.54,145.98L93.62,155.36L93.69,150.53L93.93,170.35L94.08,148.37L94.31,153.93L94.39,152.48L94.77,147.7L96.24,198.34L96.47,194.36L96.55,193.25L97.24,164.35L97.7,169.58L97.78,174.66L98.01,152.99L98.09,123.82L98.17,30.42L98.55,175.49L98.78,172.74L98.86,172.82L99.02,173.07L99.09,167.78L99.25,168.43L99.32,142.98L99.48,163.84L99.63,162.03L99.71,142.4L99.94,183.39L100.48,173.92L100.56,175.41L100.94,173.92L101.56,197.7L101.64,197.63L102.1,194.96L102.33,195.68L102.41,197.68L102.64,199.17L102.79,196.86L103.1,198.18L103.18,197.03L103.57,197.86L103.72,187.57L103.87,197.14L103.95,196.64L104.11,197L104.18,195.3L104.26,195.74L104.34,193.99L104.41,185.71L104.57,187.18L104.64,177.93L105.11,173.83L105.34,190.05L105.42,188.89L105.49,178.13L106.34,197.1L106.42,192.36L106.5,192.17L106.57,192.9L106.65,195.14L106.73,194.58L107.11,197.01L107.19,197.5L107.27,198.42L107.34,193.87L107.42,185.07L107.88,181.84L108.12,198.8L108.19,198.18L108.27,197.23L108.35,186.61L108.96,191.28L109.04,196.05L109.12,197.97L109.27,183.69L109.35,185.02L109.66,204.03L110.2,202.77L110.27,186.05L110.43,201.99L110.66,165.65L110.97,188.51L111.05,189.13L111.12,149.57L111.82,175.25L111.89,185.83L112.05,171.01L112.28,185.96L112.36,190.24L112.43,191.22L112.51,175L112.59,173.85L112.66,187.91L112.74,186.02L112.82,190.96L112.9,189.16L112.97,163.11L113.13,166.68L113.2,176.58L113.44,187.69L113.67,165.22L114.05,187.32L114.13,181.62L114.36,179.01L114.44,186.45L114.59,186.17L114.67,197.27L114.82,168.89L115.29,171.25L115.36,180.16L115.6,189.74L115.75,162.91L116.06,182.34L116.14,188.35L116.21,180.6L116.6,199L116.83,194.07L116.91,194.8L117.83,175.78L117.91,171.51L119.45,87.38L119.68,100.31L119.76,117.6L119.91,102.57L119.99,120.46L120.3,118.17L120.38,97.66L120.84,95.1L121.07,122.97L121.15,119.54L121.22,111.68L121.3,83.55L121.84,142.22L121.92,150.28L122.23,138.02L122.3,150.45L122.38,151.59L122.54,156L122.69,148.19L122.77,163.76L123.15,157.25L123.46,171.97L123.54,170.07L123.62,165.19L124.54,140.24L124.62,159.4L124.69,160.53L124.77,153.63L124.93,154.8L125,152.12L125.23,160L125.39,153.66L125.47,139.57L126.08,169.41L126.31,165.57L126.39,169.07L126.47,171.43L126.62,155.24L126.78,165.16L126.85,135.66L127.09,101.16L127.32,137.03L127.39,158.46L127.86,157.1L128.55,187.88L128.63,180.63L128.94,170.48L129.09,184.41L129.32,179.3L129.4,184.13L129.48,186.29L129.55,183.15L129.63,156.39L129.71,157.48L129.78,172.89L129.94,183.56L130.02,177.75L130.09,160.2L130.4,189.54L130.86,181.76L130.94,175.06L131.25,155.48L131.87,199L131.94,200.9L132.17,202.17L132.33,200.97L132.41,180.89L132.48,200.51L132.95,132.73L133.02,142.85L133.1,154.81L133.25,169.6L133.56,106.76L133.79,151.38L133.87,148.04L134.26,138.05L134.64,174.5L134.72,159.25L134.8,148.23L135.11,185.13L135.26,170.84L135.34,184.42L135.41,184.66L135.49,188.11L135.72,162.86L135.8,163.99L135.88,149.59L136.88,188.36L136.96,186.42L137.73,138.59L137.8,167.23L138.11,133.44L138.42,160.73L138.5,168.13L139.42,186.72L139.58,186.69L139.66,184.96L141.04,134.16L141.12,137.35L141.2,139.44L141.43,140.39L141.66,103.13L141.97,133.66L142.05,141.71L142.2,113.49L142.74,138.57L142.82,137.86L142.89,142.29L143.2,124.3L143.43,137.99L143.51,120.84L143.82,145.82L144.36,143.04L144.44,139.31L144.74,162.19L144.9,133.49L145.21,154.15L145.28,147.77L145.36,132.61L145.9,158.68L146.06,137.04L146.13,140.72L146.83,162.79L146.98,159.89L147.06,158.58L147.37,156.38L147.52,161.46L147.6,160.57L147.68,152.22L148.29,171.21L148.52,170.53L148.6,173.55L148.83,158.67L148.99,167.62L149.06,137.88L149.53,101.65L149.76,141.7L149.83,161.57L150.37,142.69L150.45,145.81L150.53,162.22L150.76,184.94L151.38,178.28L151.45,180.23L151.53,177.18L151.69,184.33L151.76,177.23L151.84,148.81L152.61,191.17L152.69,183.93L152.76,169.47L153.38,168.6L153.69,192.68L153.77,198.52L153.92,195.87L154.08,201.08L154.15,201.06L154.23,201.46L154.62,198.85L154.69,202.22L154.77,180.3L154.85,178.97L154.92,191.02L155,185.41L155.08,123.44L155.23,164.99L155.7,113.05L155.85,149.65L155.93,146.33L156.08,138.71L156.23,166.36L156.47,142.91L156.54,162.79L157.01,161.08L157.31,183.58L157.39,161.62L157.55,172.14L157.62,176.95L157.85,183.15L157.93,165.3L158.01,165.7L158.09,151.41L159.01,190.03L159.09,189.16L159.17,191.04L159.24,163.69L159.4,188.95L159.7,144.46L159.86,154.62L159.94,142.71L160.86,194.07L160.94,197.43L161.56,186.73L161.71,193.24L161.79,192.42L163.41,136.23L163.48,147.5L163.71,158.34L163.79,153.36L163.87,144.28L163.95,134.66L164.25,150.76L164.56,140.04L164.64,145.52L164.72,144.78L164.79,136.92L165.41,154.38L165.57,142.73L165.64,135.62L165.72,134.22L165.87,140.88L166.03,140.8L166.11,147.14L166.18,138.65L166.26,153.11L166.72,150.37L166.8,155.14L166.88,155L166.95,149.85L167.11,125.58L167.72,175.34L167.96,171.02L168.03,157.21L168.19,167.39L168.65,156.98L168.73,157.76L168.8,156.38L168.88,155.61L168.96,140.45L169.65,165.82L169.73,161.95L169.81,166.31L169.88,152.21L170.42,172.07L170.5,171.65L170.58,169.83L170.66,172.92L170.89,169.26L170.96,170.24L171.04,150.68L171.2,160.79L171.27,140.91L171.58,110.46L171.89,146.36L171.97,148.72L172.97,184.98L173.05,181.44L173.12,170.71L173.66,182.57L173.74,178.93L173.82,179.87L173.89,182.23L173.97,180.86L174.05,140.54L174.82,191.84L174.9,184.63L174.97,170.81L175.51,191.48L175.59,190.99L175.67,174.18L175.82,161.38L175.9,186.56L175.98,198.79L176.13,192.38L176.36,203L176.59,200.74L176.67,201.29L176.82,199.08L176.9,201.87L177.13,202.98L177.75,105.36L177.83,121.73L177.9,126.64L177.98,119.04L178.29,143.7L178.37,167.45L178.6,168.93L178.68,157.38L178.75,158.87L178.83,174.44L179.22,152.82L179.45,182.69L179.52,180.71L179.6,150.38L179.99,191.86L180.37,168.8L180.45,169.09L180.83,149.32L180.91,176.21L180.99,166.88L181.07,184.13L181.3,190.85L181.37,187.6L181.45,158.64L181.61,181.43L181.91,143.15L182.07,154.47L182.15,142.28L183.15,197.88L183.23,196.18L183.38,192.86L183.46,190.97L184.23,173.17L184.3,174.32L184.38,176.69L186.08,115.8L186.16,130.13L186.23,135.27L186.46,151.15L186.7,131.34L186.93,139.89L187,122.15L187.39,150.09L187.77,142.66L187.85,146.85L188.08,147.78L188.39,132.35L188.47,147.75L188.55,153.27L189.09,162.91L189.24,160.02L189.32,144.37L189.47,166.03L190.09,164.99L190.17,161.67L190.4,161.69L191.17,131.24L191.24,144.31L191.32,159.81L191.4,160.36L191.48,159.86L191.55,154.98L191.63,157.93L191.86,141.7L192.02,152.14L192.09,141.61L192.71,173.33L192.94,167.35L193.02,169.43L193.1,177.26L193.48,147.96L193.56,149.33L193.64,155.46L193.94,135.57L194.25,167.5L194.41,147.25L194.48,166.38L194.64,160.4L195.18,187.4L195.25,183.2L195.33,170.13L195.72,186.46L196.1,182.04L196.18,180.85L196.33,145.95L196.87,175.56L196.95,184.16L197.03,187.63L197.18,164.47L197.41,180.81L197.49,167.49L197.88,153.78L198.42,200.87L198.49,203.29L198.8,203.22L198.88,201.8L198.96,202.47L199.03,199.74L199.11,195.81L200.19,112.14L200.27,126.27L200.34,124.76L200.42,145.28L200.88,141.1L201.19,175.93L201.35,167.72L201.42,155.15L201.73,195.54L202.2,185.8L202.27,185.94L203.04,150.57L203.12,161.2L203.2,161.09L203.43,181.04L203.58,179.71L203.66,140.63L203.97,184.57L204.2,117.57L204.28,132.05L204.35,126.45L205.36,196.84L205.43,193.29L205.97,176.63L206.21,180.71L206.28,186.47L207.21,153.25L207.28,157.13L208.36,113.4L208.44,118.43L208.52,144.02L208.83,129.66L209.21,132.68L209.29,148.51L209.52,153.76L209.6,152.31L209.68,142.52L209.83,130.42L210.06,144.66L210.14,138.46L210.22,142.73L210.37,146.76L210.52,134.58L210.6,112.19L211.14,162.32L211.45,159.55L211.53,140.27L211.6,141.62L211.68,138.01L211.76,155.71L211.91,158.77L212.22,144.1L212.3,166.87L212.37,168.96L212.61,160.97L212.91,164.81L212.99,159.06L213.38,143.81L213.69,162.45L213.76,163.18L214.23,167L214.3,159.33L214.46,162.17L214.53,152.52L215.38,175.7L215.46,162.86L215.54,166.65L215.61,157.86L215.69,132.65L216.54,163.71L216.62,143.8L217.31,184.4L217.46,178.59L217.54,178.12L217.7,187.26L217.77,134.53L218.24,176.82L218.31,179.78L218.47,122.3L218.7,155.61L218.78,170.28L218.93,163.21L219.24,180.97L219.31,176.91L219.39,149.82L219.93,182.15L220.24,180.47L220.32,181.89L220.93,201.63L221.17,201.14L221.24,188.05L221.32,194.52L221.4,164.09L221.63,185.26L221.71,137.31L222.01,173.22L222.25,101.43L222.4,117.36L222.48,132.88L222.71,151.98L222.78,165.44L223.02,169.53L223.48,145.07L223.56,158.03L223.63,164.85L223.71,163.86L223.79,174.07L224.02,170.35L224.33,189.03L224.48,186.06L224.56,167.51L224.64,165.64L224.79,175.65L225.02,169.11L225.1,173.32L225.41,145.36L225.48,186.35L225.87,177.52L226.26,195.58L226.33,181.8L226.41,136.82L227.03,184.73L227.1,193.59L227.95,205.41L228.11,205.03L228.18,204.55L228.26,204.02L228.34,197.24L229.19,176.21L229.26,175.38L229.65,182.7L229.96,180.25L230.03,175.91L230.34,182.04L230.57,164.57L230.65,166.78L230.73,157.07L231.27,176.87L231.5,169.2L231.58,170.6L231.96,174.82L232.19,174.29L232.27,160.15L232.5,168.49L232.66,116.7L233.12,143.3L233.2,141.95L234.04,191.64L234.12,189.5L234.2,183.68L234.97,200.32L235.2,199.59L235.28,198.87L235.59,197.32L236.13,201.01L236.2,200.62L236.28,201.25L236.51,199.99L236.82,200.45L236.9,199.08L236.97,196.76L237.28,200.32L237.59,199.34L237.67,198.52L237.75,199.09L237.82,197.94L237.9,193.72L237.98,190.46L238.52,196.24L238.59,197.29L239.44,200.81L239.52,201.22L240.52,203.79L240.6,200.91L241.45,204.76L241.52,202.95L241.6,201.36L241.76,204.2L243.84,200.4L243.91,183.61L244.53,201.44L244.61,204.36L244.69,207.24L245.07,195.03L245.38,205.9L245.46,205.87L245.92,208.4L246.23,208.18L246.31,208.37L246.61,209L246.69,192.37L246.77,184.84L247.08,207.07L247.23,206.94L247.31,206.55L247.77,207.09L248,204.11L248.08,167.18L248.46,167.64L248.93,134.17L249,134.34L249.39,156.99L249.47,131.82L249.85,142.62L249.93,140.39L250.16,115L250.24,140.65L250.39,131.75L250.55,154.83L250.62,159.95L251.63,199.24L251.93,197.57L252.01,197.48L252.17,197.65L252.24,197.09L252.32,200.8L252.4,201.3L252.63,200.32L252.71,189.3L253.01,193.47L253.09,185.8L253.17,180.56L253.55,186.11L253.71,178.51L253.79,177.85L254.17,197.37L254.71,194.55L254.79,179.42L254.94,199.18L255.48,172.43L255.56,183.18L256.25,201.61L256.33,201.23L256.41,194.87L256.95,200.77L257.18,198.98L257.26,199.93L257.33,196.66L257.95,201.04L258.03,200.75L258.1,200.91L258.18,200.47L258.26,193.97L258.8,200.86L259.03,200L259.11,196.13L259.18,192.14L259.57,201.85L259.72,200.46L259.8,200.78L260.11,185.92L260.65,192.89L260.73,198.61L260.88,200.93L260.96,199.45L261.03,191.26L261.65,201.29L261.88,200.7L261.96,192.32L262.81,201L262.88,200.46L262.96,197.72L263.42,204.37L263.58,201.28L263.66,200.65L263.81,194.67L264.35,205.28L264.43,203.12L264.5,200.52L264.74,198.24L265.12,205.9L265.43,205.56L265.51,205.85L265.58,205.35L265.66,194.7L266.05,205.69L266.35,188.56L266.43,195.05L266.59,191.77L266.66,172.67L267.43,200.76L267.51,188.08L267.59,189.06L267.9,194.51L268.05,179.3L268.13,186.68L268.21,195.38L268.36,196.95L268.44,180.61L268.75,194.4L268.82,196.5L269.13,172.96L269.29,178.31L269.36,193.85L269.67,183.17L270.21,202.53L270.29,197.17L270.6,194.23L270.67,197.14L270.75,186.04L270.98,180.48L271.37,195.44L271.52,190.61L271.6,191.71L271.91,192.14L272.83,180.49L272.91,184.12L273.91,146.16L273.99,134.84L274.45,107.83L274.76,117.26L274.84,125.52L274.91,92.24L275.3,127.62L275.53,115.95L275.61,116.93L275.84,113.44L276.61,148.62L276.69,148.07L276.77,127.48L278.08,166.77L278.15,163.55L278.54,171.69L278.85,163.33L278.92,164.82L279,164.92L279.62,143.51L279.85,146.47L279.93,149.85L280,135.4L280.24,152.27L280.62,151.75L280.7,153.73L281.01,145.34L281.24,159.75L281.39,154.13L281.47,162.43L281.86,146.94L281.93,159.96L282.55,117.81L282.78,134.51L282.86,145.05L282.93,142.72L283.09,160.24L283.17,164.19L283.24,145.69L283.78,175.63L283.86,170.48L283.94,171.39L284.01,176.44L284.25,139.79L284.32,148.11L284.4,137.86L284.55,134.36L284.63,135.34L284.71,149.52L284.79,149.66L284.86,165.51L284.94,172.03L285.25,142.8L285.33,137.93L286.17,179.71L286.25,171.69L286.56,184.09L286.71,139.96L286.94,179.6L287.02,190.24L287.18,186.79L287.41,198.41L287.48,199.98L287.72,202.74L287.79,202.63L287.87,186.72L287.95,202.7L288.33,146.76L288.41,110.05L289.1,108.87L289.18,153.01L289.26,154.02L289.49,138.87L289.64,164.67L289.87,164.18L289.95,164L290.03,167.14L290.18,163.78L290.26,135.68L290.57,167.4L290.65,127.95L291.11,164.74L291.19,150.17L291.26,151.75L291.34,142.38L291.42,136.74L291.57,130.22L291.73,147.69L291.96,143.35L292.03,116.94L292.88,180.92L292.96,171.15L293.04,173.87L293.27,158.8L293.35,161.31L293.42,159.24L293.81,164L293.88,155.85L293.96,196.85L294.04,197.95L294.27,192.19L294.35,194.76L294.42,181.3L295.27,158.58L295.35,165.81L295.43,166.11L296.04,146.7L296.12,153.18L296.2,142.37L296.66,120.95L296.97,131.4L297.05,135.6L297.28,116.19L297.82,119.33L297.89,116.92L298.05,110.06L298.43,132.69L298.51,103.94L299.21,139.66L299.36,136.7L299.44,132.08L299.67,131.43L300.44,164.43L300.52,164.22L300.59,160.87L301.21,137.67L301.37,146.48L301.44,149.23L301.75,127.12L302.21,133.93L302.29,147.63L302.52,148.17L302.6,145.5L302.68,144.82L302.83,161.15L303.45,152.44L303.52,153L303.6,152.67L303.68,164.14L303.91,159.64L304.22,172.46L304.3,154L304.37,157.96L304.53,129.05L304.68,143.21L304.76,127.74L304.84,126.37L304.99,134.62L305.07,144.67L305.3,122.47L305.68,153.22L305.76,161.99L305.91,166.59L306.07,142L306.15,140.56L306.38,134.08L306.99,159.53L307.07,158.44L307.23,165.56L307.3,128.8L307.53,128.3L308.07,167.21L308.15,165.94L308.23,145.65L309.23,190.05L309.31,191.09L309.39,190.54L309.46,198.41L309.69,201.38L309.77,201.11L309.85,196.68L309.92,201.71L310.31,176.91L310.46,191.03L310.54,123.01L310.62,123.79L310.7,160.06L310.85,173.68L310.93,161.39L311,135.14L311.16,115.22L311.31,151.88L311.54,148.36L311.62,167.95L312.01,125.44L312.39,148.49L312.47,151.45L312.86,137.43L313.24,174.89L313.32,162.76L313.4,165.75L314.32,146.69L314.4,176.99L314.47,176.83L314.55,163.87L314.63,164.36L314.71,146.23L315.17,175.02L315.55,159.22L315.63,148.14L316.25,195L316.56,187.44L316.63,168.28L316.71,160.33L317.17,176.84L317.25,175.91L317.33,178.38L318.02,159.53L318.1,154.64L318.41,156.52L318.56,152.08L318.64,148.49L318.72,149.26L318.79,147.18L318.87,123.65L319.26,147.05L319.64,128.21L319.72,139.78L320.03,123.46L320.41,135.48L320.49,139.7L320.72,135.77L320.88,142.36L320.95,142.29L321.03,145.71L321.49,146.56L321.65,125.59L321.88,136.18L321.95,140.13L322.03,140.62L322.11,149.11L322.19,147.52L322.26,155.68L322.42,152.02L322.49,165.2L322.57,156.42L323.19,168.84L323.27,167.23L323.34,169.83L323.65,159.91L323.73,156.31L324.42,146.16L324.5,151.3L324.58,157.69L325.42,144.61L325.5,152.09L325.58,152.23L325.66,151.73L325.73,159.43L325.81,152.7L326.35,166.18L326.43,165.27L326.97,122.02L327.2,133.91L327.28,139.33L327.66,138.6L328.2,176.05L328.28,170.39L328.36,173L328.59,161.82L329.2,178.64L329.28,176.9L329.43,175.81L329.51,153.38L330.13,182.07L330.36,174.77L330.44,155.47L330.9,119.02L330.98,183.07L331.29,180.05L331.36,178.48L332.13,201.54L332.29,201.14L332.37,201.93L332.6,203.92L333.29,103.75L333.37,131.74L333.44,130.61L333.52,121.75L333.75,160.72L333.98,152.81L334.06,167.7L334.45,186.93L334.6,147.21L334.76,161.1L334.83,169.58L334.99,177.32L335.06,154.87L335.37,188.17L335.91,171.5L335.99,155.59L336.76,194.91L336.84,193.52L336.92,166.07L337.07,186.93L337.38,150.61L337.53,160.82L337.61,150.04L338.69,197.58L338.77,191.78L338.84,188.1L339.15,194.39L339.54,189.9L339.61,187.13L340.62,158.66L340.69,162.54L340.77,163.65L340.85,160.71L340.93,152.98L341.08,140.14L341.31,160.8L341.62,146.13L341.7,152.72L341.93,158.42L342,149.47L342.24,154.86L342.31,160.05L342.54,137.45L343.08,145.1L343.16,146.44L343.24,150.44L343.39,138.07L343.7,144.34L343.78,128.03L345.4,180L345.47,172.47L345.55,179.39L345.94,154.87L346.09,162.18L346.17,161.74L346.4,160.01L346.48,167.99L346.63,155.02L347.17,165.93L347.25,165.67L347.33,167.94L347.56,154.9L347.63,160.41L347.71,156.54L348.64,180.03L348.71,159.96L348.79,165.38L349.02,139.71L349.1,141.9L349.18,116.07L350.18,177.37L350.26,175.08L350.33,176.29L350.41,157.73L351.34,180.13L351.41,175.71L351.57,183.35L351.72,159.77L352.11,179.3L352.18,158.16L352.88,198.55L353.03,196.29L353.11,198.08L353.88,203.71L353.96,192.09L354.03,162.69L354.34,199.81L354.73,175.48L354.81,189.25L354.88,187.55L354.96,136.31L355.27,162.41L355.58,117.12L355.65,121.21L355.73,140.82L356.35,128.91L356.5,172.8L356.58,168.96L356.66,160.86L356.89,152.38L357.43,183.83L357.5,182.68L357.58,191.44L357.97,158.45L358.2,164.97L358.28,172.31L358.43,170.14L358.97,197.52L359.05,193.92L359.12,174.27L359.28,190.28L359.59,142.67L359.74,163.67L359.82,146.62L360.9,198.11L361.36,197.9L361.44,194.93L363.21,161.44L363.29,146.45L363.6,160.7L363.83,134L363.91,133.67L364.21,131.11L364.6,144.87L364.68,129.31L365.22,158.48L365.52,152.48L365.6,148.35L365.99,132.57L366.06,119.63L366.14,119.91L366.22,137.75L366.3,137.43L366.37,140.44L366.91,163.62L366.99,139.53L367.22,160.3L367.3,145.69L367.61,176.24L368.15,161.66L368.22,161.4L368.38,154.99L368.61,167.34L368.99,164.72L369.07,165.51L369.15,170.69L369.3,158.46L369.69,169.01L369.77,161.97L370.38,175.63L370.61,167.69L370.69,165.66L370.85,167.48L370.92,155.8L371.08,166.51L371.46,142.58L371.54,146.15L372.62,177.39L372.7,177.21L372.77,171.85L373,168.14L373.47,179.21L373.54,176.99L373.62,178.58L373.7,184.53L374.01,156.66L374.08,173.25L374.16,158.75L375.01,191.95L375.09,191.63L375.63,195.01L375.78,176.61L375.86,196.09L376.01,184.05L376.17,202.39L376.4,200.87L376.48,201.07L376.63,201.32L376.71,187.3L376.78,187.64L376.86,178.97L377.01,191.41L377.09,185.68L377.17,140.79L377.4,179.58L377.86,134.43L377.94,122.76L378.87,188.16L378.94,187.57L379.02,176.07L379.41,196.06L379.56,195.03L379.64,197.22L379.95,203.71L380.64,170.57L380.72,193.23L381.18,201.38L381.33,185.62L381.49,200.22L381.56,180.44L381.8,178.85L381.87,181.07L381.95,184.91L382.03,181.77L382.34,196.82L382.49,192.48L382.57,199.36L382.88,206.18L383.49,204.8L383.57,204.24L383.8,201.86L383.96,204.89L384.26,203.63L384.34,203.69L387.81,204.7L387.89,199.79L388.27,195.79L388.43,201.53L388.66,201.25L388.74,200.1L389.04,202.73L389.43,198.43L389.51,200.91L389.58,201.59L389.66,195.65L390.28,202.28L390.36,201.52L391.05,201.04L391.13,203.17L391.2,202.86L391.28,202.3L391.67,203.12L391.82,202.99L391.9,201.24L391.98,198.85L392.05,203.22L392.59,202.46L392.67,202.04L392.9,201.42L392.98,202.4L393.05,202.08L393.13,200.07L393.29,201.56L393.36,188.99L393.44,184.1L393.67,192.77L393.98,186.85L394.06,193.05L394.83,202.14L394.91,202.31L395.06,200.45L395.14,195.91L395.21,195.6L395.29,199.99L395.6,201.81L395.68,198.8L395.75,198.26L396.22,197.05L396.45,203.32L396.52,202.98L396.6,193.96L396.91,204.68L397.22,189.35L397.37,199.83L397.45,200.01L397.99,199.68L398.53,205.45L398.61,205.39L398.68,205.95L399.15,206.86L399.3,205.1L399.38,188.68L400.15,206.88L400.38,205.27L400.46,205.97L400.61,206.94L400.77,203.54L400.84,201.95L401,181.11L401.31,189.12L401.38,201.86L402.23,206.52L402.31,205.72L402.39,204.9L402.77,206.62L403,206.37L403.08,206.36L403.31,205.1L403.39,206.43L403.47,195.42L404.47,138.43L404.54,156.87L404.62,149.38L404.78,164.73L405.24,157.98L405.32,158.72L405.39,157.24L405.55,164.93L405.62,157.57L405.7,172.64L405.86,155.06L406.16,171.13L406.24,173.16L406.78,186.49L406.86,198.1L406.94,198.28L407.01,196.73L407.09,197.17L407.17,194.96L407.48,195.94L407.55,195.67L407.63,193.77L408.02,195.82L408.4,178.29L408.63,186.46L408.71,187.14L408.79,188.87L408.94,176.52L409.02,174.76L409.09,171.25L409.48,178.68L409.63,177.63L409.71,188.75L409.87,191.02L410.02,187.79L410.1,190.26L410.17,178.14L410.25,162.76L410.64,192.21L410.95,165.78L411.02,174.29L411.49,197.57L411.79,191.5L411.87,168.28L412.56,197.03L412.64,196.67L412.72,193.31L412.8,189.66L413.1,195.32L413.34,194.39L413.41,196.14L413.57,197.49L413.72,195.23L414.03,196.75L414.11,193.93L414.42,196.14L414.57,187.28L414.88,191.77L414.96,192.69L415.19,192.91L415.5,186.9L415.57,175.41L415.73,172.13L415.96,183.41L416.11,181.97L416.19,182.11L417.11,192.02L417.19,190.49L417.27,191.79L417.35,188.63L417.42,176.39L418.12,194.05L418.27,190.77L418.35,181.87L418.43,182.7L418.5,180.67L418.58,175.13L419.12,190.93L419.35,181.17L419.43,189.5L419.89,188.82L420.28,196.06L420.35,192.47L420.43,177.02L420.82,201.7L421.05,201.09L421.12,191.49L421.28,202.26L422.05,142.13L422.13,147.92L422.2,163.44L422.28,154.03L422.74,183.35L422.82,188.09L422.9,189.42L422.98,171.68L423.36,193.82L423.52,171.61L423.82,184.7L423.9,164.49L424.29,187.93L424.52,170.15L424.59,169.22L424.98,190.6L425.06,181.51L425.13,163.43L425.52,192.66L425.91,184.02L425.98,175.41L426.14,186.56L426.21,172.98L426.37,162.23L426.91,185.85L427.06,180.15L427.14,173.26L427.45,188.84L427.91,184.26L427.99,181.92L428.06,181.53L428.3,184.38L428.37,179.62L429.45,11L429.68,63.59L429.76,83.81L430.07,91.81L430.53,35.04L430.69,39.74L430.76,90.85L431,55.55L431.38,106.89L431.46,116.42L431.54,114.15L431.61,66.68L432.15,130.81L432.46,124.09L432.54,125.49L432.69,120.23L432.85,139.94L433,131.63L433.08,134.98L434,160.86L434.08,152.19L434.16,152.94L434.39,160.68L434.7,142.62L434.85,148.7L434.93,149.23L435.47,131.98L435.55,145.48L435.85,152.65L436.32,149.04L436.39,143.38L436.62,141.89L436.93,155.85L437.16,147.56L437.24,147.86L437.4,154.18L437.55,128.15L437.7,148.65L437.78,131.67L438.01,123.66L438.63,148.42L438.71,135.99L439.94,165.12L440.02,158.89L440.4,171.27L440.56,142.25L440.71,158.48L440.79,143.08L441.64,179.17L441.71,177.67L441.79,171.59L442.02,179.14L442.18,165.58L442.25,169.38L442.33,181.28L442.41,178.79L442.56,190.78L442.64,189.29L442.72,196.1L443.18,198.06L443.26,196.51L443.33,181.34L443.56,195.96L443.72,162.46L443.8,112.47L444.34,96.36L444.8,168.46L444.88,173.43L444.95,157.32L445.57,183.62L445.65,158.33L445.72,153.68L446.42,186.85L446.57,183.79L446.65,166.36L447.04,157.83L447.11,170.53L447.19,169.24L447.27,184.64L447.81,191.39L448.04,149.62L448.19,156.12L448.27,172.84L448.65,146.29L448.81,180.46L449.04,156.98L449.12,175.08L449.27,168.17L449.43,183.76L449.5,192.07L449.58,192.59L449.66,184.12L449.81,184.58L451.05,165.56L451.12,166.67L451.2,159.27L451.28,160.08L451.35,153.49L451.43,152.64L452.12,131.86L452.51,132.1L452.59,120.66L452.74,126.51L452.82,137.23L452.9,138.33L452.97,135.65L453.05,122.32L453.44,142.5L453.9,134.93L453.98,135.43L454.67,136.7L454.75,128.57L454.82,136.28L454.9,127.16L455.52,139.13L455.59,140.38L455.83,135.28L455.98,151.95L456.29,139.85L456.37,134.92L456.91,151.63L457.21,145.51L457.29,150.55L457.37,151.13L457.45,144.57L457.6,146.81L457.68,134.29L458.45,160.56L458.53,155.25L458.6,146.71L459.22,161.66L459.3,158.88L459.68,170.5L459.76,142.15L459.84,152.44L459.99,116.24L460.38,131.69L460.45,132.17L461.3,158.4L461.38,146.84L462.23,181.6L462.3,176.68L462.54,177.89L462.61,181.55L462.69,185.12L462.77,148.21L463.61,183.03L463.69,159.53L464.23,190.83L464.31,187.7L464.39,150.7L465,199.77L465.23,199.57L465.31,199L465.47,200.34L465.77,172.77L465.85,195.96L465.93,202.49L466.01,156.45L466.08,125.58L466.31,166.12L466.55,112.55L466.85,141.98L466.93,152.09L467.01,152.39L467.09,170.55L467.39,149.11L467.78,184.78L467.86,169.69L467.93,159.15L468.24,184.19L468.55,176.34L468.63,182.69L468.7,187.21L469.01,166.76L469.17,176.9L469.24,169.23L469.48,161.19L470.09,195.03L470.17,164.7L470.32,173.03L470.4,157.5L470.56,166.82L470.63,146.14L470.86,143.6L471.25,183.46L471.48,174.98L471.56,163.88L472.41,188.15L472.48,184.57L472.87,186.39L472.95,173.55L473.1,175.77" style="vector-effect: none; fill: none; stroke: rgb(239, 85, 59); stroke-opacity: 1; stroke-width: 2px; opacity: 1;"/></g><g class="points"/><g class="text"/></g></g></g><g class="overplot"/><path class="xlines-above crisp" d="M0,0" style="fill: none;"/><path class="ylines-above crisp" d="M0,0" style="fill: none;"/><g class="overlines-above"/><g class="xaxislayer-above"><g class="x2tick"><text text-anchor="middle" x="0" y="333" transform="translate(690.89,0)" style="font-family: 'Open Sans', verdana, arial, sans-serif; font-size: 12px; fill: rgb(42, 63, 95); fill-opacity: 1; white-space: pre; opacity: 1;"><tspan class="line" dy="0em" x="0" y="333">Jan 23</tspan><tspan class="line" dy="1.3em" x="0" y="333">2022</tspan></text></g><g class="x2tick"><text text-anchor="middle" x="0" y="333" style="font-family: 'Open Sans', verdana, arial, sans-serif; font-size: 12px; fill: rgb(42, 63, 95); fill-opacity: 1; white-space: pre; opacity: 1;" transform="translate(846.3499999999999,0)">Jan 30</text></g><g class="x2tick"><text text-anchor="middle" x="0" y="333" style="font-family: 'Open Sans', verdana, arial, sans-serif; font-size: 12px; fill: rgb(42, 63, 95); fill-opacity: 1; white-space: pre; opacity: 1;" transform="translate(1001.8199999999999,0)">Feb 6</text></g></g><g class="yaxislayer-above"><g class="y2tick"><text text-anchor="end" x="601.9" y="4.199999999999999" transform="translate(0,309.65)" style="font-family: 'Open Sans', verdana, arial, sans-serif; font-size: 12px; fill: rgb(42, 63, 95); fill-opacity: 1; white-space: pre; opacity: 1;">0</text></g><g class="y2tick"><text text-anchor="end" x="601.9" y="4.199999999999999" style="font-family: 'Open Sans', verdana, arial, sans-serif; font-size: 12px; fill: rgb(42, 63, 95); fill-opacity: 1; white-space: pre; opacity: 1;" transform="translate(0,228.84)">5k</text></g><g class="y2tick"><text text-anchor="end" x="601.9" y="4.199999999999999" style="font-family: 'Open Sans', verdana, arial, sans-serif; font-size: 12px; fill: rgb(42, 63, 95); fill-opacity: 1; white-space: pre; opacity: 1;" transform="translate(0,148.04)">10k</text></g></g><g class="overaxes-above"/></g></g><g class="polarlayer"/><g class="smithlayer"/><g class="ternarylayer"/><g class="geolayer"/><g class="funnelarealayer"/><g class="pielayer"/><g class="iciclelayer"/><g class="treemaplayer"/><g class="sunburstlayer"/><g class="glimages"/><defs id="topdefs-983610"><g class="clips"/><clipPath id="legend983610"><rect width="92" height="48" x="0" y="0"/></clipPath></defs><g class="layer-above"><g class="imagelayer"/><g class="shapelayer"/></g><g class="infolayer"><g class="legend" pointer-events="all" transform="translate(1095.92,100)"><rect class="bg" shape-rendering="crispEdges" style="stroke: rgb(68, 68, 68); stroke-opacity: 1; fill: rgb(255, 255, 255); fill-opacity: 1; stroke-width: 0px;" width="92" height="48" x="0" y="0"/><g class="scrollbox" transform="" clip-path="url(#legend983610)"><g class="groups"><g class="traces" transform="translate(0,14.5)" style="opacity: 1;"><text class="legendtext" text-anchor="start" x="40" y="4.680000000000001" style="font-family: 'Open Sans', verdana, arial, sans-serif; font-size: 12px; fill: rgb(42, 63, 95); fill-opacity: 1; white-space: pre;">res</text><g class="layers" style="opacity: 1;"><g class="legendfill"/><g class="legendlines"><path class="js-line" d="M5,0h30" style="fill: none; stroke: rgb(99, 110, 250); stroke-opacity: 1; stroke-width: 2px;"/></g><g class="legendsymbols"><g class="legendpoints"/></g></g><rect class="legendtoggle" x="0" y="-9.5" width="86.171875" height="19" style="fill: rgb(0, 0, 0); fill-opacity: 0;"/></g><g class="traces" transform="translate(0,33.5)" style="opacity: 1;"><text class="legendtext" text-anchor="start" x="40" y="4.680000000000001" style="font-family: 'Open Sans', verdana, arial, sans-serif; font-size: 12px; fill: rgb(42, 63, 95); fill-opacity: 1; white-space: pre;">db time</text><g class="layers" style="opacity: 1;"><g class="legendfill"/><g class="legendlines"><path class="js-line" d="M5,0h30" style="fill: none; stroke: rgb(239, 85, 59); stroke-opacity: 1; stroke-width: 2px;"/></g><g class="legendsymbols"><g class="legendpoints"/></g></g><rect class="legendtoggle" x="0" y="-9.5" width="86.171875" height="19" style="fill: rgb(0, 0, 0); fill-opacity: 0;"/></g></g></g><rect class="scrollbar" rx="20" ry="3" width="0" height="0" style="fill: rgb(128, 139, 164); fill-opacity: 1;" x="0" y="0"/></g><g class="g-gtitle"/><g class="g-xtitle"/><g class="g-x2title"/><g class="g-ytitle"/><g class="g-y2title"/></g></svg>