<svg class="main-svg" xmlns="http://www.w3.org/2000/svg" xmlns:xlink="http://www.w3.org/1999/xlink" width="1200" height="400" style="" viewBox="0 0 1200 400"><rect x="0" y="0" width="1200" height="400" style="fill: rgb(255, 255, 255); fill-opacity: 1;"/><defs id="defs-0fe642"><g class="clips"><clipPath id="clip0fe642xyplot" class="plotclip"><rect width="473.09999999999997" height="220"/></clipPath><clipPath id="clip0fe642x2y2plot" class="plotclip"><rect width="473.09999999999997" height="220"/></clipPath><clipPath class="axesclip" id="clip0fe642x"><rect x="80" y="0" width="473.09999999999997" height="400"/></clipPath><clipPath class="axesclip" id="clip0fe642y"><rect x="0" y="100" width="1200" height="220"/></clipPath><clipPath class="axesclip" id="clip0fe642xy"><rect x="80" y="100" width="473.09999999999997" height="220"/></clipPath><clipPath class="axesclip" id="clip0fe642y2"><rect x="0" y="100" width="1200" height="220"/></clipPath><clipPath class="axesclip" id="clip0fe642xy2"><rect x="80" y="100" width="473.09999999999997" height="220"/></clipPath><clipPath class="axesclip" id="clip0fe642x2"><rect x="602.9" y="0" width="473.09999999999997" height="400"/></clipPath><clipPath class="axesclip" id="clip0fe642x2y"><rect x="602.9" y="100" width="473.09999999999997" height="220"/></clipPath><clipPath class="axesclip" id="clip0fe642x2y2"><rect x="602.9" y="100" width="473.09999999999997" height="220"/></clipPath></g><g class="gradients"/><g class="patterns"/></defs><g class="bglayer"><rect class="bg" x="80" y="100" width="473.09999999999997" height="220" style="fill: rgb(229, 236, 246); fill-opacity: 1; stroke-width: 0;"/><rect class="bg" x="602.9" y="100" width="473.09999999999997" height="220" style="fill: rgb(229, 236, 246); fill-opacity: 1; stroke-width: 0;"/></g><g class="layer-below"><g class="imagelayer"/><g class="shapelayer"/></g><g class="cartesianlayer"><g class="subplot xy"><g class="layer-subplot"><g class="shapelayer"/><g class="imagelayer"/></g><g class="minor-gridlayer"><g class="x"/><g class="y"/></g><g class="gridlayer"><g class="x"><path class="xgrid crisp" transform="translate(167.99,0)" d="M0,100v220" style="stroke: rgb(255, 255, 255); stroke-opacity: 1; stroke-width: 1px;"/><path class="xgrid crisp" transform="translate(323.45,0)" d="M0,100v220" style="stroke: rgb(255, 255, 255); stroke-opacity: 1; stroke-width: 1px;"/><path class="xgrid crisp" transform="translate(478.92,0)" d="M0,100v220" style="stroke: rgb(255, 255, 255); stroke-opacity: 1; stroke-width: 1px;"/></g><g class="y"><path class="ygrid crisp" transform="translate(0,244.2)" d="M80,0h473.09999999999997" style="stroke: rgb(255, 255, 255); stroke-opacity: 1; stroke-width: 1px;"/><path class="ygrid crisp" transform="translate(0,179.06)" d="M80,0h473.09999999999997" style="stroke: rgb(255, 255, 255); stroke-opacity: 1; stroke-width: 1px;"/><path class="ygrid crisp" transform="translate(0,113.93)" d="M80,0h473.09999999999997" style="stroke: rgb(255, 255, 255); stroke-opacity: 1; stroke-width: 1px;"/></g></g><g class="zerolinelayer"><path class="yzl zl crisp" transform="translate(0,309.33000000000004)" d="M80,0h473.09999999999997" style="stroke: rgb(255, 255, 255); stroke-opacity: 1; stroke-width: 2px;"/></g><path class="xlines-below"/><path class="ylines-below"/><g class="overlines-below"/><g class="xaxislayer-below"/><g class="yaxislayer-below"/><g class="overaxes-below"/><g class="plot" transform="translate(80,100)" clip-path="url(#clip0fe642xyplot)"><g class="scatterlayer mlayer"><g class="trace scatter trace4805db" style="stroke-miterlimit: 2; opacity: 1;"><g class="fills"/><g class="errorbars"/><g class="lines"><path class="js-line" d="M0,131L0.62,153.21L0.85,144.37L0.93,141.43L1.23,141.79L1.47,123.75L1.77,136.27L1.85,136.35L2.24,145.95L2.31,149.21L3.47,172.52L3.78,170.06L3.86,170.58L4.86,161.57L4.94,161.91L5.09,164.63L5.4,155.04L5.48,154.73L6.17,149.95L6.25,150.65L6.32,152.44L8.41,199.62L8.56,199.38L8.64,199.02L9.49,197.75L9.72,197.85L9.79,198L10.33,199.36L10.56,198.15L10.64,198.01L11.41,201.83L11.72,201.37L11.8,200.36L12.49,192.27L12.72,193.74L12.8,195.45L13.5,202.39L13.65,199.6L13.73,199.28L14.42,194.95L14.96,195.98L15.04,196.03L16.12,189.42L16.19,188.23L16.89,175.58L16.97,174.05L17.66,158.99L17.74,165.81L17.81,168.14L17.89,167.19L17.97,177.57L18.58,172.74L18.82,175.3L18.89,176.08L19.05,177.47L19.43,173.73L19.51,173.5L20.05,169.64L20.2,171.07L20.28,172.8L20.36,172.99L20.44,170.75L21.98,105.23L22.21,117.07L22.29,121.79L22.83,149.42L23.13,136.79L23.21,132.42L23.29,133.73L23.75,130.03L23.83,129.24L23.98,136.83L24.06,141.45L25.83,166.11L25.99,165.01L26.06,164.77L26.22,162.58L26.6,163.84L26.68,165.36L26.76,164.89L26.84,158.53L26.91,162.31L27.45,152.25L27.53,149.65L27.68,142.94L28.07,158.54L28.15,157.28L28.22,156.77L28.3,156.06L28.53,160.48L28.61,161.26L29.38,177.31L29.46,180.53L30.61,202.9L30.69,202.27L31.31,200.81L31.54,201.1L31.62,201.27L32.08,203.57L32.54,203.28L32.62,203.22L33.54,201.58L33.62,201.01L34.08,197.09L34.16,195.72L34.78,188.14L35.09,190.29L35.16,190.98L35.7,199.5L36.32,198.86L36.4,198.9L36.63,197.68L37.17,198.69L37.25,198.37L39.87,176.93L39.95,180.96L40.1,183.58L40.33,179.19L40.41,179.49L40.49,174.9L40.64,172.84L40.72,171.2L40.87,169.47L41.18,174.51L41.33,171.99L41.41,177.49L43.11,148.12L43.18,155.46L44.19,108.78L44.42,118.97L44.5,123.7L45.04,157.48L45.42,145.08L45.5,144.29L45.96,131.91L46.11,138.2L46.19,141.22L47.35,158.77L47.43,158.98L47.58,159.93L47.66,170.6L47.81,171.48L48.27,166.75L48.35,164.82L48.89,165.41L49.82,149.45L49.89,150.75L49.97,156.22L50.28,162.87L50.82,159.73L50.9,159.63L51.82,185.6L51.9,188.27L52.28,196L52.36,197.75L53.36,200.47L53.44,199.83L53.52,199L54.06,197.51L54.29,198.14L54.37,199.2L55.29,201.81L55.37,201.97L55.52,201.11L55.75,203.25L55.83,203.14L55.91,203.26L56.22,202.08L56.29,200.03L56.99,188.8L57.45,192.36L57.53,192.61L57.91,197.91L58.45,196.05L58.53,195.91L58.76,195.14L59.15,196.3L59.22,196.81L59.46,197.86L59.76,196.48L59.84,196.51L59.92,195.18L60.77,186.47L60.92,190.32L61,191.24L61.38,188.16L61.46,178.91L61.69,182.22L62,177.1L62.08,174.73L62.31,172.87L62.39,179.78L62.54,173.74L62.62,171.57L63,167.02L63.31,172.07L63.39,175.32L64.16,168.46L64.24,166.65L65.32,150.79L65.39,157.87L66.32,116.19L66.63,126.63L66.7,131.06L67.24,158.12L67.63,142.73L67.71,138.31L68.17,127.39L68.32,132.82L68.4,135.03L69.87,152.83L69.94,153.21L70.1,156.4L70.41,149.39L70.48,149.77L70.71,147.56L70.87,151.13L70.95,151.17L71.56,165.16L71.72,157.84L71.79,155.4L72.57,123.35L73.03,126.67L73.1,128.31L74.57,145.2L74.65,146.09L75.42,164.98L75.5,167.41L76.04,178.68L76.42,172.72L76.5,172.33L78.35,155.68L78.73,155.73L78.81,156.74L79.12,158.98L79.58,157.33L79.66,157.41L80.43,152.84L80.59,152.89L80.66,152.95L81.43,151.38L81.51,151.49L81.59,152.58L83.21,180.13L83.52,174.48L83.59,173.8L84.29,153.87L84.44,154.7L84.52,153.43L84.6,163.24L85.21,153.39L85.29,151.79L86.14,129.67L86.6,134.14L86.68,137.8L87.22,135.45L87.45,151.07L87.53,201.62L87.6,197.45L87.68,202.49L87.76,145.61L88.68,122.2L88.76,122.43L89.07,119.99L89.14,125.04L89.22,124.76L89.3,126.01L90.07,175.51L90.15,170.06L90.61,112.82L91.07,124.27L91.15,140.11L91.3,164.59L91.38,185.2L92.08,209L92.23,208.57L92.31,208.43L92.77,119.54L93.15,137.36L93.23,141.78L93.77,157.32L94.08,148.23L94.16,146.71L94.23,145.22L94.39,154.43L94.54,154.09L94.62,153.93L94.77,160.23L94.85,170.06L95.85,142.57L96.16,146.81L96.24,148.18L96.62,138.17L97.01,142.96L97.09,143.52L98.09,169.33L98.17,169.16L98.24,157.75L98.55,160.63L98.94,158.61L99.02,157.96L99.09,158.8L99.17,169.26L99.56,164.84L99.94,167.9L100.02,168.47L100.71,177.64L100.87,175.03L100.94,171.65L101.02,172.04L101.1,170.87L101.17,168.22L101.56,160.24L101.64,157.85L102.95,144.69L103.03,144.07L103.26,143.27L103.49,145L103.57,144.96L103.64,145.21L105.34,169.81L105.42,169.74L105.49,168.65L105.57,169.45L105.8,166.9L105.88,155.22L106.73,146.62L106.8,156.19L107.34,153.93L107.42,153.17L108.5,141.22L108.89,143.08L108.96,144.63L109.27,148.85L109.43,138.34L109.5,135.17L109.58,133.99L109.66,142.2L109.73,166.7L110.2,177.51L110.27,137.28L110.35,123.06L110.97,136.4L111.05,138.62L111.66,157.01L111.89,151.04L111.97,149.58L112.36,144.5L112.59,149.49L112.66,152.79L113.05,162.56L113.51,158.86L113.59,158.2L114.44,169.39L114.59,165.07L114.67,160.53L115.52,151.5L115.6,155.45L115.67,157.45L116.06,149.56L116.14,148.18L116.44,150.08L116.83,145.81L116.91,145.98L116.98,148.21L117.21,147.61L117.99,167.52L118.06,170.51L119.3,199.94L119.45,199.38L119.53,197.55L119.68,196.01L119.76,194.63L119.91,194.64L119.99,193.51L120.53,182.54L120.99,185.7L121.07,187.72L121.92,194.08L122,193.99L122.07,193.76L122.15,193.43L122.3,195.64L122.38,197.8L122.69,201.35L123.08,198.4L123.15,197.76L123.69,194.57L123.92,195.85L124,196.28L125.23,200.54L125.31,200.14L125.77,200.44L126.31,197.68L126.39,197.24L126.7,195.32L126.78,194.9L127.24,186.76L127.55,191.13L127.63,190.77L128.7,170.9L128.94,171.16L129.01,181.39L129.86,173.1L130.09,173.97L130.17,174.04L130.4,174.26L130.48,173.44L130.56,173.06L130.63,173.71L130.86,170.49L131.02,171.32L131.1,169.97L132.56,129.85L132.64,122.98L133.02,108.71L133.18,115.86L133.25,120.9L134.57,163.31L134.64,161.84L134.87,168.38L134.95,170.12L135.03,170.86L135.18,167.95L135.34,168L135.41,166.62L135.49,166.37L135.57,160.62L136.11,150.85L136.42,154.95L136.49,162.12L136.72,160.6L138.19,175.15L138.27,170.25L138.88,150.84L139.12,153.59L139.19,158.17L140.04,173.17L140.12,174.35L140.58,185.88L140.66,189.24L141.66,201.97L141.74,200.36L142.51,193.71L142.74,195.69L142.82,196.98L143.05,197.04L143.13,198.12L143.36,201.97L143.9,199.79L143.97,199.97L144.44,199.39L144.51,200.72L144.74,201.87L145.13,198.96L145.21,199L146.13,192.97L146.36,194.01L146.44,194.6L147.75,199.78L147.83,199.81L148.21,199.5L148.29,198.9L149.68,184.09L149.83,187.85L149.91,189.42L150.22,189.14L150.61,194.83L150.68,191.81L150.76,188.67L151.76,173.45L151.84,172.99L152.07,172.02L152.15,173.53L152.22,177.22L152.3,177.93L152.53,175.53L152.61,176.05L152.69,174.23L152.84,175.67L153.77,169.21L153.84,165.39L155.16,115.38L155.46,126.73L155.54,126.36L156.08,154.89L156.54,148.28L156.62,144.1L156.7,145.83L156.85,136.48L156.93,129.12L159.01,166.37L159.24,161.43L159.32,159.48L159.55,154.82L160.01,160.99L160.09,163.16L160.48,169.82L160.86,164.9L160.94,164.32L161.86,155.62L161.94,156.92L163.1,190.53L163.18,193.08L164.1,202.41L164.18,202.12L164.25,202.1L164.33,202.5L164.64,200.49L164.72,200.5L165.18,199.72L165.33,200.6L165.41,201.19L165.64,202.35L166.18,201.94L166.26,201.78L167.03,202.03L167.11,201.57L167.19,201.18L168.03,190.45L168.5,192.56L168.57,192.57L168.96,197.21L169.5,195.67L169.58,195.59L169.81,194.38L169.96,196.53L170.04,196.68L170.42,198.12L170.66,197.44L170.73,196.47L172.43,176.22L172.51,163.73L172.58,161.68L172.89,174.28L172.97,172.83L173.12,167.18L173.43,181.08L173.51,182.19L173.89,179.56L174.28,180.82L174.36,181.44L174.59,182.22L174.74,180.24L174.82,178.44L176.98,134.51L177.06,123.4L177.36,112.37L177.67,124.44L177.75,127.97L177.83,119.84L178.21,147.58L178.29,150.07L179.22,128.01L179.29,135.71L179.99,153.81L180.06,156.61L180.37,153.97L181.3,166.09L181.37,164.33L181.45,162.78L181.68,158.49L182.22,160.54L182.3,162.07L182.53,167.87L182.99,161.26L183.07,158.37L183.15,159.58L183.46,154.56L183.61,155.22L183.69,154.36L183.76,154.22L183.92,155.54L184,157.18L186.08,200.85L186.16,199.75L186.23,200.03L187,200.02L187.08,200.56L187.39,199.93L187.93,200.36L188.01,200.27L188.08,199.05L188.47,201.01L188.7,200.56L188.78,200.41L189.01,202.27L189.32,200.77L189.39,200.71L190.17,195.23L190.55,196.54L190.63,196.85L191.63,199.34L191.71,198.93L191.78,199.09L192.02,198.46L192.56,199.94L192.71,199.38L192.79,198.5L194.1,190.63L194.18,191.62L194.25,192.17L194.41,192.41L194.48,189.79L194.64,188.3L194.72,176.68L195.33,166.47L195.56,168.36L195.64,178.55L196.41,173.4L196.49,173.71L196.57,175.57L196.8,179.2L197.41,177.85L197.49,176.64L197.57,177.15L197.72,173.81L197.8,171.5L197.95,173.29L198.11,172.41L198.19,171.37L199.57,105.27L199.8,116.23L199.88,122.27L200.5,161.06L200.88,149.45L200.96,145.91L201.42,123.01L201.89,133.82L201.96,133.98L203.58,174.75L203.74,174.5L203.81,173.17L204.12,172.16L204.28,175.46L204.35,173.42L204.43,166.72L204.82,168.75L205.13,158.96L205.2,150.99L205.51,145.9L205.74,154.62L205.82,159.28L208.13,201.73L208.21,201.43L208.29,201.34L209.06,197.18L209.29,198.17L209.37,198.8L210.14,202.11L210.22,201L210.29,200.37L210.6,200.94L210.99,199.53L211.06,199.66L211.14,200.84L211.45,200.1L211.53,199.52L211.6,200.16L211.99,197.69L212.07,197.44L212.22,198.07L212.53,196.64L212.61,196L212.76,196.06L213.3,195.35L213.38,196.01L213.61,195.08L214.15,195.57L214.23,195.62L214.84,198.52L215.15,196.97L215.23,196.58L216.08,191.7L216.23,192.73L216.31,193.4L216.62,195.89L217.08,194.96L217.16,193.43L218.62,176.26L218.7,176.75L218.78,177.91L218.85,178.93L219.24,175.53L219.31,174.33L219.39,172.95L219.78,178.54L219.85,178.99L220.7,163.22L220.78,160.68L220.86,170.28L221.32,148.35L221.4,143.35L221.78,111.81L222.17,130.48L222.25,134.17L222.71,153L223.02,145.9L223.09,142.74L223.56,137.84L223.71,144.5L223.79,142.54L223.86,144.22L225.64,170.1L225.95,166.28L226.02,164.86L226.33,159.69L226.72,161.93L226.79,163.26L227.18,170.96L227.33,167.54L227.41,163.29L228.49,123.16L228.65,126.96L228.72,132.93L230.11,179.5L230.27,178.97L230.34,179.59L231.42,186.27L231.73,185.26L231.81,185.08L232.66,182.72L232.73,177.28L233.58,147.97L233.81,155.71L233.89,157.61L234.28,174.09L234.74,162.54L234.81,158.93L235.82,137.32L236.05,137.89L236.13,138.2L236.36,138.24L236.9,136.05L237.05,136.33L237.13,136.61L238.13,141.9L238.21,143.15L238.75,150.86L239.06,146.33L239.13,145.62L240.29,136.78L240.37,136.84L240.44,136.28L240.68,136.66L241.76,134.06L243.84,133.86L244.07,120.1L244.69,120.63L244.76,117.49L244.84,130.68L245.23,74.62L245.3,64.98L245.46,52.17L245.84,79.69L245.92,97.51L246.69,176.8L246.84,150.77L246.92,141.12L247.15,143.56L247.23,131.82L247.54,142.38L247.62,141.41L248,190.82L248.16,182.93L248.23,79.94L248.39,56.48L248.93,82.46L249,83.86L249.24,124.64L249.78,99.71L249.85,99.65L249.93,99.47L250.01,95.99L251.01,36.37L251.09,42.5L251.16,63.48L252.24,144.07L252.47,140.06L252.55,139.56L252.71,139.08L252.78,140.45L252.86,141.52L254.02,167.58L254.25,161.55L254.32,159.22L255.02,141.44L255.48,144.6L255.56,146.94L255.79,148.41L255.87,146.86L255.94,146.89L256.02,144.59L256.1,144.79L256.18,143.98L256.25,143.04L256.48,136.44L257.18,136.98L257.26,136.89L257.33,137.08L257.49,136.09L257.56,134.73L258.1,135.92L258.41,128.42L258.64,130.31L258.72,131.19L258.8,129.9L259.11,134.16L259.26,132.89L259.34,137.36L259.88,134.81L260.19,135.9L260.26,138.26L260.8,152.34L261.27,150.09L261.34,138.55L261.5,136.44L261.57,135.27L262.19,132.58L262.27,143.59L262.5,142.68L262.58,144.02L262.65,144.56L262.73,144.91L262.88,143.72L262.96,141.39L263.12,139.15L263.19,137.03L263.58,137.26L264.04,129.28L264.2,133.09L264.27,134.72L264.89,128.4L265.04,133.74L265.12,135.26L265.2,134.38L265.28,150.83L265.66,205.05L265.89,113.36L265.97,113.83L266.05,115.75L266.2,116.91L266.28,118.52L266.89,140.58L267.28,134.08L267.36,133.74L267.74,124.34L267.9,125.4L267.97,155.69L268.28,164.97L268.36,149.38L268.44,146.76L269.36,155.59L269.44,153.68L270.83,136.67L270.9,137.01L273.14,172.8L273.22,174.04L273.91,189.19L273.99,191.76L274.14,191.2L274.3,192.33L274.37,193.27L274.45,194.19L274.91,191.95L274.99,190.13L275.07,190.62L275.3,188.53L275.61,189.81L275.69,189.49L275.84,189.38L275.99,189.76L276.07,191.05L276.77,195.69L276.84,197.65L277.46,200.07L277.69,199.52L277.77,199.61L278.77,193.07L278.85,192.12L279.08,191.3L279.39,193.23L279.46,193.7L280.39,199.95L280.62,199.87L280.7,199.87L281.08,200.13L281.32,199.47L281.39,199.66L281.47,199.51L283.24,192.35L283.32,186.27L284.17,178.37L284.25,184.39L284.32,185.5L284.4,182.87L284.48,163.32L284.71,99.39L285.33,117.69L285.4,134.4L285.63,181.18L286.33,179.93L286.4,180.54L286.48,181.07L286.56,176.77L286.64,175.03L286.87,177.15L287.02,176.2L287.1,174.13L288.1,125.4L288.18,121.95L288.26,121.79L288.33,119.42L288.49,94.77L288.95,115.86L289.03,124L289.41,160.73L289.87,147.4L289.95,144.43L290.34,133.74L290.49,148.01L290.57,150.73L290.65,147.93L291.03,158.76L291.11,161.49L291.57,173.87L291.65,179.21L291.8,179.44L291.88,182.26L291.96,184.43L292.19,172.85L292.27,173.09L292.34,171.48L292.96,159.77L293.04,169.34L293.11,172.25L293.96,183.15L294.04,179.63L294.12,174.94L294.81,143.33L294.96,147L295.04,150.76L295.97,190.44L296.04,190.67L296.66,195.47L297.05,194.59L297.12,195.19L298.2,189.25L298.28,189.34L298.36,189.65L299.98,200.33L300.44,199.78L300.52,199.27L300.83,199.41L301.37,195.14L301.75,196.22L301.83,196.5L302.21,199.16L302.75,198.67L302.83,198.28L303.14,196.43L303.52,197.37L303.6,197.96L303.83,198.39L304.06,197.86L304.14,196.94L304.84,193.41L304.99,194.45L305.07,195.61L305.22,197.53L305.68,193.04L305.76,180.8L306.15,173.44L306.61,174.99L306.69,185.42L307.46,169.75L307.61,172.57L307.69,177.72L308.38,185.02L308.61,184.86L308.69,184.36L309.62,144.39L309.69,149.72L310.7,87.7L311,106.41L311.08,116.86L311.24,111.75L312.16,143.82L312.32,140.52L312.39,139.8L313.32,159.6L313.4,153.33L313.47,153.44L314.4,183.85L314.78,177L314.86,173.38L315.01,166.1L315.4,175.63L315.55,173.75L315.63,174.66L315.71,173.42L315.86,179.15L315.94,182.3L316.25,176.28L316.33,170.27L316.48,164.67L316.56,161.75L317.87,182.15L317.94,183.26L319.33,200.69L319.49,199.68L319.56,199.4L319.87,199.05L319.95,197.18L320.34,192.85L320.8,194.59L320.88,196.48L321.41,202.22L321.8,201.08L321.88,200.9L322.03,201.01L322.19,200.45L322.26,200.46L322.34,199.98L322.49,200.62L322.65,200.18L322.73,199.31L323.57,193.91L323.88,194.8L323.96,195.3L324.27,197.41L324.35,198.58L325.19,201.54L325.27,201.44L325.35,201.66L325.66,202.54L325.96,201.8L326.04,201.14L326.5,197.25L327.12,197.99L327.2,199.04L327.43,199.52L327.89,195.04L327.97,182.13L328.2,182.87L328.59,173.76L328.82,176.52L328.9,188.83L330.44,174.13L330.9,175.12L330.98,166.42L331.44,170.16L331.59,165.93L331.67,163.56L331.9,165.56L332.91,114.03L333.14,125.55L333.21,130.17L333.37,122.2L333.44,131.06L333.52,136.88L333.75,151.14L334.37,147.96L334.45,143.28L334.99,129.9L335.3,136.03L335.37,138.55L335.53,135.11L335.99,150.94L336.3,149.72L336.38,149.53L336.53,159.16L337.15,155.18L337.22,155.64L337.99,167.09L338.07,164.5L338.15,159.44L338.77,146.66L339,150.53L339.07,153.43L339.23,149.61L339.61,158.03L339.69,160.34L341.54,199.3L341.77,198.46L341.85,198.41L342.62,197.17L342.7,197.58L342.78,198.1L343.55,201.16L343.78,200.97L343.86,199.7L344.24,200.35L344.7,198.16L344.78,199.66L344.86,199.86L345.01,198.66L345.09,197.98L345.86,187.06L346.17,189.21L346.25,189.51L346.63,197.43L347.17,194.68L347.25,194.55L347.4,193.85L347.56,194.09L347.63,196.91L347.87,197.12L348.33,193.54L348.41,192.91L349.41,183.25L349.48,178.56L349.64,180.48L350.1,173.04L350.18,160.71L350.26,160.02L350.41,164.56L350.49,165.09L351.1,183.44L351.49,174.84L351.57,166.9L351.8,164.25L352.18,168.57L352.26,170.2L352.49,174.79L352.57,171.33L354.11,132.78L354.19,135L354.5,138.87L354.57,130.74L354.65,130.31L354.88,136.2L355.04,125.6L355.11,120.01L355.96,143.62L356.27,135.75L356.35,130.62L357.27,149.89L357.35,148.71L357.43,148.13L357.5,151.4L357.58,154.51L358.2,144.44L358.35,147.61L358.43,147.47L358.66,157.02L358.89,155.57L358.97,160.67L359.74,150.06L359.9,152.58L359.97,152.47L360.13,159.2L360.44,151.08L360.51,147.27L360.74,143.86L361.36,154.05L361.44,152.57L361.59,149.51L361.98,154.83L362.05,156.8L362.67,177.56L362.75,181.09L363.75,197.89L363.91,196.93L363.98,196.24L364.14,195.17L364.6,196.69L364.68,197.24L365.83,199.5L365.91,199.58L366.6,201.39L366.84,200.77L366.91,200.19L367.14,200.26L368.22,191.02L368.46,191.72L368.53,193L368.84,197.02L369.46,196.37L369.53,196.27L370.54,193.18L370.61,192.61L371.15,191.62L371.31,192.46L371.39,193.36L371.54,194.69L371.69,193.22L372.16,193.86L372.23,193.49L372.85,188.32L372.93,187.34L373.24,182.77L373.31,174.68L374.01,166.96L374.16,167.3L374.24,175.73L374.93,178.77L375.01,177.58L375.09,175.27L377.25,117.23L377.48,127.22L377.55,132.33L378.17,162.86L378.48,147.04L378.56,140.64L379.1,131.3L379.17,139.09L379.25,140.99L379.41,130.76L379.79,150.45L380.02,145.64L380.1,144.06L380.25,141.85L380.72,145.95L380.79,146.61L380.95,147.25L381.56,139.1L381.72,142.1L381.8,145.18L382.49,162.42L382.57,156.19L382.64,151.07L383.26,124.24L383.72,130.45L383.8,129.93L384.11,133.3L384.34,130.51L387.81,133.09L387.97,128.09L388.58,132.18L388.66,133.58L388.81,136.22L389.2,133.67L389.28,133.41L390.12,137.49L390.36,136.05L390.43,135.59L390.66,133.55L390.74,132.52L392.13,128.33L392.21,128.52L392.75,130.74L392.82,131.14L392.98,130.68L393.21,132.13L393.29,132.56L393.36,132.75L393.44,135.18L394.29,153.44L394.52,150.25L394.6,137.67L394.91,138.75L395.45,132.44L395.52,143.51L396.76,131.44L396.99,133.37L397.06,134.35L397.6,130.01L397.76,134.08L397.84,142.57L397.91,144.32L398.14,131.73L398.22,130.54L398.3,127.26L398.76,137.24L398.84,138L399.61,119.82L399.92,126.22L400,127.98L400.23,129.52L400.3,187.55L401.38,92.74L401.85,108.29L401.92,110.44L402.62,204.02L402.93,202.95L403,203.12L403.23,202.2L403.47,203.4L403.54,195.19L403.7,94.64L403.77,81.71L404.39,109.45L404.47,113.28L404.62,123.63L404.7,139.33L404.85,138.75L405.39,158.22L405.47,163.9L405.78,170.26L405.93,165.2L406.01,161.05L406.7,134.76L407.09,138.49L407.17,140.54L407.4,139.96L408.32,150.97L408.4,153.16L409.79,178.44L409.87,177.58L409.94,175.34L410.71,161.16L411.18,162.67L411.25,163.12L412.02,147.36L412.26,151.95L412.33,152.63L412.49,153.68L412.87,151.91L412.95,151.33L414.11,143.55L414.18,143.87L414.26,143.96L414.57,144.62L414.65,146.94L416.34,165.97L416.5,165.5L416.57,165.04L416.65,164.36L417.04,166.84L417.11,168.77L418.43,157.73L418.5,158.24L419.35,164.05L419.43,162.83L419.51,159.78L420.74,124.31L420.82,162L421.12,168.13L421.2,160.3L421.28,107.1L421.36,103.99L421.59,121.9L421.66,121.41L421.74,124.2L422.59,163.48L422.98,154.36L423.05,151.02L423.44,145.3L423.75,151.19L423.82,153.05L424.83,163.88L424.9,161.8L424.98,161.21L425.21,163.77L425.29,164.64L426.75,130.86L426.83,128.06L426.99,124.87L427.06,98.87L427.14,85.54L427.53,143.11L427.6,150.25L428.99,181.25L429.07,178.7L429.45,117.56L429.53,86.73L430.07,11L430.38,41.29L430.46,58.09L431.3,82.39L431.38,87.02L433.23,191.92L433.31,193.23L434.62,200.94L434.85,200.46L434.93,199.95L435.93,202.11L436.01,201.94L436.08,201.91L436.32,201.36L436.39,201.79L436.47,202.72L437.94,198.94L438.01,197.8L438.78,187.85L439.02,189.81L439.09,190.67L439.86,195.81L439.94,194.06L440.02,192.99L440.56,188.22L440.63,185.75L440.79,183.86L441.25,187.26L441.33,187.23L441.48,186.57L441.56,189.41L441.64,189.76L441.87,187.62L441.95,187.41L443.95,108.21L444.03,109.15L444.1,112.48L444.8,152.03L445.34,149.47L445.42,148.27L446.34,175.23L446.42,174.79L446.5,167.6L446.57,167.97L446.73,166.37L446.8,164.98L447.19,157.72L447.5,165.19L447.65,160.97L447.73,161.39L448.11,159.29L448.65,166.12L448.73,152.78L449.04,157.47L449.43,145.15L449.5,140.51L449.58,138.56L449.73,152.57L449.81,153.09L449.89,152.9L449.97,153.29L450.04,159.47L451.43,191.21L451.51,192.44L452.43,199.26L452.51,199.21L452.59,198.92L453.59,189.49L453.82,190.23L453.9,189.95L454.9,200.09L455.21,199.55L455.29,199.26L455.52,198.8L455.9,199.86L455.98,200L456.83,203.13L457.14,202.57L457.21,202.52L457.52,203.33L457.75,201.96L457.83,201.72L457.99,202.03L458.22,201.43L458.29,200.95L458.6,199.97L458.76,201.25L458.99,201.21L459.07,201.12L459.91,198.05L459.99,196.52L460.61,187.42L461.07,189.22L461.15,190.04L461.84,180.5L461.92,184.49L462,183.77L462.15,187.7L462.77,182.52L462.84,182.52L463.77,185.4L463.85,184.4L465.47,148.36L465.54,145.54L466.16,122.53L466.39,129.98L466.47,135.03L467.01,154.17L467.32,148.19L467.39,143.73L467.47,140.39L467.7,148.86L467.93,148.24L468.01,158.16L468.4,173.24L468.86,164.25L468.94,162.86L469.55,157.72L469.63,159.79L469.71,168.03L469.94,169.38L470.17,167.05L470.25,167.96L470.32,165.14L470.4,165.47L470.48,163.62L470.56,161.06L470.63,160.92L470.71,158.2L470.94,157.39L471.1,163.2L471.4,161.11L471.48,157.64L473.1,174.38" style="vector-effect: none; fill: none; stroke: rgb(99, 110, 250); stroke-opacity: 1; stroke-width: 2px; opacity: 1;"/></g><g class="points"/><g class="text"/></g></g></g><g class="overplot"/><path class="xlines-above crisp" d="M0,0" style="fill: none;"/><path class="ylines-above crisp" d="M0,0" style="fill: none;"/><g class="overlines-above"/><g class="xaxislayer-above"><g class="xtick"><text text-anchor="middle" x="0" y="333" transform="translate(167.99,0)" style="font-family: 'Open Sans', verdana, arial, sans-serif; font-size: 12px; fill: rgb(42, 63, 95); fill-opacity: 1; white-space: pre; opacity: 1;"><tspan class="line" dy="0em" x="0" y="333">Jan 23</tspan><tspan class="line" dy="1.3em" x="0" y="333">2022</tspan></text></g><g class="xtick"><text text-anchor="middle" x="0" y="333" style="font-family: 'Open Sans', verdana, arial, sans-serif; font-size: 12px; fill: rgb(42, 63, 95); fill-opacity: 1; white-space: pre; opacity: 1;" transform="translate(323.45,0)">Jan 30</text></g><g class="xtick"><text text-anchor="middle" x="0" y="333" style="font-family: 'Open Sans', verdana, arial, sans-serif; font-size: 12px; fill: rgb(42, 63, 95); fill-opacity: 1; white-space: pre; opacity: 1;" transform="translate(478.92,0)">Feb 6</text></g></g><g class="yaxislayer-above"><g class="ytick"><text text-anchor="end" x="79" y="4.199999999999999" transform="translate(0,309.33000000000004)" style="font-family: 'Open Sans', verdana, arial, sans-serif; font-size: 12px; fill: rgb(42, 63, 95); fill-opacity: 1; white-space: pre; opacity: 1;">0</text></g><g class="ytick"><text text-anchor="end" x="79" y="4.199999999999999" style="font-family: 'Open Sans', verdana, arial, sans-serif; font-size: 12px; fill: rgb(42, 63, 95); fill-opacity: 1; white-space: pre; opacity: 1;" transform="translate(0,244.2)">0.02</text></g><g class="ytick"><text text-anchor="end" x="79" y="4.199999999999999" style="font-family: 'Open Sans', verdana, arial, sans-serif; font-size: 12px; fill: rgb(42, 63, 95); fill-opacity: 1; white-space: pre; opacity: 1;" transform="translate(0,179.06)">0.04</text></g><g class="ytick"><text text-anchor="end" x="79" y="4.199999999999999" style="font-family: 'Open Sans', verdana, arial, sans-serif; font-size: 12px; fill: rgb(42, 63, 95); fill-opacity: 1; white-space: pre; opacity: 1;" transform="translate(0,113.93)">0.06</text></g></g><g class="overaxes-above"/></g><g class="subplot x2y2"><g class="layer-subplot"><g class="shapelayer"/><g class="imagelayer"/></g><g class="minor-gridlayer"><g class="x2"/><g class="y2"/></g><g class="gridlayer"><g class="x2"><path class="x2grid crisp" transform="translate(690.89,0)" d="M0,100v220" style="stroke: rgb(255, 255, 255); stroke-opacity: 1; stroke-width: 1px;"/><path class="x2grid crisp" transform="translate(846.3499999999999,0)" d="M0,100v220" style="stroke: rgb(255, 255, 255); stroke-opacity: 1; stroke-width: 1px;"/><path class="x2grid crisp" transform="translate(1001.8199999999999,0)" d="M0,100v220" style="stroke: rgb(255, 255, 255); stroke-opacity: 1; stroke-width: 1px;"/></g><g class="y2"><path class="y2grid crisp" transform="translate(0,228.84)" d="M602.9,0h473.09999999999997" style="stroke: rgb(255, 255, 255); stroke-opacity: 1; stroke-width: 1px;"/><path class="y2grid crisp" transform="translate(0,148.04)" d="M602.9,0h473.09999999999997" style="stroke: rgb(255, 255, 255); stroke-opacity: 1; stroke-width: 1px;"/></g></g><g class="zerolinelayer"><path class="y2zl zl crisp" transform="translate(0,309.65)" d="M602.9,0h473.09999999999997" style="stroke: rgb(255, 255, 255); stroke-opacity: 1; stroke-width: 2px;"/></g><path class="xlines-below"/><path class="ylines-below"/><g class="overlines-below"/><g class="xaxislayer-below"/><g class="yaxislayer-below"/><g class="overaxes-below"/><g class="plot" transform="translate(602.9,100)" clip-path="url(#clip0fe642x2y2plot)"><g class="scatterlayer mlayer"><g class="trace scatter tracedeadbf" style="stroke-miterlimit: 2; opacity: 1;"><g class="fills"/><g class="errorbars"/><g class="lines"><path class="js-line" d="M0,162.59L0.54,105.38L0.69,163.42L0.77,147.58L0.85,159.95L1,143.02L1.23,185.64L1.77,181.62L1.85,186.33L1.93,150.78L2.24,190.1L2.62,159.51L2.7,159.97L2.85,156.48L3.01,168.72L3.08,163.96L3.16,143.7L3.47,185.37L3.93,174.03L4.01,171.99L4.09,173.49L4.16,149.23L4.24,131.14L4.63,164.02L4.7,149.51L4.78,183.16L4.94,170.59L5.09,176.27L5.17,186.84L5.48,202.53L5.78,186.05L5.94,191.25L6.01,192.54L7.17,162.62L7.25,163.38L8.41,122.35L8.56,123.6L8.64,134.69L8.87,126.54L9.25,153.54L9.49,150.77L9.56,153.25L9.64,157.46L9.79,128.9L10.18,154.78L10.26,141.68L10.72,137.04L11.18,157.8L11.26,156.2L11.41,148.49L11.8,177.22L12.03,160.06L12.11,149.06L12.18,158.93L12.8,143.51L12.88,149.38L13.11,156L13.19,150.72L13.26,143.17L14.19,167.53L14.27,170.27L14.42,147.92L14.88,159.99L14.96,167.94L15.11,165.48L15.27,171.49L15.35,166.23L15.42,174.41L15.5,177.16L15.73,168.5L15.81,140.86L16.27,127.61L16.66,168.57L16.73,152.65L17.51,189.3L17.58,186.16L17.66,171.5L18.04,191.6L18.43,187.25L18.51,184.36L18.58,157.34L19.12,186.78L19.2,179.81L19.28,184.55L19.36,191.17L19.51,171.47L19.97,182.84L20.05,171.42L20.9,200.82L20.98,201.07L21.05,201.26L21.13,200.76L21.21,200.88L21.28,203.26L21.67,204.08L21.82,125.14L22.29,148.46L22.36,150.7L22.59,108.15L22.98,140.65L23.06,156.77L23.21,138.27L23.6,180.14L23.67,170.04L23.75,150.85L24.52,190.91L24.6,187.09L24.68,172.8L25.22,174.35L25.37,155.5L25.45,172.36L25.68,181.12L25.76,175.95L25.83,189.78L26.06,158.74L26.14,172.59L26.22,179.6L26.3,180.31L26.37,162.09L26.53,139.25L26.91,148.97L26.99,170.76L27.53,201.59L27.76,191.5L27.84,187.61L27.92,187.48L27.99,188.06L28.07,191L28.22,192.41L28.3,184.19L28.53,191.52L28.76,173.26L28.92,182.82L29,179.11L30.61,131.36L30.69,143.99L30.77,145.9L30.92,157.5L31.08,144.84L31.46,151.61L31.54,133.09L32.16,158.7L32.31,145.04L32.39,143L32.93,127.4L33.08,147.09L33.16,143.91L33.24,141L33.54,155.88L33.62,153.93L33.7,156.83L33.85,140.68L34.47,178.64L34.7,174.46L34.78,163.84L35.16,164.8L35.32,152.92L35.55,153.28L35.63,157.97L35.7,144.98L36.24,165.99L36.32,162.56L36.4,167.13L36.48,168.31L36.55,165.08L36.63,154.74L36.86,153.13L37.48,173.03L37.71,170.67L37.79,151.59L37.94,160.32L38.02,134.21L38.09,122.14L38.25,111.78L38.87,167.77L38.94,137.42L39.71,178.1L39.79,170.04L39.87,164.57L40.1,164.09L40.64,178.43L40.72,176.48L40.79,149.11L41.1,180.51L41.18,180.24L41.26,80.91L41.56,189.61L42.03,184.27L42.1,177.08L42.49,165.65L42.95,200.23L43.11,198.22L43.18,196.54L43.49,198.68L43.57,173.75L43.88,202.5L44.03,130.95L44.19,158.98L44.26,157.52L44.42,168.09L44.57,122.9L44.65,136.37L44.73,110.78L45.57,177.11L45.88,168.89L45.96,158.12L46.04,182.17L46.35,154.56L46.73,180.25L46.81,181.31L47.58,157.32L47.66,177.73L48.12,185.97L48.27,150.54L48.43,171.03L48.51,162.58L48.58,118.88L49.2,162.63L49.28,166.09L50.28,192.12L50.36,192.34L51.51,164.03L51.59,165.13L51.67,164.6L51.82,165.03L52.36,134.47L52.44,143.19L52.52,148.73L53.36,126.22L53.44,138.13L53.83,117.89L54.06,145.67L54.13,149.76L54.52,130.29L54.98,132.84L55.06,137.17L55.14,130.86L55.68,143.51L55.75,150.61L55.99,155.4L56.06,124.78L56.68,176.64L56.91,171.9L56.99,163.9L57.45,150.88L57.53,161.29L57.91,152.19L58.07,167.56L58.14,163.36L58.22,165.87L58.84,146.89L59.07,158.58L59.15,161.3L59.3,157.33L59.84,176.59L59.92,174.59L60,148.41L60.15,154.91L60.23,118.76L60.38,130.21L60.46,109.33L60.54,98.41L60.84,150.42L60.92,131.19L61,151.84L61.15,149.55L61.92,184.51L62,177.86L62.08,168.45L62.62,189.28L62.69,183.11L62.77,182.9L62.85,185.95L62.93,183.63L63,161.23L63.39,182.65L63.47,98.11L63.54,167.23L63.62,187.6L63.77,192.66L63.85,184.54L63.93,170.08L64.08,190.6L64.47,167.71L64.62,177.46L64.7,174.07L65.86,202.07L65.93,180.84L66.09,190.87L66.78,113.34L66.94,125.99L67.01,134.79L67.94,181.48L68.02,172.94L68.09,172.85L68.86,196.65L69.02,193.58L69.09,176.29L69.17,175.9L69.25,171.71L69.71,161.48L70.1,199.83L70.33,194.35L70.41,181.46L70.56,198.46L70.79,160.8L71.02,176.87L71.1,175.07L71.95,205.59L72.03,205.35L72.1,203.68L72.57,204.46L72.8,202.09L72.87,189.86L73.72,199.6L73.8,198.91L73.88,198.87L74.72,191.03L74.8,185.77L74.88,192.37L75.11,168.17L75.42,177.21L75.5,178.52L75.73,175.01L75.88,175.5L75.96,169.69L76.27,189.78L76.73,188.93L76.81,188.75L77.19,190.48L77.27,189.96L77.35,184.38L78.12,195.2L78.19,193.97L78.66,194.97L78.73,188.51L78.97,191.13L79.04,193L79.2,190.98L79.51,195.17L79.81,194.48L79.89,193.22L80.12,192.94L80.66,195.96L80.74,195.02L81.05,193.65L81.12,196.31L81.43,194.17L81.51,190.8L82.05,194.39L82.13,193.15L82.2,184.64L82.28,185.82L82.36,184.9L82.44,166.12L82.59,161.62L82.9,176.69L82.98,178.45L83.13,177.45L83.21,187.98L83.28,190.08L83.59,183.39L83.75,189.94L83.82,183.74L84.21,193.02L84.67,190.97L84.75,187.78L85.06,196.15L85.21,180.82L85.29,185.31L85.37,180.86L85.67,128.21L85.83,191.41L85.91,190.41L86.21,182.62L86.68,201.62L86.75,196.11L86.83,195.31L86.91,199.37L87.06,197.58L87.14,201.03L87.29,196.8L87.45,203.73L87.76,197.27L87.83,201.31L88.14,201.1L88.3,203.99L88.37,203.55L88.45,187.2L89.22,205.67L89.3,205.41L89.38,201.77L89.53,206.36L89.76,206.21L89.84,187.15L90.07,200.5L90.46,172.29L90.53,199.73L91.3,208.76L91.38,208.4L91.92,208.68L92.23,200.99L92.31,191.74L92.38,206.95L92.85,167.03L93,183.94L93.08,171.92L93.23,181.02L93.54,145.98L93.62,155.36L93.69,150.53L93.93,170.35L94.08,148.37L94.31,153.93L94.39,152.48L94.77,147.7L96.24,198.34L96.47,194.36L96.55,193.25L97.24,164.35L97.7,169.58L97.78,174.66L98.01,152.99L98.09,123.82L98.17,30.42L98.55,175.49L98.78,172.74L98.86,172.82L99.02,173.07L99.09,167.78L99.25,168.43L99.32,142.98L99.48,163.84L99.63,162.03L99.71,142.4L99.94,183.39L100.48,173.92L100.56,175.41L100.94,173.92L101.56,197.7L101.64,197.63L102.1,194.96L102.33,195.68L102.41,197.68L102.64,199.17L102.79,196.86L103.1,198.18L103.18,197.03L103.57,197.86L103.72,187.57L103.87,197.14L103.95,196.64L104.11,197L104.18,195.3L104.26,195.74L104.34,193.99L104.41,185.71L104.57,187.18L104.64,177.93L105.11,173.83L105.34,190.05L105.42,188.89L105.49,178.13L106.34,197.1L106.42,192.36L106.5,192.17L106.57,192.9L106.65,195.14L106.73,194.58L107.11,197.01L107.19,197.5L107.27,198.42L107.34,193.87L107.42,185.07L107.88,181.84L108.12,198.8L108.19,198.18L108.27,197.23L108.35,186.61L108.96,191.28L109.04,196.05L109.12,197.97L109.27,183.69L109.35,185.02L109.66,204.03L110.2,202.77L110.27,186.05L110.43,201.99L110.66,165.65L110.97,188.51L111.05,189.13L111.12,149.57L111.82,175.25L111.89,185.83L112.05,171.01L112.28,185.96L112.36,190.24L112.43,191.22L112.51,175L112.59,173.85L112.66,187.91L112.74,186.02L112.82,190.96L112.9,189.16L112.97,163.11L113.13,166.68L113.2,176.58L113.44,187.69L113.67,165.22L114.05,187.32L114.13,181.62L114.36,179.01L114.44,186.45L114.59,186.17L114.67,197.27L114.82,168.89L115.29,171.25L115.36,180.16L115.6,189.74L115.75,162.91L116.06,182.34L116.14,188.35L116.21,180.6L116.6,199L116.83,194.07L116.91,194.8L117.83,175.78L117.91,171.51L119.45,87.38L119.68,100.31L119.76,117.6L119.91,102.57L119.99,120.46L120.3,118.17L120.38,97.66L120.84,95.1L121.07,122.97L121.15,119.54L121.22,111.68L121.3,83.55L121.84,142.22L121.92,150.28L122.23,138.02L122.3,150.45L122.38,151.59L122.54,156L122.69,148.19L122.77,163.76L123.15,157.25L123.46,171.97L123.54,170.07L123.62,165.19L124.54,140.24L124.62,159.4L124.69,160.53L124.77,153.63L124.93,154.8L125,152.12L125.23,160L125.39,153.66L125.47,139.57L126.08,169.41L126.31,165.57L126.39,169.07L126.47,171.43L126.62,155.24L126.78,165.16L126.85,135.66L127.09,101.16L127.32,137.03L127.39,158.46L127.86,157.1L128.55,187.88L128.63,180.63L128.94,170.48L129.09,184.41L129.32,179.3L129.4,184.13L129.48,186.29L129.55,183.15L129.63,156.39L129.71,157.48L129.78,172.89L129.94,183.56L130.02,177.75L130.09,160.2L130.4,189.54L130.86,181.76L130.94,175.06L131.25,155.48L131.87,199L131.94,200.9L132.17,202.17L132.33,200.97L132.41,180.89L132.48,200.51L132.95,132.73L133.02,142.85L133.1,154.81L133.25,169.6L133.56,106.76L133.79,151.38L133.87,148.04L134.26,138.05L134.64,174.5L134.72,159.25L134.8,148.23L135.11,185.13L135.26,170.84L135.34,184.42L135.41,184.66L135.49,188.11L135.72,162.86L135.8,163.99L135.88,149.59L136.88,188.36L136.96,186.42L137.73,138.59L137.8,167.23L138.11,133.44L138.42,160.73L138.5,168.13L139.42,186.72L139.58,186.69L139.66,184.96L141.04,134.16L141.12,137.35L141.2,139.44L141.43,140.39L141.66,103.13L141.97,133.66L142.05,141.71L142.2,113.49L142.74,138.57L142.82,137.86L142.89,142.29L143.2,124.3L143.43,137.99L143.51,120.84L143.82,145.82L144.36,143.04L144.44,139.31L144.74,162.19L144.9,133.49L145.21,154.15L145.28,147.77L145.36,132.61L145.9,158.68L146.06,137.04L146.13,140.72L146.83,162.79L146.98,159.89L147.06,158.58L147.37,156.38L147.52,161.46L147.6,160.57L147.68,152.22L148.29,171.21L148.52,170.53L148.6,173.55L148.83,158.67L148.99,167.62L149.06,137.88L149.53,101.65L149.76,141.7L149.83,161.57L150.37,142.69L150.45,145.81L150.53,162.22L150.76,184.94L151.38,178.28L151.45,180.23L151.53,177.18L151.69,184.33L151.76,177.23L151.84,148.81L152.61,191.17L152.69,183.93L152.76,169.47L153.38,168.6L153.69,192.68L153.77,198.52L153.92,195.87L154.08,201.08L154.15,201.06L154.23,201.46L154.62,198.85L154.69,202.22L154.77,180.3L154.85,178.97L154.92,191.02L155,185.41L155.08,123.44L155.23,164.99L155.7,113.05L155.85,149.65L155.93,146.33L156.08,138.71L156.23,166.36L156.47,142.91L156.54,162.79L157.01,161.08L157.31,183.58L157.39,161.62L157.55,172.14L157.62,176.95L157.85,183.15L157.93,165.3L158.01,165.7L158.09,151.41L159.01,190.03L159.09,189.16L159.17,191.04L159.24,163.69L159.4,188.95L159.7,144.46L159.86,154.62L159.94,142.71L160.86,194.07L160.94,197.43L161.56,186.73L161.71,193.24L161.79,192.42L163.41,136.23L163.48,147.5L163.71,158.34L163.79,153.36L163.87,144.28L163.95,134.66L164.25,150.76L164.56,140.04L164.64,145.52L164.72,144.78L164.79,136.92L165.41,154.38L165.57,142.73L165.64,135.62L165.72,134.22L165.87,140.88L166.03,140.8L166.11,147.14L166.18,138.65L166.26,153.11L166.72,150.37L166.8,155.14L166.88,155L166.95,149.85L167.11,125.58L167.72,175.34L167.96,171.02L168.03,157.21L168.19,167.39L168.65,156.98L168.73,157.76L168.8,156.38L168.88,155.61L168.96,140.45L169.65,165.82L169.73,161.95L169.81,166.31L169.88,152.21L170.42,172.07L170.5,171.65L170.58,169.83L170.66,172.92L170.89,169.26L170.96,170.24L171.04,150.68L171.2,160.79L171.27,140.91L171.58,110.46L171.89,146.36L171.97,148.72L172.97,184.98L173.05,181.44L173.12,170.71L173.66,182.57L173.74,178.93L173.82,179.87L173.89,182.23L173.97,180.86L174.05,140.54L174.82,191.84L174.9,184.63L174.97,170.81L175.51,191.48L175.59,190.99L175.67,174.18L175.82,161.38L175.9,186.56L175.98,198.79L176.13,192.38L176.36,203L176.59,200.74L176.67,201.29L176.82,199.08L176.9,201.87L177.13,202.98L177.75,105.36L177.83,121.73L177.9,126.64L177.98,119.04L178.29,143.7L178.37,167.45L178.6,168.93L178.68,157.38L178.75,158.87L178.83,174.44L179.22,152.82L179.45,182.69L179.52,180.71L179.6,150.38L179.99,191.86L180.37,168.8L180.45,169.09L180.83,149.32L180.91,176.21L180.99,166.88L181.07,184.13L181.3,190.85L181.37,187.6L181.45,158.64L181.61,181.43L181.91,143.15L182.07,154.47L182.15,142.28L183.15,197.88L183.23,196.18L183.38,192.86L183.46,190.97L184.23,173.17L184.3,174.32L184.38,176.69L186.08,115.8L186.16,130.13L186.23,135.27L186.46,151.15L186.7,131.34L186.93,139.89L187,122.15L187.39,150.09L187.77,142.66L187.85,146.85L188.08,147.78L188.39,132.35L188.47,147.75L188.55,153.27L189.09,162.91L189.24,160.02L189.32,144.37L189.47,166.03L190.09,164.99L190.17,161.67L190.4,161.69L191.17,131.24L191.24,144.31L191.32,159.81L191.4,160.36L191.48,159.86L191.55,154.98L191.63,157.93L191.86,141.7L192.02,152.14L192.09,141.61L192.71,173.33L192.94,167.35L193.02,169.43L193.1,177.26L193.48,147.96L193.56,149.33L193.64,155.46L193.94,135.57L194.25,167.5L194.41,147.25L194.48,166.38L194.64,160.4L195.18,187.4L195.25,183.2L195.33,170.13L195.72,186.46L196.1,182.04L196.18,180.85L196.33,145.95L196.87,175.56L196.95,184.16L197.03,187.63L197.18,164.47L197.41,180.81L197.49,167.49L197.88,153.78L198.42,200.87L198.49,203.29L198.8,203.22L198.88,201.8L198.96,202.47L199.03,199.74L199.11,195.81L200.19,112.14L200.27,126.27L200.34,124.76L200.42,145.28L200.88,141.1L201.19,175.93L201.35,167.72L201.42,155.15L201.73,195.54L202.2,185.8L202.27,185.94L203.04,150.57L203.12,161.2L203.2,161.09L203.43,181.04L203.58,179.71L203.66,140.63L203.97,184.57L204.2,117.57L204.28,132.05L204.35,126.45L205.36,196.84L205.43,193.29L205.97,176.63L206.21,180.71L206.28,186.47L207.21,153.25L207.28,157.13L208.36,113.4L208.44,118.43L208.52,144.02L208.83,129.66L209.21,132.68L209.29,148.51L209.52,153.76L209.6,152.31L209.68,142.52L209.83,130.42L210.06,144.66L210.14,138.46L210.22,142.73L210.37,146.76L210.52,134.58L210.6,112.19L211.14,162.32L211.45,159.55L211.53,140.27L211.6,141.62L211.68,138.01L211.76,155.71L211.91,158.77L212.22,144.1L212.3,166.87L212.37,168.96L212.61,160.97L212.91,164.81L212.99,159.06L213.38,143.81L213.69,162.45L213.76,163.18L214.23,167L214.3,159.33L214.46,162.17L214.53,152.52L215.38,175.7L215.46,162.86L215.54,166.65L215.61,157.86L215.69,132.65L216.54,163.71L216.62,143.8L217.31,184.4L217.46,178.59L217.54,178.12L217.7,187.26L217.77,134.53L218.24,176.82L218.31,179.78L218.47,122.3L218.7,155.61L218.78,170.28L218.93,163.21L219.24,180.97L219.31,176.91L219.39,149.82L219.93,182.15L220.24,180.47L220.32,181.89L220.93,201.63L221.17,201.14L221.24,188.05L221.32,194.52L221.4,164.09L221.63,185.26L221.71,137.31L222.01,173.22L222.25,101.43L222.4,117.36L222.48,132.88L222.71,151.98L222.78,165.44L223.02,169.53L223.48,145.07L223.56,158.03L223.63,164.85L223.71,163.86L223.79,174.07L224.02,170.35L224.33,189.03L224.48,186.06L224.56,167.51L224.64,165.64L224.79,175.65L225.02,169.11L225.1,173.32L225.41,145.36L225.48,186.35L225.87,177.52L226.26,195.58L226.33,181.8L226.41,136.82L227.03,184.73L227.1,193.59L227.95,205.41L228.11,205.03L228.18,204.55L228.26,204.02L228.34,197.24L229.19,176.21L229.26,175.38L229.65,182.7L229.96,180.25L230.03,175.91L230.34,182.04L230.57,164.57L230.65,166.78L230.73,157.07L231.27,176.87L231.5,169.2L231.58,170.6L231.96,174.82L232.19,174.29L232.27,160.15L232.5,168.49L232.66,116.7L233.12,143.3L233.2,141.95L234.04,191.64L234.12,189.5L234.2,183.68L234.97,200.32L235.2,199.59L235.28,198.87L235.59,197.32L236.13,201.01L236.2,200.62L236.28,201.25L236.51,199.99L236.82,200.45L236.9,199.08L236.97,196.76L237.28,200.32L237.59,199.34L237.67,198.52L237.75,199.09L237.82,197.94L237.9,193.72L237.98,190.46L238.52,196.24L238.59,197.29L239.44,200.81L239.52,201.22L240.52,203.79L240.6,200.91L241.45,204.76L241.52,202.95L241.6,201.36L241.76,204.2L243.84,200.4L243.91,183.61L244.53,201.44L244.61,204.36L244.69,207.24L245.07,195.03L245.38,205.9L245.46,205.87L245.92,208.4L246.23,208.18L246.31,208.37L246.61,209L246.69,192.37L246.77,184.84L247.08,207.07L247.23,206.94L247.31,206.55L247.77,207.09L248,204.11L248.08,167.18L248.46,167.64L248.93,134.17L249,134.34L249.39,156.99L249.47,131.82L249.85,142.62L249.93,140.39L250.16,115L250.24,140.65L250.39,131.75L250.55,154.83L250.62,159.95L251.63,199.24L251.93,197.57L252.01,197.48L252.17,197.65L252.24,197.09L252.32,200.8L252.4,201.3L252.63,200.32L252.71,189.3L253.01,193.47L253.09,185.8L253.17,180.56L253.55,186.11L253.71,178.51L253.79,177.85L254.17,197.37L254.71,194.55L254.79,179.42L254.94,199.18L255.48,172.43L255.56,183.18L256.25,201.61L256.33,201.23L256.41,194.87L256.95,200.77L257.18,198.98L257.26,199.93L257.33,196.66L257.95,201.04L258.03,200.75L258.1,200.91L258.18,200.47L258.26,193.97L258.8,200.86L259.03,200L259.11,196.13L259.18,192.14L259.57,201.85L259.72,200.46L259.8,200.78L260.11,185.92L260.65,192.89L260.73,198.61L260.88,200.93L260.96,199.45L261.03,191.26L261.65,201.29L261.88,200.7L261.96,192.32L262.81,201L262.88,200.46L262.96,197.72L263.42,204.37L263.58,201.28L263.66,200.65L263.81,194.67L264.35,205.28L264.43,203.12L264.5,200.52L264.74,198.24L265.12,205.9L265.43,205.56L265.51,205.85L265.58,205.35L265.66,194.7L266.05,205.69L266.35,188.56L266.43,195.05L266.59,191.77L266.66,172.67L267.43,200.76L267.51,188.08L267.59,189.06L267.9,194.51L268.05,179.3L268.13,186.68L268.21,195.38L268.36,196.95L268.44,180.61L268.75,194.4L268.82,196.5L269.13,172.96L269.29,178.31L269.36,193.85L269.67,183.17L270.21,202.53L270.29,197.17L270.6,194.23L270.67,197.14L270.75,186.04L270.98,180.48L271.37,195.44L271.52,190.61L271.6,191.71L271.91,192.14L272.83,180.49L272.91,184.12L273.91,146.16L273.99,134.84L274.45,107.83L274.76,117.26L274.84,125.52L274.91,92.24L275.3,127.62L275.53,115.95L275.61,116.93L275.84,113.44L276.61,148.62L276.69,148.07L276.77,127.48L278.08,166.77L278.15,163.55L278.54,171.69L278.85,163.33L278.92,164.82L279,164.92L279.62,143.51L279.85,146.47L279.93,149.85L280,135.4L280.24,152.27L280.62,151.75L280.7,153.73L281.01,145.34L281.24,159.75L281.39,154.13L281.47,162.43L281.86,146.94L281.93,159.96L282.55,117.81L282.78,134.51L282.86,145.05L282.93,142.72L283.09,160.24L283.17,164.19L283.24,145.69L283.78,175.63L283.86,170.48L283.94,171.39L284.01,176.44L284.25,139.79L284.32,148.11L284.4,137.86L284.55,134.36L284.63,135.34L284.71,149.52L284.79,149.66L284.86,165.51L284.94,172.03L285.25,142.8L285.33,137.93L286.17,179.71L286.25,171.69L286.56,184.09L286.71,139.96L286.94,179.6L287.02,190.24L287.18,186.79L287.41,198.41L287.48,199.98L287.72,202.74L287.79,202.63L287.87,186.72L287.95,202.7L288.33,146.76L288.41,110.05L289.1,108.87L289.18,153.01L289.26,154.02L289.49,138.87L289.64,164.67L289.87,164.18L289.95,164L290.03,167.14L290.18,163.78L290.26,135.68L290.57,167.4L290.65,127.95L291.11,164.74L291.19,150.17L291.26,151.75L291.34,142.38L291.42,136.74L291.57,130.22L291.73,147.69L291.96,143.35L292.03,116.94L292.88,180.92L292.96,171.15L293.04,173.87L293.27,158.8L293.35,161.31L293.42,159.24L293.81,164L293.88,155.85L293.96,196.85L294.04,197.95L294.27,192.19L294.35,194.76L294.42,181.3L295.27,158.58L295.35,165.81L295.43,166.11L296.04,146.7L296.12,153.18L296.2,142.37L296.66,120.95L296.97,131.4L297.05,135.6L297.28,116.19L297.82,119.33L297.89,116.92L298.05,110.06L298.43,132.69L298.51,103.94L299.21,139.66L299.36,136.7L299.44,132.08L299.67,131.43L300.44,164.43L300.52,164.22L300.59,160.87L301.21,137.67L301.37,146.48L301.44,149.23L301.75,127.12L302.21,133.93L302.29,147.63L302.52,148.17L302.6,145.5L302.68,144.82L302.83,161.15L303.45,152.44L303.52,153L303.6,152.67L303.68,164.14L303.91,159.64L304.22,172.46L304.3,154L304.37,157.96L304.53,129.05L304.68,143.21L304.76,127.74L304.84,126.37L304.99,134.62L305.07,144.67L305.3,122.47L305.68,153.22L305.76,161.99L305.91,166.59L306.07,142L306.15,140.56L306.38,134.08L306.99,159.53L307.07,158.44L307.23,165.56L307.3,128.8L307.53,128.3L308.07,167.21L308.15,165.94L308.23,145.65L309.23,190.05L309.31,191.09L309.39,190.54L309.46,198.41L309.69,201.38L309.77,201.11L309.85,196.68L309.92,201.71L310.31,176.91L310.46,191.03L310.54,123.01L310.62,123.79L310.7,160.06L310.85,173.68L310.93,161.39L311,135.14L311.16,115.22L311.31,151.88L311.54,148.36L311.62,167.95L312.01,125.44L312.39,148.49L312.47,151.45L312.86,137.43L313.24,174.89L313.32,162.76L313.4,165.75L314.32,146.69L314.4,176.99L314.47,176.83L314.55,163.87L314.63,164.36L314.71,146.23L315.17,175.02L315.55,159.22L315.63,148.14L316.25,195L316.56,187.44L316.63,168.28L316.71,160.33L317.17,176.84L317.25,175.91L317.33,178.38L318.02,159.53L318.1,154.64L318.41,156.52L318.56,152.08L318.64,148.49L318.72,149.26L318.79,147.18L318.87,123.65L319.26,147.05L319.64,128.21L319.72,139.78L320.03,123.46L320.41,135.48L320.49,139.7L320.72,135.77L320.88,142.36L320.95,142.29L321.03,145.71L321.49,146.56L321.65,125.59L321.88,136.18L321.95,140.13L322.03,140.62L322.11,149.11L322.19,147.52L322.26,155.68L322.42,152.02L322.49,165.2L322.57,156.42L323.19,168.84L323.27,167.23L323.34,169.83L323.65,159.91L323.73,156.31L324.42,146.16L324.5,151.3L324.58,157.69L325.42,144.61L325.5,152.09L325.58,152.23L325.66,151.73L325.73,159.43L325.81,152.7L326.35,166.18L326.43,165.27L326.97,122.02L327.2,133.91L327.28,139.33L327.66,138.6L328.2,176.05L328.28,170.39L328.36,173L328.59,161.82L329.2,178.64L329.28,176.9L329.43,175.81L329.51,153.38L330.13,182.07L330.36,174.77L330.44,155.47L330.9,119.02L330.98,183.07L331.29,180.05L331.36,178.48L332.13,201.54L332.29,201.14L332.37,201.93L332.6,203.92L333.29,103.75L333.37,131.74L333.44,130.61L333.52,121.75L333.75,160.72L333.98,152.81L334.06,167.7L334.45,186.93L334.6,147.21L334.76,161.1L334.83,169.58L334.99,177.32L335.06,154.87L335.37,188.17L335.91,171.5L335.99,155.59L336.76,194.91L336.84,193.52L336.92,166.07L337.07,186.93L337.38,150.61L337.53,160.82L337.61,150.04L338.69,197.58L338.77,191.78L338.84,188.1L339.15,194.39L339.54,189.9L339.61,187.13L340.62,158.66L340.69,162.54L340.77,163.65L340.85,160.71L340.93,152.98L341.08,140.14L341.31,160.8L341.62,146.13L341.7,152.72L341.93,158.42L342,149.47L342.24,154.86L342.31,160.05L342.54,137.45L343.08,145.1L343.16,146.44L343.24,150.44L343.39,138.07L343.7,144.34L343.78,128.03L345.4,180L345.47,172.47L345.55,179.39L345.94,154.87L346.09,162.18L346.17,161.74L346.4,160.01L346.48,167.99L346.63,155.02L347.17,165.93L347.25,165.67L347.33,167.94L347.56,154.9L347.63,160.41L347.71,156.54L348.64,180.03L348.71,159.96L348.79,165.38L349.02,139.71L349.1,141.9L349.18,116.07L350.18,177.37L350.26,175.08L350.33,176.29L350.41,157.73L351.34,180.13L351.41,175.71L351.57,183.35L351.72,159.77L352.11,179.3L352.18,158.16L352.88,198.55L353.03,196.29L353.11,198.08L353.88,203.71L353.96,192.09L354.03,162.69L354.34,199.81L354.73,175.48L354.81,189.25L354.88,187.55L354.96,136.31L355.27,162.41L355.58,117.12L355.65,121.21L355.73,140.82L356.35,128.91L356.5,172.8L356.58,168.96L356.66,160.86L356.89,152.38L357.43,183.83L357.5,182.68L357.58,191.44L357.97,158.45L358.2,164.97L358.28,172.31L358.43,170.14L358.97,197.52L359.05,193.92L359.12,174.27L359.28,190.28L359.59,142.67L359.74,163.67L359.82,146.62L360.9,198.11L361.36,197.9L361.44,194.93L363.21,161.44L363.29,146.45L363.6,160.7L363.83,134L363.91,133.67L364.21,131.11L364.6,144.87L364.68,129.31L365.22,158.48L365.52,152.48L365.6,148.35L365.99,132.57L366.06,119.63L366.14,119.91L366.22,137.75L366.3,137.43L366.37,140.44L366.91,163.62L366.99,139.53L367.22,160.3L367.3,145.69L367.61,176.24L368.15,161.66L368.22,161.4L368.38,154.99L368.61,167.34L368.99,164.72L369.07,165.51L369.15,170.69L369.3,158.46L369.69,169.01L369.77,161.97L370.38,175.63L370.61,167.69L370.69,165.66L370.85,167.48L370.92,155.8L371.08,166.51L371.46,142.58L371.54,146.15L372.62,177.39L372.7,177.21L372.77,171.85L373,168.14L373.47,179.21L373.54,176.99L373.62,178.58L373.7,184.53L374.01,156.66L374.08,173.25L374.16,158.75L375.01,191.95L375.09,191.63L375.63,195.01L375.78,176.61L375.86,196.09L376.01,184.05L376.17,202.39L376.4,200.87L376.48,201.07L376.63,201.32L376.71,187.3L376.78,187.64L376.86,178.97L377.01,191.41L377.09,185.68L377.17,140.79L377.4,179.58L377.86,134.43L377.94,122.76L378.87,188.16L378.94,187.57L379.02,176.07L379.41,196.06L379.56,195.03L379.64,197.22L379.95,203.71L380.64,170.57L380.72,193.23L381.18,201.38L381.33,185.62L381.49,200.22L381.56,180.44L381.8,178.85L381.87,181.07L381.95,184.91L382.03,181.77L382.34,196.82L382.49,192.48L382.57,199.36L382.88,206.18L383.49,204.8L383.57,204.24L383.8,201.86L383.96,204.89L384.26,203.63L384.34,203.69L387.81,204.7L387.89,199.79L388.27,195.79L388.43,201.53L388.66,201.25L388.74,200.1L389.04,202.73L389.43,198.43L389.51,200.91L389.58,201.59L389.66,195.65L390.28,202.28L390.36,201.52L391.05,201.04L391.13,203.17L391.2,202.86L391.28,202.3L391.67,203.12L391.82,202.99L391.9,201.24L391.98,198.85L392.05,203.22L392.59,202.46L392.67,202.04L392.9,201.42L392.98,202.4L393.05,202.08L393.13,200.07L393.29,201.56L393.36,188.99L393.44,184.1L393.67,192.77L393.98,186.85L394.06,193.05L394.83,202.14L394.91,202.31L395.06,200.45L395.14,195.91L395.21,195.6L395.29,199.99L395.6,201.81L395.68,198.8L395.75,198.26L396.22,197.05L396.45,203.32L396.52,202.98L396.6,193.96L396.91,204.68L397.22,189.35L397.37,199.83L397.45,200.01L397.99,199.68L398.53,205.45L398.61,205.39L398.68,205.95L399.15,206.86L399.3,205.1L399.38,188.68L400.15,206.88L400.38,205.27L400.46,205.97L400.61,206.94L400.77,203.54L400.84,201.95L401,181.11L401.31,189.12L401.38,201.86L402.23,206.52L402.31,205.72L402.39,204.9L402.77,206.62L403,206.37L403.08,206.36L403.31,205.1L403.39,206.43L403.47,195.42L404.47,138.43L404.54,156.87L404.62,149.38L404.78,164.73L405.24,157.98L405.32,158.72L405.39,157.24L405.55,164.93L405.62,157.57L405.7,172.64L405.86,155.06L406.16,171.13L406.24,173.16L406.78,186.49L406.86,198.1L406.94,198.28L407.01,196.73L407.09,197.17L407.17,194.96L407.48,195.94L407.55,195.67L407.63,193.77L408.02,195.82L408.4,178.29L408.63,186.46L408.71,187.14L408.79,188.87L408.94,176.52L409.02,174.76L409.09,171.25L409.48,178.68L409.63,177.63L409.71,188.75L409.87,191.02L410.02,187.79L410.1,190.26L410.17,178.14L410.25,162.76L410.64,192.21L410.95,165.78L411.02,174.29L411.49,197.57L411.79,191.5L411.87,168.28L412.56,197.03L412.64,196.67L412.72,193.31L412.8,189.66L413.1,195.32L413.34,194.39L413.41,196.14L413.57,197.49L413.72,195.23L414.03,196.75L414.11,193.93L414.42,196.14L414.57,187.28L414.88,191.77L414.96,192.69L415.19,192.91L415.5,186.9L415.57,175.41L415.73,172.13L415.96,183.41L416.11,181.97L416.19,182.11L417.11,192.02L417.19,190.49L417.27,191.79L417.35,188.63L417.42,176.39L418.12,194.05L418.27,190.77L418.35,181.87L418.43,182.7L418.5,180.67L418.58,175.13L419.12,190.93L419.35,181.17L419.43,189.5L419.89,188.82L420.28,196.06L420.35,192.47L420.43,177.02L420.82,201.7L421.05,201.09L421.12,191.49L421.28,202.26L422.05,142.13L422.13,147.92L422.2,163.44L422.28,154.03L422.74,183.35L422.82,188.09L422.9,189.42L422.98,171.68L423.36,193.82L423.52,171.61L423.82,184.7L423.9,164.49L424.29,187.93L424.52,170.15L424.59,169.22L424.98,190.6L425.06,181.51L425.13,163.43L425.52,192.66L425.91,184.02L425.98,175.41L426.14,186.56L426.21,172.98L426.37,162.23L426.91,185.85L427.06,180.15L427.14,173.26L427.45,188.84L427.91,184.26L427.99,181.92L428.06,181.53L428.3,184.38L428.37,179.62L429.45,11L429.68,63.59L429.76,83.81L430.07,91.81L430.53,35.04L430.69,39.74L430.76,90.85L431,55.55L431.38,106.89L431.46,116.42L431.54,114.15L431.61,66.68L432.15,130.81L432.46,124.09L432.54,125.49L432.69,120.23L432.85,139.94L433,131.63L433.08,134.98L434,160.86L434.08,152.19L434.16,152.94L434.39,160.68L434.7,142.62L434.85,148.7L434.93,149.23L435.47,131.98L435.55,145.48L435.85,152.65L436.32,149.04L436.39,143.38L436.62,141.89L436.93,155.85L437.16,147.56L437.24,147.86L437.4,154.18L437.55,128.15L437.7,148.65L437.78,131.67L438.01,123.66L438.63,148.42L438.71,135.99L439.94,165.12L440.02,158.89L440.4,171.27L440.56,142.25L440.71,158.48L440.79,143.08L441.64,179.17L441.71,177.67L441.79,171.59L442.02,179.14L442.18,165.58L442.25,169.38L442.33,181.28L442.41,178.79L442.56,190.78L442.64,189.29L442.72,196.1L443.18,198.06L443.26,196.51L443.33,181.34L443.56,195.96L443.72,162.46L443.8,112.47L444.34,96.36L444.8,168.46L444.88,173.43L444.95,157.32L445.57,183.62L445.65,158.33L445.72,153.68L446.42,186.85L446.57,183.79L446.65,166.36L447.04,157.83L447.11,170.53L447.19,169.24L447.27,184.64L447.81,191.39L448.04,149.62L448.19,156.12L448.27,172.84L448.65,146.29L448.81,180.46L449.04,156.98L449.12,175.08L449.27,168.17L449.43,183.76L449.5,192.07L449.58,192.59L449.66,184.12L449.81,184.58L451.05,165.56L451.12,166.67L451.2,159.27L451.28,160.08L451.35,153.49L451.43,152.64L452.12,131.86L452.51,132.1L452.59,120.66L452.74,126.51L452.82,137.23L452.9,138.33L452.97,135.65L453.05,122.32L453.44,142.5L453.9,134.93L453.98,135.43L454.67,136.7L454.75,128.57L454.82,136.28L454.9,127.16L455.52,139.13L455.59,140.38L455.83,135.28L455.98,151.95L456.29,139.85L456.37,134.92L456.91,151.63L457.21,145.51L457.29,150.55L457.37,151.13L457.45,144.57L457.6,146.81L457.68,134.29L458.45,160.56L458.53,155.25L458.6,146.71L459.22,161.66L459.3,158.88L459.68,170.5L459.76,142.15L459.84,152.44L459.99,116.24L460.38,131.69L460.45,132.17L461.3,158.4L461.38,146.84L462.23,181.6L462.3,176.68L462.54,177.89L462.61,181.55L462.69,185.12L462.77,148.21L463.61,183.03L463.69,159.53L464.23,190.83L464.31,187.7L464.39,150.7L465,199.77L465.23,199.57L465.31,199L465.47,200.34L465.77,172.77L465.85,195.96L465.93,202.49L466.01,156.45L466.08,125.58L466.31,166.12L466.55,112.55L466.85,141.98L466.93,152.09L467.01,152.39L467.09,170.55L467.39,149.11L467.78,184.78L467.86,169.69L467.93,159.15L468.24,184.19L468.55,176.34L468.63,182.69L468.7,187.21L469.01,166.76L469.17,176.9L469.24,169.23L469.48,161.19L470.09,195.03L470.17,164.7L470.32,173.03L470.4,157.5L470.56,166.82L470.63,146.14L470.86,143.6L471.25,183.46L471.48,174.98L471.56,163.88L472.41,188.15L472.48,184.57L472.87,186.39L472.95,173.55L473.1,175.77" style="vector-effect: none; fill: none; stroke: rgb(239, 85, 59); stroke-opacity: 1; stroke-width: 2px; opacity: 1;"/></g><g class="points"/><g class="text"/></g></g></g><g class="overplot"/><path class="xlines-above crisp" d="M0,0" style="fill: none;"/><path class="ylines-above crisp" d="M0,0" style="fill: none;"/><g class="overlines-above"/><g class="xaxislayer-above"><g class="x2tick"><text text-anchor="middle" x="0" y="333" transform="translate(690.89,0)" style="font-family: 'Open Sans', verdana, arial, sans-serif; font-size: 12px; fill: rgb(42, 63, 95); fill-opacity: 1; white-space: pre; opacity: 1;"><tspan class="line" dy="0em" x="0" y="333">Jan 23</tspan><tspan class="line" dy="1.3em" x="0" y="333">2022</tspan></text></g><g class="x2tick"><text text-anchor="middle" x="0" y="333" style="font-family: 'Open Sans', verdana, arial, sans-serif; font-size: 12px; fill: rgb(42, 63, 95); fill-opacity: 1; white-space: pre; opacity: 1;" transform="translate(846.3499999999999,0)">Jan 30</text></g><g class="x2tick"><text text-anchor="middle" x="0" y="333" style="font-family: 'Open Sans', verdana, arial, sans-serif; font-size: 12px; fill: rgb(42, 63, 95); fill-opacity: 1; white-space: pre; opacity: 1;" transform="translate(1001.8199999999999,0)">Feb 6</text></g></g><g class="yaxislayer-above"><g class="y2tick"><text text-anchor="end" x="601.9" y="4.199999999999999" transform="translate(0,309.65)" style="font-family: 'Open Sans', verdana, arial, sans-serif; font-size: 12px; fill: rgb(42, 63, 95); fill-opacity: 1; white-space: pre; opacity: 1;">0</text></g><g class="y2tick"><text text-anchor="end" x="601.9" y="4.199999999999999" style="font-family: 'Open Sans', verdana, arial, sans-serif; font-size: 12px; fill: rgb(42, 63, 95); fill-opacity: 1; white-space: pre; opacity: 1;" transform="translate(0,228.84)">5k</text></g><g class="y2tick"><text text-anchor="end" x="601.9" y="4.199999999999999" style="font-family: 'Open Sans', verdana, arial, sans-serif; font-size: 12px; fill: rgb(42, 63, 95); fill-opacity: 1; white-space: pre; opacity: 1;" transform="translate(0,148.04)">10k</text></g></g><g class="overaxes-above"/></g></g><g class="polarlayer"/><g class="smithlayer"/><g class="ternarylayer"/><g class="geolayer"/><g class="funnelarealayer"/><g class="pielayer"/><g class="iciclelayer"/><g class="treemaplayer"/><g class="sunburstlayer"/><g class="glimages"/><defs id="topdefs-0fe642"><g class="clips"/><clipPath id="legend0fe642"><rect width="92" height="48" x="0" y="0"/></clipPath></defs><g class="layer-above"><g class="imagelayer"/><g class="shapelayer"/></g><g class="infolayer"><g class="legend" pointer-events="all" transform="translate(1095.92,100)"><rect class="bg" shape-rendering="crispEdges" width="92" height="48" x="0" y="0" style="stroke: rgb(68, 68, 68); stroke-opacity: 1; fill: rgb(255, 255, 255); fill-opacity: 1; stroke-width: 0px;"/><g class="scrollbox" transform="" clip-path="url(#legend0fe642)"><g class="groups"><g class="traces" transform="translate(0,14.5)" style="opacity: 1;"><text class="legendtext" text-anchor="start" x="40" y="4.680000000000001" style="font-family: 'Open Sans', verdana, arial, sans-serif; font-size: 12px; fill: rgb(42, 63, 95); fill-opacity: 1; white-space: pre;">res</text><g class="layers" style="opacity: 1;"><g class="legendfill"/><g class="legendlines"><path class="js-line" d="M5,0h30" style="fill: none; stroke: rgb(99, 110, 250); stroke-opacity: 1; stroke-width: 2px;"/></g><g class="legendsymbols"><g class="legendpoints"/></g></g><rect class="legendtoggle" x="0" y="-9.5" width="86.171875" height="19" style="fill: rgb(0, 0, 0); fill-opacity: 0;"/></g><g class="traces" transform="translate(0,33.5)" style="opacity: 1;"><text class="legendtext" text-anchor="start" x="40" y="4.680000000000001" style="font-family: 'Open Sans', verdana, arial, sans-serif; font-size: 12px; fill: rgb(42, 63, 95); fill-opacity: 1; white-space: pre;">db time</text><g class="layers" style="opacity: 1;"><g class="legendfill"/><g class="legendlines"><path class="js-line" d="M5,0h30" style="fill: none; stroke: rgb(239, 85, 59); stroke-opacity: 1; stroke-width: 2px;"/></g><g class="legendsymbols"><g class="legendpoints"/></g></g><rect class="legendtoggle" x="0" y="-9.5" width="86.171875" height="19" style="fill: rgb(0, 0, 0); fill-opacity: 0;"/></g></g></g><rect class="scrollbar" rx="20" ry="3" width="0" height="0" x="0" y="0" style="fill: rgb(128, 139, 164); fill-opacity: 1;"/></g><g class="g-gtitle"/><g class="g-xtitle"/><g class="g-x2title"/><g class="g-ytitle"/><g class="g-y2title"/></g></svg>