<svg class="main-svg" xmlns="http://www.w3.org/2000/svg" xmlns:xlink="http://www.w3.org/1999/xlink" width="1200" height="400" style="" viewBox="0 0 1200 400"><rect x="0" y="0" width="1200" height="400" style="fill: rgb(255, 255, 255); fill-opacity: 1;"/><defs id="defs-bbc547"><g class="clips"><clipPath id="clipbbc547xyplot" class="plotclip"><rect width="473.09999999999997" height="220"/></clipPath><clipPath id="clipbbc547x2y2plot" class="plotclip"><rect width="473.09999999999997" height="220"/></clipPath><clipPath class="axesclip" id="clipbbc547x"><rect x="80" y="0" width="473.09999999999997" height="400"/></clipPath><clipPath class="axesclip" id="clipbbc547y"><rect x="0" y="100" width="1200" height="220"/></clipPath><clipPath class="axesclip" id="clipbbc547xy"><rect x="80" y="100" width="473.09999999999997" height="220"/></clipPath><clipPath class="axesclip" id="clipbbc547y2"><rect x="0" y="100" width="1200" height="220"/></clipPath><clipPath class="axesclip" id="clipbbc547xy2"><rect x="80" y="100" width="473.09999999999997" height="220"/></clipPath><clipPath class="axesclip" id="clipbbc547x2"><rect x="602.9" y="0" width="473.09999999999997" height="400"/></clipPath><clipPath class="axesclip" id="clipbbc547x2y"><rect x="602.9" y="100" width="473.09999999999997" height="220"/></clipPath><clipPath class="axesclip" id="clipbbc547x2y2"><rect x="602.9" y="100" width="473.09999999999997" height="220"/></clipPath></g><g class="gradients"/><g class="patterns"/></defs><g class="bglayer"><rect class="bg" x="80" y="100" width="473.09999999999997" height="220" style="fill: rgb(229, 236, 246); fill-opacity: 1; stroke-width: 0;"/><rect class="bg" x="602.9" y="100" width="473.09999999999997" height="220" style="fill: rgb(229, 236, 246); fill-opacity: 1; stroke-width: 0;"/></g><g class="layer-below"><g class="imagelayer"/><g class="shapelayer"/></g><g class="cartesianlayer"><g class="subplot xy"><g class="layer-subplot"><g class="shapelayer"/><g class="imagelayer"/></g><g class="minor-gridlayer"><g class="x"/><g class="y"/></g><g class="gridlayer"><g class="x"><path class="xgrid crisp" transform="translate(167.99,0)" d="M0,100v220" style="stroke: rgb(255, 255, 255); stroke-opacity: 1; stroke-width: 1px;"/><path class="xgrid crisp" transform="translate(323.45,0)" d="M0,100v220" style="stroke: rgb(255, 255, 255); stroke-opacity: 1; stroke-width: 1px;"/><path class="xgrid crisp" transform="translate(478.92,0)" d="M0,100v220" style="stroke: rgb(255, 255, 255); stroke-opacity: 1; stroke-width: 1px;"/></g><g class="y"><path class="ygrid crisp" transform="translate(0,263.64)" d="M80,0h473.09999999999997" style="stroke: rgb(255, 255, 255); stroke-opacity: 1; stroke-width: 1px;"/><path class="ygrid crisp" transform="translate(0,215.01999999999998)" d="M80,0h473.09999999999997" style="stroke: rgb(255, 255, 255); stroke-opacity: 1; stroke-width: 1px;"/><path class="ygrid crisp" transform="translate(0,166.39)" d="M80,0h473.09999999999997" style="stroke: rgb(255, 255, 255); stroke-opacity: 1; stroke-width: 1px;"/><path class="ygrid crisp" transform="translate(0,117.77)" d="M80,0h473.09999999999997" style="stroke: rgb(255, 255, 255); stroke-opacity: 1; stroke-width: 1px;"/></g></g><g class="zerolinelayer"><path class="yzl zl crisp" transform="translate(0,312.26)" d="M80,0h473.09999999999997" style="stroke: rgb(255, 255, 255); stroke-opacity: 1; stroke-width: 2px;"/></g><path class="xlines-below"/><path class="ylines-below"/><g class="overlines-below"/><g class="xaxislayer-below"/><g class="yaxislayer-below"/><g class="overaxes-below"/><g class="plot" transform="translate(80,100)" clip-path="url(#clipbbc547xyplot)"><g class="scatterlayer mlayer"><g class="trace scatter tracef66c28" style="stroke-miterlimit: 2; opacity: 1;"><g class="fills"/><g class="errorbars"/><g class="lines"><path class="js-line" d="M0,134.07L0.62,151.65L0.85,140.51L0.93,137.9L1.23,142.46L1.47,126.49L1.7,136.6L1.77,138.87L2.16,144.24L2.24,148.42L3.55,171.99L3.86,170.71L3.93,170.03L4.16,167.91L4.32,168.86L4.4,170.54L4.47,171.61L4.86,166.75L4.94,166.68L5.09,169.09L5.4,161.95L5.48,160.12L6.17,145.05L6.4,150.35L6.48,153.78L8.25,205.28L8.33,205.39L8.41,205.94L9.02,205.03L9.1,205.11L9.25,205.27L9.41,204.6L9.64,204.63L9.72,204.53L10.26,205.12L10.33,205.59L10.49,204.69L11.03,205.63L11.1,205.74L11.34,206.17L11.41,206.59L11.72,206.01L11.8,204.96L12.65,197.25L12.72,198.39L12.8,200.23L13.5,206.85L13.73,204.63L13.8,204.07L14.42,199.07L15.11,199.26L15.19,199.32L15.65,196.83L15.73,195.82L16.04,196.14L16.27,194.63L16.35,190.45L16.89,180.31L16.97,178.98L17.04,169.75L17.74,173.58L17.81,173.32L17.89,172.29L17.97,180.73L18.51,173.85L18.58,173.93L19.05,177.46L19.28,175.65L19.36,174.36L19.82,168.41L20.2,169.43L20.28,171.8L20.36,172L20.44,169.89L21.9,111.6L22.21,123.54L22.29,127.13L22.9,141.5L22.98,135.05L23.06,126.36L23.21,119.08L23.67,128.69L23.75,128.63L23.83,129.68L24.83,157.83L25.14,157.19L25.22,158.61L25.37,157.87L25.53,160.4L25.6,161.75L25.68,160.89L26.06,163.82L26.22,163.18L26.3,164.09L26.37,163.37L26.6,167.71L26.68,169.69L26.76,170.01L26.84,165.69L26.91,167.44L27.45,162.92L27.53,160.52L27.68,152.71L28.38,153.43L28.46,154.26L30.46,206.92L30.54,207.27L31.23,205.58L31.54,206.23L31.62,206.37L32.16,208.28L32.62,207.86L32.7,207.88L33.47,206.69L33.54,206.48L34.16,202.49L34.24,201.3L34.86,192.32L35.16,195.18L35.24,196.43L36.17,204.55L36.32,203.54L36.4,203.45L36.63,202.26L37.09,203.08L37.17,203.42L38.48,197.57L38.56,196.12L39.33,182.44L39.79,184.61L39.87,183.95L40.1,186.96L40.41,181.87L40.49,177.58L40.87,174.6L41.03,176.58L41.1,176.94L41.41,182.2L41.72,176.06L41.8,175.35L44.11,113.2L44.34,116.39L44.42,119.77L45.04,149.48L45.42,137.29L45.5,138.68L45.96,133.7L46.42,148.05L46.5,148.13L46.73,144.46L47.81,169.81L47.97,168.52L48.04,167.45L48.43,163.41L48.74,166.74L48.81,167.35L48.89,170.23L49.35,161.87L49.43,161.67L49.82,155L50.05,162.4L50.2,160.6L50.28,163.27L50.82,156.08L51.05,159.91L51.13,161.59L51.44,170.59L51.51,173L52.98,205.67L53.06,205.85L53.36,206.28L53.52,205.32L53.59,205.11L53.75,205.5L53.98,204.13L54.06,203.9L54.21,203.45L54.44,205.22L54.52,205.69L54.75,204.41L54.98,205.53L55.06,205.61L55.6,204.64L55.68,206.22L55.99,207.41L56.29,205.22L56.37,204.03L57.14,192.58L57.45,196.91L57.53,197.29L57.91,203.01L58.45,201.16L58.53,201L58.76,200.22L58.99,200.8L59.07,201.52L59.46,202.88L59.76,201.62L59.84,201.19L60.77,196.16L60.84,196.68L63.08,172.01L63.16,173.05L63.23,173.25L63.39,177.3L63.93,172.41L64.01,172.42L65.32,150.27L65.39,155.37L66.32,123.18L66.63,131.92L66.7,135.81L67.24,160.22L67.63,147.35L67.71,143.41L67.78,144.52L68.02,137.55L68.09,133.35L68.17,132.35L68.4,138.45L68.48,139.81L68.56,139.03L68.86,143.29L68.94,144.2L70.02,152.69L70.1,151.41L70.71,142.26L70.87,149.12L70.95,151.65L71.56,165.45L71.72,158.06L71.79,154.24L72.8,111.74L73.03,121.35L73.1,122.4L73.18,122.56L73.26,126.29L75.88,178.47L75.96,180.87L76.04,182.34L76.34,176.51L76.42,175.1L77.96,156.85L78.04,155.98L78.73,152.58L78.81,154.08L78.89,155.02L79.27,157.07L79.66,156.26L79.74,154.48L80.89,150.72L80.97,151.2L81.51,148.61L81.59,149.93L81.66,151.06L82.59,166.08L82.67,168.66L83.21,183.5L83.59,178.05L83.67,168.03L84.52,156.82L84.6,164.24L86.83,132.28L86.91,132.7L87.06,134.39L87.14,134.34L87.22,131.3L87.37,131.6L88.45,119.18L88.53,121.74L88.99,124.46L89.07,123.35L89.14,127.26L89.38,127.58L89.45,124.46L89.53,121.78L91,78.63L91.23,84.69L91.3,92.64L91.46,104.13L92,95.75L92.08,95.49L92.69,106.99L92.77,112.06L93.77,160.49L93.93,147.58L94,149.34L94.85,175.38L95.08,166.62L95.16,164.99L95.78,158.23L95.85,155.8L96.32,150.31L96.39,146.22L96.7,135.41L97.16,139.11L97.24,141.85L98.17,169.72L98.32,164.78L98.4,166.47L98.55,166.54L99.02,164.84L99.09,165.21L99.17,170.28L99.32,167.03L99.79,172.11L99.86,171.9L99.94,171.63L100.02,172.19L100.1,175.1L100.63,183.37L100.87,180.51L100.94,178.43L101.25,169.89L101.33,167.21L102.79,142.71L102.87,142.97L102.95,143.05L103.26,141.19L103.64,142.29L103.72,144.13L105.34,172.37L105.42,172.48L105.57,174.28L105.65,173.17L105.72,171.63L106.73,147.17L106.88,153.99L106.96,153.5L108.81,138.82L108.89,139.31L108.96,140.86L109.27,144.59L109.5,135.65L109.58,133.57L110.2,119.79L110.66,122.47L110.74,125.94L111.66,158.32L111.89,151.77L111.97,151.54L112.36,143.35L112.59,148.57L112.66,151.76L113.05,159.17L113.44,154.92L113.51,154.08L113.59,153.72L113.67,155.09L113.74,156.81L114.44,168.76L114.67,161.96L114.75,159.09L115.52,154.04L115.6,157.63L115.67,159.02L116.06,152.79L116.14,151.39L117.21,143.16L117.29,143.46L117.6,148.75L117.68,152.81L119.22,207.01L119.45,205.49L119.53,203.57L120.07,195.32L120.15,193.05L120.53,185.08L120.99,188.03L121.07,189.85L122.15,200.52L122.23,200.94L122.61,207.4L123,204.21L123.08,203.07L123.69,197.83L123.92,199.7L124,200.58L125.23,205.28L125.31,205.02L125.7,205.76L126.01,205.19L126.08,204.59L127.7,192.53L127.93,193.66L128.01,193.5L128.94,175.35L129.01,182.85L130.02,173.33L130.09,173.42L130.25,174.56L130.63,172.82L130.71,171.31L132.17,150.13L132.25,145.02L133.02,113.4L133.33,124.3L133.41,129.46L134.57,164.64L134.64,162.4L134.72,161.69L134.8,161.48L134.87,167.53L135.03,169.39L135.34,165.7L135.41,163.45L136.03,147.68L136.34,152.34L136.42,153.4L137.11,165.39L137.26,164.88L137.34,166.15L138.04,178.17L138.27,172.8L138.34,166.8L138.96,158.62L139.19,162.73L139.27,167.89L140.27,177.74L140.35,180.24L141.51,207.76L141.66,207.4L141.74,206.18L142.43,199.84L142.82,202.53L142.89,202.46L143.05,202.41L143.13,203.31L143.36,206.71L143.9,205.45L143.97,205.3L144.28,204.91L144.44,205.24L144.51,206.26L144.59,207.22L145.13,205L145.21,204.84L145.98,200.21L146.21,200.97L146.29,201.51L146.98,204.7L147.29,204.22L147.37,204.11L147.98,204.51L148.21,204.4L148.29,203.7L149.68,193.58L149.91,195.02L149.99,195.34L150.61,197.46L151.07,187.51L151.15,186.54L151.69,176.12L152.07,176.21L152.15,177.91L152.3,180.99L152.84,176.55L152.92,175.18L153.3,170.07L153.38,167.88L153.61,171.27L153.77,167.25L153.84,164.11L155.16,121.67L155.39,127.24L155.46,130.25L155.54,129.32L155.7,135.99L155.77,138.29L156.08,151.1L156.54,145.91L156.62,143.13L156.7,144.3L156.85,135.82L156.93,126.26L158.55,150.77L158.63,153.38L159.01,163.92L159.4,158.21L159.47,157.12L159.55,155.39L159.86,162.62L159.94,164.61L160.17,172.01L160.63,167.58L160.71,166.88L161.86,151.16L162.02,155.07L162.1,158.04L164.18,206.92L164.25,206.87L164.33,207.16L165.18,204.87L165.33,205.34L165.41,205.81L166.11,207.14L166.26,206.73L166.34,206.72L167.42,204.79L167.49,203.8L168.34,195.22L168.65,197.13L168.73,198.53L168.96,201.81L169.58,201L169.65,200.69L169.88,200.28L170.04,201.84L170.12,202.38L170.42,203.35L170.66,202.25L170.73,201.42L172.43,182.76L172.51,173.17L172.74,178.49L172.81,180.22L173.12,177.84L173.43,185.54L173.59,183.02L173.66,182.3L173.89,181.74L173.97,182.46L174.05,182.47L174.13,183.35L174.36,184.74L174.74,182L174.82,180.11L177.13,123.95L177.21,120.67L177.29,119.01L177.6,127.51L177.67,131.49L177.83,126.22L178.29,145.45L178.52,135.48L178.6,132.38L178.91,140.79L179.22,127.73L179.29,136.09L181.07,162.93L181.14,162.03L181.3,162.46L181.45,161.56L181.53,160.29L181.68,158.98L181.99,162.62L182.07,165.88L182.53,172.96L182.92,168.54L182.99,166.79L183.84,151.27L184,152.94L184.07,155.02L186,205.96L186.08,205.77L186.16,204.84L186.93,205.12L187,205.46L187.77,205.85L187.85,205.63L188.01,205.68L188.08,204.47L189.01,206.76L189.09,206.32L189.16,205.91L190.32,199.22L190.55,200.48L190.63,201.1L191.4,204.42L191.78,204.14L191.86,204.03L192.63,205.04L192.71,204.45L192.79,203.29L193.56,195.75L193.87,198.69L193.94,198.75L195.33,174.11L195.41,175.87L195.49,174.18L195.56,172.95L195.64,179.47L196.1,176.38L196.18,176.96L196.33,176L196.57,178.5L196.64,178.88L196.8,180.8L197.18,177.94L197.26,178.78L197.34,178.58L198.73,146.76L198.8,142.52L199.57,113.25L199.8,123.27L199.88,127.4L200.5,160.49L200.88,146.32L200.96,144.61L201.42,121.98L201.58,131.73L201.66,133.48L201.81,132.68L201.89,134.8L201.96,134.2L202.04,136.29L203.27,168.56L203.35,168.35L204.35,179.62L204.43,176.52L204.59,177.26L204.74,174.88L204.82,174.1L205.51,155.76L205.82,158.3L205.9,159.24L205.97,158.01L206.28,164.95L206.36,167.14L208.06,207.19L208.13,207.15L208.21,206.8L209.06,202.76L209.37,203.92L209.44,204.71L209.68,204.41L209.83,205.39L209.91,205.57L210.14,206.42L210.37,204.84L210.52,204.87L210.6,205.07L210.99,204.23L211.22,206.08L211.29,206.11L213.22,200.26L213.3,200.43L213.38,201.1L214.3,200.1L214.38,200.84L214.92,202.67L215.15,201.5L215.23,201.13L215.77,195.78L216.15,197.23L216.23,198.45L216.62,201.6L216.92,198.39L217,198.72L217.62,186.69L217.7,184.17L218.16,177.99L218.54,180.07L218.62,181.4L219.16,182.84L219.31,181.35L219.39,180.73L219.78,183.41L219.85,183.31L219.93,173.65L220.32,176.12L220.7,165.35L220.78,163.05L220.86,168.81L221.24,146.64L221.32,144.36L221.78,119.04L222.09,130.14L222.17,132.58L222.55,149.36L222.94,142.79L223.02,140.22L223.17,134.73L223.71,142.15L223.79,139.17L223.86,140.55L225.02,158.76L225.1,160.12L225.64,168.28L225.87,165.15L225.95,164.61L226.41,156.85L226.56,161.03L226.64,163.57L227.18,172.18L227.41,164.63L227.49,159.12L228.34,110.55L228.65,121.04L228.72,126.3L230.42,182.95L230.5,183.54L231.65,192.19L231.73,191.61L232.66,190.17L232.73,186.32L233.58,160.37L233.81,169.65L233.89,171.21L234.2,176.95L234.58,169.56L234.66,166.16L235.82,133.74L235.97,134.13L236.05,133.9L236.51,131.07L236.59,130.22L236.9,129.47L236.97,129.99L237.05,131.42L238.82,150.03L238.9,148.58L238.98,146.35L241.52,116.23L241.76,116.69L243.84,116.23L243.91,114.96L244.15,121.42L244.22,123.03L244.45,125.11L244.61,122.69L244.69,120.69L245.07,85.5L245.15,74.97L245.61,42.21L245.92,66.11L246,74.29L246.38,102.05L246.84,91.91L246.92,89.04L247.31,78.89L247.62,84.17L247.69,89.54L248.16,99.3L248.23,87.74L248.31,76.93L248.39,73.11L248.7,88.89L248.77,94.77L249,84.4L249.08,90.41L249.16,106.11L249.24,121L249.78,101.27L249.85,104.11L249.93,109.11L251.01,59.02L251.09,65.26L251.16,86.69L251.93,139.25L252.24,136.56L252.32,134.81L252.55,131.42L252.86,135.97L252.94,137.99L253.55,158.33L253.63,161.13L254.02,169.75L254.32,160.86L254.4,158.7L255.33,138.05L255.48,142.13L255.56,145.67L255.64,148.31L256.02,140.29L256.1,140.34L256.18,140.25L256.41,134.51L256.48,132.22L257.18,130.06L257.26,130.79L257.33,131.28L258.1,126.78L258.26,127.02L258.33,128.94L258.8,124.5L259.11,127.51L259.18,129.64L259.34,132.99L259.72,129.25L259.8,129.38L259.88,129.22L261.03,149.13L261.27,146.95L261.34,137.35L261.81,130.9L262.19,131.7L262.27,138.75L262.5,138.33L262.81,139.34L262.88,138.32L262.96,135.36L263.04,135.76L263.12,133.96L263.19,132.14L264.35,118.53L264.43,118.69L264.74,121.84L264.89,120.23L264.97,118.31L265.12,120.06L265.58,115.17L265.66,113.29L265.74,114.48L265.97,110.57L266.05,111.29L266.12,108.71L266.59,123.89L266.66,123.75L266.74,129.77L267.05,138.33L267.51,132.14L267.59,132.86L267.9,129.19L268.13,134.34L268.21,137.28L269.36,151.49L269.44,148.95L270.36,132.7L270.52,134.16L270.6,135.19L270.9,129.65L271.14,138.16L271.21,139.61L272.14,151.38L272.22,150.89L272.29,152.7L274.22,199.52L274.3,200.16L274.45,200.25L274.53,198.49L275.15,189.67L275.76,190.74L275.84,190.71L275.99,190.89L276.07,192.96L276.77,200.61L276.84,202.3L277.54,204.94L277.77,204.59L277.85,204.31L278.69,197.35L278.77,196.49L279.08,194.22L279.39,196.9L279.46,197.77L280.24,205.1L280.54,204.91L280.62,205.01L281.39,204.71L281.47,204.56L282.86,199.76L282.93,200.37L283.01,200.55L283.24,199.47L283.32,194.48L284.17,185.1L284.25,189.37L284.32,190.59L284.4,189.3L284.48,177.68L284.71,144.11L285.33,144.53L285.4,156.6L285.63,186.87L286.33,181.23L286.4,182.22L286.48,183.55L286.64,177.86L286.94,179.26L287.02,178.35L287.72,149.12L287.79,144.46L288.49,104.56L288.95,118.87L289.03,129.05L289.41,154.14L289.87,142.85L289.95,140.32L290.34,131.14L290.41,134.24L290.49,146.16L291.96,183.91L292.03,183.42L292.11,173.38L292.65,164.11L292.96,165.93L293.04,174.8L293.96,188.99L294.04,185.3L294.12,180.68L294.89,149.4L294.96,153.87L295.04,158.07L295.97,197.5L296.04,198.53L296.51,202.01L296.82,199.6L296.89,199.25L297.36,195.15L297.43,194.52L298.2,190.11L298.43,191.6L298.51,192.3L298.59,191.53L298.97,193.76L299.05,195.99L299.98,206.15L300.29,205.99L300.36,206.03L301.37,201.89L301.75,202.28L301.83,202.74L302.21,204.36L302.68,203.65L302.75,203.71L303.14,202.22L303.37,203.33L303.45,203.44L303.68,203.82L303.99,203.27L304.06,202.85L304.6,198.09L304.99,200.14L305.07,201.12L305.14,202.31L305.61,197.53L305.68,197.13L306.15,183.18L306.45,187.79L306.53,188.18L306.69,191.48L307.46,176.1L307.53,178.24L307.61,182.28L308.15,190.71L308.46,190.18L308.54,189.05L308.69,187.74L308.77,177.98L310.08,136.39L310.16,129.01L310.7,101.88L311,112.29L311.08,120.91L311.24,112.92L311.62,132.64L311.85,124.36L311.93,123.24L312.86,159.13L313.32,156.23L313.4,148.74L314.55,180.74L314.86,178.32L314.94,175.57L315.01,173.12L315.4,177.76L315.63,176.85L315.71,175.88L316.02,183.56L316.33,177.88L316.4,176.68L316.56,170.22L317.17,174L317.25,176.92L318.33,195.49L318.41,197.47L319.33,205.97L319.56,204.17L319.64,204.26L320.1,197.82L320.18,197.21L320.34,195.46L320.8,196.29L320.88,198.43L321.57,206.02L321.88,205.85L321.95,205.78L322.8,202.94L322.88,201.98L323.57,196.48L323.88,198.4L323.96,199.09L324.27,201.41L324.35,202.47L325.27,205.11L325.35,205.22L325.66,205.95L325.96,205.23L326.04,204.78L326.66,201.23L327.04,202.43L327.12,202.82L327.2,203.27L327.35,202.15L327.66,202.21L327.74,200.25L328.59,181.38L328.82,182.05L328.9,191.98L330.59,177.2L330.75,177.54L330.82,178.41L331.83,160.79L331.9,164.62L332.83,120.14L333.14,131.22L333.21,134.66L333.37,125.59L333.6,143.62L333.68,143.5L334.14,136.99L334.29,150.44L334.45,146.98L334.52,142.81L334.99,127.86L335.37,132.23L335.45,134.7L335.53,127.47L335.99,144.45L336.07,141.97L336.14,142.04L336.38,144.59L336.45,154.48L337.38,161.65L337.45,159.76L337.99,170.99L338.23,164.21L338.3,162.96L339.23,146.99L339.46,150.1L339.54,151.79L340.54,184.39L340.62,187.43L341.54,203.63L341.93,203.42L342,203.47L342.62,202.32L342.78,203.33L342.85,203.17L343.55,205.06L343.78,204.83L343.86,203.47L344.16,204.07L344.7,202.53L344.78,203.43L345.01,201.7L345.09,200.74L345.86,188.64L346.17,191.93L346.25,192.51L346.63,200.3L347.17,198.29L347.25,198.12L347.48,197.43L347.56,197.54L347.63,199.75L347.87,200.26L348.1,199.42L348.17,198.89L350.1,176.53L350.18,166.07L350.49,173.55L350.56,174.44L351.1,186.54L351.41,181.49L351.49,178.9L351.72,169.93L352.26,174.71L352.34,174.16L352.49,174.93L352.65,169.23L352.72,164.94L353.96,127.22L354.03,128.25L354.11,132.5L354.57,131L354.88,137.86L354.96,137.52L355.04,130.83L355.11,128.64L355.42,136.87L355.5,136.18L355.58,139.41L356.35,115.81L356.58,124.05L356.66,128.34L356.81,126.52L357.04,137.74L357.12,142.82L357.58,150.28L357.66,142.23L357.74,142.7L357.81,143.8L357.89,144.63L357.97,143.57L358.04,138.14L358.2,138.07L358.51,143.41L358.58,153.17L358.97,158.67L359.28,152.21L359.36,151.01L359.51,150.79L359.82,156.96L359.9,157.94L360.13,163.84L360.28,162.99L360.36,158.12L361.05,147.3L361.28,150.19L361.36,149.82L361.59,144.6L361.9,148.67L361.98,151.56L363.83,202.13L363.98,201.6L364.06,201.48L366.37,205.55L366.45,206.1L366.68,206.59L366.99,205.49L367.07,205.47L367.61,200.7L367.68,199.2L368.07,194.41L368.53,196.48L368.61,197.85L369.07,200.7L369.46,199.54L369.53,199.48L370.31,198.23L370.38,197.48L371.15,195.41L371.23,195.73L371.31,196.48L371.54,199.56L372.08,198.65L372.16,197.78L373.24,186.66L373.31,178.37L374.01,170.89L374.16,171.78L374.24,179.24L374.47,182.14L375.01,180.42L375.09,178.34L377.09,123.32L377.17,123.47L378.17,162.85L378.33,150.07L378.4,148.64L379.1,133.24L379.17,141.21L379.25,143.9L379.48,148.1L379.87,143.57L379.95,141.77L380.18,137.37L380.64,140.48L380.72,142.07L381.56,133.57L381.72,136.31L381.8,140.13L382.49,160.46L382.64,150.08L382.72,146.22L383.8,108.33L383.96,111.79L384.03,112.47L384.26,114.46L384.34,114.25L387.81,114.63L387.89,114.31L387.97,116.35L388.04,117.39L388.81,130.88L389.28,127.23L389.35,127.41L389.66,126.83L390.2,131.43L390.36,129.95L390.43,129.35L390.51,129.61L390.59,129.39L390.66,127.49L391.82,121.78L391.9,121.89L392.36,121.6L392.82,124.96L392.9,124.55L392.98,124.18L393.36,126.85L393.44,130L394.29,153.29L394.52,149.42L394.6,139.44L395.06,129.84L395.45,130.53L395.52,137.57L397.06,124.76L397.14,126.01L398.22,119.79L398.3,117.96L398.45,115.89L398.53,114.28L399.3,107.36L399.38,107.44L399.46,111.76L400.23,126.33L400.38,122.48L400.46,119.88L401.54,73.24L401.92,75.02L402,86.01L402.31,106.76L402.93,101.67L403,100.78L403.23,101.88L403.47,99.89L403.62,101.01L403.7,96.6L403.77,87.72L404.24,107.09L404.31,106.73L404.39,110.47L405.78,177.7L406.09,167.43L406.16,164.41L407.78,134.84L407.86,136L409.79,181.44L410.02,176.75L410.1,174.37L410.79,160.96L411.02,166.72L411.1,169.86L412.02,146.31L412.41,148.67L412.49,149.67L412.64,149.32L412.8,150.08L412.87,147.37L414.49,137.23L414.57,137.8L414.65,141.04L416.5,170.22L416.57,169.3L418.43,158.03L418.58,158.8L418.66,160.15L418.81,159.72L419.35,161.96L419.43,161.42L419.51,157.96L420.97,117.36L421.05,116.62L421.36,111.43L421.43,117.99L421.59,115.87L421.66,119.37L421.74,122.78L422.59,164.24L422.98,155.47L423.05,152.43L423.44,146.05L423.75,151.22L423.82,152.39L424.83,159.99L424.9,158.22L424.98,157.57L425.21,160.72L425.29,163.09L425.52,159.78L425.6,157.53L426.83,137.29L426.91,137.69L428.99,186.03L429.14,182.86L429.22,170.35L429.76,49.92L429.84,40.64L430.07,11L430.46,49.93L430.53,64.62L430.61,60.21L430.92,70L431.15,64.75L431.23,68.65L431.46,82.61L431.54,98.02L432.77,188.21L432.85,190.95L434.08,206.73L434.31,206.45L434.39,206.29L434.54,205.95L434.93,207.1L435.01,207.47L435.39,208.9L435.93,208.34L436.01,208.27L436.32,207.93L436.47,209L436.55,208.79L436.62,208.75L437.86,207.74L437.94,206.95L438.86,195.74L439.17,198.31L439.25,200.05L439.86,202.38L439.94,200.13L440.02,198.68L440.71,190.06L441.02,192.36L441.1,192.9L441.17,192.4L441.56,194.75L441.64,194.93L443.33,142.8L443.41,136.8L443.95,119.42L444.26,126.36L444.34,132.93L444.41,131.8L444.49,136.07L444.72,135.43L444.8,140.7L445.18,139.85L445.42,146.9L445.49,152.9L445.8,163.72L445.88,166.21L446.26,173.51L446.5,165.23L446.57,166.55L446.65,165.22L447.34,157.8L447.42,164.56L447.5,164.93L447.65,162.95L447.81,164.42L447.88,162.89L448.11,160.77L448.19,161.71L448.27,163.21L448.65,171.42L448.73,161.96L448.81,161.44L448.96,164.96L449.04,167.98L449.58,148.13L449.89,157.79L449.97,157.52L451.28,191.53L451.35,193.45L452.05,205.77L452.43,205.11L452.51,204.55L453.59,193.76L453.98,195.08L454.05,197.26L454.9,204.12L455.21,203.33L455.29,203.09L455.52,202.5L455.9,204.15L455.98,204.68L456.83,208.76L457.21,208.45L457.29,208.71L457.68,208.79L457.75,207.81L458.14,207.71L458.22,207.4L458.29,207.24L458.6,206.64L458.76,207.54L458.91,207.54L458.99,207.52L459.99,203.78L460.07,203.07L460.53,198.43L460.61,194.39L460.92,196.07L461.07,193.47L461.15,194.24L461.22,189.38L461.53,195.69L461.92,192.07L462,190.89L462.15,193L462.77,184.63L462.92,185.81L463,186.54L463.69,189.61L463.85,188.03L463.92,186.63L465.47,146.21L465.54,142.36L466.16,127.7L466.39,136.07L466.47,139.27L467.01,155.92L467.24,148.07L467.32,146.49L467.47,142.71L467.7,152.23L467.93,150.3L468.01,159.9L468.4,171.88L468.7,166.85L468.78,159.43L469.4,156.5L469.55,156.91L469.63,159.25L469.78,169.52L470.4,165.95L470.48,165.03L470.71,164.99L471.1,169.7L471.4,168.76L471.48,164.81L472.25,171.34L472.33,171.22L472.41,174.54L472.79,171.04L473.1,174.03" style="vector-effect: none; fill: none; stroke: rgb(99, 110, 250); stroke-opacity: 1; stroke-width: 2px; opacity: 1;"/></g><g class="points"/><g class="text"/></g></g></g><g class="overplot"/><path class="xlines-above crisp" d="M0,0" style="fill: none;"/><path class="ylines-above crisp" d="M0,0" style="fill: none;"/><g class="overlines-above"/><g class="xaxislayer-above"><g class="xtick"><text text-anchor="middle" x="0" y="333" transform="translate(167.99,0)" style="font-family: 'Open Sans', verdana, arial, sans-serif; font-size: 12px; fill: rgb(42, 63, 95); fill-opacity: 1; white-space: pre; opacity: 1;"><tspan class="line" dy="0em" x="0" y="333">Jan 23</tspan><tspan class="line" dy="1.3em" x="0" y="333">2022</tspan></text></g><g class="xtick"><text text-anchor="middle" x="0" y="333" style="font-family: 'Open Sans', verdana, arial, sans-serif; font-size: 12px; fill: rgb(42, 63, 95); fill-opacity: 1; white-space: pre; opacity: 1;" transform="translate(323.45,0)">Jan 30</text></g><g class="xtick"><text text-anchor="middle" x="0" y="333" style="font-family: 'Open Sans', verdana, arial, sans-serif; font-size: 12px; fill: rgb(42, 63, 95); fill-opacity: 1; white-space: pre; opacity: 1;" transform="translate(478.92,0)">Feb 6</text></g></g><g class="yaxislayer-above"><g class="ytick"><text text-anchor="end" x="79" y="4.199999999999999" transform="translate(0,312.26)" style="font-family: 'Open Sans', verdana, arial, sans-serif; font-size: 12px; fill: rgb(42, 63, 95); fill-opacity: 1; white-space: pre; opacity: 1;">0</text></g><g class="ytick"><text text-anchor="end" x="79" y="4.199999999999999" style="font-family: 'Open Sans', verdana, arial, sans-serif; font-size: 12px; fill: rgb(42, 63, 95); fill-opacity: 1; white-space: pre; opacity: 1;" transform="translate(0,263.64)">0.02</text></g><g class="ytick"><text text-anchor="end" x="79" y="4.199999999999999" style="font-family: 'Open Sans', verdana, arial, sans-serif; font-size: 12px; fill: rgb(42, 63, 95); fill-opacity: 1; white-space: pre; opacity: 1;" transform="translate(0,215.01999999999998)">0.04</text></g><g class="ytick"><text text-anchor="end" x="79" y="4.199999999999999" style="font-family: 'Open Sans', verdana, arial, sans-serif; font-size: 12px; fill: rgb(42, 63, 95); fill-opacity: 1; white-space: pre; opacity: 1;" transform="translate(0,166.39)">0.06</text></g><g class="ytick"><text text-anchor="end" x="79" y="4.199999999999999" style="font-family: 'Open Sans', verdana, arial, sans-serif; font-size: 12px; fill: rgb(42, 63, 95); fill-opacity: 1; white-space: pre; opacity: 1;" transform="translate(0,117.77)">0.08</text></g></g><g class="overaxes-above"/></g><g class="subplot x2y2"><g class="layer-subplot"><g class="shapelayer"/><g class="imagelayer"/></g><g class="minor-gridlayer"><g class="x2"/><g class="y2"/></g><g class="gridlayer"><g class="x2"><path class="x2grid crisp" transform="translate(690.89,0)" d="M0,100v220" style="stroke: rgb(255, 255, 255); stroke-opacity: 1; stroke-width: 1px;"/><path class="x2grid crisp" transform="translate(846.3499999999999,0)" d="M0,100v220" style="stroke: rgb(255, 255, 255); stroke-opacity: 1; stroke-width: 1px;"/><path class="x2grid crisp" transform="translate(1001.8199999999999,0)" d="M0,100v220" style="stroke: rgb(255, 255, 255); stroke-opacity: 1; stroke-width: 1px;"/></g><g class="y2"><path class="y2grid crisp" transform="translate(0,228.84)" d="M602.9,0h473.09999999999997" style="stroke: rgb(255, 255, 255); stroke-opacity: 1; stroke-width: 1px;"/><path class="y2grid crisp" transform="translate(0,148.04)" d="M602.9,0h473.09999999999997" style="stroke: rgb(255, 255, 255); stroke-opacity: 1; stroke-width: 1px;"/></g></g><g class="zerolinelayer"><path class="y2zl zl crisp" transform="translate(0,309.65)" d="M602.9,0h473.09999999999997" style="stroke: rgb(255, 255, 255); stroke-opacity: 1; stroke-width: 2px;"/></g><path class="xlines-below"/><path class="ylines-below"/><g class="overlines-below"/><g class="xaxislayer-below"/><g class="yaxislayer-below"/><g class="overaxes-below"/><g class="plot" transform="translate(602.9,100)" clip-path="url(#clipbbc547x2y2plot)"><g class="scatterlayer mlayer"><g class="trace scatter trace3a4b8b" style="stroke-miterlimit: 2; opacity: 1;"><g class="fills"/><g class="errorbars"/><g class="lines"><path class="js-line" d="M0,162.59L0.54,105.38L0.69,163.42L0.77,147.58L0.85,159.95L1,143.02L1.23,185.64L1.77,181.62L1.85,186.33L1.93,150.78L2.24,190.1L2.62,159.51L2.7,159.97L2.85,156.48L3.01,168.72L3.08,163.96L3.16,143.7L3.47,185.37L3.93,174.03L4.01,171.99L4.09,173.49L4.16,149.23L4.24,131.14L4.63,164.02L4.7,149.51L4.78,183.16L4.94,170.59L5.09,176.27L5.17,186.84L5.48,202.53L5.78,186.05L5.94,191.25L6.01,192.54L7.17,162.62L7.25,163.38L8.41,122.35L8.56,123.6L8.64,134.69L8.87,126.54L9.25,153.54L9.49,150.77L9.56,153.25L9.64,157.46L9.79,128.9L10.18,154.78L10.26,141.68L10.72,137.04L11.18,157.8L11.26,156.2L11.41,148.49L11.8,177.22L12.03,160.06L12.11,149.06L12.18,158.93L12.8,143.51L12.88,149.38L13.11,156L13.19,150.72L13.26,143.17L14.19,167.53L14.27,170.27L14.42,147.92L14.88,159.99L14.96,167.94L15.11,165.48L15.27,171.49L15.35,166.23L15.42,174.41L15.5,177.16L15.73,168.5L15.81,140.86L16.27,127.61L16.66,168.57L16.73,152.65L17.51,189.3L17.58,186.16L17.66,171.5L18.04,191.6L18.43,187.25L18.51,184.36L18.58,157.34L19.12,186.78L19.2,179.81L19.28,184.55L19.36,191.17L19.51,171.47L19.97,182.84L20.05,171.42L20.9,200.82L20.98,201.07L21.05,201.26L21.13,200.76L21.21,200.88L21.28,203.26L21.67,204.08L21.82,125.14L22.29,148.46L22.36,150.7L22.59,108.15L22.98,140.65L23.06,156.77L23.21,138.27L23.6,180.14L23.67,170.04L23.75,150.85L24.52,190.91L24.6,187.09L24.68,172.8L25.22,174.35L25.37,155.5L25.45,172.36L25.68,181.12L25.76,175.95L25.83,189.78L26.06,158.74L26.14,172.59L26.22,179.6L26.3,180.31L26.37,162.09L26.53,139.25L26.91,148.97L26.99,170.76L27.53,201.59L27.76,191.5L27.84,187.61L27.92,187.48L27.99,188.06L28.07,191L28.22,192.41L28.3,184.19L28.53,191.52L28.76,173.26L28.92,182.82L29,179.11L30.61,131.36L30.69,143.99L30.77,145.9L30.92,157.5L31.08,144.84L31.46,151.61L31.54,133.09L32.16,158.7L32.31,145.04L32.39,143L32.93,127.4L33.08,147.09L33.16,143.91L33.24,141L33.54,155.88L33.62,153.93L33.7,156.83L33.85,140.68L34.47,178.64L34.7,174.46L34.78,163.84L35.16,164.8L35.32,152.92L35.55,153.28L35.63,157.97L35.7,144.98L36.24,165.99L36.32,162.56L36.4,167.13L36.48,168.31L36.55,165.08L36.63,154.74L36.86,153.13L37.48,173.03L37.71,170.67L37.79,151.59L37.94,160.32L38.02,134.21L38.09,122.14L38.25,111.78L38.87,167.77L38.94,137.42L39.71,178.1L39.79,170.04L39.87,164.57L40.1,164.09L40.64,178.43L40.72,176.48L40.79,149.11L41.1,180.51L41.18,180.24L41.26,80.91L41.56,189.61L42.03,184.27L42.1,177.08L42.49,165.65L42.95,200.23L43.11,198.22L43.18,196.54L43.49,198.68L43.57,173.75L43.88,202.5L44.03,130.95L44.19,158.98L44.26,157.52L44.42,168.09L44.57,122.9L44.65,136.37L44.73,110.78L45.57,177.11L45.88,168.89L45.96,158.12L46.04,182.17L46.35,154.56L46.73,180.25L46.81,181.31L47.58,157.32L47.66,177.73L48.12,185.97L48.27,150.54L48.43,171.03L48.51,162.58L48.58,118.88L49.2,162.63L49.28,166.09L50.28,192.12L50.36,192.34L51.51,164.03L51.59,165.13L51.67,164.6L51.82,165.03L52.36,134.47L52.44,143.19L52.52,148.73L53.36,126.22L53.44,138.13L53.83,117.89L54.06,145.67L54.13,149.76L54.52,130.29L54.98,132.84L55.06,137.17L55.14,130.86L55.68,143.51L55.75,150.61L55.99,155.4L56.06,124.78L56.68,176.64L56.91,171.9L56.99,163.9L57.45,150.88L57.53,161.29L57.91,152.19L58.07,167.56L58.14,163.36L58.22,165.87L58.84,146.89L59.07,158.58L59.15,161.3L59.3,157.33L59.84,176.59L59.92,174.59L60,148.41L60.15,154.91L60.23,118.76L60.38,130.21L60.46,109.33L60.54,98.41L60.84,150.42L60.92,131.19L61,151.84L61.15,149.55L61.92,184.51L62,177.86L62.08,168.45L62.62,189.28L62.69,183.11L62.77,182.9L62.85,185.95L62.93,183.63L63,161.23L63.39,182.65L63.47,98.11L63.54,167.23L63.62,187.6L63.77,192.66L63.85,184.54L63.93,170.08L64.08,190.6L64.47,167.71L64.62,177.46L64.7,174.07L65.86,202.07L65.93,180.84L66.09,190.87L66.78,113.34L66.94,125.99L67.01,134.79L67.94,181.48L68.02,172.94L68.09,172.85L68.86,196.65L69.02,193.58L69.09,176.29L69.17,175.9L69.25,171.71L69.71,161.48L70.1,199.83L70.33,194.35L70.41,181.46L70.56,198.46L70.79,160.8L71.02,176.87L71.1,175.07L71.95,205.59L72.03,205.35L72.1,203.68L72.57,204.46L72.8,202.09L72.87,189.86L73.72,199.6L73.8,198.91L73.88,198.87L74.72,191.03L74.8,185.77L74.88,192.37L75.11,168.17L75.42,177.21L75.5,178.52L75.73,175.01L75.88,175.5L75.96,169.69L76.27,189.78L76.73,188.93L76.81,188.75L77.19,190.48L77.27,189.96L77.35,184.38L78.12,195.2L78.19,193.97L78.66,194.97L78.73,188.51L78.97,191.13L79.04,193L79.2,190.98L79.51,195.17L79.81,194.48L79.89,193.22L80.12,192.94L80.66,195.96L80.74,195.02L81.05,193.65L81.12,196.31L81.43,194.17L81.51,190.8L82.05,194.39L82.13,193.15L82.2,184.64L82.28,185.82L82.36,184.9L82.44,166.12L82.59,161.62L82.9,176.69L82.98,178.45L83.13,177.45L83.21,187.98L83.28,190.08L83.59,183.39L83.75,189.94L83.82,183.74L84.21,193.02L84.67,190.97L84.75,187.78L85.06,196.15L85.21,180.82L85.29,185.31L85.37,180.86L85.67,128.21L85.83,191.41L85.91,190.41L86.21,182.62L86.68,201.62L86.75,196.11L86.83,195.31L86.91,199.37L87.06,197.58L87.14,201.03L87.29,196.8L87.45,203.73L87.76,197.27L87.83,201.31L88.14,201.1L88.3,203.99L88.37,203.55L88.45,187.2L89.22,205.67L89.3,205.41L89.38,201.77L89.53,206.36L89.76,206.21L89.84,187.15L90.07,200.5L90.46,172.29L90.53,199.73L91.3,208.76L91.38,208.4L91.92,208.68L92.23,200.99L92.31,191.74L92.38,206.95L92.85,167.03L93,183.94L93.08,171.92L93.23,181.02L93.54,145.98L93.62,155.36L93.69,150.53L93.93,170.35L94.08,148.37L94.31,153.93L94.39,152.48L94.77,147.7L96.24,198.34L96.47,194.36L96.55,193.25L97.24,164.35L97.7,169.58L97.78,174.66L98.01,152.99L98.09,123.82L98.17,30.42L98.55,175.49L98.78,172.74L98.86,172.82L99.02,173.07L99.09,167.78L99.25,168.43L99.32,142.98L99.48,163.84L99.63,162.03L99.71,142.4L99.94,183.39L100.48,173.92L100.56,175.41L100.94,173.92L101.56,197.7L101.64,197.63L102.1,194.96L102.33,195.68L102.41,197.68L102.64,199.17L102.79,196.86L103.1,198.18L103.18,197.03L103.57,197.86L103.72,187.57L103.87,197.14L103.95,196.64L104.11,197L104.18,195.3L104.26,195.74L104.34,193.99L104.41,185.71L104.57,187.18L104.64,177.93L105.11,173.83L105.34,190.05L105.42,188.89L105.49,178.13L106.34,197.1L106.42,192.36L106.5,192.17L106.57,192.9L106.65,195.14L106.73,194.58L107.11,197.01L107.19,197.5L107.27,198.42L107.34,193.87L107.42,185.07L107.88,181.84L108.12,198.8L108.19,198.18L108.27,197.23L108.35,186.61L108.96,191.28L109.04,196.05L109.12,197.97L109.27,183.69L109.35,185.02L109.66,204.03L110.2,202.77L110.27,186.05L110.43,201.99L110.66,165.65L110.97,188.51L111.05,189.13L111.12,149.57L111.82,175.25L111.89,185.83L112.05,171.01L112.28,185.96L112.36,190.24L112.43,191.22L112.51,175L112.59,173.85L112.66,187.91L112.74,186.02L112.82,190.96L112.9,189.16L112.97,163.11L113.13,166.68L113.2,176.58L113.44,187.69L113.67,165.22L114.05,187.32L114.13,181.62L114.36,179.01L114.44,186.45L114.59,186.17L114.67,197.27L114.82,168.89L115.29,171.25L115.36,180.16L115.6,189.74L115.75,162.91L116.06,182.34L116.14,188.35L116.21,180.6L116.6,199L116.83,194.07L116.91,194.8L117.83,175.78L117.91,171.51L119.45,87.38L119.68,100.31L119.76,117.6L119.91,102.57L119.99,120.46L120.3,118.17L120.38,97.66L120.84,95.1L121.07,122.97L121.15,119.54L121.22,111.68L121.3,83.55L121.84,142.22L121.92,150.28L122.23,138.02L122.3,150.45L122.38,151.59L122.54,156L122.69,148.19L122.77,163.76L123.15,157.25L123.46,171.97L123.54,170.07L123.62,165.19L124.54,140.24L124.62,159.4L124.69,160.53L124.77,153.63L124.93,154.8L125,152.12L125.23,160L125.39,153.66L125.47,139.57L126.08,169.41L126.31,165.57L126.39,169.07L126.47,171.43L126.62,155.24L126.78,165.16L126.85,135.66L127.09,101.16L127.32,137.03L127.39,158.46L127.86,157.1L128.55,187.88L128.63,180.63L128.94,170.48L129.09,184.41L129.32,179.3L129.4,184.13L129.48,186.29L129.55,183.15L129.63,156.39L129.71,157.48L129.78,172.89L129.94,183.56L130.02,177.75L130.09,160.2L130.4,189.54L130.86,181.76L130.94,175.06L131.25,155.48L131.87,199L131.94,200.9L132.17,202.17L132.33,200.97L132.41,180.89L132.48,200.51L132.95,132.73L133.02,142.85L133.1,154.81L133.25,169.6L133.56,106.76L133.79,151.38L133.87,148.04L134.26,138.05L134.64,174.5L134.72,159.25L134.8,148.23L135.11,185.13L135.26,170.84L135.34,184.42L135.41,184.66L135.49,188.11L135.72,162.86L135.8,163.99L135.88,149.59L136.88,188.36L136.96,186.42L137.73,138.59L137.8,167.23L138.11,133.44L138.42,160.73L138.5,168.13L139.42,186.72L139.58,186.69L139.66,184.96L141.04,134.16L141.12,137.35L141.2,139.44L141.43,140.39L141.66,103.13L141.97,133.66L142.05,141.71L142.2,113.49L142.74,138.57L142.82,137.86L142.89,142.29L143.2,124.3L143.43,137.99L143.51,120.84L143.82,145.82L144.36,143.04L144.44,139.31L144.74,162.19L144.9,133.49L145.21,154.15L145.28,147.77L145.36,132.61L145.9,158.68L146.06,137.04L146.13,140.72L146.83,162.79L146.98,159.89L147.06,158.58L147.37,156.38L147.52,161.46L147.6,160.57L147.68,152.22L148.29,171.21L148.52,170.53L148.6,173.55L148.83,158.67L148.99,167.62L149.06,137.88L149.53,101.65L149.76,141.7L149.83,161.57L150.37,142.69L150.45,145.81L150.53,162.22L150.76,184.94L151.38,178.28L151.45,180.23L151.53,177.18L151.69,184.33L151.76,177.23L151.84,148.81L152.61,191.17L152.69,183.93L152.76,169.47L153.38,168.6L153.69,192.68L153.77,198.52L153.92,195.87L154.08,201.08L154.15,201.06L154.23,201.46L154.62,198.85L154.69,202.22L154.77,180.3L154.85,178.97L154.92,191.02L155,185.41L155.08,123.44L155.23,164.99L155.7,113.05L155.85,149.65L155.93,146.33L156.08,138.71L156.23,166.36L156.47,142.91L156.54,162.79L157.01,161.08L157.31,183.58L157.39,161.62L157.55,172.14L157.62,176.95L157.85,183.15L157.93,165.3L158.01,165.7L158.09,151.41L159.01,190.03L159.09,189.16L159.17,191.04L159.24,163.69L159.4,188.95L159.7,144.46L159.86,154.62L159.94,142.71L160.86,194.07L160.94,197.43L161.56,186.73L161.71,193.24L161.79,192.42L163.41,136.23L163.48,147.5L163.71,158.34L163.79,153.36L163.87,144.28L163.95,134.66L164.25,150.76L164.56,140.04L164.64,145.52L164.72,144.78L164.79,136.92L165.41,154.38L165.57,142.73L165.64,135.62L165.72,134.22L165.87,140.88L166.03,140.8L166.11,147.14L166.18,138.65L166.26,153.11L166.72,150.37L166.8,155.14L166.88,155L166.95,149.85L167.11,125.58L167.72,175.34L167.96,171.02L168.03,157.21L168.19,167.39L168.65,156.98L168.73,157.76L168.8,156.38L168.88,155.61L168.96,140.45L169.65,165.82L169.73,161.95L169.81,166.31L169.88,152.21L170.42,172.07L170.5,171.65L170.58,169.83L170.66,172.92L170.89,169.26L170.96,170.24L171.04,150.68L171.2,160.79L171.27,140.91L171.58,110.46L171.89,146.36L171.97,148.72L172.97,184.98L173.05,181.44L173.12,170.71L173.66,182.57L173.74,178.93L173.82,179.87L173.89,182.23L173.97,180.86L174.05,140.54L174.82,191.84L174.9,184.63L174.97,170.81L175.51,191.48L175.59,190.99L175.67,174.18L175.82,161.38L175.9,186.56L175.98,198.79L176.13,192.38L176.36,203L176.59,200.74L176.67,201.29L176.82,199.08L176.9,201.87L177.13,202.98L177.75,105.36L177.83,121.73L177.9,126.64L177.98,119.04L178.29,143.7L178.37,167.45L178.6,168.93L178.68,157.38L178.75,158.87L178.83,174.44L179.22,152.82L179.45,182.69L179.52,180.71L179.6,150.38L179.99,191.86L180.37,168.8L180.45,169.09L180.83,149.32L180.91,176.21L180.99,166.88L181.07,184.13L181.3,190.85L181.37,187.6L181.45,158.64L181.61,181.43L181.91,143.15L182.07,154.47L182.15,142.28L183.15,197.88L183.23,196.18L183.38,192.86L183.46,190.97L184.23,173.17L184.3,174.32L184.38,176.69L186.08,115.8L186.16,130.13L186.23,135.27L186.46,151.15L186.7,131.34L186.93,139.89L187,122.15L187.39,150.09L187.77,142.66L187.85,146.85L188.08,147.78L188.39,132.35L188.47,147.75L188.55,153.27L189.09,162.91L189.24,160.02L189.32,144.37L189.47,166.03L190.09,164.99L190.17,161.67L190.4,161.69L191.17,131.24L191.24,144.31L191.32,159.81L191.4,160.36L191.48,159.86L191.55,154.98L191.63,157.93L191.86,141.7L192.02,152.14L192.09,141.61L192.71,173.33L192.94,167.35L193.02,169.43L193.1,177.26L193.48,147.96L193.56,149.33L193.64,155.46L193.94,135.57L194.25,167.5L194.41,147.25L194.48,166.38L194.64,160.4L195.18,187.4L195.25,183.2L195.33,170.13L195.72,186.46L196.1,182.04L196.18,180.85L196.33,145.95L196.87,175.56L196.95,184.16L197.03,187.63L197.18,164.47L197.41,180.81L197.49,167.49L197.88,153.78L198.42,200.87L198.49,203.29L198.8,203.22L198.88,201.8L198.96,202.47L199.03,199.74L199.11,195.81L200.19,112.14L200.27,126.27L200.34,124.76L200.42,145.28L200.88,141.1L201.19,175.93L201.35,167.72L201.42,155.15L201.73,195.54L202.2,185.8L202.27,185.94L203.04,150.57L203.12,161.2L203.2,161.09L203.43,181.04L203.58,179.71L203.66,140.63L203.97,184.57L204.2,117.57L204.28,132.05L204.35,126.45L205.36,196.84L205.43,193.29L205.97,176.63L206.21,180.71L206.28,186.47L207.21,153.25L207.28,157.13L208.36,113.4L208.44,118.43L208.52,144.02L208.83,129.66L209.21,132.68L209.29,148.51L209.52,153.76L209.6,152.31L209.68,142.52L209.83,130.42L210.06,144.66L210.14,138.46L210.22,142.73L210.37,146.76L210.52,134.58L210.6,112.19L211.14,162.32L211.45,159.55L211.53,140.27L211.6,141.62L211.68,138.01L211.76,155.71L211.91,158.77L212.22,144.1L212.3,166.87L212.37,168.96L212.61,160.97L212.91,164.81L212.99,159.06L213.38,143.81L213.69,162.45L213.76,163.18L214.23,167L214.3,159.33L214.46,162.17L214.53,152.52L215.38,175.7L215.46,162.86L215.54,166.65L215.61,157.86L215.69,132.65L216.54,163.71L216.62,143.8L217.31,184.4L217.46,178.59L217.54,178.12L217.7,187.26L217.77,134.53L218.24,176.82L218.31,179.78L218.47,122.3L218.7,155.61L218.78,170.28L218.93,163.21L219.24,180.97L219.31,176.91L219.39,149.82L219.93,182.15L220.24,180.47L220.32,181.89L220.93,201.63L221.17,201.14L221.24,188.05L221.32,194.52L221.4,164.09L221.63,185.26L221.71,137.31L222.01,173.22L222.25,101.43L222.4,117.36L222.48,132.88L222.71,151.98L222.78,165.44L223.02,169.53L223.48,145.07L223.56,158.03L223.63,164.85L223.71,163.86L223.79,174.07L224.02,170.35L224.33,189.03L224.48,186.06L224.56,167.51L224.64,165.64L224.79,175.65L225.02,169.11L225.1,173.32L225.41,145.36L225.48,186.35L225.87,177.52L226.26,195.58L226.33,181.8L226.41,136.82L227.03,184.73L227.1,193.59L227.95,205.41L228.11,205.03L228.18,204.55L228.26,204.02L228.34,197.24L229.19,176.21L229.26,175.38L229.65,182.7L229.96,180.25L230.03,175.91L230.34,182.04L230.57,164.57L230.65,166.78L230.73,157.07L231.27,176.87L231.5,169.2L231.58,170.6L231.96,174.82L232.19,174.29L232.27,160.15L232.5,168.49L232.66,116.7L233.12,143.3L233.2,141.95L234.04,191.64L234.12,189.5L234.2,183.68L234.97,200.32L235.2,199.59L235.28,198.87L235.59,197.32L236.13,201.01L236.2,200.62L236.28,201.25L236.51,199.99L236.82,200.45L236.9,199.08L236.97,196.76L237.28,200.32L237.59,199.34L237.67,198.52L237.75,199.09L237.82,197.94L237.9,193.72L237.98,190.46L238.52,196.24L238.59,197.29L239.44,200.81L239.52,201.22L240.52,203.79L240.6,200.91L241.45,204.76L241.52,202.95L241.6,201.36L241.76,204.2L243.84,200.4L243.91,183.61L244.53,201.44L244.61,204.36L244.69,207.24L245.07,195.03L245.38,205.9L245.46,205.87L245.92,208.4L246.23,208.18L246.31,208.37L246.61,209L246.69,192.37L246.77,184.84L247.08,207.07L247.23,206.94L247.31,206.55L247.77,207.09L248,204.11L248.08,167.18L248.46,167.64L248.93,134.17L249,134.34L249.39,156.99L249.47,131.82L249.85,142.62L249.93,140.39L250.16,115L250.24,140.65L250.39,131.75L250.55,154.83L250.62,159.95L251.63,199.24L251.93,197.57L252.01,197.48L252.17,197.65L252.24,197.09L252.32,200.8L252.4,201.3L252.63,200.32L252.71,189.3L253.01,193.47L253.09,185.8L253.17,180.56L253.55,186.11L253.71,178.51L253.79,177.85L254.17,197.37L254.71,194.55L254.79,179.42L254.94,199.18L255.48,172.43L255.56,183.18L256.25,201.61L256.33,201.23L256.41,194.87L256.95,200.77L257.18,198.98L257.26,199.93L257.33,196.66L257.95,201.04L258.03,200.75L258.1,200.91L258.18,200.47L258.26,193.97L258.8,200.86L259.03,200L259.11,196.13L259.18,192.14L259.57,201.85L259.72,200.46L259.8,200.78L260.11,185.92L260.65,192.89L260.73,198.61L260.88,200.93L260.96,199.45L261.03,191.26L261.65,201.29L261.88,200.7L261.96,192.32L262.81,201L262.88,200.46L262.96,197.72L263.42,204.37L263.58,201.28L263.66,200.65L263.81,194.67L264.35,205.28L264.43,203.12L264.5,200.52L264.74,198.24L265.12,205.9L265.43,205.56L265.51,205.85L265.58,205.35L265.66,194.7L266.05,205.69L266.35,188.56L266.43,195.05L266.59,191.77L266.66,172.67L267.43,200.76L267.51,188.08L267.59,189.06L267.9,194.51L268.05,179.3L268.13,186.68L268.21,195.38L268.36,196.95L268.44,180.61L268.75,194.4L268.82,196.5L269.13,172.96L269.29,178.31L269.36,193.85L269.67,183.17L270.21,202.53L270.29,197.17L270.6,194.23L270.67,197.14L270.75,186.04L270.98,180.48L271.37,195.44L271.52,190.61L271.6,191.71L271.91,192.14L272.83,180.49L272.91,184.12L273.91,146.16L273.99,134.84L274.45,107.83L274.76,117.26L274.84,125.52L274.91,92.24L275.3,127.62L275.53,115.95L275.61,116.93L275.84,113.44L276.61,148.62L276.69,148.07L276.77,127.48L278.08,166.77L278.15,163.55L278.54,171.69L278.85,163.33L278.92,164.82L279,164.92L279.62,143.51L279.85,146.47L279.93,149.85L280,135.4L280.24,152.27L280.62,151.75L280.7,153.73L281.01,145.34L281.24,159.75L281.39,154.13L281.47,162.43L281.86,146.94L281.93,159.96L282.55,117.81L282.78,134.51L282.86,145.05L282.93,142.72L283.09,160.24L283.17,164.19L283.24,145.69L283.78,175.63L283.86,170.48L283.94,171.39L284.01,176.44L284.25,139.79L284.32,148.11L284.4,137.86L284.55,134.36L284.63,135.34L284.71,149.52L284.79,149.66L284.86,165.51L284.94,172.03L285.25,142.8L285.33,137.93L286.17,179.71L286.25,171.69L286.56,184.09L286.71,139.96L286.94,179.6L287.02,190.24L287.18,186.79L287.41,198.41L287.48,199.98L287.72,202.74L287.79,202.63L287.87,186.72L287.95,202.7L288.33,146.76L288.41,110.05L289.1,108.87L289.18,153.01L289.26,154.02L289.49,138.87L289.64,164.67L289.87,164.18L289.95,164L290.03,167.14L290.18,163.78L290.26,135.68L290.57,167.4L290.65,127.95L291.11,164.74L291.19,150.17L291.26,151.75L291.34,142.38L291.42,136.74L291.57,130.22L291.73,147.69L291.96,143.35L292.03,116.94L292.88,180.92L292.96,171.15L293.04,173.87L293.27,158.8L293.35,161.31L293.42,159.24L293.81,164L293.88,155.85L293.96,196.85L294.04,197.95L294.27,192.19L294.35,194.76L294.42,181.3L295.27,158.58L295.35,165.81L295.43,166.11L296.04,146.7L296.12,153.18L296.2,142.37L296.66,120.95L296.97,131.4L297.05,135.6L297.28,116.19L297.82,119.33L297.89,116.92L298.05,110.06L298.43,132.69L298.51,103.94L299.21,139.66L299.36,136.7L299.44,132.08L299.67,131.43L300.44,164.43L300.52,164.22L300.59,160.87L301.21,137.67L301.37,146.48L301.44,149.23L301.75,127.12L302.21,133.93L302.29,147.63L302.52,148.17L302.6,145.5L302.68,144.82L302.83,161.15L303.45,152.44L303.52,153L303.6,152.67L303.68,164.14L303.91,159.64L304.22,172.46L304.3,154L304.37,157.96L304.53,129.05L304.68,143.21L304.76,127.74L304.84,126.37L304.99,134.62L305.07,144.67L305.3,122.47L305.68,153.22L305.76,161.99L305.91,166.59L306.07,142L306.15,140.56L306.38,134.08L306.99,159.53L307.07,158.44L307.23,165.56L307.3,128.8L307.53,128.3L308.07,167.21L308.15,165.94L308.23,145.65L309.23,190.05L309.31,191.09L309.39,190.54L309.46,198.41L309.69,201.38L309.77,201.11L309.85,196.68L309.92,201.71L310.31,176.91L310.46,191.03L310.54,123.01L310.62,123.79L310.7,160.06L310.85,173.68L310.93,161.39L311,135.14L311.16,115.22L311.31,151.88L311.54,148.36L311.62,167.95L312.01,125.44L312.39,148.49L312.47,151.45L312.86,137.43L313.24,174.89L313.32,162.76L313.4,165.75L314.32,146.69L314.4,176.99L314.47,176.83L314.55,163.87L314.63,164.36L314.71,146.23L315.17,175.02L315.55,159.22L315.63,148.14L316.25,195L316.56,187.44L316.63,168.28L316.71,160.33L317.17,176.84L317.25,175.91L317.33,178.38L318.02,159.53L318.1,154.64L318.41,156.52L318.56,152.08L318.64,148.49L318.72,149.26L318.79,147.18L318.87,123.65L319.26,147.05L319.64,128.21L319.72,139.78L320.03,123.46L320.41,135.48L320.49,139.7L320.72,135.77L320.88,142.36L320.95,142.29L321.03,145.71L321.49,146.56L321.65,125.59L321.88,136.18L321.95,140.13L322.03,140.62L322.11,149.11L322.19,147.52L322.26,155.68L322.42,152.02L322.49,165.2L322.57,156.42L323.19,168.84L323.27,167.23L323.34,169.83L323.65,159.91L323.73,156.31L324.42,146.16L324.5,151.3L324.58,157.69L325.42,144.61L325.5,152.09L325.58,152.23L325.66,151.73L325.73,159.43L325.81,152.7L326.35,166.18L326.43,165.27L326.97,122.02L327.2,133.91L327.28,139.33L327.66,138.6L328.2,176.05L328.28,170.39L328.36,173L328.59,161.82L329.2,178.64L329.28,176.9L329.43,175.81L329.51,153.38L330.13,182.07L330.36,174.77L330.44,155.47L330.9,119.02L330.98,183.07L331.29,180.05L331.36,178.48L332.13,201.54L332.29,201.14L332.37,201.93L332.6,203.92L333.29,103.75L333.37,131.74L333.44,130.61L333.52,121.75L333.75,160.72L333.98,152.81L334.06,167.7L334.45,186.93L334.6,147.21L334.76,161.1L334.83,169.58L334.99,177.32L335.06,154.87L335.37,188.17L335.91,171.5L335.99,155.59L336.76,194.91L336.84,193.52L336.92,166.07L337.07,186.93L337.38,150.61L337.53,160.82L337.61,150.04L338.69,197.58L338.77,191.78L338.84,188.1L339.15,194.39L339.54,189.9L339.61,187.13L340.62,158.66L340.69,162.54L340.77,163.65L340.85,160.71L340.93,152.98L341.08,140.14L341.31,160.8L341.62,146.13L341.7,152.72L341.93,158.42L342,149.47L342.24,154.86L342.31,160.05L342.54,137.45L343.08,145.1L343.16,146.44L343.24,150.44L343.39,138.07L343.7,144.34L343.78,128.03L345.4,180L345.47,172.47L345.55,179.39L345.94,154.87L346.09,162.18L346.17,161.74L346.4,160.01L346.48,167.99L346.63,155.02L347.17,165.93L347.25,165.67L347.33,167.94L347.56,154.9L347.63,160.41L347.71,156.54L348.64,180.03L348.71,159.96L348.79,165.38L349.02,139.71L349.1,141.9L349.18,116.07L350.18,177.37L350.26,175.08L350.33,176.29L350.41,157.73L351.34,180.13L351.41,175.71L351.57,183.35L351.72,159.77L352.11,179.3L352.18,158.16L352.88,198.55L353.03,196.29L353.11,198.08L353.88,203.71L353.96,192.09L354.03,162.69L354.34,199.81L354.73,175.48L354.81,189.25L354.88,187.55L354.96,136.31L355.27,162.41L355.58,117.12L355.65,121.21L355.73,140.82L356.35,128.91L356.5,172.8L356.58,168.96L356.66,160.86L356.89,152.38L357.43,183.83L357.5,182.68L357.58,191.44L357.97,158.45L358.2,164.97L358.28,172.31L358.43,170.14L358.97,197.52L359.05,193.92L359.12,174.27L359.28,190.28L359.59,142.67L359.74,163.67L359.82,146.62L360.9,198.11L361.36,197.9L361.44,194.93L363.21,161.44L363.29,146.45L363.6,160.7L363.83,134L363.91,133.67L364.21,131.11L364.6,144.87L364.68,129.31L365.22,158.48L365.52,152.48L365.6,148.35L365.99,132.57L366.06,119.63L366.14,119.91L366.22,137.75L366.3,137.43L366.37,140.44L366.91,163.62L366.99,139.53L367.22,160.3L367.3,145.69L367.61,176.24L368.15,161.66L368.22,161.4L368.38,154.99L368.61,167.34L368.99,164.72L369.07,165.51L369.15,170.69L369.3,158.46L369.69,169.01L369.77,161.97L370.38,175.63L370.61,167.69L370.69,165.66L370.85,167.48L370.92,155.8L371.08,166.51L371.46,142.58L371.54,146.15L372.62,177.39L372.7,177.21L372.77,171.85L373,168.14L373.47,179.21L373.54,176.99L373.62,178.58L373.7,184.53L374.01,156.66L374.08,173.25L374.16,158.75L375.01,191.95L375.09,191.63L375.63,195.01L375.78,176.61L375.86,196.09L376.01,184.05L376.17,202.39L376.4,200.87L376.48,201.07L376.63,201.32L376.71,187.3L376.78,187.64L376.86,178.97L377.01,191.41L377.09,185.68L377.17,140.79L377.4,179.58L377.86,134.43L377.94,122.76L378.87,188.16L378.94,187.57L379.02,176.07L379.41,196.06L379.56,195.03L379.64,197.22L379.95,203.71L380.64,170.57L380.72,193.23L381.18,201.38L381.33,185.62L381.49,200.22L381.56,180.44L381.8,178.85L381.87,181.07L381.95,184.91L382.03,181.77L382.34,196.82L382.49,192.48L382.57,199.36L382.88,206.18L383.49,204.8L383.57,204.24L383.8,201.86L383.96,204.89L384.26,203.63L384.34,203.69L387.81,204.7L387.89,199.79L388.27,195.79L388.43,201.53L388.66,201.25L388.74,200.1L389.04,202.73L389.43,198.43L389.51,200.91L389.58,201.59L389.66,195.65L390.28,202.28L390.36,201.52L391.05,201.04L391.13,203.17L391.2,202.86L391.28,202.3L391.67,203.12L391.82,202.99L391.9,201.24L391.98,198.85L392.05,203.22L392.59,202.46L392.67,202.04L392.9,201.42L392.98,202.4L393.05,202.08L393.13,200.07L393.29,201.56L393.36,188.99L393.44,184.1L393.67,192.77L393.98,186.85L394.06,193.05L394.83,202.14L394.91,202.31L395.06,200.45L395.14,195.91L395.21,195.6L395.29,199.99L395.6,201.81L395.68,198.8L395.75,198.26L396.22,197.05L396.45,203.32L396.52,202.98L396.6,193.96L396.91,204.68L397.22,189.35L397.37,199.83L397.45,200.01L397.99,199.68L398.53,205.45L398.61,205.39L398.68,205.95L399.15,206.86L399.3,205.1L399.38,188.68L400.15,206.88L400.38,205.27L400.46,205.97L400.61,206.94L400.77,203.54L400.84,201.95L401,181.11L401.31,189.12L401.38,201.86L402.23,206.52L402.31,205.72L402.39,204.9L402.77,206.62L403,206.37L403.08,206.36L403.31,205.1L403.39,206.43L403.47,195.42L404.47,138.43L404.54,156.87L404.62,149.38L404.78,164.73L405.24,157.98L405.32,158.72L405.39,157.24L405.55,164.93L405.62,157.57L405.7,172.64L405.86,155.06L406.16,171.13L406.24,173.16L406.78,186.49L406.86,198.1L406.94,198.28L407.01,196.73L407.09,197.17L407.17,194.96L407.48,195.94L407.55,195.67L407.63,193.77L408.02,195.82L408.4,178.29L408.63,186.46L408.71,187.14L408.79,188.87L408.94,176.52L409.02,174.76L409.09,171.25L409.48,178.68L409.63,177.63L409.71,188.75L409.87,191.02L410.02,187.79L410.1,190.26L410.17,178.14L410.25,162.76L410.64,192.21L410.95,165.78L411.02,174.29L411.49,197.57L411.79,191.5L411.87,168.28L412.56,197.03L412.64,196.67L412.72,193.31L412.8,189.66L413.1,195.32L413.34,194.39L413.41,196.14L413.57,197.49L413.72,195.23L414.03,196.75L414.11,193.93L414.42,196.14L414.57,187.28L414.88,191.77L414.96,192.69L415.19,192.91L415.5,186.9L415.57,175.41L415.73,172.13L415.96,183.41L416.11,181.97L416.19,182.11L417.11,192.02L417.19,190.49L417.27,191.79L417.35,188.63L417.42,176.39L418.12,194.05L418.27,190.77L418.35,181.87L418.43,182.7L418.5,180.67L418.58,175.13L419.12,190.93L419.35,181.17L419.43,189.5L419.89,188.82L420.28,196.06L420.35,192.47L420.43,177.02L420.82,201.7L421.05,201.09L421.12,191.49L421.28,202.26L422.05,142.13L422.13,147.92L422.2,163.44L422.28,154.03L422.74,183.35L422.82,188.09L422.9,189.42L422.98,171.68L423.36,193.82L423.52,171.61L423.82,184.7L423.9,164.49L424.29,187.93L424.52,170.15L424.59,169.22L424.98,190.6L425.06,181.51L425.13,163.43L425.52,192.66L425.91,184.02L425.98,175.41L426.14,186.56L426.21,172.98L426.37,162.23L426.91,185.85L427.06,180.15L427.14,173.26L427.45,188.84L427.91,184.26L427.99,181.92L428.06,181.53L428.3,184.38L428.37,179.62L429.45,11L429.68,63.59L429.76,83.81L430.07,91.81L430.53,35.04L430.69,39.74L430.76,90.85L431,55.55L431.38,106.89L431.46,116.42L431.54,114.15L431.61,66.68L432.15,130.81L432.46,124.09L432.54,125.49L432.69,120.23L432.85,139.94L433,131.63L433.08,134.98L434,160.86L434.08,152.19L434.16,152.94L434.39,160.68L434.7,142.62L434.85,148.7L434.93,149.23L435.47,131.98L435.55,145.48L435.85,152.65L436.32,149.04L436.39,143.38L436.62,141.89L436.93,155.85L437.16,147.56L437.24,147.86L437.4,154.18L437.55,128.15L437.7,148.65L437.78,131.67L438.01,123.66L438.63,148.42L438.71,135.99L439.94,165.12L440.02,158.89L440.4,171.27L440.56,142.25L440.71,158.48L440.79,143.08L441.64,179.17L441.71,177.67L441.79,171.59L442.02,179.14L442.18,165.58L442.25,169.38L442.33,181.28L442.41,178.79L442.56,190.78L442.64,189.29L442.72,196.1L443.18,198.06L443.26,196.51L443.33,181.34L443.56,195.96L443.72,162.46L443.8,112.47L444.34,96.36L444.8,168.46L444.88,173.43L444.95,157.32L445.57,183.62L445.65,158.33L445.72,153.68L446.42,186.85L446.57,183.79L446.65,166.36L447.04,157.83L447.11,170.53L447.19,169.24L447.27,184.64L447.81,191.39L448.04,149.62L448.19,156.12L448.27,172.84L448.65,146.29L448.81,180.46L449.04,156.98L449.12,175.08L449.27,168.17L449.43,183.76L449.5,192.07L449.58,192.59L449.66,184.12L449.81,184.58L451.05,165.56L451.12,166.67L451.2,159.27L451.28,160.08L451.35,153.49L451.43,152.64L452.12,131.86L452.51,132.1L452.59,120.66L452.74,126.51L452.82,137.23L452.9,138.33L452.97,135.65L453.05,122.32L453.44,142.5L453.9,134.93L453.98,135.43L454.67,136.7L454.75,128.57L454.82,136.28L454.9,127.16L455.52,139.13L455.59,140.38L455.83,135.28L455.98,151.95L456.29,139.85L456.37,134.92L456.91,151.63L457.21,145.51L457.29,150.55L457.37,151.13L457.45,144.57L457.6,146.81L457.68,134.29L458.45,160.56L458.53,155.25L458.6,146.71L459.22,161.66L459.3,158.88L459.68,170.5L459.76,142.15L459.84,152.44L459.99,116.24L460.38,131.69L460.45,132.17L461.3,158.4L461.38,146.84L462.23,181.6L462.3,176.68L462.54,177.89L462.61,181.55L462.69,185.12L462.77,148.21L463.61,183.03L463.69,159.53L464.23,190.83L464.31,187.7L464.39,150.7L465,199.77L465.23,199.57L465.31,199L465.47,200.34L465.77,172.77L465.85,195.96L465.93,202.49L466.01,156.45L466.08,125.58L466.31,166.12L466.55,112.55L466.85,141.98L466.93,152.09L467.01,152.39L467.09,170.55L467.39,149.11L467.78,184.78L467.86,169.69L467.93,159.15L468.24,184.19L468.55,176.34L468.63,182.69L468.7,187.21L469.01,166.76L469.17,176.9L469.24,169.23L469.48,161.19L470.09,195.03L470.17,164.7L470.32,173.03L470.4,157.5L470.56,166.82L470.63,146.14L470.86,143.6L471.25,183.46L471.48,174.98L471.56,163.88L472.41,188.15L472.48,184.57L472.87,186.39L472.95,173.55L473.1,175.77" style="vector-effect: none; fill: none; stroke: rgb(239, 85, 59); stroke-opacity: 1; stroke-width: 2px; opacity: 1;"/></g><g class="points"/><g class="text"/></g></g></g><g class="overplot"/><path class="xlines-above crisp" d="M0,0" style="fill: none;"/><path class="ylines-above crisp" d="M0,0" style="fill: none;"/><g class="overlines-above"/><g class="xaxislayer-above"><g class="x2tick"><text text-anchor="middle" x="0" y="333" transform="translate(690.89,0)" style="font-family: 'Open Sans', verdana, arial, sans-serif; font-size: 12px; fill: rgb(42, 63, 95); fill-opacity: 1; white-space: pre; opacity: 1;"><tspan class="line" dy="0em" x="0" y="333">Jan 23</tspan><tspan class="line" dy="1.3em" x="0" y="333">2022</tspan></text></g><g class="x2tick"><text text-anchor="middle" x="0" y="333" style="font-family: 'Open Sans', verdana, arial, sans-serif; font-size: 12px; fill: rgb(42, 63, 95); fill-opacity: 1; white-space: pre; opacity: 1;" transform="translate(846.3499999999999,0)">Jan 30</text></g><g class="x2tick"><text text-anchor="middle" x="0" y="333" style="font-family: 'Open Sans', verdana, arial, sans-serif; font-size: 12px; fill: rgb(42, 63, 95); fill-opacity: 1; white-space: pre; opacity: 1;" transform="translate(1001.8199999999999,0)">Feb 6</text></g></g><g class="yaxislayer-above"><g class="y2tick"><text text-anchor="end" x="601.9" y="4.199999999999999" transform="translate(0,309.65)" style="font-family: 'Open Sans', verdana, arial, sans-serif; font-size: 12px; fill: rgb(42, 63, 95); fill-opacity: 1; white-space: pre; opacity: 1;">0</text></g><g class="y2tick"><text text-anchor="end" x="601.9" y="4.199999999999999" style="font-family: 'Open Sans', verdana, arial, sans-serif; font-size: 12px; fill: rgb(42, 63, 95); fill-opacity: 1; white-space: pre; opacity: 1;" transform="translate(0,228.84)">5k</text></g><g class="y2tick"><text text-anchor="end" x="601.9" y="4.199999999999999" style="font-family: 'Open Sans', verdana, arial, sans-serif; font-size: 12px; fill: rgb(42, 63, 95); fill-opacity: 1; white-space: pre; opacity: 1;" transform="translate(0,148.04)">10k</text></g></g><g class="overaxes-above"/></g></g><g class="polarlayer"/><g class="smithlayer"/><g class="ternarylayer"/><g class="geolayer"/><g class="funnelarealayer"/><g class="pielayer"/><g class="iciclelayer"/><g class="treemaplayer"/><g class="sunburstlayer"/><g class="glimages"/><defs id="topdefs-bbc547"><g class="clips"/><clipPath id="legendbbc547"><rect width="92" height="48" x="0" y="0"/></clipPath></defs><g class="layer-above"><g class="imagelayer"/><g class="shapelayer"/></g><g class="infolayer"><g class="legend" pointer-events="all" transform="translate(1095.92,100)"><rect class="bg" shape-rendering="crispEdges" style="stroke: rgb(68, 68, 68); stroke-opacity: 1; fill: rgb(255, 255, 255); fill-opacity: 1; stroke-width: 0px;" width="92" height="48" x="0" y="0"/><g class="scrollbox" transform="" clip-path="url(#legendbbc547)"><g class="groups"><g class="traces" transform="translate(0,14.5)" style="opacity: 1;"><text class="legendtext" text-anchor="start" x="40" y="4.680000000000001" style="font-family: 'Open Sans', verdana, arial, sans-serif; font-size: 12px; fill: rgb(42, 63, 95); fill-opacity: 1; white-space: pre;">res</text><g class="layers" style="opacity: 1;"><g class="legendfill"/><g class="legendlines"><path class="js-line" d="M5,0h30" style="fill: none; stroke: rgb(99, 110, 250); stroke-opacity: 1; stroke-width: 2px;"/></g><g class="legendsymbols"><g class="legendpoints"/></g></g><rect class="legendtoggle" x="0" y="-9.5" width="86.171875" height="19" style="fill: rgb(0, 0, 0); fill-opacity: 0;"/></g><g class="traces" transform="translate(0,33.5)" style="opacity: 1;"><text class="legendtext" text-anchor="start" x="40" y="4.680000000000001" style="font-family: 'Open Sans', verdana, arial, sans-serif; font-size: 12px; fill: rgb(42, 63, 95); fill-opacity: 1; white-space: pre;">db time</text><g class="layers" style="opacity: 1;"><g class="legendfill"/><g class="legendlines"><path class="js-line" d="M5,0h30" style="fill: none; stroke: rgb(239, 85, 59); stroke-opacity: 1; stroke-width: 2px;"/></g><g class="legendsymbols"><g class="legendpoints"/></g></g><rect class="legendtoggle" x="0" y="-9.5" width="86.171875" height="19" style="fill: rgb(0, 0, 0); fill-opacity: 0;"/></g></g></g><rect class="scrollbar" rx="20" ry="3" width="0" height="0" style="fill: rgb(128, 139, 164); fill-opacity: 1;" x="0" y="0"/></g><g class="g-gtitle"/><g class="g-xtitle"/><g class="g-x2title"/><g class="g-ytitle"/><g class="g-y2title"/></g></svg>