<svg class="main-svg" xmlns="http://www.w3.org/2000/svg" xmlns:xlink="http://www.w3.org/1999/xlink" width="1200" height="400" style="" viewBox="0 0 1200 400"><rect x="0" y="0" width="1200" height="400" style="fill: rgb(255, 255, 255); fill-opacity: 1;"/><defs id="defs-aba813"><g class="clips"><clipPath id="clipaba813xyplot" class="plotclip"><rect width="473.09999999999997" height="220"/></clipPath><clipPath id="clipaba813x2y2plot" class="plotclip"><rect width="473.09999999999997" height="220"/></clipPath><clipPath class="axesclip" id="clipaba813x"><rect x="80" y="0" width="473.09999999999997" height="400"/></clipPath><clipPath class="axesclip" id="clipaba813y"><rect x="0" y="100" width="1200" height="220"/></clipPath><clipPath class="axesclip" id="clipaba813xy"><rect x="80" y="100" width="473.09999999999997" height="220"/></clipPath><clipPath class="axesclip" id="clipaba813y2"><rect x="0" y="100" width="1200" height="220"/></clipPath><clipPath class="axesclip" id="clipaba813xy2"><rect x="80" y="100" width="473.09999999999997" height="220"/></clipPath><clipPath class="axesclip" id="clipaba813x2"><rect x="602.9" y="0" width="473.09999999999997" height="400"/></clipPath><clipPath class="axesclip" id="clipaba813x2y"><rect x="602.9" y="100" width="473.09999999999997" height="220"/></clipPath><clipPath class="axesclip" id="clipaba813x2y2"><rect x="602.9" y="100" width="473.09999999999997" height="220"/></clipPath></g><g class="gradients"/><g class="patterns"/></defs><g class="bglayer"><rect class="bg" x="80" y="100" width="473.09999999999997" height="220" style="fill: rgb(229, 236, 246); fill-opacity: 1; stroke-width: 0;"/><rect class="bg" x="602.9" y="100" width="473.09999999999997" height="220" style="fill: rgb(229, 236, 246); fill-opacity: 1; stroke-width: 0;"/></g><g class="layer-below"><g class="imagelayer"/><g class="shapelayer"/></g><g class="cartesianlayer"><g class="subplot xy"><g class="layer-subplot"><g class="shapelayer"/><g class="imagelayer"/></g><g class="minor-gridlayer"><g class="x"/><g class="y"/></g><g class="gridlayer"><g class="x"><path class="xgrid crisp" transform="translate(167.99,0)" d="M0,100v220" style="stroke: rgb(255, 255, 255); stroke-opacity: 1; stroke-width: 1px;"/><path class="xgrid crisp" transform="translate(323.45,0)" d="M0,100v220" style="stroke: rgb(255, 255, 255); stroke-opacity: 1; stroke-width: 1px;"/><path class="xgrid crisp" transform="translate(478.92,0)" d="M0,100v220" style="stroke: rgb(255, 255, 255); stroke-opacity: 1; stroke-width: 1px;"/></g><g class="y"><path class="ygrid crisp" transform="translate(0,233.74)" d="M80,0h473.09999999999997" style="stroke: rgb(255, 255, 255); stroke-opacity: 1; stroke-width: 1px;"/><path class="ygrid crisp" transform="translate(0,158.36)" d="M80,0h473.09999999999997" style="stroke: rgb(255, 255, 255); stroke-opacity: 1; stroke-width: 1px;"/></g></g><g class="zerolinelayer"><path class="yzl zl crisp" transform="translate(0,309.12)" d="M80,0h473.09999999999997" style="stroke: rgb(255, 255, 255); stroke-opacity: 1; stroke-width: 2px;"/></g><path class="xlines-below"/><path class="ylines-below"/><g class="overlines-below"/><g class="xaxislayer-below"/><g class="yaxislayer-below"/><g class="overaxes-below"/><g class="plot" transform="translate(80,100)" clip-path="url(#clipaba813xyplot)"><g class="scatterlayer mlayer"><g class="trace scatter trace19aba7" style="stroke-miterlimit: 2; opacity: 1;"><g class="fills"/><g class="errorbars"/><g class="lines"><path class="js-line" d="M0,162.87L1,134.07L1.16,135.35L1.23,143.14L3.16,185.6L3.24,183.37L3.39,182.62L3.62,185.2L3.7,186L3.78,186.72L4.01,183.01L4.09,181.88L4.16,183.6L4.4,172.22L4.47,168.68L4.78,154.14L5.24,163.28L5.32,167.23L6.25,203.09L6.63,201.36L6.71,200.92L7.02,198.68L7.09,197.04L8.79,159.61L9.25,161.02L9.33,161.95L9.41,161.68L9.49,162.44L9.56,163.96L10.33,168.44L10.49,167.16L10.56,166.61L10.64,165.93L10.95,167.83L11.18,167.18L11.26,168.04L12.11,181.62L12.57,178.59L12.65,178.62L13.57,170.01L13.73,171.9L13.8,173.34L14.88,183.18L15.19,182.74L15.27,182.95L15.81,187.08L15.96,184.08L16.04,182.45L17.04,148.29L17.2,152.32L17.27,157.91L18.28,195.65L18.74,193.99L18.82,193.83L19.82,196.8L19.9,196.55L20.2,196.86L20.36,196.22L20.44,196.62L20.51,197.79L21.36,206.39L21.52,203.23L21.59,198.58L23.06,127.66L23.13,126.8L23.6,137.56L23.67,143.41L24.83,180.17L24.99,177.44L25.06,177.58L25.99,189.24L26.14,186.69L26.22,183.65L26.37,184.16L26.45,183.32L26.53,180.13L27.07,153.99L27.45,158.77L27.53,163.9L28.46,202.63L28.84,201L28.92,200.71L29.15,198.51L29.23,196.97L30.85,166.42L31.08,166.8L31.15,166.57L31.31,166.2L31.54,167.48L31.62,167.36L31.69,167.6L31.93,166.03L32.31,168.54L32.39,168.11L32.47,167.15L32.54,167.41L32.7,165.88L32.77,165.28L33.31,159.4L33.54,161.55L33.62,162.73L34.93,187.43L35.32,184.01L35.4,182.44L36.17,177.48L36.32,179.48L36.4,179.52L36.78,181.73L37.09,180.86L37.17,179.84L37.63,182.2L37.71,182.95L37.86,184.71L38.17,179.67L38.25,176.43L39.1,145.93L39.33,150.32L39.41,151.63L40.41,180L40.95,177.31L41.03,177.77L42.1,187.89L42.18,187.71L42.26,185.27L43.57,197.44L43.65,192.01L45.34,138.18L45.42,136.61L45.5,136.92L45.57,141.32L46.04,161.02L46.11,164.32L46.96,173.71L47.04,172.67L47.12,172.94L48.2,182.93L48.27,182.02L48.35,179.9L49.51,150.43L49.66,154.56L49.74,157.91L50.9,202.71L51.2,201.09L51.28,200.48L51.98,185.73L52.05,182.58L53.52,159.38L53.59,158.88L53.75,159.21L53.83,158.57L53.9,156.7L54.13,155.12L54.37,158.15L54.44,159.7L54.91,161.16L55.14,159.74L55.21,159.12L55.6,157.99L55.68,159.75L55.75,161.26L56.6,175.78L56.68,177.72L57.14,187.99L57.6,183.47L57.68,182.36L57.99,178.05L58.53,180.15L58.61,180.48L58.92,182.09L59.3,180.5L59.38,180.32L59.84,183.47L59.92,184.84L60,185.99L60.3,182.57L60.38,179.7L61,155.31L61.46,158.35L61.54,162.46L62.62,185.97L62.69,185.67L62.77,185.21L62.93,184.72L63.23,186.61L63.31,188.17L64.16,193.82L64.24,194.82L64.78,189.37L65.08,191.81L65.16,192.12L65.93,206.08L66.01,196.45L67.17,144.84L67.24,149.61L67.71,144.11L67.86,151.99L67.94,155.87L69.79,192.33L69.87,193.4L70.71,201.33L70.79,198.93L70.87,194.97L71.72,182.06L71.79,185.2L71.87,188.89L72.8,207.62L73.1,206.49L73.18,206.34L73.8,204.88L73.95,205.92L74.03,205.86L74.26,206L74.57,205.55L74.65,205.33L75.11,202.62L75.19,200.26L76.04,189.33L76.19,191.85L76.27,192.55L77.96,202.34L78.04,202.51L78.73,203.22L78.97,202.68L79.04,202.56L79.66,202.47L79.74,202.86L79.81,203.01L81.51,204.31L81.59,204L81.66,203.75L82.44,201.57L82.51,199.15L83.28,183.12L83.52,187.28L83.59,188.79L83.67,184.54L84.36,185.42L84.44,185.43L84.52,185.26L84.6,191.12L85.21,191.27L85.75,182.02L85.83,183.18L85.91,184.15L86.14,182.47L86.52,185.09L86.6,187.08L87.53,205.24L87.6,205.3L88.07,206.96L88.14,206.88L88.22,202.87L88.45,203.24L88.53,201.73L88.61,199.27L89.07,191.42L89.61,193.3L89.68,193.4L89.92,197.14L90.22,190.68L90.3,190.86L90.38,184.78L90.84,173.76L91.15,180.53L91.23,181.39L92.08,209L92.15,208.98L92.23,208.84L92.62,208.31L92.69,206.3L94.23,149.26L94.47,156.23L94.54,158.46L94.85,168.76L95.01,161.63L95.08,158.59L95.55,149.11L95.85,155.16L95.93,159.67L97.16,205.57L97.4,203.46L97.47,202.93L98.17,197.59L98.24,188.77L98.63,187.02L99.02,188.05L99.09,189.62L99.32,200.04L99.79,188.35L99.86,188.27L100.02,188.03L100.1,186.15L100.33,182.32L100.79,186.2L100.87,186.34L101.25,192.63L101.33,195.03L102.95,205.16L103.03,205.21L103.26,205.53L103.64,205.2L103.72,204.85L105.88,185.4L106.03,185.95L106.11,188.74L107.19,202.94L107.27,203.03L108.35,205.64L108.42,205.03L108.5,202.77L109.43,195.16L109.5,193.59L109.89,195.13L109.97,195.88L110.2,196.48L110.27,200.69L110.43,203.28L110.66,202.36L110.74,196.64L112.05,172L112.13,173.02L112.97,189.46L113.2,184.01L113.28,180.87L113.9,177.96L113.98,179.47L114.05,181.08L114.82,187.42L114.9,186.85L114.98,186.97L115.83,180.43L115.9,181.24L115.98,182.63L116.06,181.57L116.29,184.31L116.37,184.21L116.44,187.31L117.45,204.86L117.75,202.49L117.83,201.76L118.53,185.09L118.6,182.72L120.53,127.9L120.92,130.3L120.99,131.87L123.69,184.86L123.85,183.65L123.92,182.6L124.62,176.48L125.23,176.72L125.31,176.96L125.7,175.29L126.01,175.91L126.08,176.66L126.78,184.85L126.93,182.5L127.01,178.42L127.7,159.34L127.93,163.46L128.01,165.8L128.09,164.78L128.24,171.03L128.32,174.25L129.32,194.21L129.71,192.33L129.78,191.56L130.86,199.09L131.25,198.66L131.33,197.68L131.48,197.17L131.87,198.2L131.94,199.83L132.41,204.72L132.56,200.17L132.64,196.11L132.87,184.66L132.95,177.51L133.72,140.44L133.95,142.99L134.03,144.31L134.49,153.27L134.57,159.27L135.49,176.91L135.65,174.71L135.72,174.67L135.88,175.24L136.11,172.14L136.26,174.42L136.34,175.48L136.42,175.71L136.49,179.59L136.8,180.91L136.88,184.64L137.03,188.1L137.42,182.94L137.5,179.79L138.34,158.84L138.65,166.05L138.73,169.22L138.81,168.9L138.88,169.83L138.96,172.3L139.81,198.81L140.19,197.51L140.27,196.21L142.43,147.04L142.66,148.4L142.74,149.41L143.36,158.73L143.82,158.12L143.9,158.5L144.13,159.3L144.2,160.77L144.44,162.21L144.51,163.74L145.36,172.16L145.44,170.94L145.52,170.07L146.29,165.98L146.36,167.8L146.44,168.59L147.75,180.01L148.06,179.55L148.14,179.8L148.21,179.17L148.6,181.71L148.68,183.18L149.06,186.76L149.22,183.36L149.29,181.14L150.07,154.56L150.37,161.44L150.45,163.37L151.61,188.1L151.69,186.62L151.76,186.07L151.99,182.64L152.22,185.11L152.3,186.36L152.53,187.3L152.61,188.84L154.54,205.91L154.62,205.28L154.69,205.32L156,146.5L156.31,149.18L156.39,148.94L159.24,190.9L159.4,189.03L159.47,189.37L159.55,190.32L159.7,187.04L159.78,183.71L160.48,164.98L160.71,168.57L160.78,171.96L161.86,203.26L162.17,201.55L162.25,201.5L162.71,194.64L162.79,193.02L164.25,166.96L164.33,167.55L164.49,165.99L164.56,164.61L165.18,160.52L165.33,161.95L165.41,163.59L165.8,166.91L166.18,164.97L166.26,164.02L166.57,162.56L166.8,164.04L166.88,165.11L168.34,185.54L168.5,184.11L168.57,184.19L169.04,177.5L169.65,178.23L169.73,178.59L169.88,179.4L169.96,181.08L170.35,179.07L170.66,180.44L170.73,181.26L171.27,186.43L171.35,184.72L171.43,181.66L172.51,141.91L172.66,146.37L172.74,152.89L173.82,189.64L173.89,189.48L173.97,189.03L174.2,187.9L174.43,190.05L174.51,191.4L175.36,196.91L175.51,195.56L175.59,195.76L175.9,195.09L175.98,196.78L176.05,198.06L176.36,199.83L176.44,201.69L176.9,206.51L176.98,206.37L177.06,195.88L178.21,132.89L178.44,134.09L178.52,133.99L178.6,134.45L178.68,133.91L178.75,142.15L180.14,184L180.37,181.62L180.45,180.74L180.53,180.23L180.68,183.19L180.76,183.01L180.83,183.39L180.99,181.82L181.37,186.87L181.45,187.61L182.22,166.95L182.3,163.02L182.69,158.47L182.84,160.53L182.92,165.32L183.92,201.07L184.23,200.22L184.3,199.35L184.77,192.85L184.84,190.81L186.31,155.25L186.7,159.6L186.77,159.77L187.24,163.24L187.54,161.2L187.62,160.57L190.4,180.63L190.47,180.13L190.55,179.03L191.17,174.32L191.24,172.25L191.32,171.54L191.78,173.7L191.86,174.09L192.09,173.37L192.25,175.49L192.32,175.54L192.63,174.76L192.79,176.89L192.86,178.25L193.48,186.72L193.79,182.29L193.87,180.08L194.72,161.9L194.87,166.04L194.95,170.59L195.64,193.57L196.1,192.13L196.18,191.14L196.41,186.19L196.72,188.34L196.8,188.31L196.95,187.89L197.11,189.67L197.18,190.32L197.49,195.69L197.95,193.66L198.03,193.7L198.42,196.15L198.49,197.78L199.11,206.75L199.19,203.87L199.26,192.88L200.42,146.25L200.5,151.37L200.58,150.18L200.96,140.16L201.27,146.32L201.35,150.09L202.97,180.88L203.04,181.91L203.97,175.41L204.12,177.41L204.2,178.15L204.28,177.78L204.35,173.7L204.97,147.99L205.28,154.55L205.36,163.28L206.05,200.96L206.51,198.05L206.59,197.59L207.13,189.27L207.21,187.33L208.9,154.47L208.98,154.35L209.06,154.21L209.21,154.95L209.29,154.62L209.37,156.55L210.22,164.6L210.29,164.01L210.37,163.49L210.6,161.7L210.68,160.43L210.76,160.29L210.83,161.24L210.91,161.67L211.29,167.4L211.37,168.36L211.99,174.5L212.3,173.2L212.37,173.54L213.22,181.09L213.69,179.59L213.76,179.59L214.38,183.54L214.69,182.28L214.77,182.05L214.92,181.31L215.3,183.58L215.38,184.65L215.69,187.41L216,183.5L216.08,180.87L216.69,173.27L217,176.29L217.08,177.24L217.77,189.96L218.24,188.23L218.31,187.34L219.08,177.87L219.31,179.16L219.39,179.39L219.7,185.26L220.16,181.03L220.24,180.57L220.55,184.21L220.63,185.6L221.32,203.48L221.4,201.1L221.47,190.1L222.63,141.21L222.71,142.13L223.17,134.03L223.32,144.64L223.4,147.38L224.33,164.46L224.4,166.15L225.64,187.34L225.72,189.01L226.41,197.47L226.56,193.7L226.64,190.62L227.26,181.56L227.49,185.5L227.57,188.74L228.41,207.28L228.65,203.85L228.72,203.2L231.34,181.39L231.42,180.54L231.58,177.83L232.19,178.1L232.27,177.88L232.58,176.33L232.66,174.88L233.27,131.07L233.66,140.32L233.74,146.28L235.05,202.07L235.12,202.68L236.05,206.12L236.13,206.16L236.9,206.71L237.13,206.21L237.21,206.09L238.05,204.82L238.13,204.14L238.82,202.33L238.98,203.29L239.06,203.9L241.29,207.89L241.37,207.92L243.84,207.96L243.91,205.61L245.61,157.47L245.77,159.97L245.84,163.1L246.69,195.64L246.84,186.03L246.92,181.87L247.15,182.54L247.23,178.14L247.54,180.73L247.62,180.17L247.69,187.89L248,201.03L248.23,179.23L248.31,162.13L249,99.94L249.39,109.58L249.47,107.24L250.7,65.39L251.01,66.78L251.09,71.94L252.32,204.93L252.4,205.24L252.71,205.64L252.94,204.78L253.01,204.59L253.63,199.02L253.71,198.2L254.02,195.49L254.4,198.38L254.48,199.12L254.79,203.33L255.02,200.62L255.1,198.21L255.4,197.5L255.48,196.17L255.71,192.42L255.94,196.81L256.02,199.16L256.33,200.09L256.41,201.67L256.56,206.12L257.26,205.24L257.33,205.28L258.26,207.19L258.33,206.5L258.41,203.06L259.18,202.55L259.26,202.68L259.34,206.08L260.11,206.31L260.19,206.13L260.26,205.1L261.03,201.95L261.19,203.08L261.27,203.55L261.34,197.66L262.04,198.34L262.11,198.45L262.19,198.65L262.27,204.93L262.81,203.66L263.12,204.28L263.19,204.51L264.43,207.4L264.5,207.43L264.97,207.34L265.04,206.67L265.74,206.19L265.82,200.23L266.35,198.09L266.43,195.65L266.74,197.7L267.59,188.3L267.74,190.12L267.82,190.78L268.21,194.16L268.28,195.04L269.13,199.1L269.21,198.79L269.29,198.59L269.36,198.08L269.59,200.96L269.67,201.4L269.9,198.56L270.36,201.12L270.44,201.27L270.67,202.9L270.75,204.31L270.9,205.44L271.37,203.29L271.44,203.11L272.52,200.71L272.6,200.38L273.45,193.33L273.53,192.06L275.3,132.9L275.69,133.77L275.76,134.38L275.99,135.42L276.07,138.01L278.15,170.58L278.23,173.53L279.08,188.37L279.39,185.15L279.46,184.08L280.24,174.88L280.62,176.49L280.7,176.67L282.09,182.34L282.16,181.61L282.24,180.8L282.32,181.11L282.47,178.93L282.55,177.38L283.4,161.23L283.55,164.83L283.63,167.29L284.25,181.6L284.4,179.38L284.48,169.68L285.17,132.69L285.4,145.17L285.48,154.53L286.33,190.34L286.4,189.74L286.48,188.33L286.79,184.66L287.18,187.12L287.25,187.94L287.87,201.26L288.1,195.34L288.18,193.8L288.26,195.94L288.41,181.55L288.49,165.57L289.18,137.13L289.57,142.88L289.64,142.37L290.57,157.56L290.88,152.34L290.95,150.06L291.42,153.63L291.49,152.93L291.57,154.65L291.96,168.09L292.34,156.57L292.42,157.57L292.57,158.72L292.65,155.86L292.96,161.47L293.04,171.01L293.58,181.97L293.88,179L293.96,178.69L294.19,175.91L294.42,182.07L294.5,184.08L295.04,182.61L295.2,188.26L295.27,186.82L295.35,184.35L296.66,154.92L296.74,151.41L298.2,133.06L298.28,133.68L298.36,134.35L299.44,149.3L299.51,151.71L300.75,175.32L301.13,171.15L301.21,170L302.29,159.9L302.44,160.16L302.52,160.41L303.14,169.49L303.22,171.91L304.45,184.22L304.68,181.04L304.76,178.98L305.76,153L306.15,156.57L306.22,158.13L306.69,162.2L306.84,156.26L306.92,155.54L307.46,153.2L307.77,160.71L307.84,160.16L307.92,159.89L308.07,163.37L308.15,164.72L308.46,170.08L308.54,173.37L308.77,172.54L310.08,204.45L310.16,198.09L310.62,164.07L310.7,148.36L311.47,120.28L311.7,132.4L311.78,131.37L311.93,128.61L312.16,139.09L312.24,141.95L312.32,141.09L312.47,146.52L312.55,150.02L312.86,157.41L313.01,154.06L313.09,152.44L313.4,148.78L313.78,151.66L313.86,156.13L314.71,173.7L314.94,169.5L315.01,167.79L315.4,173.38L315.48,169.5L315.55,168.4L315.94,170.25L316.17,162.17L316.33,163.82L316.4,167.67L317.1,184.16L317.48,181.38L317.56,180.4L317.94,186.03L318.18,182.68L318.25,180.73L320.34,141L320.49,141.59L320.57,141.53L320.88,145.41L320.95,148.15L321.95,161.62L322.03,161.51L322.11,161.36L322.96,177.51L323.03,179.54L323.57,184.78L323.81,182.69L323.88,181.65L325.35,170.89L325.42,171.22L325.73,169.52L325.96,170.38L326.04,171.47L326.5,177.03L326.89,174.6L326.97,172.78L327.97,158.68L328.05,159.49L329.51,192.03L329.74,190.23L329.82,190.46L329.97,190.86L330.05,189.6L330.13,189.7L330.21,187.58L330.36,188.02L330.44,187.1L330.75,187.07L330.82,186.12L330.98,179.33L331.36,182.51L331.44,184.42L332.44,204.63L332.52,196.08L333.68,132.97L333.91,133.52L333.98,132.13L334.14,129.38L334.22,132.27L334.29,141.39L335.14,165.47L335.45,165.15L335.53,160.83L336.61,174.87L336.68,175.46L337.15,184.65L337.45,178.43L337.53,175.41L338.15,155.39L338.46,163.7L338.53,166.31L339.54,202.85L339.85,201.2L339.92,200.98L340.39,193.71L340.46,191.67L341.85,164.23L342.08,166.06L342.16,166.46L342.47,167.57L342.7,165.77L342.78,165.86L343.08,165.65L343.16,164.77L343.93,158.15L344.24,159.59L344.32,160.43L345.86,186.51L346.17,183.66L346.25,182.99L346.86,175.62L347.33,177.62L347.4,178.17L347.56,177.68L347.63,179.62L347.87,178.82L347.94,179.12L348.64,186.7L348.71,188.59L348.87,188.93L349.02,187.34L349.1,185L350.18,146.28L350.33,154.85L350.41,161.32L351.1,183.03L351.49,179.41L351.57,176.09L352.42,188.47L352.49,193.32L352.8,198.22L352.88,199.08L353.96,207.13L354.03,206.84L354.11,202.05L355.04,171.54L355.11,163.23L356.35,128.79L356.5,133.95L356.58,136.93L357.74,163.66L357.81,167.29L359.2,193.72L359.28,193.06L359.51,193.78L359.59,190.47L360.44,149.14L360.59,156.47L360.67,160.15L361.75,204.6L362.13,202.58L362.21,201.99L362.9,189.04L362.98,187.28L364.75,152.79L365.06,157.34L365.14,157.63L365.76,165.71L366.14,163.75L366.22,162.26L366.45,161.81L366.6,162.58L366.68,163.78L368.38,185.05L368.46,183.94L368.53,182.9L368.99,179.74L369.3,181.26L369.38,181.99L370.31,184.69L370.38,185.61L370.61,186.84L371,184.92L371.08,183.65L371.46,179.22L371.54,177.38L371.85,173.38L372.31,176.08L372.39,176.51L373.24,185.13L373.31,180.81L373.39,180.25L373.54,182.56L374.01,180.16L374.08,178.22L375.09,188.68L375.16,191.26L376.71,202.52L376.78,196.86L378.56,144.59L378.71,146.8L378.79,151.06L380.48,196.67L380.64,196.3L380.72,196.41L381.64,202.69L381.72,200.83L381.8,199.23L382.64,186.93L382.8,190.7L382.88,192.24L383.8,208.37L384.26,208.12L384.34,208.1L387.97,207.46L388.04,207.28L389.51,205.19L389.58,205.24L390.28,204.25L390.66,204.95L390.74,205.06L391.9,207.04L392.13,206.87L392.21,206.84L393.36,206.07L393.44,205.37L394.6,187.94L394.75,188.7L394.83,191.84L395.68,204.94L395.75,204.78L395.83,204.32L395.91,201.86L396.6,202.65L396.68,202.4L397.22,206.11L397.37,204.03L397.45,203.11L397.53,202.43L398.14,203.41L398.22,205.34L399.3,208.29L399.38,208.28L400.69,194.55L400.77,194.93L400.84,195.06L401,194.83L401.07,186L401.38,166.56L401.92,169.45L402,179.61L402.62,207.03L403,206.62L403.08,206.45L403.39,206.35L403.47,206.72L403.54,203.27L404.54,135.31L405.08,141.01L405.16,141.93L405.78,166.89L406.09,154.32L406.16,151.47L406.55,146.02L406.78,152.63L406.86,157.58L407.78,205.19L408.17,204.59L408.25,204.24L409.79,192.62L410.02,194.31L410.1,195.49L410.25,196.84L410.56,191.43L410.64,191.95L410.79,191.94L410.87,191.16L411.18,185.01L411.49,193.74L411.56,194.16L412.02,197.02L412.1,200.53L412.49,199.67L412.72,200.01L412.8,201.32L413.64,205.11L413.72,205.25L414.49,205.85L414.57,205.79L414.65,205.17L415.73,199.04L415.8,196.75L416.5,181.74L416.73,184.4L416.81,187.13L417.65,199.84L417.89,196.76L417.96,194.82L418.43,195.11L418.66,194.28L418.73,196.44L419.35,198.68L419.43,198.11L419.51,197.37L420.43,203.13L420.51,192.99L421.28,185.29L421.36,185.69L421.43,196.28L421.59,197.41L421.66,192.68L422.74,171.83L423.13,174.27L423.21,174.77L423.9,188.92L424.13,185.84L424.21,183.59L424.75,181.05L424.9,182.15L424.98,185.19L425.13,189.91L425.44,181.21L425.6,182.2L425.67,182.4L426.14,179.1L426.29,183.72L426.37,183.7L426.45,181.33L426.83,166.28L427.37,169.91L427.45,172.22L428.37,198.51L428.53,196.55L428.6,194.22L429.07,173.26L429.14,164.29L430.07,11L430.46,32.6L430.53,41.01L430.92,41.82L431.07,36.09L431.23,41.15L431.3,42.29L434.31,171.73L434.39,172.43L434.7,175.06L435.01,171.11L435.08,171.18L435.62,164.36L436.08,166.47L436.16,166.68L436.47,169.44L436.78,167.7L436.86,166.55L437.09,166L437.4,166.69L437.47,167.75L437.55,168.34L437.86,166.49L437.94,164.29L438.78,144.26L439.09,148.56L439.17,150.52L440.56,179.88L440.63,178.24L441.1,176.27L441.33,178.38L441.41,178.59L441.48,178.22L441.56,180.84L441.64,183.32L443.33,203.82L443.41,198.64L443.49,197.44L443.87,167.86L443.95,158.4L444.72,126.22L444.88,135.89L444.95,139.04L446.42,187.8L446.8,185.53L446.88,183.37L447.27,181.2L447.34,181.97L447.42,186.17L447.65,184.45L447.96,189.29L448.04,187.96L448.11,184.97L448.89,158.93L449.5,161.02L449.58,162.99L450.43,198.6L450.58,197.8L450.66,197.73L451.28,189.65L451.35,187.73L453.44,136.97L453.59,137.46L453.67,138.61L454.9,149.04L454.98,148.44L455.36,146.72L455.67,147.27L455.75,148.39L456.75,163.68L456.83,164.91L457.14,163.87L457.21,164.25L457.29,165.02L457.75,164.5L458.68,174.65L458.76,174.53L459.6,176.3L459.68,177.42L459.76,178.49L459.99,173.99L460.07,171.34L460.76,147.73L461.22,151.88L461.3,154.02L462.77,191.71L463.08,188.61L463.15,186.76L463.61,184.7L463.77,185.35L463.85,186.18L465.62,205.12L465.7,203.41L466.93,140.2L467.32,141.44L467.39,141.49L467.47,140.32L467.55,146.22L467.62,151.06L468.63,183.75L469.17,182.55L469.24,182.52L470.17,192.36L470.25,190.93L470.32,187.08L470.86,165.7L470.94,158.98L471.17,152.64L471.63,160.08L471.71,163.07L472.95,199.67L473.1,198.44" style="vector-effect: none; fill: none; stroke: rgb(99, 110, 250); stroke-opacity: 1; stroke-width: 2px; opacity: 1;"/></g><g class="points"/><g class="text"/></g></g></g><g class="overplot"/><path class="xlines-above crisp" d="M0,0" style="fill: none;"/><path class="ylines-above crisp" d="M0,0" style="fill: none;"/><g class="overlines-above"/><g class="xaxislayer-above"><g class="xtick"><text text-anchor="middle" x="0" y="333" transform="translate(167.99,0)" style="font-family: 'Open Sans', verdana, arial, sans-serif; font-size: 12px; fill: rgb(42, 63, 95); fill-opacity: 1; white-space: pre; opacity: 1;"><tspan class="line" dy="0em" x="0" y="333">Jan 23</tspan><tspan class="line" dy="1.3em" x="0" y="333">2022</tspan></text></g><g class="xtick"><text text-anchor="middle" x="0" y="333" style="font-family: 'Open Sans', verdana, arial, sans-serif; font-size: 12px; fill: rgb(42, 63, 95); fill-opacity: 1; white-space: pre; opacity: 1;" transform="translate(323.45,0)">Jan 30</text></g><g class="xtick"><text text-anchor="middle" x="0" y="333" style="font-family: 'Open Sans', verdana, arial, sans-serif; font-size: 12px; fill: rgb(42, 63, 95); fill-opacity: 1; white-space: pre; opacity: 1;" transform="translate(478.92,0)">Feb 6</text></g></g><g class="yaxislayer-above"><g class="ytick"><text text-anchor="end" x="79" y="4.199999999999999" transform="translate(0,309.12)" style="font-family: 'Open Sans', verdana, arial, sans-serif; font-size: 12px; fill: rgb(42, 63, 95); fill-opacity: 1; white-space: pre; opacity: 1;">0</text></g><g class="ytick"><text text-anchor="end" x="79" y="4.199999999999999" style="font-family: 'Open Sans', verdana, arial, sans-serif; font-size: 12px; fill: rgb(42, 63, 95); fill-opacity: 1; white-space: pre; opacity: 1;" transform="translate(0,233.74)">0.05</text></g><g class="ytick"><text text-anchor="end" x="79" y="4.199999999999999" style="font-family: 'Open Sans', verdana, arial, sans-serif; font-size: 12px; fill: rgb(42, 63, 95); fill-opacity: 1; white-space: pre; opacity: 1;" transform="translate(0,158.36)">0.1</text></g></g><g class="overaxes-above"/></g><g class="subplot x2y2"><g class="layer-subplot"><g class="shapelayer"/><g class="imagelayer"/></g><g class="minor-gridlayer"><g class="x2"/><g class="y2"/></g><g class="gridlayer"><g class="x2"><path class="x2grid crisp" transform="translate(690.89,0)" d="M0,100v220" style="stroke: rgb(255, 255, 255); stroke-opacity: 1; stroke-width: 1px;"/><path class="x2grid crisp" transform="translate(846.3499999999999,0)" d="M0,100v220" style="stroke: rgb(255, 255, 255); stroke-opacity: 1; stroke-width: 1px;"/><path class="x2grid crisp" transform="translate(1001.8199999999999,0)" d="M0,100v220" style="stroke: rgb(255, 255, 255); stroke-opacity: 1; stroke-width: 1px;"/></g><g class="y2"><path class="y2grid crisp" transform="translate(0,228.84)" d="M602.9,0h473.09999999999997" style="stroke: rgb(255, 255, 255); stroke-opacity: 1; stroke-width: 1px;"/><path class="y2grid crisp" transform="translate(0,148.04)" d="M602.9,0h473.09999999999997" style="stroke: rgb(255, 255, 255); stroke-opacity: 1; stroke-width: 1px;"/></g></g><g class="zerolinelayer"><path class="y2zl zl crisp" transform="translate(0,309.65)" d="M602.9,0h473.09999999999997" style="stroke: rgb(255, 255, 255); stroke-opacity: 1; stroke-width: 2px;"/></g><path class="xlines-below"/><path class="ylines-below"/><g class="overlines-below"/><g class="xaxislayer-below"/><g class="yaxislayer-below"/><g class="overaxes-below"/><g class="plot" transform="translate(602.9,100)" clip-path="url(#clipaba813x2y2plot)"><g class="scatterlayer mlayer"><g class="trace scatter trace02d6a4" style="stroke-miterlimit: 2; opacity: 1;"><g class="fills"/><g class="errorbars"/><g class="lines"><path class="js-line" d="M0,162.59L0.54,105.38L0.69,163.42L0.77,147.58L0.85,159.95L1,143.02L1.23,185.64L1.77,181.62L1.85,186.33L1.93,150.78L2.24,190.1L2.62,159.51L2.7,159.97L2.85,156.48L3.01,168.72L3.08,163.96L3.16,143.7L3.47,185.37L3.93,174.03L4.01,171.99L4.09,173.49L4.16,149.23L4.24,131.14L4.63,164.02L4.7,149.51L4.78,183.16L4.94,170.59L5.09,176.27L5.17,186.84L5.48,202.53L5.78,186.05L5.94,191.25L6.01,192.54L7.17,162.62L7.25,163.38L8.41,122.35L8.56,123.6L8.64,134.69L8.87,126.54L9.25,153.54L9.49,150.77L9.56,153.25L9.64,157.46L9.79,128.9L10.18,154.78L10.26,141.68L10.72,137.04L11.18,157.8L11.26,156.2L11.41,148.49L11.8,177.22L12.03,160.06L12.11,149.06L12.18,158.93L12.8,143.51L12.88,149.38L13.11,156L13.19,150.72L13.26,143.17L14.19,167.53L14.27,170.27L14.42,147.92L14.88,159.99L14.96,167.94L15.11,165.48L15.27,171.49L15.35,166.23L15.42,174.41L15.5,177.16L15.73,168.5L15.81,140.86L16.27,127.61L16.66,168.57L16.73,152.65L17.51,189.3L17.58,186.16L17.66,171.5L18.04,191.6L18.43,187.25L18.51,184.36L18.58,157.34L19.12,186.78L19.2,179.81L19.28,184.55L19.36,191.17L19.51,171.47L19.97,182.84L20.05,171.42L20.9,200.82L20.98,201.07L21.05,201.26L21.13,200.76L21.21,200.88L21.28,203.26L21.67,204.08L21.82,125.14L22.29,148.46L22.36,150.7L22.59,108.15L22.98,140.65L23.06,156.77L23.21,138.27L23.6,180.14L23.67,170.04L23.75,150.85L24.52,190.91L24.6,187.09L24.68,172.8L25.22,174.35L25.37,155.5L25.45,172.36L25.68,181.12L25.76,175.95L25.83,189.78L26.06,158.74L26.14,172.59L26.22,179.6L26.3,180.31L26.37,162.09L26.53,139.25L26.91,148.97L26.99,170.76L27.53,201.59L27.76,191.5L27.84,187.61L27.92,187.48L27.99,188.06L28.07,191L28.22,192.41L28.3,184.19L28.53,191.52L28.76,173.26L28.92,182.82L29,179.11L30.61,131.36L30.69,143.99L30.77,145.9L30.92,157.5L31.08,144.84L31.46,151.61L31.54,133.09L32.16,158.7L32.31,145.04L32.39,143L32.93,127.4L33.08,147.09L33.16,143.91L33.24,141L33.54,155.88L33.62,153.93L33.7,156.83L33.85,140.68L34.47,178.64L34.7,174.46L34.78,163.84L35.16,164.8L35.32,152.92L35.55,153.28L35.63,157.97L35.7,144.98L36.24,165.99L36.32,162.56L36.4,167.13L36.48,168.31L36.55,165.08L36.63,154.74L36.86,153.13L37.48,173.03L37.71,170.67L37.79,151.59L37.94,160.32L38.02,134.21L38.09,122.14L38.25,111.78L38.87,167.77L38.94,137.42L39.71,178.1L39.79,170.04L39.87,164.57L40.1,164.09L40.64,178.43L40.72,176.48L40.79,149.11L41.1,180.51L41.18,180.24L41.26,80.91L41.56,189.61L42.03,184.27L42.1,177.08L42.49,165.65L42.95,200.23L43.11,198.22L43.18,196.54L43.49,198.68L43.57,173.75L43.88,202.5L44.03,130.95L44.19,158.98L44.26,157.52L44.42,168.09L44.57,122.9L44.65,136.37L44.73,110.78L45.57,177.11L45.88,168.89L45.96,158.12L46.04,182.17L46.35,154.56L46.73,180.25L46.81,181.31L47.58,157.32L47.66,177.73L48.12,185.97L48.27,150.54L48.43,171.03L48.51,162.58L48.58,118.88L49.2,162.63L49.28,166.09L50.28,192.12L50.36,192.34L51.51,164.03L51.59,165.13L51.67,164.6L51.82,165.03L52.36,134.47L52.44,143.19L52.52,148.73L53.36,126.22L53.44,138.13L53.83,117.89L54.06,145.67L54.13,149.76L54.52,130.29L54.98,132.84L55.06,137.17L55.14,130.86L55.68,143.51L55.75,150.61L55.99,155.4L56.06,124.78L56.68,176.64L56.91,171.9L56.99,163.9L57.45,150.88L57.53,161.29L57.91,152.19L58.07,167.56L58.14,163.36L58.22,165.87L58.84,146.89L59.07,158.58L59.15,161.3L59.3,157.33L59.84,176.59L59.92,174.59L60,148.41L60.15,154.91L60.23,118.76L60.38,130.21L60.46,109.33L60.54,98.41L60.84,150.42L60.92,131.19L61,151.84L61.15,149.55L61.92,184.51L62,177.86L62.08,168.45L62.62,189.28L62.69,183.11L62.77,182.9L62.85,185.95L62.93,183.63L63,161.23L63.39,182.65L63.47,98.11L63.54,167.23L63.62,187.6L63.77,192.66L63.85,184.54L63.93,170.08L64.08,190.6L64.47,167.71L64.62,177.46L64.7,174.07L65.86,202.07L65.93,180.84L66.09,190.87L66.78,113.34L66.94,125.99L67.01,134.79L67.94,181.48L68.02,172.94L68.09,172.85L68.86,196.65L69.02,193.58L69.09,176.29L69.17,175.9L69.25,171.71L69.71,161.48L70.1,199.83L70.33,194.35L70.41,181.46L70.56,198.46L70.79,160.8L71.02,176.87L71.1,175.07L71.95,205.59L72.03,205.35L72.1,203.68L72.57,204.46L72.8,202.09L72.87,189.86L73.72,199.6L73.8,198.91L73.88,198.87L74.72,191.03L74.8,185.77L74.88,192.37L75.11,168.17L75.42,177.21L75.5,178.52L75.73,175.01L75.88,175.5L75.96,169.69L76.27,189.78L76.73,188.93L76.81,188.75L77.19,190.48L77.27,189.96L77.35,184.38L78.12,195.2L78.19,193.97L78.66,194.97L78.73,188.51L78.97,191.13L79.04,193L79.2,190.98L79.51,195.17L79.81,194.48L79.89,193.22L80.12,192.94L80.66,195.96L80.74,195.02L81.05,193.65L81.12,196.31L81.43,194.17L81.51,190.8L82.05,194.39L82.13,193.15L82.2,184.64L82.28,185.82L82.36,184.9L82.44,166.12L82.59,161.62L82.9,176.69L82.98,178.45L83.13,177.45L83.21,187.98L83.28,190.08L83.59,183.39L83.75,189.94L83.82,183.74L84.21,193.02L84.67,190.97L84.75,187.78L85.06,196.15L85.21,180.82L85.29,185.31L85.37,180.86L85.67,128.21L85.83,191.41L85.91,190.41L86.21,182.62L86.68,201.62L86.75,196.11L86.83,195.31L86.91,199.37L87.06,197.58L87.14,201.03L87.29,196.8L87.45,203.73L87.76,197.27L87.83,201.31L88.14,201.1L88.3,203.99L88.37,203.55L88.45,187.2L89.22,205.67L89.3,205.41L89.38,201.77L89.53,206.36L89.76,206.21L89.84,187.15L90.07,200.5L90.46,172.29L90.53,199.73L91.3,208.76L91.38,208.4L91.92,208.68L92.23,200.99L92.31,191.74L92.38,206.95L92.85,167.03L93,183.94L93.08,171.92L93.23,181.02L93.54,145.98L93.62,155.36L93.69,150.53L93.93,170.35L94.08,148.37L94.31,153.93L94.39,152.48L94.77,147.7L96.24,198.34L96.47,194.36L96.55,193.25L97.24,164.35L97.7,169.58L97.78,174.66L98.01,152.99L98.09,123.82L98.17,30.42L98.55,175.49L98.78,172.74L98.86,172.82L99.02,173.07L99.09,167.78L99.25,168.43L99.32,142.98L99.48,163.84L99.63,162.03L99.71,142.4L99.94,183.39L100.48,173.92L100.56,175.41L100.94,173.92L101.56,197.7L101.64,197.63L102.1,194.96L102.33,195.68L102.41,197.68L102.64,199.17L102.79,196.86L103.1,198.18L103.18,197.03L103.57,197.86L103.72,187.57L103.87,197.14L103.95,196.64L104.11,197L104.18,195.3L104.26,195.74L104.34,193.99L104.41,185.71L104.57,187.18L104.64,177.93L105.11,173.83L105.34,190.05L105.42,188.89L105.49,178.13L106.34,197.1L106.42,192.36L106.5,192.17L106.57,192.9L106.65,195.14L106.73,194.58L107.11,197.01L107.19,197.5L107.27,198.42L107.34,193.87L107.42,185.07L107.88,181.84L108.12,198.8L108.19,198.18L108.27,197.23L108.35,186.61L108.96,191.28L109.04,196.05L109.12,197.97L109.27,183.69L109.35,185.02L109.66,204.03L110.2,202.77L110.27,186.05L110.43,201.99L110.66,165.65L110.97,188.51L111.05,189.13L111.12,149.57L111.82,175.25L111.89,185.83L112.05,171.01L112.28,185.96L112.36,190.24L112.43,191.22L112.51,175L112.59,173.85L112.66,187.91L112.74,186.02L112.82,190.96L112.9,189.16L112.97,163.11L113.13,166.68L113.2,176.58L113.44,187.69L113.67,165.22L114.05,187.32L114.13,181.62L114.36,179.01L114.44,186.45L114.59,186.17L114.67,197.27L114.82,168.89L115.29,171.25L115.36,180.16L115.6,189.74L115.75,162.91L116.06,182.34L116.14,188.35L116.21,180.6L116.6,199L116.83,194.07L116.91,194.8L117.83,175.78L117.91,171.51L119.45,87.38L119.68,100.31L119.76,117.6L119.91,102.57L119.99,120.46L120.3,118.17L120.38,97.66L120.84,95.1L121.07,122.97L121.15,119.54L121.22,111.68L121.3,83.55L121.84,142.22L121.92,150.28L122.23,138.02L122.3,150.45L122.38,151.59L122.54,156L122.69,148.19L122.77,163.76L123.15,157.25L123.46,171.97L123.54,170.07L123.62,165.19L124.54,140.24L124.62,159.4L124.69,160.53L124.77,153.63L124.93,154.8L125,152.12L125.23,160L125.39,153.66L125.47,139.57L126.08,169.41L126.31,165.57L126.39,169.07L126.47,171.43L126.62,155.24L126.78,165.16L126.85,135.66L127.09,101.16L127.32,137.03L127.39,158.46L127.86,157.1L128.55,187.88L128.63,180.63L128.94,170.48L129.09,184.41L129.32,179.3L129.4,184.13L129.48,186.29L129.55,183.15L129.63,156.39L129.71,157.48L129.78,172.89L129.94,183.56L130.02,177.75L130.09,160.2L130.4,189.54L130.86,181.76L130.94,175.06L131.25,155.48L131.87,199L131.94,200.9L132.17,202.17L132.33,200.97L132.41,180.89L132.48,200.51L132.95,132.73L133.02,142.85L133.1,154.81L133.25,169.6L133.56,106.76L133.79,151.38L133.87,148.04L134.26,138.05L134.64,174.5L134.72,159.25L134.8,148.23L135.11,185.13L135.26,170.84L135.34,184.42L135.41,184.66L135.49,188.11L135.72,162.86L135.8,163.99L135.88,149.59L136.88,188.36L136.96,186.42L137.73,138.59L137.8,167.23L138.11,133.44L138.42,160.73L138.5,168.13L139.42,186.72L139.58,186.69L139.66,184.96L141.04,134.16L141.12,137.35L141.2,139.44L141.43,140.39L141.66,103.13L141.97,133.66L142.05,141.71L142.2,113.49L142.74,138.57L142.82,137.86L142.89,142.29L143.2,124.3L143.43,137.99L143.51,120.84L143.82,145.82L144.36,143.04L144.44,139.31L144.74,162.19L144.9,133.49L145.21,154.15L145.28,147.77L145.36,132.61L145.9,158.68L146.06,137.04L146.13,140.72L146.83,162.79L146.98,159.89L147.06,158.58L147.37,156.38L147.52,161.46L147.6,160.57L147.68,152.22L148.29,171.21L148.52,170.53L148.6,173.55L148.83,158.67L148.99,167.62L149.06,137.88L149.53,101.65L149.76,141.7L149.83,161.57L150.37,142.69L150.45,145.81L150.53,162.22L150.76,184.94L151.38,178.28L151.45,180.23L151.53,177.18L151.69,184.33L151.76,177.23L151.84,148.81L152.61,191.17L152.69,183.93L152.76,169.47L153.38,168.6L153.69,192.68L153.77,198.52L153.92,195.87L154.08,201.08L154.15,201.06L154.23,201.46L154.62,198.85L154.69,202.22L154.77,180.3L154.85,178.97L154.92,191.02L155,185.41L155.08,123.44L155.23,164.99L155.7,113.05L155.85,149.65L155.93,146.33L156.08,138.71L156.23,166.36L156.47,142.91L156.54,162.79L157.01,161.08L157.31,183.58L157.39,161.62L157.55,172.14L157.62,176.95L157.85,183.15L157.93,165.3L158.01,165.7L158.09,151.41L159.01,190.03L159.09,189.16L159.17,191.04L159.24,163.69L159.4,188.95L159.7,144.46L159.86,154.62L159.94,142.71L160.86,194.07L160.94,197.43L161.56,186.73L161.71,193.24L161.79,192.42L163.41,136.23L163.48,147.5L163.71,158.34L163.79,153.36L163.87,144.28L163.95,134.66L164.25,150.76L164.56,140.04L164.64,145.52L164.72,144.78L164.79,136.92L165.41,154.38L165.57,142.73L165.64,135.62L165.72,134.22L165.87,140.88L166.03,140.8L166.11,147.14L166.18,138.65L166.26,153.11L166.72,150.37L166.8,155.14L166.88,155L166.95,149.85L167.11,125.58L167.72,175.34L167.96,171.02L168.03,157.21L168.19,167.39L168.65,156.98L168.73,157.76L168.8,156.38L168.88,155.61L168.96,140.45L169.65,165.82L169.73,161.95L169.81,166.31L169.88,152.21L170.42,172.07L170.5,171.65L170.58,169.83L170.66,172.92L170.89,169.26L170.96,170.24L171.04,150.68L171.2,160.79L171.27,140.91L171.58,110.46L171.89,146.36L171.97,148.72L172.97,184.98L173.05,181.44L173.12,170.71L173.66,182.57L173.74,178.93L173.82,179.87L173.89,182.23L173.97,180.86L174.05,140.54L174.82,191.84L174.9,184.63L174.97,170.81L175.51,191.48L175.59,190.99L175.67,174.18L175.82,161.38L175.9,186.56L175.98,198.79L176.13,192.38L176.36,203L176.59,200.74L176.67,201.29L176.82,199.08L176.9,201.87L177.13,202.98L177.75,105.36L177.83,121.73L177.9,126.64L177.98,119.04L178.29,143.7L178.37,167.45L178.6,168.93L178.68,157.38L178.75,158.87L178.83,174.44L179.22,152.82L179.45,182.69L179.52,180.71L179.6,150.38L179.99,191.86L180.37,168.8L180.45,169.09L180.83,149.32L180.91,176.21L180.99,166.88L181.07,184.13L181.3,190.85L181.37,187.6L181.45,158.64L181.61,181.43L181.91,143.15L182.07,154.47L182.15,142.28L183.15,197.88L183.23,196.18L183.38,192.86L183.46,190.97L184.23,173.17L184.3,174.32L184.38,176.69L186.08,115.8L186.16,130.13L186.23,135.27L186.46,151.15L186.7,131.34L186.93,139.89L187,122.15L187.39,150.09L187.77,142.66L187.85,146.85L188.08,147.78L188.39,132.35L188.47,147.75L188.55,153.27L189.09,162.91L189.24,160.02L189.32,144.37L189.47,166.03L190.09,164.99L190.17,161.67L190.4,161.69L191.17,131.24L191.24,144.31L191.32,159.81L191.4,160.36L191.48,159.86L191.55,154.98L191.63,157.93L191.86,141.7L192.02,152.14L192.09,141.61L192.71,173.33L192.94,167.35L193.02,169.43L193.1,177.26L193.48,147.96L193.56,149.33L193.64,155.46L193.94,135.57L194.25,167.5L194.41,147.25L194.48,166.38L194.64,160.4L195.18,187.4L195.25,183.2L195.33,170.13L195.72,186.46L196.1,182.04L196.18,180.85L196.33,145.95L196.87,175.56L196.95,184.16L197.03,187.63L197.18,164.47L197.41,180.81L197.49,167.49L197.88,153.78L198.42,200.87L198.49,203.29L198.8,203.22L198.88,201.8L198.96,202.47L199.03,199.74L199.11,195.81L200.19,112.14L200.27,126.27L200.34,124.76L200.42,145.28L200.88,141.1L201.19,175.93L201.35,167.72L201.42,155.15L201.73,195.54L202.2,185.8L202.27,185.94L203.04,150.57L203.12,161.2L203.2,161.09L203.43,181.04L203.58,179.71L203.66,140.63L203.97,184.57L204.2,117.57L204.28,132.05L204.35,126.45L205.36,196.84L205.43,193.29L205.97,176.63L206.21,180.71L206.28,186.47L207.21,153.25L207.28,157.13L208.36,113.4L208.44,118.43L208.52,144.02L208.83,129.66L209.21,132.68L209.29,148.51L209.52,153.76L209.6,152.31L209.68,142.52L209.83,130.42L210.06,144.66L210.14,138.46L210.22,142.73L210.37,146.76L210.52,134.58L210.6,112.19L211.14,162.32L211.45,159.55L211.53,140.27L211.6,141.62L211.68,138.01L211.76,155.71L211.91,158.77L212.22,144.1L212.3,166.87L212.37,168.96L212.61,160.97L212.91,164.81L212.99,159.06L213.38,143.81L213.69,162.45L213.76,163.18L214.23,167L214.3,159.33L214.46,162.17L214.53,152.52L215.38,175.7L215.46,162.86L215.54,166.65L215.61,157.86L215.69,132.65L216.54,163.71L216.62,143.8L217.31,184.4L217.46,178.59L217.54,178.12L217.7,187.26L217.77,134.53L218.24,176.82L218.31,179.78L218.47,122.3L218.7,155.61L218.78,170.28L218.93,163.21L219.24,180.97L219.31,176.91L219.39,149.82L219.93,182.15L220.24,180.47L220.32,181.89L220.93,201.63L221.17,201.14L221.24,188.05L221.32,194.52L221.4,164.09L221.63,185.26L221.71,137.31L222.01,173.22L222.25,101.43L222.4,117.36L222.48,132.88L222.71,151.98L222.78,165.44L223.02,169.53L223.48,145.07L223.56,158.03L223.63,164.85L223.71,163.86L223.79,174.07L224.02,170.35L224.33,189.03L224.48,186.06L224.56,167.51L224.64,165.64L224.79,175.65L225.02,169.11L225.1,173.32L225.41,145.36L225.48,186.35L225.87,177.52L226.26,195.58L226.33,181.8L226.41,136.82L227.03,184.73L227.1,193.59L227.95,205.41L228.11,205.03L228.18,204.55L228.26,204.02L228.34,197.24L229.19,176.21L229.26,175.38L229.65,182.7L229.96,180.25L230.03,175.91L230.34,182.04L230.57,164.57L230.65,166.78L230.73,157.07L231.27,176.87L231.5,169.2L231.58,170.6L231.96,174.82L232.19,174.29L232.27,160.15L232.5,168.49L232.66,116.7L233.12,143.3L233.2,141.95L234.04,191.64L234.12,189.5L234.2,183.68L234.97,200.32L235.2,199.59L235.28,198.87L235.59,197.32L236.13,201.01L236.2,200.62L236.28,201.25L236.51,199.99L236.82,200.45L236.9,199.08L236.97,196.76L237.28,200.32L237.59,199.34L237.67,198.52L237.75,199.09L237.82,197.94L237.9,193.72L237.98,190.46L238.52,196.24L238.59,197.29L239.44,200.81L239.52,201.22L240.52,203.79L240.6,200.91L241.45,204.76L241.52,202.95L241.6,201.36L241.76,204.2L243.84,200.4L243.91,183.61L244.53,201.44L244.61,204.36L244.69,207.24L245.07,195.03L245.38,205.9L245.46,205.87L245.92,208.4L246.23,208.18L246.31,208.37L246.61,209L246.69,192.37L246.77,184.84L247.08,207.07L247.23,206.94L247.31,206.55L247.77,207.09L248,204.11L248.08,167.18L248.46,167.64L248.93,134.17L249,134.34L249.39,156.99L249.47,131.82L249.85,142.62L249.93,140.39L250.16,115L250.24,140.65L250.39,131.75L250.55,154.83L250.62,159.95L251.63,199.24L251.93,197.57L252.01,197.48L252.17,197.65L252.24,197.09L252.32,200.8L252.4,201.3L252.63,200.32L252.71,189.3L253.01,193.47L253.09,185.8L253.17,180.56L253.55,186.11L253.71,178.51L253.79,177.85L254.17,197.37L254.71,194.55L254.79,179.42L254.94,199.18L255.48,172.43L255.56,183.18L256.25,201.61L256.33,201.23L256.41,194.87L256.95,200.77L257.18,198.98L257.26,199.93L257.33,196.66L257.95,201.04L258.03,200.75L258.1,200.91L258.18,200.47L258.26,193.97L258.8,200.86L259.03,200L259.11,196.13L259.18,192.14L259.57,201.85L259.72,200.46L259.8,200.78L260.11,185.92L260.65,192.89L260.73,198.61L260.88,200.93L260.96,199.45L261.03,191.26L261.65,201.29L261.88,200.7L261.96,192.32L262.81,201L262.88,200.46L262.96,197.72L263.42,204.37L263.58,201.28L263.66,200.65L263.81,194.67L264.35,205.28L264.43,203.12L264.5,200.52L264.74,198.24L265.12,205.9L265.43,205.56L265.51,205.85L265.58,205.35L265.66,194.7L266.05,205.69L266.35,188.56L266.43,195.05L266.59,191.77L266.66,172.67L267.43,200.76L267.51,188.08L267.59,189.06L267.9,194.51L268.05,179.3L268.13,186.68L268.21,195.38L268.36,196.95L268.44,180.61L268.75,194.4L268.82,196.5L269.13,172.96L269.29,178.31L269.36,193.85L269.67,183.17L270.21,202.53L270.29,197.17L270.6,194.23L270.67,197.14L270.75,186.04L270.98,180.48L271.37,195.44L271.52,190.61L271.6,191.71L271.91,192.14L272.83,180.49L272.91,184.12L273.91,146.16L273.99,134.84L274.45,107.83L274.76,117.26L274.84,125.52L274.91,92.24L275.3,127.62L275.53,115.95L275.61,116.93L275.84,113.44L276.61,148.62L276.69,148.07L276.77,127.48L278.08,166.77L278.15,163.55L278.54,171.69L278.85,163.33L278.92,164.82L279,164.92L279.62,143.51L279.85,146.47L279.93,149.85L280,135.4L280.24,152.27L280.62,151.75L280.7,153.73L281.01,145.34L281.24,159.75L281.39,154.13L281.47,162.43L281.86,146.94L281.93,159.96L282.55,117.81L282.78,134.51L282.86,145.05L282.93,142.72L283.09,160.24L283.17,164.19L283.24,145.69L283.78,175.63L283.86,170.48L283.94,171.39L284.01,176.44L284.25,139.79L284.32,148.11L284.4,137.86L284.55,134.36L284.63,135.34L284.71,149.52L284.79,149.66L284.86,165.51L284.94,172.03L285.25,142.8L285.33,137.93L286.17,179.71L286.25,171.69L286.56,184.09L286.71,139.96L286.94,179.6L287.02,190.24L287.18,186.79L287.41,198.41L287.48,199.98L287.72,202.74L287.79,202.63L287.87,186.72L287.95,202.7L288.33,146.76L288.41,110.05L289.1,108.87L289.18,153.01L289.26,154.02L289.49,138.87L289.64,164.67L289.87,164.18L289.95,164L290.03,167.14L290.18,163.78L290.26,135.68L290.57,167.4L290.65,127.95L291.11,164.74L291.19,150.17L291.26,151.75L291.34,142.38L291.42,136.74L291.57,130.22L291.73,147.69L291.96,143.35L292.03,116.94L292.88,180.92L292.96,171.15L293.04,173.87L293.27,158.8L293.35,161.31L293.42,159.24L293.81,164L293.88,155.85L293.96,196.85L294.04,197.95L294.27,192.19L294.35,194.76L294.42,181.3L295.27,158.58L295.35,165.81L295.43,166.11L296.04,146.7L296.12,153.18L296.2,142.37L296.66,120.95L296.97,131.4L297.05,135.6L297.28,116.19L297.82,119.33L297.89,116.92L298.05,110.06L298.43,132.69L298.51,103.94L299.21,139.66L299.36,136.7L299.44,132.08L299.67,131.43L300.44,164.43L300.52,164.22L300.59,160.87L301.21,137.67L301.37,146.48L301.44,149.23L301.75,127.12L302.21,133.93L302.29,147.63L302.52,148.17L302.6,145.5L302.68,144.82L302.83,161.15L303.45,152.44L303.52,153L303.6,152.67L303.68,164.14L303.91,159.64L304.22,172.46L304.3,154L304.37,157.96L304.53,129.05L304.68,143.21L304.76,127.74L304.84,126.37L304.99,134.62L305.07,144.67L305.3,122.47L305.68,153.22L305.76,161.99L305.91,166.59L306.07,142L306.15,140.56L306.38,134.08L306.99,159.53L307.07,158.44L307.23,165.56L307.3,128.8L307.53,128.3L308.07,167.21L308.15,165.94L308.23,145.65L309.23,190.05L309.31,191.09L309.39,190.54L309.46,198.41L309.69,201.38L309.77,201.11L309.85,196.68L309.92,201.71L310.31,176.91L310.46,191.03L310.54,123.01L310.62,123.79L310.7,160.06L310.85,173.68L310.93,161.39L311,135.14L311.16,115.22L311.31,151.88L311.54,148.36L311.62,167.95L312.01,125.44L312.39,148.49L312.47,151.45L312.86,137.43L313.24,174.89L313.32,162.76L313.4,165.75L314.32,146.69L314.4,176.99L314.47,176.83L314.55,163.87L314.63,164.36L314.71,146.23L315.17,175.02L315.55,159.22L315.63,148.14L316.25,195L316.56,187.44L316.63,168.28L316.71,160.33L317.17,176.84L317.25,175.91L317.33,178.38L318.02,159.53L318.1,154.64L318.41,156.52L318.56,152.08L318.64,148.49L318.72,149.26L318.79,147.18L318.87,123.65L319.26,147.05L319.64,128.21L319.72,139.78L320.03,123.46L320.41,135.48L320.49,139.7L320.72,135.77L320.88,142.36L320.95,142.29L321.03,145.71L321.49,146.56L321.65,125.59L321.88,136.18L321.95,140.13L322.03,140.62L322.11,149.11L322.19,147.52L322.26,155.68L322.42,152.02L322.49,165.2L322.57,156.42L323.19,168.84L323.27,167.23L323.34,169.83L323.65,159.91L323.73,156.31L324.42,146.16L324.5,151.3L324.58,157.69L325.42,144.61L325.5,152.09L325.58,152.23L325.66,151.73L325.73,159.43L325.81,152.7L326.35,166.18L326.43,165.27L326.97,122.02L327.2,133.91L327.28,139.33L327.66,138.6L328.2,176.05L328.28,170.39L328.36,173L328.59,161.82L329.2,178.64L329.28,176.9L329.43,175.81L329.51,153.38L330.13,182.07L330.36,174.77L330.44,155.47L330.9,119.02L330.98,183.07L331.29,180.05L331.36,178.48L332.13,201.54L332.29,201.14L332.37,201.93L332.6,203.92L333.29,103.75L333.37,131.74L333.44,130.61L333.52,121.75L333.75,160.72L333.98,152.81L334.06,167.7L334.45,186.93L334.6,147.21L334.76,161.1L334.83,169.58L334.99,177.32L335.06,154.87L335.37,188.17L335.91,171.5L335.99,155.59L336.76,194.91L336.84,193.52L336.92,166.07L337.07,186.93L337.38,150.61L337.53,160.82L337.61,150.04L338.69,197.58L338.77,191.78L338.84,188.1L339.15,194.39L339.54,189.9L339.61,187.13L340.62,158.66L340.69,162.54L340.77,163.65L340.85,160.71L340.93,152.98L341.08,140.14L341.31,160.8L341.62,146.13L341.7,152.72L341.93,158.42L342,149.47L342.24,154.86L342.31,160.05L342.54,137.45L343.08,145.1L343.16,146.44L343.24,150.44L343.39,138.07L343.7,144.34L343.78,128.03L345.4,180L345.47,172.47L345.55,179.39L345.94,154.87L346.09,162.18L346.17,161.74L346.4,160.01L346.48,167.99L346.63,155.02L347.17,165.93L347.25,165.67L347.33,167.94L347.56,154.9L347.63,160.41L347.71,156.54L348.64,180.03L348.71,159.96L348.79,165.38L349.02,139.71L349.1,141.9L349.18,116.07L350.18,177.37L350.26,175.08L350.33,176.29L350.41,157.73L351.34,180.13L351.41,175.71L351.57,183.35L351.72,159.77L352.11,179.3L352.18,158.16L352.88,198.55L353.03,196.29L353.11,198.08L353.88,203.71L353.96,192.09L354.03,162.69L354.34,199.81L354.73,175.48L354.81,189.25L354.88,187.55L354.96,136.31L355.27,162.41L355.58,117.12L355.65,121.21L355.73,140.82L356.35,128.91L356.5,172.8L356.58,168.96L356.66,160.86L356.89,152.38L357.43,183.83L357.5,182.68L357.58,191.44L357.97,158.45L358.2,164.97L358.28,172.31L358.43,170.14L358.97,197.52L359.05,193.92L359.12,174.27L359.28,190.28L359.59,142.67L359.74,163.67L359.82,146.62L360.9,198.11L361.36,197.9L361.44,194.93L363.21,161.44L363.29,146.45L363.6,160.7L363.83,134L363.91,133.67L364.21,131.11L364.6,144.87L364.68,129.31L365.22,158.48L365.52,152.48L365.6,148.35L365.99,132.57L366.06,119.63L366.14,119.91L366.22,137.75L366.3,137.43L366.37,140.44L366.91,163.62L366.99,139.53L367.22,160.3L367.3,145.69L367.61,176.24L368.15,161.66L368.22,161.4L368.38,154.99L368.61,167.34L368.99,164.72L369.07,165.51L369.15,170.69L369.3,158.46L369.69,169.01L369.77,161.97L370.38,175.63L370.61,167.69L370.69,165.66L370.85,167.48L370.92,155.8L371.08,166.51L371.46,142.58L371.54,146.15L372.62,177.39L372.7,177.21L372.77,171.85L373,168.14L373.47,179.21L373.54,176.99L373.62,178.58L373.7,184.53L374.01,156.66L374.08,173.25L374.16,158.75L375.01,191.95L375.09,191.63L375.63,195.01L375.78,176.61L375.86,196.09L376.01,184.05L376.17,202.39L376.4,200.87L376.48,201.07L376.63,201.32L376.71,187.3L376.78,187.64L376.86,178.97L377.01,191.41L377.09,185.68L377.17,140.79L377.4,179.58L377.86,134.43L377.94,122.76L378.87,188.16L378.94,187.57L379.02,176.07L379.41,196.06L379.56,195.03L379.64,197.22L379.95,203.71L380.64,170.57L380.72,193.23L381.18,201.38L381.33,185.62L381.49,200.22L381.56,180.44L381.8,178.85L381.87,181.07L381.95,184.91L382.03,181.77L382.34,196.82L382.49,192.48L382.57,199.36L382.88,206.18L383.49,204.8L383.57,204.24L383.8,201.86L383.96,204.89L384.26,203.63L384.34,203.69L387.81,204.7L387.89,199.79L388.27,195.79L388.43,201.53L388.66,201.25L388.74,200.1L389.04,202.73L389.43,198.43L389.51,200.91L389.58,201.59L389.66,195.65L390.28,202.28L390.36,201.52L391.05,201.04L391.13,203.17L391.2,202.86L391.28,202.3L391.67,203.12L391.82,202.99L391.9,201.24L391.98,198.85L392.05,203.22L392.59,202.46L392.67,202.04L392.9,201.42L392.98,202.4L393.05,202.08L393.13,200.07L393.29,201.56L393.36,188.99L393.44,184.1L393.67,192.77L393.98,186.85L394.06,193.05L394.83,202.14L394.91,202.31L395.06,200.45L395.14,195.91L395.21,195.6L395.29,199.99L395.6,201.81L395.68,198.8L395.75,198.26L396.22,197.05L396.45,203.32L396.52,202.98L396.6,193.96L396.91,204.68L397.22,189.35L397.37,199.83L397.45,200.01L397.99,199.68L398.53,205.45L398.61,205.39L398.68,205.95L399.15,206.86L399.3,205.1L399.38,188.68L400.15,206.88L400.38,205.27L400.46,205.97L400.61,206.94L400.77,203.54L400.84,201.95L401,181.11L401.31,189.12L401.38,201.86L402.23,206.52L402.31,205.72L402.39,204.9L402.77,206.62L403,206.37L403.08,206.36L403.31,205.1L403.39,206.43L403.47,195.42L404.47,138.43L404.54,156.87L404.62,149.38L404.78,164.73L405.24,157.98L405.32,158.72L405.39,157.24L405.55,164.93L405.62,157.57L405.7,172.64L405.86,155.06L406.16,171.13L406.24,173.16L406.78,186.49L406.86,198.1L406.94,198.28L407.01,196.73L407.09,197.17L407.17,194.96L407.48,195.94L407.55,195.67L407.63,193.77L408.02,195.82L408.4,178.29L408.63,186.46L408.71,187.14L408.79,188.87L408.94,176.52L409.02,174.76L409.09,171.25L409.48,178.68L409.63,177.63L409.71,188.75L409.87,191.02L410.02,187.79L410.1,190.26L410.17,178.14L410.25,162.76L410.64,192.21L410.95,165.78L411.02,174.29L411.49,197.57L411.79,191.5L411.87,168.28L412.56,197.03L412.64,196.67L412.72,193.31L412.8,189.66L413.1,195.32L413.34,194.39L413.41,196.14L413.57,197.49L413.72,195.23L414.03,196.75L414.11,193.93L414.42,196.14L414.57,187.28L414.88,191.77L414.96,192.69L415.19,192.91L415.5,186.9L415.57,175.41L415.73,172.13L415.96,183.41L416.11,181.97L416.19,182.11L417.11,192.02L417.19,190.49L417.27,191.79L417.35,188.63L417.42,176.39L418.12,194.05L418.27,190.77L418.35,181.87L418.43,182.7L418.5,180.67L418.58,175.13L419.12,190.93L419.35,181.17L419.43,189.5L419.89,188.82L420.28,196.06L420.35,192.47L420.43,177.02L420.82,201.7L421.05,201.09L421.12,191.49L421.28,202.26L422.05,142.13L422.13,147.92L422.2,163.44L422.28,154.03L422.74,183.35L422.82,188.09L422.9,189.42L422.98,171.68L423.36,193.82L423.52,171.61L423.82,184.7L423.9,164.49L424.29,187.93L424.52,170.15L424.59,169.22L424.98,190.6L425.06,181.51L425.13,163.43L425.52,192.66L425.91,184.02L425.98,175.41L426.14,186.56L426.21,172.98L426.37,162.23L426.91,185.85L427.06,180.15L427.14,173.26L427.45,188.84L427.91,184.26L427.99,181.92L428.06,181.53L428.3,184.38L428.37,179.62L429.45,11L429.68,63.59L429.76,83.81L430.07,91.81L430.53,35.04L430.69,39.74L430.76,90.85L431,55.55L431.38,106.89L431.46,116.42L431.54,114.15L431.61,66.68L432.15,130.81L432.46,124.09L432.54,125.49L432.69,120.23L432.85,139.94L433,131.63L433.08,134.98L434,160.86L434.08,152.19L434.16,152.94L434.39,160.68L434.7,142.62L434.85,148.7L434.93,149.23L435.47,131.98L435.55,145.48L435.85,152.65L436.32,149.04L436.39,143.38L436.62,141.89L436.93,155.85L437.16,147.56L437.24,147.86L437.4,154.18L437.55,128.15L437.7,148.65L437.78,131.67L438.01,123.66L438.63,148.42L438.71,135.99L439.94,165.12L440.02,158.89L440.4,171.27L440.56,142.25L440.71,158.48L440.79,143.08L441.64,179.17L441.71,177.67L441.79,171.59L442.02,179.14L442.18,165.58L442.25,169.38L442.33,181.28L442.41,178.79L442.56,190.78L442.64,189.29L442.72,196.1L443.18,198.06L443.26,196.51L443.33,181.34L443.56,195.96L443.72,162.46L443.8,112.47L444.34,96.36L444.8,168.46L444.88,173.43L444.95,157.32L445.57,183.62L445.65,158.33L445.72,153.68L446.42,186.85L446.57,183.79L446.65,166.36L447.04,157.83L447.11,170.53L447.19,169.24L447.27,184.64L447.81,191.39L448.04,149.62L448.19,156.12L448.27,172.84L448.65,146.29L448.81,180.46L449.04,156.98L449.12,175.08L449.27,168.17L449.43,183.76L449.5,192.07L449.58,192.59L449.66,184.12L449.81,184.58L451.05,165.56L451.12,166.67L451.2,159.27L451.28,160.08L451.35,153.49L451.43,152.64L452.12,131.86L452.51,132.1L452.59,120.66L452.74,126.51L452.82,137.23L452.9,138.33L452.97,135.65L453.05,122.32L453.44,142.5L453.9,134.93L453.98,135.43L454.67,136.7L454.75,128.57L454.82,136.28L454.9,127.16L455.52,139.13L455.59,140.38L455.83,135.28L455.98,151.95L456.29,139.85L456.37,134.92L456.91,151.63L457.21,145.51L457.29,150.55L457.37,151.13L457.45,144.57L457.6,146.81L457.68,134.29L458.45,160.56L458.53,155.25L458.6,146.71L459.22,161.66L459.3,158.88L459.68,170.5L459.76,142.15L459.84,152.44L459.99,116.24L460.38,131.69L460.45,132.17L461.3,158.4L461.38,146.84L462.23,181.6L462.3,176.68L462.54,177.89L462.61,181.55L462.69,185.12L462.77,148.21L463.61,183.03L463.69,159.53L464.23,190.83L464.31,187.7L464.39,150.7L465,199.77L465.23,199.57L465.31,199L465.47,200.34L465.77,172.77L465.85,195.96L465.93,202.49L466.01,156.45L466.08,125.58L466.31,166.12L466.55,112.55L466.85,141.98L466.93,152.09L467.01,152.39L467.09,170.55L467.39,149.11L467.78,184.78L467.86,169.69L467.93,159.15L468.24,184.19L468.55,176.34L468.63,182.69L468.7,187.21L469.01,166.76L469.17,176.9L469.24,169.23L469.48,161.19L470.09,195.03L470.17,164.7L470.32,173.03L470.4,157.5L470.56,166.82L470.63,146.14L470.86,143.6L471.25,183.46L471.48,174.98L471.56,163.88L472.41,188.15L472.48,184.57L472.87,186.39L472.95,173.55L473.1,175.77" style="vector-effect: none; fill: none; stroke: rgb(239, 85, 59); stroke-opacity: 1; stroke-width: 2px; opacity: 1;"/></g><g class="points"/><g class="text"/></g></g></g><g class="overplot"/><path class="xlines-above crisp" d="M0,0" style="fill: none;"/><path class="ylines-above crisp" d="M0,0" style="fill: none;"/><g class="overlines-above"/><g class="xaxislayer-above"><g class="x2tick"><text text-anchor="middle" x="0" y="333" transform="translate(690.89,0)" style="font-family: 'Open Sans', verdana, arial, sans-serif; font-size: 12px; fill: rgb(42, 63, 95); fill-opacity: 1; white-space: pre; opacity: 1;"><tspan class="line" dy="0em" x="0" y="333">Jan 23</tspan><tspan class="line" dy="1.3em" x="0" y="333">2022</tspan></text></g><g class="x2tick"><text text-anchor="middle" x="0" y="333" style="font-family: 'Open Sans', verdana, arial, sans-serif; font-size: 12px; fill: rgb(42, 63, 95); fill-opacity: 1; white-space: pre; opacity: 1;" transform="translate(846.3499999999999,0)">Jan 30</text></g><g class="x2tick"><text text-anchor="middle" x="0" y="333" style="font-family: 'Open Sans', verdana, arial, sans-serif; font-size: 12px; fill: rgb(42, 63, 95); fill-opacity: 1; white-space: pre; opacity: 1;" transform="translate(1001.8199999999999,0)">Feb 6</text></g></g><g class="yaxislayer-above"><g class="y2tick"><text text-anchor="end" x="601.9" y="4.199999999999999" transform="translate(0,309.65)" style="font-family: 'Open Sans', verdana, arial, sans-serif; font-size: 12px; fill: rgb(42, 63, 95); fill-opacity: 1; white-space: pre; opacity: 1;">0</text></g><g class="y2tick"><text text-anchor="end" x="601.9" y="4.199999999999999" style="font-family: 'Open Sans', verdana, arial, sans-serif; font-size: 12px; fill: rgb(42, 63, 95); fill-opacity: 1; white-space: pre; opacity: 1;" transform="translate(0,228.84)">5k</text></g><g class="y2tick"><text text-anchor="end" x="601.9" y="4.199999999999999" style="font-family: 'Open Sans', verdana, arial, sans-serif; font-size: 12px; fill: rgb(42, 63, 95); fill-opacity: 1; white-space: pre; opacity: 1;" transform="translate(0,148.04)">10k</text></g></g><g class="overaxes-above"/></g></g><g class="polarlayer"/><g class="smithlayer"/><g class="ternarylayer"/><g class="geolayer"/><g class="funnelarealayer"/><g class="pielayer"/><g class="iciclelayer"/><g class="treemaplayer"/><g class="sunburstlayer"/><g class="glimages"/><defs id="topdefs-aba813"><g class="clips"/><clipPath id="legendaba813"><rect width="92" height="48" x="0" y="0"/></clipPath></defs><g class="layer-above"><g class="imagelayer"/><g class="shapelayer"/></g><g class="infolayer"><g class="legend" pointer-events="all" transform="translate(1095.92,100)"><rect class="bg" shape-rendering="crispEdges" style="stroke: rgb(68, 68, 68); stroke-opacity: 1; fill: rgb(255, 255, 255); fill-opacity: 1; stroke-width: 0px;" width="92" height="48" x="0" y="0"/><g class="scrollbox" transform="" clip-path="url(#legendaba813)"><g class="groups"><g class="traces" transform="translate(0,14.5)" style="opacity: 1;"><text class="legendtext" text-anchor="start" x="40" y="4.680000000000001" style="font-family: 'Open Sans', verdana, arial, sans-serif; font-size: 12px; fill: rgb(42, 63, 95); fill-opacity: 1; white-space: pre;">res</text><g class="layers" style="opacity: 1;"><g class="legendfill"/><g class="legendlines"><path class="js-line" d="M5,0h30" style="fill: none; stroke: rgb(99, 110, 250); stroke-opacity: 1; stroke-width: 2px;"/></g><g class="legendsymbols"><g class="legendpoints"/></g></g><rect class="legendtoggle" x="0" y="-9.5" width="86.171875" height="19" style="fill: rgb(0, 0, 0); fill-opacity: 0;"/></g><g class="traces" transform="translate(0,33.5)" style="opacity: 1;"><text class="legendtext" text-anchor="start" x="40" y="4.680000000000001" style="font-family: 'Open Sans', verdana, arial, sans-serif; font-size: 12px; fill: rgb(42, 63, 95); fill-opacity: 1; white-space: pre;">db time</text><g class="layers" style="opacity: 1;"><g class="legendfill"/><g class="legendlines"><path class="js-line" d="M5,0h30" style="fill: none; stroke: rgb(239, 85, 59); stroke-opacity: 1; stroke-width: 2px;"/></g><g class="legendsymbols"><g class="legendpoints"/></g></g><rect class="legendtoggle" x="0" y="-9.5" width="86.171875" height="19" style="fill: rgb(0, 0, 0); fill-opacity: 0;"/></g></g></g><rect class="scrollbar" rx="20" ry="3" width="0" height="0" style="fill: rgb(128, 139, 164); fill-opacity: 1;" x="0" y="0"/></g><g class="g-gtitle"/><g class="g-xtitle"/><g class="g-x2title"/><g class="g-ytitle"/><g class="g-y2title"/></g></svg>