<svg class="main-svg" xmlns="http://www.w3.org/2000/svg" xmlns:xlink="http://www.w3.org/1999/xlink" width="1200" height="400" style="" viewBox="0 0 1200 400"><rect x="0" y="0" width="1200" height="400" style="fill: rgb(255, 255, 255); fill-opacity: 1;"/><defs id="defs-8644e7"><g class="clips"><clipPath id="clip8644e7xyplot" class="plotclip"><rect width="473.09999999999997" height="220"/></clipPath><clipPath id="clip8644e7x2y2plot" class="plotclip"><rect width="473.09999999999997" height="220"/></clipPath><clipPath class="axesclip" id="clip8644e7x"><rect x="80" y="0" width="473.09999999999997" height="400"/></clipPath><clipPath class="axesclip" id="clip8644e7y"><rect x="0" y="100" width="1200" height="220"/></clipPath><clipPath class="axesclip" id="clip8644e7xy"><rect x="80" y="100" width="473.09999999999997" height="220"/></clipPath><clipPath class="axesclip" id="clip8644e7y2"><rect x="0" y="100" width="1200" height="220"/></clipPath><clipPath class="axesclip" id="clip8644e7xy2"><rect x="80" y="100" width="473.09999999999997" height="220"/></clipPath><clipPath class="axesclip" id="clip8644e7x2"><rect x="602.9" y="0" width="473.09999999999997" height="400"/></clipPath><clipPath class="axesclip" id="clip8644e7x2y"><rect x="602.9" y="100" width="473.09999999999997" height="220"/></clipPath><clipPath class="axesclip" id="clip8644e7x2y2"><rect x="602.9" y="100" width="473.09999999999997" height="220"/></clipPath></g><g class="gradients"/><g class="patterns"/></defs><g class="bglayer"><rect class="bg" x="80" y="100" width="473.09999999999997" height="220" style="fill: rgb(229, 236, 246); fill-opacity: 1; stroke-width: 0;"/><rect class="bg" x="602.9" y="100" width="473.09999999999997" height="220" style="fill: rgb(229, 236, 246); fill-opacity: 1; stroke-width: 0;"/></g><g class="layer-below"><g class="imagelayer"/><g class="shapelayer"/></g><g class="cartesianlayer"><g class="subplot xy"><g class="layer-subplot"><g class="shapelayer"/><g class="imagelayer"/></g><g class="minor-gridlayer"><g class="x"/><g class="y"/></g><g class="gridlayer"><g class="x"><path class="xgrid crisp" transform="translate(174.65,0)" d="M0,100v220" style="stroke: rgb(255, 255, 255); stroke-opacity: 1; stroke-width: 1px;"/><path class="xgrid crisp" transform="translate(295.08000000000004,0)" d="M0,100v220" style="stroke: rgb(255, 255, 255); stroke-opacity: 1; stroke-width: 1px;"/><path class="xgrid crisp" transform="translate(415.5,0)" d="M0,100v220" style="stroke: rgb(255, 255, 255); stroke-opacity: 1; stroke-width: 1px;"/><path class="xgrid crisp" transform="translate(535.9300000000001,0)" d="M0,100v220" style="stroke: rgb(255, 255, 255); stroke-opacity: 1; stroke-width: 1px;"/></g><g class="y"><path class="ygrid crisp" transform="translate(0,270.81)" d="M80,0h473.09999999999997" style="stroke: rgb(255, 255, 255); stroke-opacity: 1; stroke-width: 1px;"/><path class="ygrid crisp" transform="translate(0,232.61)" d="M80,0h473.09999999999997" style="stroke: rgb(255, 255, 255); stroke-opacity: 1; stroke-width: 1px;"/><path class="ygrid crisp" transform="translate(0,194.41)" d="M80,0h473.09999999999997" style="stroke: rgb(255, 255, 255); stroke-opacity: 1; stroke-width: 1px;"/><path class="ygrid crisp" transform="translate(0,156.21)" d="M80,0h473.09999999999997" style="stroke: rgb(255, 255, 255); stroke-opacity: 1; stroke-width: 1px;"/><path class="ygrid crisp" transform="translate(0,118.01)" d="M80,0h473.09999999999997" style="stroke: rgb(255, 255, 255); stroke-opacity: 1; stroke-width: 1px;"/></g></g><g class="zerolinelayer"><path class="yzl zl crisp" transform="translate(0,309.01)" d="M80,0h473.09999999999997" style="stroke: rgb(255, 255, 255); stroke-opacity: 1; stroke-width: 2px;"/></g><path class="xlines-below"/><path class="ylines-below"/><g class="overlines-below"/><g class="xaxislayer-below"/><g class="yaxislayer-below"/><g class="overaxes-below"/><g class="plot" transform="translate(80,100)" clip-path="url(#clip8644e7xyplot)"><g class="scatterlayer mlayer"><g class="trace scatter tracea08c9d" style="stroke-miterlimit: 2; opacity: 1;"><g class="fills"/><g class="errorbars"/><g class="lines"><path class="js-line" d="M0,208.94L0.54,208.83L0.57,207.99L1.05,209L1.34,208.93L1.37,208.97L9.08,208.92L9.11,207.8L9.83,208.98L9.89,208.95L9.92,208.93L12.13,208.95L12.16,208.88L13.29,208.98L13.32,208.91L16.31,208.97L16.34,188.87L16.99,208.99L17.11,208.95L17.14,208.92L23.74,208.85L23.77,208.04L23.8,206.98L24.07,208.99L24.49,208.95L24.52,208.98L24.91,208.96L24.94,205.87L25.51,208.98L25.69,208.93L25.72,208.93L29.63,208.97L29.66,208.94L34.8,208.97L34.83,208.87L35.42,208.96L35.45,208.3L36.02,208.25L36.11,208.97L36.23,208.92L36.26,208.97L38.35,208.76L38.38,102.8L39.16,208.98L39.19,208.97L44.08,208.97L44.11,208.85L45.46,208.95L45.49,208.91L46.53,208.92L46.56,207.64L46.62,199.56L47.25,208.93L47.31,208.45L47.34,196.51L47.82,208.99L48.15,208.96L48.18,208.92L51.82,208.92L51.85,208.83L52.06,208.33L52.69,208.98L52.72,208.97L55.25,208.76L55.28,208.32L56.06,208.97L56.09,208.89L57.49,208.96L57.52,208.94L58.21,208.55L58.24,208.26L58.27,207.69L58.54,209L58.93,208.96L58.96,208.97L62.33,208.96L62.36,208.98L64.81,208.86L64.84,208.98L69.17,208.97L69.2,207.91L69.83,208.99L69.98,208.96L70.01,208.92L72.4,208.76L72.43,208.28L73.06,208.98L73.21,208.91L73.23,208.93L75.39,208.94L75.42,208.81L76.7,208.99L76.73,208.92L77.83,208.97L77.86,208.83L77.89,208.34L78.58,208.98L78.67,208.97L78.7,208.97L81.63,208.71L81.66,208.95L81.69,208.97L86.41,208.95L86.44,207.87L86.47,207.68L86.59,208.97L87,208.97L87.03,208.98L89.99,208.95L90.02,208.97L90.71,208.83L90.74,208.98L92.77,208.92L92.8,208.97L93.99,208.87L94.8,208.93L95.78,208.86L95.84,208.56L95.87,207.77L96.65,208.98L96.68,208.95L98.35,208.95L98.38,208.98L103.64,208.97L103.67,208.97L106.63,208.87L106.66,207.87L106.84,205.46L107.34,208.95L107.43,208.93L107.46,208.88L108.24,208.95L108.27,208.98L108.3,208.95L129.42,208.9L129.45,207.9L130.04,208.99L130.22,208.95L130.25,208.99L135.69,208.85L135.72,208.96L137.15,208.89L137.18,208.97L141.87,208.94L141.9,208.98L143.01,208.92L143.04,208.97L166.6,208.65L166.63,208.04L166.69,11L167.17,144.14L167.2,204.48L167.29,171L167.62,208.87L167.91,208.86L167.94,208.68L168.72,208.98L168.75,208.95L169.62,208.92L169.65,208.98L171.68,208.93L171.71,208.97L172.42,208.96L172.45,206.86L173.14,208.99L173.23,208.96L173.26,208.99L176.9,208.9L176.93,208.97L178.61,208.89L178.64,208.95L187.18,208.96L187.21,208.21L187.78,208.99L188.02,208.93L188.05,208.97L192.85,208.85L192.88,208.36L193.09,208.27L193.42,208.97L193.69,208.81L193.72,208.96L193.78,208.98L194.11,208.72L194.47,208.94L194.5,208.91L198.02,208.95L198.05,208.8L198.29,208.61L198.98,208.98L199.01,208.95L204.29,208.95L204.32,208.88L205.76,208.95L205.79,208.94L211.28,208.95L211.31,208.92L222.21,208.95L222.24,208.94L225.02,208.96L225.05,208.97L227.23,208.53L227.26,208.01L227.35,207.68L227.83,208.98L228.07,208.95L228.1,208.95L232.64,208.93L232.67,208.77L232.73,208.64L233.44,208.97L233.47,208.97L235.83,208.87L235.86,207.89L236.61,208.97L236.64,208.93L236.67,208.82L237.95,208.94L237.98,208.87L239.36,208.97L239.39,208.9L241.03,208.98L241.06,208.87L241.18,208.97L241.27,207.8L241.81,208.91L241.84,208.97L244.88,208.93L244.91,208.99L247.93,208.94L247.96,208.99L249.9,208.79L249.93,207.53L250.68,208.98L250.71,208.96L250.74,208.97L253.66,208.9L253.69,208.97L254.86,208.96L254.89,208.97L264.83,208.96L264.86,208.86L266.12,208.95L266.15,208.93L271.85,208.95L271.88,208.93L274.69,208.96L274.72,208.87L275.95,208.94L275.98,208.86L276.84,208.45L276.87,207.96L277.35,209L277.65,208.93L277.68,208.93L280.54,208.97L280.57,208.87L281.5,208.96L281.53,208.93L287.03,208.92L287.06,208.9L287.74,208.61L287.77,208.97L288.01,208.32L288.49,208.91L288.52,208.95L292.85,208.94L292.88,208.09L293.42,208.98L293.66,208.89L293.69,208.94L296.11,208.85L296.14,208.02L296.67,208.96L296.91,208.94L296.94,208.97L298.44,208.84L298.47,208.91L298.5,208.93L301.45,208.92L301.48,207.85L302.14,208.99L302.26,208.95L302.29,208.98L304.05,208.92L304.08,208.98L306.98,208.94L307.01,208.97L309.9,208.89L309.93,208.97L312.59,208.93L312.62,208.99L317.85,208.95L317.88,208.97L321.73,208.73L321.76,208.96L322.6,208.85L322.63,208.83L323.76,208.96L323.79,208.94L334.43,208.96L334.46,208.89L336.22,208.89L336.25,208.9L338.13,208.99L338.16,208.94L341.12,208.97L341.15,208.93L345.03,208.96L345.06,208.91L346.85,208.96L346.88,208.93L347.33,208.74L347.36,208.56L347.39,208.22L347.45,208.49L347.69,205.38L347.72,198.19L348.43,208.82L348.49,206.56L348.52,208.62L348.55,207.98L348.91,208.98L349.24,208.96L349.27,208.96L351.96,208.92L351.99,208.97L352.88,208.56L352.91,206.83L353.18,204.21L353.39,208.98L353.66,208.88L353.69,208.34L354.35,208.98L354.44,208.95L354.47,208.87L354.65,208.99L355.03,208.34L355.21,208.95L355.24,208.97L356.08,208.67L356.11,207.95L356.59,208.92L356.65,205.25L356.86,208.64L356.89,208.6L357.15,207.48L357.24,208.92L357.57,208.93L357.6,208.92L361.69,208.72L361.72,206.37L361.75,200.57L362.44,208.99L362.47,208.96L363.25,208.86L363.28,208.16L363.31,207.69L363.58,208.98L363.96,208.95L363.99,208.98L364.98,208.35L365.04,208.67L365.07,208.03L365.76,208.97L365.85,208.82L365.88,208.91L365.97,208.96L366.56,208.86L366.62,208.96L366.65,208.98L367.85,208.16L367.97,208.81L368,208.91L368.8,208.84L368.83,199.66L369.43,208.98L369.61,208.94L369.64,208.91L370.06,208.94L370.09,208.21L370.12,199.97L370.8,208.97L370.83,208.9L370.86,208.95L373.28,208.82L373.31,208.24L373.7,207.91L374.06,208.93L374.09,208.92L374.12,208.92L374.93,208.56L374.96,208.95L376.45,208.71L376.48,208.05L377.17,208.98L377.26,208.94L377.29,208.95L378.87,208.96L378.9,207.71L379.32,208.99L379.67,208.98L379.7,208.95L381.97,208.87L382,208.71L382.03,208.21L382.72,208.98L382.75,208.89L382.84,208.47L383.44,208.94L383.47,208.96L385.98,208.93L386.01,208.99L392.79,208.95L392.82,208.99L396.88,208.87L396.91,208.94L399.21,208.97L399.24,208.98L401.66,208.96L401.69,208.96L405.42,208.95L405.45,208.94L407.69,208.97L407.72,208.31L407.9,206.22L408.05,208.92L408.23,207.85L408.26,204.97L408.94,208.96L409.03,208.9L409.06,208.95L412.08,208.9L412.11,208.96L413.01,208.92L413.04,208.95L413.16,208.61L413.34,208.88L413.37,200.88L413.51,208.97L413.66,188.34L414.14,208.95L414.17,208.92L414.71,208.96L414.74,206.81L414.77,208.98L415.49,208.95L415.52,208.96L416.47,208.34L416.5,208.25L416.74,208.08L417.1,208.93L417.25,208.91L417.28,208.75L417.4,208.67L418.05,208.93L418.08,208.96L425.58,208.93L425.61,208.98L428.33,208.93L428.36,208.96L428.42,208.62L429.11,208.93L429.14,208.94L430.63,208.28L430.66,203.72L431.35,208.99L431.43,208.97L431.46,208.98L432.72,208.96L432.75,208.96L433.68,208.72L433.7,206.59L434.33,208.9L434.54,208.59L434.57,208.68L434.6,207.4L435.05,208.97L435.29,208.96L435.32,208.94L439.14,208.95L439.17,208.52L439.77,208.99L439.98,208.94L440.01,208.98L441.47,208.95L441.5,208.99L442.55,208.61L442.58,208.02L442.67,205.54L443.35,208.96L443.38,208.93L443.41,208.95L453.54,208.92L453.57,208.87L454.82,208.96L454.85,208.92L458.55,208.94L458.58,208.88L460.32,208.98L460.35,208.95L465.84,208.97L465.87,208.9L467.16,208.97L467.19,208.95L467.96,208.87L467.99,208.45L468.02,208.36L468.08,208.58L468.11,207.84L468.14,208.1L468.17,204.56L468.8,208.94L468.95,208.86L468.98,208.91L473.1,208.95" style="vector-effect: none; fill: none; stroke: rgb(99, 110, 250); stroke-opacity: 1; stroke-width: 2px; opacity: 1;"/></g><g class="points"/><g class="text"/></g></g></g><g class="overplot"/><path class="xlines-above crisp" d="M0,0" style="fill: none;"/><path class="ylines-above crisp" d="M0,0" style="fill: none;"/><g class="overlines-above"/><g class="xaxislayer-above"><g class="xtick"><text text-anchor="middle" x="0" y="333" transform="translate(174.65,0)" style="font-family: 'Open Sans', verdana, arial, sans-serif; font-size: 12px; fill: rgb(42, 63, 95); fill-opacity: 1; white-space: pre; opacity: 1;"><tspan class="line" dy="0em" x="0" y="333">Jan 30</tspan><tspan class="line" dy="1.3em" x="0" y="333">2022</tspan></text></g><g class="xtick"><text text-anchor="middle" x="0" y="333" style="font-family: 'Open Sans', verdana, arial, sans-serif; font-size: 12px; fill: rgb(42, 63, 95); fill-opacity: 1; white-space: pre; opacity: 1;" transform="translate(295.08000000000004,0)">Feb 13</text></g><g class="xtick"><text text-anchor="middle" x="0" y="333" style="font-family: 'Open Sans', verdana, arial, sans-serif; font-size: 12px; fill: rgb(42, 63, 95); fill-opacity: 1; white-space: pre; opacity: 1;" transform="translate(415.5,0)">Feb 27</text></g><g class="xtick"><text text-anchor="middle" x="0" y="333" style="font-family: 'Open Sans', verdana, arial, sans-serif; font-size: 12px; fill: rgb(42, 63, 95); fill-opacity: 1; white-space: pre; opacity: 1;" transform="translate(535.9300000000001,0)">Mar 13</text></g></g><g class="yaxislayer-above"><g class="ytick"><text text-anchor="end" x="79" y="4.199999999999999" transform="translate(0,309.01)" style="font-family: 'Open Sans', verdana, arial, sans-serif; font-size: 12px; fill: rgb(42, 63, 95); fill-opacity: 1; white-space: pre; opacity: 1;">0</text></g><g class="ytick"><text text-anchor="end" x="79" y="4.199999999999999" style="font-family: 'Open Sans', verdana, arial, sans-serif; font-size: 12px; fill: rgb(42, 63, 95); fill-opacity: 1; white-space: pre; opacity: 1;" transform="translate(0,270.81)">500</text></g><g class="ytick"><text text-anchor="end" x="79" y="4.199999999999999" style="font-family: 'Open Sans', verdana, arial, sans-serif; font-size: 12px; fill: rgb(42, 63, 95); fill-opacity: 1; white-space: pre; opacity: 1;" transform="translate(0,232.61)">1000</text></g><g class="ytick"><text text-anchor="end" x="79" y="4.199999999999999" style="font-family: 'Open Sans', verdana, arial, sans-serif; font-size: 12px; fill: rgb(42, 63, 95); fill-opacity: 1; white-space: pre; opacity: 1;" transform="translate(0,194.41)">1500</text></g><g class="ytick"><text text-anchor="end" x="79" y="4.199999999999999" style="font-family: 'Open Sans', verdana, arial, sans-serif; font-size: 12px; fill: rgb(42, 63, 95); fill-opacity: 1; white-space: pre; opacity: 1;" transform="translate(0,156.21)">2000</text></g><g class="ytick"><text text-anchor="end" x="79" y="4.199999999999999" style="font-family: 'Open Sans', verdana, arial, sans-serif; font-size: 12px; fill: rgb(42, 63, 95); fill-opacity: 1; white-space: pre; opacity: 1;" transform="translate(0,118.01)">2500</text></g></g><g class="overaxes-above"/></g><g class="subplot x2y2"><g class="layer-subplot"><g class="shapelayer"/><g class="imagelayer"/></g><g class="minor-gridlayer"><g class="x2"/><g class="y2"/></g><g class="gridlayer"><g class="x2"><path class="x2grid crisp" transform="translate(697.55,0)" d="M0,100v220" style="stroke: rgb(255, 255, 255); stroke-opacity: 1; stroke-width: 1px;"/><path class="x2grid crisp" transform="translate(817.98,0)" d="M0,100v220" style="stroke: rgb(255, 255, 255); stroke-opacity: 1; stroke-width: 1px;"/><path class="x2grid crisp" transform="translate(938.4,0)" d="M0,100v220" style="stroke: rgb(255, 255, 255); stroke-opacity: 1; stroke-width: 1px;"/><path class="x2grid crisp" transform="translate(1058.83,0)" d="M0,100v220" style="stroke: rgb(255, 255, 255); stroke-opacity: 1; stroke-width: 1px;"/></g><g class="y2"><path class="y2grid crisp" transform="translate(0,228.84)" d="M602.9,0h473.09999999999997" style="stroke: rgb(255, 255, 255); stroke-opacity: 1; stroke-width: 1px;"/><path class="y2grid crisp" transform="translate(0,148.04)" d="M602.9,0h473.09999999999997" style="stroke: rgb(255, 255, 255); stroke-opacity: 1; stroke-width: 1px;"/></g></g><g class="zerolinelayer"><path class="y2zl zl crisp" transform="translate(0,309.65)" d="M602.9,0h473.09999999999997" style="stroke: rgb(255, 255, 255); stroke-opacity: 1; stroke-width: 2px;"/></g><path class="xlines-below"/><path class="ylines-below"/><g class="overlines-below"/><g class="xaxislayer-below"/><g class="yaxislayer-below"/><g class="overaxes-below"/><g class="plot" transform="translate(602.9,100)" clip-path="url(#clip8644e7x2y2plot)"><g class="scatterlayer mlayer"><g class="trace scatter trace5d49f4" style="stroke-miterlimit: 2; opacity: 1;"><g class="fills"/><g class="errorbars"/><g class="lines"><path class="js-line" d="M0,200.31L0.09,173.08L0.18,188.41L0.21,127.24L0.57,105.38L0.84,185.64L0.99,184.53L1.02,180.6L1.08,186.33L1.11,150.78L1.22,190.1L1.58,143.7L1.88,174.03L1.91,171.99L1.94,173.49L1.97,149.23L2,131.14L2.48,202.53L2.87,189L2.9,182.19L2.93,184.48L3.2,158.83L3.23,163.26L3.26,148.57L3.35,155.11L3.61,122.35L3.94,153.54L3.97,133.76L4.15,128.9L4.75,160.61L4.78,148.49L4.93,177.22L5.5,143.17L5.53,152.41L5.56,148.5L5.59,144.45L5.88,170.27L6.15,167.94L6.18,166.43L6.21,165.48L6.36,177.16L6.45,168.5L6.48,140.86L6.66,127.61L7.35,191.6L7.38,184.48L7.41,185.39L7.56,157.34L7.86,191.17L8.21,174.77L8.24,194.8L8.75,204.08L9.11,108.15L9.26,140.65L9.29,156.77L9.35,138.27L9.86,190.91L10.04,171.15L10.07,160.98L10.36,189.78L10.63,139.25L10.84,172.91L10.87,174.68L10.96,188.2L10.99,195.54L11.02,201.59L11.5,173.26L11.62,177.13L11.65,171.36L12.22,131.36L12.51,149.75L12.54,151.61L12.81,158.7L13.11,127.4L13.29,149.71L13.32,154.31L13.47,140.68L13.71,178.64L13.98,164.8L14.01,153.85L14.19,144.98L14.25,162.8L14.37,162.01L14.4,165.99L14.87,173.03L15.17,111.78L15.32,136.23L15.35,149.96L15.44,137.42L16.1,178.43L16.13,176.48L16.16,149.11L16.34,80.91L16.99,200.23L17.05,198.22L17.08,196.54L17.2,198.68L17.23,173.75L17.35,202.5L17.68,110.78L17.95,163.53L17.98,171.19L18.19,182.17L18.31,154.56L18.64,167.43L18.67,157.62L19,185.97L19.17,118.88L19.53,176.96L19.56,173.12L19.86,192.34L20.28,169.65L20.31,164.03L20.34,165.13L20.46,144.62L20.49,138.08L20.58,151.09L21.03,126.22L21.15,139.43L21.18,119.14L21.21,117.89L21.27,139.24L21.3,145.67L21.47,130.29L22.04,155.4L22.07,124.78L22.31,176.64L22.85,167.56L22.88,163.36L23.15,146.89L23.54,176.59L23.57,174.59L23.6,148.41L23.8,98.41L24.61,189.28L24.64,183.11L24.67,182.9L24.7,185.95L24.73,183.63L24.76,161.23L24.94,98.11L25.06,192.66L25.42,174.07L25.45,177.18L25.87,202.07L25.92,171.61L25.98,185.92L26.01,132.49L26.22,113.34L26.67,181.48L26.82,179.37L26.85,183.16L27.36,161.48L27.51,199.83L27.6,194.35L27.63,181.46L27.78,160.8L28.22,205.59L28.46,204.46L28.49,204.04L28.58,189.86L28.88,196.86L28.91,199.6L29.42,179.04L29.45,168.17L30.55,194.78L30.58,194.5L30.61,195.2L30.85,188.51L31.3,193.22L31.33,195.6L31.78,196.31L31.93,190.8L32.11,192.69L32.14,194.39L32.35,161.62L32.56,177.45L32.59,187.98L32.73,183.39L33.3,196.15L33.33,193.08L33.36,180.82L33.54,128.21L34.23,203.73L34.26,202.97L34.35,197.27L34.56,203.99L34.59,203.55L34.62,187.2L35.03,206.36L35.18,177.91L35.33,181.99L35.36,178.29L35.39,172.29L35.72,208.76L35.93,208.62L35.96,208.68L36.11,191.74L36.2,201.75L36.23,184L36.59,145.98L37.1,156.71L37.13,162.56L37.3,161.58L37.63,198.34L37.99,182.58L38.02,164.35L38.05,176.94L38.38,30.42L38.77,170.44L38.8,168.43L38.98,142.4L39.4,195.66L39.51,187.12L39.54,186.81L40.11,199.17L40.32,197.03L40.35,192.46L40.47,197.86L40.89,177.93L41.01,181.83L41.04,181.21L41.07,173.83L41.55,197.1L41.72,195.63L41.75,196.35L42.14,181.84L42.23,198.8L42.5,193.47L42.53,195.72L42.83,204.03L43.22,165.65L43.31,169.65L43.34,188.51L43.37,189.13L43.4,149.57L43.91,191.22L44.08,189.16L44.11,163.11L44.2,176.58L44.23,184.38L44.38,165.22L44.77,197.27L44.83,168.89L44.86,170.83L45.19,162.91L45.52,199L45.76,186.23L45.79,188.12L45.85,189.91L46.03,171.51L46.06,171.43L46.62,87.38L47.01,109.01L47.04,120.63L47.1,122.37L47.13,122.05L47.16,95.1L47.34,83.55L47.94,166.56L47.97,165.8L48,171.95L48.18,171.97L48.59,140.24L48.8,154.95L48.83,157.52L48.95,139.57L49.34,171.43L49.46,165.16L49.49,135.66L49.58,101.16L50.06,178.86L50.09,180.82L50.15,187.88L50.57,156.39L50.71,177.75L50.74,160.2L51.19,155.48L51.55,202.17L51.58,201.78L51.64,180.89L51.67,200.51L52.09,106.76L52.39,154.78L52.42,162.1L52.51,174.5L52.54,159.25L52.57,148.23L52.84,188.11L52.95,163.99L52.98,149.59L53.37,188.36L53.52,139.88L53.67,148.28L53.7,138.59L53.85,133.44L54.36,186.72L54.48,181.05L54.51,169.04L54.54,179.95L54.99,134.16L55.17,138.34L55.2,124.49L55.22,103.13L55.7,142.29L55.94,120.84L55.97,131.07L56.42,162.19L56.81,153.99L56.84,155.26L56.93,137.04L57.23,162.79L57.61,162.41L57.64,156.25L57.91,173.55L58.18,110.79L58.21,112.99L58.27,101.65L58.3,121.67L58.33,141.09L58.36,141.7L58.39,161.57L58.6,142.69L58.75,184.94L58.99,178.28L59.02,180.23L59.17,148.81L59.47,191.17L59.59,180.23L59.62,182.5L59.76,168.6L59.85,187.47L59.88,192.68L60.27,202.22L60.33,178.97L60.39,185.41L60.42,123.44L60.66,113.05L61.2,175.13L61.23,167.8L61.59,151.41L62,191.04L62.03,163.69L62.3,142.71L62.69,197.43L62.84,191.69L62.87,195.15L62.9,196.12L63.08,184.36L63.11,177.59L63.17,185.01L63.65,136.23L63.77,158.34L63.8,153.36L64.42,154.38L64.54,134.22L64.57,139.02L64.6,140.88L65.05,155.79L65.08,125.58L65.17,130.83L65.2,166.68L65.32,175.34L65.77,155.61L65.8,140.45L66.46,172.92L66.57,170.24L66.6,150.68L66.66,160.79L66.75,133.4L66.78,121.79L66.81,110.46L67.35,184.98L67.38,181.44L67.77,140.54L68.07,191.84L68.13,170.81L68.16,175.36L68.46,161.38L68.67,203L68.9,177.5L68.93,178.84L68.96,202.98L69.2,105.36L69.65,182.35L69.68,170.3L69.92,150.38L70.07,191.86L70.34,164.69L70.37,153.5L70.58,190.85L70.91,142.28L70.99,156.61L71.02,170.5L71.05,168.93L71.23,197.15L71.26,197.78L71.86,167L71.89,156.08L71.92,159.84L72.25,128.12L72.4,129.57L72.43,115.8L72.58,151.15L73.23,147.45L73.26,147.39L73.32,132.35L73.59,162.91L73.71,157.96L73.74,166.03L74.4,131.24L74.43,144.31L74.46,159.81L74.49,160.36L74.61,152.99L74.64,149.26L75.15,177.26L75.42,138.24L75.45,143.55L75.47,135.57L75.95,187.4L76.1,182.93L76.13,180.57L76.4,145.95L76.67,187.63L76.82,180.81L76.85,167.49L77,153.78L77.33,203.49L77.6,184.87L77.63,123.39L77.89,112.14L78.4,184.52L78.46,184.3L78.49,195.54L79.24,140.63L79.27,154.81L79.3,162.76L79.45,117.57L79.9,196.84L80.1,187.75L80.13,176.63L80.25,186.47L80.67,152.82L80.7,142.09L80.82,146.75L81.06,113.4L81.36,141.1L81.39,132.68L81.93,112.19L82.14,162.32L82.17,158.69L82.2,157.27L82.34,138.01L82.61,168.96L82.94,157.46L82.97,153.85L83,143.81L83.66,173.47L83.69,170.39L83.78,175.7L83.87,157.86L83.9,132.65L84.67,187.26L84.7,134.53L84.82,181.25L84.97,122.3L85.51,180.65L85.54,182.15L85.93,201.63L86.23,137.31L86.29,170.24L86.32,172.94L86.35,173.22L86.38,159.22L86.44,101.43L87.03,174.07L87.06,182.88L87.24,189.03L87.66,145.36L87.69,186.35L87.84,177.52L87.99,195.58L88.02,181.8L88.05,136.82L88.65,205.41L88.86,188.16L88.89,184.23L88.95,192.14L89.72,157.07L89.75,170.32L89.93,176.87L89.99,157.23L90.32,160.15L90.35,149.56L90.47,116.7L91.19,197.43L91.22,196.8L91.87,201.25L92.05,200.28L92.08,200.45L92.53,190.46L92.83,199.12L92.86,199.12L93.87,204.76L93.9,202.95L93.93,201.36L93.99,204.2L94.8,200.4L94.83,183.61L95.49,208.28L95.52,207.94L95.55,207.49L95.87,209L95.9,192.37L96.32,207.09L96.77,134.17L96.83,139.31L96.86,143.81L97.25,115L98.11,201.3L98.14,200.47L98.17,200.73L98.2,200.32L98.23,189.3L98.65,177.85L98.8,197.37L99.01,194.55L99.04,179.42L99.31,172.43L99.61,201.61L99.82,199.48L99.85,198.51L100.26,201.04L100.38,193.97L100.62,200.28L100.65,199.74L100.68,200L100.71,196.13L100.74,192.14L100.89,201.85L101.1,185.92L101.49,195.92L101.52,194.25L101.82,192.32L102.39,204.37L102.42,203.76L102.45,201.28L102.53,194.67L102.74,205.28L102.89,198.24L102.92,202.59L103.04,205.9L103.52,188.56L103.61,191.77L103.64,172.67L103.94,200.76L104.45,194.4L104.48,196.5L104.6,172.96L104.95,200.76L104.98,202.14L105.01,202.53L105.1,196.14L105.13,194.29L105.19,197.14L105.31,180.48L105.73,188.13L105.76,185.39L105.85,186.24L106.03,180.49L106.09,182.02L106.12,164.51L106.18,177.76L106.66,107.83L106.75,121.98L106.78,117.26L106.84,92.24L107.49,148.62L107.58,131.55L107.61,138.57L107.67,131.77L107.94,157.14L107.97,161.55L108,161.03L108.18,168.85L108.21,165.94L108.24,171.69L108.81,135.4L109.05,151.75L109.08,153.73L109.37,162.43L109.79,117.81L109.94,142.72L109.97,151.48L110.36,176.44L110.57,134.36L110.75,164.9L110.78,144.88L110.87,137.93L111.35,184.09L111.38,175.52L111.41,139.96L111.79,202.74L112.06,110.05L112.15,152.69L112.18,147.22L112.33,108.87L112.69,167.14L112.87,151.72L112.9,167.4L113.47,116.94L113.65,142.5L113.68,140.55L114.24,197.95L114.45,169.71L114.48,170.39L114.66,174.72L114.93,150.9L114.96,150.24L115.05,153.18L115.8,110.06L115.89,129.76L115.92,129.34L115.98,103.94L116.72,164.43L116.81,148.53L116.84,145.82L117.11,149.23L117.23,127.12L117.59,144.82L117.62,157.75L117.77,150.22L118.19,172.46L118.27,155.34L118.3,129.05L118.6,122.47L118.84,166.59L119.14,155.68L119.17,153.99L119.35,165.56L119.38,128.8L119.47,128.3L120.4,201.71L120.43,201.4L120.46,187.36L120.54,176.91L120.6,191.03L120.63,123.01L120.66,123.79L120.69,160.06L120.75,173.68L120.84,124.75L120.87,115.22L121.68,174.89L121.71,162.76L122.13,176.99L122.25,146.23L122.49,166.27L122.52,153.89L122.61,148.14L122.84,195L123.38,173.99L123.41,170.83L124.31,123.46L124.46,135.48L124.49,139.7L124.88,146.56L124.94,125.59L125.08,140.62L125.11,149.11L125.14,147.52L125.44,168.82L125.5,162.37L125.53,168.84L125.59,169.83L126.4,144.61L126.49,151.73L126.52,159.43L126.76,166.18L127,122.02L127.32,143.22L127.35,156.73L127.98,153.38L128.22,182.07L128.25,181.02L128.31,174.77L128.34,155.47L128.52,119.02L129.18,203.92L129.21,194.36L129.45,103.75L129.98,149.02L130.01,161.1L130.13,154.87L130.79,194.91L130.82,193.52L130.85,166.07L131.12,150.04L131.54,197.58L131.66,192.41L131.69,192.82L131.72,194.39L132.1,176.14L132.13,170.25L132.46,140.14L132.91,154.86L132.94,160.05L133.51,128.03L133.66,153.69L133.69,157.41L133.72,157.1L133.75,161.82L133.84,161.21L133.87,164.81L134.13,180L134.34,154.87L134.61,155.02L134.64,162.97L134.97,154.9L135.12,171.38L135.15,170.87L135.18,174.8L135.39,180.03L135.54,139.71L135.57,141.9L135.6,116.07L136.49,180.5L136.52,183.35L136.76,158.16L136.82,190.33L136.85,194.86L137.42,203.71L137.45,192.09L137.48,162.69L137.6,199.81L138.08,117.12L138.2,156.45L138.23,142.5L138.38,128.91L138.85,191.44L139.06,174.92L139.09,164.97L139.39,197.52L139.63,142.67L139.78,164.59L139.81,157.44L140.14,198.11L140.65,183.56L140.68,181.57L141.6,129.31L141.63,143.38L142.14,119.63L142.47,163.62L142.5,139.53L142.74,176.24L143.3,165.51L143.33,170.69L143.81,175.63L144.11,149.14L144.14,149.21L144.17,156.32L144.23,142.58L144.62,170.41L144.65,169.67L144.68,177.39L144.71,177.21L144.74,171.85L145.22,156.66L145.51,185.6L145.54,169.85L146.05,202.39L146.29,187.64L146.32,178.97L146.38,191.41L146.74,122.76L147.04,177.8L147.07,174.8L147.52,203.71L147.78,170.57L147.84,200.23L147.87,195.54L148.23,178.85L148.65,206.18L148.68,205.9L148.71,205.57L149.01,201.86L149.22,203.69L150.56,204.7L151.28,195.65L151.31,199.23L151.34,200.28L151.46,198.89L151.85,203.17L152.14,201.24L152.17,198.85L152.2,203.22L152.74,184.1L152.86,191.55L152.89,188.51L152.95,186.85L153.73,202.73L153.76,201.25L154.09,204.68L154.21,189.35L154.5,199.68L154.53,202.89L154.95,206.86L155.04,188.68L155.28,202.83L155.31,203.84L155.52,206.94L155.67,181.11L156.06,205.96L156.09,206.43L156.21,204.9L156.36,206.62L156.59,206.43L156.62,195.42L157.01,138.43L157.4,159.31L157.43,164.93L157.55,155.06L157.97,198.28L158.03,197.17L158.06,194.96L158.18,195.94L158.24,193.77L158.27,192.21L158.39,195.82L158.78,174.76L158.81,171.25L159.25,162.76L159.73,197.57L159.76,196.37L159.88,168.28L160.15,197.03L160.33,193.64L160.36,195.32L160.54,197.49L161.37,172.13L161.55,182.11L161.58,185.07L162.03,176.39L162.3,194.05L162.36,190.77L162.39,181.87L162.48,175.13L163.14,196.06L163.17,192.47L163.2,177.02L163.52,202.26L163.82,142.13L163.88,163.44L163.91,154.03L164.33,193.82L164.69,187.93L164.72,183.72L165.17,192.66L165.5,162.23L165.53,165.18L165.91,188.84L166.27,179.62L166.3,168.91L166.66,67.33L166.69,11L167.47,116.42L167.5,114.15L167.53,66.68L168.27,157.18L168.36,153.36L168.39,157.39L168.45,160.86L169.02,131.98L169.17,152.65L169.2,150.42L169.47,141.89L169.59,155.85L169.8,147.95L169.83,128.15L170.01,123.66L170.57,161.96L170.6,160.89L170.63,148.72L170.99,142.25L171.41,179.17L171.44,177.67L171.47,171.59L171.62,165.58L171.83,196.1L171.86,196.46L172.01,198.06L172.07,181.34L172.16,195.96L172.19,172.23L172.45,96.36L172.66,173.43L172.78,160.14L172.81,174.58L172.99,153.68L173.26,186.85L173.56,169.24L173.59,184.64L173.8,191.39L174.13,146.29L174.4,168.32L174.43,183.76L174.49,192.59L175.05,165.56L175.08,166.67L175.11,159.27L175.14,160.08L175.32,145.59L175.35,140.48L175.41,143.86L175.65,120.66L176.16,134.93L176.19,135.43L176.55,127.16L176.82,140.38L176.85,143.21L176.96,151.95L177.11,134.92L177.59,146.81L177.62,134.29L178.4,170.5L178.43,142.15L178.52,116.24L179.2,177.49L179.23,158.04L179.56,185.12L179.59,148.21L180.01,180.42L180.04,179.21L180.22,150.7L180.64,200.34L180.76,172.77L180.79,195.96L180.82,202.49L181.06,112.55L181.36,174.07L181.38,149.11L181.89,187.21L182.16,178.13L182.19,161.19L182.43,195.03L182.73,143.6L182.94,172.57L182.97,174.98L183.33,188.15L183.71,154.17L183.77,155.5L183.8,151.82L184.61,124.56L184.64,132.58L184.7,143.82L185.27,122.37L185.39,134.1L185.42,134.74L185.51,125.75L185.75,167.57L186.19,157.9L186.22,144.29L187,164.94L187.03,146.49L187.21,104.29L187.78,178.12L187.81,177.27L187.84,160.23L188.16,182.99L188.19,152.4L188.64,181.06L188.67,175.93L188.7,176.32L188.73,168.14L188.76,183.52L188.79,183.04L188.82,152.09L189.24,199.42L189.48,121.57L189.57,154.41L189.6,154.84L189.75,112.67L189.96,173.12L190.11,168L190.14,174.3L190.2,153.76L190.58,188.54L190.85,157.71L190.88,172.21L190.97,195.62L191.42,134.04L191.63,180.71L191.66,184.02L191.69,186.89L191.84,167.81L192.23,168.5L192.26,167.83L193.09,107.98L193.21,117.5L193.24,131.97L193.75,124.66L193.99,144.14L194.02,138.36L194.05,141.29L194.11,123.81L194.44,163.95L194.8,154.2L194.83,141.05L195.6,168.75L195.63,146.22L195.75,133.23L196.32,171.48L196.41,160.18L196.44,139.55L196.8,134.38L197.13,179.86L197.24,178.49L197.27,176.95L197.33,171.37L197.36,184.68L198.02,201.58L198.05,122.27L198.14,160.85L198.17,166.3L198.29,125.86L198.92,192.63L198.95,164.62L199.39,159.91L199.63,193.07L199.66,159.09L199.93,149.54L200.35,190.75L200.53,187.76L200.56,182.95L200.71,189.11L200.98,156.57L201.01,154.21L201.07,155.42L201.69,121.1L201.9,135.15L201.93,137.78L201.96,138.36L202.08,127.1L202.14,132.12L202.17,121.56L202.29,119.91L202.95,174.39L203.19,157.65L203.22,155.74L203.43,147.38L204.02,167.77L204.05,165.83L204.08,162.84L204.2,172.48L204.41,138.48L204.8,161.3L204.83,151.13L204.98,185.22L205.61,179.79L205.64,183.79L205.73,187.57L205.76,146.3L206.5,199.6L206.53,173.74L206.56,161.99L206.62,189.57L206.89,115.37L207.34,188.89L207.37,182.72L207.91,167.88L208.21,199.05L208.24,197.68L208.33,201.04L208.44,169.38L208.98,200.5L209.01,202.31L209.1,204.4L209.19,202.17L209.22,191.46L209.25,186.29L209.46,197.06L209.97,189.82L210,190.02L210.03,190.75L210.15,183.73L210.39,186.53L210.42,179.02L210.95,164.53L211.19,188.74L211.22,188.17L211.25,188.05L211.46,191.37L211.49,182.32L211.52,178.7L212.3,191.96L212.33,191.11L212.95,164.55L213.16,182.31L213.19,182.66L213.28,180.63L213.46,187.57L213.49,192.57L213.88,195.59L214.06,175.62L214.24,184.27L214.27,196.21L214.36,180.65L214.45,193.13L214.48,195.17L214.72,188.2L214.87,201.83L214.96,200.31L214.99,188.19L215.25,186.9L215.76,206.09L215.79,202.96L216,182.39L216.39,205.68L216.42,203.58L216.45,204.72L216.66,204.33L216.75,206.32L216.81,206.27L216.84,197.55L217.23,155.49L217.67,161.83L217.7,162.27L217.79,153.66L218.33,195.49L218.75,185.51L218.78,181.98L218.87,184.72L218.96,172.49L218.99,172.8L219.02,161.5L220.06,195.84L220.09,182.82L220.15,168.56L220.75,196.32L220.9,195.5L220.93,195.83L221.59,160L221.74,180.61L221.77,182.26L221.83,173.49L222.51,193.74L222.57,193.31L222.6,189.05L222.63,184.25L223.11,199.09L223.32,190.84L223.35,196.88L223.47,201.99L223.86,177.66L223.89,172.17L224.04,142.24L224.54,190.61L224.57,180.02L224.6,169L224.69,195.2L225.02,155.39L225.35,183.82L225.38,188.17L225.44,198.45L225.74,158.82L226.13,192.44L226.16,191.93L226.34,191.95L226.78,149.09L226.81,142.77L227.08,101.24L227.62,103.31L227.65,129.4L227.8,124.8L227.83,138.63L227.95,137.64L227.98,120.99L228.67,166.29L228.84,161.55L228.87,155.36L228.9,157.09L229.08,145.72L229.2,153.43L229.23,132.02L229.92,167.33L230.01,166.27L230.04,152.71L230.22,122.78L230.79,181.05L230.82,178.39L230.85,161.36L231.14,185.19L231.2,152.28L231.62,180.02L231.65,178.39L231.92,160.41L232.25,200.81L232.34,193.63L232.37,195.99L232.73,122.17L233.06,167.92L233.09,172.24L233.2,151.78L233.32,192.02L233.86,188.45L233.89,172.01L234.04,190.54L234.25,131.02L234.67,184.41L234.7,185.95L234.76,184.81L234.79,176.03L235.06,182.46L235.86,107.59L236.16,126.42L236.19,135.34L236.22,114.28L236.82,144.23L236.91,143.61L236.94,137.65L237.27,162.14L237.66,131.94L237.68,134.98L237.71,128.5L237.83,122.91L238.46,163.15L238.52,157.32L238.55,157.5L238.73,133.06L239.33,170.75L239.36,175.29L239.39,177.33L239.45,156.92L239.78,165.34L239.81,138.18L239.9,137.72L240.76,195.02L240.82,194.54L240.85,195.4L241.03,201.06L241.27,100.75L241.63,173.3L241.66,171.53L241.93,193.8L242.22,159.97L242.37,173.38L242.4,158.22L242.58,193.83L242.67,143.78L243.15,170.86L243.18,173.61L243.3,191.87L243.9,171.65L243.93,165.46L244.67,130.33L244.88,137.73L244.91,147.59L245.15,151.42L245.24,130.97L245.6,147.91L245.63,150.97L245.72,143.42L245.87,160.37L246.11,155.21L246.14,147.26L246.17,144.86L246.5,167.31L246.68,162.08L246.7,162.67L246.79,145.58L246.94,165.65L247.21,164.47L247.24,147.68L247.42,142.68L247.99,179.74L248.11,176.02L248.14,164.93L248.41,149.19L248.71,184.07L248.92,173.56L248.94,172.83L249.03,162.24L249.6,202.97L249.63,201.84L249.66,136.93L249.93,106.44L250.17,172.03L250.23,165.76L250.26,172.06L250.41,159.93L250.53,185.57L250.98,168.71L251.01,163.27L251.21,192.4L251.27,143.28L251.78,180.33L251.81,181.08L251.9,195.92L252.35,173.95L252.5,175.71L252.53,168.54L253.07,135.2L253.45,141.57L253.48,148.95L253.72,154.33L253.81,128.1L254.2,149.7L254.23,148.7L254.32,137.82L254.56,174.97L255.01,159.06L255.04,149.2L255.4,148.96L255.78,173.84L255.81,171.4L255.84,158.4L255.9,161.91L255.96,138.54L255.99,139.02L256.02,120.87L256.8,183.53L256.98,182.64L257.01,150.22L257.85,196.96L257.88,200.59L258.17,168.39L258.23,189.56L258.26,130.31L258.32,161.79L258.35,160.59L258.38,170.99L258.47,111.56L258.77,182.46L258.89,173.29L258.92,176.4L259.13,193.92L259.16,161.21L259.67,190.17L259.7,179.16L259.82,194.02L259.91,139.4L260.5,192.24L260.53,188.89L260.77,185.24L260.89,191.05L260.92,188.99L260.95,178.2L261.01,184.11L261.49,142.62L261.52,148.4L261.55,149.15L261.67,127.61L262.24,154.37L262.27,151.89L262.3,149.71L262.39,139.11L262.77,156.08L262.8,157.73L262.83,157.13L262.86,161.97L262.89,161.4L262.92,143.04L263.07,178.69L263.7,162.36L263.73,162.89L264,155.18L264.36,171.28L264.39,173.27L264.42,172.94L264.45,153.88L264.74,136.99L265.19,179.34L265.31,174.89L265.34,167.63L265.52,181.22L265.58,179.36L265.61,152.5L266.42,195.05L266.45,197.65L266.69,186.13L266.72,200.99L266.75,177.98L266.84,190.15L267.1,116.24L267.49,168.92L267.52,176.84L268.12,168.08L268.33,195.72L268.36,197.03L268.45,175.15L268.48,155.78L268.51,155.23L268.54,172.68L269.25,204.34L269.4,201.27L269.43,187.49L269.46,182.41L269.67,197.84L270.15,191.87L270.18,191.95L271.05,161.37L271.08,161.58L271.11,180.59L271.7,180.19L271.94,192.79L271.97,191.78L272.06,188.67L272.36,194.14L272.72,191.96L272.75,189.32L272.84,190.14L273.38,165.4L273.53,183.91L273.56,186.64L273.85,184.66L274.09,194.12L274.12,194.79L274.24,182.1L274.51,197.6L274.54,195.65L274.57,179.42L274.6,177.56L274.96,199.61L274.99,200.48L275.08,201.87L275.47,188.39L275.71,200.73L275.74,202.36L276.27,206.84L276.3,193.36L276.42,197.72L276.45,193.51L276.87,208.96L277.44,126.05L277.47,149.93L277.5,160.56L277.56,180.79L277.65,148.17L278.1,164.6L278.13,171.51L278.81,192.23L278.9,181.02L278.93,180.24L279.23,164.3L279.62,186.87L279.65,169.93L279.68,169.47L279.71,180.84L280.04,156.94L280.28,194.03L280.48,190.25L280.51,191.17L280.96,196.87L281.26,194.58L281.29,195.45L281.35,189.39L281.38,181.9L281.59,193.12L281.77,166.63L282.13,183.72L282.16,183.52L282.46,174.76L282.7,194.06L282.73,193.27L282.75,194.25L282.9,172.11L283.05,194.51L283.26,192.12L283.29,193.92L283.62,176.52L283.86,202.75L283.95,193.96L283.98,203.09L284.25,137.37L284.37,175.33L284.4,187.36L284.91,193.14L285.02,158.93L285.23,159.59L285.26,167.03L285.5,160.47L285.62,195.37L285.95,165.58L285.98,164.57L286.04,163.72L286.31,198.07L286.82,179.65L286.85,177.97L287.53,110.42L287.86,123.4L287.89,133.05L287.95,133.57L288.01,112.82L288.31,123.98L288.34,126.57L288.4,120.14L288.82,168.6L288.85,166.3L288.88,164.88L288.97,169.24L289.45,134.93L289.65,155.67L289.68,157.72L290.22,169.49L290.25,140.72L290.28,139.71L290.43,118.1L291.12,178.87L291.15,178.62L291.18,183.33L291.45,146.64L291.86,179.78L291.89,145.66L291.95,176.18L291.98,184.89L292.34,200.43L292.88,109.34L293.03,140.15L293.06,147.56L293.24,144.7L293.69,183.01L293.81,162.88L293.84,160.96L294.19,195.17L294.31,121L294.52,154.07L294.55,139.68L295.12,185.3L295.45,170.03L295.48,166.86L296.14,109.3L296.46,125.16L296.49,128.84L296.79,121.25L297.21,153.09L297.3,152.52L297.33,133.15L297.48,165.98L298.05,120.04L298.08,145.15L298.11,145.09L298.14,144.41L298.23,158.89L298.26,161.24L298.55,152.27L298.79,171.4L298.82,165.42L298.85,151.93L298.91,160.18L299.03,140.26L299.06,136.36L299.75,182.66L299.9,180.54L299.93,180.59L299.96,181.85L300.02,155.33L300.08,173.21L300.11,154.27L300.65,148.49L300.91,199.1L300.94,198.35L301.03,197.23L301.12,201.71L301.15,185.64L301.21,190.64L301.48,102.7L301.81,165.61L301.84,169.72L302.02,152.43L302.29,192.07L302.59,166.07L302.62,177.12L302.83,192.93L302.89,139.55L303.36,180.56L303.39,182.48L303.48,193.74L304.32,137.99L304.35,144.46L304.38,149.71L304.68,127.36L305.01,138.09L305.04,130.01L305.9,164.04L305.93,148.77L306.11,144.73L306.71,168.31L306.77,167.66L306.8,167.84L307.25,175.18L307.46,151.66L307.49,164.93L307.52,174.28L307.72,141.47L308.2,185.99L308.26,168.54L308.29,180.19L308.41,188.56L308.62,157.59L309.01,175.57L309.04,179.91L309.25,153.99L309.58,202.58L309.78,172.93L309.81,201.57L309.9,129.88L310.26,150.83L310.29,166.61L310.32,149.88L310.71,192.32L311.04,153.99L311.07,162.77L311.4,192.26L311.49,139.54L311.82,172.34L311.85,160.95L312.11,194.84L312.62,175.08L312.65,170.89L312.68,176.27L313.1,135.6L313.22,145.22L313.25,141.99L313.64,132.25L313.85,152.82L313.94,149.31L313.97,152.58L314.18,140.51L314.47,163.53L314.71,148.1L314.74,154.79L314.92,167.68L315.25,144.61L315.46,156.61L315.49,156.04L315.79,136.96L316.03,174.26L316.21,158.99L316.24,155.12L316.36,139.04L316.89,178.17L317.1,175.04L317.13,174.38L317.22,148.15L317.67,181.58L317.82,168.75L317.85,143.48L318.42,199.95L318.48,119.13L318.63,162.59L318.66,148.27L318.69,121.82L319.34,184.21L319.37,162.09L319.4,168.78L319.64,156.44L320,185.16L320.06,165.82L320.09,133.01L320.12,128.89L320.42,171.13L320.54,165.34L320.57,179.01L320.63,170.18L320.66,180.45L321.1,178.97L321.13,171.98L321.22,176.6L321.91,117.9L322.15,128.59L322.18,136.1L322.24,122.55L322.39,139.2L322.51,136.76L322.54,142.77L322.6,123.36L322.81,144.54L322.93,141.62L322.96,142.37L323.14,127.7L323.43,169.58L323.82,159.42L323.85,154.28L324.42,171.15L324.63,164.97L324.66,141.38L324.75,134.16L325.41,184.21L325.61,181.96L325.64,181.77L325.76,186.31L325.82,154.71L325.85,164.45L325.88,182.79L326.18,164.08L326.57,193.94L326.6,190.5L326.63,188.34L327.02,199.62L327.08,143.34L327.23,161.12L327.26,136.49L327.32,111.16L327.77,187.9L327.88,184.84L327.91,191.07L327.97,178.75L328.09,196.86L328.27,186.92L328.3,172.34L328.57,198.3L328.72,159.51L328.9,188.56L328.93,194.57L329.47,204.26L329.68,185.68L329.71,194.13L329.77,184.28L329.86,195.7L330.36,190.26L330.39,190.61L330.84,166.95L331.29,176.23L331.32,176.64L331.38,172.34L331.5,182.41L331.56,178.88L331.59,190.21L331.65,192.74L331.92,179.68L332.36,192.33L332.39,191.79L332.72,193.21L333.38,158.02L333.53,174.39L333.56,180.47L333.68,170.65L334.28,192.81L334.37,191.74L334.4,186.78L334.43,172.98L334.99,198.37L335.11,195.14L335.14,193.23L335.41,183.83L335.62,203.63L335.92,202.96L335.95,202.6L336.28,186.2L336.43,205.95L336.46,205.77L336.49,183.96L336.79,205.74L337.26,200.13L337.29,178.96L337.71,158.74L337.98,179.84L338.01,176.82L338.04,181.16L338.55,142.22L338.67,192.77L338.73,192.36L338.76,191.18L338.91,188.32L339.03,193.32L339.06,192.56L339.08,180.8L339.38,180.05L339.41,187.25L339.44,172.51L339.74,169.8L340.04,190.71L340.1,187.69L340.13,163.64L340.28,195.03L341,193.45L341.03,193.25L341.5,196.34L341.98,165.72L342.13,175.93L342.16,178.43L343.12,196.39L343.15,196.69L343.21,196.76L343.33,193.99L343.36,190.3L343.8,176.43L344.04,202.69L344.13,183.43L344.16,200.73L344.19,203.33L344.28,168.35L344.43,186.59L344.46,144.33L344.79,192.25L345.33,183.28L345.36,183.86L345.54,142.93L345.83,189.82L346.16,145.8L346.19,161.46L346.25,143.6L346.55,178.87L346.82,172.29L346.85,168.96L346.91,170.79L347.72,86.1L348.1,94.91L348.13,102.07L348.49,99.04L348.91,157.75L349.06,155.29L349.09,155.79L349.24,164.86L349.66,133.4L349.84,144.06L349.87,150.6L350.23,158.23L350.64,104.07L350.79,128.49L350.82,136.48L350.91,132.29L351.21,170.96L351.6,166.72L351.63,140.49L351.75,149.31L351.78,168.86L352.2,138.16L352.47,192.07L352.5,193.87L352.79,198.91L352.82,189.62L352.85,156.73L353.18,93.48L353.63,113.59L353.66,132.01L353.69,111.21L354.17,157.76L354.38,145.62L354.41,145.51L354.53,126.98L354.59,143.48L354.62,153.99L355.03,112.73L355.15,179.45L355.24,175.54L355.27,172.14L355.36,177.9L355.6,127.8L355.84,140.7L355.87,137.05L356.65,92.3L356.74,113.18L356.77,117.42L357.01,101.16L357.36,137.97L357.42,134.91L357.45,139.65L357.66,150.35L357.72,133.01L358.08,135.32L358.11,127.39L358.59,154.45L358.92,152.84L358.95,153.06L359.04,155.43L359.78,111.16L359.81,133.62L359.87,120.94L360.17,156.3L360.29,136.98L360.32,154.88L360.59,131.11L360.8,173.21L360.83,160.11L360.86,132.72L361.16,198.31L361.49,118.35L361.63,158.23L361.66,128.94L361.69,128.4L361.72,99.86L361.75,85.17L362.32,168.72L362.35,162.13L362.98,174.55L363.16,111.4L363.19,111.14L363.31,102.85L363.7,189.18L364.11,153.08L364.14,146.25L364.23,152.19L364.98,111.98L365.01,119.94L365.07,103.02L365.16,122.89L365.19,129.96L365.61,103.83L365.85,136.17L365.94,126.31L365.97,133.67L366.44,160.88L366.8,155.61L366.83,152.82L366.86,144.33L367.16,159.75L367.58,149.58L367.61,155.4L367.73,157.19L367.85,110.63L368.24,148.7L368.27,156.92L368.83,89.37L369.01,146.61L369.04,154.84L369.28,179.26L369.37,149.31L369.43,170.66L369.46,129.85L369.85,198.8L370.12,88.86L370.21,147.09L370.24,140.05L370.3,97.39L370.92,161.34L370.98,134.75L371.01,146.15L371.13,161.13L371.52,129.35L371.7,132.17L371.73,129.34L372.06,123.11L372.33,183.23L372.57,166.79L372.6,171.19L372.66,174.24L372.92,157.24L372.95,146.94L373.1,138.88L373.13,131.18L373.16,136.09L373.67,104.52L373.79,121.76L373.82,120.08L373.85,104.21L374.42,144.25L374.54,135.24L374.57,141.73L374.81,158.65L374.93,120.36L375.31,140.7L375.34,137.27L375.46,136.71L376.06,166.35L376.21,163.41L376.24,163.36L376.48,116.46L376.96,173.2L376.99,168.09L377.08,143.39L377.76,184.66L377.79,155.47L378.09,151.93L378.48,198.94L378.57,176.77L378.6,170.15L378.66,201.52L378.9,102.12L379.32,157.32L379.35,158.94L379.44,157.44L379.73,186.87L380.09,185.22L380.12,162.02L380.21,190.6L380.3,143.28L380.9,185.96L380.93,185.17L380.99,188.13L381.08,182.34L381.11,184.96L381.14,182.06L381.17,186.35L381.65,156.69L381.68,146.37L381.71,151.56L382.03,104.46L382.33,134.18L382.36,129.56L382.51,112.87L382.72,145.71L382.96,145.24L382.99,124.47L383.59,160.82L383.77,148.55L383.8,141.59L383.89,139.88L383.92,152.18L384.04,151.32L384.07,126.68L384.66,168.67L384.84,165.09L384.87,141.45L385.05,129.71L385.59,168.67L385.65,160.87L385.68,150.69L386.01,184.63L386.45,169.57L386.48,173.55L386.69,157.15L386.99,197.21L387.17,173.55L387.2,169.05L387.26,194.62L387.56,112.27L387.92,160.99L387.95,168.44L388.34,193.66L388.66,167.77L388.78,192.08L388.81,189.87L388.9,154.23L389.5,200.09L389.53,200L389.56,199.02L389.62,195.81L389.77,200.7L389.83,199.24L389.86,192.31L389.98,170.31L390.64,184.69L390.67,187.28L391.2,172.13L391.5,172.93L391.53,172.13L391.59,169.51L392.1,190.44L392.55,188.01L392.58,188.15L393,188.83L393.03,181.25L393.32,184.69L393.35,186.72L393.44,188.11L393.59,154.28L393.77,176.2L393.8,179.48L394.28,177.98L394.61,190.77L394.64,179.94L394.67,177.47L395.15,197.44L395.18,195.87L395.21,198.25L395.27,186.05L395.86,203.66L395.95,192.03L395.98,196.89L396.4,205.16L396.49,173.63L396.64,203.34L396.67,178.21L397.42,206.25L397.45,205.27L397.48,206.57L397.6,156.36L398.28,168.67L398.31,172.74L398.58,140.02L399,194.46L399.21,192L399.24,191.79L399.27,193.41L399.69,175.74L399.75,183.76L399.78,177.55L400.22,153.01L400.49,194.1L400.58,192.67L400.61,193.24L400.7,194.95L400.73,165.34L400.94,192.97L400.97,195.63L401.27,191.49L401.78,192.18L401.81,177.06L401.87,193.26L402.19,164.75L402.55,185.37L402.58,186.13L402.64,181.01L403.21,192.39L403.27,181.79L403.3,190.99L403.33,176.4L404.02,200.11L404.05,198.11L404.29,202.14L404.35,183.07L404.46,183.84L404.49,169.3L404.67,156.95L405,195.21L405.21,179.29L405.24,162.52L405.75,152.69L405.99,197.76L406.02,196.62L406.05,192.92L406.08,197.54L406.38,156L406.76,188.26L406.79,187.45L408.26,93.1L408.35,111.52L408.38,126.15L408.62,95.61L409,142.6L409.03,136.68L409.06,145.98L409.15,142.57L409.39,164.63L409.78,144.81L409.81,137.13L409.87,130.55L410.44,160.51L410.65,159.22L410.68,140.87L410.74,165.16L411.04,118.78L411.42,158.63L411.45,142.37L411.48,112.01L412.17,160.51L412.2,123.17L412.23,153.8L412.53,118.59L413.07,196.34L413.1,172.78L413.13,149.16L413.22,162.47L413.66,68.26L413.9,125.37L413.93,123.8L414.02,122.45L414.59,181.64L414.68,169.87L414.71,142.01L414.74,100.41L415.43,171.65L415.46,171.64L415.66,179.21L416.86,104.04L416.89,120.25L416.92,129.25L417.04,120.98L417.1,139.5L417.58,137.98L417.61,147.85L417.73,156L417.76,127.05L417.9,149.85L417.93,108.54L418.71,160.28L418.74,156.03L418.77,156.06L418.83,141.09L419.04,164.6L419.22,161.46L419.25,164.06L419.37,132.63L419.97,168.8L420,173.64L420.09,160.99L420.38,180.92L420.41,180.72L420.44,140.95L420.47,140.54L420.5,145.81L420.53,164.35L420.62,155.79L421.49,198.68L421.52,183.35L421.64,191.49L421.91,105.9L421.94,108.75L422.56,184.91L422.83,174.71L422.86,164.41L423.34,137.2L423.52,191.63L423.55,176.41L423.58,145.55L423.97,196.09L424.36,183.61L424.39,172.63L424.48,175.86L424.68,155.48L424.71,156.2L424.74,147.95L425.13,119.55L425.25,148.5L425.52,140.73L425.55,141.02L426,132.59L426.33,161.79L426.39,161.18L426.42,166.05L427.07,133.28L427.19,151.69L427.22,150.52L427.28,138.7L427.67,163.3L427.79,159.03L427.82,163.01L427.85,165.86L428.24,142.08L428.39,150.84L428.42,125.86L428.45,126.21L428.48,145.19L428.69,137.67L429.17,184.91L429.28,181.88L429.31,176.5L429.67,139.08L429.82,190.47L429.85,187.11L429.88,192.68L430.03,198.74L430.21,165.28L430.27,188.6L430.3,123.61L430.66,94.49L431.17,180.27L431.2,153.06L431.64,149.65L431.82,186.92L431.88,172.07L431.91,132.03L432.09,180.16L432.78,176.55L432.81,170.17L432.84,169.95L432.87,175.98L433.7,91.79L433.97,114.38L434,122.42L434.33,131.54L434.45,107.83L434.57,119.74L434.6,105.04L435.11,160.92L435.47,151.47L435.5,142.47L435.65,146.22L435.68,138.87L435.71,142.95L435.74,150.34L435.8,143.92L435.83,147.2L435.86,138L436.3,163.87L436.63,155.76L436.66,144.44L437.02,133.93L437.11,161.56L437.14,166.31L437.53,181.78L437.65,131.19L437.77,177.06L437.8,177.84L438.27,154.87L438.48,193.11L438.51,194.4L438.69,196.76L438.78,177.82L438.81,160.6L438.87,196.17L439.17,110.89L439.56,180.71L439.59,171.93L439.65,145.15L439.95,189.51L440.34,153.47L440.37,178.33L440.45,188.37L440.54,127.48L441.02,174.87L441.05,162.89L441.17,187.93L441.77,161.67L441.8,154.32L441.83,157.44L442.13,126.4L442.28,130.78L442.31,128.55L442.67,99.58L442.81,147.1L443.05,127.19L443.08,114.78L443.8,170.64L443.92,159.42L443.95,158.5L444.13,161.76L444.16,152.32L444.25,157.25L444.28,143.26L444.64,131.67L445.05,163.04L445.08,149.85L445.14,155.53L445.17,142.14L445.2,101.19L445.83,181.18L445.89,164.14L445.92,173.69L446.25,157.2L446.52,184.65L446.58,183.1L446.61,168L446.94,157.9L447.29,199.54L447.38,186.2L447.41,171.95L447.47,198.54L447.77,115.46L448.16,179.6L448.19,187.02L448.55,198.42L448.76,173.45L448.91,174.45L448.94,192.97L449.15,160.45L449.74,204.82L449.77,204.38L450.19,194.27L450.4,196.9L450.79,199.52L451.66,176.54L451.69,175.25L452.25,197.86L452.61,194.76L452.64,197.21L452.85,198.2L453.06,194.44L453.21,196.75L453.24,190.07L453.54,196.42L453.81,170.34L453.95,187.78L453.98,186.81L454.13,184.43L454.7,197.7L454.73,139.49L455.15,192.41L455.24,183.1L455.27,144.06L456.05,199.47L456.08,200.05L456.11,183.59L456.58,202.81L456.82,199.88L456.85,193.92L457.6,206.32L457.63,205.99L457.66,206.08L457.99,156.16L458.02,156.2L458.05,149.87L458.2,169.22L458.58,147.15L458.61,146.14L459.09,193.29L459.48,188.23L459.51,177.22L459.87,169.27L460.17,182.5L460.26,179.76L460.29,172.68L460.59,147.39L460.91,184.91L461,166.15L461.03,179.47L461.3,178.78L461.6,188.58L461.81,188.04L461.84,186.09L461.96,189.77L462.02,176.69L462.26,186.13L462.29,173.34L462.38,171.03L463.03,190.13L463.06,187.82L463.09,172.98L463.69,193.62L463.9,191.32L463.93,191.51L464.26,181.93L464.35,201.47L464.47,197.98L464.5,200.6L464.92,137.61L465.01,169.81L465.04,190.14L465.57,193.64L465.9,155.61L465.96,156L465.99,183.68L466.41,199.12L466.56,166.49L466.62,177.44L466.65,159.87L467.19,188.71L467.37,183.74L467.4,172.31L467.43,175.61L467.75,141.3L467.78,142.46L467.81,134.7L468.17,94.04L468.53,130.35L468.56,140.59L468.65,119.81L469.22,153.1L469.25,149.29L469.28,148.09L469.61,167.66L469.99,146.77L470.02,149.64L470.05,149.75L470.08,140.44L470.68,164.7L470.74,161.72L470.77,167.95L471.07,134.18L471.49,166.38L471.52,171.12L471.94,187.26L472.05,148.75L472.23,156.86L472.26,174.36L472.41,163.21L473.01,199.86L473.1,198.36" style="vector-effect: none; fill: none; stroke: rgb(239, 85, 59); stroke-opacity: 1; stroke-width: 2px; opacity: 1;"/></g><g class="points"/><g class="text"/></g></g></g><g class="overplot"/><path class="xlines-above crisp" d="M0,0" style="fill: none;"/><path class="ylines-above crisp" d="M0,0" style="fill: none;"/><g class="overlines-above"/><g class="xaxislayer-above"><g class="x2tick"><text text-anchor="middle" x="0" y="333" transform="translate(697.55,0)" style="font-family: 'Open Sans', verdana, arial, sans-serif; font-size: 12px; fill: rgb(42, 63, 95); fill-opacity: 1; white-space: pre; opacity: 1;"><tspan class="line" dy="0em" x="0" y="333">Jan 30</tspan><tspan class="line" dy="1.3em" x="0" y="333">2022</tspan></text></g><g class="x2tick"><text text-anchor="middle" x="0" y="333" style="font-family: 'Open Sans', verdana, arial, sans-serif; font-size: 12px; fill: rgb(42, 63, 95); fill-opacity: 1; white-space: pre; opacity: 1;" transform="translate(817.98,0)">Feb 13</text></g><g class="x2tick"><text text-anchor="middle" x="0" y="333" style="font-family: 'Open Sans', verdana, arial, sans-serif; font-size: 12px; fill: rgb(42, 63, 95); fill-opacity: 1; white-space: pre; opacity: 1;" transform="translate(938.4,0)">Feb 27</text></g><g class="x2tick"><text text-anchor="middle" x="0" y="333" style="font-family: 'Open Sans', verdana, arial, sans-serif; font-size: 12px; fill: rgb(42, 63, 95); fill-opacity: 1; white-space: pre; opacity: 1;" transform="translate(1058.83,0)">Mar 13</text></g></g><g class="yaxislayer-above"><g class="y2tick"><text text-anchor="end" x="601.9" y="4.199999999999999" transform="translate(0,309.65)" style="font-family: 'Open Sans', verdana, arial, sans-serif; font-size: 12px; fill: rgb(42, 63, 95); fill-opacity: 1; white-space: pre; opacity: 1;">0</text></g><g class="y2tick"><text text-anchor="end" x="601.9" y="4.199999999999999" style="font-family: 'Open Sans', verdana, arial, sans-serif; font-size: 12px; fill: rgb(42, 63, 95); fill-opacity: 1; white-space: pre; opacity: 1;" transform="translate(0,228.84)">5k</text></g><g class="y2tick"><text text-anchor="end" x="601.9" y="4.199999999999999" style="font-family: 'Open Sans', verdana, arial, sans-serif; font-size: 12px; fill: rgb(42, 63, 95); fill-opacity: 1; white-space: pre; opacity: 1;" transform="translate(0,148.04)">10k</text></g></g><g class="overaxes-above"/></g></g><g class="polarlayer"/><g class="smithlayer"/><g class="ternarylayer"/><g class="geolayer"/><g class="funnelarealayer"/><g class="pielayer"/><g class="iciclelayer"/><g class="treemaplayer"/><g class="sunburstlayer"/><g class="glimages"/><defs id="topdefs-8644e7"><g class="clips"/><clipPath id="legend8644e7"><rect width="92" height="48" x="0" y="0"/></clipPath></defs><g class="layer-above"><g class="imagelayer"/><g class="shapelayer"/></g><g class="infolayer"><g class="legend" pointer-events="all" transform="translate(1095.92,100)"><rect class="bg" shape-rendering="crispEdges" width="92" height="48" x="0" y="0" style="stroke: rgb(68, 68, 68); stroke-opacity: 1; fill: rgb(255, 255, 255); fill-opacity: 1; stroke-width: 0px;"/><g class="scrollbox" transform="" clip-path="url(#legend8644e7)"><g class="groups"><g class="traces" transform="translate(0,14.5)" style="opacity: 1;"><text class="legendtext" text-anchor="start" x="40" y="4.680000000000001" style="font-family: 'Open Sans', verdana, arial, sans-serif; font-size: 12px; fill: rgb(42, 63, 95); fill-opacity: 1; white-space: pre;">res</text><g class="layers" style="opacity: 1;"><g class="legendfill"/><g class="legendlines"><path class="js-line" d="M5,0h30" style="fill: none; stroke: rgb(99, 110, 250); stroke-opacity: 1; stroke-width: 2px;"/></g><g class="legendsymbols"><g class="legendpoints"/></g></g><rect class="legendtoggle" x="0" y="-9.5" width="86.171875" height="19" style="fill: rgb(0, 0, 0); fill-opacity: 0;"/></g><g class="traces" transform="translate(0,33.5)" style="opacity: 1;"><text class="legendtext" text-anchor="start" x="40" y="4.680000000000001" style="font-family: 'Open Sans', verdana, arial, sans-serif; font-size: 12px; fill: rgb(42, 63, 95); fill-opacity: 1; white-space: pre;">db time</text><g class="layers" style="opacity: 1;"><g class="legendfill"/><g class="legendlines"><path class="js-line" d="M5,0h30" style="fill: none; stroke: rgb(239, 85, 59); stroke-opacity: 1; stroke-width: 2px;"/></g><g class="legendsymbols"><g class="legendpoints"/></g></g><rect class="legendtoggle" x="0" y="-9.5" width="86.171875" height="19" style="fill: rgb(0, 0, 0); fill-opacity: 0;"/></g></g></g><rect class="scrollbar" rx="20" ry="3" width="0" height="0" x="0" y="0" style="fill: rgb(128, 139, 164); fill-opacity: 1;"/></g><g class="g-gtitle"/><g class="g-xtitle"/><g class="g-x2title"/><g class="g-ytitle"/><g class="g-y2title"/></g></svg>