<svg class="main-svg" xmlns="http://www.w3.org/2000/svg" xmlns:xlink="http://www.w3.org/1999/xlink" width="1200" height="385" style="" viewBox="0 0 1200 385"><rect x="0" y="0" width="1200" height="385" style="fill: rgb(255, 255, 255); fill-opacity: 1;"/><defs id="defs-64d2d7"><g class="clips"><clipPath id="clip64d2d7xyplot" class="plotclip"><rect width="494" height="205"/></clipPath><clipPath class="axesclip" id="clip64d2d7x"><rect x="80" y="0" width="494" height="385"/></clipPath><clipPath class="axesclip" id="clip64d2d7y"><rect x="0" y="100" width="1200" height="205"/></clipPath><clipPath class="axesclip" id="clip64d2d7xy"><rect x="80" y="100" width="494" height="205"/></clipPath></g><g class="gradients"/><g class="patterns"/></defs><g class="bglayer"><rect class="bg" x="80" y="100" width="494" height="205" style="fill: rgb(229, 236, 246); fill-opacity: 1; stroke-width: 0;"/></g><g class="layer-below"><g class="imagelayer"/><g class="shapelayer"/></g><g class="cartesianlayer"><g class="subplot xy"><g class="layer-subplot"><g class="shapelayer"/><g class="imagelayer"/></g><g class="minor-gridlayer"><g class="x"/><g class="y"/></g><g class="gridlayer"><g class="x"><path class="xgrid crisp" transform="translate(178.82999999999998,0)" d="M0,100v205" style="stroke: rgb(255, 255, 255); stroke-opacity: 1; stroke-width: 1px;"/><path class="xgrid crisp" transform="translate(304.58000000000004,0)" d="M0,100v205" style="stroke: rgb(255, 255, 255); stroke-opacity: 1; stroke-width: 1px;"/><path class="xgrid crisp" transform="translate(430.32,0)" d="M0,100v205" style="stroke: rgb(255, 255, 255); stroke-opacity: 1; stroke-width: 1px;"/><path class="xgrid crisp" transform="translate(556.0699999999999,0)" d="M0,100v205" style="stroke: rgb(255, 255, 255); stroke-opacity: 1; stroke-width: 1px;"/></g><g class="y"><path class="ygrid crisp" transform="translate(0,219.7)" d="M80,0h494" style="stroke: rgb(255, 255, 255); stroke-opacity: 1; stroke-width: 1px;"/><path class="ygrid crisp" transform="translate(0,144.65)" d="M80,0h494" style="stroke: rgb(255, 255, 255); stroke-opacity: 1; stroke-width: 1px;"/></g></g><g class="zerolinelayer"><path class="yzl zl crisp" transform="translate(0,294.75)" d="M80,0h494" style="stroke: rgb(255, 255, 255); stroke-opacity: 1; stroke-width: 2px;"/></g><path class="xlines-below"/><path class="ylines-below"/><g class="overlines-below"/><g class="xaxislayer-below"/><g class="yaxislayer-below"/><g class="overaxes-below"/><g class="plot" transform="translate(80,100)" clip-path="url(#clip64d2d7xyplot)"><g class="scatterlayer mlayer"><g class="trace scatter trace6a5274" style="stroke-miterlimit: 2; opacity: 0.6;"><g class="fills"/><g class="errorbars"/><g class="lines"><path class="js-line" d="M0,194.75L17.03,194.75L17.06,10.25L17.84,194.75L17.87,194.75L40.04,194.75L40.08,10.25L40.85,194.75L40.89,194.75L48.65,194.75L48.68,10.25L49.4,194.75L49.43,10.25L49.46,10.25L50.24,194.75L50.27,194.75L173.99,194.75L174.02,10.25L174.27,10.25L174.3,194.75L174.93,10.25L175.05,194.75L175.08,194.75L363.05,194.75L363.08,10.25L363.86,194.75L363.89,194.75L377.7,194.75L377.74,10.25L378.52,194.75L378.55,194.75L385.1,194.75L385.13,10.25L385.91,194.75L385.94,194.75L386.44,194.75L386.47,10.25L387.25,194.75L387.28,194.75L431.91,194.75L431.94,10.25L432.72,194.75L432.75,194.75L494,194.75" style="vector-effect: none; fill: none; stroke: rgb(0, 204, 150); stroke-opacity: 1; stroke-width: 2px; opacity: 1;"/></g><g class="points"/><g class="text"/></g><g class="trace scatter trace97c9cb" style="stroke-miterlimit: 2; opacity: 1;"><g class="fills"/><g class="errorbars"/><g class="lines"><path class="js-line" d="M0,186.07L0.09,160.78L0.19,175.02L0.22,118.21L0.59,97.91L0.87,172.44L1.03,171.42L1.06,167.77L1.12,173.09L1.15,140.07L1.28,176.59L1.65,133.49L1.87,170.1L1.9,144.98L1.96,161.67L2.09,121.83L2.28,138.89L2.31,170.15L2.37,158.47L2.59,188.13L2.87,174.31L2.9,176.13L3.77,113.67L3.96,117.56L3.99,133.22L4.15,124.26L4.27,146.28L4.3,141.58L4.33,119.75L5.15,164.63L5.21,155.26L5.24,148.69L5.74,133.01L5.93,154.25L5.96,152.71L5.99,155.42L6.21,137.41L6.64,164.57L6.67,158.06L6.71,162.18L6.95,118.56L7.2,162.8L7.33,155.92L7.36,168.09L7.67,177.98L7.89,146.16L8.05,170L8.08,163.41L8.48,159.25L8.89,186.95L8.92,186.49L9.01,173.65L9.04,188.94L9.08,179.9L9.11,160.47L9.14,189.58L9.51,100.48L9.82,138.74L9.86,153.85L9.98,140.13L10.29,177.34L10.6,158.65L10.63,144.46L10.82,176.29L11.1,129.37L11.45,174.82L11.48,181.64L11.51,187.27L12.01,160.95L12.13,164.55L12.16,159.18L12.76,122.04L13.04,135.09L13.07,139.11L13.38,147.43L13.5,121.86L13.54,123.79L13.57,119.81L13.69,118.36L13.75,136.65L13.82,130.98L13.85,137.67L14.07,130.69L14.31,165.94L14.6,153.09L14.63,142.93L14.81,134.68L14.88,151.24L15,150.5L15.03,154.2L15.53,160.73L15.84,103.85L16,126.56L16.03,139.31L16.12,127.66L16.81,165.75L16.84,163.94L16.87,138.52L17.06,75.18L17.75,186L17.78,185.61L18.09,157.56L18.12,188.11L18.15,181.88L18.18,121.65L18.46,102.92L18.99,169.23L19.02,159.92L19.12,143.58L19.3,168.43L19.65,165.1L19.68,146.74L19.83,172.75L20.02,110.44L20.46,165.43L20.49,171.01L20.74,178.67L21.14,161.13L21.18,157.6L22.14,109.52L22.17,124.84L22.42,121.04L23.02,144.36L23.05,115.92L23.3,164.09L23.83,153.72L23.86,155.66L24.17,136.45L24.42,157.93L24.54,156.47L24.58,164.04L24.73,110.33L24.79,120.97L24.82,101.57L24.86,91.43L25.17,157.23L25.29,151.07L25.32,166.01L25.7,175.83L25.85,149.78L25.89,141.45L26.04,91.15L26.17,178.96L26.66,175.59L26.7,175.55L27.01,187.71L27.16,123.09L27.32,154.38L27.35,138.08L27.38,105.3L28.04,170.14L28.07,173.38L28.57,150.01L28.72,185.63L28.79,181.85L28.82,180.54L29,149.38L29.47,190.97L29.53,189.2L29.57,188.77L29.72,189.92L29.81,187.73L29.85,176.37L30.19,185.42L30.56,182.71L30.59,177.45L30.66,178.69L30.75,156.23L31.34,175.28L31.37,174.16L31.65,171.28L31.97,181.33L32.18,181.12L32.22,175.11L33,182.03L33.03,181.16L33.06,181.23L33.18,182.35L33.62,171.51L33.68,171.76L33.71,154.32L33.78,150.14L34.06,176.57L34.31,171.67L34.34,175.34L34.52,173.8L34.77,182.21L34.8,179.36L34.84,167.97L35.02,119.11L35.74,189.25L35.77,188.54L35.86,183.25L36.08,189.49L36.11,189.09L36.15,173.9L36.58,191.69L36.74,165.27L36.86,178.63L36.89,169.06L36.96,160.05L37.3,193.93L37.33,193.59L37.55,193.84L37.89,163.77L37.92,155.16L37.99,170.87L38.2,135.61L38.64,148.68L38.67,146.33L38.7,137.21L39.26,174.84L39.3,184.24L40.04,115.04L40.08,28.29L40.79,170.36L40.85,144.8L40.89,149.31L41.88,185.02L41.92,184.52L42.01,184.97L42.88,161.48L42.91,168.73L42.94,173.86L43.04,165.48L43.76,184.32L43.79,180.09L44,168.92L44.1,184.67L44.57,170.63L44.6,171.87L44.72,189.53L45.13,153.88L45.19,155.78L45.22,157.6L45.31,138.95L45.84,177.63L46,177.39L46.03,175.71L46.06,151.52L46.75,183.25L46.78,180.24L47.19,151.33L47.5,183L47.53,184.85L48.68,81.18L48.81,109.26L48.84,111.62L49.34,114.25L49.43,77.63L49.56,107.9L49.59,126.44L49.62,115.37L50.12,159.73L50.24,156.27L50.27,157.64L50.3,159.75L50.65,141.35L50.71,145.57L50.74,130.29L51.12,129.66L51.52,159.25L51.55,157.45L51.77,93.99L52.27,166.15L52.3,167.97L52.36,174.53L52.8,145.28L52.96,165.12L52.99,148.82L53.45,144.44L53.8,187.74L53.83,187.8L53.89,186.68L53.92,168.04L53.95,186.26L54.39,99.18L54.64,150.31L54.67,128.25L55.17,174.74L55.45,147.21L55.48,149.18L55.73,174.98L56.23,123.97L56.26,142.67L56.29,142.5L56.32,151.2L56.35,149.31L56.57,171.84L56.73,169.22L56.76,173.45L57.66,95.81L58.04,112.64L58.07,125.22L58.41,112.26L58.91,150.67L58.94,142.73L58.97,124.01L59.16,123.19L59.75,151.23L59.79,151.07L59.82,148.53L60.1,141.41L60.32,158.41L60.35,159.05L60.47,161.22L60.85,94.44L61.06,136.92L61.1,148.28L61.19,132.56L61.34,171.8L61.59,165.61L61.63,167.42L61.78,138.24L62.09,177.59L62.22,167.43L62.25,169.54L62.4,156.62L62.5,174.15L62.53,178.99L62.94,187.85L63,166.26L63.06,172.23L63.09,114.68L63.34,105.03L63.9,162.69L63.93,155.88L64.31,140.66L64.74,177.47L64.78,152.06L65.06,132.58L65.46,183.4L65.59,175.86L65.62,178.07L65.68,182.18L66.15,155.05L66.18,151.89L66.24,153.22L66.68,125.1L66.96,135.18L66.99,134.5L67.27,143.42L67.39,124.69L67.71,137.96L67.74,139.69L67.89,139.21L67.93,144.72L67.96,116.66L68.21,162.89L68.8,153.78L68.83,152.18L69.39,160.64L69.55,139.98L69.58,141.64L69.61,149.37L69.77,102.62L70.3,163.69L70.33,171.83L70.76,130.56L70.98,168.89L71.01,173.17L71.07,178.21L71.14,158.67L71.45,158.83L71.48,149.91L71.7,188.57L72.07,114.03L72.23,150.7L72.26,97.89L73.16,178.23L73.2,175.68L73.69,177.29L73.94,132.99L73.98,142.11L74.01,143.5L74.04,132.18L74.44,183.82L74.69,169.08L74.72,170.03L74.75,172.04L75.07,145L75.1,148.49L75.13,146.32L75.63,107.58L75.69,125.67L75.72,133.21L75.78,140.42L75.82,128.86L75.85,139.33L75.88,122.02L76,113.48L76.66,145.34L76.69,145.13L76.72,142.93L76.94,134.12L77,154.23L77.37,150.21L77.41,142.35L77.69,121.92L77.78,148.97L78.15,143.64L78.19,135.97L78.47,164.67L78.81,125.94L78.97,150.17L79,136.79L79.31,174.08L79.74,141.02L79.78,135.59L80.52,178.99L80.56,178.13L80.59,178.76L80.74,189.03L81.05,114.64L81.21,164.12L81.24,135.29L81.3,122.36L81.34,104.18L81.96,181.64L82.21,156.94L82.24,152.83L82.86,171.45L82.96,109.23L83.02,117.48L83.05,136.89L83.11,123.85L83.42,182.85L83.96,166.81L83.99,164.55L84.64,105.36L84.83,120.45L84.86,124.77L85.11,142.84L85.23,121.16L85.51,125.02L85.55,104.23L86.26,156.96L86.36,149.54L86.39,151.48L86.42,155.99L86.67,133.6L87.1,150.65L87.14,141.68L87.48,163.21L87.6,123.24L87.85,135.67L87.88,139.16L88.41,173.95L88.45,124.98L88.7,161.31L88.73,113.62L89.54,176.14L89.57,174.15L89.72,187.3L90.04,127.56L90.16,160.91L90.19,147.91L90.25,94.23L90.57,157.49L90.85,152.22L90.88,161.7L91.53,135.03L91.63,176.75L91.66,176.51L91.69,174.74L91.94,127.11L92.38,188.56L92.41,189.57L92.56,190.81L92.72,183.22L92.75,170.8L92.87,178.49L93.09,162.91L93.47,168.32L93.5,166.46L93.53,169.1L93.69,145.91L94.18,162.4L94.22,160.8L94.28,161.91L94.34,138.94L94.43,143.61L94.47,108.42L95.34,185.24L95.37,185.84L95.65,183.29L95.93,186.95L96.15,186.21L96.18,184.93L96.34,186.08L96.62,176.92L96.9,184.97L96.93,184.97L98.02,190.2L98.05,188.53L98.08,187.05L98.15,189.69L98.99,186.15L99.02,170.57L99.7,193.48L99.74,193.16L99.77,192.75L100.11,194.14L100.14,178.7L100.58,192.37L101.05,124.64L101.08,124.8L101.11,129.42L101.54,106.85L102.14,185.08L102.23,183.75L102.26,183.52L102.39,183.08L102.45,186.99L102.54,186.09L102.57,175.85L103.01,165.21L103.17,183.34L103.38,180.72L103.42,166.67L103.7,160.18L104.01,187.28L104.2,184.57L104.23,185.3L104.69,186.75L104.82,180.19L104.94,186.28L104.98,185.96L105.35,187.51L105.57,172.71L105.79,179.18L105.82,184.5L105.94,177.67L106.19,186.98L106.28,186.43L106.32,178.65L106.91,189.85L107.1,187.22L107.13,188.35L107.44,184.15L107.59,191.26L107.78,190.75L107.81,180.86L107.97,191.07L108.22,160.41L108.5,185.93L108.53,186.49L109.22,160.67L109.28,165.64L109.31,180.08L109.65,188.14L109.96,167.65L110.03,181.5L110.06,169.01L110.12,181.55L110.71,167.66L110.78,169.09L110.81,152.82L110.87,165.13L111.37,100.18L111.43,114.22L111.46,113.32L111.56,85.7L112.02,127.85L112.05,129.21L112.12,120.27L112.18,123.98L112.21,130.85L112.3,118.43L113.02,159.5L113.05,152.22L113.11,158.96L113.46,133.32L113.58,139.21L113.61,125.79L114.21,150.89L114.39,148.6L114.42,141.65L114.64,109.45L114.89,152.53L115.11,150.29L115.14,163.15L115.24,163.9L115.45,124.82L115.89,155.97L115.92,161.02L116.33,130.02L116.45,176.72L116.51,173.52L116.55,174.63L116.73,188.33L116.98,136.33L117.01,102.24L117.29,101.15L117.67,155.27L117.79,146.23L117.82,124.01L117.89,155.51L118.48,108.64L118.63,153.18L118.67,132.38L118.7,130.57L118.82,168.06L119.1,148.34L119.13,151.35L119.2,152.35L119.23,144.78L119.26,182.86L119.29,183.88L119.45,168.42L119.48,162.76L120.35,112.36L120.44,123.92L120.47,122.07L120.51,125.97L120.91,102.25L121.07,123.27L121.1,96.57L121.88,152.75L121.91,152.55L121.94,149.44L122.41,118.1L122.72,137.65L122.75,135.17L122.78,134.54L122.81,146.54L122.85,149.7L122.97,139.56L123.38,158.65L123.41,160.21L123.84,113.78L124.19,130.58L124.22,138.72L124.75,119.19L124.97,155.33L125,154.15L125.03,135.31L125.71,187.38L125.84,165.41L125.87,164.34L125.93,177.46L126.21,107.04L126.49,143.1L126.53,123.58L126.56,116.54L127.06,162.47L127.18,141.11L127.21,142.82L127.52,164.41L127.65,135.85L127.99,147.91L128.02,137.62L128.27,181.14L128.83,161.62L128.86,158.7L129.8,114.7L129.92,120.94L129.96,125.86L130.45,116.67L130.86,155.37L130.92,153.84L130.95,147.82L131.14,157.77L131.58,135.78L131.67,142.7L131.7,139.04L131.98,134.34L132.2,150.72L132.26,147.53L132.29,152.82L132.36,154.37L132.61,113.36L132.82,135.95L132.86,138.16L132.89,128.76L133.51,165.95L133.54,164.33L133.6,163.32L133.64,142.48L134.2,110.58L134.45,174.34L134.48,169.58L134.88,189.42L134.95,126.79L135.1,160.89L135.13,128.56L135.16,96.39L135.63,173.65L135.82,159.44L135.85,164.72L135.88,143.87L136.57,181.06L136.6,179.76L136.91,139.39L137.25,182.09L137.32,181.26L137.35,183.54L138.31,130.19L138.34,137.13L138.38,145.93L138.41,149.38L138.91,127.7L139.03,147.27L139.06,137.44L139.19,139.76L139.25,128.27L139.37,134.09L139.41,118.95L140.06,167.21L140.34,150.66L140.37,150.25L140.5,156.05L140.93,143.89L141.03,149.68L141.06,157.08L141.37,167.24L141.4,148.6L141.46,153.03L141.49,134.19L141.59,107.84L141.81,154.34L141.9,151.37L141.93,159.31L142.09,146.52L142.52,167.68L142.56,170.32L142.8,146.92L142.87,176.81L142.9,181.01L143.49,189.23L143.52,178.44L143.55,151.13L143.68,185.6L144.18,108.81L144.27,145.65L144.3,145.34L144.49,119.76L144.93,170.77L144.96,169.7L144.99,177.83L145.14,147.19L145.46,176.68L145.49,179.71L145.55,183.48L145.77,147.92L145.8,132.54L146.33,184.03L146.67,179.65L146.7,177.74L147.55,124.18L147.61,131.86L147.64,134.36L148.08,147.22L148.42,111.14L148.45,111.4L149.04,163.72L149.26,150.18L149.29,149.93L149.35,143.98L149.67,158.57L150.07,156.65L150.1,153.41L150.16,163.15L150.6,132.45L150.82,153.19L150.85,144.25L151.51,171.42L151.6,145.63L151.63,145.54L152.38,182.15L152.41,177.84L152.44,170.97L152.5,188L152.91,130.79L153.07,159.19L153.1,132.61L153.19,124.88L153.22,114.05L154.03,189.23L154.06,175.52L154.09,174.65L154.31,158.45L154.53,187.07L154.87,168.85L154.91,175.02L155.22,191.53L155.72,187.82L155.75,188.72L155.81,189.22L157.21,190.15L157.96,181.74L157.99,185.07L158.02,186.04L158.15,184.75L158.55,188.73L158.83,188.56L158.87,186.93L158.93,188.77L159.49,171.02L159.71,173.57L159.74,179.33L160.52,188.32L160.55,186.94L160.89,190.13L161.02,175.89L161.24,187.52L161.27,189.29L161.8,192.15L161.89,175.27L162.02,188.76L162.05,188.09L162.39,192.23L162.55,168.24L162.76,190.6L162.8,190.86L163.11,190.33L163.26,191.93L163.42,191.54L163.45,191.76L163.58,174.28L163.61,150.28L163.73,172.32L163.95,128.6L164.17,142.5L164.2,142.1L164.95,184.19L165.42,179.47L165.45,171.37L165.48,171.71L165.54,165.62L165.57,174.72L165.7,175.45L165.73,170.03L165.76,163.98L166.13,177.44L166.29,151.2L166.32,171.77L166.35,172.24L166.54,151.44L166.79,183.53L167.07,179.76L167.1,179.59L167.32,176.18L167.63,183.45L167.82,182.76L167.85,180.15L167.97,182.2L168.5,159.9L168.72,171.92L168.75,174.37L169.06,178.37L169.19,163.85L169.41,175.24L169.44,178.87L169.47,180.26L169.66,162.69L169.91,174.42L169.94,165.66L170.41,164.44L170.56,187.36L170.69,177.88L170.72,171.09L170.75,187.88L171.06,132.04L171.43,159.48L171.47,164.07L171.5,163.59L171.53,170.73L171.56,178.46L171.59,180.04L171.81,152.8L172,170.67L172.03,161.03L172.31,151.82L172.46,178.97L172.68,164.11L172.71,173.31L172.81,150.71L173.24,175.42L173.46,169L173.49,168.63L173.59,171.28L173.8,142.52L173.84,139.87L174.05,10.25L174.68,51.63L174.71,89.11L174.93,61.96L175.71,146.02L175.74,133.46L175.89,149.43L176.33,127.75L176.46,133.35L176.49,122.61L177.08,144.78L177.27,143.22L177.3,137.44L177.52,114.88L178.01,148.2L178.05,144.67L178.48,159.1L178.54,132.15L178.61,147.22L178.64,132.92L179.48,183.69L179.51,182.98L179.61,183.99L179.64,182.55L179.67,168.45L179.76,182.03L180.07,89.53L180.38,156.11L180.42,148.76L180.63,142.76L180.92,173.57L181.16,146.62L181.2,158.42L181.23,157.22L181.45,175.4L181.48,177.79L181.82,135.9L182.1,156.36L182.13,170.7L182.19,178.9L182.79,153.8L182.82,154.83L183.41,112.09L183.69,126.81L183.72,121.92L183.75,132.38L184.35,118.14L184.44,120.13L184.47,121.09L184.5,120.03L184.69,134.4L184.72,125.68L184.75,137.84L184.78,141.16L184.94,125.34L185.44,136.39L185.47,124.76L186.28,158.39L186.31,132.05L186.4,108L187.12,164.88L187.15,146.82L187.5,171.97L187.53,137.68L187.9,148.2L187.93,159.48L188.18,139.99L188.62,186.1L188.68,178.09L188.71,162.45L188.81,188.1L188.84,145.34L188.87,116.67L189.05,104.57L189.55,171.65L189.68,162.64L189.71,160.12L189.77,149.56L190.49,181.17L190.52,153L190.58,160.73L190.8,133.41L190.83,149.74L190.86,168.84L190.89,138.89L191.43,174.78L191.58,171L191.61,173.14L192.45,117.93L192.49,132.49L192.52,134.79L192.77,115.72L193.11,126.54L193.14,116.45L193.45,113.68L193.95,155.67L194.14,144.95L194.17,141.62L194.45,134.04L194.73,151.7L194.89,140.1L194.92,139.64L195.26,153.22L195.48,96.9L195.54,117.15L195.57,116.03L196.48,169.99L196.51,141.58L197.16,141.29L197.38,178.74L197.41,182.6L197.6,185.25L197.69,173.67L197.72,153.87L197.79,176.57L198.13,104.68L198.44,147.89L198.47,149.34L198.6,142.83L199,175.14L199.19,151.8L199.22,144.41L199.41,181.71L199.88,124.52L199.94,143.28L199.97,141.9L200.16,173.61L200.72,156.53L200.75,155.91L201.62,100.32L201.69,117.97L201.72,119.23L201.75,109.16L202.09,132.23L202.43,123.61L202.47,125.88L202.68,115.03L203.03,152.31L203.12,140.67L203.15,142.04L203.43,131.03L203.59,146.02L203.65,144.12L203.68,146.71L203.74,142.8L203.77,146.67L203.81,135.09L204.24,156.76L204.4,123.77L204.52,140.31L204.55,127.79L204.99,159.3L205.46,152.84L205.49,124.84L206.43,184.02L206.58,182.45L206.61,167.02L206.77,187.25L206.8,113.59L207.27,137.72L207.3,144.21L207.7,178.94L208.08,167.52L208.11,153.68L208.45,179.35L208.76,138.92L208.83,151.94L208.86,143.74L209.2,177.19L209.64,165.65L209.67,165.27L210.6,112.5L210.85,127.99L210.89,128.54L211.23,111.41L211.54,143.69L211.57,143.21L211.6,148.48L211.67,142.75L211.91,162L212.29,144.39L212.32,140.7L212.38,147.86L212.41,136.91L212.54,145.77L212.57,151.7L213.22,160.23L213.35,130.77L213.38,133.57L213.41,147.25L213.44,128.65L214.04,172.06L214.13,164.11L214.16,165.77L214.82,174.24L214.85,135.91L214.88,146.1L214.91,166.57L215.03,164.17L215.63,185.41L215.66,161.4L215.75,176.1L216.03,107.19L216.37,155.88L216.41,162.55L216.47,158.07L216.69,179.07L216.81,173.27L216.84,180.14L216.87,181.29L217,162.06L217.06,164.42L217.09,155.95L217.53,186.75L217.87,170.11L217.9,169.87L218.34,189.87L218.56,176.31L218.59,175.29L218.71,183.05L219.31,177.2L219.34,172.93L219.49,174.14L220.27,152.84L220.34,158.39L220.37,165.58L220.8,177.77L221.15,175.7L221.18,177.3L221.68,178.31L221.96,169.9L221.99,173.14L222.21,175.02L222.24,171.3L222.3,173.17L222.33,157.01L222.36,152.86L222.92,178.88L222.95,177.18L223.14,170.81L223.33,181.69L223.42,180.75L223.45,163.2L223.52,163.14L224.33,186.23L224.36,187.49L224.48,174.81L224.67,187.27L224.7,188.14L224.76,173.62L225.29,191.44L225.36,186.5L225.39,186L225.54,169.43L225.57,178.13L225.61,187.06L226.32,191.65L226.39,191.6L226.42,183.51L226.82,144.44L227.26,150L227.29,150.34L227.38,154.49L227.41,142.75L227.98,181.6L228.29,179.59L228.32,168.02L228.69,150.03L229.1,176.01L229.13,175.59L229.41,152.19L229.78,181.92L229.88,156.58L229.91,173.07L230.5,182.36L230.69,181.91L230.72,180.85L230.85,181.28L230.91,178.3L230.94,167.81L231.16,177.47L231.38,148.63L231.69,168.04L231.72,168.28L232.06,162.99L232.34,179.97L232.56,179.77L232.59,179.19L232.62,173.41L233.25,185.74L233.28,185.02L233.31,186.33L233.34,187.64L233.59,167.35L233.65,180.94L233.68,167.68L233.93,132.14L234.46,177.06L234.49,167.23L234.62,181.32L234.96,144.35L235.24,155.51L235.27,167.39L235.4,184.34L235.71,147.54L235.96,168.22L235.99,161.25L236.12,178.76L236.68,158.83L236.71,148.45L237.11,94.06L237.58,106.4L237.61,117.04L237.64,116.35L237.68,95.98L238.45,136.52L238.49,135.8L238.52,133.68L238.77,154.48L239.11,142.72L239.14,145.85L239.36,122.65L239.64,147.72L239.92,137.1L239.95,145.39L240.08,155.45L240.39,114.07L240.64,145.61L240.67,137.38L240.79,136.42L241.36,172.03L241.42,141.46L241.45,142.76L242.26,176.65L242.29,180.12L242.51,186.54L242.7,152.34L242.73,127.55L243.01,113.5L243.26,158.48L243.35,155.99L243.38,160.01L243.51,141L243.63,178.37L244.19,175.06L244.22,159.79L244.38,177L244.6,121.72L244.94,152.77L244.97,150.07L245.07,172.74L245.69,152.15L245.72,142.82L245.75,143.13L245.78,141.77L245.81,135.16L245.88,143.38L246.06,119.01L246.1,111.86L246.28,99.95L246.81,127.18L246.84,119.75L246.88,124.92L247.12,118.48L247.28,133.99L247.41,127.88L247.44,136.25L247.75,150.62L247.84,131.96L247.87,132.54L247.9,132.18L247.94,133.36L248.15,122.57L248.19,125.4L248.22,119.38L248.34,114.19L249,151.56L249.03,147.67L249.06,146.15L249.09,146.31L249.12,155.93L249.28,123.61L249.78,149.36L249.81,147.4L249.96,164.73L250.49,127.94L250.56,157L250.59,147.43L251.49,181.51L251.52,168.35L251.68,186.77L251.93,93.61L252.24,165.8L252.27,156.52L252.61,180.03L252.93,148.61L252.99,163.05L253.02,153.09L253.3,180.06L253.39,133.57L253.83,174.74L253.86,168.03L253.89,158.72L254.05,178.24L254.61,164.55L254.64,162.11L255.48,121.07L255.7,127.95L255.73,137.1L255.98,140.67L256.08,121.67L256.45,137.41L256.48,140.25L256.57,133.23L256.73,148.98L256.98,144.18L257.01,136.8L257.04,134.57L257.39,155.42L257.57,150.56L257.6,151.11L257.7,135.24L257.85,153.89L258.13,152.79L258.16,137.19L258.35,132.54L258.94,166.97L258.98,162.22L259.01,152.2L259.38,138.6L259.69,170.99L259.72,168.89L259.76,152.07L260.04,150.71L260.54,184.25L260.57,177.96L260.6,162.55L260.63,188.55L260.97,98.89L261.35,163.07L261.38,163.89L261.47,148.57L261.6,172.39L262.09,151.67L262.13,164.82L262.31,178.72L262.38,133.1L262.84,172.53L262.87,161.46L263.03,182L263.62,163.73L263.65,163.23L264.25,125.6L264.53,128.36L264.56,130.82L264.93,143.37L265.03,119L265.28,124.62L265.31,128.57L265.49,141.84L265.52,145.34L265.56,128.04L265.81,162.54L266.24,149.3L266.27,147.76L266.68,138.38L266.93,155.99L266.99,155.24L267.02,155.85L267.08,161.49L267.33,112.29L267.71,151.09L267.74,150.5L268.36,139.55L268.52,170.97L268.55,152.83L268.86,150.41L269.27,186.34L269.33,184.73L269.36,184.29L269.58,156.43L269.64,176.09L269.67,121.06L269.74,150.3L269.77,149.18L269.8,158.84L269.89,103.65L270.2,169.5L270.3,156.67L270.33,160.98L270.58,180.14L270.61,149.76L270.95,161.86L270.98,150.5L271.29,180.23L271.39,129.5L271.79,168.93L271.82,166.64L271.86,157.89L272.01,178.58L272.54,171.03L272.57,168.47L273.23,118.55L273.6,130.5L273.63,136.57L273.98,129.23L274.41,146.53L274.44,145.97L274.54,132.88L274.69,165.99L275.22,152.49L275.26,151.04L275.29,140.51L275.91,158.27L276,154.24L276.03,159.11L276.07,160.96L276.22,138.69L276.28,142.5L276.32,133.06L276.44,127.26L277.13,166.72L277.16,162.37L277.19,163.9L277.34,141.67L277.66,174.08L277.91,165.42L277.94,174.87L278.5,186.7L278.65,127.41L278.78,155.04L278.81,152.72L278.9,107.99L279.53,174.85L279.56,179.19L280.21,183.03L280.37,144.2L280.4,160.42L281.15,189.82L281.31,186.96L281.34,174.17L281.37,169.45L281.59,183.78L282.05,178.81L282.09,178.24L282.62,168.6L282.65,160.22L283.02,149.9L283.46,177.99L283.49,177.62L283.52,175.63L283.71,167.39L284.24,179.38L284.3,179.03L284.33,179.94L284.39,180.34L284.58,177.2L284.61,177.99L284.64,176.88L284.7,179.23L284.8,175.86L284.83,172.2L284.89,176.63L285.42,156.94L285.45,153.65L286.23,180.95L286.26,181.79L286.36,169.16L286.61,182.74L286.64,183.56L286.73,164.94L287.11,185.42L287.14,186.23L287.23,187.52L287.64,175L287.85,185.82L287.89,186.46L288.1,183.44L288.48,192.14L288.51,179.62L288.7,175.57L289.1,194.11L289.29,192.08L289.32,181.3L289.69,117.11L290.13,147.85L290.16,148.47L290.29,143.38L290.69,175.85L290.72,174.49L290.76,175.29L290.88,160.84L291.13,178.57L291.35,170.43L291.38,165.35L291.57,152.62L292.1,176.17L292.13,157.37L292.41,145.79L292.66,180.24L292.91,177.59L292.94,181.59L293.37,182.88L293.62,178.85L293.69,180.75L293.72,181.56L293.78,175.93L293.81,168.97L294.03,179.39L294.22,154.79L294.56,170.11L294.59,170.66L294.65,168.82L294.68,172.65L294.72,173.04L294.93,162.35L295.25,180.44L295.37,167.5L295.4,159.88L296.09,182.99L296.18,176.75L296.21,181.24L296.52,188.66L296.62,161.93L296.77,172.33L296.81,127.61L297.49,179.41L297.59,154.54L297.62,147.64L298.24,181.49L298.4,164.91L298.43,166.94L298.68,152.09L298.96,183.99L299.18,175.79L299.21,177.1L299.3,178.01L300.24,102.59L300.3,121.08L300.33,123.33L300.67,124.08L300.73,104.81L301.11,112.53L301.14,111.62L301.73,157.22L302.01,141.33L302.04,135.1L302.23,125.36L303.04,157.45L303.07,130.73L303.14,141.13L303.17,127.22L303.23,135.54L303.26,109.72L303.45,138.01L303.48,145.05L303.54,136.73L304.04,170.3L304.26,162.26L304.29,136.97L304.32,136.23L304.35,156.17L304.79,135.31L304.98,174.07L305.04,169.32L305.07,177.77L305.26,186.19L305.57,167.14L305.6,125.7L305.69,159.5L305.82,101.58L306.35,150.79L306.38,142.98L306.54,138.68L307.19,181.3L307.25,175.66L307.28,117.11L307.32,112.42L307.72,152.85L307.75,147.5L307.78,150.4L307.85,143.68L308.16,172.13L308.53,155L308.56,150.23L309.22,101.54L309.44,112.44L309.47,119.22L309.53,109.56L310.34,142.21L310.4,142.15L310.43,141.69L310.62,154.19L311.21,111.52L311.24,134.85L311.31,134.15L311.34,140.96L311.37,144.48L311.99,159.22L312.06,141.14L312.12,148.8L312.15,138.89L312.27,126.68L312.46,146.7L312.49,148.6L312.52,136.42L312.99,169.68L313.18,167.76L313.21,168.93L313.37,143.32L313.46,156.71L313.49,167.51L313.93,137.95L314.36,185.55L314.39,184.85L314.43,187.38L314.49,166.72L314.55,175.47L314.58,115.86L314.8,95.41L315.3,167.52L315.42,165.83L315.46,172.3L315.49,171.97L315.52,160.63L315.89,149.1L316.2,179.22L316.23,152.5L316.27,129.64L316.89,179.97L317.14,172.9L317.17,174.07L318.14,118.32L318.23,127.86L318.26,138.68L318.51,120.78L318.76,140.6L318.98,133.69L319.01,136.25L319.17,123.35L319.42,152.39L319.85,145.17L319.88,141.31L320.07,134.47L320.26,156.36L320.29,155.68L320.32,155.75L320.35,155.91L320.38,153.4L320.54,154.51L320.57,146.05L320.82,162.74L321.04,140.89L321.26,146.37L321.29,139.16L321.32,131.42L321.82,172.77L321.91,167.39L321.94,165.51L322.04,175.16L322.25,146.39L322.6,171.9L322.63,156.02L322.91,143.05L323.25,188.18L323.41,179.92L323.44,155.2L323.5,187.24L323.59,120.66L323.91,140.65L323.94,126.63L324.44,178.65L324.72,154.81L324.75,152.03L325.15,178.6L325.25,129.64L325.43,162.76L325.47,174.93L325.53,146.69L325.9,180.99L326.18,172.36L326.21,172.17L326.25,173.48L326.37,158.23L326.53,162.82L326.56,151.69L326.62,153.75L326.68,144.46L326.71,149.47L326.74,140.07L326.87,140.85L327.49,122.86L327.52,132.49L327.56,137.93L327.71,141.96L328.05,130.53L328.21,140.1L328.24,140.72L328.43,132.11L328.83,155.77L329.02,152.22L329.05,148.16L329.18,134.34L329.21,150.83L329.24,152.75L329.74,127.23L329.86,149.78L329.89,152.93L329.99,161.88L330.11,139L330.24,148.82L330.27,135.52L330.33,129.17L330.74,160.37L330.77,150.99L330.8,160.68L330.89,165.51L330.99,154.68L331.2,158.56L331.24,137.63L331.7,168.68L331.86,156.76L331.89,133.29L332.48,185.74L332.55,110.68L332.67,158.05L332.7,151.04L332.76,113.17L333.36,162.4L333.39,167.66L333.45,171.12L333.76,145.33L333.92,153.03L333.95,147.31L334.14,172L334.26,119.75L334.76,167.15L334.79,158.09L334.82,167.63L335.35,155.89L335.51,158.18L335.54,150.81L336.13,109.53L336.51,120.03L336.54,126.33L336.85,114.61L337.32,138.91L337.38,137.45L337.41,118.64L337.72,157.53L338.32,145.82L338.35,148.79L338.53,144.45L338.75,158.99L338.97,153.25L339,131.34L339.09,124.63L339.78,171.12L339.91,167.76L339.94,160.06L340.22,143.72L340.44,173.21L340.69,163.08L340.72,153.85L341.47,185.43L341.5,181.41L341.53,133.16L341.78,103.27L342.4,177.49L342.43,178.61L342.84,156.85L343.09,184.2L343.15,182.81L343.18,178.97L343.24,148.18L343.9,189.72L343.93,188.44L344.02,189.74L344.18,187.71L344.21,178.94L344.33,171.18L344.43,181.8L344.96,176.74L344.99,177.06L345.46,155.09L345.89,164.23L345.92,163.71L346.02,160.1L346.11,167.14L346.14,169.45L346.21,166.17L346.3,179.04L346.77,173.13L346.8,175.34L347.42,179.48L347.55,176.36L347.58,175.25L347.64,176.45L347.95,172.41L347.98,156.52L348.11,146.8L348.76,178.44L348.79,178.13L348.83,176.31L349.04,179.1L349.17,173.51L349.2,160.69L350.07,186.94L350.1,187.32L350.17,187.79L350.2,186.69L350.23,170.77L350.82,190.41L351.01,184.56L351.04,189.96L351.29,191.31L351.35,170.89L351.54,189.84L351.57,190.14L351.66,191.11L351.94,188.23L352.13,190.25L352.16,185.91L352.63,147.46L352.94,164.26L352.97,168.29L353.5,132.12L353.63,179.07L353.66,178.73L353.69,178.69L354,179.58L354.75,157.74L354.84,159.5L354.88,163.66L355.16,152.01L355.31,181.17L355.56,171.78L355.59,176.29L355.62,162.41L356.19,181.43L356.31,180.1L356.34,182.04L356.59,182.38L357.09,153.95L357.34,170.1L357.37,171.86L357.46,166.16L357.74,180.42L357.9,176.9L357.93,178.42L358.37,182.77L358.52,176.78L358.56,168.96L358.99,163.89L359.24,188.29L359.27,186.67L359.3,166.47L359.4,188.87L359.49,156.39L359.65,173.33L359.68,134.08L360.02,178.59L360.49,163.85L360.52,158.58L360.8,132.78L361.11,176.33L361.21,148.08L361.24,146.31L361.3,168.37L361.55,133.4L362.02,163.93L362.05,162.33L362.08,163.36L362.27,151.18L362.3,136.57L362.39,146.16L362.86,93.37L362.89,96.99L362.92,93.73L363.08,79.99L363.58,103.65L363.61,95.81L363.64,103.17L363.89,92.02L364.14,119.4L364.17,125.62L364.67,153.15L364.95,136.92L364.98,133.4L365.17,140.17L365.48,122.27L365.63,132.85L365.67,141.43L365.7,146.99L366.13,96.69L366.38,138.94L366.41,122.9L366.73,158.82L367.19,130.92L367.23,135.26L367.76,128.35L368.16,183.96L368.25,183.45L368.29,176.36L368.38,184.77L368.41,176.14L368.44,145.6L368.78,86.85L369.19,127.85L369.22,121.35L369.31,103.32L369.81,146.55L369.94,133.82L369.97,125.72L370.56,148.93L370.66,111.63L370.69,117.27L370.72,104.73L370.84,166.7L371.47,127.28L371.5,133.76L372.4,85.76L372.46,91.26L372.5,105.15L372.78,93.99L373.46,139.67L373.49,132.01L373.93,118.35L374.15,140.07L374.21,138.16L374.24,135.61L374.9,144.39L375.05,112.9L375.15,116.97L375.18,118.55L375.3,132.25L375.49,116.21L375.55,123.02L375.58,111.03L375.68,103.27L376.39,148.75L376.43,147.54L376.52,121.8L376.74,160.91L376.83,142.64L376.86,117L377.11,184.21L377.45,109.95L377.58,150.51L377.61,146.99L377.74,79.13L378.33,156.74L378.36,150.61L378.95,116.82L379.01,162.15L379.08,158.3L379.11,151.26L379.36,95.55L379.76,175.74L379.82,165.82L379.86,154.63L380.07,158.26L380.73,110.59L380.76,119.67L380.79,121.25L381.2,95.71L381.57,100.71L381.6,112.47L381.76,96.46L382.63,149.45L382.73,142.33L382.76,139.63L382.88,134.03L383.01,144.55L383.29,141.41L383.32,142.3L383.38,148.4L383.82,138.96L383.88,139.85L383.91,123.08L383.97,146.02L384.1,102.79L384.63,115.44L384.66,119.85L385.13,83.04L385.59,166.52L385.63,148.71L385.78,120.64L385.84,166.59L385.88,163.46L385.91,174.74L385.97,172.27L386.06,182.19L386.09,183.36L386.19,184.67L386.22,183.17L386.25,172.1L386.28,184.28L386.47,82.57L386.84,114.43L386.87,111.05L387,94.62L387.31,149.88L387.65,129.32L387.68,133.31L388.09,147.35L388.49,114.38L388.53,123.54L388.78,170.21L389.34,156.12L389.37,150.98L390.37,96.82L390.4,107.23L390.43,103.59L390.68,129.9L390.93,121.23L390.96,134L391.36,147.38L391.49,111.82L391.68,137.4L391.71,139.31L391.83,116.8L392.21,144.43L392.33,141.96L392.36,141.8L392.42,132.64L392.67,154.53L392.86,151.75L392.89,125.17L393.11,108.2L393.45,151.64L393.48,131.96L393.52,147.51L393.73,133.21L393.98,165.25L394.26,163.97L394.3,145.91L394.79,141.14L395.01,183.88L395.11,182.71L395.14,183.68L395.2,184.8L395.29,164.21L395.32,158.06L395.39,187.2L395.64,94.88L396.04,153.84L396.07,146.15L396.51,173.59L396.6,155.42L396.63,152.32L396.73,151.46L396.88,172.05L396.92,150.52L397.01,177.06L397.1,133.11L397.69,164L397.73,172.74L397.82,174.76L398.51,145.56L398.54,135.98L398.57,140.79L398.91,97.05L399.16,122.88L399.19,119.18L399.41,104.86L399.63,135.36L399.94,127.68L399.97,123.73L400,117.22L400.53,149.39L400.6,139.54L400.63,144.49L401.03,117.69L401.34,149.74L401.38,150.61L401.66,156.69L402.06,120.51L402.15,135.72L402.19,134.43L402.37,122.32L402.75,156.78L402.81,148.89L402.84,149.41L403.06,171.51L403.09,143.18L403.62,163.2L403.65,148.98L403.78,145.98L404.09,183.19L404.37,180.79L404.4,130.68L404.68,104.31L404.93,156.51L404.99,141.25L405.02,150.95L405.06,149.55L405.21,170.35L405.27,166.61L405.3,173.37L405.49,179.89L406.08,143.27L406.12,148.22L406.15,156.58L406.99,186.44L407.02,184.67L407.05,185.08L407.08,178.64L407.11,171.95L407.18,172.4L407.21,158.21L407.24,170.63L407.27,177.05L408.17,167.69L408.24,169.53L408.27,170.37L408.89,157.47L408.98,164.83L409.02,164.51L409.42,176.9L409.48,159.21L410.08,174.88L410.11,174.45L410.36,175.41L410.39,168.37L410.67,172.69L410.7,171.57L410.82,174.74L410.98,143.32L411.39,168.08L411.42,168.95L411.51,165.88L411.54,172.08L411.57,171.62L411.6,176.45L412.04,177.22L412.1,164.86L412.17,172.1L412.2,175.39L412.48,165.49L412.85,184.93L412.88,185.19L413.35,189.19L413.41,174.72L413.63,182.97L413.66,187.16L413.91,190.58L414.01,161.29L414.16,188.89L414.19,165.54L414.97,191.59L415,190.68L415.03,191.88L415.07,174.91L415.1,158.51L415.16,145.25L415.22,171L415.81,162.58L415.85,156.19L416,166.43L416.16,165.93L416.19,130.08L416.63,180.64L417.09,174.66L417.12,173.17L417.16,172.77L417.28,176.17L417.31,166.09L417.59,173.91L417.9,142.15L418,170.09L418.03,176.8L418.12,161.38L418.18,180.3L418.37,178.92L418.4,181.1L418.43,153.6L418.68,181.73L419.15,181.06L419.18,178.96L419.28,180.44L419.53,178.52L419.56,164.48L419.62,179.52L419.96,153.05L420.31,171.72L420.34,172.2L420.43,168.15L421.02,178.72L421.05,174.35L421.09,168.87L421.15,163.87L421.86,185.89L421.9,184.03L422.15,187.77L422.21,170.07L422.33,170.78L422.36,157.27L422.55,145.8L422.89,181.33L423.11,166.55L423.14,150.98L423.67,141.84L423.92,183.7L423.95,182.64L424.02,183.5L424.33,144.92L424.48,179.97L424.52,180.65L425.17,152.31L425.3,157.7L425.33,156.71L425.92,92.38L426.17,101.26L426.2,100.52L426.29,86.5L427.29,147.37L427.38,142.57L427.42,140.7L427.48,152.94L427.98,121.29L428.13,136.48L428.16,134.16L428.82,130.87L428.88,153.43L428.91,137.61L428.94,135.17L429.19,110.35L429.6,147.36L429.63,132.26L429.66,104.07L430.38,149.11L430.47,145.46L430.5,137.92L430.75,110.17L431.06,174.96L431.1,172.52L431.16,168.27L431.25,176.96L431.28,179.64L431.31,182.39L431.38,138.56L431.41,110.89L431.47,150.93L431.94,63.43L432.16,132.78L432.19,116.47L432.31,113.76L432.37,137.23L432.41,146.99L432.66,128.42L432.9,168.74L433.03,131.92L433.06,93.29L433.78,159.46L433.84,158.13L433.87,163.67L434.03,166.48L434.87,104.81L434.96,112.33L434.99,121.12L435.28,96.66L435.49,125.6L435.52,129.59L435.84,116.91L436.18,144.92L436.27,127.71L436.3,126.14L436.4,100.84L436.74,145.19L436.93,144.06L436.96,124.31L437.55,152.9L437.77,152.4L437.8,144.44L437.83,144.68L437.86,144.47L437.89,123.22L438.61,164.75L438.74,154.04L438.77,155.12L438.96,168.06L439.05,130.56L439.52,161.98L439.55,160.56L439.73,173.09L439.77,147.95L439.86,163.66L439.89,177.56L440.11,184.56L440.23,159.04L440.3,176.78L440.33,126L440.36,124.33L440.39,156.39L440.42,163.54L440.45,163.1L440.48,140.9L440.55,98.39L441.04,171.05L441.11,149.91L441.14,165.06L441.23,171.77L441.79,134.62L441.86,166.17L441.89,170.29L441.95,176.9L441.98,172.42L442.01,134.16L442.04,127.46L442.23,178.01L442.57,159.57L442.6,173.58L442.7,182.15L443.13,160.37L443.26,160.41L443.29,158.62L443.91,111.07L444.1,127.67L444.13,125.16L444.26,114.17L444.48,141.49L444.85,127.46L444.88,128.84L445.25,154.26L445.63,137.21L445.66,136.03L445.75,135.9L445.79,142.71L445.91,138.29L445.94,123.82L446.75,154.08L446.78,135.28L447.34,116.93L447.47,153.64L447.59,151.47L447.63,127.89L448.12,171.77L448.44,160.76L448.47,164.91L448.65,129.21L449.03,184.62L449.22,153.54L449.25,174.57L449.28,175.2L449.31,114.84L449.68,87.8L450.21,167.46L450.24,142.19L450.71,139.02L450.9,173.63L450.96,159.84L450.99,122.66L451.18,167.36L451.9,164L451.93,158.08L451.96,157.88L451.99,163.48L452.86,85.28L453.08,114.2L453.11,114.7L453.52,122.21L453.8,97.59L453.86,114.23L453.89,110.67L454.33,149.49L454.89,135.84L454.92,129.01L455.11,128.21L455.58,152.23L455.73,152.05L455.76,134.98L456.33,124.42L456.54,161.35L456.58,151.61L456.61,148.82L456.86,168.87L456.98,121.88L457.32,167.32L457.36,147.73L457.64,143.87L458.07,182.78L458.14,175.81L458.17,165.18L458.26,182.22L458.57,103.02L458.91,157.27L458.95,163.24L459.07,134.85L459.38,176.04L459.57,154.01L459.6,138.21L459.91,174.98L460.01,118.43L460.41,161.78L460.44,160.19L460.54,151.32L460.66,174.57L461.19,162.56L461.22,162.01L462.22,92.52L462.28,113.03L462.31,129.39L462.38,136.65L462.41,119.97L462.66,106.63L463.13,141.26L463.22,133.27L463.25,135.39L463.41,158.52L463.9,133.09L464,146.82L464.03,143.38L464.28,122.32L464.72,151.46L464.78,139.44L464.81,144.48L464.87,94.01L465.43,158.15L465.46,161.97L465.96,146.03L466.24,171.53L466.27,170.74L466.31,170.09L466.68,146.69L467.02,184.42L467.05,185.36L467.55,107.27L467.74,142.48L467.77,157.49L467.87,151.25L468.36,184.32L468.55,167.93L468.58,161.13L468.68,167.83L468.74,162.05L468.77,179.25L468.99,149.05L469.58,190.14L469.61,190.26L470.08,180.46L470.3,182.91L470.7,185.33L471.58,164.12L471.61,163.99L471.64,162.8L471.89,182.38L471.92,182.2L472.23,183.8L472.42,178.16L472.64,183.19L472.67,182.98L472.86,184.11L473.26,176.56L473.51,181.2L473.54,182.04L473.57,182.46L473.73,179.03L473.79,181.96L473.82,168.84L473.85,158.24L474.45,180.04L474.51,178.57L474.54,180.71L474.76,179.62L474.79,183.65L474.82,129.58L475.26,178.74L475.35,170.09L475.38,133.83L475.88,184.63L476.16,184.39L476.19,185.29L476.22,185.84L476.25,170.54L477.1,190.2L477.13,190.02L477.47,189.83L477.81,191.65L477.88,191.43L477.91,190.07L478.53,137.23L478.69,141.48L478.72,141.88L478.87,135.76L479.03,155.8L479.06,158.94L479.37,179.55L479.78,174.85L479.81,164.63L480.18,157.24L480.5,169.53L480.56,167.73L480.59,166.99L480.93,136.93L481.24,168.79L481.28,171.77L481.31,150L481.99,175.18L482.02,173.8L482.06,168.91L482.37,176.28L482.71,161.02L482.77,165.62L482.8,158.88L483.49,176.62L483.61,165.98L483.65,166.09L484.02,162.3L484.52,180.34L484.55,174.22L484.77,169.01L484.86,187.15L485.11,183.23L485.14,185.91L485.45,127.84L485.89,168.81L485.92,178.11L486.14,179.88L486.48,144.56L486.55,144.92L486.58,170.63L487.01,184.97L487.17,154.67L487.23,164.83L487.26,148.51L487.83,175.3L488.01,170.68L488.04,160.06L488.07,163.13L488.42,131.27L488.45,132.34L488.48,125.14L488.85,87.37L489.23,121.1L489.26,130.61L489.35,111.31L489.95,142.23L489.98,138.69L490.01,137.57L490.32,152.42L490.35,155.75L490.85,130.47L491.16,144.51L491.19,146.46L491.57,156.02L491.88,124.66L491.94,137.65L491.97,134.45L492.78,173.95L492.85,171.6L492.88,164.32L492.91,138.18L493.35,173.67L493.59,155.71L493.63,168.57L493.66,166.73L493.91,185.65L494,184.27" style="vector-effect: none; fill: none; stroke: rgb(99, 110, 250); stroke-opacity: 1; stroke-width: 2px; opacity: 1;"/></g><g class="points"/><g class="text"/></g><g class="trace scatter tracea1f9b3" style="stroke-miterlimit: 2; opacity: 1;"><g class="fills"/><g class="errorbars"/><g class="lines"><path class="js-line" d="M0,194.75L17.03,194.75L17.06,75.18L17.84,194.75L17.87,194.75L40.04,194.75L40.08,28.29L40.85,194.75L40.89,194.75L48.65,194.75L48.68,81.18L49.4,194.75L49.43,77.63L49.46,80.79L49.49,194.75L173.99,194.75L174.02,62.57L174.05,10.25L174.3,194.75L174.68,51.63L174.71,194.75L174.9,194.75L174.93,61.96L175.71,194.75L175.74,194.75L363.05,194.75L363.08,79.99L363.86,194.75L363.89,194.75L377.7,194.75L377.74,79.13L378.52,194.75L378.55,194.75L385.1,194.75L385.13,83.04L385.91,194.75L385.94,194.75L386.44,194.75L386.47,82.57L387.25,194.75L387.28,194.75L431.91,194.75L431.94,63.43L432.72,194.75L432.75,194.75L494,194.75" style="vector-effect: none; fill: none; stroke: rgb(239, 85, 59); stroke-opacity: 1; stroke-width: 2px; opacity: 1;"/></g><g class="points"/><g class="text"/></g></g></g><g class="overplot"/><path class="xlines-above crisp" d="M0,0" style="fill: none;"/><path class="ylines-above crisp" d="M0,0" style="fill: none;"/><g class="overlines-above"/><g class="xaxislayer-above"><g class="xtick"><text text-anchor="middle" x="0" y="318" transform="translate(178.82999999999998,0)" style="font-family: 'Open Sans', verdana, arial, sans-serif; font-size: 12px; fill: rgb(42, 63, 95); fill-opacity: 1; white-space: pre; opacity: 1;"><tspan class="line" dy="0em" x="0" y="318">Jan 30</tspan><tspan class="line" dy="1.3em" x="0" y="318">2022</tspan></text></g><g class="xtick"><text text-anchor="middle" x="0" y="318" style="font-family: 'Open Sans', verdana, arial, sans-serif; font-size: 12px; fill: rgb(42, 63, 95); fill-opacity: 1; white-space: pre; opacity: 1;" transform="translate(304.58000000000004,0)">Feb 13</text></g><g class="xtick"><text text-anchor="middle" x="0" y="318" style="font-family: 'Open Sans', verdana, arial, sans-serif; font-size: 12px; fill: rgb(42, 63, 95); fill-opacity: 1; white-space: pre; opacity: 1;" transform="translate(430.32,0)">Feb 27</text></g><g class="xtick"><text text-anchor="middle" x="0" y="318" style="font-family: 'Open Sans', verdana, arial, sans-serif; font-size: 12px; fill: rgb(42, 63, 95); fill-opacity: 1; white-space: pre; opacity: 1;" transform="translate(556.0699999999999,0)">Mar 13</text></g></g><g class="yaxislayer-above"><g class="ytick"><text text-anchor="end" x="79" y="4.199999999999999" transform="translate(0,294.75)" style="font-family: 'Open Sans', verdana, arial, sans-serif; font-size: 12px; fill: rgb(42, 63, 95); fill-opacity: 1; white-space: pre; opacity: 1;">0</text></g><g class="ytick"><text text-anchor="end" x="79" y="4.199999999999999" style="font-family: 'Open Sans', verdana, arial, sans-serif; font-size: 12px; fill: rgb(42, 63, 95); fill-opacity: 1; white-space: pre; opacity: 1;" transform="translate(0,219.7)">5k</text></g><g class="ytick"><text text-anchor="end" x="79" y="4.199999999999999" style="font-family: 'Open Sans', verdana, arial, sans-serif; font-size: 12px; fill: rgb(42, 63, 95); fill-opacity: 1; white-space: pre; opacity: 1;" transform="translate(0,144.65)">10k</text></g></g><g class="overaxes-above"/></g></g><g class="polarlayer"/><g class="smithlayer"/><g class="ternarylayer"/><g class="geolayer"/><g class="funnelarealayer"/><g class="pielayer"/><g class="iciclelayer"/><g class="treemaplayer"/><g class="sunburstlayer"/><g class="glimages"/><defs id="topdefs-64d2d7"><g class="clips"/></defs><g class="layer-above"><g class="imagelayer"/><g class="shapelayer"/></g><g class="infolayer"><g class="g-gtitle"/><g class="g-xtitle"/><g class="g-ytitle"/><g class="annotation" data-index="0" style="opacity: 1;"><g class="annotation-text-g" transform="rotate(0,327,88.5)"><g class="cursor-pointer" transform="translate(233,77)"><rect class="bg" x="0.5" y="0.5" width="188" height="22" style="stroke-width: 1px; stroke: rgb(0, 0, 0); stroke-opacity: 0; fill: rgb(0, 0, 0); fill-opacity: 0;"/><text class="annotation-text" text-anchor="middle" x="94.53125" y="17" style="font-family: 'Open Sans', verdana, arial, sans-serif; font-size: 16px; fill: rgb(42, 63, 95); fill-opacity: 1; white-space: pre;">Database Time Per Sec</text></g></g></g></g></svg>