<svg class="main-svg" xmlns="http://www.w3.org/2000/svg" xmlns:xlink="http://www.w3.org/1999/xlink" width="1200" height="400" style="" viewBox="0 0 1200 400"><rect x="0" y="0" width="1200" height="400" style="fill: rgb(255, 255, 255); fill-opacity: 1;"/><defs id="defs-b0e0ba"><g class="clips"><clipPath id="clipb0e0baxyplot" class="plotclip"><rect width="941.88" height="220"/></clipPath><clipPath id="clipb0e0baxy2plot" class="plotclip"><rect width="941.88" height="220"/></clipPath><clipPath class="axesclip" id="clipb0e0bax"><rect x="80" y="0" width="941.88" height="400"/></clipPath><clipPath class="axesclip" id="clipb0e0bay"><rect x="0" y="100" width="1200" height="220"/></clipPath><clipPath class="axesclip" id="clipb0e0baxy"><rect x="80" y="100" width="941.88" height="220"/></clipPath><clipPath class="axesclip" id="clipb0e0bay2"><rect x="0" y="100" width="1200" height="220"/></clipPath><clipPath class="axesclip" id="clipb0e0baxy2"><rect x="80" y="100" width="941.88" height="220"/></clipPath></g><g class="gradients"/><g class="patterns"/></defs><g class="bglayer"><rect class="bg" x="80" y="100" width="941.88" height="220" style="fill: rgb(229, 236, 246); fill-opacity: 1; stroke-width: 0;"/></g><g class="layer-below"><g class="imagelayer"/><g class="shapelayer"/></g><g class="cartesianlayer"><g class="subplot xy"><g class="layer-subplot"><g class="shapelayer"/><g class="imagelayer"/></g><g class="minor-gridlayer"><g class="x"/><g class="y"/><g class="y2"/></g><g class="gridlayer"><g class="x"><path class="xgrid crisp" transform="translate(193.47,0)" d="M0,100v220" style="stroke: rgb(255, 255, 255); stroke-opacity: 1; stroke-width: 1px;"/><path class="xgrid crisp" transform="translate(311.87,0)" d="M0,100v220" style="stroke: rgb(255, 255, 255); stroke-opacity: 1; stroke-width: 1px;"/><path class="xgrid crisp" transform="translate(430.28,0)" d="M0,100v220" style="stroke: rgb(255, 255, 255); stroke-opacity: 1; stroke-width: 1px;"/><path class="xgrid crisp" transform="translate(548.6800000000001,0)" d="M0,100v220" style="stroke: rgb(255, 255, 255); stroke-opacity: 1; stroke-width: 1px;"/><path class="xgrid crisp" transform="translate(667.08,0)" d="M0,100v220" style="stroke: rgb(255, 255, 255); stroke-opacity: 1; stroke-width: 1px;"/><path class="xgrid crisp" transform="translate(785.48,0)" d="M0,100v220" style="stroke: rgb(255, 255, 255); stroke-opacity: 1; stroke-width: 1px;"/><path class="xgrid crisp" transform="translate(903.89,0)" d="M0,100v220" style="stroke: rgb(255, 255, 255); stroke-opacity: 1; stroke-width: 1px;"/></g><g class="y"><path class="ygrid crisp" transform="translate(0,282.94)" d="M80,0h941.88" style="stroke: rgb(255, 255, 255); stroke-opacity: 1; stroke-width: 1px;"/><path class="ygrid crisp" transform="translate(0,246.79)" d="M80,0h941.88" style="stroke: rgb(255, 255, 255); stroke-opacity: 1; stroke-width: 1px;"/><path class="ygrid crisp" transform="translate(0,210.64)" d="M80,0h941.88" style="stroke: rgb(255, 255, 255); stroke-opacity: 1; stroke-width: 1px;"/><path class="ygrid crisp" transform="translate(0,174.49)" d="M80,0h941.88" style="stroke: rgb(255, 255, 255); stroke-opacity: 1; stroke-width: 1px;"/><path class="ygrid crisp" transform="translate(0,138.35)" d="M80,0h941.88" style="stroke: rgb(255, 255, 255); stroke-opacity: 1; stroke-width: 1px;"/><path class="ygrid crisp" transform="translate(0,102.2)" d="M80,0h941.88" style="stroke: rgb(255, 255, 255); stroke-opacity: 1; stroke-width: 1px;"/></g><g class="y2"><path class="y2grid crisp" transform="translate(0,269.4)" d="M80,0h941.88" style="stroke: rgb(255, 255, 255); stroke-opacity: 1; stroke-width: 1px;"/><path class="y2grid crisp" transform="translate(0,229.8)" d="M80,0h941.88" style="stroke: rgb(255, 255, 255); stroke-opacity: 1; stroke-width: 1px;"/><path class="y2grid crisp" transform="translate(0,190.2)" d="M80,0h941.88" style="stroke: rgb(255, 255, 255); stroke-opacity: 1; stroke-width: 1px;"/><path class="y2grid crisp" transform="translate(0,150.6)" d="M80,0h941.88" style="stroke: rgb(255, 255, 255); stroke-opacity: 1; stroke-width: 1px;"/><path class="y2grid crisp" transform="translate(0,111)" d="M80,0h941.88" style="stroke: rgb(255, 255, 255); stroke-opacity: 1; stroke-width: 1px;"/></g></g><g class="zerolinelayer"><path class="yzl zl crisp" transform="translate(0,319.09000000000003)" d="M80,0h941.88" style="stroke: rgb(255, 255, 255); stroke-opacity: 1; stroke-width: 2px;"/><path class="y2zl zl crisp" transform="translate(0,309)" d="M80,0h941.88" style="stroke: rgb(255, 255, 255); stroke-opacity: 1; stroke-width: 2px;"/></g><path class="xlines-below"/><path class="ylines-below"/><g class="overlines-below"><path class="xy2-x"/><path class="xy2-y"/></g><g class="xaxislayer-below"/><g class="yaxislayer-below"/><g class="overaxes-below"><g class="xy2-x"/><g class="xy2-y"/></g><g class="plot" transform="translate(80,100)" clip-path="url(#clipb0e0baxyplot)"><g class="scatterlayer mlayer"><g class="trace scatter tracec169c3" style="stroke-miterlimit: 2; opacity: 1;"><g class="fills"/><g class="errorbars"/><g class="lines"><path class="js-line" d="M0,157.75L0.41,154.73L0.82,156.2L1.23,167.19L3.29,145.93L3.7,141.69L6.58,101.95L6.99,103.89L7.81,111.92L8.22,117.63L11.51,155.74L11.92,156.03L12.33,156.23L12.74,157.4L13.57,161.02L13.98,157.47L14.8,153.19L15.21,147.81L16.03,151.4L16.44,151.29L16.86,148.98L17.68,147.98L18.09,149.61L18.5,150.8L18.91,155.73L20.14,169.02L20.56,165.41L22.2,151.03L22.61,153.4L23.43,151.32L23.85,140.28L25.08,126.43L25.49,130.27L27.13,152.09L27.55,153.5L28.37,154.6L28.78,165.15L30.42,188.92L30.83,189.01L31.25,189.96L31.66,195.41L32.48,197.52L32.89,197.23L34.12,198.81L34.53,197.79L37.41,181.95L37.82,177.36L39.88,148.35L40.29,140.3L46.05,65.75L46.46,66.19L47.69,69.68L48.1,68.21L49.75,63.25L50.16,60.91L50.57,61.18L50.98,58.7L52.21,52.78L52.62,53.29L53.03,54.76L53.45,53.9L53.86,55.03L54.27,54.86L54.68,52.05L56.32,39.79L56.73,41.29L57.56,34.64L57.97,36.47L58.38,40.89L59.2,50.25L59.61,62.75L60.85,79.7L61.26,81.91L61.67,85.28L62.08,97.28L63.72,118.97L64.13,122.16L65.37,137.79L65.78,144.73L67.01,157.65L67.42,156.15L70.71,142.41L71.12,131.74L72.77,114.93L73.18,113.72L74.82,99.92L75.24,98.99L75.65,99.37L76.06,108.16L79.35,141.03L79.76,142.8L82.22,155.56L82.64,155.85L83.46,151.75L83.87,155.05L84.28,154.64L84.69,151.75L85.51,147.68L85.92,143.46L86.75,133.98L87.16,124.76L88.39,99.29L88.8,95.69L90.04,90.48L90.45,91.09L91.27,82.77L91.68,85.43L92.09,89.9L93.32,115.02L93.74,113.82L94.56,106.86L94.97,106.29L95.38,103.71L95.79,107.38L96.61,104.31L97.02,107.96L97.44,109.31L97.85,105.89L98.26,98.24L98.67,99.64L99.08,106.01L99.9,105.69L100.31,107.02L100.72,103.66L101.14,110.15L101.55,115.29L101.96,114.41L102.37,114.73L104.42,134.37L104.84,138.8L106.07,147.07L106.48,143.78L107.71,135.01L108.13,136.26L108.54,133.22L108.95,139.72L109.77,137.04L110.18,138.56L113.88,178.03L114.29,180.26L115.53,186.74L115.94,186.89L116.35,187.53L116.76,177.84L118.4,128.11L118.81,121.84L119.23,120.22L119.64,112.39L120.87,71.99L121.28,62.8L121.69,61.39L122.1,71.28L123.34,59.21L123.75,55.26L124.57,17.49L124.98,34.16L126.21,18.12L126.63,11L127.45,16.24L127.86,22.88L128.68,29.55L129.09,48.49L130.33,78.04L130.74,83.8L132.38,118.3L132.79,120.94L133.61,119.8L134.03,122.27L135.67,136.45L136.08,135.83L136.49,136.73L136.9,137.15L137.31,141.45L138.55,153.81L138.96,137.16L139.37,137.42L139.78,135.38L140.19,135.36L140.6,133.75L141.43,138.05L141.84,134.7L143.48,91.78L143.89,111.39L144.71,110.25L145.13,105.86L145.54,104.75L145.95,101.23L146.36,101.05L146.77,103.78L148.83,151.59L149.24,154.95L151.7,179.75L152.12,180.87L153.35,183.96L153.76,181.54L154.17,181.15L154.58,179.06L155.4,175.19L155.82,172.3L163.63,77.71L164.04,74.98L166.92,60.97L167.33,61.19L167.74,63.02L168.15,62.09L168.56,61.3L168.97,62.95L169.38,61.41L170.2,62.12L170.62,66.12L173.49,89.84L173.9,90.53L176.37,99.86L176.78,100.64L177.6,101.95L178.02,106.66L180.48,124.14L180.89,121.49L181.3,121.02L181.72,122.43L182.13,122.43L182.54,123.39L185,110.87L185.42,113.19L187.06,120.83L187.47,121.83L188.7,134.03L189.12,134.65L189.94,138.52L190.35,135.48L190.76,134.31L191.17,135.05L191.58,135.26L192.4,136.2L192.82,138.13L194.46,142.51L194.87,141.97L195.28,146.57L196.11,147.71L196.52,147L197.34,146.34L197.75,145.28L198.57,145.78L198.98,146.39L199.81,147.83L200.22,151.65L202.27,158.35L202.68,155.92L205.15,140.39L205.56,134.25L206.79,128.26L207.21,129.14L207.62,128.9L208.03,129.81L208.44,130.13L208.85,126.58L209.26,127.02L209.67,128.76L210.08,130.33L210.49,134.92L211.73,144.65L212.14,148.71L213.78,161.16L214.19,156.46L215.43,169.71L215.84,168.37L216.25,158.58L217.07,158.23L217.48,154.35L218.31,146.56L218.72,150.48L219.54,156.53L219.95,153.75L220.36,153.93L220.77,156.47L221.18,166.28L221.59,166.13L222.01,165.69L223.65,179.19L224.06,178.88L224.88,177.32L225.29,177.71L225.71,178.61L226.94,180.17L227.35,183.45L228.17,184.92L228.58,185.1L228.99,185.48L229.41,187.87L230.64,196.03L231.05,197.53L231.87,196.63L232.28,190.37L233.11,181.81L233.52,176.54L233.93,176.07L234.34,174.34L235.98,132.25L236.4,129.65L239.68,65.79L240.1,71.27L240.92,67.8L241.33,61.22L242.15,63.8L242.56,74.88L244.62,108.56L245.03,111.38L248.73,144.75L249.14,143.61L250.78,159.02L251.2,155.87L251.61,153L252.02,154.25L252.43,155.61L252.84,154.76L253.25,156.54L254.07,157.96L254.48,156.64L255.31,157.37L255.72,159.73L256.54,166.46L256.95,163.96L258.6,136.78L259.01,138.88L260.24,143L260.65,134.41L261.88,128.87L262.3,138.89L263.94,152.61L264.35,153.31L264.76,152.78L265.17,154.58L266.82,181.36L267.23,183.51L268.05,185.83L268.46,194.2L270.11,199.17L270.52,198.29L270.93,199.5L271.34,197.84L271.75,197.42L272.16,194.1L273.81,188.69L274.22,184.47L280.39,121.44L280.8,118.22L282.85,98.33L283.26,100.18L284.09,103.84L284.5,102.76L284.91,102.79L285.73,101.05L286.14,102.45L286.55,103.99L286.96,108.93L287.37,112.23L287.79,112.06L288.2,112.39L289.02,112.83L289.43,114.59L291.49,129.25L291.9,129.61L292.72,130.89L293.13,128.91L293.54,128.39L293.95,126.64L295.6,120.15L296.01,120.76L297.65,127.04L298.06,130.81L299.3,140.93L299.71,145.78L300.53,149.36L300.94,149.23L302.59,152.21L303,150.59L303.82,149.92L304.23,148.04L305.46,143.99L305.87,144.11L307.52,142.93L307.93,143.64L308.34,143.37L308.75,140L309.57,137.21L309.99,137.59L311.22,139.29L311.63,137.41L312.86,138.05L313.27,139.74L314.92,147.78L315.33,148.01L316.15,150.44L316.56,153.9L317.39,157.56L317.8,156.36L318.21,154.89L318.62,155.46L319.03,157.13L319.44,158.46L319.85,157.24L320.67,158.03L321.09,157.45L322.73,151.95L323.14,152.41L323.55,151.15L323.96,145.46L324.79,141.75L325.2,142.15L325.61,142.75L326.84,139.75L327.25,129.95L328.49,122.17L328.9,129L329.31,129.92L329.72,134.02L330.54,133.42L330.95,130.79L331.78,127.92L332.19,141L333.42,158.49L333.83,158.83L334.24,160.11L334.65,159.34L335.06,157.32L335.48,158.38L335.89,164.64L337.94,172.47L338.35,173.39L339.18,174.34L339.59,177.09L340.41,183.14L340.82,183L341.23,184.11L341.64,184.64L342.05,183.32L343.7,177.81L344.11,178.04L345.34,174.09L345.75,176.19L346.99,180.18L347.4,183.21L350.28,201.89L350.69,196.28L351.51,187.9L351.92,178.22L352.74,175.63L353.15,149.52L354.8,106.42L355.21,102.66L356.03,97.08L356.44,93.09L356.85,90.38L357.26,80.82L358.09,66.36L358.5,71.47L358.91,75.61L359.32,70.67L360.55,61.19L360.96,58.17L361.79,63.16L362.2,69.39L364.67,133.95L365.08,136.83L367.13,156.14L367.54,150.64L369.19,159.12L369.6,155.16L370.01,153.89L370.42,156.9L371.24,161.5L371.65,161.09L372.07,160.7L372.48,166.95L372.89,163.9L373.3,162.95L373.71,163.49L374.12,165.91L374.53,169.32L374.94,167.14L375.35,159.85L377,134.27L377.41,132.58L377.82,136.78L378.23,136.64L378.64,137.19L379.47,127.49L379.88,128.94L380.29,131.85L381.93,148.52L382.34,148.38L382.75,145.57L383.17,145.88L383.58,146.92L385.63,171.92L386.04,173.07L387.69,183.21L388.1,183.52L388.51,183.93L388.92,183L389.33,183.37L389.74,182.14L390.15,181.22L390.57,178.09L392.62,166.08L393.03,161.44L394.68,136.86L395.09,130.86L402.08,46.51L402.49,47.99L403.31,49.09L403.72,46.94L404.54,51.93L404.95,59.31L406.6,71.39L407.01,71.64L407.42,72.21L407.83,71.2L409.07,76.43L409.48,73.2L411.94,62.05L412.36,61.35L414,55.56L414.41,57.03L417.29,84.92L417.7,89.28L418.52,96.12L418.93,102.17L421.4,136.76L421.81,137.53L423.04,151.48L423.46,148.4L426.74,133.08L427.16,132.1L427.57,129.78L427.98,130.41L428.39,132.69L428.8,132.5L429.21,131.39L430.86,135.34L431.27,136.84L432.09,139.91L432.5,139.15L432.91,137.76L433.73,135.86L434.14,135.99L434.56,137.32L434.97,137.8L435.38,139.6L437.02,143.71L437.43,146.12L438.67,150.6L439.08,152.58L439.9,153.93L440.31,152.94L441.96,145.44L442.37,138.29L442.78,136.39L443.19,137.04L443.6,137.68L444.01,137.35L444.42,134.16L445.24,132.84L445.66,130.49L446.89,135.44L447.3,141.83L448.12,146.14L448.53,149.64L449.77,156.48L450.18,158.27L451.82,172.78L452.23,174.32L452.65,173.46L453.06,164.27L453.47,164.27L453.88,166.52L455.11,159.87L455.52,162.32L456.35,164.55L456.76,162.01L457.58,164.56L457.99,174.07L458.4,172.81L458.81,174.17L459.22,174.65L459.63,178.7L460.46,178.65L460.87,177.8L462.1,175.72L462.51,176.87L463.33,176.8L463.75,175.01L467.03,190.42L467.45,190.99L468.68,200.02L469.09,196.78L469.91,191L470.32,179.42L471.15,178.69L471.56,163.23L472.79,127.02L473.2,123.84L475.26,97.15L475.67,87L476.08,77.21L476.49,78.67L476.9,79.8L477.31,80.6L477.72,79.33L478.55,77.04L478.96,81.55L479.78,84.63L480.19,98.48L482.25,143.51L482.66,146.74L484.3,158.48L484.71,158.04L487.59,172.21L488,168.97L488.82,169.34L489.23,168.52L489.65,168.65L490.06,170.02L490.88,162.7L491.29,157.83L491.7,157.62L492.11,158.61L493.35,161.55L493.76,159.65L495.4,126.95L495.81,127.63L496.22,130.51L496.64,127.89L497.05,128.88L497.46,126.91L498.69,117.04L499.1,128.38L500.34,144.9L500.75,147.54L501.16,145.14L501.57,145.41L501.98,145.59L502.39,146.78L502.8,154.69L503.62,166.08L504.04,170.26L505.68,181.3L506.09,188.86L506.91,193.09L507.32,192.48L507.74,193.12L509.79,186.58L510.2,186.01L511.44,178.84L511.85,175.13L517.6,111.12L518.01,107.41L519.66,98.4L520.07,97.73L520.89,103.05L521.3,100.01L524.18,62.02L524.59,63L525,64.36L525.41,65.13L525.82,67.98L527.06,77.06L527.47,84.53L528.7,101.59L529.11,100.65L529.52,97.67L531.17,88.12L531.58,87.33L531.99,89.64L532.4,89.08L532.81,87.73L533.64,92.11L534.05,99.9L537.34,121.67L537.75,126.19L540.21,151.06L540.63,154.5L541.86,164.39L542.27,163.04L542.68,162.67L543.09,163.64L543.5,162.58L546.38,147.29L546.79,146.91L547.2,146.53L547.61,143.01L552.14,101.09L552.55,99.6L552.96,98.8L553.37,99.08L553.78,100.86L555.01,107.13L555.43,111.24L557.89,138.05L558.3,136.96L558.71,137.8L559.13,138.51L559.54,136.84L560.77,129.71L561.18,128.46L561.59,129.84L562,128.87L562.41,128.46L562.83,127.97L563.24,131.62L563.65,132.35L564.06,129.89L565.7,140.79L566.11,141.33L568.17,157.93L568.58,160.79L568.99,166.7L569.4,163.24L569.81,166.48L571.05,172.91L571.46,171.88L571.87,172.83L572.28,172.55L572.69,171.39L573.1,165.98L573.51,166.22L573.93,167.89L575.16,174.83L575.57,174.11L576.39,177.18L576.8,176.86L577.21,177.01L578.86,186.83L579.27,186.71L579.68,186.04L580.09,183.47L581.74,182.72L582.15,182.65L582.56,181.96L582.97,182.34L583.38,182.53L583.79,182.79L584.2,185.05L585.85,194.59L586.26,194.06L587.49,201.35L587.9,199.41L588.73,171.48L589.14,172.15L589.55,171.23L590.78,134.97L591.19,132.46L592.02,127.34L592.43,116.92L592.84,112.23L593.25,114.28L593.66,119.55L594.48,102.75L594.89,105.06L595.3,105.12L596.54,86.59L596.95,83.05L598.18,85.38L598.59,93.16L600.24,130.31L600.65,145.91L603.94,188.45L604.35,188.88L605.17,189.19L605.58,188.15L605.99,190.64L606.4,189.07L606.82,189.05L608.46,192.71L608.87,191.06L609.69,190.29L610.1,191.47L611.34,194.59L611.75,193.91L614.63,164.32L615.04,163.82L616.68,163.41L617.09,168.79L618.74,188.05L619.15,190.43L620.79,195.52L621.21,196.39L624.49,207.87L624.91,208.15L625.73,207.75L626.14,207.71L626.55,207.86L626.96,208.85L628.19,207.53L628.61,207.4L629.02,207.42L629.43,209L636.01,207.38L636.42,207L637.24,205.1L637.65,204.12L638.06,204.69L638.47,203.36L639.29,203.71L639.71,203.13L641.76,202.13L642.17,202.07L644.23,200.52L644.64,199.83L645.46,199.88L645.87,199.69L647.52,189.24L647.93,186.01L648.34,186.55L648.75,184.75L649.16,185.58L649.57,183.16L650.39,180.67L650.81,183.48L654.92,206.84L655.33,206.57L656.97,206.95L657.38,206.98L658.62,205.55L659.03,204.05L660.67,203.41L661.08,203.55L663.55,204.99L663.96,206.7L666.43,207.29L666.84,207.13L668.48,207.14L668.9,206.43L670.13,204.45L670.54,203.89L671.77,202.76L672.18,202.4L673.42,201.82L673.83,202.82L674.24,203.04L674.65,204.37L675.47,204.71L675.88,205.55L676.3,204.53L676.71,199.12L677.94,193.96L678.35,193.83L680.41,191.93L680.82,191.92L681.23,192.52L681.64,197.07L682.87,200.65L683.28,200.5L689.04,205.15L689.45,202.02L692.33,183.62L692.74,177.99L693.15,176.47L693.56,168.95L693.97,167.74L694.38,163.01L695.21,164.64L695.62,164.77L697.26,172.14L697.67,176.85L698.08,177.94L698.5,185.32L698.91,185.61L699.32,191.96L700.55,187.94L700.96,188.25L701.37,188.17L701.78,191.38L703.02,194.33L703.43,193.5L704.25,197.67L704.66,202.07L706.31,206.59L706.72,206.5L707.54,207.14L707.95,206.69L709.19,202.64L709.6,202.47L712.47,192.14L712.89,189.02L713.3,189.35L713.71,186.34L715.35,175.24L715.76,175.07L716.59,176.16L717,170.47L717.41,162.28L717.82,164.33L718.23,166.52L718.64,161.33L719.05,164.1L719.46,165.57L720.7,170.16L721.11,170.04L721.52,170.99L723.99,205.12L724.4,206.07L725.63,207.11L726.04,207L727.27,207.43L727.69,207.77L730.15,207.27L730.56,198.04L732.21,158.49L732.62,154.87L734.67,123.69L735.09,113.31L735.91,106.12L736.32,110.11L738.37,95.41L738.79,94.61L740.02,109.85L740.43,117.98L741.66,126.56L742.07,123.55L742.9,108.15L743.31,97.81L744.95,60.11L745.36,60.16L745.77,61.01L746.19,53.07L746.6,56.45L747.01,62.78L747.83,83.67L748.24,99.57L750.71,175.57L751.12,190.04L752.76,202.39L753.18,201.62L753.59,201.69L754.82,201.51L755.23,201.68L757.29,195.67L757.7,196.73L759.34,193.57L759.75,192.78L760.16,192.66L760.58,189.9L761.81,186.95L762.22,187.01L763.45,189.22L763.86,189.25L764.69,187.15L765.1,189.63L765.92,191.98L766.33,184.07L767.98,171.41L768.39,171.44L769.21,168.74L769.62,163.94L770.85,152.47L771.26,154.37L773.32,162.97L773.73,162.63L776.61,183.13L777.02,183.43L777.84,183.41L778.25,184.43L778.66,184.32L779.08,182L779.49,182.12L779.9,184.02L780.72,190.8L781.13,190.61L781.54,190.99L781.95,191.33L782.36,193.34L782.78,193.29L783.19,194.06L783.6,194.37L784.01,197.44L784.83,199.26L785.24,197.79L786.48,197.2L786.89,197.44L787.3,197.68L787.71,197.02L788.94,196.1L789.35,196.33L789.76,196.13L790.18,196.85L791,197L791.41,196.91L791.82,196.89L792.23,197.82L792.64,197.76L793.05,199.48L794.29,195.14L794.7,195.15L796.75,188.98L797.17,189.58L797.58,188.44L797.99,188.7L798.4,189.01L800.45,191.49L800.87,184.44L802.92,185.95L803.33,186.23L804.15,186.96L804.57,186.04L805.39,185.36L805.8,192.04L807.85,183.23L808.27,182.94L809.09,183.04L809.5,184.49L810.32,185.31L810.73,184.58L813.2,193.23L813.61,193.34L814.02,193.89L814.43,192.64L815.25,191.06L815.67,193.36L817.72,196.51L818.13,195.49L818.95,194.51L819.37,196.61L819.78,198.01L820.19,193.96L821.01,185.78L821.42,185.95L821.83,185.58L822.65,185.99L823.07,187.77L824.3,189L824.71,182.65L825.94,196.52L826.35,194.01L828,170.95L828.41,169.31L829.23,163.63L829.64,160.02L831.29,143.11L831.7,149.62L832.52,152.29L832.93,146.91L834.17,142.02L834.58,147.13L836.22,161.07L836.63,162.87L837.04,164.59L837.46,164.27L837.87,170.51L839.51,178.05L839.92,177.94L841.16,167.87L841.57,168.08L842.39,170.64L842.8,166.93L844.03,161.46L844.44,164.11L845.27,168.37L845.68,166.25L846.5,165.58L846.91,163.7L847.32,163.39L847.73,165.75L848.97,172.23L849.38,170.98L849.79,170.28L850.2,173.09L850.61,178.63L851.02,177.09L851.43,175.38L852.67,164.65L853.08,160.91L854.31,136.42L854.72,137.5L855.54,136.43L855.96,140.67L857.19,149.62L857.6,156.24L858.01,160.62L858.42,173.93L859.24,190.82L859.66,190.99L860.89,193.32L861.3,196.39L862.53,199.11L862.94,199.96L864.59,194.87L865,192.4L866.23,185.98L866.64,180.95L869.93,134.13L870.34,123.51L874.87,39.24L875.28,37.34L875.69,38.64L876.1,38.51L876.51,37.32L877.33,35.06L877.75,37.69L879.39,61.85L879.8,70.06L881.86,85.25L882.27,89.42L883.5,92.55L883.91,90.74L884.32,90.97L884.73,87.36L885.56,86.71L885.97,90.81L887.2,95.31L887.61,94.48L888.02,94.51L888.43,101.13L895.01,159.52L895.42,160.55L895.83,163.11L896.25,162.32L896.66,161.12L900.36,144.71L900.77,142.47L901.18,142.19L901.59,143.28L903.23,144.85L903.65,144L905.7,148.27L906.11,147.12L906.52,147.49L906.93,146.61L908.58,146.51L908.99,148.25L909.81,149.77L910.22,150.93L911.46,159.31L911.87,158.61L912.28,158.48L912.69,159.27L913.1,160.28L913.51,158.65L914.75,146.6L915.16,141.87L916.39,129.81L916.8,131.62L917.21,132.23L917.62,131.59L918.03,130.7L919.27,126.29L919.68,131.49L920.5,139.02L920.91,142.2L921.32,142.44L921.74,144.93L923.79,163.08L924.2,173.76L926.67,195.17L927.08,194.76L927.49,195.25L927.9,191.5L930.37,175.99L930.78,175.6L932.01,171.41L932.42,171.83L934.48,182.14L934.89,181.01L936.12,187.22L936.54,187.46L937.36,185.87L937.77,187.95L938.59,188.24L939,190.7L940.24,197.47L940.65,197.34L941.06,197.62L941.88,201.75" style="vector-effect: none; fill: none; stroke: rgb(99, 110, 250); stroke-opacity: 1; stroke-width: 2px; opacity: 1;"/></g><g class="points"/><g class="text"/></g></g></g><g class="overplot"><g class="xy2" transform="translate(80,100)" clip-path="url(#clipb0e0baxy2plot)"><g class="scatterlayer mlayer"><g class="trace scatter trace41b2a2" style="stroke-miterlimit: 2; opacity: 1;"><g class="fills"/><g class="errorbars"/><g class="lines"><path class="js-line" d="M0,209L119.23,209L119.64,11L127.86,11L128.27,209L941.88,209" style="vector-effect: none; fill: none; stroke: rgb(239, 85, 59); stroke-opacity: 1; stroke-width: 2px; opacity: 1;"/></g><g class="points"/><g class="text"/></g></g></g></g><path class="xlines-above crisp" d="M0,0" style="fill: none;"/><path class="ylines-above crisp" d="M0,0" style="fill: none;"/><g class="overlines-above"><path class="xy2-x crisp" d="M0,0" style="fill: none;"/><path class="xy2-y crisp" d="M0,0" style="fill: none;"/></g><g class="xaxislayer-above"><g class="xtick"><text text-anchor="middle" x="0" y="333" transform="translate(193.47,0)" style="font-family: 'Open Sans', verdana, arial, sans-serif; font-size: 12px; fill: rgb(42, 63, 95); fill-opacity: 1; white-space: pre; opacity: 1;"><tspan class="line" dy="0em" x="0" y="333">Mar 8</tspan><tspan class="line" dy="1.3em" x="0" y="333">2022</tspan></text></g><g class="xtick"><text text-anchor="middle" x="0" y="333" style="font-family: 'Open Sans', verdana, arial, sans-serif; font-size: 12px; fill: rgb(42, 63, 95); fill-opacity: 1; white-space: pre; opacity: 1;" transform="translate(311.87,0)">Mar 9</text></g><g class="xtick"><text text-anchor="middle" x="0" y="333" style="font-family: 'Open Sans', verdana, arial, sans-serif; font-size: 12px; fill: rgb(42, 63, 95); fill-opacity: 1; white-space: pre; opacity: 1;" transform="translate(430.28,0)">Mar 10</text></g><g class="xtick"><text text-anchor="middle" x="0" y="333" style="font-family: 'Open Sans', verdana, arial, sans-serif; font-size: 12px; fill: rgb(42, 63, 95); fill-opacity: 1; white-space: pre; opacity: 1;" transform="translate(548.6800000000001,0)">Mar 11</text></g><g class="xtick"><text text-anchor="middle" x="0" y="333" style="font-family: 'Open Sans', verdana, arial, sans-serif; font-size: 12px; fill: rgb(42, 63, 95); fill-opacity: 1; white-space: pre; opacity: 1;" transform="translate(667.08,0)">Mar 12</text></g><g class="xtick"><text text-anchor="middle" x="0" y="333" style="font-family: 'Open Sans', verdana, arial, sans-serif; font-size: 12px; fill: rgb(42, 63, 95); fill-opacity: 1; white-space: pre; opacity: 1;" transform="translate(785.48,0)">Mar 13</text></g><g class="xtick"><text text-anchor="middle" x="0" y="333" style="font-family: 'Open Sans', verdana, arial, sans-serif; font-size: 12px; fill: rgb(42, 63, 95); fill-opacity: 1; white-space: pre; opacity: 1;" transform="translate(903.89,0)">Mar 14</text></g></g><g class="yaxislayer-above"><g class="ytick"><text text-anchor="end" x="79" y="4.199999999999999" transform="translate(0,319.09000000000003)" style="font-family: 'Open Sans', verdana, arial, sans-serif; font-size: 12px; fill: rgb(42, 63, 95); fill-opacity: 1; white-space: pre; opacity: 1;">0</text></g><g class="ytick"><text text-anchor="end" x="79" y="4.199999999999999" style="font-family: 'Open Sans', verdana, arial, sans-serif; font-size: 12px; fill: rgb(42, 63, 95); fill-opacity: 1; white-space: pre; opacity: 1;" transform="translate(0,282.94)">0.02</text></g><g class="ytick"><text text-anchor="end" x="79" y="4.199999999999999" style="font-family: 'Open Sans', verdana, arial, sans-serif; font-size: 12px; fill: rgb(42, 63, 95); fill-opacity: 1; white-space: pre; opacity: 1;" transform="translate(0,246.79)">0.04</text></g><g class="ytick"><text text-anchor="end" x="79" y="4.199999999999999" style="font-family: 'Open Sans', verdana, arial, sans-serif; font-size: 12px; fill: rgb(42, 63, 95); fill-opacity: 1; white-space: pre; opacity: 1;" transform="translate(0,210.64)">0.06</text></g><g class="ytick"><text text-anchor="end" x="79" y="4.199999999999999" style="font-family: 'Open Sans', verdana, arial, sans-serif; font-size: 12px; fill: rgb(42, 63, 95); fill-opacity: 1; white-space: pre; opacity: 1;" transform="translate(0,174.49)">0.08</text></g><g class="ytick"><text text-anchor="end" x="79" y="4.199999999999999" style="font-family: 'Open Sans', verdana, arial, sans-serif; font-size: 12px; fill: rgb(42, 63, 95); fill-opacity: 1; white-space: pre; opacity: 1;" transform="translate(0,138.35)">0.1</text></g><g class="ytick"><text text-anchor="end" x="79" y="4.199999999999999" style="font-family: 'Open Sans', verdana, arial, sans-serif; font-size: 12px; fill: rgb(42, 63, 95); fill-opacity: 1; white-space: pre; opacity: 1;" transform="translate(0,102.2)">0.12</text></g></g><g class="overaxes-above"><g class="xy2-x"/><g class="xy2-y"><g class="y2tick"><text text-anchor="start" x="1022.88" y="4.199999999999999" transform="translate(0,309)" style="font-family: 'Open Sans', verdana, arial, sans-serif; font-size: 12px; fill: rgb(42, 63, 95); fill-opacity: 1; white-space: pre; opacity: 1;">0</text></g><g class="y2tick"><text text-anchor="start" x="1022.88" y="4.199999999999999" style="font-family: 'Open Sans', verdana, arial, sans-serif; font-size: 12px; fill: rgb(42, 63, 95); fill-opacity: 1; white-space: pre; opacity: 1;" transform="translate(0,269.4)">0.2</text></g><g class="y2tick"><text text-anchor="start" x="1022.88" y="4.199999999999999" style="font-family: 'Open Sans', verdana, arial, sans-serif; font-size: 12px; fill: rgb(42, 63, 95); fill-opacity: 1; white-space: pre; opacity: 1;" transform="translate(0,229.8)">0.4</text></g><g class="y2tick"><text text-anchor="start" x="1022.88" y="4.199999999999999" style="font-family: 'Open Sans', verdana, arial, sans-serif; font-size: 12px; fill: rgb(42, 63, 95); fill-opacity: 1; white-space: pre; opacity: 1;" transform="translate(0,190.2)">0.6</text></g><g class="y2tick"><text text-anchor="start" x="1022.88" y="4.199999999999999" style="font-family: 'Open Sans', verdana, arial, sans-serif; font-size: 12px; fill: rgb(42, 63, 95); fill-opacity: 1; white-space: pre; opacity: 1;" transform="translate(0,150.6)">0.8</text></g><g class="y2tick"><text text-anchor="start" x="1022.88" y="4.199999999999999" style="font-family: 'Open Sans', verdana, arial, sans-serif; font-size: 12px; fill: rgb(42, 63, 95); fill-opacity: 1; white-space: pre; opacity: 1;" transform="translate(0,111)">1</text></g></g></g></g><g class="subplot xy2"/></g><g class="polarlayer"/><g class="smithlayer"/><g class="ternarylayer"/><g class="geolayer"/><g class="funnelarealayer"/><g class="pielayer"/><g class="iciclelayer"/><g class="treemaplayer"/><g class="sunburstlayer"/><g class="glimages"/><defs id="topdefs-b0e0ba"><g class="clips"/><clipPath id="legendb0e0ba"><rect width="86" height="48" x="0" y="0"/></clipPath></defs><g class="layer-above"><g class="imagelayer"/><g class="shapelayer"/></g><g class="infolayer"><g class="legend" pointer-events="all" transform="translate(1102.04,100)"><rect class="bg" shape-rendering="crispEdges" style="stroke: rgb(68, 68, 68); stroke-opacity: 1; fill: rgb(255, 255, 255); fill-opacity: 1; stroke-width: 0px;" width="86" height="48" x="0" y="0"/><g class="scrollbox" transform="" clip-path="url(#legendb0e0ba)"><g class="groups"><g class="traces" transform="translate(0,14.5)" style="opacity: 1;"><text class="legendtext" text-anchor="start" x="40" y="4.680000000000001" style="font-family: 'Open Sans', verdana, arial, sans-serif; font-size: 12px; fill: rgb(42, 63, 95); fill-opacity: 1; white-space: pre;">y_pred</text><g class="layers" style="opacity: 1;"><g class="legendfill"/><g class="legendlines"><path class="js-line" d="M5,0h30" style="fill: none; stroke: rgb(99, 110, 250); stroke-opacity: 1; stroke-width: 2px;"/></g><g class="legendsymbols"><g class="legendpoints"/></g></g><rect class="legendtoggle" x="0" y="-9.5" width="80.390625" height="19" style="fill: rgb(0, 0, 0); fill-opacity: 0;"/></g><g class="traces" transform="translate(0,33.5)" style="opacity: 1;"><text class="legendtext" text-anchor="start" x="40" y="4.680000000000001" style="font-family: 'Open Sans', verdana, arial, sans-serif; font-size: 12px; fill: rgb(42, 63, 95); fill-opacity: 1; white-space: pre;">labels</text><g class="layers" style="opacity: 1;"><g class="legendfill"/><g class="legendlines"><path class="js-line" d="M5,0h30" style="fill: none; stroke: rgb(239, 85, 59); stroke-opacity: 1; stroke-width: 2px;"/></g><g class="legendsymbols"><g class="legendpoints"/></g></g><rect class="legendtoggle" x="0" y="-9.5" width="80.390625" height="19" style="fill: rgb(0, 0, 0); fill-opacity: 0;"/></g></g></g><rect class="scrollbar" rx="20" ry="3" width="0" height="0" style="fill: rgb(128, 139, 164); fill-opacity: 1;" x="0" y="0"/></g><g class="g-gtitle"/><g class="g-xtitle"/><g class="g-ytitle"><text class="ytitle" transform="rotate(-90,27.981250000000003,210)" x="27.981250000000003" y="210" text-anchor="middle" style="font-family: 'Open Sans', verdana, arial, sans-serif; font-size: 14px; fill: rgb(42, 63, 95); opacity: 1; font-weight: normal; white-space: pre;">prediction score</text></g><g class="g-y2title"/></g></svg>