<svg class="main-svg" xmlns="http://www.w3.org/2000/svg" xmlns:xlink="http://www.w3.org/1999/xlink" width="1200" height="400" style="" viewBox="0 0 1200 400"><rect x="0" y="0" width="1200" height="400" style="fill: rgb(255, 255, 255); fill-opacity: 1;"/><defs id="defs-9487ea"><g class="clips"><clipPath id="clip9487eaxyplot" class="plotclip"><rect width="941.88" height="220"/></clipPath><clipPath id="clip9487eaxy2plot" class="plotclip"><rect width="941.88" height="220"/></clipPath><clipPath class="axesclip" id="clip9487eax"><rect x="80" y="0" width="941.88" height="400"/></clipPath><clipPath class="axesclip" id="clip9487eay"><rect x="0" y="100" width="1200" height="220"/></clipPath><clipPath class="axesclip" id="clip9487eaxy"><rect x="80" y="100" width="941.88" height="220"/></clipPath><clipPath class="axesclip" id="clip9487eay2"><rect x="0" y="100" width="1200" height="220"/></clipPath><clipPath class="axesclip" id="clip9487eaxy2"><rect x="80" y="100" width="941.88" height="220"/></clipPath></g><g class="gradients"/><g class="patterns"/></defs><g class="bglayer"><rect class="bg" x="80" y="100" width="941.88" height="220" style="fill: rgb(229, 236, 246); fill-opacity: 1; stroke-width: 0;"/></g><g class="layer-below"><g class="imagelayer"/><g class="shapelayer"/></g><g class="cartesianlayer"><g class="subplot xy"><g class="layer-subplot"><g class="shapelayer"/><g class="imagelayer"/></g><g class="minor-gridlayer"><g class="x"/><g class="y"/><g class="y2"/></g><g class="gridlayer"><g class="x"><path class="xgrid crisp" transform="translate(148.56,0)" d="M0,100v220" style="stroke: rgb(255, 255, 255); stroke-opacity: 1; stroke-width: 1px;"/><path class="xgrid crisp" transform="translate(268.44,0)" d="M0,100v220" style="stroke: rgb(255, 255, 255); stroke-opacity: 1; stroke-width: 1px;"/><path class="xgrid crisp" transform="translate(388.31,0)" d="M0,100v220" style="stroke: rgb(255, 255, 255); stroke-opacity: 1; stroke-width: 1px;"/><path class="xgrid crisp" transform="translate(508.19,0)" d="M0,100v220" style="stroke: rgb(255, 255, 255); stroke-opacity: 1; stroke-width: 1px;"/><path class="xgrid crisp" transform="translate(628.06,0)" d="M0,100v220" style="stroke: rgb(255, 255, 255); stroke-opacity: 1; stroke-width: 1px;"/><path class="xgrid crisp" transform="translate(747.94,0)" d="M0,100v220" style="stroke: rgb(255, 255, 255); stroke-opacity: 1; stroke-width: 1px;"/><path class="xgrid crisp" transform="translate(867.81,0)" d="M0,100v220" style="stroke: rgb(255, 255, 255); stroke-opacity: 1; stroke-width: 1px;"/><path class="xgrid crisp" transform="translate(987.69,0)" d="M0,100v220" style="stroke: rgb(255, 255, 255); stroke-opacity: 1; stroke-width: 1px;"/></g><g class="y"><path class="ygrid crisp" transform="translate(0,270.81)" d="M80,0h941.88" style="stroke: rgb(255, 255, 255); stroke-opacity: 1; stroke-width: 1px;"/><path class="ygrid crisp" transform="translate(0,232.61)" d="M80,0h941.88" style="stroke: rgb(255, 255, 255); stroke-opacity: 1; stroke-width: 1px;"/><path class="ygrid crisp" transform="translate(0,194.41)" d="M80,0h941.88" style="stroke: rgb(255, 255, 255); stroke-opacity: 1; stroke-width: 1px;"/><path class="ygrid crisp" transform="translate(0,156.21)" d="M80,0h941.88" style="stroke: rgb(255, 255, 255); stroke-opacity: 1; stroke-width: 1px;"/><path class="ygrid crisp" transform="translate(0,118.01)" d="M80,0h941.88" style="stroke: rgb(255, 255, 255); stroke-opacity: 1; stroke-width: 1px;"/></g><g class="y2"><path class="y2grid crisp" transform="translate(0,269.4)" d="M80,0h941.88" style="stroke: rgb(255, 255, 255); stroke-opacity: 1; stroke-width: 1px;"/><path class="y2grid crisp" transform="translate(0,229.8)" d="M80,0h941.88" style="stroke: rgb(255, 255, 255); stroke-opacity: 1; stroke-width: 1px;"/><path class="y2grid crisp" transform="translate(0,190.2)" d="M80,0h941.88" style="stroke: rgb(255, 255, 255); stroke-opacity: 1; stroke-width: 1px;"/><path class="y2grid crisp" transform="translate(0,150.6)" d="M80,0h941.88" style="stroke: rgb(255, 255, 255); stroke-opacity: 1; stroke-width: 1px;"/><path class="y2grid crisp" transform="translate(0,111)" d="M80,0h941.88" style="stroke: rgb(255, 255, 255); stroke-opacity: 1; stroke-width: 1px;"/></g></g><g class="zerolinelayer"><path class="yzl zl crisp" transform="translate(0,309.01)" d="M80,0h941.88" style="stroke: rgb(255, 255, 255); stroke-opacity: 1; stroke-width: 2px;"/><path class="y2zl zl crisp" transform="translate(0,309)" d="M80,0h941.88" style="stroke: rgb(255, 255, 255); stroke-opacity: 1; stroke-width: 2px;"/></g><path class="xlines-below"/><path class="ylines-below"/><g class="overlines-below"><path class="xy2-x"/><path class="xy2-y"/></g><g class="xaxislayer-below"/><g class="yaxislayer-below"/><g class="overaxes-below"><g class="xy2-x"/><g class="xy2-y"/></g><g class="plot" transform="translate(80,100)" clip-path="url(#clip9487eaxyplot)"><g class="scatterlayer mlayer"><g class="trace scatter trace013613" style="stroke-miterlimit: 2; opacity: 1;"><g class="fills"/><g class="errorbars"/><g class="lines"><path class="js-line" d="M0,208.94L1.07,208.83L1.13,207.99L1.84,208.96L1.9,208.95L1.96,208.94L5.23,208.95L5.29,208.91L8.68,208.95L8.74,208.87L11.24,208.94L11.3,208.92L14.21,208.99L14.27,208.93L17.78,208.97L17.84,208.91L18.08,208.92L18.14,207.8L18.79,208.99L18.91,208.94L18.97,208.98L22.18,208.94L22.24,208.97L25.81,208.89L25.87,208.94L25.93,208.7L26.58,208.94L26.64,208.96L28.66,208.88L28.72,208.97L31.57,208.97L31.63,208.98L32.47,208.97L32.53,188.87L32.76,208.98L33.3,208.95L33.36,208.98L35.86,208.93L35.92,208.99L42.4,208.93L42.46,208.98L44.48,208.9L44.54,208.94L47.09,208.95L47.15,208.67L47.39,206.98L47.93,208.99L47.99,208.94L49.59,208.96L49.65,205.87L50.36,208.97L50.42,208.96L50.48,208.96L55.78,208.96L55.83,208.97L61.84,208.94L61.9,208.98L66.54,208.96L66.6,208.96L67.97,208.88L68.02,208.97L68.08,208.95L71.71,208.25L71.77,208.73L71.83,208.91L72.66,208.96L72.72,208.94L76.29,208.95L76.35,208.76L76.41,102.8L76.88,208.98L77.06,208.95L77.12,208.94L79.92,208.89L79.98,208.96L86.22,208.96L86.28,208.98L89.79,208.93L89.85,208.96L92.64,208.92L92.7,207.64L92.82,199.56L93.24,208.86L93.47,208.63L93.53,205.44L93.89,205.18L94.07,208.93L94.19,208.45L94.25,196.51L94.78,208.99L95.14,208.95L95.2,208.99L97.04,208.96L97.1,208.98L99.84,208.95L99.9,208.96L105.6,208.93L105.66,208.99L111.91,208.93L111.97,208.99L115.95,208.26L116.01,207.69L116.55,209L116.78,208.95L116.84,208.96L123.32,208.92L123.38,208.98L130.04,208.96L130.1,208.97L134.68,208.93L134.74,208.97L136.29,208.95L136.35,208.96L137.71,208.97L137.77,207.91L138.43,208.98L138.55,208.97L138.61,208.97L141.16,208.99L141.22,208.99L145.27,208.9L145.33,208.98L151.39,208.95L151.45,208.98L157.16,208.96L157.22,208.98L160.96,208.86L161.02,208.98L162.81,208.94L162.87,208.97L163.7,208.92L163.76,208.97L165.01,208.93L165.07,208.96L172.02,208.95L172.08,207.87L172.14,207.68L172.38,208.97L172.5,208.97L172.56,208.95L178.98,208.97L179.04,208.92L180.05,208.98L180.11,208.23L180.82,208.97L180.88,208.94L180.94,208.92L183.2,208.91L183.26,208.9L185.11,208.95L185.17,208.92L189.33,208.94L189.39,208.33L189.74,208.96L190.16,208.52L190.22,208.52L190.58,208.37L190.7,208.86L190.81,208.56L190.87,207.77L190.99,208.97L191.65,208.86L191.71,208.87L191.88,208.55L191.94,208.97L192.42,208.98L192.48,208.95L194.98,208.96L195.04,208.97L205.08,208.92L205.14,208.81L207.11,208.96L207.17,208.93L209.49,208.97L209.54,208.96L212.28,208.87L212.34,207.87L212.7,205.46L212.87,208.92L213.11,208.81L213.17,208.29L213.71,208.95L213.94,208.88L214,208.94L214.84,208.96L214.9,208.94L215.97,208.91L216.03,208.98L225.72,208.98L225.78,208.99L226.91,208.97L226.97,208.98L230.71,208.84L230.77,208.92L230.89,208.39L231.49,208.83L231.55,208.95L232.26,208.88L232.32,208.96L232.38,208.94L238.74,208.95L238.8,208.98L244.75,208.96L244.81,208.98L248.14,208.92L248.19,208.96L250.16,208.95L250.22,208.98L257.65,208.9L257.71,207.9L258.24,208.97L258.48,208.93L258.54,208.93L270.97,208.93L271.03,208.99L275.67,208.97L275.73,208.98L280.13,208.94L280.19,208.96L331.68,208.65L331.74,208.04L331.86,11L331.98,183.57L332.04,186.95L332.21,158.4L332.33,206.66L332.63,181.98L332.69,121.93L333.34,208.36L333.52,186.82L333.58,206.4L334.12,208.87L334.36,208.68L334.41,208.91L343.27,208.96L343.33,206.86L343.81,208.99L344.11,208.93L344.17,208.95L356.83,208.96L356.89,208.98L361.41,208.95L361.47,208.97L372.65,208.96L372.71,208.21L373.6,208.95L373.66,208.93L376.16,208.99L376.22,208.97L378.18,208.95L378.24,208.95L385.02,208.87L385.08,208.97L386.92,208.96L386.98,208.99L390.07,208.84L390.13,208.96L394.71,208.87L394.77,208.61L395.6,208.93L395.66,208.94L452.39,208.53L452.45,208.01L452.63,207.68L453.28,208.88L453.34,208.75L454.17,208.94L454.23,208.93L457.86,208.97L457.92,208.92L469.51,208.87L469.57,207.89L470.4,208.91L470.46,208.95L480.28,208.92L480.34,207.8L481.05,208.97L481.11,208.94L481.17,208.98L485.75,208.87L485.81,208.97L496.39,208.94L496.45,208.98L497.52,208.79L497.58,207.53L498.05,208.99L498.35,208.96L498.41,208.97L509.53,208.96L509.59,208.82L510.9,208.97L510.96,208.9L513.4,208.96L513.46,208.94L523.92,208.93L523.98,208.99L527.61,208.95L527.67,208.96L531.65,208.76L531.71,208.53L532.54,208.96L532.6,208.93L545.62,208.94L545.68,208.94L549.85,208.83L549.91,208.62L550.5,208.98L550.74,208.85L550.8,208.68L550.98,208.9L551.21,207.96L551.57,208.5L551.63,208.99L555.02,208.96L555.08,208.97L567.45,208.91L567.51,208.9L569.41,208.98L569.47,208.95L571.85,208.53L571.91,208.26L572.56,208.9L572.74,208.79L572.8,208.71L573.39,208.32L573.57,208.92L573.63,208.81L573.69,208.82L583.03,208.94L583.09,208.09L583.86,208.96L583.92,208.93L583.98,208.93L586.89,208.97L586.95,208.91L589.03,208.95L589.09,208.75L589.51,208.85L589.57,208.02L590.34,208.95L590.4,208.93L590.99,208.79L591.17,208.97L591.23,208.89L593.31,208.83L593.37,208.53L594.09,208.95L594.15,208.84L594.2,208.91L597.77,208.95L597.83,208.94L600.15,208.92L600.21,207.85L600.86,208.99L600.98,208.95L601.04,208.95L612.58,208.94L612.64,208.85L613.89,208.98L613.95,208.95L620.13,208.96L620.19,208.9L623.1,208.94L623.16,208.93L627.27,208.93L627.33,208.98L630,208.93L630.06,208.97L632.14,208.95L632.2,208.95L636.48,208.96L636.54,208.91L639.1,208.97L639.16,208.99L642.73,208.82L642.79,208.96L651.59,208.76L651.65,208.48L652.36,208.97L652.42,208.96L652.48,208.94L656.88,208.97L656.94,208.92L663.84,208.94L663.89,208.88L665.44,209L665.5,208.95L678.05,208.96L678.11,208.98L682.45,208.97L682.51,208.99L686.79,208.94L686.85,208.99L691.78,208.32L691.84,207.21L691.9,208.24L692.2,205.38L692.26,198.19L692.73,208.55L693.09,207.95L693.15,208.08L693.51,207.73L693.69,208.82L693.74,208.26L693.8,206.56L694.58,208.96L694.64,208.98L698.38,208.85L698.44,208.94L700.17,208.97L700.23,208.97L702.54,208.56L702.6,206.83L703.14,204.21L703.38,208.96L703.44,208.85L704.09,208.88L704.15,208.34L704.69,208.97L704.92,208.94L704.98,208.93L706.35,208.86L706.41,208.98L707.24,208.97L707.3,208.98L708.91,208.67L708.97,207.95L709.15,208.92L709.5,207.89L709.74,208.79L709.8,208.28L709.92,208.92L710.04,205.25L710.57,208.54L710.63,208.32L710.81,208.18L710.99,208.88L711.05,207.48L711.82,208.96L711.94,208.92L712,208.92L713.84,208.91L713.9,208.91L716.22,208.87L716.28,208.49L717.11,208.94L717.17,208.83L718.36,208.93L718.42,208.87L720.09,208.72L720.15,206.37L720.21,200.57L720.38,208.97L720.86,208.94L720.92,208.94L723.18,208.86L723.24,208.16L723.3,207.69L723.59,208.96L723.89,208.94L723.95,208.92L726.45,208.8L726.51,208.24L726.69,208.89L726.81,208.03L727.28,208.75L727.34,208.61L727.64,208.91L727.88,208.26L728.05,208.65L728.11,208.94L729.01,208.9L729.07,208.89L732.28,208.95L732.34,208.16L733.17,208.93L733.23,208.93L733.88,208.89L734,208.95L734.06,208.95L734.24,208.84L734.3,199.66L734.95,208.97L735.07,208.95L735.13,208.96L736.74,208.94L736.8,208.21L736.85,199.97L736.97,208.96L737.51,208.79L737.57,208.84L737.69,208.94L737.87,207.95L738.28,208.9L738.34,208.95L743.16,208.82L743.22,208.24L743.87,208.88L743.93,207.94L743.99,207.91L744.82,208.92L744.88,208.89L745.6,208.81L745.66,208.9L745.71,208.95L746.73,208.86L746.78,208.94L746.84,208.98L749.46,208.71L749.52,208.05L750.11,208.98L750.29,208.96L750.35,208.92L754.28,208.96L754.34,207.71L755.05,208.96L755.11,208.94L755.17,208.99L756.83,208.96L756.89,208.98L759.69,208.96L759.75,208.97L761.12,208.79L761.17,208.92L761.41,208.3L761.89,208.91L761.95,208.98L762.78,208.89L762.84,208.95L771.4,208.89L771.46,208.58L772.35,208.96L772.41,208.97L779.13,208.97L779.19,208.99L783.89,208.94L783.95,208.96L789.84,208.94L789.89,208.85L792.09,208.93L792.15,208.88L794.3,208.96L794.35,208.88L796.32,208.96L796.38,208.93L799.71,208.96L799.77,208.92L802.44,208.95L802.5,208.94L806.07,208.97L806.13,208.97L811.96,208.78L812.01,208.01L812.37,208.92L812.79,204.97L812.85,208.76L813.38,208.9L813.44,208.4L813.5,205.46L814.16,208.96L814.27,208.93L814.33,208.9L817.31,208.97L817.37,208.95L819.15,208.97L819.21,208.25L819.8,208.97L819.98,208.58L820.04,208.88L822.9,208.88L822.96,200.88L823.25,208.97L823.55,188.34L823.73,208.19L823.79,208.85L823.97,208.93L824.56,208.92L824.62,208.95L825.63,208.96L825.69,206.81L825.75,208.98L826.46,208.91L826.52,208.92L829.08,208.8L829.14,208.34L829.67,208.08L830.03,208.82L830.09,208.8L831.16,208.89L831.22,208.88L833.78,208.97L833.84,208.95L839.96,208.71L840.02,208.46L840.85,208.98L840.91,208.97L843.23,208.97L843.29,208.98L846.92,208.79L846.98,208.94L849.18,208.93L849.24,208.98L850.72,208.93L850.78,208.95L856.61,208.98L856.67,208.82L857.27,208.96L857.32,208.28L857.38,203.72L858.04,208.98L858.1,208.89L859.88,208.88L859.94,208.88L862.44,208.97L862.5,208.95L863.39,208.72L863.45,206.59L863.75,208.92L864.4,208.7L864.46,208.87L865.23,207.4L865.29,208.74L866.13,208.97L866.18,208.9L868.68,208.95L868.74,208.94L873.8,208.77L873.86,208.75L874.33,208.52L874.63,208.95L874.69,208.97L880.1,208.86L880.16,208.7L880.87,208.95L880.93,208.85L880.99,208.76L881.11,208.02L881.23,208.88L881.29,205.54L881.59,208.96L882.06,208.79L882.12,208.11L882.83,208.99L882.89,208.92L882.95,208.97L885.81,208.94L885.87,208.95L899.25,208.99L899.31,208.93L909.59,208.86L909.65,208.78L910.96,208.85L911.02,208.82L914.77,208.95L914.82,208.95L927.61,208.95L927.67,208.99L931.89,208.58L931.95,207.84L932.01,208.1L932.07,204.56L932.72,208.91L932.84,208.87L932.9,208.86L933.44,208.75L933.67,208.91L933.73,208.87L937.42,208.98L937.48,208.91L941.7,208.9L941.76,208.96" style="vector-effect: none; fill: none; stroke: rgb(99, 110, 250); stroke-opacity: 1; stroke-width: 2px; opacity: 1;"/></g><g class="points"/><g class="text"/></g></g></g><g class="overplot"><g class="xy2" transform="translate(80,100)" clip-path="url(#clip9487eaxy2plot)"><g class="scatterlayer mlayer"><g class="trace scatter trace007eae" style="stroke-miterlimit: 2; opacity: 1;"><g class="fills"/><g class="errorbars"/><g class="lines"><path class="js-line" d="M0,209L32.47,209L32.53,11L33.3,209L33.36,209L76.35,209L76.41,11L77.18,209L77.24,209L92.76,209L92.82,11L93.59,209L93.65,209L94.19,209L94.25,11L95.08,209L95.14,209L331.74,209L331.8,11L332.27,11L332.33,209L333.05,11L333.11,209L333.46,209L333.52,11L334.3,209L334.36,209L692.2,209L692.26,11L693.03,209L693.09,209L720.15,209L720.21,11L720.98,209L721.04,209L734.24,209L734.3,11L735.07,209L735.13,209L736.8,209L736.85,11L737.63,209L737.69,209L823.49,209L823.55,11L824.32,209L824.38,209L941.88,209" style="vector-effect: none; fill: none; stroke: rgb(239, 85, 59); stroke-opacity: 1; stroke-width: 2px; opacity: 1;"/></g><g class="points"/><g class="text"/></g></g></g></g><path class="xlines-above crisp" d="M0,0" style="fill: none;"/><path class="ylines-above crisp" d="M0,0" style="fill: none;"/><g class="overlines-above"><path class="xy2-x crisp" d="M0,0" style="fill: none;"/><path class="xy2-y crisp" d="M0,0" style="fill: none;"/></g><g class="xaxislayer-above"><g class="xtick"><text text-anchor="middle" x="0" y="333" transform="translate(148.56,0)" style="font-family: 'Open Sans', verdana, arial, sans-serif; font-size: 12px; fill: rgb(42, 63, 95); fill-opacity: 1; white-space: pre; opacity: 1;"><tspan class="line" dy="0em" x="0" y="333">Jan 23</tspan><tspan class="line" dy="1.3em" x="0" y="333">2022</tspan></text></g><g class="xtick"><text text-anchor="middle" x="0" y="333" style="font-family: 'Open Sans', verdana, arial, sans-serif; font-size: 12px; fill: rgb(42, 63, 95); fill-opacity: 1; white-space: pre; opacity: 1;" transform="translate(268.44,0)">Jan 30</text></g><g class="xtick"><text text-anchor="middle" x="0" y="333" style="font-family: 'Open Sans', verdana, arial, sans-serif; font-size: 12px; fill: rgb(42, 63, 95); fill-opacity: 1; white-space: pre; opacity: 1;" transform="translate(388.31,0)">Feb 6</text></g><g class="xtick"><text text-anchor="middle" x="0" y="333" style="font-family: 'Open Sans', verdana, arial, sans-serif; font-size: 12px; fill: rgb(42, 63, 95); fill-opacity: 1; white-space: pre; opacity: 1;" transform="translate(508.19,0)">Feb 13</text></g><g class="xtick"><text text-anchor="middle" x="0" y="333" style="font-family: 'Open Sans', verdana, arial, sans-serif; font-size: 12px; fill: rgb(42, 63, 95); fill-opacity: 1; white-space: pre; opacity: 1;" transform="translate(628.06,0)">Feb 20</text></g><g class="xtick"><text text-anchor="middle" x="0" y="333" style="font-family: 'Open Sans', verdana, arial, sans-serif; font-size: 12px; fill: rgb(42, 63, 95); fill-opacity: 1; white-space: pre; opacity: 1;" transform="translate(747.94,0)">Feb 27</text></g><g class="xtick"><text text-anchor="middle" x="0" y="333" style="font-family: 'Open Sans', verdana, arial, sans-serif; font-size: 12px; fill: rgb(42, 63, 95); fill-opacity: 1; white-space: pre; opacity: 1;" transform="translate(867.81,0)">Mar 6</text></g><g class="xtick"><text text-anchor="middle" x="0" y="333" style="font-family: 'Open Sans', verdana, arial, sans-serif; font-size: 12px; fill: rgb(42, 63, 95); fill-opacity: 1; white-space: pre; opacity: 1;" transform="translate(987.69,0)">Mar 13</text></g></g><g class="yaxislayer-above"><g class="ytick"><text text-anchor="end" x="79" y="4.199999999999999" transform="translate(0,309.01)" style="font-family: 'Open Sans', verdana, arial, sans-serif; font-size: 12px; fill: rgb(42, 63, 95); fill-opacity: 1; white-space: pre; opacity: 1;">0</text></g><g class="ytick"><text text-anchor="end" x="79" y="4.199999999999999" style="font-family: 'Open Sans', verdana, arial, sans-serif; font-size: 12px; fill: rgb(42, 63, 95); fill-opacity: 1; white-space: pre; opacity: 1;" transform="translate(0,270.81)">500</text></g><g class="ytick"><text text-anchor="end" x="79" y="4.199999999999999" style="font-family: 'Open Sans', verdana, arial, sans-serif; font-size: 12px; fill: rgb(42, 63, 95); fill-opacity: 1; white-space: pre; opacity: 1;" transform="translate(0,232.61)">1000</text></g><g class="ytick"><text text-anchor="end" x="79" y="4.199999999999999" style="font-family: 'Open Sans', verdana, arial, sans-serif; font-size: 12px; fill: rgb(42, 63, 95); fill-opacity: 1; white-space: pre; opacity: 1;" transform="translate(0,194.41)">1500</text></g><g class="ytick"><text text-anchor="end" x="79" y="4.199999999999999" style="font-family: 'Open Sans', verdana, arial, sans-serif; font-size: 12px; fill: rgb(42, 63, 95); fill-opacity: 1; white-space: pre; opacity: 1;" transform="translate(0,156.21)">2000</text></g><g class="ytick"><text text-anchor="end" x="79" y="4.199999999999999" style="font-family: 'Open Sans', verdana, arial, sans-serif; font-size: 12px; fill: rgb(42, 63, 95); fill-opacity: 1; white-space: pre; opacity: 1;" transform="translate(0,118.01)">2500</text></g></g><g class="overaxes-above"><g class="xy2-x"/><g class="xy2-y"><g class="y2tick"><text text-anchor="start" x="1022.88" y="4.199999999999999" transform="translate(0,309)" style="font-family: 'Open Sans', verdana, arial, sans-serif; font-size: 12px; fill: rgb(42, 63, 95); fill-opacity: 1; white-space: pre; opacity: 1;">0</text></g><g class="y2tick"><text text-anchor="start" x="1022.88" y="4.199999999999999" style="font-family: 'Open Sans', verdana, arial, sans-serif; font-size: 12px; fill: rgb(42, 63, 95); fill-opacity: 1; white-space: pre; opacity: 1;" transform="translate(0,269.4)">0.2</text></g><g class="y2tick"><text text-anchor="start" x="1022.88" y="4.199999999999999" style="font-family: 'Open Sans', verdana, arial, sans-serif; font-size: 12px; fill: rgb(42, 63, 95); fill-opacity: 1; white-space: pre; opacity: 1;" transform="translate(0,229.8)">0.4</text></g><g class="y2tick"><text text-anchor="start" x="1022.88" y="4.199999999999999" style="font-family: 'Open Sans', verdana, arial, sans-serif; font-size: 12px; fill: rgb(42, 63, 95); fill-opacity: 1; white-space: pre; opacity: 1;" transform="translate(0,190.2)">0.6</text></g><g class="y2tick"><text text-anchor="start" x="1022.88" y="4.199999999999999" style="font-family: 'Open Sans', verdana, arial, sans-serif; font-size: 12px; fill: rgb(42, 63, 95); fill-opacity: 1; white-space: pre; opacity: 1;" transform="translate(0,150.6)">0.8</text></g><g class="y2tick"><text text-anchor="start" x="1022.88" y="4.199999999999999" style="font-family: 'Open Sans', verdana, arial, sans-serif; font-size: 12px; fill: rgb(42, 63, 95); fill-opacity: 1; white-space: pre; opacity: 1;" transform="translate(0,111)">1</text></g></g></g></g><g class="subplot xy2"/></g><g class="polarlayer"/><g class="smithlayer"/><g class="ternarylayer"/><g class="geolayer"/><g class="funnelarealayer"/><g class="pielayer"/><g class="iciclelayer"/><g class="treemaplayer"/><g class="sunburstlayer"/><g class="glimages"/><defs id="topdefs-9487ea"><g class="clips"/><clipPath id="legend9487ea"><rect width="86" height="48" x="0" y="0"/></clipPath></defs><g class="layer-above"><g class="imagelayer"/><g class="shapelayer"/></g><g class="infolayer"><g class="legend" pointer-events="all" transform="translate(1102.04,100)"><rect class="bg" shape-rendering="crispEdges" style="stroke: rgb(68, 68, 68); stroke-opacity: 1; fill: rgb(255, 255, 255); fill-opacity: 1; stroke-width: 0px;" width="86" height="48" x="0" y="0"/><g class="scrollbox" transform="" clip-path="url(#legend9487ea)"><g class="groups"><g class="traces" transform="translate(0,14.5)" style="opacity: 1;"><text class="legendtext" text-anchor="start" x="40" y="4.680000000000001" style="font-family: 'Open Sans', verdana, arial, sans-serif; font-size: 12px; fill: rgb(42, 63, 95); fill-opacity: 1; white-space: pre;">y_pred</text><g class="layers" style="opacity: 1;"><g class="legendfill"/><g class="legendlines"><path class="js-line" d="M5,0h30" style="fill: none; stroke: rgb(99, 110, 250); stroke-opacity: 1; stroke-width: 2px;"/></g><g class="legendsymbols"><g class="legendpoints"/></g></g><rect class="legendtoggle" x="0" y="-9.5" width="80.390625" height="19" style="fill: rgb(0, 0, 0); fill-opacity: 0;"/></g><g class="traces" transform="translate(0,33.5)" style="opacity: 1;"><text class="legendtext" text-anchor="start" x="40" y="4.680000000000001" style="font-family: 'Open Sans', verdana, arial, sans-serif; font-size: 12px; fill: rgb(42, 63, 95); fill-opacity: 1; white-space: pre;">labels</text><g class="layers" style="opacity: 1;"><g class="legendfill"/><g class="legendlines"><path class="js-line" d="M5,0h30" style="fill: none; stroke: rgb(239, 85, 59); stroke-opacity: 1; stroke-width: 2px;"/></g><g class="legendsymbols"><g class="legendpoints"/></g></g><rect class="legendtoggle" x="0" y="-9.5" width="80.390625" height="19" style="fill: rgb(0, 0, 0); fill-opacity: 0;"/></g></g></g><rect class="scrollbar" rx="20" ry="3" width="0" height="0" style="fill: rgb(128, 139, 164); fill-opacity: 1;" x="0" y="0"/></g><g class="g-gtitle"/><g class="g-xtitle"/><g class="g-ytitle"><text class="ytitle" transform="rotate(-90,24.153125000000003,210)" x="24.153125000000003" y="210" text-anchor="middle" style="font-family: 'Open Sans', verdana, arial, sans-serif; font-size: 14px; fill: rgb(42, 63, 95); opacity: 1; font-weight: normal; white-space: pre;">prediction score</text></g><g class="g-y2title"/></g></svg>