<svg class="main-svg" xmlns="http://www.w3.org/2000/svg" xmlns:xlink="http://www.w3.org/1999/xlink" width="1200" height="400" style="" viewBox="0 0 1200 400"><rect x="0" y="0" width="1200" height="400" style="fill: rgb(255, 255, 255); fill-opacity: 1;"/><defs id="defs-ef8d89"><g class="clips"><clipPath id="clipef8d89xyplot" class="plotclip"><rect width="473.09999999999997" height="220"/></clipPath><clipPath id="clipef8d89x2y2plot" class="plotclip"><rect width="473.09999999999997" height="220"/></clipPath><clipPath class="axesclip" id="clipef8d89x"><rect x="80" y="0" width="473.09999999999997" height="400"/></clipPath><clipPath class="axesclip" id="clipef8d89y"><rect x="0" y="100" width="1200" height="220"/></clipPath><clipPath class="axesclip" id="clipef8d89xy"><rect x="80" y="100" width="473.09999999999997" height="220"/></clipPath><clipPath class="axesclip" id="clipef8d89y2"><rect x="0" y="100" width="1200" height="220"/></clipPath><clipPath class="axesclip" id="clipef8d89xy2"><rect x="80" y="100" width="473.09999999999997" height="220"/></clipPath><clipPath class="axesclip" id="clipef8d89x2"><rect x="602.9" y="0" width="473.09999999999997" height="400"/></clipPath><clipPath class="axesclip" id="clipef8d89x2y"><rect x="602.9" y="100" width="473.09999999999997" height="220"/></clipPath><clipPath class="axesclip" id="clipef8d89x2y2"><rect x="602.9" y="100" width="473.09999999999997" height="220"/></clipPath></g><g class="gradients"/><g class="patterns"/></defs><g class="bglayer"><rect class="bg" x="80" y="100" width="473.09999999999997" height="220" style="fill: rgb(229, 236, 246); fill-opacity: 1; stroke-width: 0;"/><rect class="bg" x="602.9" y="100" width="473.09999999999997" height="220" style="fill: rgb(229, 236, 246); fill-opacity: 1; stroke-width: 0;"/></g><g class="layer-below"><g class="imagelayer"/><g class="shapelayer"/></g><g class="cartesianlayer"><g class="subplot xy"><g class="layer-subplot"><g class="shapelayer"/><g class="imagelayer"/></g><g class="minor-gridlayer"><g class="x"/><g class="y"/></g><g class="gridlayer"><g class="x"><path class="xgrid crisp" transform="translate(167.99,0)" d="M0,100v220" style="stroke: rgb(255, 255, 255); stroke-opacity: 1; stroke-width: 1px;"/><path class="xgrid crisp" transform="translate(323.45,0)" d="M0,100v220" style="stroke: rgb(255, 255, 255); stroke-opacity: 1; stroke-width: 1px;"/><path class="xgrid crisp" transform="translate(478.92,0)" d="M0,100v220" style="stroke: rgb(255, 255, 255); stroke-opacity: 1; stroke-width: 1px;"/></g><g class="y"><path class="ygrid crisp" transform="translate(0,268.37)" d="M80,0h473.09999999999997" style="stroke: rgb(255, 255, 255); stroke-opacity: 1; stroke-width: 1px;"/><path class="ygrid crisp" transform="translate(0,227.74)" d="M80,0h473.09999999999997" style="stroke: rgb(255, 255, 255); stroke-opacity: 1; stroke-width: 1px;"/><path class="ygrid crisp" transform="translate(0,187.12)" d="M80,0h473.09999999999997" style="stroke: rgb(255, 255, 255); stroke-opacity: 1; stroke-width: 1px;"/><path class="ygrid crisp" transform="translate(0,146.49)" d="M80,0h473.09999999999997" style="stroke: rgb(255, 255, 255); stroke-opacity: 1; stroke-width: 1px;"/><path class="ygrid crisp" transform="translate(0,105.86)" d="M80,0h473.09999999999997" style="stroke: rgb(255, 255, 255); stroke-opacity: 1; stroke-width: 1px;"/></g></g><g class="zerolinelayer"><path class="yzl zl crisp" transform="translate(0,309)" d="M80,0h473.09999999999997" style="stroke: rgb(255, 255, 255); stroke-opacity: 1; stroke-width: 2px;"/></g><path class="xlines-below"/><path class="ylines-below"/><g class="overlines-below"/><g class="xaxislayer-below"/><g class="yaxislayer-below"/><g class="overaxes-below"/><g class="plot" transform="translate(80,100)" clip-path="url(#clipef8d89xyplot)"><g class="scatterlayer mlayer"><g class="trace scatter trace3cabcd" style="stroke-miterlimit: 2; opacity: 1;"><g class="fills"/><g class="errorbars"/><g class="lines"><path class="js-line" d="M0,94.06L0.93,131.67L1.16,127.05L1.23,125.77L2.54,92.89L2.62,94.48L2.7,96.16L3.39,101.75L3.47,100.57L3.55,98.93L4.16,91.36L4.32,96.05L4.4,98.95L4.78,118.36L5.24,108.5L5.32,103.17L6.25,53.24L6.48,59.07L6.55,61.11L9.02,118.59L9.1,118.48L10.33,112.32L10.56,113.6L10.64,114.45L11.34,112.86L11.41,111.39L12.11,100.46L12.65,101.87L12.72,103.12L13.57,111.51L13.65,110.36L13.73,109.46L14.88,99.51L14.96,99.81L15.35,98.62L15.42,97.45L15.73,94.66L15.96,96.96L16.04,98.53L16.81,121.17L17.2,115.46L17.27,112.98L18.28,75.86L18.82,78.28L18.89,78.33L19.28,78.94L19.9,74.33L19.97,74.91L20.2,74.23L20.36,75.98L20.44,73.83L21.52,39.36L21.82,48.39L21.9,56.87L23.13,143.69L23.37,141.61L23.44,141.62L24.75,98.81L24.91,103.47L24.99,105.86L25.06,106.9L25.29,99.98L25.37,97.39L25.68,100.25L25.83,96.03L25.91,92.17L26.06,88.94L26.53,93.48L26.6,95.57L26.99,115.49L27.45,109.26L27.53,103.53L28.46,57.26L28.69,60.26L28.76,61.07L31.15,117.13L31.23,117.58L31.46,116.86L31.54,115.96L32.31,111.26L32.62,112.88L32.7,113.41L33.31,119.63L33.54,117.82L33.62,117.02L34.47,102.57L34.55,100.13L34.93,93.27L35.32,97.2L35.4,98.93L35.78,104.51L36.24,103.73L36.32,102.64L36.4,102.87L36.63,101.51L36.71,100.82L36.94,101.85L37.17,101.38L37.25,100.77L37.86,94.97L38.09,96.27L38.17,98.43L39.1,124.81L39.48,121.41L39.56,118.8L41.26,93.18L41.33,92.99L43.49,62.39L43.57,60.49L43.88,68.91L44.03,68.6L44.11,76.04L45.34,136.68L45.5,133.97L45.57,130.64L46.35,106.62L46.73,112.14L46.81,111.31L48.27,101.75L48.35,101.97L48.43,102.52L48.58,99.75L48.74,102.98L48.81,105.61L49.2,121.21L49.66,117.31L49.74,114.27L50.9,59.74L51.2,63.43L51.28,65.08L53.21,120.05L53.44,119.56L53.52,119.44L53.75,119.18L53.9,120.33L53.98,121.01L54.13,122.2L54.6,120.18L54.67,120.21L54.98,119.23L55.21,120.01L55.29,120.25L55.6,120.96L55.75,119.4L55.83,118.87L56.68,102.33L56.76,99.8L57.14,92.07L57.6,97.21L57.68,98.89L57.99,103.98L58.53,101.57L58.61,101.25L59.53,99.27L59.61,98.7L60,92.31L60.3,95.65L60.38,97.97L61,122.8L61.46,116.06L61.54,113.67L63,83.15L63.08,82.93L63.31,79.35L63.39,77.3L63.54,77.43L64.31,69.2L64.55,70.03L64.62,72.14L64.78,74.99L65.16,69.16L65.24,67.43L65.93,41.65L66.16,53.13L66.24,56.4L67.17,125.49L67.55,121.79L67.63,122.06L67.71,121.78L67.78,118.48L69.02,90.61L69.09,89.26L69.56,80.68L69.63,79.03L70.71,53.53L70.87,62.22L70.95,67.04L71.56,91.79L71.79,83.68L71.87,76.81L72.8,25.62L73.03,33.54L73.1,33.91L73.8,46.08L74.26,42.96L74.34,43.72L75.11,56.9L75.19,61.35L76.04,87.16L76.19,81.83L76.27,80.13L78.04,57.76L78.12,57.22L78.35,56.42L78.5,57.37L78.81,57.38L78.89,57.72L79.27,58.4L79.43,57L79.51,56.81L79.66,57.09L79.89,55.56L79.97,55.32L81.51,50.43L81.59,51.25L82.59,69.72L82.67,73.74L83.21,94.75L83.59,84.6L83.67,82.3L84.6,76.44L84.67,76.83L84.75,77.55L85.06,75.02L85.13,73.17L85.21,72.82L85.29,74.84L85.37,76.33L85.75,78.79L86.06,75.75L86.14,75.75L88.07,35.43L88.37,35.63L88.45,35.78L89.07,57.53L89.53,53.17L89.61,51.32L89.68,51.14L89.76,48.68L89.92,44.14L90.38,52.67L90.46,54.48L90.61,58.7L91,46.95L91.07,45.19L92.08,11L92.31,13.34L92.38,14.5L92.62,16.89L92.69,22.4L94.23,113.92L94.39,112.2L94.47,110.42L94.85,103.02L95.39,104.05L95.47,104.6L95.93,94.63L96.01,91.34L97.16,45.18L97.4,52.82L97.47,55.11L98.55,68.98L98.78,68.05L98.86,67.91L99.32,64.45L99.4,68.06L99.48,72.27L100.63,88.29L100.79,86.15L100.87,84.93L102.79,47.54L102.87,47.84L102.95,47.73L103.26,45.71L103.57,47.16L103.64,47.53L105.26,80.13L105.34,82.69L105.49,82.25L105.57,83.55L105.65,82.46L105.72,80.17L107.5,54.42L107.58,53.29L108.27,44.58L108.5,48.48L108.58,50.48L109.35,59.45L109.58,57.96L109.66,56.4L110.43,36.72L110.66,40.3L110.74,47.79L111.59,103.97L112.05,103.3L112.13,102.77L112.97,90.06L113.13,94.07L113.2,96.46L113.44,101.93L113.9,99.51L113.98,97.08L114.9,79.16L115.06,81.28L115.13,81.79L115.83,91.34L116.06,88.07L116.14,85.96L117.37,48.58L117.68,55.03L117.75,57.72L120.38,128.79L120.45,129.29L120.84,130.91L121.15,129.09L121.22,128.09L123.69,96.55L124,99.01L124.08,99.54L124.39,102.26L124.46,103.22L125.16,106.14L125.31,105.78L125.39,105.91L125.7,107.49L126.01,106.37L126.08,105.24L126.62,95.54L126.93,99.48L127.01,102.64L127.55,121.87L128.01,114.02L128.09,110.75L129.63,77.85L129.78,79.69L129.86,79.77L130.86,69.84L130.94,70.48L131.02,73.2L131.56,73.78L132.17,55.23L132.25,50.13L132.56,43.25L132.87,55.99L132.95,64.61L133.72,129.43L134.1,127.43L134.18,125.61L134.41,124.65L134.49,122.44L135.72,108.29L135.8,107.54L136.11,109.39L136.88,95.29L136.96,90.36L137.26,85.68L137.57,93.23L137.65,96.04L138.19,118.22L138.58,110.15L138.65,107.1L139.81,71.22L140.19,72.18L140.27,74.2L142.2,123.1L142.28,123.58L142.43,124.62L142.74,123.29L142.82,122.66L143.36,120.19L143.67,121.34L143.74,121.64L144.74,115.11L144.82,113.98L145.36,110.86L145.59,112.67L145.67,113.41L146.29,115.78L146.44,114.03L146.52,113.11L149.06,93.82L149.14,94.07L149.22,96.51L150.07,123.7L150.45,118.93L150.53,117.77L151.38,93.36L151.45,89.5L151.61,85.3L152.22,87.27L152.3,86.24L152.38,86.99L152.61,83.92L152.69,82.55L154.08,62.31L154.15,58.11L154.69,40.91L154.92,51.67L155,53.8L155.46,97.36L155.54,103.24L156.23,129.38L156.54,125.7L156.62,124.67L157.47,112.59L157.62,115.09L157.7,117.3L157.78,118.24L158.09,114.27L158.16,114.42L158.24,113.46L158.39,110.9L158.47,108.44L159.55,79.8L159.78,84.14L159.86,87.51L160.48,117.47L160.78,109.92L160.86,105.16L161.86,55.7L162.1,60.11L162.17,61.01L162.48,67.75L162.56,69.83L164.25,113.72L164.33,113.43L164.41,113.42L165.18,119.88L165.41,117.73L165.49,116.83L165.8,115.65L166.18,116.79L166.26,117.38L166.49,118.61L166.8,117.49L166.88,116.65L168.34,96.9L168.57,98.17L168.65,99.01L169.5,106.2L169.65,105.41L169.73,104.95L170.96,94.63L171.04,93.06L171.43,97.64L171.5,100.75L172.27,124.17L172.58,119.84L172.66,117.69L173.82,82.98L174.05,83.89L174.13,84.69L174.2,86.28L174.59,79.88L174.67,79.59L175.36,71.51L175.74,71.94L175.82,73.24L175.9,74.05L175.98,71.25L176.05,66.96L176.75,44.56L176.82,40.63L176.9,38.22L177.13,49.49L177.21,48.81L177.29,49.91L178.21,134.88L178.6,131.88L178.68,130.94L180.22,93.39L180.45,98.87L180.53,100.11L180.6,98.36L181.07,104.47L181.14,104.38L181.84,87.27L182.07,92.07L182.15,95.38L182.61,117.73L182.99,106.57L183.07,99.97L183.92,58.32L184.15,62.62L184.23,64.44L186.23,122.13L186.46,121.9L186.54,120.93L187.16,117.86L187.47,119L187.54,119.25L187.62,119.63L187.93,117.64L188.01,117.22L188.08,117.38L188.24,115.89L188.31,115.51L188.47,115.89L188.7,115.03L188.78,114.18L190.4,103.27L190.47,103.9L190.55,105.04L191.17,110.85L191.24,112.29L191.32,112.78L191.71,110.56L191.78,110.5L192.09,110.89L192.71,108.51L192.79,106.52L193.56,94.79L193.79,98.85L193.87,101.37L194.48,116.93L194.79,112.7L194.87,109.21L195.87,78.7L196.1,80.52L196.18,82.2L196.57,87.35L196.95,87.26L197.03,85.11L198.8,51.84L198.88,46.26L199.11,37.17L199.42,49.87L199.5,53.94L200.73,129.81L200.81,131.71L200.88,132.16L201.04,129.4L201.12,127.92L202.43,104.64L202.5,106.28L202.58,108.32L202.74,112.14L203.04,105.64L203.12,105.82L203.35,112L203.66,103.61L203.74,104.03L203.89,105.24L203.97,105.13L204.05,102.84L204.28,99.51L204.43,106.07L204.51,110.51L204.97,123.83L205.2,116.29L205.28,110.27L206.05,62.11L206.44,71.56L206.51,72.74L207.05,84.98L207.13,87.77L208.98,123.71L209.06,123.81L209.37,122.83L209.44,122.07L210.22,117.21L210.52,119.07L210.6,119.37L210.68,119.89L211.06,117.94L211.14,116.76L212.07,107.94L212.22,108.18L212.3,108.59L213.22,101.24L213.69,102.05L213.76,102.02L214.07,100.45L214.15,99.89L214.38,97.78L214.69,99.09L214.77,99.29L214.84,99.84L215.23,97.86L215.3,96.85L215.61,92.81L216,96.46L216.08,98.78L216.77,109.33L217.08,106.73L217.16,104.65L218.24,86.8L218.39,88.94L218.47,89.4L219.16,103.43L219.39,102.63L219.47,101.21L221.32,52.1L221.63,62.19L221.71,63.83L223.02,137.36L223.09,137.29L223.17,136.89L224.33,121.17L224.4,119.22L225.95,82.53L226.02,81.45L226.41,67.37L226.56,73.42L226.64,77.89L227.26,95.37L227.41,88.17L227.49,81.47L228.34,26.89L228.65,37.11L228.72,40.44L230.11,84.68L230.34,80.06L230.42,78.96L230.57,80.93L230.65,83.65L231.5,98.28L231.73,95.83L231.81,95.84L232.66,97.95L232.73,99.89L233.27,112.21L233.58,106.96L233.66,103.71L236.2,35.81L236.28,35.36L236.9,33.22L237.05,34.34L237.13,35.07L238.13,42.3L238.21,43.18L238.82,49.42L238.98,45.86L239.06,44.06L241.52,24.66L241.76,25.03L243.84,24.85L244.76,69.65L245.07,58.94L245.15,58.73L245.23,58.51L245.3,55.9L246.38,31.76L246.46,31.13L246.69,28.7L246.77,29.86L246.84,33.65L247.23,40.37L247.69,37.87L247.77,33.46L248,25.41L248.23,37.36L248.31,43.65L249.47,130.55L249.78,126.14L249.85,123.74L251.63,81.25L251.7,76.3L252.71,41.91L252.94,45.22L253.01,45.89L253.25,50.39L253.32,53.29L254.02,71.7L254.32,63.92L254.4,61.92L254.79,50.86L255.33,55.63L255.4,56.72L255.71,66.16L255.94,59L256.02,54.35L256.33,51.26L256.41,48.11L257.18,41.16L257.26,42.3L257.33,42.47L257.56,40.08L257.64,39.21L258.26,36.23L258.33,37.85L258.41,40.25L259.18,43.15L259.26,42.74L259.34,39.99L259.88,37.65L260.11,38.45L260.19,38.87L260.8,54.78L261.27,51.35L261.34,51.1L262.27,46.46L262.42,47.07L262.5,47.64L262.81,50.46L263.12,45.67L263.19,43.85L264.35,31.24L264.43,30.96L264.58,31.07L264.66,30.58L264.74,32.17L264.97,31.33L265.12,34.31L265.2,34.28L265.66,29.08L265.74,30.2L265.82,35.07L266.28,40.81L266.35,44.28L267.2,73.41L267.59,72L267.67,71.36L267.97,67.09L268.51,69.4L268.59,70.61L269.13,66.3L269.29,68.76L269.36,70.78L270.52,49.02L270.6,48.7L270.83,42.88L271.21,51.17L271.29,53.43L272.99,71.76L273.06,72.59L275.3,130.81L275.45,130.42L275.53,130.36L275.99,131.06L276.15,130.41L276.23,129.54L278.15,111.73L278.23,109.29L279.08,90.68L279.46,95.08L279.54,96.58L280.24,106.79L280.7,105.4L280.78,104.57L281.78,102.88L281.86,102.98L282.09,101.08L282.47,103.87L282.55,104.62L283.01,112.83L283.47,109.56L283.55,108.22L284.25,94.77L284.63,97.25L284.71,98.36L285.09,104.94L285.56,100.92L285.63,99.25L286.33,84.56L286.87,87.93L286.94,87.95L287.41,76.38L287.48,70.43L288.26,45.82L288.33,49.44L288.41,58.2L289.64,134.59L289.8,131.71L289.87,131.87L290.49,124.71L290.57,123.33L291.11,131.37L291.57,130.45L291.65,128.86L291.88,123.57L292.11,128.48L292.19,130.09L292.27,130.73L292.57,128.04L292.65,128.68L292.73,127.19L294.89,71.52L294.96,75.61L295.04,79.5L296.58,118.64L296.66,119.93L297.74,127.95L297.82,128.18L298.36,130.15L298.67,129.69L298.74,129.44L300.44,111.63L300.52,110.01L300.75,106.62L301.21,111.18L301.29,112.14L302.29,119.69L302.37,119.52L302.44,119.5L302.83,117.2L302.91,115.9L304.37,96.72L304.53,97.68L304.6,98.93L305.61,123.25L305.91,119.06L305.99,117.03L306.38,115.81L306.92,124.03L307.07,120.75L307.15,119.73L309.15,94.51L309.23,90.69L310.16,44.21L310.46,54.42L310.54,56.44L311.93,139.08L312.01,137.91L312.86,125.42L313.01,128.44L313.09,130.5L313.24,133.91L313.78,132.52L313.86,130.43L315.32,106.25L315.48,110.1L315.55,111.35L316.17,119.2L316.25,116.41L316.33,111.83L317.1,84.19L317.33,91.54L317.4,94.26L318.48,105.43L318.56,106.92L320.26,126.52L320.34,127.11L321.11,121.34L321.18,120.16L321.57,118.2L321.95,119.5L322.03,119.69L322.11,120.14L322.42,118.31L322.49,117.66L323.42,98.68L323.73,99.4L323.81,100.51L325.27,112.32L325.35,112.42L325.73,113.25L326.5,105.17L326.81,106.28L326.89,107.46L327.82,119.8L328.05,118.6L328.12,116.7L329.51,85.28L329.67,86.93L329.74,86.05L329.97,84.07L330.21,87.02L330.36,86.59L330.44,87.44L330.98,94.35L331.36,90.69L331.44,87.95L332.44,46.26L332.75,53.28L332.83,61.36L334.06,134.35L334.22,132.41L334.29,130.16L335.06,113.42L335.22,115.44L335.3,116.9L335.53,121.82L335.91,114.71L335.99,114.37L336.84,96.43L336.92,92.73L337.3,86.62L337.45,91.47L337.53,95.27L338.07,119.61L338.38,114.23L338.46,109.24L339.38,58.45L339.69,61.76L339.77,63.98L340.15,70.96L340.23,73.2L341.85,117.16L341.93,116.85L342,115.95L342.47,115.06L342.62,116.14L342.7,116.24L343.16,117.32L343.24,118.15L343.55,117.43L344.01,121.23L344.24,119.83L344.32,119.18L345.94,95.48L346.25,98.27L346.32,99.79L346.86,106.78L347.25,105.15L347.33,104.82L347.87,105.3L348.56,95.3L348.64,93.33L348.71,90.99L349.18,99.14L349.25,102.98L349.95,124.28L350.26,115.52L350.33,111.83L351.03,96.75L351.26,98.26L351.34,98.06L352.42,79.87L352.49,76.67L353.96,34.16L354.11,41.61L354.19,45.63L354.73,64.08L354.81,69.49L356.35,142.98L356.58,137.06L356.66,135.22L358.82,96.25L358.89,92.34L359.51,70.67L359.66,78.8L359.74,83.78L360.44,125.65L360.74,108.76L360.82,101.56L361.75,51.98L362.05,57.1L362.13,58.23L362.9,88.16L362.98,91.32L364.68,124.33L364.75,124.22L365.76,117.24L366.06,117.52L366.14,117.9L366.3,119.01L366.68,116.74L366.76,115.58L368.38,96.21L368.61,99.79L368.69,100.54L368.99,102.61L369.46,100.86L369.53,100.87L369.61,101.04L369.77,100.33L369.84,99.69L370.23,98.17L370.31,97.37L370.77,92.7L371.08,96.12L371.15,96.25L371.85,109.44L372.39,107.35L372.47,106.6L373,98.42L373.08,97.19L373.93,88.49L374.01,89.82L374.08,91.88L374.47,92.27L375.78,67.41L375.86,65.88L376.09,67.27L376.24,62.11L376.32,58.58L376.71,48.88L377.09,55.3L377.17,58.99L378.4,125.57L378.48,125.37L378.56,124.12L380.87,64.12L380.95,64L381.64,51.15L381.8,56.66L381.87,59.28L382.57,81.41L382.8,70.56L382.88,65.45L383.8,24L384.03,26.41L384.11,26.67L384.19,27.21L384.34,26.73L387.81,26.85L389.82,42.46L389.89,42.61L390.2,44.37L390.51,42.45L390.59,42.11L391.74,32.63L391.82,32.29L393.36,37.28L393.44,39.97L394.29,70.89L394.6,63.81L394.67,63.27L395.68,43.07L395.83,45.46L395.91,47.4L395.99,47.73L396.14,45.28L396.22,45.07L396.29,46.22L396.6,43.15L396.68,43.75L396.76,41.33L397.06,36.34L397.45,42.41L397.53,43.73L399.3,21.4L399.38,21.82L400.3,50.95L400.53,46.89L400.61,46.37L400.92,41.43L401.07,45.7L401.15,49.09L401.69,57.31L401.92,51.45L402,46.62L402.85,25.33L403.08,26.21L403.16,26.24L403.47,24.87L403.54,28.45L403.62,33.42L404.93,120.98L405.24,115.58L405.32,113.52L405.86,100.75L406.24,102.58L406.32,102.46L406.55,102.86L406.86,94.39L406.94,88.56L407.78,44.8L408.25,48.33L408.32,50.06L409.79,77.26L409.94,74.33L410.02,72.42L410.17,67.62L410.56,73.07L410.71,72.37L410.79,71.99L411.18,79.72L411.33,71.66L411.41,68.95L412.1,54.4L412.33,56.5L412.41,57.12L412.56,57.95L412.8,53.55L412.87,50.82L412.95,50.65L413.03,48.64L414.11,41.17L414.18,41.68L414.57,42.24L414.65,44.51L415.8,63.34L415.88,67.41L416.5,86.11L416.81,79.35L416.88,77.57L417.42,64.02L417.89,66.24L417.96,68.25L418.04,68.77L418.35,66.7L418.43,66.22L418.66,68.07L418.89,63.96L418.97,63.99L419.51,66.88L419.66,63.35L419.74,62.77L420.35,53.84L420.43,52.05L420.66,55.22L420.89,47.93L420.97,45.65L421.28,48.38L421.59,41.73L421.66,48.89L422.82,107.07L423.13,102.71L423.21,102.63L423.75,86.13L424.05,92.52L424.13,92.81L424.83,100.51L424.9,97.76L424.98,92.56L425.44,93.75L425.75,85.41L425.83,85.48L425.91,86.69L426.29,84.37L426.83,95.1L426.91,94L426.99,92.68L427.22,96.23L427.37,92.93L427.45,89.82L428.3,72.33L428.6,78.95L428.68,81.85L429.92,119.08L430.15,118.5L430.22,118.47L430.92,126.58L431.23,125.26L431.3,124.97L432,129.8L432.23,128.01L432.31,127.33L433.54,118.14L433.62,115.9L434.7,104.61L435.16,106.18L435.24,107.11L435.93,111.65L436.16,110.77L436.24,110.22L436.47,109.07L436.7,109.87L436.78,110.02L436.86,110.71L437.4,109.33L437.47,108.24L437.78,107.31L438.01,109.91L438.09,110.8L438.94,117.66L439.17,116.33L439.25,114.16L440.48,99.25L440.56,98.25L440.71,99.58L441.02,98.03L441.17,98.23L441.25,98.05L441.79,89.04L441.87,87.58L442.02,88.95L442.33,86.63L442.41,84.52L442.87,70.77L442.95,64.63L443.33,48.1L443.72,53.95L443.8,61.48L444.72,138.01L445.11,133.54L445.18,132L446.8,94.44L446.88,95.83L446.96,96.84L447.04,98.25L447.42,92.96L447.5,92.12L447.57,93.65L447.88,86.19L447.96,84.87L448.73,107.48L448.81,110.52L448.89,111.04L449.04,108.35L449.12,109.3L449.19,107.78L449.43,109.08L449.5,107.94L449.58,103.07L450.43,70.92L450.74,75.57L450.81,77.13L451.28,85.77L451.35,88.02L452.97,123.14L453.05,123.16L453.28,124.34L453.74,123.03L453.82,122.78L454.67,120.5L454.75,120.71L454.82,121.12L455.59,122.55L455.83,121.73L455.9,121.41L457.45,111.43L457.52,111.64L457.6,111.98L457.75,112.74L457.99,111.02L458.06,110.43L459.76,98.98L459.84,99.62L459.91,100.9L460.76,123.27L461.22,119.54L461.3,118.53L462.77,82.69L463.23,87.14L463.31,88.56L463.69,92.18L463.85,89.98L463.92,87.51L465.62,43.18L465.85,51.7L465.93,53.17L466.01,52.37L466.08,60.56L467.32,128.16L467.39,125.68L467.47,124.92L468.4,104.71L468.55,105.12L468.63,105.67L468.78,106.88L469.01,101.27L469.09,100.89L469.48,90.73L469.55,89.62L470.17,81L470.4,87.11L470.48,88.94L471.02,112.26L471.1,114.94L471.17,116.28L471.56,110.99L471.63,109.51L472.41,81.66L472.48,78.49L472.95,68.74L473.1,70.2" style="vector-effect: none; fill: none; stroke: rgb(99, 110, 250); stroke-opacity: 1; stroke-width: 2px; opacity: 1;"/></g><g class="points"/><g class="text"/></g><g class="trace scatter trace3bbef2" style="stroke-miterlimit: 2; opacity: 1;"><g class="fills"/><g class="errorbars"/><g class="lines"><path class="js-line" d="M0,209L473.1,209" style="vector-effect: none; fill: none; stroke: rgb(239, 85, 59); stroke-opacity: 1; stroke-width: 2px; opacity: 1;"/></g><g class="points"/><g class="text"/></g></g></g><g class="overplot"/><path class="xlines-above crisp" d="M0,0" style="fill: none;"/><path class="ylines-above crisp" d="M0,0" style="fill: none;"/><g class="overlines-above"/><g class="xaxislayer-above"><g class="xtick"><text text-anchor="middle" x="0" y="333" transform="translate(167.99,0)" style="font-family: 'Open Sans', verdana, arial, sans-serif; font-size: 12px; fill: rgb(42, 63, 95); fill-opacity: 1; white-space: pre; opacity: 1;"><tspan class="line" dy="0em" x="0" y="333">Jan 23</tspan><tspan class="line" dy="1.3em" x="0" y="333">2022</tspan></text></g><g class="xtick"><text text-anchor="middle" x="0" y="333" style="font-family: 'Open Sans', verdana, arial, sans-serif; font-size: 12px; fill: rgb(42, 63, 95); fill-opacity: 1; white-space: pre; opacity: 1;" transform="translate(323.45,0)">Jan 30</text></g><g class="xtick"><text text-anchor="middle" x="0" y="333" style="font-family: 'Open Sans', verdana, arial, sans-serif; font-size: 12px; fill: rgb(42, 63, 95); fill-opacity: 1; white-space: pre; opacity: 1;" transform="translate(478.92,0)">Feb 6</text></g></g><g class="yaxislayer-above"><g class="ytick"><text text-anchor="end" x="79" y="4.199999999999999" transform="translate(0,309)" style="font-family: 'Open Sans', verdana, arial, sans-serif; font-size: 12px; fill: rgb(42, 63, 95); fill-opacity: 1; white-space: pre; opacity: 1;">0</text></g><g class="ytick"><text text-anchor="end" x="79" y="4.199999999999999" style="font-family: 'Open Sans', verdana, arial, sans-serif; font-size: 12px; fill: rgb(42, 63, 95); fill-opacity: 1; white-space: pre; opacity: 1;" transform="translate(0,268.37)">0.05</text></g><g class="ytick"><text text-anchor="end" x="79" y="4.199999999999999" style="font-family: 'Open Sans', verdana, arial, sans-serif; font-size: 12px; fill: rgb(42, 63, 95); fill-opacity: 1; white-space: pre; opacity: 1;" transform="translate(0,227.74)">0.1</text></g><g class="ytick"><text text-anchor="end" x="79" y="4.199999999999999" style="font-family: 'Open Sans', verdana, arial, sans-serif; font-size: 12px; fill: rgb(42, 63, 95); fill-opacity: 1; white-space: pre; opacity: 1;" transform="translate(0,187.12)">0.15</text></g><g class="ytick"><text text-anchor="end" x="79" y="4.199999999999999" style="font-family: 'Open Sans', verdana, arial, sans-serif; font-size: 12px; fill: rgb(42, 63, 95); fill-opacity: 1; white-space: pre; opacity: 1;" transform="translate(0,146.49)">0.2</text></g><g class="ytick"><text text-anchor="end" x="79" y="4.199999999999999" style="font-family: 'Open Sans', verdana, arial, sans-serif; font-size: 12px; fill: rgb(42, 63, 95); fill-opacity: 1; white-space: pre; opacity: 1;" transform="translate(0,105.86)">0.25</text></g></g><g class="overaxes-above"/></g><g class="subplot x2y2"><g class="layer-subplot"><g class="shapelayer"/><g class="imagelayer"/></g><g class="minor-gridlayer"><g class="x2"/><g class="y2"/></g><g class="gridlayer"><g class="x2"><path class="x2grid crisp" transform="translate(690.89,0)" d="M0,100v220" style="stroke: rgb(255, 255, 255); stroke-opacity: 1; stroke-width: 1px;"/><path class="x2grid crisp" transform="translate(846.3499999999999,0)" d="M0,100v220" style="stroke: rgb(255, 255, 255); stroke-opacity: 1; stroke-width: 1px;"/><path class="x2grid crisp" transform="translate(1001.8199999999999,0)" d="M0,100v220" style="stroke: rgb(255, 255, 255); stroke-opacity: 1; stroke-width: 1px;"/></g><g class="y2"><path class="y2grid crisp" transform="translate(0,228.84)" d="M602.9,0h473.09999999999997" style="stroke: rgb(255, 255, 255); stroke-opacity: 1; stroke-width: 1px;"/><path class="y2grid crisp" transform="translate(0,148.04)" d="M602.9,0h473.09999999999997" style="stroke: rgb(255, 255, 255); stroke-opacity: 1; stroke-width: 1px;"/></g></g><g class="zerolinelayer"><path class="y2zl zl crisp" transform="translate(0,309.65)" d="M602.9,0h473.09999999999997" style="stroke: rgb(255, 255, 255); stroke-opacity: 1; stroke-width: 2px;"/></g><path class="xlines-below"/><path class="ylines-below"/><g class="overlines-below"/><g class="xaxislayer-below"/><g class="yaxislayer-below"/><g class="overaxes-below"/><g class="plot" transform="translate(602.9,100)" clip-path="url(#clipef8d89x2y2plot)"><g class="scatterlayer mlayer"><g class="trace scatter traced7f338" style="stroke-miterlimit: 2; opacity: 1;"><g class="fills"/><g class="errorbars"/><g class="lines"><path class="js-line" d="M0,162.59L0.54,105.38L0.69,163.42L0.77,147.58L0.85,159.95L1,143.02L1.23,185.64L1.77,181.62L1.85,186.33L1.93,150.78L2.24,190.1L2.62,159.51L2.7,159.97L2.85,156.48L3.01,168.72L3.08,163.96L3.16,143.7L3.47,185.37L3.93,174.03L4.01,171.99L4.09,173.49L4.16,149.23L4.24,131.14L4.63,164.02L4.7,149.51L4.78,183.16L4.94,170.59L5.09,176.27L5.17,186.84L5.48,202.53L5.78,186.05L5.94,191.25L6.01,192.54L7.17,162.62L7.25,163.38L8.41,122.35L8.56,123.6L8.64,134.69L8.87,126.54L9.25,153.54L9.49,150.77L9.56,153.25L9.64,157.46L9.79,128.9L10.18,154.78L10.26,141.68L10.72,137.04L11.18,157.8L11.26,156.2L11.41,148.49L11.8,177.22L12.03,160.06L12.11,149.06L12.18,158.93L12.8,143.51L12.88,149.38L13.11,156L13.19,150.72L13.26,143.17L14.19,167.53L14.27,170.27L14.42,147.92L14.88,159.99L14.96,167.94L15.11,165.48L15.27,171.49L15.35,166.23L15.42,174.41L15.5,177.16L15.73,168.5L15.81,140.86L16.27,127.61L16.66,168.57L16.73,152.65L17.51,189.3L17.58,186.16L17.66,171.5L18.04,191.6L18.43,187.25L18.51,184.36L18.58,157.34L19.12,186.78L19.2,179.81L19.28,184.55L19.36,191.17L19.51,171.47L19.97,182.84L20.05,171.42L20.9,200.82L20.98,201.07L21.05,201.26L21.13,200.76L21.21,200.88L21.28,203.26L21.67,204.08L21.82,125.14L22.29,148.46L22.36,150.7L22.59,108.15L22.98,140.65L23.06,156.77L23.21,138.27L23.6,180.14L23.67,170.04L23.75,150.85L24.52,190.91L24.6,187.09L24.68,172.8L25.22,174.35L25.37,155.5L25.45,172.36L25.68,181.12L25.76,175.95L25.83,189.78L26.06,158.74L26.14,172.59L26.22,179.6L26.3,180.31L26.37,162.09L26.53,139.25L26.91,148.97L26.99,170.76L27.53,201.59L27.76,191.5L27.84,187.61L27.92,187.48L27.99,188.06L28.07,191L28.22,192.41L28.3,184.19L28.53,191.52L28.76,173.26L28.92,182.82L29,179.11L30.61,131.36L30.69,143.99L30.77,145.9L30.92,157.5L31.08,144.84L31.46,151.61L31.54,133.09L32.16,158.7L32.31,145.04L32.39,143L32.93,127.4L33.08,147.09L33.16,143.91L33.24,141L33.54,155.88L33.62,153.93L33.7,156.83L33.85,140.68L34.47,178.64L34.7,174.46L34.78,163.84L35.16,164.8L35.32,152.92L35.55,153.28L35.63,157.97L35.7,144.98L36.24,165.99L36.32,162.56L36.4,167.13L36.48,168.31L36.55,165.08L36.63,154.74L36.86,153.13L37.48,173.03L37.71,170.67L37.79,151.59L37.94,160.32L38.02,134.21L38.09,122.14L38.25,111.78L38.87,167.77L38.94,137.42L39.71,178.1L39.79,170.04L39.87,164.57L40.1,164.09L40.64,178.43L40.72,176.48L40.79,149.11L41.1,180.51L41.18,180.24L41.26,80.91L41.56,189.61L42.03,184.27L42.1,177.08L42.49,165.65L42.95,200.23L43.11,198.22L43.18,196.54L43.49,198.68L43.57,173.75L43.88,202.5L44.03,130.95L44.19,158.98L44.26,157.52L44.42,168.09L44.57,122.9L44.65,136.37L44.73,110.78L45.57,177.11L45.88,168.89L45.96,158.12L46.04,182.17L46.35,154.56L46.73,180.25L46.81,181.31L47.58,157.32L47.66,177.73L48.12,185.97L48.27,150.54L48.43,171.03L48.51,162.58L48.58,118.88L49.2,162.63L49.28,166.09L50.28,192.12L50.36,192.34L51.51,164.03L51.59,165.13L51.67,164.6L51.82,165.03L52.36,134.47L52.44,143.19L52.52,148.73L53.36,126.22L53.44,138.13L53.83,117.89L54.06,145.67L54.13,149.76L54.52,130.29L54.98,132.84L55.06,137.17L55.14,130.86L55.68,143.51L55.75,150.61L55.99,155.4L56.06,124.78L56.68,176.64L56.91,171.9L56.99,163.9L57.45,150.88L57.53,161.29L57.91,152.19L58.07,167.56L58.14,163.36L58.22,165.87L58.84,146.89L59.07,158.58L59.15,161.3L59.3,157.33L59.84,176.59L59.92,174.59L60,148.41L60.15,154.91L60.23,118.76L60.38,130.21L60.46,109.33L60.54,98.41L60.84,150.42L60.92,131.19L61,151.84L61.15,149.55L61.92,184.51L62,177.86L62.08,168.45L62.62,189.28L62.69,183.11L62.77,182.9L62.85,185.95L62.93,183.63L63,161.23L63.39,182.65L63.47,98.11L63.54,167.23L63.62,187.6L63.77,192.66L63.85,184.54L63.93,170.08L64.08,190.6L64.47,167.71L64.62,177.46L64.7,174.07L65.86,202.07L65.93,180.84L66.09,190.87L66.78,113.34L66.94,125.99L67.01,134.79L67.94,181.48L68.02,172.94L68.09,172.85L68.86,196.65L69.02,193.58L69.09,176.29L69.17,175.9L69.25,171.71L69.71,161.48L70.1,199.83L70.33,194.35L70.41,181.46L70.56,198.46L70.79,160.8L71.02,176.87L71.1,175.07L71.95,205.59L72.03,205.35L72.1,203.68L72.57,204.46L72.8,202.09L72.87,189.86L73.72,199.6L73.8,198.91L73.88,198.87L74.72,191.03L74.8,185.77L74.88,192.37L75.11,168.17L75.42,177.21L75.5,178.52L75.73,175.01L75.88,175.5L75.96,169.69L76.27,189.78L76.73,188.93L76.81,188.75L77.19,190.48L77.27,189.96L77.35,184.38L78.12,195.2L78.19,193.97L78.66,194.97L78.73,188.51L78.97,191.13L79.04,193L79.2,190.98L79.51,195.17L79.81,194.48L79.89,193.22L80.12,192.94L80.66,195.96L80.74,195.02L81.05,193.65L81.12,196.31L81.43,194.17L81.51,190.8L82.05,194.39L82.13,193.15L82.2,184.64L82.28,185.82L82.36,184.9L82.44,166.12L82.59,161.62L82.9,176.69L82.98,178.45L83.13,177.45L83.21,187.98L83.28,190.08L83.59,183.39L83.75,189.94L83.82,183.74L84.21,193.02L84.67,190.97L84.75,187.78L85.06,196.15L85.21,180.82L85.29,185.31L85.37,180.86L85.67,128.21L85.83,191.41L85.91,190.41L86.21,182.62L86.68,201.62L86.75,196.11L86.83,195.31L86.91,199.37L87.06,197.58L87.14,201.03L87.29,196.8L87.45,203.73L87.76,197.27L87.83,201.31L88.14,201.1L88.3,203.99L88.37,203.55L88.45,187.2L89.22,205.67L89.3,205.41L89.38,201.77L89.53,206.36L89.76,206.21L89.84,187.15L90.07,200.5L90.46,172.29L90.53,199.73L91.3,208.76L91.38,208.4L91.92,208.68L92.23,200.99L92.31,191.74L92.38,206.95L92.85,167.03L93,183.94L93.08,171.92L93.23,181.02L93.54,145.98L93.62,155.36L93.69,150.53L93.93,170.35L94.08,148.37L94.31,153.93L94.39,152.48L94.77,147.7L96.24,198.34L96.47,194.36L96.55,193.25L97.24,164.35L97.7,169.58L97.78,174.66L98.01,152.99L98.09,123.82L98.17,30.42L98.55,175.49L98.78,172.74L98.86,172.82L99.02,173.07L99.09,167.78L99.25,168.43L99.32,142.98L99.48,163.84L99.63,162.03L99.71,142.4L99.94,183.39L100.48,173.92L100.56,175.41L100.94,173.92L101.56,197.7L101.64,197.63L102.1,194.96L102.33,195.68L102.41,197.68L102.64,199.17L102.79,196.86L103.1,198.18L103.18,197.03L103.57,197.86L103.72,187.57L103.87,197.14L103.95,196.64L104.11,197L104.18,195.3L104.26,195.74L104.34,193.99L104.41,185.71L104.57,187.18L104.64,177.93L105.11,173.83L105.34,190.05L105.42,188.89L105.49,178.13L106.34,197.1L106.42,192.36L106.5,192.17L106.57,192.9L106.65,195.14L106.73,194.58L107.11,197.01L107.19,197.5L107.27,198.42L107.34,193.87L107.42,185.07L107.88,181.84L108.12,198.8L108.19,198.18L108.27,197.23L108.35,186.61L108.96,191.28L109.04,196.05L109.12,197.97L109.27,183.69L109.35,185.02L109.66,204.03L110.2,202.77L110.27,186.05L110.43,201.99L110.66,165.65L110.97,188.51L111.05,189.13L111.12,149.57L111.82,175.25L111.89,185.83L112.05,171.01L112.28,185.96L112.36,190.24L112.43,191.22L112.51,175L112.59,173.85L112.66,187.91L112.74,186.02L112.82,190.96L112.9,189.16L112.97,163.11L113.13,166.68L113.2,176.58L113.44,187.69L113.67,165.22L114.05,187.32L114.13,181.62L114.36,179.01L114.44,186.45L114.59,186.17L114.67,197.27L114.82,168.89L115.29,171.25L115.36,180.16L115.6,189.74L115.75,162.91L116.06,182.34L116.14,188.35L116.21,180.6L116.6,199L116.83,194.07L116.91,194.8L117.83,175.78L117.91,171.51L119.45,87.38L119.68,100.31L119.76,117.6L119.91,102.57L119.99,120.46L120.3,118.17L120.38,97.66L120.84,95.1L121.07,122.97L121.15,119.54L121.22,111.68L121.3,83.55L121.84,142.22L121.92,150.28L122.23,138.02L122.3,150.45L122.38,151.59L122.54,156L122.69,148.19L122.77,163.76L123.15,157.25L123.46,171.97L123.54,170.07L123.62,165.19L124.54,140.24L124.62,159.4L124.69,160.53L124.77,153.63L124.93,154.8L125,152.12L125.23,160L125.39,153.66L125.47,139.57L126.08,169.41L126.31,165.57L126.39,169.07L126.47,171.43L126.62,155.24L126.78,165.16L126.85,135.66L127.09,101.16L127.32,137.03L127.39,158.46L127.86,157.1L128.55,187.88L128.63,180.63L128.94,170.48L129.09,184.41L129.32,179.3L129.4,184.13L129.48,186.29L129.55,183.15L129.63,156.39L129.71,157.48L129.78,172.89L129.94,183.56L130.02,177.75L130.09,160.2L130.4,189.54L130.86,181.76L130.94,175.06L131.25,155.48L131.87,199L131.94,200.9L132.17,202.17L132.33,200.97L132.41,180.89L132.48,200.51L132.95,132.73L133.02,142.85L133.1,154.81L133.25,169.6L133.56,106.76L133.79,151.38L133.87,148.04L134.26,138.05L134.64,174.5L134.72,159.25L134.8,148.23L135.11,185.13L135.26,170.84L135.34,184.42L135.41,184.66L135.49,188.11L135.72,162.86L135.8,163.99L135.88,149.59L136.88,188.36L136.96,186.42L137.73,138.59L137.8,167.23L138.11,133.44L138.42,160.73L138.5,168.13L139.42,186.72L139.58,186.69L139.66,184.96L141.04,134.16L141.12,137.35L141.2,139.44L141.43,140.39L141.66,103.13L141.97,133.66L142.05,141.71L142.2,113.49L142.74,138.57L142.82,137.86L142.89,142.29L143.2,124.3L143.43,137.99L143.51,120.84L143.82,145.82L144.36,143.04L144.44,139.31L144.74,162.19L144.9,133.49L145.21,154.15L145.28,147.77L145.36,132.61L145.9,158.68L146.06,137.04L146.13,140.72L146.83,162.79L146.98,159.89L147.06,158.58L147.37,156.38L147.52,161.46L147.6,160.57L147.68,152.22L148.29,171.21L148.52,170.53L148.6,173.55L148.83,158.67L148.99,167.62L149.06,137.88L149.53,101.65L149.76,141.7L149.83,161.57L150.37,142.69L150.45,145.81L150.53,162.22L150.76,184.94L151.38,178.28L151.45,180.23L151.53,177.18L151.69,184.33L151.76,177.23L151.84,148.81L152.61,191.17L152.69,183.93L152.76,169.47L153.38,168.6L153.69,192.68L153.77,198.52L153.92,195.87L154.08,201.08L154.15,201.06L154.23,201.46L154.62,198.85L154.69,202.22L154.77,180.3L154.85,178.97L154.92,191.02L155,185.41L155.08,123.44L155.23,164.99L155.7,113.05L155.85,149.65L155.93,146.33L156.08,138.71L156.23,166.36L156.47,142.91L156.54,162.79L157.01,161.08L157.31,183.58L157.39,161.62L157.55,172.14L157.62,176.95L157.85,183.15L157.93,165.3L158.01,165.7L158.09,151.41L159.01,190.03L159.09,189.16L159.17,191.04L159.24,163.69L159.4,188.95L159.7,144.46L159.86,154.62L159.94,142.71L160.86,194.07L160.94,197.43L161.56,186.73L161.71,193.24L161.79,192.42L163.41,136.23L163.48,147.5L163.71,158.34L163.79,153.36L163.87,144.28L163.95,134.66L164.25,150.76L164.56,140.04L164.64,145.52L164.72,144.78L164.79,136.92L165.41,154.38L165.57,142.73L165.64,135.62L165.72,134.22L165.87,140.88L166.03,140.8L166.11,147.14L166.18,138.65L166.26,153.11L166.72,150.37L166.8,155.14L166.88,155L166.95,149.85L167.11,125.58L167.72,175.34L167.96,171.02L168.03,157.21L168.19,167.39L168.65,156.98L168.73,157.76L168.8,156.38L168.88,155.61L168.96,140.45L169.65,165.82L169.73,161.95L169.81,166.31L169.88,152.21L170.42,172.07L170.5,171.65L170.58,169.83L170.66,172.92L170.89,169.26L170.96,170.24L171.04,150.68L171.2,160.79L171.27,140.91L171.58,110.46L171.89,146.36L171.97,148.72L172.97,184.98L173.05,181.44L173.12,170.71L173.66,182.57L173.74,178.93L173.82,179.87L173.89,182.23L173.97,180.86L174.05,140.54L174.82,191.84L174.9,184.63L174.97,170.81L175.51,191.48L175.59,190.99L175.67,174.18L175.82,161.38L175.9,186.56L175.98,198.79L176.13,192.38L176.36,203L176.59,200.74L176.67,201.29L176.82,199.08L176.9,201.87L177.13,202.98L177.75,105.36L177.83,121.73L177.9,126.64L177.98,119.04L178.29,143.7L178.37,167.45L178.6,168.93L178.68,157.38L178.75,158.87L178.83,174.44L179.22,152.82L179.45,182.69L179.52,180.71L179.6,150.38L179.99,191.86L180.37,168.8L180.45,169.09L180.83,149.32L180.91,176.21L180.99,166.88L181.07,184.13L181.3,190.85L181.37,187.6L181.45,158.64L181.61,181.43L181.91,143.15L182.07,154.47L182.15,142.28L183.15,197.88L183.23,196.18L183.38,192.86L183.46,190.97L184.23,173.17L184.3,174.32L184.38,176.69L186.08,115.8L186.16,130.13L186.23,135.27L186.46,151.15L186.7,131.34L186.93,139.89L187,122.15L187.39,150.09L187.77,142.66L187.85,146.85L188.08,147.78L188.39,132.35L188.47,147.75L188.55,153.27L189.09,162.91L189.24,160.02L189.32,144.37L189.47,166.03L190.09,164.99L190.17,161.67L190.4,161.69L191.17,131.24L191.24,144.31L191.32,159.81L191.4,160.36L191.48,159.86L191.55,154.98L191.63,157.93L191.86,141.7L192.02,152.14L192.09,141.61L192.71,173.33L192.94,167.35L193.02,169.43L193.1,177.26L193.48,147.96L193.56,149.33L193.64,155.46L193.94,135.57L194.25,167.5L194.41,147.25L194.48,166.38L194.64,160.4L195.18,187.4L195.25,183.2L195.33,170.13L195.72,186.46L196.1,182.04L196.18,180.85L196.33,145.95L196.87,175.56L196.95,184.16L197.03,187.63L197.18,164.47L197.41,180.81L197.49,167.49L197.88,153.78L198.42,200.87L198.49,203.29L198.8,203.22L198.88,201.8L198.96,202.47L199.03,199.74L199.11,195.81L200.19,112.14L200.27,126.27L200.34,124.76L200.42,145.28L200.88,141.1L201.19,175.93L201.35,167.72L201.42,155.15L201.73,195.54L202.2,185.8L202.27,185.94L203.04,150.57L203.12,161.2L203.2,161.09L203.43,181.04L203.58,179.71L203.66,140.63L203.97,184.57L204.2,117.57L204.28,132.05L204.35,126.45L205.36,196.84L205.43,193.29L205.97,176.63L206.21,180.71L206.28,186.47L207.21,153.25L207.28,157.13L208.36,113.4L208.44,118.43L208.52,144.02L208.83,129.66L209.21,132.68L209.29,148.51L209.52,153.76L209.6,152.31L209.68,142.52L209.83,130.42L210.06,144.66L210.14,138.46L210.22,142.73L210.37,146.76L210.52,134.58L210.6,112.19L211.14,162.32L211.45,159.55L211.53,140.27L211.6,141.62L211.68,138.01L211.76,155.71L211.91,158.77L212.22,144.1L212.3,166.87L212.37,168.96L212.61,160.97L212.91,164.81L212.99,159.06L213.38,143.81L213.69,162.45L213.76,163.18L214.23,167L214.3,159.33L214.46,162.17L214.53,152.52L215.38,175.7L215.46,162.86L215.54,166.65L215.61,157.86L215.69,132.65L216.54,163.71L216.62,143.8L217.31,184.4L217.46,178.59L217.54,178.12L217.7,187.26L217.77,134.53L218.24,176.82L218.31,179.78L218.47,122.3L218.7,155.61L218.78,170.28L218.93,163.21L219.24,180.97L219.31,176.91L219.39,149.82L219.93,182.15L220.24,180.47L220.32,181.89L220.93,201.63L221.17,201.14L221.24,188.05L221.32,194.52L221.4,164.09L221.63,185.26L221.71,137.31L222.01,173.22L222.25,101.43L222.4,117.36L222.48,132.88L222.71,151.98L222.78,165.44L223.02,169.53L223.48,145.07L223.56,158.03L223.63,164.85L223.71,163.86L223.79,174.07L224.02,170.35L224.33,189.03L224.48,186.06L224.56,167.51L224.64,165.64L224.79,175.65L225.02,169.11L225.1,173.32L225.41,145.36L225.48,186.35L225.87,177.52L226.26,195.58L226.33,181.8L226.41,136.82L227.03,184.73L227.1,193.59L227.95,205.41L228.11,205.03L228.18,204.55L228.26,204.02L228.34,197.24L229.19,176.21L229.26,175.38L229.65,182.7L229.96,180.25L230.03,175.91L230.34,182.04L230.57,164.57L230.65,166.78L230.73,157.07L231.27,176.87L231.5,169.2L231.58,170.6L231.96,174.82L232.19,174.29L232.27,160.15L232.5,168.49L232.66,116.7L233.12,143.3L233.2,141.95L234.04,191.64L234.12,189.5L234.2,183.68L234.97,200.32L235.2,199.59L235.28,198.87L235.59,197.32L236.13,201.01L236.2,200.62L236.28,201.25L236.51,199.99L236.82,200.45L236.9,199.08L236.97,196.76L237.28,200.32L237.59,199.34L237.67,198.52L237.75,199.09L237.82,197.94L237.9,193.72L237.98,190.46L238.52,196.24L238.59,197.29L239.44,200.81L239.52,201.22L240.52,203.79L240.6,200.91L241.45,204.76L241.52,202.95L241.6,201.36L241.76,204.2L243.84,200.4L243.91,183.61L244.53,201.44L244.61,204.36L244.69,207.24L245.07,195.03L245.38,205.9L245.46,205.87L245.92,208.4L246.23,208.18L246.31,208.37L246.61,209L246.69,192.37L246.77,184.84L247.08,207.07L247.23,206.94L247.31,206.55L247.77,207.09L248,204.11L248.08,167.18L248.46,167.64L248.93,134.17L249,134.34L249.39,156.99L249.47,131.82L249.85,142.62L249.93,140.39L250.16,115L250.24,140.65L250.39,131.75L250.55,154.83L250.62,159.95L251.63,199.24L251.93,197.57L252.01,197.48L252.17,197.65L252.24,197.09L252.32,200.8L252.4,201.3L252.63,200.32L252.71,189.3L253.01,193.47L253.09,185.8L253.17,180.56L253.55,186.11L253.71,178.51L253.79,177.85L254.17,197.37L254.71,194.55L254.79,179.42L254.94,199.18L255.48,172.43L255.56,183.18L256.25,201.61L256.33,201.23L256.41,194.87L256.95,200.77L257.18,198.98L257.26,199.93L257.33,196.66L257.95,201.04L258.03,200.75L258.1,200.91L258.18,200.47L258.26,193.97L258.8,200.86L259.03,200L259.11,196.13L259.18,192.14L259.57,201.85L259.72,200.46L259.8,200.78L260.11,185.92L260.65,192.89L260.73,198.61L260.88,200.93L260.96,199.45L261.03,191.26L261.65,201.29L261.88,200.7L261.96,192.32L262.81,201L262.88,200.46L262.96,197.72L263.42,204.37L263.58,201.28L263.66,200.65L263.81,194.67L264.35,205.28L264.43,203.12L264.5,200.52L264.74,198.24L265.12,205.9L265.43,205.56L265.51,205.85L265.58,205.35L265.66,194.7L266.05,205.69L266.35,188.56L266.43,195.05L266.59,191.77L266.66,172.67L267.43,200.76L267.51,188.08L267.59,189.06L267.9,194.51L268.05,179.3L268.13,186.68L268.21,195.38L268.36,196.95L268.44,180.61L268.75,194.4L268.82,196.5L269.13,172.96L269.29,178.31L269.36,193.85L269.67,183.17L270.21,202.53L270.29,197.17L270.6,194.23L270.67,197.14L270.75,186.04L270.98,180.48L271.37,195.44L271.52,190.61L271.6,191.71L271.91,192.14L272.83,180.49L272.91,184.12L273.91,146.16L273.99,134.84L274.45,107.83L274.76,117.26L274.84,125.52L274.91,92.24L275.3,127.62L275.53,115.95L275.61,116.93L275.84,113.44L276.61,148.62L276.69,148.07L276.77,127.48L278.08,166.77L278.15,163.55L278.54,171.69L278.85,163.33L278.92,164.82L279,164.92L279.62,143.51L279.85,146.47L279.93,149.85L280,135.4L280.24,152.27L280.62,151.75L280.7,153.73L281.01,145.34L281.24,159.75L281.39,154.13L281.47,162.43L281.86,146.94L281.93,159.96L282.55,117.81L282.78,134.51L282.86,145.05L282.93,142.72L283.09,160.24L283.17,164.19L283.24,145.69L283.78,175.63L283.86,170.48L283.94,171.39L284.01,176.44L284.25,139.79L284.32,148.11L284.4,137.86L284.55,134.36L284.63,135.34L284.71,149.52L284.79,149.66L284.86,165.51L284.94,172.03L285.25,142.8L285.33,137.93L286.17,179.71L286.25,171.69L286.56,184.09L286.71,139.96L286.94,179.6L287.02,190.24L287.18,186.79L287.41,198.41L287.48,199.98L287.72,202.74L287.79,202.63L287.87,186.72L287.95,202.7L288.33,146.76L288.41,110.05L289.1,108.87L289.18,153.01L289.26,154.02L289.49,138.87L289.64,164.67L289.87,164.18L289.95,164L290.03,167.14L290.18,163.78L290.26,135.68L290.57,167.4L290.65,127.95L291.11,164.74L291.19,150.17L291.26,151.75L291.34,142.38L291.42,136.74L291.57,130.22L291.73,147.69L291.96,143.35L292.03,116.94L292.88,180.92L292.96,171.15L293.04,173.87L293.27,158.8L293.35,161.31L293.42,159.24L293.81,164L293.88,155.85L293.96,196.85L294.04,197.95L294.27,192.19L294.35,194.76L294.42,181.3L295.27,158.58L295.35,165.81L295.43,166.11L296.04,146.7L296.12,153.18L296.2,142.37L296.66,120.95L296.97,131.4L297.05,135.6L297.28,116.19L297.82,119.33L297.89,116.92L298.05,110.06L298.43,132.69L298.51,103.94L299.21,139.66L299.36,136.7L299.44,132.08L299.67,131.43L300.44,164.43L300.52,164.22L300.59,160.87L301.21,137.67L301.37,146.48L301.44,149.23L301.75,127.12L302.21,133.93L302.29,147.63L302.52,148.17L302.6,145.5L302.68,144.82L302.83,161.15L303.45,152.44L303.52,153L303.6,152.67L303.68,164.14L303.91,159.64L304.22,172.46L304.3,154L304.37,157.96L304.53,129.05L304.68,143.21L304.76,127.74L304.84,126.37L304.99,134.62L305.07,144.67L305.3,122.47L305.68,153.22L305.76,161.99L305.91,166.59L306.07,142L306.15,140.56L306.38,134.08L306.99,159.53L307.07,158.44L307.23,165.56L307.3,128.8L307.53,128.3L308.07,167.21L308.15,165.94L308.23,145.65L309.23,190.05L309.31,191.09L309.39,190.54L309.46,198.41L309.69,201.38L309.77,201.11L309.85,196.68L309.92,201.71L310.31,176.91L310.46,191.03L310.54,123.01L310.62,123.79L310.7,160.06L310.85,173.68L310.93,161.39L311,135.14L311.16,115.22L311.31,151.88L311.54,148.36L311.62,167.95L312.01,125.44L312.39,148.49L312.47,151.45L312.86,137.43L313.24,174.89L313.32,162.76L313.4,165.75L314.32,146.69L314.4,176.99L314.47,176.83L314.55,163.87L314.63,164.36L314.71,146.23L315.17,175.02L315.55,159.22L315.63,148.14L316.25,195L316.56,187.44L316.63,168.28L316.71,160.33L317.17,176.84L317.25,175.91L317.33,178.38L318.02,159.53L318.1,154.64L318.41,156.52L318.56,152.08L318.64,148.49L318.72,149.26L318.79,147.18L318.87,123.65L319.26,147.05L319.64,128.21L319.72,139.78L320.03,123.46L320.41,135.48L320.49,139.7L320.72,135.77L320.88,142.36L320.95,142.29L321.03,145.71L321.49,146.56L321.65,125.59L321.88,136.18L321.95,140.13L322.03,140.62L322.11,149.11L322.19,147.52L322.26,155.68L322.42,152.02L322.49,165.2L322.57,156.42L323.19,168.84L323.27,167.23L323.34,169.83L323.65,159.91L323.73,156.31L324.42,146.16L324.5,151.3L324.58,157.69L325.42,144.61L325.5,152.09L325.58,152.23L325.66,151.73L325.73,159.43L325.81,152.7L326.35,166.18L326.43,165.27L326.97,122.02L327.2,133.91L327.28,139.33L327.66,138.6L328.2,176.05L328.28,170.39L328.36,173L328.59,161.82L329.2,178.64L329.28,176.9L329.43,175.81L329.51,153.38L330.13,182.07L330.36,174.77L330.44,155.47L330.9,119.02L330.98,183.07L331.29,180.05L331.36,178.48L332.13,201.54L332.29,201.14L332.37,201.93L332.6,203.92L333.29,103.75L333.37,131.74L333.44,130.61L333.52,121.75L333.75,160.72L333.98,152.81L334.06,167.7L334.45,186.93L334.6,147.21L334.76,161.1L334.83,169.58L334.99,177.32L335.06,154.87L335.37,188.17L335.91,171.5L335.99,155.59L336.76,194.91L336.84,193.52L336.92,166.07L337.07,186.93L337.38,150.61L337.53,160.82L337.61,150.04L338.69,197.58L338.77,191.78L338.84,188.1L339.15,194.39L339.54,189.9L339.61,187.13L340.62,158.66L340.69,162.54L340.77,163.65L340.85,160.71L340.93,152.98L341.08,140.14L341.31,160.8L341.62,146.13L341.7,152.72L341.93,158.42L342,149.47L342.24,154.86L342.31,160.05L342.54,137.45L343.08,145.1L343.16,146.44L343.24,150.44L343.39,138.07L343.7,144.34L343.78,128.03L345.4,180L345.47,172.47L345.55,179.39L345.94,154.87L346.09,162.18L346.17,161.74L346.4,160.01L346.48,167.99L346.63,155.02L347.17,165.93L347.25,165.67L347.33,167.94L347.56,154.9L347.63,160.41L347.71,156.54L348.64,180.03L348.71,159.96L348.79,165.38L349.02,139.71L349.1,141.9L349.18,116.07L350.18,177.37L350.26,175.08L350.33,176.29L350.41,157.73L351.34,180.13L351.41,175.71L351.57,183.35L351.72,159.77L352.11,179.3L352.18,158.16L352.88,198.55L353.03,196.29L353.11,198.08L353.88,203.71L353.96,192.09L354.03,162.69L354.34,199.81L354.73,175.48L354.81,189.25L354.88,187.55L354.96,136.31L355.27,162.41L355.58,117.12L355.65,121.21L355.73,140.82L356.35,128.91L356.5,172.8L356.58,168.96L356.66,160.86L356.89,152.38L357.43,183.83L357.5,182.68L357.58,191.44L357.97,158.45L358.2,164.97L358.28,172.31L358.43,170.14L358.97,197.52L359.05,193.92L359.12,174.27L359.28,190.28L359.59,142.67L359.74,163.67L359.82,146.62L360.9,198.11L361.36,197.9L361.44,194.93L363.21,161.44L363.29,146.45L363.6,160.7L363.83,134L363.91,133.67L364.21,131.11L364.6,144.87L364.68,129.31L365.22,158.48L365.52,152.48L365.6,148.35L365.99,132.57L366.06,119.63L366.14,119.91L366.22,137.75L366.3,137.43L366.37,140.44L366.91,163.62L366.99,139.53L367.22,160.3L367.3,145.69L367.61,176.24L368.15,161.66L368.22,161.4L368.38,154.99L368.61,167.34L368.99,164.72L369.07,165.51L369.15,170.69L369.3,158.46L369.69,169.01L369.77,161.97L370.38,175.63L370.61,167.69L370.69,165.66L370.85,167.48L370.92,155.8L371.08,166.51L371.46,142.58L371.54,146.15L372.62,177.39L372.7,177.21L372.77,171.85L373,168.14L373.47,179.21L373.54,176.99L373.62,178.58L373.7,184.53L374.01,156.66L374.08,173.25L374.16,158.75L375.01,191.95L375.09,191.63L375.63,195.01L375.78,176.61L375.86,196.09L376.01,184.05L376.17,202.39L376.4,200.87L376.48,201.07L376.63,201.32L376.71,187.3L376.78,187.64L376.86,178.97L377.01,191.41L377.09,185.68L377.17,140.79L377.4,179.58L377.86,134.43L377.94,122.76L378.87,188.16L378.94,187.57L379.02,176.07L379.41,196.06L379.56,195.03L379.64,197.22L379.95,203.71L380.64,170.57L380.72,193.23L381.18,201.38L381.33,185.62L381.49,200.22L381.56,180.44L381.8,178.85L381.87,181.07L381.95,184.91L382.03,181.77L382.34,196.82L382.49,192.48L382.57,199.36L382.88,206.18L383.49,204.8L383.57,204.24L383.8,201.86L383.96,204.89L384.26,203.63L384.34,203.69L387.81,204.7L387.89,199.79L388.27,195.79L388.43,201.53L388.66,201.25L388.74,200.1L389.04,202.73L389.43,198.43L389.51,200.91L389.58,201.59L389.66,195.65L390.28,202.28L390.36,201.52L391.05,201.04L391.13,203.17L391.2,202.86L391.28,202.3L391.67,203.12L391.82,202.99L391.9,201.24L391.98,198.85L392.05,203.22L392.59,202.46L392.67,202.04L392.9,201.42L392.98,202.4L393.05,202.08L393.13,200.07L393.29,201.56L393.36,188.99L393.44,184.1L393.67,192.77L393.98,186.85L394.06,193.05L394.83,202.14L394.91,202.31L395.06,200.45L395.14,195.91L395.21,195.6L395.29,199.99L395.6,201.81L395.68,198.8L395.75,198.26L396.22,197.05L396.45,203.32L396.52,202.98L396.6,193.96L396.91,204.68L397.22,189.35L397.37,199.83L397.45,200.01L397.99,199.68L398.53,205.45L398.61,205.39L398.68,205.95L399.15,206.86L399.3,205.1L399.38,188.68L400.15,206.88L400.38,205.27L400.46,205.97L400.61,206.94L400.77,203.54L400.84,201.95L401,181.11L401.31,189.12L401.38,201.86L402.23,206.52L402.31,205.72L402.39,204.9L402.77,206.62L403,206.37L403.08,206.36L403.31,205.1L403.39,206.43L403.47,195.42L404.47,138.43L404.54,156.87L404.62,149.38L404.78,164.73L405.24,157.98L405.32,158.72L405.39,157.24L405.55,164.93L405.62,157.57L405.7,172.64L405.86,155.06L406.16,171.13L406.24,173.16L406.78,186.49L406.86,198.1L406.94,198.28L407.01,196.73L407.09,197.17L407.17,194.96L407.48,195.94L407.55,195.67L407.63,193.77L408.02,195.82L408.4,178.29L408.63,186.46L408.71,187.14L408.79,188.87L408.94,176.52L409.02,174.76L409.09,171.25L409.48,178.68L409.63,177.63L409.71,188.75L409.87,191.02L410.02,187.79L410.1,190.26L410.17,178.14L410.25,162.76L410.64,192.21L410.95,165.78L411.02,174.29L411.49,197.57L411.79,191.5L411.87,168.28L412.56,197.03L412.64,196.67L412.72,193.31L412.8,189.66L413.1,195.32L413.34,194.39L413.41,196.14L413.57,197.49L413.72,195.23L414.03,196.75L414.11,193.93L414.42,196.14L414.57,187.28L414.88,191.77L414.96,192.69L415.19,192.91L415.5,186.9L415.57,175.41L415.73,172.13L415.96,183.41L416.11,181.97L416.19,182.11L417.11,192.02L417.19,190.49L417.27,191.79L417.35,188.63L417.42,176.39L418.12,194.05L418.27,190.77L418.35,181.87L418.43,182.7L418.5,180.67L418.58,175.13L419.12,190.93L419.35,181.17L419.43,189.5L419.89,188.82L420.28,196.06L420.35,192.47L420.43,177.02L420.82,201.7L421.05,201.09L421.12,191.49L421.28,202.26L422.05,142.13L422.13,147.92L422.2,163.44L422.28,154.03L422.74,183.35L422.82,188.09L422.9,189.42L422.98,171.68L423.36,193.82L423.52,171.61L423.82,184.7L423.9,164.49L424.29,187.93L424.52,170.15L424.59,169.22L424.98,190.6L425.06,181.51L425.13,163.43L425.52,192.66L425.91,184.02L425.98,175.41L426.14,186.56L426.21,172.98L426.37,162.23L426.91,185.85L427.06,180.15L427.14,173.26L427.45,188.84L427.91,184.26L427.99,181.92L428.06,181.53L428.3,184.38L428.37,179.62L429.45,11L429.68,63.59L429.76,83.81L430.07,91.81L430.53,35.04L430.69,39.74L430.76,90.85L431,55.55L431.38,106.89L431.46,116.42L431.54,114.15L431.61,66.68L432.15,130.81L432.46,124.09L432.54,125.49L432.69,120.23L432.85,139.94L433,131.63L433.08,134.98L434,160.86L434.08,152.19L434.16,152.94L434.39,160.68L434.7,142.62L434.85,148.7L434.93,149.23L435.47,131.98L435.55,145.48L435.85,152.65L436.32,149.04L436.39,143.38L436.62,141.89L436.93,155.85L437.16,147.56L437.24,147.86L437.4,154.18L437.55,128.15L437.7,148.65L437.78,131.67L438.01,123.66L438.63,148.42L438.71,135.99L439.94,165.12L440.02,158.89L440.4,171.27L440.56,142.25L440.71,158.48L440.79,143.08L441.64,179.17L441.71,177.67L441.79,171.59L442.02,179.14L442.18,165.58L442.25,169.38L442.33,181.28L442.41,178.79L442.56,190.78L442.64,189.29L442.72,196.1L443.18,198.06L443.26,196.51L443.33,181.34L443.56,195.96L443.72,162.46L443.8,112.47L444.34,96.36L444.8,168.46L444.88,173.43L444.95,157.32L445.57,183.62L445.65,158.33L445.72,153.68L446.42,186.85L446.57,183.79L446.65,166.36L447.04,157.83L447.11,170.53L447.19,169.24L447.27,184.64L447.81,191.39L448.04,149.62L448.19,156.12L448.27,172.84L448.65,146.29L448.81,180.46L449.04,156.98L449.12,175.08L449.27,168.17L449.43,183.76L449.5,192.07L449.58,192.59L449.66,184.12L449.81,184.58L451.05,165.56L451.12,166.67L451.2,159.27L451.28,160.08L451.35,153.49L451.43,152.64L452.12,131.86L452.51,132.1L452.59,120.66L452.74,126.51L452.82,137.23L452.9,138.33L452.97,135.65L453.05,122.32L453.44,142.5L453.9,134.93L453.98,135.43L454.67,136.7L454.75,128.57L454.82,136.28L454.9,127.16L455.52,139.13L455.59,140.38L455.83,135.28L455.98,151.95L456.29,139.85L456.37,134.92L456.91,151.63L457.21,145.51L457.29,150.55L457.37,151.13L457.45,144.57L457.6,146.81L457.68,134.29L458.45,160.56L458.53,155.25L458.6,146.71L459.22,161.66L459.3,158.88L459.68,170.5L459.76,142.15L459.84,152.44L459.99,116.24L460.38,131.69L460.45,132.17L461.3,158.4L461.38,146.84L462.23,181.6L462.3,176.68L462.54,177.89L462.61,181.55L462.69,185.12L462.77,148.21L463.61,183.03L463.69,159.53L464.23,190.83L464.31,187.7L464.39,150.7L465,199.77L465.23,199.57L465.31,199L465.47,200.34L465.77,172.77L465.85,195.96L465.93,202.49L466.01,156.45L466.08,125.58L466.31,166.12L466.55,112.55L466.85,141.98L466.93,152.09L467.01,152.39L467.09,170.55L467.39,149.11L467.78,184.78L467.86,169.69L467.93,159.15L468.24,184.19L468.55,176.34L468.63,182.69L468.7,187.21L469.01,166.76L469.17,176.9L469.24,169.23L469.48,161.19L470.09,195.03L470.17,164.7L470.32,173.03L470.4,157.5L470.56,166.82L470.63,146.14L470.86,143.6L471.25,183.46L471.48,174.98L471.56,163.88L472.41,188.15L472.48,184.57L472.87,186.39L472.95,173.55L473.1,175.77" style="vector-effect: none; fill: none; stroke: rgb(0, 204, 150); stroke-opacity: 1; stroke-width: 2px; opacity: 1;"/></g><g class="points"/><g class="text"/></g></g></g><g class="overplot"/><path class="xlines-above crisp" d="M0,0" style="fill: none;"/><path class="ylines-above crisp" d="M0,0" style="fill: none;"/><g class="overlines-above"/><g class="xaxislayer-above"><g class="x2tick"><text text-anchor="middle" x="0" y="333" transform="translate(690.89,0)" style="font-family: 'Open Sans', verdana, arial, sans-serif; font-size: 12px; fill: rgb(42, 63, 95); fill-opacity: 1; white-space: pre; opacity: 1;"><tspan class="line" dy="0em" x="0" y="333">Jan 23</tspan><tspan class="line" dy="1.3em" x="0" y="333">2022</tspan></text></g><g class="x2tick"><text text-anchor="middle" x="0" y="333" style="font-family: 'Open Sans', verdana, arial, sans-serif; font-size: 12px; fill: rgb(42, 63, 95); fill-opacity: 1; white-space: pre; opacity: 1;" transform="translate(846.3499999999999,0)">Jan 30</text></g><g class="x2tick"><text text-anchor="middle" x="0" y="333" style="font-family: 'Open Sans', verdana, arial, sans-serif; font-size: 12px; fill: rgb(42, 63, 95); fill-opacity: 1; white-space: pre; opacity: 1;" transform="translate(1001.8199999999999,0)">Feb 6</text></g></g><g class="yaxislayer-above"><g class="y2tick"><text text-anchor="end" x="601.9" y="4.199999999999999" transform="translate(0,309.65)" style="font-family: 'Open Sans', verdana, arial, sans-serif; font-size: 12px; fill: rgb(42, 63, 95); fill-opacity: 1; white-space: pre; opacity: 1;">0</text></g><g class="y2tick"><text text-anchor="end" x="601.9" y="4.199999999999999" style="font-family: 'Open Sans', verdana, arial, sans-serif; font-size: 12px; fill: rgb(42, 63, 95); fill-opacity: 1; white-space: pre; opacity: 1;" transform="translate(0,228.84)">5k</text></g><g class="y2tick"><text text-anchor="end" x="601.9" y="4.199999999999999" style="font-family: 'Open Sans', verdana, arial, sans-serif; font-size: 12px; fill: rgb(42, 63, 95); fill-opacity: 1; white-space: pre; opacity: 1;" transform="translate(0,148.04)">10k</text></g></g><g class="overaxes-above"/></g></g><g class="polarlayer"/><g class="smithlayer"/><g class="ternarylayer"/><g class="geolayer"/><g class="funnelarealayer"/><g class="pielayer"/><g class="iciclelayer"/><g class="treemaplayer"/><g class="sunburstlayer"/><g class="glimages"/><defs id="topdefs-ef8d89"><g class="clips"/><clipPath id="legendef8d89"><rect width="92" height="67" x="0" y="0"/></clipPath></defs><g class="layer-above"><g class="imagelayer"/><g class="shapelayer"/></g><g class="infolayer"><g class="legend" pointer-events="all" transform="translate(1095.92,100)"><rect class="bg" shape-rendering="crispEdges" style="stroke: rgb(68, 68, 68); stroke-opacity: 1; fill: rgb(255, 255, 255); fill-opacity: 1; stroke-width: 0px;" width="92" height="67" x="0" y="0"/><g class="scrollbox" transform="" clip-path="url(#legendef8d89)"><g class="groups"><g class="traces" transform="translate(0,14.5)" style="opacity: 1;"><text class="legendtext" text-anchor="start" x="40" y="4.680000000000001" style="font-family: 'Open Sans', verdana, arial, sans-serif; font-size: 12px; fill: rgb(42, 63, 95); fill-opacity: 1; white-space: pre;">y_pred</text><g class="layers" style="opacity: 1;"><g class="legendfill"/><g class="legendlines"><path class="js-line" d="M5,0h30" style="fill: none; stroke: rgb(99, 110, 250); stroke-opacity: 1; stroke-width: 2px;"/></g><g class="legendsymbols"><g class="legendpoints"/></g></g><rect class="legendtoggle" x="0" y="-9.5" width="86.171875" height="19" style="fill: rgb(0, 0, 0); fill-opacity: 0;"/></g><g class="traces" transform="translate(0,33.5)" style="opacity: 1;"><text class="legendtext" text-anchor="start" x="40" y="4.680000000000001" style="font-family: 'Open Sans', verdana, arial, sans-serif; font-size: 12px; fill: rgb(42, 63, 95); fill-opacity: 1; white-space: pre;">labels</text><g class="layers" style="opacity: 1;"><g class="legendfill"/><g class="legendlines"><path class="js-line" d="M5,0h30" style="fill: none; stroke: rgb(239, 85, 59); stroke-opacity: 1; stroke-width: 2px;"/></g><g class="legendsymbols"><g class="legendpoints"/></g></g><rect class="legendtoggle" x="0" y="-9.5" width="86.171875" height="19" style="fill: rgb(0, 0, 0); fill-opacity: 0;"/></g><g class="traces" transform="translate(0,52.5)" style="opacity: 1;"><text class="legendtext" text-anchor="start" x="40" y="4.680000000000001" style="font-family: 'Open Sans', verdana, arial, sans-serif; font-size: 12px; fill: rgb(42, 63, 95); fill-opacity: 1; white-space: pre;">db time</text><g class="layers" style="opacity: 1;"><g class="legendfill"/><g class="legendlines"><path class="js-line" d="M5,0h30" style="fill: none; stroke: rgb(0, 204, 150); stroke-opacity: 1; stroke-width: 2px;"/></g><g class="legendsymbols"><g class="legendpoints"/></g></g><rect class="legendtoggle" x="0" y="-9.5" width="86.171875" height="19" style="fill: rgb(0, 0, 0); fill-opacity: 0;"/></g></g></g><rect class="scrollbar" rx="20" ry="3" width="0" height="0" style="fill: rgb(128, 139, 164); fill-opacity: 1;" x="0" y="0"/></g><g class="g-gtitle"/><g class="g-xtitle"/><g class="g-x2title"/><g class="g-ytitle"><text class="ytitle" transform="rotate(-90,27.981250000000003,210)" x="27.981250000000003" y="210" text-anchor="middle" style="font-family: 'Open Sans', verdana, arial, sans-serif; font-size: 14px; fill: rgb(42, 63, 95); opacity: 1; font-weight: normal; white-space: pre;">prediction score</text></g><g class="g-y2title"><text class="y2title" transform="rotate(-90,555.371875,210)" x="555.371875" y="210" text-anchor="middle" style="font-family: 'Open Sans', verdana, arial, sans-serif; font-size: 14px; fill: rgb(42, 63, 95); opacity: 1; font-weight: normal; white-space: pre;">db time</text></g></g></svg>