<svg class="main-svg" xmlns="http://www.w3.org/2000/svg" xmlns:xlink="http://www.w3.org/1999/xlink" width="1200" height="400" style="" viewBox="0 0 1200 400"><rect x="0" y="0" width="1200" height="400" style="fill: rgb(255, 255, 255); fill-opacity: 1;"/><defs id="defs-6c7120"><g class="clips"><clipPath id="clip6c7120xyplot" class="plotclip"><rect width="941.88" height="220"/></clipPath><clipPath id="clip6c7120xy2plot" class="plotclip"><rect width="941.88" height="220"/></clipPath><clipPath class="axesclip" id="clip6c7120x"><rect x="80" y="0" width="941.88" height="400"/></clipPath><clipPath class="axesclip" id="clip6c7120y"><rect x="0" y="100" width="1200" height="220"/></clipPath><clipPath class="axesclip" id="clip6c7120xy"><rect x="80" y="100" width="941.88" height="220"/></clipPath><clipPath class="axesclip" id="clip6c7120y2"><rect x="0" y="100" width="1200" height="220"/></clipPath><clipPath class="axesclip" id="clip6c7120xy2"><rect x="80" y="100" width="941.88" height="220"/></clipPath></g><g class="gradients"/><g class="patterns"/></defs><g class="bglayer"><rect class="bg" x="80" y="100" width="941.88" height="220" style="fill: rgb(229, 236, 246); fill-opacity: 1; stroke-width: 0;"/></g><g class="layer-below"><g class="imagelayer"/><g class="shapelayer"/></g><g class="cartesianlayer"><g class="subplot xy"><g class="layer-subplot"><g class="shapelayer"/><g class="imagelayer"/></g><g class="minor-gridlayer"><g class="x"/><g class="y"/><g class="y2"/></g><g class="gridlayer"><g class="x"><path class="xgrid crisp" transform="translate(168.41,0)" d="M0,100v220" style="stroke: rgb(255, 255, 255); stroke-opacity: 1; stroke-width: 1px;"/><path class="xgrid crisp" transform="translate(300.8,0)" d="M0,100v220" style="stroke: rgb(255, 255, 255); stroke-opacity: 1; stroke-width: 1px;"/><path class="xgrid crisp" transform="translate(433.19,0)" d="M0,100v220" style="stroke: rgb(255, 255, 255); stroke-opacity: 1; stroke-width: 1px;"/><path class="xgrid crisp" transform="translate(565.5699999999999,0)" d="M0,100v220" style="stroke: rgb(255, 255, 255); stroke-opacity: 1; stroke-width: 1px;"/><path class="xgrid crisp" transform="translate(697.96,0)" d="M0,100v220" style="stroke: rgb(255, 255, 255); stroke-opacity: 1; stroke-width: 1px;"/><path class="xgrid crisp" transform="translate(830.35,0)" d="M0,100v220" style="stroke: rgb(255, 255, 255); stroke-opacity: 1; stroke-width: 1px;"/><path class="xgrid crisp" transform="translate(962.73,0)" d="M0,100v220" style="stroke: rgb(255, 255, 255); stroke-opacity: 1; stroke-width: 1px;"/></g><g class="y"><path class="ygrid crisp" transform="translate(0,296.75)" d="M80,0h941.88" style="stroke: rgb(255, 255, 255); stroke-opacity: 1; stroke-width: 1px;"/><path class="ygrid crisp" transform="translate(0,223.64)" d="M80,0h941.88" style="stroke: rgb(255, 255, 255); stroke-opacity: 1; stroke-width: 1px;"/><path class="ygrid crisp" transform="translate(0,150.53)" d="M80,0h941.88" style="stroke: rgb(255, 255, 255); stroke-opacity: 1; stroke-width: 1px;"/></g><g class="y2"><path class="y2grid crisp" transform="translate(0,269.4)" d="M80,0h941.88" style="stroke: rgb(255, 255, 255); stroke-opacity: 1; stroke-width: 1px;"/><path class="y2grid crisp" transform="translate(0,229.8)" d="M80,0h941.88" style="stroke: rgb(255, 255, 255); stroke-opacity: 1; stroke-width: 1px;"/><path class="y2grid crisp" transform="translate(0,190.2)" d="M80,0h941.88" style="stroke: rgb(255, 255, 255); stroke-opacity: 1; stroke-width: 1px;"/><path class="y2grid crisp" transform="translate(0,150.6)" d="M80,0h941.88" style="stroke: rgb(255, 255, 255); stroke-opacity: 1; stroke-width: 1px;"/><path class="y2grid crisp" transform="translate(0,111)" d="M80,0h941.88" style="stroke: rgb(255, 255, 255); stroke-opacity: 1; stroke-width: 1px;"/></g></g><g class="zerolinelayer"><path class="y2zl zl crisp" transform="translate(0,309)" d="M80,0h941.88" style="stroke: rgb(255, 255, 255); stroke-opacity: 1; stroke-width: 2px;"/></g><path class="xlines-below"/><path class="ylines-below"/><g class="overlines-below"><path class="xy2-x"/><path class="xy2-y"/></g><g class="xaxislayer-below"/><g class="yaxislayer-below"/><g class="overaxes-below"><g class="xy2-x"/><g class="xy2-y"/></g><g class="plot" transform="translate(80,100)" clip-path="url(#clip6c7120xyplot)"><g class="scatterlayer mlayer"><g class="trace scatter trace575ac1" style="stroke-miterlimit: 2; opacity: 1;"><g class="fills"/><g class="errorbars"/><g class="lines"><path class="js-line" d="M0,196.02L0.15,189.52L0.46,197.77L0.61,195.01L0.77,198.42L0.92,156.63L1.38,197.16L1.53,199L1.84,196.01L1.99,184.73L2.3,196.45L2.45,175.66L2.76,189.62L2.91,191.08L3.37,190.37L3.52,199.91L3.68,196.68L3.83,182.13L4.44,200.75L4.75,199.34L4.9,174.63L5.36,200.63L5.67,180.06L5.82,198.42L6.28,198.82L6.9,180.03L7.05,195.32L7.35,191.98L7.66,203.19L7.81,186.48L7.97,186.8L8.12,192.73L8.43,187.39L8.73,199.63L8.89,198.24L9.04,192.91L9.19,204.8L9.5,178.94L9.81,198.64L9.96,199.01L10.11,200.99L10.27,182.33L10.42,196.28L11.03,186.45L11.19,197.66L11.34,198.53L11.49,194.18L11.65,193.81L11.8,195.59L12.1,192.92L12.26,201.42L12.41,195.32L12.56,188.04L13.02,201.79L13.48,199.66L13.64,178.22L14.1,202.83L14.56,201.11L14.71,199.89L14.86,190.64L15.48,193.43L15.63,200.28L15.94,204.09L16.4,191.02L16.55,196.8L16.7,200.2L16.85,192.81L17.01,184.82L17.31,202.69L17.93,199.5L18.08,195.72L18.54,203.3L18.85,202.69L19,195.77L19.15,200.49L19.46,192.27L19.61,187.14L20.07,181.8L20.53,202.91L20.69,183.06L20.99,202.37L21.45,187.36L21.6,189.72L21.91,174.67L22.52,198.6L22.68,199.26L23.6,182.79L23.75,201.02L24.36,180.11L24.52,199.56L24.67,186.36L24.82,203.4L25.28,195.14L25.44,190.64L25.74,194.82L25.9,184.92L26.05,162.82L26.2,200.32L26.51,192.9L26.66,186.4L26.97,188.76L27.12,198.89L27.58,167.58L27.73,189.09L27.89,192.61L28.04,192.33L28.19,200.4L28.5,202.45L28.96,196.21L29.11,198.54L29.27,198.63L29.42,198.33L29.57,189.88L29.73,198.8L30.03,185.77L30.34,195.49L30.49,198.47L30.95,199.37L31.1,185.09L31.26,185.96L31.41,201.3L31.72,190.47L32.33,192.99L32.48,190.03L32.79,204.28L32.94,190.07L33.1,182.87L33.25,202.34L33.4,182.8L33.86,197.14L34.02,187.31L34.32,174.22L34.48,188.56L34.78,185.31L35.24,197.47L35.4,183.72L36.01,201.03L36.16,195.6L36.31,184.2L37.23,199.7L37.39,197.9L37.69,201.64L37.85,194.25L38.31,201.03L38.61,198.51L38.77,194.5L39.07,190.13L39.23,196.33L39.38,194.51L39.53,179.11L39.84,200.74L40.15,197.99L40.3,163.62L40.76,196.68L40.91,159.64L41.06,190.24L41.22,188.86L41.52,179.41L41.83,198.72L42.14,197.98L42.29,192.87L42.75,192.25L43.06,200.65L43.36,197.4L43.52,198.22L43.67,198.04L43.82,200.38L44.44,187.78L44.59,198.18L44.74,198.53L44.9,198.93L45.05,195.09L45.35,173.23L45.51,200.83L45.66,200.6L45.81,188.89L46.12,196.96L46.27,196.69L46.43,182.33L46.58,197.52L47.04,194.95L47.19,176.64L47.81,200.4L47.96,177.96L48.73,202.42L48.88,184.59L49.03,171.7L49.34,203.34L49.49,194.81L49.65,194.92L49.95,184.15L50.1,190.06L50.26,197.54L50.41,197.28L50.56,190.94L51.18,201.53L51.33,195.87L51.48,192.25L51.79,194.88L51.94,201.76L52.56,192.46L52.71,196.4L52.86,203.57L53.48,168.69L53.63,201.9L54.09,183.6L54.4,196.92L54.55,198.94L54.7,198.75L54.85,192.68L55.16,196.57L55.31,180.9L55.47,195.93L55.62,196.3L55.77,197.19L55.93,187.11L56.23,184.68L56.85,201.5L57,198.1L57.15,200.66L57.31,174.31L57.46,209L58.07,193.87L58.23,199.68L58.69,179.48L58.99,195.22L59.15,194.53L59.3,192.39L59.45,195.11L59.6,194.28L59.76,198.33L60.68,180.17L60.83,191.61L60.98,202.49L61.29,190.95L61.6,199.5L61.75,200L61.9,197.42L62.06,180.5L62.21,201.44L62.82,194.32L62.98,186.88L63.28,198.56L63.9,196.37L64.05,194.38L64.2,194.05L64.35,194.97L64.51,179.51L64.66,170.27L64.81,194.83L64.97,191.6L65.12,193.9L65.27,179.93L65.43,202.42L65.73,201.22L65.89,195.24L66.04,195.38L66.19,180.37L66.5,179.46L66.96,201.66L67.11,193.36L67.27,184.72L67.42,196.3L68.03,192.35L68.19,195.3L68.34,184.72L68.49,199.96L68.8,192.62L68.95,194.78L69.1,194.35L69.26,198.98L69.56,200.55L69.87,189.18L70.02,192.62L70.18,198.87L70.48,199.54L70.64,196.56L70.79,185.3L71.4,203.38L71.71,196.17L71.86,196.06L72.02,191.52L72.17,200.03L72.32,192.87L72.48,200.18L72.63,202.62L72.78,191.2L72.94,186.91L73.09,196.92L73.4,193.4L73.55,197.08L73.7,198.1L74.01,196.96L74.16,191.82L74.31,190.02L74.47,200.22L74.62,188.84L75.08,190.13L75.23,201.29L75.39,203.57L75.54,200.76L75.69,192.88L76.15,185.74L76.46,203.42L76.61,199.52L76.77,195.51L77.07,191.52L77.23,199.62L77.69,198.63L77.84,197.32L77.99,171.67L78.3,197.96L78.45,189.2L78.6,200.38L78.76,177.96L79.37,194.08L79.52,190.85L79.98,199.72L80.14,197.57L80.29,186.97L80.6,200.97L80.9,186.34L81.06,183.69L81.67,198.58L81.82,185.64L82.44,200.23L82.59,195.77L82.74,190.22L83.2,198.16L83.66,194L83.81,144.82L84.27,199.06L84.73,193.17L84.89,191.91L85.04,198.88L85.5,190.43L85.65,194.88L85.81,184.88L85.96,199.16L86.42,184.27L86.57,190.65L86.73,197.75L86.88,202.04L87.19,194.01L87.34,200.76L87.49,192.39L87.95,198.94L88.1,195.58L88.26,192.61L88.41,188.31L88.56,199.28L88.72,194.47L88.87,198.65L89.02,198.45L89.18,195.98L89.64,177.21L89.79,196.15L89.94,199.52L90.4,192.91L90.56,200.62L90.71,200.1L91.48,177.76L91.63,195.99L91.78,199.42L91.94,198.61L92.09,164.15L92.55,202.05L93.01,200.77L93.16,200.32L93.62,192.53L93.93,195.11L94.08,199.15L94.23,201.62L94.39,182.3L95.15,201.98L95.31,196.5L95.46,178.34L95.92,202.09L96.23,196.79L96.38,195.01L96.69,202.31L96.84,198.55L96.99,184.62L97.91,202.71L98.06,193.18L98.37,192.8L98.52,195.89L98.68,176.27L98.98,204.67L99.44,196.99L99.6,198.99L99.75,198.58L99.9,195.37L100.21,198.88L100.36,198.3L100.52,188.8L100.82,197.54L100.98,166.26L101.74,200.04L101.9,193.94L102.2,198.02L102.51,175.51L102.66,193.72L102.81,201.47L103.12,188.41L103.27,181.5L104.04,197.42L104.19,184.81L104.96,201.47L105.11,198.86L105.27,193.02L105.42,203.2L105.57,180.91L106.03,201.1L106.19,178.76L106.65,201.58L106.95,198.35L107.1,197.97L107.56,199.18L107.72,189.07L107.87,199.36L108.18,184.48L108.33,197.8L108.64,193.6L108.79,199.11L108.94,198.15L109.1,198.78L109.25,191.97L109.71,200.02L109.86,199.51L110.02,202.26L110.48,198.02L110.63,196.58L110.78,185.67L111.4,191.1L111.55,197L111.7,200.78L112.16,195.48L112.31,191.54L112.62,200.15L112.93,197.69L113.08,196.79L113.23,189.82L113.69,193.67L113.85,203.79L114,182.61L114.61,193.83L114.77,200.42L115.69,182.47L115.84,190.46L115.99,164.18L116.15,200.21L116.6,169.71L116.76,197.89L117.06,196.65L117.22,183.23L117.98,199.23L118.14,195.72L118.29,194.26L118.44,194.29L118.6,200.88L118.9,175.01L119.06,199.46L119.36,200.28L119.52,187.69L119.82,192.35L119.98,191.89L120.13,170.65L120.28,198L120.59,185.15L120.74,200.05L121.35,200.68L121.66,189.59L121.81,196.88L122.12,182.92L122.27,199.79L122.43,196.1L122.58,197.3L122.89,183.18L123.19,185.97L123.35,196.82L123.81,203.14L124.11,185.55L124.27,198.03L124.57,182.75L124.73,199.65L125.19,184.42L125.34,192.19L126.1,200.67L126.26,190.92L126.41,204.31L126.56,161L127.02,196.48L127.18,196.55L127.64,197.47L127.79,195.87L127.94,181.06L128.25,201.11L128.71,199.13L128.86,189.21L129.32,198.68L129.63,196.45L129.78,194.25L129.94,193.61L130.09,196.6L130.24,192.24L130.4,199.27L130.7,192.56L130.85,203.45L131.47,190.46L131.62,190.61L131.77,200.33L131.93,200.33L132.08,182.16L132.85,196.77L133,185.52L133.15,178.77L133.31,197.92L133.46,192.07L133.61,194.09L133.92,194.98L134.07,192.15L134.38,188.99L134.69,199.6L134.84,195.19L134.99,193.32L135.15,182.18L135.6,196.14L135.76,187.05L135.91,199.73L136.06,201.32L136.22,196L136.37,190.36L136.83,181.86L137.14,199.6L137.29,196.47L137.44,177.63L137.9,203.56L138.06,200.34L138.21,203.03L138.52,195.36L138.67,191.96L139.44,204.8L139.59,189.08L139.74,201.25L140.2,198.74L140.35,178.26L140.51,199.46L141.12,196.69L141.27,200.6L141.43,197.54L141.58,200.4L141.73,179.51L141.89,182.11L142.04,198.9L142.19,198.88L142.35,200.79L142.81,191.63L143.11,197.58L143.27,198.37L143.57,188.67L143.73,201.31L144.03,197.31L144.19,184.64L144.65,175.63L144.95,201.05L145.1,198.57L145.41,186.99L145.56,194.73L145.72,195.8L145.87,194.6L146.02,176.89L146.79,198.55L146.94,185.99L147.1,181.66L147.25,189.75L147.4,199.9L148.32,184.1L148.48,188.56L148.94,202.83L149.4,196.45L149.55,192.53L149.85,190.53L150.47,199.91L150.62,198.6L150.77,195.16L151.08,198.38L151.23,187.93L151.39,194.4L151.54,196.15L151.85,196.47L152,189.34L152.15,200.59L152.46,185.17L152.77,197.8L152.92,201.6L153.23,206.14L153.84,180.55L153.99,194.41L154.15,178.49L154.6,200.96L154.76,196.97L154.91,190.5L155.22,198.83L155.37,194.21L155.52,199.94L155.68,193.72L155.98,203.69L156.14,197.62L156.29,201.21L156.44,202.53L156.6,187.32L157.06,184.6L157.21,198.09L157.36,168.63L157.52,199.66L158.13,194L158.28,181.63L158.59,187.33L158.74,155.37L159.66,201.42L159.81,184.67L159.97,200.03L160.58,197.15L160.73,195.98L160.89,199.24L161.04,192.6L161.5,197.71L161.65,195.48L162.11,194.69L162.27,200.35L162.42,198.45L162.57,191.33L162.88,201.49L163.03,180.62L163.34,193.53L163.49,199.07L163.8,158.41L163.95,202.76L164.11,186.36L164.26,199.65L164.41,200.34L164.56,197.5L164.72,197.47L164.87,205.45L165.18,192.99L165.48,200.86L165.64,197.83L165.94,196.87L166.25,199.58L166.4,198.84L166.56,198.1L167.17,188.3L167.32,200.09L167.48,199.37L167.63,177.59L168.4,199.9L168.7,198.65L168.86,195.51L169.01,197L169.16,192.91L169.31,196.58L169.47,191.71L169.77,200.84L169.93,180.9L170.23,159.48L170.69,204.38L170.85,195.82L171,195.91L171.15,195.12L171.31,198.95L171.46,193.72L171.77,198.63L171.92,184.98L172.69,200.38L172.99,197.33L173.15,194.53L173.3,192.67L173.45,196.18L173.61,202.44L174.37,192.43L174.52,198.11L174.68,190.87L175.14,191.84L175.29,200.22L175.44,201.38L175.75,199.13L175.9,198.52L176.21,186.65L176.36,199.89L176.67,195.98L176.82,196.68L176.98,197.29L177.13,190.2L177.44,184.93L177.74,197.37L177.9,197.14L178.05,168.71L178.2,172.13L178.36,200.65L178.51,181.02L178.97,185.3L179.12,203.53L179.27,203.98L179.43,195.86L179.89,184.53L180.04,199.17L180.19,194.29L180.35,201.23L181.11,188.64L181.27,194.99L181.42,196.81L181.57,185.94L181.73,201.26L182.19,185.36L182.34,185.25L182.49,203.32L183.11,193.31L183.26,186.22L183.41,197.8L183.56,177.48L183.87,184.8L184.02,185.42L184.64,200.87L184.79,185.42L184.94,185.03L185.1,194.35L185.25,197.02L185.4,153.97L185.56,203.53L186.17,200.7L186.32,184.96L186.48,175.41L186.78,187.97L186.94,197.5L187.09,195.6L187.24,178.33L188.01,200.04L188.16,192.2L188.62,180.64L188.93,201.4L189.08,190.03L189.85,197.19L190,197.62L190.15,197.39L190.31,191.46L190.92,201.24L191.07,198.19L191.23,193.85L191.38,185.62L191.69,200.28L191.99,189.46L192.15,196.74L192.3,205.25L192.76,191.89L192.91,172.95L194.14,201.43L194.29,163.02L194.44,201.73L195.06,199.82L195.21,199.11L195.36,187.24L195.82,201.41L195.98,199.67L196.44,192.96L196.59,197.99L196.74,201.13L196.9,96.74L197.36,200.02L197.51,198.43L197.66,198.23L197.81,192.6L198.27,200.93L198.58,196.37L198.73,194.08L198.89,193.33L199.04,184.27L199.19,174.78L199.35,196.31L199.5,192.67L199.65,201.18L199.96,189.39L200.11,191.66L200.27,197.36L200.73,200.31L201.19,190.57L201.34,195.35L201.49,195.1L201.65,201.06L201.8,201.28L201.95,159.38L202.72,199.53L202.87,197.88L203.02,190.52L203.48,199.44L203.64,199.49L203.79,200.01L203.94,181.65L204.25,196.71L204.86,196.04L205.02,191.04L205.17,200.64L205.78,192.12L205.94,182.35L206.55,198.4L206.7,195.32L206.86,183.11L207.47,199.84L207.77,199.03L207.93,196.96L208.23,204.68L208.69,182.02L208.85,192.24L209.31,191.89L209.46,203.56L209.61,197.56L209.77,185.57L209.92,200.98L210.07,176.78L210.53,192.03L210.69,185.02L210.99,199.94L211.45,189.11L211.61,175.24L211.76,203.38L212.37,197.52L212.52,190.62L212.98,189.9L213.29,198.57L213.44,197L213.6,193.56L213.75,185.41L214.06,197.65L214.21,186.13L214.36,197.44L214.52,201.5L214.67,182.03L215.28,180.27L215.59,196.33L215.74,200.49L216.05,190.51L216.36,198.7L216.51,200.54L216.66,200.19L216.81,195.32L216.97,196.42L217.12,202.99L217.58,187.03L218.04,188.49L218.19,198.7L218.35,185.75L218.5,201.9L218.81,185.8L218.96,202.34L219.11,188.1L219.73,198.99L219.88,195.25L220.34,198.14L220.49,184.48L220.8,190.81L220.95,196.09L221.11,197.85L221.26,184.49L221.56,199.79L222.02,192.19L222.18,197.91L222.33,181.21L222.79,196.79L222.94,197.39L223.1,181.35L223.4,203.03L223.71,194.08L223.86,193.83L224.02,184.1L224.17,200.94L224.48,193.09L224.63,195.26L224.78,194.8L224.94,199.37L225.09,198.23L225.24,166.58L226.01,199.99L226.16,196.68L226.31,185.4L226.47,201.76L227.08,198.71L227.23,199.44L227.39,200.25L227.54,195.08L227.85,192.58L228,192.88L228.15,198.73L228.61,200.63L228.77,191.14L228.92,185.42L229.07,196.8L229.53,192.52L229.69,185.62L230.15,201.48L230.45,196.71L230.61,188.55L230.76,172.93L231.06,203.46L231.22,196.68L231.37,188.68L231.83,202.02L232.14,192.85L232.29,194.53L232.44,123.47L233.06,163.94L233.21,192.3L233.36,182.37L233.52,198.4L233.82,195.98L233.98,192.23L234.28,188.51L234.9,196.61L235.05,195.98L235.2,188.91L235.36,179.42L235.66,194.81L235.81,192.89L235.97,192.09L236.43,199.09L236.73,196.6L236.89,171.02L237.35,201.1L237.65,196.55L237.81,192.22L238.27,202.52L238.42,191.01L238.57,198.35L238.73,194.92L238.88,188.95L239.03,200.21L239.19,128.78L239.8,201.39L239.95,190.47L240.11,188.53L240.56,188.2L240.72,200.98L240.87,195.88L241.02,177.62L241.64,203.72L241.79,195.26L241.94,156.24L242.71,197.1L242.86,142.12L243.02,134.4L243.17,188.53L243.32,189.31L243.48,185.87L243.94,202.64L244.09,176.9L244.24,180.71L244.7,198.72L245.01,197.4L245.16,196.29L246.08,182.26L246.23,193.45L246.39,186.65L246.69,198.72L246.85,196.65L247,197.18L247.15,197.15L247.31,189.85L247.61,179.55L248.07,198.87L248.23,197.89L248.38,187.97L248.84,201.12L248.99,189.43L249.15,189.39L249.61,182.23L249.91,199.7L250.06,196.42L250.52,196.01L250.68,201.24L250.83,195.14L250.98,190.79L251.29,197.53L251.44,192.27L251.6,200.56L252.21,184.71L252.36,195.24L252.52,193.24L252.82,202.09L252.98,183.59L253.28,196.77L253.44,192.76L253.59,192.12L253.74,198.79L254.2,199.25L254.66,179.88L254.81,193.94L255.12,195.36L255.27,198.83L255.73,190.85L255.89,199.17L256.04,193.83L256.19,197.92L256.35,197.59L256.5,195.13L256.65,194.73L256.81,199.53L257.27,174.38L257.42,193.04L257.57,194.94L257.73,203.01L257.88,190.43L258.34,198.02L258.49,186.11L259.41,202.75L259.56,201.68L259.72,197.34L259.87,200.64L260.02,194.56L260.18,196.93L260.33,190.56L260.94,199.5L261.1,185.73L261.4,200.34L261.71,199.74L261.86,181.36L262.78,198.99L262.94,185.18L263.09,202.7L263.7,195.92L263.86,198.49L264.01,189.57L264.62,195.46L264.77,189.87L265.54,199.54L265.69,202.39L266,194.31L266.15,181.51L266.61,199.78L266.77,180.77L266.92,198.29L267.07,195.03L267.23,189.7L267.53,199.98L267.69,199.99L268.15,194.9L268.3,197.11L268.45,160.73L268.61,198.88L269.22,197.25L269.37,181.01L269.98,199.85L270.14,190.04L270.29,185.32L270.6,202.11L271.06,198.06L271.21,191.89L271.36,203.1L271.67,186.45L271.82,199.03L271.98,177.21L272.28,198.7L272.59,175.84L272.74,196.77L272.9,193.29L273.2,201.5L273.36,191.19L273.51,187.7L273.81,146.73L273.97,188.39L274.27,201.72L274.73,198.53L274.89,192.12L275.04,191.05L275.19,196.41L275.35,184.03L275.5,199.92L275.96,193.66L276.11,199.28L276.42,187.25L276.73,196.07L276.88,195.13L277.03,201.41L277.19,195.76L277.34,182.44L278.26,200.84L278.41,196.52L278.72,196.82L279.02,184.24L279.18,195.42L279.33,193.53L279.48,196.68L279.64,180.66L280.25,201.7L280.4,192.85L280.56,195.18L281.02,200.97L281.17,193.71L281.48,191.53L281.78,198.83L281.94,195.93L282.09,193.29L282.24,200.06L282.7,191.51L282.86,197.05L283.01,184.49L284.23,200.53L284.39,194.7L284.85,199.38L285.15,174.96L285.31,193.33L285.61,185.41L285.77,200.39L286.07,200.24L286.23,197.26L286.84,200.53L286.99,172.79L287.15,183.29L287.3,198.55L287.76,170.87L288.06,194.48L288.22,196.11L288.37,199.26L288.52,197.01L288.68,187.57L289.29,199.4L289.44,190.91L289.6,191.82L289.9,191.07L290.52,199.72L290.67,197.5L290.98,172.52L291.28,196.4L291.44,199.96L291.9,200.97L292.05,195.24L292.2,195.96L292.36,196.78L292.66,200.08L292.81,191.98L293.12,196.43L293.27,194.22L293.73,198.17L293.89,195.88L294.04,188.29L294.65,202.27L294.81,193.69L294.96,180.96L295.11,174.41L295.27,197.43L295.42,192.28L295.57,199.3L295.73,173.39L295.88,201.43L296.19,190.98L296.34,197.93L296.49,181.68L296.65,200.09L297.11,193.67L297.26,195.19L297.41,183.94L298.02,193.64L298.18,195.8L298.33,195.92L298.48,200.14L298.94,189.9L299.4,193.36L299.56,177.03L300.63,202.43L300.78,188.74L300.94,188.27L301.09,188.8L301.24,195.77L301.4,198.05L301.55,194.43L301.7,185.29L302.62,198.28L302.77,194.59L303.23,199.56L303.39,195.8L303.54,175.37L303.85,203.24L304,172.69L304.46,199.24L304.61,199.9L305.07,162.54L305.23,184.15L305.38,196.43L305.53,189.99L305.99,199.9L306.15,193.9L306.3,193.15L306.45,192.17L306.61,181.36L306.76,203.07L307.06,179.08L307.37,200.04L307.52,199.4L308.14,199.91L308.29,189.71L308.44,191.31L308.6,191.69L308.75,194.75L308.9,186.99L309.21,194.43L309.36,187.3L309.67,201.27L310.13,197.62L310.28,188.4L310.74,201.17L310.9,185.91L311.05,200.66L311.2,195.33L311.51,202.42L311.66,199.99L311.81,192.42L311.97,192.82L312.12,188.68L312.27,188.41L312.43,183.9L312.58,197.66L312.73,167.35L313.19,194.43L313.35,192.92L313.96,202.14L314.11,194L314.27,194.43L314.42,191.77L314.73,198.7L314.88,195.03L315.03,199.29L315.34,194.25L315.49,199.59L315.65,170.63L315.95,200.82L316.56,192.84L316.72,183L317.48,196.82L317.64,196.59L317.79,198.41L317.94,196.18L318.1,191.76L318.25,201.82L318.86,193.39L319.02,173.16L319.63,201.28L319.78,197.54L319.94,186.66L320.55,198.8L320.7,188.13L320.86,197.62L321.31,197.79L321.62,187.92L321.77,195.33L321.93,195.04L322.08,181.27L322.69,197.19L323,193.92L323.15,197.22L323.61,199.04L323.92,194.6L324.07,185.31L324.23,176.94L324.38,193.29L324.53,191.66L324.69,196.65L324.99,190.58L325.15,166.02L325.61,202.14L326.22,191.83L326.37,195.17L326.83,188.92L326.98,200.79L327.14,191.28L327.29,200.69L327.75,192.03L327.9,182.99L328.98,204.7L329.13,190.53L329.28,191.19L329.44,174.7L329.59,198.97L330.05,198.7L330.2,175.26L330.36,201.99L330.97,194.99L331.12,195.77L331.27,194.21L331.43,199.95L331.58,199.96L331.73,201.31L331.89,190.96L332.04,200.46L332.35,187.41L332.5,178.98L332.65,202.45L333.27,195.9L333.42,195.85L333.57,184.76L333.88,200.27L334.19,192.51L334.34,193.12L334.49,199.64L334.95,198.82L335.11,190.64L335.41,200.66L335.72,194.08L335.87,188.74L336.02,201.47L336.33,187.35L336.64,192.64L336.79,198.97L337.25,202.58L337.86,186.5L338.02,203.33L338.48,175.72L338.94,183.8L339.09,194.29L339.24,188.44L339.4,196.61L339.7,193.93L339.86,194.92L340.01,195.2L340.16,199.86L340.31,160.67L340.93,194.41L341.08,200.82L341.23,200.06L341.39,193.47L341.54,200.46L342.15,198.64L342.31,199.23L343.07,160.12L343.23,197.45L343.38,200.59L343.53,180.8L344.45,199.63L344.61,184.49L345.06,177.41L345.22,199.57L345.37,194.33L345.52,187.79L345.68,178.99L345.83,201.63L345.98,196.98L346.14,197.79L346.75,189.52L346.9,194.55L347.06,198.27L347.36,164.48L347.52,194.08L347.67,195.27L348.13,194.54L348.44,203.71L348.59,199.9L349.2,187.42L349.36,193.35L349.51,198.5L349.97,192.02L350.12,198.4L350.27,200.63L350.73,201.22L350.89,184.32L351.04,193.01L351.19,190.95L351.35,191.8L351.5,202.3L351.65,203.04L351.81,199.18L351.96,183.27L352.27,201.22L352.42,199.61L352.57,200.49L352.73,201.71L352.88,199.83L353.03,199.83L353.19,189.34L353.8,199.16L353.95,187.2L354.11,188.1L354.26,202.13L354.87,186.75L355.33,191.88L355.48,195.19L355.64,203.68L356.1,192.5L356.25,195.6L356.56,185.01L356.71,199.86L356.86,193.51L357.02,177.94L357.17,182.77L357.32,128.47L357.94,199.89L358.24,197.04L358.4,195.77L358.7,193.12L359.01,198.38L359.16,194.19L359.31,185.39L359.62,195.82L359.77,192.35L359.93,197.53L360.08,201.28L360.23,191.55L360.39,182.99L360.85,198.25L361,180.79L361.15,194.71L361.31,194.32L361.46,195.04L361.61,190.77L361.92,204.01L362.07,175.15L362.23,201.11L362.38,188.42L362.53,200.9L362.69,177.39L363.15,198.32L363.3,199.14L363.45,198.63L363.61,188.78L364.06,201.15L364.22,177.76L364.37,197.59L364.52,200.04L365.14,191.23L365.29,195.57L365.44,204.11L365.75,186.67L366.21,187.86L366.36,200L366.67,200.69L366.82,198.72L366.98,195.31L367.13,186.37L367.59,201.41L367.74,203.26L368.66,183.1L368.81,187.26L368.97,190.15L369.27,202.09L369.58,194.63L369.73,188.29L370.19,201.94L370.35,187.29L370.5,188.05L371.11,199.31L371.27,197.67L371.42,188.68L371.57,170.38L371.88,197.1L372.03,188.52L372.19,196.41L372.65,177.93L372.8,188.7L372.95,195.76L373.56,201.5L373.72,196.81L373.87,175.41L374.64,202.45L374.79,193.99L375.56,200.84L375.71,188.7L375.86,187.68L376.02,193.54L376.17,193.83L376.32,199.09L376.63,200.97L376.78,182.98L377.7,204.06L377.86,200.43L378.16,202.04L378.62,194.23L378.77,198.41L379.23,186.93L379.54,188.59L379.69,205.59L380,191.49L380.46,195.39L380.61,196.34L380.77,202.1L380.92,177.67L381.07,195.17L381.69,184.75L381.84,194.36L381.99,190.18L382.15,199.7L382.3,192.44L382.45,198.89L383.06,193.36L383.22,186.06L383.37,200.69L383.68,180.94L383.98,197.62L384.14,197.72L384.6,189.72L385.06,190.9L385.21,202L385.98,188.08L386.13,198.81L386.28,199.37L386.44,194.71L386.59,198.74L386.74,192.31L386.9,172.21L387.36,203.48L387.66,201.66L387.81,188.77L388.73,204.49L388.89,190.67L389.04,190.41L389.19,186.24L389.65,185.33L389.96,201.84L390.11,180.68L390.42,169.97L390.57,201.42L391.03,197.61L391.19,184.2L391.34,184.78L391.49,200.01L392.11,189.87L392.26,198.45L392.41,197.9L392.56,199.79L392.72,188.9L393.02,180.09L393.33,198.73L393.48,194.21L393.64,190.07L393.79,184.22L393.94,197.02L394.25,193.12L394.4,196.02L394.56,197.28L394.71,181.31L394.86,197.43L395.48,192.4L395.63,198.09L395.94,196.15L396.09,191.27L396.4,189.44L396.55,196.12L396.7,180.84L397.62,200.95L397.77,194.6L398.39,202.38L398.54,193.14L399,198.47L399.15,189.1L399.31,192.45L399.46,201.41L400.07,174.12L400.23,199.61L400.53,173.22L400.69,197.22L400.84,181.01L401.15,198.51L401.45,194.07L401.61,199.36L401.76,189.79L402.37,197.79L402.52,199.52L402.68,196.45L402.83,199.01L402.98,167.05L403.6,201.43L403.9,200.26L404.06,179.78L404.21,200.12L404.82,198.36L404.98,188.74L405.13,202.1L405.74,191.96L405.9,199.78L406.2,184.07L406.51,193.32L406.66,197.08L406.97,188.15L407.12,193.87L407.27,172.67L407.58,201.61L408.19,198.63L408.35,184.33L409.11,201.54L409.27,195.83L409.42,176.87L410.34,203.75L410.49,198.88L410.95,172.79L411.26,180.62L411.41,196.86L411.56,198.2L411.72,191.47L412.02,191.27L412.33,200.37L412.48,195.68L412.64,193.96L412.79,173.2L413.25,204.39L413.4,199.23L413.56,199.75L413.71,193.72L414.02,176.87L414.48,200.66L414.63,198.01L414.78,200.05L414.94,198.86L415.09,189.68L415.24,187.02L415.4,192.36L415.55,195.16L416.01,193.69L416.47,201.04L416.62,193.32L416.77,187.72L416.93,198.21L417.08,197.08L417.23,198.57L417.39,188.46L417.85,203.06L418,199.99L418.46,181.89L418.77,195.17L418.92,193.68L419.53,200.84L419.84,197.67L419.99,198.25L420.15,200.67L420.45,197.1L420.61,195.21L420.91,203.19L421.06,190.46L421.37,191.52L421.52,199.16L421.83,185.7L421.98,197.26L422.14,197.23L422.44,198.33L422.6,192.87L422.75,194.29L422.9,203.33L423.67,194.22L423.82,199.82L424.44,192.06L424.59,197.3L424.74,198.47L424.9,197.17L425.05,179.17L425.51,202.37L425.81,195.38L425.97,193.59L426.12,199.68L426.58,189.34L426.73,192.34L427.04,194.06L427.19,197.58L427.5,183.29L427.65,200.83L427.81,205.26L428.42,186.18L428.57,194.52L428.73,194.79L428.88,185.93L429.03,198.72L429.49,192.1L429.65,194.47L429.8,178.23L430.11,195.5L430.26,183.94L430.41,197.33L430.56,200.56L430.72,187.75L431.48,200.41L431.64,189.83L431.79,186.93L431.94,204.32L432.25,194.39L432.71,198.82L432.86,178.18L433.48,201.43L433.63,197.74L433.78,195.7L433.94,203.55L434.09,187.85L434.55,202.33L434.7,192.84L435.01,195.74L435.31,186.86L435.47,189.85L435.62,192.41L435.77,190.35L435.93,202.37L436.69,175.79L436.85,192.45L437,198.27L437.61,200.18L437.77,187.23L437.92,200.78L438.07,201.54L438.23,189.01L438.38,183.41L438.69,192.66L438.84,197.07L438.99,202.25L439.45,197.5L439.61,197.7L439.91,198.53L440.06,177.75L440.22,193.3L440.37,184.83L440.52,195.19L440.83,193.19L440.98,196.62L441.29,191.96L441.44,206.72L441.6,193.11L441.75,189.29L442.06,198.53L442.21,198.59L442.67,199.88L442.82,192.85L443.28,200.6L443.44,192.32L443.59,191.53L443.74,203.38L444.2,189L444.36,189.24L444.51,188.05L444.66,197.62L444.81,178.81L445.12,201.16L445.27,193.2L445.43,199.71L445.58,194.96L446.19,198.69L446.35,194.94L446.5,199.31L446.65,164.99L446.81,196.45L447.42,191.11L447.57,196.69L448.03,188.9L448.19,196.03L448.49,177.05L448.95,183.3L449.11,198.69L449.41,184.99L450.02,190.05L450.18,194.9L450.94,201.4L451.1,198.23L451.25,199.34L451.71,189.48L451.86,197.31L452.02,200.09L452.63,201.8L452.78,170.12L452.94,187.46L453.55,184L453.7,200.27L453.86,199.34L454.01,199.18L454.16,177.08L454.77,203.76L454.93,192.11L455.08,187.61L455.23,174.95L455.54,194.58L455.69,182.82L455.85,195.38L456.15,200.13L456.46,191.9L456.61,201.52L456.92,187.27L457.38,194.88L457.53,201.44L458.3,166.47L458.45,197.06L458.76,194.46L458.91,200.72L459.22,193.6L459.37,194.91L459.52,199.99L459.83,181.69L460.29,197.44L460.44,189.07L461.36,200.59L461.52,196.14L461.98,192.41L462.13,198.4L462.74,194.09L462.9,198.45L463.05,198.99L463.2,198.22L463.36,191.1L463.66,197.9L463.81,184.07L464.12,195.9L464.27,189.46L464.43,189.55L464.58,199.47L465.5,168.16L465.65,192.66L465.96,199.93L466.42,198.35L466.57,193.3L467.19,202.24L467.34,169.76L467.95,199.97L468.26,197.74L468.41,197.45L469.18,184.66L469.33,194.88L469.48,183.37L469.64,200.02L469.94,186.18L470.1,199.1L470.25,200.28L470.4,196.91L470.56,198.95L470.71,197.72L470.86,199.69L471.02,198.93L471.17,142.63L471.63,199.18L471.94,159.66L472.09,169.51L472.7,203.24L472.86,183.69L473.01,195.9L473.32,198.8L473.47,187.01L473.62,191.4L473.77,197.96L474.08,200.34L474.23,190.32L474.39,187.06L474.69,201.34L474.85,188.88L475.15,196.03L475.31,185.34L475.46,196.82L475.77,179.88L476.07,192.5L476.23,192.71L476.38,191.71L476.53,192.22L476.69,184.17L477.61,200.8L477.76,190.98L478.22,199.06L478.52,195.75L478.68,198.21L479.14,199.22L479.29,184.96L479.44,198.11L479.75,199.27L479.9,191.06L480.21,193.96L480.36,197.33L480.52,193.33L480.82,199.89L480.98,199.69L481.13,198.83L481.44,193.75L481.59,179.89L481.74,198.21L482.2,188.15L486.34,197.05L486.49,195.35L486.65,199.2L486.8,181.61L486.95,182.69L487.11,197.64L487.26,200.4L487.41,198.05L487.57,184.78L487.87,177.22L488.18,196.67L488.33,189.89L488.48,180.42L489.25,201.1L489.4,193.48L490.02,203.14L490.17,184.65L491.09,204.28L491.24,197.31L491.4,197.92L491.55,188.07L491.7,191.95L491.86,157.84L492.62,199.95L492.77,158.73L493.08,154.9L493.39,203.53L493.54,154.25L494,202.75L494.31,193.87L494.46,162.89L494.61,197.37L495.23,197.31L495.38,200.71L495.53,183.88L496.15,190.64L496.3,200.22L496.45,193.78L497.07,198.7L497.22,196.66L497.52,200.89L497.68,194.41L497.83,200.06L498.14,200.56L498.6,196.35L498.75,199.77L498.9,170.2L499.36,202.36L499.52,186L499.67,197.96L499.82,200.86L500.13,194.07L500.28,199.69L500.44,188.98L500.59,184.16L500.9,194.56L501.05,193.53L501.2,199.92L501.51,190.59L501.82,196.79L501.97,195.32L502.12,187.64L502.43,197.3L502.58,192.41L502.73,201.1L502.89,200.71L503.04,196.17L503.19,200.98L503.81,199.3L503.96,192.94L504.11,174.94L504.27,203.56L504.57,187.62L504.73,201.58L504.88,204.11L505.03,197.88L505.19,178.45L505.95,196.96L506.11,191.85L506.26,192.37L506.41,196.37L506.57,181.24L507.02,204.58L507.18,196.7L507.64,193.48L507.79,203.12L507.94,192.6L508.25,198.54L508.56,182.63L508.71,185.35L508.86,192.34L509.02,184.83L509.17,196.26L509.48,195.2L509.63,197.38L509.78,174.64L510.09,198.95L510.4,185.71L510.55,199.79L510.86,187.65L511.16,193.03L511.32,196.39L511.47,204L511.93,192.95L512.08,189.21L512.23,200.28L512.85,196.17L513,199.87L513.61,188.18L513.77,201.16L513.92,188.72L514.38,199.35L514.53,200.8L514.69,191.06L515.3,194.73L515.45,196.37L515.76,180.85L516.22,193.73L516.37,200.85L516.68,196.36L517.14,197.06L517.29,200.48L518.21,197.16L518.36,185.41L518.52,204.31L518.98,198.69L519.13,160.13L520.05,198L520.2,192.36L520.36,193.67L520.51,184.63L520.97,181.19L521.12,198.14L521.43,197.26L521.58,158L521.73,200.19L522.35,192.33L522.5,196.24L522.65,199.72L523.27,198.97L523.42,191.91L523.57,189.02L523.73,201.04L523.88,193.58L524.49,195.56L524.65,194.19L524.8,199.77L524.95,188.39L525.11,191.86L525.26,175.54L525.57,200.74L525.72,152.9L526.02,183.89L526.18,200.06L526.64,179.07L526.94,190.81L527.1,192.76L527.25,190.57L527.4,194.61L527.56,193.06L527.71,196.1L527.86,190.31L528.32,200.65L528.48,195.71L529.09,193.62L529.24,195.81L529.4,193.94L529.55,200.89L529.7,186L530.47,203.53L530.62,196.79L530.77,199.47L530.93,196.14L531.08,190.13L531.39,200.53L531.69,186.83L531.85,198.85L532,188.68L532.77,203.87L532.92,200.21L533.07,173.71L533.38,206.94L533.84,199.21L533.99,198.65L534.3,202.13L534.76,193.21L534.91,198.94L535.07,174.94L535.68,193.81L535.83,203.84L536.14,183.03L536.29,199.15L536.44,201.73L536.6,190.82L536.9,197.26L537.06,189.83L537.36,194.48L537.52,188.84L538.44,200.6L538.59,192.81L538.9,201.9L539.05,190.06L539.2,195.93L539.36,193.05L539.66,204.95L540.12,182.29L540.27,197.5L540.58,193.15L540.89,200.76L541.04,192.79L541.19,201.84L541.81,201.18L541.96,198.9L542.42,194.66L542.57,200.16L543.49,192.55L543.65,197.28L543.8,200.22L544.11,194.83L544.26,196.7L544.41,181.56L545.02,203.85L545.18,198.37L545.33,198.94L545.48,162.75L545.79,200.15L545.94,195.75L546.1,195.38L546.56,186.98L546.71,203.12L547.17,187.85L547.48,195.27L547.63,196.04L547.78,201.68L547.94,200.1L548.09,146.04L549.01,202.7L549.16,196.42L549.32,177.34L549.47,200.21L549.77,187L549.93,194.74L550.23,192.21L550.69,197.32L550.85,191.43L551.31,202.56L551.61,194.89L551.77,184.3L552.38,202.31L552.53,193.87L552.69,185.89L553.45,199.95L553.61,193.14L553.76,193.85L553.91,167.53L554.37,200.9L554.52,167.49L554.83,188.27L554.98,201.22L555.29,204.33L555.75,190.91L555.9,192.1L556.06,198.37L556.36,185.36L556.82,186.91L556.98,202.93L558.05,184.63L558.2,195.42L558.51,190.27L558.82,193.52L558.97,199.75L559.73,171.06L559.89,194.21L560.04,196.73L560.19,187.78L560.35,182.13L560.81,199.42L561.27,196.36L561.42,200.01L561.73,186.01L561.88,198.86L562.03,200.76L562.19,196.42L562.34,191.64L562.49,200.44L563.11,194.55L563.26,199.94L563.41,189.85L563.72,201.14L563.87,196.15L564.02,201.51L564.64,192.66L564.79,198.65L564.94,198.63L565.25,195.08L565.4,196.93L565.56,167.81L566.02,198.75L566.63,198.37L566.78,193.02L566.94,185.88L567.24,198.51L567.4,197.65L567.55,196.99L567.86,203.72L568.16,193.94L568.32,192.7L569.08,201.42L569.23,192.15L569.69,189.46L569.85,201.1L570,192.57L570.61,203.15L570.77,200.18L570.92,194.26L571.07,198.42L571.23,193.14L571.38,185.58L571.69,175.93L571.84,202.03L572.15,198.23L572.3,146.95L572.45,200.62L573.07,198.09L573.22,194.71L573.37,199.71L573.52,192.45L573.83,195.19L573.98,191.81L574.14,195.28L574.29,194.37L574.44,183.98L575.06,180.61L575.21,201.07L575.36,192.06L575.52,191.73L575.67,197.74L575.98,204.69L576.13,190.55L576.28,188.22L576.44,197.65L576.59,201.31L576.74,194.66L576.9,198.74L577.05,188.3L577.2,186.39L577.36,198.49L577.51,204.68L577.82,190.09L577.97,185.69L578.27,199.73L578.89,196.15L579.04,197.02L579.19,197.49L579.35,186.79L579.5,201.9L579.96,197.86L580.11,180.05L580.27,199.83L580.42,174.9L580.88,193.4L581.03,194.41L581.19,197.69L581.65,197.01L581.8,186.86L582.11,200.18L582.72,197.44L582.87,193.92L583.02,184.62L583.33,202.04L583.48,203.94L584.25,183.71L584.4,201.83L585.17,194.25L585.32,199.67L585.48,201.75L585.63,185.56L586.24,199.99L586.4,191.23L586.55,190.77L586.7,192.02L586.86,189.18L587.01,187.25L587.62,187.07L587.77,199.85L587.93,199.62L588.08,198.19L588.23,200.09L588.39,196.68L588.54,187.04L588.69,183.45L588.85,198.28L589.61,170.48L589.77,174.38L589.92,190.79L590.07,198.42L590.38,194.6L590.53,181.39L591.15,200.58L591.3,172.92L591.45,198.32L592.07,195.11L592.22,199.21L592.37,197.6L592.52,187.03L592.83,199.8L592.98,188.46L593.9,202.23L594.06,192.11L594.21,198.93L594.52,180.27L594.82,196.07L594.98,190.51L595.13,197.53L595.74,193.61L595.9,183.69L596.05,198.7L596.66,195.13L596.82,190.85L597.43,199.79L597.58,199.08L597.73,173.1L597.89,200.73L598.35,198.01L598.5,163.29L599.11,203.44L599.27,203.01L599.42,187.74L599.73,194.36L599.88,191.36L600.03,185.18L600.95,201.87L601.11,191.28L601.41,188.46L601.72,201.6L601.87,196.01L602.02,192.51L602.18,197.64L602.64,195.7L602.79,190.02L603.1,204.56L603.25,190.91L603.4,191.12L603.56,199.36L604.17,175.54L604.32,176.05L604.48,199.79L605.24,188.22L605.4,198.36L605.55,185.03L605.86,200.32L606.16,195.87L606.32,195.09L606.62,201.97L606.93,200.7L607.08,194.35L607.23,202.12L607.39,187.35L607.85,199.63L608,197.3L608.15,200.31L608.31,179.83L608.92,199.49L609.07,196.66L609.23,194.18L609.38,197.2L609.53,189.14L609.84,193.16L609.99,170.08L610.91,198.5L611.07,202.06L611.22,191.83L611.83,197.95L611.98,192.47L612.29,202.95L612.75,201.93L612.9,187.16L613.52,201.54L613.82,200.3L613.98,194.1L614.28,187.37L614.9,199.55L615.05,189.48L615.82,201.26L615.97,191L616.12,163.31L616.27,199.24L616.58,193.39L616.73,192.27L617.65,197.59L617.81,190.38L617.96,190.35L618.11,193.19L618.27,191.26L618.42,199.08L618.88,193.88L619.03,201.65L620.11,149.27L620.26,193.5L620.41,194.32L620.57,189.71L620.72,200.42L620.87,181.2L621.33,200.28L621.48,200.61L622.25,179.56L622.4,198.49L622.56,201.08L622.86,199.34L623.02,194.7L623.32,194.59L623.48,197.27L623.63,191.72L623.78,200.32L623.94,190.14L624.4,195.73L624.55,182.22L625.16,202.12L625.32,182.65L625.93,199.37L626.39,196.89L626.54,191.23L627,199.62L627.31,192.39L627.46,191.59L628.23,198.9L628.38,189.58L628.53,198.85L629.15,197.98L629.3,197.22L629.61,196.97L629.76,198.74L629.91,187.5L630.68,202.01L630.83,177.23L631.14,199.4L631.6,197.38L631.75,187.91L631.9,188.92L632.06,196.26L632.21,200.45L632.52,191.95L632.67,191.46L632.82,191.35L632.98,200.13L633.13,201.36L633.28,196.88L633.44,184.77L633.59,199.55L634.05,187.35L634.2,179.71L634.97,200.67L635.12,198.29L635.43,202.01L635.58,186.24L635.89,195.35L636.04,195.43L636.19,194.17L636.35,196.84L636.5,189.15L636.65,188.73L636.81,194.72L636.96,186.8L637.11,198.2L637.42,187.84L637.57,201.89L637.88,188.26L638.19,197.02L638.34,195.14L638.49,195.7L638.65,192.94L638.95,200.7L639.11,190.67L639.41,199.5L639.57,198.27L639.72,190.64L639.87,202.43L640.33,198.28L640.48,188.2L640.94,200.14L641.4,199.66L641.56,197.8L642.48,187.29L642.63,196.07L642.78,203.3L642.94,195.5L643.24,199.52L643.4,195.72L643.7,189.58L644.01,201.04L644.16,197.19L644.32,191.75L644.62,197.53L644.77,181.29L645.23,201.71L645.69,199.85L645.85,190.89L646.15,196.48L646.31,183.25L647.07,199.95L647.23,199.72L647.38,200.43L647.53,179.78L648.15,190.77L648.3,196.44L648.45,200.77L648.91,197.09L649.07,193L649.22,192.01L649.37,197.82L649.98,182.76L650.14,196.23L650.29,195.79L650.44,173.16L650.9,200.03L651.36,194.35L651.52,195.48L651.67,176.01L652.13,197.71L652.28,196.76L652.59,201.17L652.74,178.08L653.2,202.13L653.51,198.37L653.66,188.27L654.12,198.34L654.27,192.9L654.43,188.73L654.58,201.64L654.73,167.94L655.19,199.69L655.35,198.95L655.5,183.89L655.96,196.55L656.11,201.45L656.73,190.87L656.88,195.74L657.03,196.21L657.19,203.16L657.65,190.95L657.8,200.65L657.95,196.54L658.11,195.98L658.26,197.89L658.41,198.39L658.57,194.94L658.72,199.18L659.18,197.13L659.33,195.36L659.94,168.51L660.1,195.66L660.25,193.62L660.4,200.91L660.56,200.08L660.86,176.49L661.02,199.37L661.17,196.08L661.32,201.15L661.48,149.67L661.78,199.44L662.24,188.81L662.4,197.46L662.7,193.76L662.86,201.21L663.01,197.69L663.16,188.7L663.47,180.76L663.77,199.75L663.93,191.31L664.08,192.09L664.23,202.09L664.69,187.94L664.85,195.41L665,193.3L665.15,181.68L665.46,199.58L665.77,182.7L665.92,184.77L666.23,199.98L666.69,192.49L666.84,184.76L667.15,199.59L667.61,198.6L667.76,194.08L667.91,202.47L668.07,193.62L668.37,199.24L668.52,193.32L668.83,186.71L668.98,201.31L669.29,198.7L669.44,191.86L669.6,168.45L670.06,197.03L670.21,194.21L670.36,198.92L670.67,198.6L670.82,185.49L671.28,198.62L671.44,183.62L671.59,192.47L671.74,189.23L671.9,182.13L672.2,200.05L672.36,197.78L672.51,202.35L672.66,180L672.82,202.43L673.43,197.14L673.58,195.85L673.73,192.21L674.04,193.81L674.19,200.02L674.35,201.6L674.5,193.9L674.65,191.79L674.81,198.52L674.96,196.11L675.11,200.79L675.57,190.06L675.73,205.79L675.88,198.78L676.03,200.14L676.34,178.65L676.49,189.34L676.65,200.98L676.95,186.01L677.11,193.77L677.26,197.71L677.41,202.81L677.57,185.45L677.87,201.61L678.02,184.96L678.94,201.51L679.1,187.83L679.25,198.86L679.4,187.25L679.86,198.52L680.02,197.57L680.17,199.35L680.32,184.12L680.48,182.08L680.63,197.46L680.78,191.24L681.09,198.58L681.4,194.52L681.55,205.14L681.7,184.62L682.32,187.52L682.47,195.03L682.62,187.42L682.77,197.6L683.08,196.18L683.23,199.91L683.39,190.51L684,191.56L684.15,199.83L684.31,200.99L684.46,193.89L684.77,195.83L684.92,188.39L685.53,201.16L685.84,197.07L685.99,199.33L686.15,169.79L686.3,199.56L686.61,196.92L686.76,197.1L686.91,201.52L687.22,195.01L687.52,199.84L687.68,195.56L688.6,184.05L688.75,186.39L689.21,198.57L689.52,191.49L689.67,182.4L689.82,177.57L689.98,191.88L690.13,201.91L690.9,179.67L691.05,200.88L691.36,201.85L691.51,193.38L691.82,189.8L692.12,197.81L692.27,178.7L692.43,200.31L693.04,184.37L693.19,199.48L693.65,190.89L693.81,199.17L693.96,198.85L694.27,193.43L694.42,198.99L694.57,196.14L694.73,200.87L694.88,178.59L695.03,200.54L695.65,183.75L695.8,192.77L696.11,194.47L696.26,191.66L696.41,201.05L696.57,179.92L697.02,192.21L697.18,198.43L697.33,199.48L697.48,192.16L697.64,192.1L697.79,200.25L697.94,200.78L698.1,189L698.4,202.05L698.56,199.06L698.71,171.78L699.32,199.34L699.48,198.65L699.63,183.93L699.94,201.25L700.09,180.92L700.4,186.98L700.55,191.94L700.7,188.19L701.01,198.74L701.16,196.49L701.32,179.07L701.77,199.9L701.93,191.72L702.08,195.65L702.23,184.99L702.69,196.04L702.85,188.73L703,198.18L703.31,178.14L703.61,184.29L703.77,198.45L704.07,196.9L704.23,187.25L705.15,203.42L705.3,195.52L705.45,203.22L705.61,187.47L706.07,201.51L706.22,179.35L706.68,199.11L707.14,199.03L707.29,202.89L708.06,190.22L708.21,196.6L708.36,201.66L708.52,176.9L708.67,202.1L709.28,184.28L709.44,183.94L709.59,201.18L710.2,200.52L710.36,199.53L710.51,204.29L710.82,190.37L710.97,197.74L711.12,193.61L711.27,201.92L711.43,192.69L711.89,200.25L712.04,189.56L712.65,198L712.81,191.3L712.96,192.5L713.27,195.37L713.42,180.22L713.88,174.8L714.03,203.56L714.34,199.18L714.49,195.98L714.65,195.52L714.8,185.53L715.26,201.09L715.72,195.57L715.87,201.23L716.48,197.23L716.64,201.2L716.94,203.1L717.1,187.63L717.4,196.19L717.56,201.44L717.71,203.96L717.86,190.92L718.02,168.12L718.48,200.24L718.63,205.99L719.55,193.14L719.7,200.86L719.86,182.95L720.47,196.1L720.62,188.01L720.77,181.75L720.93,189.09L721.08,204.19L721.54,193.14L722,196.93L722.15,199.36L722.31,201.2L722.46,196.13L722.61,197.39L722.77,191.51L723.38,199.42L723.53,188.98L723.99,201.11L724.15,186.66L724.3,181.9L724.91,200.88L725.07,196.66L725.22,178.79L725.37,201.17L725.98,195.47L726.14,197.86L726.44,200.21L726.75,185.87L726.9,202.56L727.52,194.85L727.67,200.39L727.82,199.75L727.98,201.71L728.13,196.42L728.28,179.26L728.44,201.32L729.05,196.32L729.2,189.38L729.36,189.41L729.51,183L730.12,199.93L730.43,199.71L730.58,168.81L730.73,198.51L731.35,191.08L731.5,198.97L732.11,187.11L732.27,196.41L732.42,199.44L733.03,185.07L733.19,186.74L733.34,204.29L733.49,191.06L734.11,194.86L734.26,200.1L734.41,199.28L734.57,186.59L735.18,202.45L735.33,198.88L735.48,192.58L735.64,194.08L735.79,187.14L736.71,200.76L736.86,198.03L737.32,179.92L737.48,197.95L737.63,202.49L737.78,168.87L738.4,191.04L738.55,191.68L738.7,191.57L738.86,196.69L739.16,187.39L739.47,203.06L739.62,193.15L739.93,183.33L740.23,198.96L740.39,188.58L740.69,201.57L741.31,198.81L741.46,183.81L741.61,181.1L741.77,197.07L741.92,196.9L742.07,197.15L742.23,192.99L742.38,194.71L742.53,175.77L742.99,201.86L743.3,185.14L743.45,183.71L744.22,202.96L744.37,199.78L744.52,198.96L744.68,186.53L745.29,202.3L745.9,201.05L746.06,200.37L746.21,198.74L746.36,201.02L746.52,186.56L746.82,192.58L746.98,182.31L747.13,201.31L747.74,190.16L747.9,194.35L748.05,189.57L748.2,200.66L748.51,198.76L748.66,199.09L749.12,187.59L749.27,187.6L749.43,199.74L749.58,199.9L749.73,190.19L750.5,202.59L750.65,199.63L750.81,193.73L750.96,194.79L751.11,190.03L751.27,200.94L751.73,196.49L751.88,179.06L752.19,200.47L752.65,197.18L752.8,188.65L753.57,204.29L753.72,199.83L753.87,174.61L754.18,200L754.48,194.73L754.64,194.83L754.79,196.5L754.94,188.8L755.71,199.82L756.02,199.6L756.17,198.41L756.32,181.13L756.78,199.98L756.94,197.23L757.24,187.32L757.4,200.05L757.55,163.65L758.16,195.42L758.32,197.45L758.47,195.72L758.77,200.45L758.93,197.06L759.08,198.03L759.39,200.39L760.15,183.28L760.31,187.58L760.77,201.19L760.92,184.65L761.07,156.4L761.84,198.47L761.99,197.6L762.15,200.26L762.3,200.72L762.45,178.61L763.22,200.29L763.37,192.4L763.52,192.08L763.68,200.51L763.83,183.08L764.29,197.54L764.44,200.45L764.75,178.74L765.21,192.46L765.36,195.83L765.52,199.89L772.41,179.14L772.87,177.09L773.02,198.67L773.18,184.04L773.33,195.98L773.48,200.69L773.64,199.15L773.79,186.13L774.1,197.69L774.25,172.07L774.4,200.6L775.02,200.06L775.17,193.43L775.32,197.38L775.48,190.15L775.63,194.65L775.78,189.29L776.09,198.33L776.4,193.48L776.55,168.24L776.86,155.78L777.16,197.68L777.47,197.03L777.62,199.51L778.39,189.23L778.54,196.05L778.85,199.81L779,194.08L779.31,181.55L779.61,198.86L779.77,184.46L779.92,201.46L780.07,190.18L780.69,193.86L780.84,195.8L781.15,196.84L781.61,183.77L781.76,199.74L781.91,199.97L782.07,192.23L782.37,200.33L782.52,189.4L782.83,196.98L782.98,187.03L783.14,188.54L783.29,198.01L783.44,200.02L783.6,194.01L783.75,199.24L783.9,194.5L784.21,198.39L784.36,181.72L784.52,202.04L785.28,184.92L785.44,202.94L786.51,183.3L786.66,191.72L787.43,200.72L787.58,198.11L788.04,200.15L788.19,188.48L788.81,196.82L788.96,194.78L789.11,187.76L789.42,186.89L789.88,201.56L790.03,198.41L790.19,199.66L790.49,179.15L790.8,202.42L790.95,194.45L791.11,194.01L791.72,199.85L792.03,198.83L792.18,200.06L792.33,199.76L792.48,200.57L792.64,189.87L793.25,197.48L793.4,188.11L793.56,184.97L793.71,199.78L793.86,203.16L794.02,191.43L794.17,199.86L794.32,191.51L794.63,202.95L794.78,189.1L794.94,164.89L795.7,201.37L796.16,200.21L796.32,167.47L796.78,199.66L796.93,161.99L797.08,197.47L797.23,176.34L797.69,199.13L797.85,154.98L798.61,203.51L798.77,199.27L798.92,200.5L799.07,192.25L799.53,201.47L799.69,190.75L800.15,202.81L800.3,201.11L800.45,190.76L800.61,190.43L800.76,196.15L801.22,200.55L801.37,179.15L801.53,199.95L801.68,190.68L802.29,193.84L802.44,196.02L802.6,199.08L802.9,192.41L803.06,195.98L803.21,187.1L803.67,200.51L803.82,168.19L804.28,201.26L804.59,198.88L804.74,193.35L804.9,188.11L805.05,200.54L805.36,189.56L805.51,197.85L805.66,198.32L805.82,189.11L806.12,201.24L806.28,176.38L806.58,194.01L806.73,197.97L806.89,194.41L807.19,202.12L807.35,195.76L807.5,201.9L808.42,181.57L808.57,202.02L808.88,191.73L809.34,198.86L809.49,200.18L809.65,200.8L809.8,197.23L809.95,160.04L810.41,184.19L810.57,199.02L810.72,202.75L810.87,193.55L811.03,197.02L811.18,182.47L811.64,201.86L811.94,189.31L812.1,192.35L812.25,190.64L812.4,194.1L812.56,195.88L812.71,196.44L812.86,194.6L813.02,199.32L813.48,205.19L813.63,174.16L813.78,190.79L813.94,201.72L814.7,180.18L814.86,195.91L815.16,190.18L815.32,198.33L815.47,192.35L815.62,196.46L816.08,196.27L816.23,201.01L816.39,189.99L816.54,157.47L817,196L817.15,199.55L817.46,189.43L817.77,189.51L817.92,201.63L818.38,180.14L818.53,198.15L818.69,200.59L818.84,199.27L818.99,193.62L819.15,203.63L819.3,182.04L819.76,198.15L819.91,192.35L820.07,198.15L820.68,196.27L820.83,195.66L820.98,194.77L821.14,184.16L821.29,199.95L821.9,196.58L822.06,199.19L822.52,202.29L822.67,192.77L822.82,185.75L823.13,205.36L823.28,196.1L823.44,200.7L823.74,182.52L824.2,193.3L824.36,195.98L824.82,191.93L824.97,202.45L825.12,193.47L825.43,192.16L825.73,199.4L825.89,188.49L826.5,181.41L826.65,198.2L826.81,194.23L827.27,204.05L827.42,189.06L827.57,201.27L828.03,184.77L828.19,197.42L828.34,192.85L828.49,201.73L828.8,199.26L828.95,180.17L829.57,196.84L829.87,196.02L830.03,188.66L830.18,193.06L830.33,170.5L830.48,173.54L830.64,192.22L830.79,198.39L831.4,194.03L831.56,191.88L831.71,193.18L832.02,190.85L832.17,199.3L832.63,193.97L832.78,194.27L832.94,171.39L833.55,202L833.86,201.43L834.01,190.76L834.16,189.14L834.32,196.01L834.62,197.75L834.78,164.56L834.93,193.1L835.39,197.38L835.54,193.59L835.69,192.04L836.77,201.81L836.92,199.84L837.38,201.24L837.84,188.48L837.99,198.41L838.15,200.53L838.3,197.06L838.61,197.95L838.76,193.83L838.91,192.62L839.07,198.52L839.22,198.36L839.37,196.75L839.83,198.51L839.98,191.44L840.14,194.39L840.29,199.93L840.75,185.93L840.9,201.31L841.06,198.44L841.21,193.25L841.36,197.98L841.52,184.33L841.67,120L841.98,202.73L842.44,197.93L842.59,186.77L842.9,203.5L843.05,185.69L843.2,199.72L843.36,183.46L843.51,196.23L844.12,189.74L844.28,190.81L844.73,200.69L844.89,179.93L845.35,204.31L845.65,186.24L845.81,197.58L846.57,188.4L846.73,198.1L846.88,184.87L847.03,198.75L847.34,197.67L847.49,198.58L847.8,199.93L848.11,189.19L848.26,200.75L849.03,185.51L849.18,197.27L849.33,201.93L849.48,190.74L849.64,199.34L849.79,191.06L849.94,185.76L850.25,199.37L850.4,203.59L851.02,190.15L851.32,191.18L851.48,200.27L851.78,206.15L852.4,193.85L852.55,200.88L852.7,202.88L852.86,199.89L853.16,200.7L853.32,195.41L853.78,202.97L853.93,190.5L854.08,197.37L854.23,198.56L854.39,200.49L854.54,189.48L855.15,11L855.31,103.86L855.46,160.06L855.77,143.06L855.92,169.96L856.07,157.08L856.23,157.88L856.69,173.25L856.84,139.45L856.99,162.45L857.15,163.96L857.3,113.3L857.91,168.78L858.07,164.48L858.22,161.05L858.37,164.97L858.53,189.61L859.14,194.55L859.29,179.48L859.44,166.78L859.75,198.04L859.9,193.74L860.21,198.08L860.36,187.33L860.67,176.99L861.28,199.52L861.44,194.64L861.9,197.3L862.05,184.87L862.2,199.16L862.36,191.23L862.97,197.99L863.12,199.05L863.58,183.08L863.73,201.47L863.89,194.06L864.04,201.04L864.19,204.29L864.35,196.76L864.5,197.26L864.65,191.28L864.81,193.6L864.96,177.93L865.73,202.33L865.88,178.39L866.03,201.17L866.65,192.97L866.8,195.46L867.11,189.59L867.26,205.83L868.03,185.15L868.18,198.69L868.64,198.76L868.79,186.78L868.94,189.85L869.1,195.96L869.25,201.45L869.4,184.82L869.71,196.77L869.86,187.75L870.32,202.45L870.63,195.14L870.78,197.61L871.09,199.91L871.55,186.76L871.7,200.13L872.16,201.87L872.32,188.3L872.47,199.76L872.62,187.6L872.78,199.97L873.23,187.81L873.39,194.81L873.54,191.29L873.69,199.08L873.85,196.3L874,202.2L874.46,188.48L874.77,194.75L874.92,196.68L875.07,195.84L875.23,196.84L875.38,177.55L875.99,198.49L876.15,175.42L876.61,200.14L876.91,181.32L877.07,193.38L877.22,201.72L877.68,192.08L877.83,199.55L877.98,198.7L878.29,191L878.6,197.57L878.75,199.95L879.06,201.65L879.36,196.14L879.52,200.08L879.67,180.84L880.28,196.47L880.44,199.36L881.05,202.57L881.2,163.89L881.36,192.24L881.82,200.8L881.97,176.65L882.58,199.24L882.89,193.99L883.04,196.79L883.35,185.99L883.5,197.17L883.65,197.44L883.81,192.11L883.96,191.79L884.11,193.96L884.42,186.05L884.57,200.07L884.73,168.67L884.88,198.41L885.49,183.35L885.65,184.75L885.95,195.18L886.41,189.87L886.57,190.17L886.87,167.16L887.03,200.99L887.18,196.76L887.33,188.83L887.64,197.33L887.94,194.8L888.1,189.8L888.4,201.62L888.71,194.82L888.86,189.36L889.02,182.47L889.17,195.88L889.48,188.92L889.63,201.25L889.94,181.81L890.4,193.6L890.55,192.12L890.86,200.63L891.01,198.25L891.16,186.44L892.08,202.83L892.23,182.54L892.39,184.15L892.54,200.52L893,203.29L893.15,179.47L893.46,185.18L893.61,195.29L893.77,202.28L893.92,171.86L894.23,200.24L894.69,188.36L894.84,196.13L894.99,203.36L895.15,193.73L895.45,193.82L895.61,192.46L895.76,195.53L895.91,192.85L896.07,174.4L896.37,206.95L896.83,197.2L896.98,192.4L897.29,201.44L897.44,186.96L897.75,197.42L897.9,201.26L898.06,202.76L898.36,198.84L898.52,190.86L898.67,180.03L898.98,198.88L899.13,202.19L899.59,195.11L899.9,195.61L900.05,200.36L900.66,188.12L900.82,199.31L901.73,182.36L901.89,194.19L902.04,202.57L902.19,190.94L902.5,196.34L902.65,184.65L902.81,184.55L902.96,202.33L903.73,187.68L903.88,195.69L904.03,179.49L904.65,198.58L904.8,193.1L904.95,188.74L905.57,198.35L905.72,187.55L906.03,202.09L906.48,201.89L906.64,200.76L907.25,202.41L907.4,196.87L907.56,197.66L907.86,185.15L908.17,199.62L908.32,193.03L908.48,199.22L909.4,179.37L909.55,185.68L910.32,204.6L910.47,201.04L910.62,184.43L911.39,203.13L911.54,198.4L911.69,194.61L912,198.69L912.31,194.65L912.46,196.71L912.61,202.25L912.77,176.83L913.23,200.43L913.69,199.16L913.84,189.81L914.3,204.79L914.45,177L914.61,203.03L915.22,197.77L915.37,193.99L915.53,195.89L915.68,194.59L915.83,188.02L916.6,200.85L916.75,186.13L917.06,201.12L917.52,197.32L917.67,197.97L917.98,198.86L918.13,190.94L918.44,193.15L918.59,195.72L918.74,204.56L918.9,181.66L919.2,201.07L919.36,194.66L919.51,195.04L919.66,184.95L920.28,201.2L920.43,199.2L920.58,190.41L921.04,199.19L921.19,185.15L921.96,198.64L922.27,194.03L922.42,180.24L922.88,203.18L923.19,198.02L923.34,199.8L924.26,168.15L924.41,188.65L924.72,199.29L925.03,182.78L925.18,165.35L925.79,199.49L926.1,199.25L926.25,183.59L926.71,198.07L927.02,195.54L927.17,189.07L927.32,200.28L927.94,200.23L928.09,186.39L928.55,199.09L928.86,197.76L929.01,195.42L929.16,199.12L929.32,183.29L929.47,165.81L929.78,197.77L929.93,196.08L930.08,195.2L930.54,193.65L930.69,199.38L930.85,193.52L931.15,198.62L931.61,196.65L931.77,182.49L931.92,200.46L932.53,187.49L932.69,196.73L932.84,196.66L932.99,194.38L933.3,199.16L933.45,189.68L933.61,185.58L933.76,201.13L933.91,185.72L934.07,201.36L934.53,189.19L934.68,199.52L934.98,197.76L935.14,186.26L935.29,179.08L935.6,198.6L935.75,182.09L935.9,200.29L936.06,198.86L936.21,189.6L937.28,203.35L937.44,193.76L937.59,199.52L937.74,182.39L937.9,197.38L938.05,186.12L938.36,200.41L938.82,191.62L938.97,194.87L939.28,192.73L939.58,200.69L939.89,200.31L940.04,183.46L940.81,204.15L940.96,199.94L941.11,190.66L941.27,190.44L941.42,187.85L941.73,202.57L941.88,189.62" style="vector-effect: none; fill: none; stroke: rgb(99, 110, 250); stroke-opacity: 1; stroke-width: 2px; opacity: 1;"/></g><g class="points"/><g class="text"/></g></g></g><g class="overplot"><g class="xy2" transform="translate(80,100)" clip-path="url(#clip6c7120xy2plot)"><g class="scatterlayer mlayer"><g class="trace scatter trace5632ff" style="stroke-miterlimit: 2; opacity: 1;"><g class="fills"/><g class="errorbars"/><g class="lines"><path class="js-line" d="M0,209L196.74,209L196.9,11L197.66,209L197.81,209L232.29,209L232.44,11L233.21,209L233.36,209L841.52,209L841.67,11L842.44,209L842.59,209L855,209L855.15,11L855.31,11L855.46,209L857.15,209L857.3,11L858.07,209L858.22,209L941.88,209" style="vector-effect: none; fill: none; stroke: rgb(239, 85, 59); stroke-opacity: 1; stroke-width: 2px; opacity: 1;"/></g><g class="points"/><g class="text"/></g></g></g></g><path class="xlines-above crisp" d="M0,0" style="fill: none;"/><path class="ylines-above crisp" d="M0,0" style="fill: none;"/><g class="overlines-above"><path class="xy2-x crisp" d="M0,0" style="fill: none;"/><path class="xy2-y crisp" d="M0,0" style="fill: none;"/></g><g class="xaxislayer-above"><g class="xtick"><text text-anchor="middle" x="0" y="333" transform="translate(168.41,0)" style="font-family: 'Open Sans', verdana, arial, sans-serif; font-size: 12px; fill: rgb(42, 63, 95); fill-opacity: 1; white-space: pre; opacity: 1;"><tspan class="line" dy="0em" x="0" y="333">Jan 21</tspan><tspan class="line" dy="1.3em" x="0" y="333">2022</tspan></text></g><g class="xtick"><text text-anchor="middle" x="0" y="333" style="font-family: 'Open Sans', verdana, arial, sans-serif; font-size: 12px; fill: rgb(42, 63, 95); fill-opacity: 1; white-space: pre; opacity: 1;" transform="translate(300.8,0)">Jan 24</text></g><g class="xtick"><text text-anchor="middle" x="0" y="333" style="font-family: 'Open Sans', verdana, arial, sans-serif; font-size: 12px; fill: rgb(42, 63, 95); fill-opacity: 1; white-space: pre; opacity: 1;" transform="translate(433.19,0)">Jan 27</text></g><g class="xtick"><text text-anchor="middle" x="0" y="333" style="font-family: 'Open Sans', verdana, arial, sans-serif; font-size: 12px; fill: rgb(42, 63, 95); fill-opacity: 1; white-space: pre; opacity: 1;" transform="translate(565.5699999999999,0)">Jan 30</text></g><g class="xtick"><text text-anchor="middle" x="0" y="333" style="font-family: 'Open Sans', verdana, arial, sans-serif; font-size: 12px; fill: rgb(42, 63, 95); fill-opacity: 1; white-space: pre; opacity: 1;" transform="translate(697.96,0)">Feb 2</text></g><g class="xtick"><text text-anchor="middle" x="0" y="333" style="font-family: 'Open Sans', verdana, arial, sans-serif; font-size: 12px; fill: rgb(42, 63, 95); fill-opacity: 1; white-space: pre; opacity: 1;" transform="translate(830.35,0)">Feb 5</text></g><g class="xtick"><text text-anchor="middle" x="0" y="333" style="font-family: 'Open Sans', verdana, arial, sans-serif; font-size: 12px; fill: rgb(42, 63, 95); fill-opacity: 1; white-space: pre; opacity: 1;" transform="translate(962.73,0)">Feb 8</text></g></g><g class="yaxislayer-above"><g class="ytick"><text text-anchor="end" x="79" y="4.199999999999999" transform="translate(0,296.75)" style="font-family: 'Open Sans', verdana, arial, sans-serif; font-size: 12px; fill: rgb(42, 63, 95); fill-opacity: 1; white-space: pre; opacity: 1;">1</text></g><g class="ytick"><text text-anchor="end" x="79" y="4.199999999999999" style="font-family: 'Open Sans', verdana, arial, sans-serif; font-size: 12px; fill: rgb(42, 63, 95); fill-opacity: 1; white-space: pre; opacity: 1;" transform="translate(0,223.64)">1.5</text></g><g class="ytick"><text text-anchor="end" x="79" y="4.199999999999999" style="font-family: 'Open Sans', verdana, arial, sans-serif; font-size: 12px; fill: rgb(42, 63, 95); fill-opacity: 1; white-space: pre; opacity: 1;" transform="translate(0,150.53)">2</text></g></g><g class="overaxes-above"><g class="xy2-x"/><g class="xy2-y"><g class="y2tick"><text text-anchor="start" x="1022.88" y="4.199999999999999" transform="translate(0,309)" style="font-family: 'Open Sans', verdana, arial, sans-serif; font-size: 12px; fill: rgb(42, 63, 95); fill-opacity: 1; white-space: pre; opacity: 1;">0</text></g><g class="y2tick"><text text-anchor="start" x="1022.88" y="4.199999999999999" style="font-family: 'Open Sans', verdana, arial, sans-serif; font-size: 12px; fill: rgb(42, 63, 95); fill-opacity: 1; white-space: pre; opacity: 1;" transform="translate(0,269.4)">0.2</text></g><g class="y2tick"><text text-anchor="start" x="1022.88" y="4.199999999999999" style="font-family: 'Open Sans', verdana, arial, sans-serif; font-size: 12px; fill: rgb(42, 63, 95); fill-opacity: 1; white-space: pre; opacity: 1;" transform="translate(0,229.8)">0.4</text></g><g class="y2tick"><text text-anchor="start" x="1022.88" y="4.199999999999999" style="font-family: 'Open Sans', verdana, arial, sans-serif; font-size: 12px; fill: rgb(42, 63, 95); fill-opacity: 1; white-space: pre; opacity: 1;" transform="translate(0,190.2)">0.6</text></g><g class="y2tick"><text text-anchor="start" x="1022.88" y="4.199999999999999" style="font-family: 'Open Sans', verdana, arial, sans-serif; font-size: 12px; fill: rgb(42, 63, 95); fill-opacity: 1; white-space: pre; opacity: 1;" transform="translate(0,150.6)">0.8</text></g><g class="y2tick"><text text-anchor="start" x="1022.88" y="4.199999999999999" style="font-family: 'Open Sans', verdana, arial, sans-serif; font-size: 12px; fill: rgb(42, 63, 95); fill-opacity: 1; white-space: pre; opacity: 1;" transform="translate(0,111)">1</text></g></g></g></g><g class="subplot xy2"/></g><g class="polarlayer"/><g class="smithlayer"/><g class="ternarylayer"/><g class="geolayer"/><g class="funnelarealayer"/><g class="pielayer"/><g class="iciclelayer"/><g class="treemaplayer"/><g class="sunburstlayer"/><g class="glimages"/><defs id="topdefs-6c7120"><g class="clips"/><clipPath id="legend6c7120"><rect width="86" height="48" x="0" y="0"/></clipPath></defs><g class="layer-above"><g class="imagelayer"/><g class="shapelayer"/></g><g class="infolayer"><g class="legend" pointer-events="all" transform="translate(1102.04,100)"><rect class="bg" shape-rendering="crispEdges" width="86" height="48" x="0" y="0" style="stroke: rgb(68, 68, 68); stroke-opacity: 1; fill: rgb(255, 255, 255); fill-opacity: 1; stroke-width: 0px;"/><g class="scrollbox" transform="" clip-path="url(#legend6c7120)"><g class="groups"><g class="traces" transform="translate(0,14.5)" style="opacity: 1;"><text class="legendtext" text-anchor="start" x="40" y="4.680000000000001" style="font-family: 'Open Sans', verdana, arial, sans-serif; font-size: 12px; fill: rgb(42, 63, 95); fill-opacity: 1; white-space: pre;">y_pred</text><g class="layers" style="opacity: 1;"><g class="legendfill"/><g class="legendlines"><path class="js-line" d="M5,0h30" style="fill: none; stroke: rgb(99, 110, 250); stroke-opacity: 1; stroke-width: 2px;"/></g><g class="legendsymbols"><g class="legendpoints"/></g></g><rect class="legendtoggle" x="0" y="-9.5" width="80.390625" height="19" style="fill: rgb(0, 0, 0); fill-opacity: 0;"/></g><g class="traces" transform="translate(0,33.5)" style="opacity: 1;"><text class="legendtext" text-anchor="start" x="40" y="4.680000000000001" style="font-family: 'Open Sans', verdana, arial, sans-serif; font-size: 12px; fill: rgb(42, 63, 95); fill-opacity: 1; white-space: pre;">labels</text><g class="layers" style="opacity: 1;"><g class="legendfill"/><g class="legendlines"><path class="js-line" d="M5,0h30" style="fill: none; stroke: rgb(239, 85, 59); stroke-opacity: 1; stroke-width: 2px;"/></g><g class="legendsymbols"><g class="legendpoints"/></g></g><rect class="legendtoggle" x="0" y="-9.5" width="80.390625" height="19" style="fill: rgb(0, 0, 0); fill-opacity: 0;"/></g></g></g><rect class="scrollbar" rx="20" ry="3" width="0" height="0" x="0" y="0" style="fill: rgb(128, 139, 164); fill-opacity: 1;"/></g><g class="g-gtitle"/><g class="g-xtitle"/><g class="g-ytitle"><text class="ytitle" transform="rotate(-90,35.60625,210)" x="35.60625" y="210" text-anchor="middle" style="font-family: 'Open Sans', verdana, arial, sans-serif; font-size: 14px; fill: rgb(42, 63, 95); opacity: 1; font-weight: normal; white-space: pre;">prediction score</text></g><g class="g-y2title"/></g></svg>