<svg class="main-svg" xmlns="http://www.w3.org/2000/svg" xmlns:xlink="http://www.w3.org/1999/xlink" width="1200" height="400" style="" viewBox="0 0 1200 400"><rect x="0" y="0" width="1200" height="400" style="fill: rgb(255, 255, 255); fill-opacity: 1;"/><defs id="defs-af8b88"><g class="clips"><clipPath id="clipaf8b88xyplot" class="plotclip"><rect width="941.88" height="220"/></clipPath><clipPath id="clipaf8b88xy2plot" class="plotclip"><rect width="941.88" height="220"/></clipPath><clipPath class="axesclip" id="clipaf8b88x"><rect x="80" y="0" width="941.88" height="400"/></clipPath><clipPath class="axesclip" id="clipaf8b88y"><rect x="0" y="100" width="1200" height="220"/></clipPath><clipPath class="axesclip" id="clipaf8b88xy"><rect x="80" y="100" width="941.88" height="220"/></clipPath><clipPath class="axesclip" id="clipaf8b88y2"><rect x="0" y="100" width="1200" height="220"/></clipPath><clipPath class="axesclip" id="clipaf8b88xy2"><rect x="80" y="100" width="941.88" height="220"/></clipPath></g><g class="gradients"/><g class="patterns"/></defs><g class="bglayer"><rect class="bg" x="80" y="100" width="941.88" height="220" style="fill: rgb(229, 236, 246); fill-opacity: 1; stroke-width: 0;"/></g><g class="layer-below"><g class="imagelayer"/><g class="shapelayer"/></g><g class="cartesianlayer"><g class="subplot xy"><g class="layer-subplot"><g class="shapelayer"/><g class="imagelayer"/></g><g class="minor-gridlayer"><g class="x"/><g class="y"/><g class="y2"/></g><g class="gridlayer"><g class="x"><path class="xgrid crisp" transform="translate(166.74,0)" d="M0,100v220" style="stroke: rgb(255, 255, 255); stroke-opacity: 1; stroke-width: 1px;"/><path class="xgrid crisp" transform="translate(299.39,0)" d="M0,100v220" style="stroke: rgb(255, 255, 255); stroke-opacity: 1; stroke-width: 1px;"/><path class="xgrid crisp" transform="translate(432.03,0)" d="M0,100v220" style="stroke: rgb(255, 255, 255); stroke-opacity: 1; stroke-width: 1px;"/><path class="xgrid crisp" transform="translate(564.6800000000001,0)" d="M0,100v220" style="stroke: rgb(255, 255, 255); stroke-opacity: 1; stroke-width: 1px;"/><path class="xgrid crisp" transform="translate(697.33,0)" d="M0,100v220" style="stroke: rgb(255, 255, 255); stroke-opacity: 1; stroke-width: 1px;"/><path class="xgrid crisp" transform="translate(829.97,0)" d="M0,100v220" style="stroke: rgb(255, 255, 255); stroke-opacity: 1; stroke-width: 1px;"/><path class="xgrid crisp" transform="translate(962.62,0)" d="M0,100v220" style="stroke: rgb(255, 255, 255); stroke-opacity: 1; stroke-width: 1px;"/></g><g class="y"><path class="ygrid crisp" transform="translate(0,253.9)" d="M80,0h941.88" style="stroke: rgb(255, 255, 255); stroke-opacity: 1; stroke-width: 1px;"/><path class="ygrid crisp" transform="translate(0,194.56)" d="M80,0h941.88" style="stroke: rgb(255, 255, 255); stroke-opacity: 1; stroke-width: 1px;"/><path class="ygrid crisp" transform="translate(0,135.22)" d="M80,0h941.88" style="stroke: rgb(255, 255, 255); stroke-opacity: 1; stroke-width: 1px;"/></g><g class="y2"><path class="y2grid crisp" transform="translate(0,269.4)" d="M80,0h941.88" style="stroke: rgb(255, 255, 255); stroke-opacity: 1; stroke-width: 1px;"/><path class="y2grid crisp" transform="translate(0,229.8)" d="M80,0h941.88" style="stroke: rgb(255, 255, 255); stroke-opacity: 1; stroke-width: 1px;"/><path class="y2grid crisp" transform="translate(0,190.2)" d="M80,0h941.88" style="stroke: rgb(255, 255, 255); stroke-opacity: 1; stroke-width: 1px;"/><path class="y2grid crisp" transform="translate(0,150.6)" d="M80,0h941.88" style="stroke: rgb(255, 255, 255); stroke-opacity: 1; stroke-width: 1px;"/><path class="y2grid crisp" transform="translate(0,111)" d="M80,0h941.88" style="stroke: rgb(255, 255, 255); stroke-opacity: 1; stroke-width: 1px;"/></g></g><g class="zerolinelayer"><path class="yzl zl crisp" transform="translate(0,313.23)" d="M80,0h941.88" style="stroke: rgb(255, 255, 255); stroke-opacity: 1; stroke-width: 2px;"/><path class="y2zl zl crisp" transform="translate(0,309)" d="M80,0h941.88" style="stroke: rgb(255, 255, 255); stroke-opacity: 1; stroke-width: 2px;"/></g><path class="xlines-below"/><path class="ylines-below"/><g class="overlines-below"><path class="xy2-x"/><path class="xy2-y"/></g><g class="xaxislayer-below"/><g class="yaxislayer-below"/><g class="overaxes-below"><g class="xy2-x"/><g class="xy2-y"/></g><g class="plot" transform="translate(80,100)" clip-path="url(#clipaf8b88xyplot)"><g class="scatterlayer mlayer"><g class="trace scatter trace0d2aec" style="stroke-miterlimit: 2; opacity: 1;"><g class="fills"/><g class="errorbars"/><g class="lines"><path class="js-line" d="M0,117.75L1.23,148.25L1.38,142.39L1.54,135.94L1.69,137.15L1.84,135.18L2,131.88L2.46,138L2.61,129.94L2.76,123.35L3.07,114.12L3.38,121.77L3.53,124.21L3.84,125.52L3.99,126.97L4.3,130.83L4.45,135.28L5.37,147.46L5.53,149.73L6.76,161.64L6.91,161.9L7.06,162.54L7.37,160.75L7.52,160.48L7.68,161.05L7.98,160.11L8.14,158.87L8.29,157.82L8.44,159.23L8.6,159.13L8.75,161.53L9.37,164.21L9.52,163.19L9.67,160.23L9.83,160.03L9.98,162.19L10.13,163.77L10.44,160.53L10.59,156.96L11.36,140.19L11.67,143.38L11.82,142.25L12.28,138.59L12.44,139.26L12.59,141.47L16.73,206.04L16.89,206.11L17.81,206.49L17.96,206.21L18.58,205.79L18.73,205.39L19.5,204.48L19.8,205.17L19.96,205.32L20.88,204.37L21.03,205.06L21.19,205.47L21.8,205.17L21.95,205.62L22.11,205.9L22.72,206.19L23.03,205.69L23.18,205.27L23.49,203.43L23.64,200.99L24.72,194.43L24.87,193.74L25.18,193.8L25.33,195.29L26.71,205.64L26.87,206.36L28.71,195.78L28.86,196.83L29.48,196.2L29.78,196.59L29.94,196.5L31.17,192.98L31.32,191.79L32.09,191.15L32.24,190.89L32.39,191.03L32.55,186.85L33.01,186.58L33.16,187.84L33.32,187.25L33.47,182.73L34.24,165.65L34.54,168.65L34.7,167.75L35.16,161.3L35.62,164.08L35.77,173.83L36.39,165.06L36.85,166.8L37,166.96L37.15,167.19L37.31,169.08L37.77,170.34L37.92,170.95L39.3,161.79L39.46,160.08L40.22,161.39L40.38,163.74L40.53,164.47L40.68,162.23L40.84,159.91L43.75,91.63L43.91,95.75L44.06,100.73L45.6,141.78L45.75,137.47L45.9,130.04L46.21,122.36L46.67,127.8L46.83,128.44L47.44,119.25L47.59,120.23L47.75,127.83L48.82,140.26L48.97,142.29L49.9,146.89L50.05,146.28L50.2,147.29L50.51,145.57L50.66,146.57L50.82,149.05L51.43,152.83L51.74,152.02L51.89,152.63L52.05,152.69L52.2,151.95L52.35,153.06L52.51,152.16L52.66,153.58L52.81,155.32L53.27,161.49L53.58,160.86L53.73,158.08L53.89,157.24L54.04,159.19L54.19,159.7L54.35,161.01L54.5,158.49L54.66,154.99L55.12,139.9L55.58,145.82L55.73,148.11L55.88,148.52L56.04,147.32L56.19,147.36L56.34,146.5L56.96,152.32L57.11,153.81L58.34,168.51L58.49,171.78L60.49,205.77L60.64,206.35L60.95,207.57L61.56,207.25L61.72,206.71L62.64,206.6L62.79,206.66L63.25,207.23L63.41,207.64L63.87,208.71L64.17,208.14L64.33,207.91L66.48,208.19L66.63,208.01L67.86,203L68.01,200.84L69.39,187.59L69.7,188.58L69.85,189.93L71.85,202.38L72,202.62L72.92,199.63L73.23,200.33L73.39,200.62L74,201.1L74.15,200.75L74.31,199.93L74.46,200.06L74.61,199.71L74.77,198.88L75.84,195.08L76,195.28L76.15,196.03L78.91,183.3L79.07,182.95L79.37,180.9L79.83,182.47L79.99,181.94L81.37,166.75L81.52,168.74L81.83,169.33L81.98,171.19L82.14,171.56L82.29,170.26L82.44,175.02L83.83,158.92L83.98,159.24L84.13,147.7L84.29,145.87L84.59,148.43L84.75,151.26L84.9,153L85.21,150.27L85.36,148.05L87.82,91.73L87.97,92.44L88.12,96.43L88.58,107.28L88.74,114.52L89.66,149.32L90.12,144.78L90.27,140.91L91.5,120.76L91.65,124.05L91.81,126.61L92.88,142.27L93.04,132.51L94.11,145.42L94.26,145.03L94.42,145.7L94.73,146.68L94.88,159.26L95.03,159.44L95.19,160.82L95.34,160.95L95.49,159.2L96.57,153.28L96.72,153.91L96.87,156.7L97.18,158.66L97.34,162.37L97.49,161.79L97.64,157.83L98.1,158.71L98.56,155.31L98.72,153.34L99.33,145.53L99.48,149.93L99.64,151.5L99.95,149.27L100.1,152.88L100.25,152.68L100.41,152.89L101.17,149.77L101.33,150.25L101.48,151.61L103.63,191.24L103.78,194.61L105.17,206.45L105.32,206.55L106.24,207.64L106.39,207.08L106.55,206.6L107.93,205.25L108.08,205.39L108.24,206.23L108.85,207.33L109,206.18L109.16,206.28L110.23,207.3L110.38,207.13L110.54,206.96L110.69,206.74L110.85,208.18L111,208.81L111.46,208.3L111.61,207.78L112.07,205.01L112.23,203.18L113.61,188.06L113.92,189.17L114.07,190.28L115.3,200.84L115.76,199.98L115.91,199.57L116.83,197.87L116.99,197.31L117.45,198.06L117.6,198.9L118.37,200.66L118.52,199.9L118.68,199.48L119.29,196.62L119.44,195.02L120.21,194.86L120.36,195.77L120.82,194.16L120.98,194.45L121.13,196.05L121.59,196.45L121.75,195.57L122.21,192.64L122.36,183.41L122.82,183.88L122.97,182.55L123.28,178.37L123.43,175.53L125.28,163.47L125.43,163.42L125.58,163.23L125.74,164.57L125.89,164.97L126.04,167.96L126.2,170.98L126.81,168.62L126.97,167.07L128.04,158.19L128.19,158.42L128.35,147.43L128.5,147.47L128.65,149.5L129.12,152.9L129.27,151.46L129.42,147.95L129.88,144.49L130.04,140.5L130.19,147.95L130.65,137.31L130.8,136.09L131.57,116.54L131.73,111.44L131.88,111.14L132.03,104.8L133.11,130.59L133.26,138.61L133.87,155.05L134.18,147.77L134.33,146.82L135.72,116.11L136.02,121.94L136.18,123.5L137.71,133.21L137.87,133.63L139.4,142.01L139.55,140.63L140.78,133.17L140.94,135.68L142.47,155.28L142.63,153.96L144.16,113.4L144.31,113.14L144.47,113.22L144.62,114.35L144.93,111.72L145.08,113.1L145.24,117.76L146.92,135.86L147.08,135.52L147.23,134.36L148.46,139.4L148.61,140.55L149.23,147.07L149.38,148.07L151.38,176.4L151.68,173.56L151.84,171.92L153.83,158.33L153.99,158.44L154.14,158.46L156.6,148.51L156.75,148.37L157.82,152.55L157.98,151.97L158.28,151.57L158.44,152.18L158.59,152.7L159.36,150.07L159.51,150.24L159.67,149.76L159.82,150.08L160.28,149.38L160.43,149.57L161.82,146.64L161.97,145.82L162.28,145.14L162.43,146.4L164.58,161.31L164.73,163.22L165.65,176.53L165.96,175.8L166.11,173.61L166.42,170.49L166.58,159.01L168.26,145.8L168.42,154.43L171.64,119.74L171.8,121.66L171.95,122.62L172.1,119.03L172.26,118.98L172.41,118.79L172.56,120.55L172.72,118.55L173.02,121.23L173.18,120.9L173.33,122.46L173.64,121.83L173.94,126.8L174.25,123.93L174.41,124.26L175.02,126.56L175.17,124.99L175.33,124.34L175.48,124.74L175.63,121.2L176.09,115.01L176.71,115.34L176.86,114.54L177.94,122.32L178.09,119.68L178.24,116.71L178.86,111.71L179.01,112.8L179.16,114.45L179.32,114.44L179.47,112.99L181.16,61.27L181.31,63.09L182.08,104.89L182.54,101.69L182.7,100.13L183.31,95.5L183.46,96.2L183.62,97.33L184.38,100.84L184.54,106.51L186.69,151.57L186.84,146.21L186.99,137.38L188.22,151.83L188.38,151.62L188.53,150.96L188.84,167.74L189.3,157.63L189.45,155.64L189.76,152.76L189.91,150.68L190.68,146.99L190.83,143.74L191.75,137.82L191.91,134.39L192.52,125.7L192.67,128.68L192.83,131.13L193.6,137.48L193.75,141.47L195.44,163.44L195.59,154.66L196.21,158.81L196.36,158.32L196.51,157.39L196.67,157.64L196.97,156.76L197.13,156.68L197.28,156.7L197.43,164.53L198.05,159.58L198.36,161.37L198.51,161.96L200.35,177.05L200.5,176.65L200.81,174.15L200.97,171.56L201.27,168.6L201.43,164.31L203.42,143.66L203.58,143.51L204.65,140.6L204.8,141.17L204.96,141.34L205.11,140.82L205.26,139.96L206.18,139.03L206.34,139.63L206.49,141.28L207.41,144.49L207.57,144.74L208.95,155.85L209.1,158.54L210.18,165.69L210.33,164.59L210.64,161.19L210.79,149.73L212.17,139.91L212.33,139.74L212.48,139.49L212.63,148L212.79,148.27L212.94,147.73L213.09,147.2L215.4,137.3L215.55,138.39L215.86,139.56L216.01,137.62L216.16,137.32L216.32,134.54L216.78,130.77L217.09,133.45L217.24,133.99L217.39,134.08L217.55,135.07L219.08,109.52L219.23,110.87L219.39,113.09L219.7,120L220.16,116.56L220.31,116.23L221.54,135.64L221.69,140.06L222.31,146.4L222.46,142.97L222.61,138.46L222.77,139.09L223.07,137.71L223.23,135.14L223.69,128.95L223.99,132.49L224.15,135.49L225.07,147.77L225.22,146.68L225.38,143.94L226.14,141.3L226.3,143.07L227.83,159.57L227.99,158.84L228.14,156.27L229.06,144.54L229.21,144.6L229.37,142.86L229.98,141.31L230.13,145.73L230.29,147.36L230.6,144.74L230.75,143.41L230.9,142.93L231.06,139.78L232.13,133.68L232.28,134.78L232.59,133.52L232.74,135.06L232.9,136.55L234.43,149.98L234.59,152.74L237.5,207.45L237.66,207.11L237.81,207.13L237.96,205.46L238.27,203.5L238.43,201.89L238.89,200.28L239.04,198.15L239.96,189.2L240.27,191.22L240.42,191.24L240.73,191.31L240.88,192.91L241.8,200.11L242.11,199.57L242.26,199.61L242.42,199.56L242.57,201.07L243.49,203.99L243.65,205.83L243.95,207.28L244.41,206.39L244.57,205.21L246.26,194.26L246.41,194.88L246.56,195.69L248.1,203.44L248.56,203.35L248.71,203.38L249.33,203.76L249.48,203.47L249.63,203.45L250.25,204.44L250.55,203.99L250.71,203.74L251.01,202.9L251.17,201.89L251.94,197.46L252.09,196.56L253.16,190.61L253.47,191.44L253.62,192.59L253.78,193.78L254.39,192.76L254.55,192.74L254.7,193.29L254.85,192.11L255.01,181.65L255.16,181.65L255.31,180.85L256.69,167.74L256.85,176.12L258.08,166.42L258.23,165.58L259.15,166.76L259.3,166.96L260.23,164.36L260.38,163.16L261.3,156.19L261.45,157.28L261.61,159.49L261.91,158.79L262.07,158.01L263.6,133.75L263.76,130.36L264.83,92.66L265.14,99.45L265.29,104.09L267.29,157.23L267.44,157.99L267.9,159.6L268.36,153.54L268.52,159.84L268.82,162.03L269.13,158.16L269.28,158.88L270.82,135.96L271.28,137.75L271.43,140.14L271.59,141.45L271.74,150.59L272.05,154.19L272.66,153.87L272.82,153.91L273.74,158.33L273.89,159.9L274.81,172.56L274.96,171.72L275.12,172.73L276.5,148.81L276.65,147.71L277.11,151.86L277.27,158.33L279.26,171.73L279.42,174.39L281.41,207.87L281.57,208.18L282.03,208.87L282.18,207.84L282.33,207.49L283.56,202.34L283.87,202.58L284.02,203.17L285.1,206.93L285.25,207.85L285.4,208.6L285.86,208.06L286.02,207.29L287.55,206.58L287.71,207.32L287.86,207.94L288.17,207.09L288.32,206.35L290.62,198.6L290.93,199.21L291.08,200.1L292.47,203.58L292.62,203.47L292.77,203.13L294.16,202.26L294.31,202.4L295.08,202.45L295.23,201.59L296.92,193.11L297.07,193.67L297.23,194.46L297.84,191.13L298.15,193.53L298.3,194.47L298.61,196.11L298.91,194.6L299.07,193.81L299.53,194.27L299.68,196.31L299.84,196.3L299.99,192.61L301.98,167.99L302.14,168.42L302.29,168.65L302.6,168.77L302.75,167.92L302.91,169.96L303.21,173.95L303.67,171.38L303.83,171.65L305.36,159.71L305.52,160.41L305.67,161.97L305.82,163.42L306.13,159.3L306.28,155.97L308.89,103.01L309.2,108.14L309.35,109.06L310.74,147.56L311.04,141.23L311.2,139.64L311.66,141.18L312.27,125.19L312.42,112.46L313.35,116.45L313.5,115.08L313.65,115.16L313.81,116.56L314.57,124.4L314.73,129.78L316.42,152.96L316.57,152.95L316.72,151.04L317.64,143.16L317.8,144.23L317.95,148.42L319.49,165.61L319.64,164.76L319.79,161.17L320.56,150.41L320.72,146.23L321.33,151L321.48,148.73L321.64,147.36L321.79,147.24L321.94,145.86L322.25,145.07L322.4,147.02L322.56,148.85L326.24,205.87L326.4,206.34L327.32,207.34L327.47,206.83L328.39,206.29L328.54,206.18L331,207.5L331.15,207.57L331.77,207.41L331.92,207.2L332.54,206.66L332.69,206.04L333.46,202.97L333.61,201.46L334.07,197.22L334.23,195.27L335.15,191.21L335.3,191.98L336.37,199.43L336.84,198.53L336.99,198.53L337.45,198.76L338.06,197.7L338.22,197.42L339.29,201.16L339.45,200.61L341.13,193.11L341.29,193.69L341.44,194.35L341.9,195.94L342.06,192.63L343.28,183.33L343.44,172.28L343.74,171.78L343.9,174.67L344.2,176.71L344.36,175.4L344.51,172.24L344.67,170.51L344.82,173.68L345.13,170.78L345.28,179.3L346.2,175.32L346.35,176.06L346.51,176.23L347.28,179.24L347.58,178.8L347.74,178.56L349.73,155.99L349.89,156.71L350.04,158.92L350.19,160.64L350.35,160.4L350.5,155.55L352.65,116.01L352.8,108.23L353.11,101.42L353.42,105.75L353.57,109.04L354.95,144.94L355.1,139.48L355.26,137.27L355.72,128.47L356.03,135.9L356.18,134.16L356.79,111.48L356.95,121.22L357.1,122.88L358.64,146.05L358.79,143.14L358.94,143.31L359.1,142.11L359.56,142.9L359.71,145.25L360.48,152.66L360.94,151.37L361.09,149.69L361.25,149.65L361.4,148.39L361.55,147.05L362.01,148.74L362.17,151.41L362.32,151.46L362.47,155.6L363.4,166.42L363.7,165.02L363.86,164.25L365.24,143.04L365.85,143.59L366.01,144.33L366.16,144.53L366.31,146.28L368.15,181.09L368.31,185.16L369.69,205.03L369.84,205.76L370.46,207.27L370.92,206.95L371.07,206.91L373.37,206.88L373.53,207.06L374.45,205.5L374.76,206.04L374.91,206.12L375.83,205.56L375.98,205.22L376.29,206.51L376.44,205.95L376.6,205.31L378.9,196.29L379.05,196.38L379.21,197.04L381.05,203.62L381.2,203.36L382.43,202.89L382.59,203.48L382.89,202.86L383.2,203.81L383.35,203.76L383.51,203.95L383.66,203.15L383.81,201.49L385.35,191.7L385.5,192.15L385.66,193.4L386.12,195.56L386.27,193.24L386.42,193.57L386.58,194.26L387.04,194.26L387.19,191.64L387.5,189.7L387.65,178.14L389.34,164.91L389.49,172.77L390.42,169.02L390.57,169.58L390.72,169.58L390.88,168.09L391.18,169.22L391.34,171.01L391.8,173.88L392.26,172.29L392.41,171.03L392.87,171.6L393.64,165.58L393.79,162.84L393.95,162.69L394.1,165.45L394.41,164.79L394.56,163.44L397.02,99.64L397.17,100.55L397.32,92.97L398.25,119L398.4,127.91L399.17,156.88L399.32,151.89L399.47,145.42L399.63,147.13L399.93,144.82L400.09,143.12L400.7,119.18L400.86,110.81L401.01,107.42L401.32,116.61L401.47,118L401.78,116.07L401.93,118.89L402.08,118.07L402.24,120.8L403.16,137.92L403.31,137.07L403.47,138.94L404.85,160.33L405,161.99L405.61,168.02L406.08,167.73L406.23,166.47L406.54,168.41L406.69,171.62L406.84,172.95L407,169.9L407.3,172.05L407.46,170.18L407.76,169.38L407.92,166.37L408.53,157.16L408.69,151.59L408.84,151.19L408.99,147.24L409.15,143.75L409.61,146.26L409.76,149.7L414.67,207.77L414.83,207.71L416.21,205.2L416.36,205.58L418.36,207.47L418.51,206.36L418.82,205.86L419.13,206.19L419.28,206.54L420.2,205.28L420.35,206.55L420.97,205.17L421.12,204.4L421.43,204.01L421.58,203.45L422.2,201.25L422.66,201.51L422.81,201.03L424.19,197.51L424.34,197.45L424.65,197.77L424.81,198.55L425.42,198.35L425.57,198.44L425.73,198.62L426.49,197.56L426.65,196.98L427.88,200.19L428.03,200.04L428.49,198.16L428.64,196.89L429.56,191.64L429.87,192.73L430.03,193.19L430.18,192.91L430.33,193.39L430.49,195.04L431.25,199.82L431.41,198.15L431.56,197.64L432.48,192.23L432.64,188.26L434.17,171.49L434.32,170.55L435.4,175.88L435.71,175.37L435.86,174.98L436.32,176.46L436.47,175.23L436.63,174.81L436.78,173.84L437.09,176.42L437.24,175.31L437.39,175.57L437.55,176.89L437.7,176.73L437.86,164.8L438.01,163.93L438.16,164.32L438.32,166.61L438.62,168.12L438.78,166.11L438.93,162.79L439.54,154L439.7,161.84L441.54,99.07L441.85,106.25L442,108.61L443.38,146.3L443.54,142.37L443.69,141.75L443.84,142.72L444,141.47L444.15,138.64L445.07,127.98L445.22,131.28L445.38,133.28L445.53,129.74L445.99,135.38L446.15,135.05L449.22,158.13L449.37,156.95L449.52,155.81L450.29,151.15L450.44,149.33L450.6,147.26L450.9,149.22L451.06,151.45L452.29,163.41L452.44,162.78L452.59,159.47L454.59,109.81L454.74,111.4L456.28,151.05L456.43,157.81L457.81,174.22L457.97,175.48L459.66,182.67L459.81,183.19L461.19,187.64L461.34,186.99L461.5,186.66L461.96,186.11L462.11,185.99L462.57,186.67L462.73,185.78L463.19,185.18L463.34,180.63L465.03,151.87L465.18,154.44L466.41,171.43L466.56,170.48L466.72,169.55L469.48,133.01L469.64,133.15L470.1,132.99L470.25,132.47L471.63,129.13L471.78,129.6L471.94,130.9L473.17,134.08L473.32,134.41L473.93,137.88L474.09,138.64L474.24,138.13L474.55,139.7L474.7,141.63L475.47,145.8L475.62,145.36L475.78,143.6L480.54,117.58L480.69,117.3L480.84,116.78L481.3,117.19L485.45,116.8L486.52,111.59L486.68,112.85L487.6,94.97L487.75,81.27L488.67,16.13L489.13,18.94L489.29,26.65L490.51,98.25L490.98,96.74L491.13,96.91L492.36,67.61L492.51,66.32L492.97,72.12L493.12,81.11L494.05,94.16L494.2,74.47L494.51,45.14L494.97,59.02L495.12,64.37L496.19,120.28L496.5,109.39L496.66,107.57L497.27,100.57L497.42,100.84L497.58,104.47L499.42,56.2L499.57,57.15L499.73,47.26L500.03,71.03L500.19,83.26L501.57,127.78L501.72,127.39L502.18,130.68L502.34,129.64L502.49,128.23L502.8,127.41L503.1,128.31L503.26,130.69L505.71,163.8L506.02,160.04L506.17,157.53L508.32,129.15L508.48,129.28L508.63,133.41L508.94,137.76L509.4,135.59L509.55,134.73L510.63,127.12L510.78,127.7L510.93,128.08L512.01,126.71L512.16,127.17L512.32,128.54L512.78,127.03L512.93,126.01L513.7,124.62L513.85,125.03L514,125.53L514.16,125.7L514.31,127.64L515.39,118.89L515.54,119.6L515.69,120.07L516.31,130.5L516.77,128.23L516.92,127.86L517.38,127.27L517.54,128.52L519.68,142.16L519.99,141.35L520.14,141.37L521.07,124.14L521.22,124.81L521.83,127.47L521.99,126L522.14,134.74L522.45,134.68L522.6,133.58L522.75,134.24L523.06,132.41L523.22,132.77L523.37,132.55L523.52,129.63L523.68,130.21L523.83,128.6L523.98,127.02L525.98,117.39L526.13,117.4L526.29,116.92L526.59,117.56L526.75,119.09L526.9,119.21L527.05,121.28L527.97,116.08L528.13,114.13L528.44,113.21L528.59,111.85L528.74,112.5L528.9,111.1L529.05,112.24L529.2,108.61L529.82,99.7L530.12,102.66L530.28,106.26L530.58,107.7L530.74,110.42L530.89,110.18L531.05,118.66L531.66,124.89L531.97,124.31L532.12,122.16L532.27,124.88L532.89,122.75L533.04,123.23L533.35,120.3L533.5,120.9L533.66,123.25L534.73,139.16L535.04,136.52L535.19,136.23L535.5,135.56L536.11,139.81L536.27,142.48L536.88,133.31L537.19,137.15L537.34,138.59L538.26,126.52L538.57,128.63L538.72,129.97L539.34,126.14L539.49,128.31L539.64,130.98L541.18,144.17L541.33,144.13L541.49,143.14L541.79,145.84L541.95,145.4L542.1,147.08L543.94,167.88L544.09,169.05L546.4,201.22L546.55,200.2L546.7,199.73L548.09,194.03L548.24,194.29L548.39,195.04L549.31,195.43L549.47,195.36L550.7,201.65L550.85,202.4L552.23,206.32L552.39,206.4L553,205.61L553.15,205.09L555,192.73L555.15,191.43L555.61,190.06L555.92,190.95L556.07,192L557.91,203.73L558.22,203.62L558.37,203.31L559.91,203.34L560.06,202.67L560.37,202.68L560.52,202.11L560.68,201.64L562.21,197.74L562.36,197.99L562.52,198.34L563.13,198.1L563.29,199.08L563.44,199.47L563.75,198.4L563.9,197.94L564.36,188.78L564.82,189.25L564.97,188.05L565.74,178.87L565.9,183.89L566.05,185.35L566.2,183.76L566.36,169.58L566.82,129.9L567.43,133.26L567.58,133.73L568.04,131.86L568.2,146.57L568.66,181.38L569.27,177.82L569.43,176.73L569.58,177.51L569.89,175.86L570.04,174.33L570.35,177.16L570.5,172.35L570.65,170.32L571.27,172.01L571.42,170.77L572.5,150.04L572.65,145.59L574.34,84.05L574.8,91.63L574.95,97.49L575.11,95.69L575.26,104.16L576.18,153.47L576.34,151.86L576.49,141.84L576.8,139.66L577.1,140.38L577.26,137.89L578.02,124.29L578.18,125.94L578.33,139.59L580.17,165.77L580.33,166.34L581.25,181.94L581.4,181.56L581.56,172.1L583.24,158.36L583.4,167.57L585.24,183.52L585.39,179.14L586.78,138.13L586.93,138.26L587.08,137.37L587.24,142.58L588.92,190.97L589.08,192.62L590.61,202.53L590.77,201.55L591.84,199.61L591.99,198.52L593.68,194.39L593.84,194.72L593.99,195.17L595.37,199.47L595.53,200.91L597.06,207.2L597.21,207.13L597.37,206.59L598.29,204.89L598.44,203.84L599.98,200.8L600.13,201.4L601.36,204.72L601.51,204.96L601.67,205.4L601.82,204.5L602.13,204.77L602.28,204.72L602.9,204.13L603.05,203.29L603.51,201.22L603.97,202.14L604.12,202.15L605.2,201.23L605.35,200.7L606.43,194.57L606.58,195.11L606.73,195.25L607.65,201.77L607.96,200.48L608.12,200.3L608.58,198.77L608.73,187.86L609.5,181.01L609.8,183.93L609.96,184.75L610.26,185.32L610.42,182.93L610.57,190.08L611.19,188.02L611.34,186.66L612.11,174.19L612.26,176.47L612.41,180.31L613.34,188.24L613.49,188.42L614.56,182.7L614.72,170.66L617.02,131.69L617.17,134.41L617.79,117.08L617.94,108.43L618.55,78.37L618.86,86.15L619.02,91.67L620.4,131.49L620.55,127.5L620.7,127.76L621.01,126.62L621.16,129.09L621.32,130.06L622.24,140.63L622.39,143.97L622.85,154.22L623.31,150.02L623.47,150.04L623.77,153.51L623.93,145.63L625.92,177.4L626.23,175.98L626.38,174.71L626.54,174.69L626.69,173.28L627.31,166.4L627.61,167.49L627.77,168.97L629.15,179.39L629.3,179.57L629.46,179.58L629.61,177.17L630.22,160.92L630.68,162.64L630.84,163.41L630.99,163.27L631.14,163.72L631.3,164.69L631.91,177.75L632.07,180.64L632.22,184.08L632.83,182.61L632.99,183.59L635.75,206.46L635.9,206.71L636.98,203.79L637.13,202.09L637.75,198.87L638.05,199.35L638.21,199.18L638.67,199.68L638.82,201.53L639.9,207.5L640.05,207.47L640.2,207.48L642.35,204.28L642.5,202.71L644.19,192.68L644.35,193.25L644.5,193.76L646.96,204.33L647.11,204.27L647.88,204.9L648.03,205.12L648.34,205.86L648.8,205.11L648.95,204.83L650.33,198.95L650.49,199.29L650.64,199.71L651.87,203.74L652.18,203.34L652.33,202.91L652.79,199.05L652.94,186.56L653.71,180.58L653.87,178.74L654.63,175.38L654.79,186.95L655.4,183.85L655.86,184.09L656.02,183.45L657.86,169.08L658.01,169.7L658.32,169.31L658.47,169.53L658.63,170.57L658.78,170.18L658.93,161.43L659.09,160.98L659.24,164.39L659.7,165.76L659.85,164.87L660.01,162.7L662,127.49L662.16,116.85L662.62,101.97L662.92,105.38L663.08,107.51L664.46,146.39L664.61,139.62L664.77,138.38L665.23,137.58L665.53,148.85L665.69,145.57L665.84,141.2L666.92,110.34L667.07,112.37L667.22,113.29L667.38,112.81L667.53,115L667.99,112.23L668.91,133.29L669.06,129.84L669.22,129.96L669.37,131.14L669.68,132.63L669.83,144.13L669.99,146.75L670.45,144.89L670.6,143.48L670.75,142.58L670.91,145.26L671.21,143.83L671.37,144.77L672.9,165.43L673.06,161.92L673.21,158.07L673.36,158.64L673.52,156.05L674.75,134.94L674.9,139.86L675.05,141.91L675.36,138.3L675.67,141.22L675.82,142.14L679.66,202.04L679.81,202.56L680.73,203.82L680.89,203.51L681.96,202.59L682.11,202.53L683.96,205.9L684.11,205.7L684.26,205.64L684.42,205.89L684.57,205.08L684.72,205.23L684.88,205.11L685.34,205.55L685.49,205.2L685.65,204.78L687.33,195.18L687.49,193.89L688.56,183.18L688.87,184.39L689.02,185.22L690.1,197.83L690.56,196.32L690.71,196.04L691.79,194.55L691.94,194.69L692.09,197.21L692.4,197.53L692.55,197.9L693.48,193.91L693.63,193.23L694.7,185.96L695.01,186.99L695.16,187.7L695.47,187.19L695.62,185.21L696.39,180.98L696.55,181.02L696.7,178.98L697.01,176.62L697.16,163.56L697.31,162.17L697.47,163.2L697.62,166.49L697.93,167.81L698.08,169.76L698.54,171.9L698.7,170.63L698.85,169.65L699,180.65L699.62,174.53L699.77,171.32L700.23,160.68L700.54,162.42L700.69,162.84L701,163.27L701.15,165.11L701.77,168.16L701.92,164.83L704.07,132.46L704.22,130.81L704.68,126.6L704.84,127.72L704.99,130.77L705.14,130.63L705.3,127.43L705.91,119.05L706.37,119.63L706.53,121.75L706.68,122L706.83,113.01L706.99,110.66L707.29,114.52L707.45,119.43L708.67,135.09L708.83,131.87L709.44,120.52L709.6,129.09L709.75,127.73L710.36,119.91L710.52,122.16L710.67,125.3L711.9,142.34L712.05,132.32L712.51,133.3L712.67,131.63L712.82,125.21L713.13,125.11L713.74,129.24L713.89,140.72L714.66,146.5L714.82,144.08L714.97,142.91L715.12,142.61L715.28,140.22L715.43,138.62L715.74,139.16L715.89,141.77L716.04,140.54L716.2,141.5L716.35,144.92L717.27,157.47L717.43,154L717.58,152.31L718.81,133.36L718.96,136.91L719.42,143.05L719.73,140.39L719.88,139.49L720.5,143.79L720.65,146.69L722.18,176.26L722.34,180.16L724.49,201.07L724.64,201.41L726.79,205.31L726.94,205.03L727.1,205L728.48,204.6L728.63,204.89L729.86,207.61L730.17,206.8L730.32,206.52L731.86,198.27L732.01,196.32L733.09,190.33L733.24,190.3L733.7,192.75L733.85,194.47L734.62,198.12L734.93,197.68L735.08,197.1L735.85,196.41L736,196.25L737.38,193.88L737.54,192.65L738.3,191.39L738.46,191.87L738.61,192.14L738.92,191.27L739.23,192.65L739.38,194.14L739.69,196.69L740.3,196.25L740.45,196.11L740.61,196.32L740.76,196.19L740.91,195.37L741.99,190.29L742.14,188.72L743.99,164.17L744.14,164.33L744.29,163.98L744.6,161.62L744.91,162.68L745.06,171.61L745.52,175.23L745.98,174.81L746.13,174.86L747.36,163.41L747.52,160.78L749.21,142.3L749.36,140.55L750.43,121.51L750.59,111.32L751.05,104.62L751.2,108.97L751.35,112.48L751.82,124.11L751.97,133.1L752.89,156.53L753.04,146.74L753.2,143.55L753.35,144.05L753.5,140.79L754.73,117.63L754.89,126.9L755.5,135.31L755.81,132.9L755.96,132.46L756.88,125.27L757.34,125.83L757.5,126.9L757.8,127.23L757.96,129.42L758.11,130.18L758.26,128.92L758.57,128.94L758.72,129.21L759.65,124.19L759.8,125.68L761.49,149.72L761.64,143.5L763.02,103.48L763.18,105.85L763.33,106.86L763.48,110.31L764.1,107.53L764.25,109.75L765.17,113.69L772.08,114.08L772.23,113.35L772.39,115.55L772.54,116.33L774.08,129.18L774.38,127.45L774.54,126.62L775.77,123.96L775.92,125.47L776.84,128.02L776.99,127.88L777.15,126.58L777.61,127.11L779.14,122.49L779.3,122.39L779.91,121.84L780.06,121.62L780.52,122.09L780.68,121.43L781.14,120.37L781.45,121.35L781.6,121.76L783.13,125.78L783.29,128.54L784.52,140.14L784.67,140.92L784.82,141.12L784.98,142.61L785.44,138.89L785.59,127.34L786.2,127.74L786.51,122.95L786.67,124.02L786.82,125.28L787.13,125.57L787.28,125L787.43,133.61L789.43,122.18L789.58,122.76L789.74,124.75L790.35,121.16L790.5,122L790.66,123.48L791.58,116.85L791.73,114.98L792.19,114.02L792.35,115.61L792.81,116.58L793.11,116.03L793.27,114.49L793.88,111.13L794.19,112.28L794.34,112.23L794.96,106.66L795.11,107.16L795.26,111.39L796.34,118.49L796.49,116.62L796.95,122.1L797.11,118.94L797.26,115.47L798.95,76.17L799.1,54.8L799.25,54.69L799.41,52.87L800.18,58L800.33,72.15L800.94,105.54L801.56,99.86L801.71,99.26L802.33,97.94L802.63,98.22L802.79,98.69L803.55,95.82L803.71,85.93L804.01,66.24L804.47,72.65L804.63,79.8L807.24,163.33L807.39,163.57L807.85,170L808.01,167.98L808.16,166.14L810.15,134.08L810.31,132.54L811.08,125.9L811.38,127.73L811.54,129.12L811.84,129.77L812,131L814.15,157.11L814.3,161.11L815.68,176.45L815.84,176.7L816.14,173.9L816.3,172.04L817.83,153.16L817.98,153.19L818.14,156.62L818.45,161.75L818.75,157.45L818.91,154.82L820.29,137.47L820.59,140.19L820.75,140.21L821.82,145.46L821.98,143.36L822.13,142.68L823.05,138.25L823.36,138.93L823.51,139.05L825.2,133.97L825.35,134.62L826.74,145.91L826.89,147.12L828.27,157.31L828.42,156.5L828.58,156.29L828.73,158.51L829.19,160.71L829.5,159.17L829.65,158.66L830.42,161.82L830.57,160.13L830.73,159.39L832.88,149.43L833.03,148.64L833.49,150.6L833.64,153.01L833.8,151.29L834.26,152.96L834.41,153.35L834.87,153.52L835.03,152.43L836.56,132.74L836.71,131.38L836.87,129.87L837.02,130.63L837.18,118.63L838.86,96.89L839.02,107.3L839.17,107.67L839.32,105.92L840.25,119.2L840.4,127.62L841.32,154.43L841.47,153.74L841.63,150.81L841.78,151.58L841.93,148.38L843.01,132.16L843.16,134.78L843.32,138.23L843.93,143.08L844.08,144.71L844.24,145.12L844.39,141.75L844.54,139.79L844.85,142.02L845.16,139.9L845.31,142.2L845.77,148.77L846.23,146.41L846.39,147.37L846.69,152.48L847.15,148.62L847.31,146.01L848.69,132.41L848.84,134.31L849.15,136.27L849.3,129.84L849.92,121.82L850.07,124.48L850.23,126.18L851.15,135.12L851.3,141.97L854.06,179.95L854.22,179.27L854.37,177.15L854.52,164.03L854.98,127.89L855.14,98.89L856.21,11L856.37,20.25L856.67,21.17L856.83,36.52L857.75,69.54L857.9,71.67L858.05,70.41L858.21,62.42L859.13,101.94L859.28,115.08L859.9,138.27L860.05,151.06L862.2,196.79L862.35,197.06L863.89,205.95L864.04,206.13L864.66,205.33L864.81,205.08L865.12,204.48L865.27,205.46L865.42,205.46L865.58,205.52L867.42,208.24L867.57,208.29L868.19,208.1L868.34,207.89L868.8,207.81L868.96,208.62L870.18,208L870.34,208.19L871.72,206.85L871.87,206L873.56,196.24L873.87,196.78L874.02,197.7L874.79,201.05L874.94,200.29L875.1,199.46L875.4,200.73L876.48,192.85L876.63,190.49L876.94,189.11L877.09,188.4L877.4,185.12L877.86,188.06L878.01,187.67L878.63,189.02L878.78,188.81L878.93,187.74L879.24,190.38L879.55,186.76L879.7,186.41L879.86,185.73L880.01,181.69L881.24,170.68L881.39,167.94L883.85,99.36L884.15,104.97L884.31,109.18L885.54,144.87L886,142.62L886.15,141.63L886.3,139.31L886.61,142.53L886.76,140.66L886.92,146.32L887.22,144.91L887.38,150.23L888.45,164.48L888.61,163.99L890.3,145.96L890.45,146.74L890.6,145.65L890.91,154.07L891.37,151.9L891.52,153.8L892.14,149.34L892.29,150.49L892.44,152.34L893.21,162.92L893.37,152.13L893.67,153.05L893.83,156.22L893.98,159.57L894.29,149.9L894.44,147.86L894.75,144.48L894.9,139.12L895.05,135.42L895.21,144.56L895.36,146.4L895.82,145.44L895.98,150.53L896.13,153.89L897.05,169.47L897.2,171.35L900.58,206.19L900.74,206.2L901.2,204.12L901.35,202.71L903.04,195.58L903.19,196.29L905.65,206.21L905.8,205.85L906.42,205.09L906.57,204.62L907.18,204.78L907.34,205.21L908.1,207.11L908.26,207.49L909.03,209L909.18,208.89L909.33,208.67L910.56,208.61L910.71,208.63L911.17,208.78L911.33,207.94L911.94,207.45L912.1,207.29L913.02,205.14L913.17,205.95L913.32,206.17L914.71,205.48L914.86,205.3L916.39,199.7L916.55,198.35L916.7,197.91L916.86,198.07L917.01,194.83L917.62,197.41L917.78,195.74L917.93,195.54L918.08,195.71L918.24,189.4L918.7,190.51L918.85,193.42L919.93,183.68L920.08,188.29L921.31,178.97L921.61,180.14L921.77,180.83L922.69,183.97L922.84,183.72L923,183.98L923.15,184.14L923.3,183.26L923.46,182.09L924.53,173.94L924.84,174.53L924.99,174.16L925.61,165.17L925.76,160.68L926.99,135.7L927.14,135.74L927.3,132.5L928.06,109.98L928.37,116.52L928.52,119.51L929.75,153.47L930.06,145.03L930.21,145L930.67,137.53L930.83,142.81L931.13,144.82L931.29,142.32L931.44,138.8L931.59,140.19L931.75,150.8L932.51,163.02L932.82,160.84L932.98,159.24L934.36,144.74L934.51,143.83L934.82,144.34L934.97,147.32L935.28,159.64L935.74,157.75L935.89,157.37L936.05,157.02L936.2,158.26L936.35,155.58L936.51,155.52L936.66,154.38L936.97,156.28L937.12,154.6L938.2,163.12L938.5,162.61L938.66,158.06L938.81,157.45L938.96,158.48L939.12,159.58L939.27,157.57L939.42,159.8L939.73,158.06L939.88,160.35L940.5,167.04L940.96,165.66L941.11,165.61L941.57,166.22L941.73,167.46L941.88,168.49" style="vector-effect: none; fill: none; stroke: rgb(99, 110, 250); stroke-opacity: 1; stroke-width: 2px; opacity: 1;"/></g><g class="points"/><g class="text"/></g></g></g><g class="overplot"><g class="xy2" transform="translate(80,100)" clip-path="url(#clipaf8b88xy2plot)"><g class="scatterlayer mlayer"><g class="trace scatter trace54d813" style="stroke-miterlimit: 2; opacity: 1;"><g class="fills"/><g class="errorbars"/><g class="lines"><path class="js-line" d="M0,209L179.93,209L180.09,11L181.77,11L181.93,209L487.6,209L487.75,11L490.21,11L490.36,209L491.13,209L491.28,11L493.74,11L493.89,209L494.05,209L494.2,11L495.89,11L496.04,209L497.88,209L498.04,11L500.19,11L500.34,209L574.19,209L574.34,11L574.65,11L574.8,209L618.25,209L618.4,11L618.86,11L619.02,209L798.33,209L798.49,11L800.79,11L800.94,209L803.55,209L803.71,11L804.94,11L805.09,209L855.14,209L855.29,11L858.98,11L859.13,209L941.88,209" style="vector-effect: none; fill: none; stroke: rgb(239, 85, 59); stroke-opacity: 1; stroke-width: 2px; opacity: 1;"/></g><g class="points"/><g class="text"/></g></g></g></g><path class="xlines-above crisp" d="M0,0" style="fill: none;"/><path class="ylines-above crisp" d="M0,0" style="fill: none;"/><g class="overlines-above"><path class="xy2-x crisp" d="M0,0" style="fill: none;"/><path class="xy2-y crisp" d="M0,0" style="fill: none;"/></g><g class="xaxislayer-above"><g class="xtick"><text text-anchor="middle" x="0" y="333" transform="translate(166.74,0)" style="font-family: 'Open Sans', verdana, arial, sans-serif; font-size: 12px; fill: rgb(42, 63, 95); fill-opacity: 1; white-space: pre; opacity: 1;"><tspan class="line" dy="0em" x="0" y="333">Jan 21</tspan><tspan class="line" dy="1.3em" x="0" y="333">2022</tspan></text></g><g class="xtick"><text text-anchor="middle" x="0" y="333" style="font-family: 'Open Sans', verdana, arial, sans-serif; font-size: 12px; fill: rgb(42, 63, 95); fill-opacity: 1; white-space: pre; opacity: 1;" transform="translate(299.39,0)">Jan 24</text></g><g class="xtick"><text text-anchor="middle" x="0" y="333" style="font-family: 'Open Sans', verdana, arial, sans-serif; font-size: 12px; fill: rgb(42, 63, 95); fill-opacity: 1; white-space: pre; opacity: 1;" transform="translate(432.03,0)">Jan 27</text></g><g class="xtick"><text text-anchor="middle" x="0" y="333" style="font-family: 'Open Sans', verdana, arial, sans-serif; font-size: 12px; fill: rgb(42, 63, 95); fill-opacity: 1; white-space: pre; opacity: 1;" transform="translate(564.6800000000001,0)">Jan 30</text></g><g class="xtick"><text text-anchor="middle" x="0" y="333" style="font-family: 'Open Sans', verdana, arial, sans-serif; font-size: 12px; fill: rgb(42, 63, 95); fill-opacity: 1; white-space: pre; opacity: 1;" transform="translate(697.33,0)">Feb 2</text></g><g class="xtick"><text text-anchor="middle" x="0" y="333" style="font-family: 'Open Sans', verdana, arial, sans-serif; font-size: 12px; fill: rgb(42, 63, 95); fill-opacity: 1; white-space: pre; opacity: 1;" transform="translate(829.97,0)">Feb 5</text></g><g class="xtick"><text text-anchor="middle" x="0" y="333" style="font-family: 'Open Sans', verdana, arial, sans-serif; font-size: 12px; fill: rgb(42, 63, 95); fill-opacity: 1; white-space: pre; opacity: 1;" transform="translate(962.62,0)">Feb 8</text></g></g><g class="yaxislayer-above"><g class="ytick"><text text-anchor="end" x="79" y="4.199999999999999" transform="translate(0,313.23)" style="font-family: 'Open Sans', verdana, arial, sans-serif; font-size: 12px; fill: rgb(42, 63, 95); fill-opacity: 1; white-space: pre; opacity: 1;">0</text></g><g class="ytick"><text text-anchor="end" x="79" y="4.199999999999999" style="font-family: 'Open Sans', verdana, arial, sans-serif; font-size: 12px; fill: rgb(42, 63, 95); fill-opacity: 1; white-space: pre; opacity: 1;" transform="translate(0,253.9)">0.02</text></g><g class="ytick"><text text-anchor="end" x="79" y="4.199999999999999" style="font-family: 'Open Sans', verdana, arial, sans-serif; font-size: 12px; fill: rgb(42, 63, 95); fill-opacity: 1; white-space: pre; opacity: 1;" transform="translate(0,194.56)">0.04</text></g><g class="ytick"><text text-anchor="end" x="79" y="4.199999999999999" style="font-family: 'Open Sans', verdana, arial, sans-serif; font-size: 12px; fill: rgb(42, 63, 95); fill-opacity: 1; white-space: pre; opacity: 1;" transform="translate(0,135.22)">0.06</text></g></g><g class="overaxes-above"><g class="xy2-x"/><g class="xy2-y"><g class="y2tick"><text text-anchor="start" x="1022.88" y="4.199999999999999" transform="translate(0,309)" style="font-family: 'Open Sans', verdana, arial, sans-serif; font-size: 12px; fill: rgb(42, 63, 95); fill-opacity: 1; white-space: pre; opacity: 1;">0</text></g><g class="y2tick"><text text-anchor="start" x="1022.88" y="4.199999999999999" style="font-family: 'Open Sans', verdana, arial, sans-serif; font-size: 12px; fill: rgb(42, 63, 95); fill-opacity: 1; white-space: pre; opacity: 1;" transform="translate(0,269.4)">0.2</text></g><g class="y2tick"><text text-anchor="start" x="1022.88" y="4.199999999999999" style="font-family: 'Open Sans', verdana, arial, sans-serif; font-size: 12px; fill: rgb(42, 63, 95); fill-opacity: 1; white-space: pre; opacity: 1;" transform="translate(0,229.8)">0.4</text></g><g class="y2tick"><text text-anchor="start" x="1022.88" y="4.199999999999999" style="font-family: 'Open Sans', verdana, arial, sans-serif; font-size: 12px; fill: rgb(42, 63, 95); fill-opacity: 1; white-space: pre; opacity: 1;" transform="translate(0,190.2)">0.6</text></g><g class="y2tick"><text text-anchor="start" x="1022.88" y="4.199999999999999" style="font-family: 'Open Sans', verdana, arial, sans-serif; font-size: 12px; fill: rgb(42, 63, 95); fill-opacity: 1; white-space: pre; opacity: 1;" transform="translate(0,150.6)">0.8</text></g><g class="y2tick"><text text-anchor="start" x="1022.88" y="4.199999999999999" style="font-family: 'Open Sans', verdana, arial, sans-serif; font-size: 12px; fill: rgb(42, 63, 95); fill-opacity: 1; white-space: pre; opacity: 1;" transform="translate(0,111)">1</text></g></g></g></g><g class="subplot xy2"/></g><g class="polarlayer"/><g class="smithlayer"/><g class="ternarylayer"/><g class="geolayer"/><g class="funnelarealayer"/><g class="pielayer"/><g class="iciclelayer"/><g class="treemaplayer"/><g class="sunburstlayer"/><g class="glimages"/><defs id="topdefs-af8b88"><g class="clips"/><clipPath id="legendaf8b88"><rect width="86" height="48" x="0" y="0"/></clipPath></defs><g class="layer-above"><g class="imagelayer"/><g class="shapelayer"/></g><g class="infolayer"><g class="legend" pointer-events="all" transform="translate(1102.04,100)"><rect class="bg" shape-rendering="crispEdges" style="stroke: rgb(68, 68, 68); stroke-opacity: 1; fill: rgb(255, 255, 255); fill-opacity: 1; stroke-width: 0px;" width="86" height="48" x="0" y="0"/><g class="scrollbox" transform="" clip-path="url(#legendaf8b88)"><g class="groups"><g class="traces" transform="translate(0,14.5)" style="opacity: 1;"><text class="legendtext" text-anchor="start" x="40" y="4.680000000000001" style="font-family: 'Open Sans', verdana, arial, sans-serif; font-size: 12px; fill: rgb(42, 63, 95); fill-opacity: 1; white-space: pre;">y_pred</text><g class="layers" style="opacity: 1;"><g class="legendfill"/><g class="legendlines"><path class="js-line" d="M5,0h30" style="fill: none; stroke: rgb(99, 110, 250); stroke-opacity: 1; stroke-width: 2px;"/></g><g class="legendsymbols"><g class="legendpoints"/></g></g><rect class="legendtoggle" x="0" y="-9.5" width="80.390625" height="19" style="fill: rgb(0, 0, 0); fill-opacity: 0;"/></g><g class="traces" transform="translate(0,33.5)" style="opacity: 1;"><text class="legendtext" text-anchor="start" x="40" y="4.680000000000001" style="font-family: 'Open Sans', verdana, arial, sans-serif; font-size: 12px; fill: rgb(42, 63, 95); fill-opacity: 1; white-space: pre;">labels</text><g class="layers" style="opacity: 1;"><g class="legendfill"/><g class="legendlines"><path class="js-line" d="M5,0h30" style="fill: none; stroke: rgb(239, 85, 59); stroke-opacity: 1; stroke-width: 2px;"/></g><g class="legendsymbols"><g class="legendpoints"/></g></g><rect class="legendtoggle" x="0" y="-9.5" width="80.390625" height="19" style="fill: rgb(0, 0, 0); fill-opacity: 0;"/></g></g></g><rect class="scrollbar" rx="20" ry="3" width="0" height="0" style="fill: rgb(128, 139, 164); fill-opacity: 1;" x="0" y="0"/></g><g class="g-gtitle"/><g class="g-xtitle"/><g class="g-ytitle"><text class="ytitle" transform="rotate(-90,27.981250000000003,210)" x="27.981250000000003" y="210" text-anchor="middle" style="font-family: 'Open Sans', verdana, arial, sans-serif; font-size: 14px; fill: rgb(42, 63, 95); opacity: 1; font-weight: normal; white-space: pre;">prediction score</text></g><g class="g-y2title"/></g></svg>