<svg class="main-svg" xmlns="http://www.w3.org/2000/svg" xmlns:xlink="http://www.w3.org/1999/xlink" width="1200" height="400" style="" viewBox="0 0 1200 400"><rect x="0" y="0" width="1200" height="400" style="fill: rgb(255, 255, 255); fill-opacity: 1;"/><defs id="defs-577fff"><g class="clips"><clipPath id="clip577fffxyplot" class="plotclip"><rect width="941.88" height="220"/></clipPath><clipPath id="clip577fffxy2plot" class="plotclip"><rect width="941.88" height="220"/></clipPath><clipPath class="axesclip" id="clip577fffx"><rect x="80" y="0" width="941.88" height="400"/></clipPath><clipPath class="axesclip" id="clip577fffy"><rect x="0" y="100" width="1200" height="220"/></clipPath><clipPath class="axesclip" id="clip577fffxy"><rect x="80" y="100" width="941.88" height="220"/></clipPath><clipPath class="axesclip" id="clip577fffy2"><rect x="0" y="100" width="1200" height="220"/></clipPath><clipPath class="axesclip" id="clip577fffxy2"><rect x="80" y="100" width="941.88" height="220"/></clipPath></g><g class="gradients"/><g class="patterns"/></defs><g class="bglayer"><rect class="bg" x="80" y="100" width="941.88" height="220" style="fill: rgb(229, 236, 246); fill-opacity: 1; stroke-width: 0;"/></g><g class="layer-below"><g class="imagelayer"/><g class="shapelayer"/></g><g class="cartesianlayer"><g class="subplot xy"><g class="layer-subplot"><g class="shapelayer"/><g class="imagelayer"/></g><g class="minor-gridlayer"><g class="x"/><g class="y"/><g class="y2"/></g><g class="gridlayer"><g class="x"><path class="xgrid crisp" transform="translate(146.57999999999998,0)" d="M0,100v220" style="stroke: rgb(255, 255, 255); stroke-opacity: 1; stroke-width: 1px;"/><path class="xgrid crisp" transform="translate(246.27,0)" d="M0,100v220" style="stroke: rgb(255, 255, 255); stroke-opacity: 1; stroke-width: 1px;"/><path class="xgrid crisp" transform="translate(345.96,0)" d="M0,100v220" style="stroke: rgb(255, 255, 255); stroke-opacity: 1; stroke-width: 1px;"/><path class="xgrid crisp" transform="translate(445.65,0)" d="M0,100v220" style="stroke: rgb(255, 255, 255); stroke-opacity: 1; stroke-width: 1px;"/><path class="xgrid crisp" transform="translate(545.3399999999999,0)" d="M0,100v220" style="stroke: rgb(255, 255, 255); stroke-opacity: 1; stroke-width: 1px;"/><path class="xgrid crisp" transform="translate(645.04,0)" d="M0,100v220" style="stroke: rgb(255, 255, 255); stroke-opacity: 1; stroke-width: 1px;"/><path class="xgrid crisp" transform="translate(744.73,0)" d="M0,100v220" style="stroke: rgb(255, 255, 255); stroke-opacity: 1; stroke-width: 1px;"/><path class="xgrid crisp" transform="translate(844.42,0)" d="M0,100v220" style="stroke: rgb(255, 255, 255); stroke-opacity: 1; stroke-width: 1px;"/><path class="xgrid crisp" transform="translate(944.11,0)" d="M0,100v220" style="stroke: rgb(255, 255, 255); stroke-opacity: 1; stroke-width: 1px;"/></g><g class="y"><path class="ygrid crisp" transform="translate(0,228.84)" d="M80,0h941.88" style="stroke: rgb(255, 255, 255); stroke-opacity: 1; stroke-width: 1px;"/><path class="ygrid crisp" transform="translate(0,148.04)" d="M80,0h941.88" style="stroke: rgb(255, 255, 255); stroke-opacity: 1; stroke-width: 1px;"/></g><g class="y2"><path class="y2grid crisp" transform="translate(0,269.4)" d="M80,0h941.88" style="stroke: rgb(255, 255, 255); stroke-opacity: 1; stroke-width: 1px;"/><path class="y2grid crisp" transform="translate(0,229.8)" d="M80,0h941.88" style="stroke: rgb(255, 255, 255); stroke-opacity: 1; stroke-width: 1px;"/><path class="y2grid crisp" transform="translate(0,190.2)" d="M80,0h941.88" style="stroke: rgb(255, 255, 255); stroke-opacity: 1; stroke-width: 1px;"/><path class="y2grid crisp" transform="translate(0,150.6)" d="M80,0h941.88" style="stroke: rgb(255, 255, 255); stroke-opacity: 1; stroke-width: 1px;"/><path class="y2grid crisp" transform="translate(0,111)" d="M80,0h941.88" style="stroke: rgb(255, 255, 255); stroke-opacity: 1; stroke-width: 1px;"/></g></g><g class="zerolinelayer"><path class="yzl zl crisp" transform="translate(0,309.65)" d="M80,0h941.88" style="stroke: rgb(255, 255, 255); stroke-opacity: 1; stroke-width: 2px;"/><path class="y2zl zl crisp" transform="translate(0,309)" d="M80,0h941.88" style="stroke: rgb(255, 255, 255); stroke-opacity: 1; stroke-width: 2px;"/></g><path class="xlines-below"/><path class="ylines-below"/><g class="overlines-below"><path class="xy2-x"/><path class="xy2-y"/></g><g class="xaxislayer-below"/><g class="yaxislayer-below"/><g class="overaxes-below"><g class="xy2-x"/><g class="xy2-y"/></g><g class="plot" transform="translate(80,100)" clip-path="url(#clip577fffxyplot)"><g class="scatterlayer mlayer"><g class="trace scatter trace60d5f7" style="stroke-miterlimit: 2; opacity: 1;"><g class="fills"/><g class="errorbars"/><g class="lines"><path class="js-line" d="M0,200.31L0.23,195.76L0.35,173.08L0.58,191.75L0.69,188.41L0.81,127.24L1.27,168.17L1.5,142.58L1.62,134.11L2.19,105.38L2.31,139.78L2.42,163.42L2.77,169.46L2.88,143.02L3.12,166.55L3.23,185.64L3.69,160.58L3.92,180.6L4.04,181.62L4.15,186.33L4.27,150.78L4.73,190.1L5.08,169.9L5.19,169.05L6.12,143.7L6.23,175.82L6.35,168.67L6.58,185.37L6.81,179.76L6.92,183.11L7.73,131.14L7.85,145.59L8.08,141.81L8.54,183.16L8.88,171.42L9,176.27L9.58,202.53L9.92,195.05L10.04,186.05L10.38,192.54L10.73,189.6L10.85,185.36L11.08,189L11.42,181.94L11.54,183.07L13.27,132.31L13.38,147.3L13.5,147.83L13.62,146.12L13.73,137.39L13.96,122.35L14.31,134.69L14.42,145.54L14.54,146.13L14.65,126.54L15.23,153.54L15.46,149.2L15.58,150.77L15.81,157.46L15.92,152.41L16.04,128.9L16.5,156.26L16.85,146.27L16.96,139.2L17.19,144.55L17.31,155.42L17.42,137.04L18,154.87L18.12,157.8L18.35,160.61L18.46,148.49L18.58,157.84L18.81,152.1L19.04,177.22L19.27,167.14L19.38,160.06L19.5,149.06L20.08,154.27L20.19,156.14L20.54,143.51L20.88,152.04L21,156L21.23,143.17L21.58,144.45L21.69,164.63L22.04,164.39L22.15,167.3L22.27,160.16L22.73,170.27L22.85,164.21L22.96,147.92L23.54,169.13L23.77,167.94L23.88,166.43L24,165.48L24.12,170.18L24.23,171.49L24.58,177.16L25.38,132.32L25.5,139.09L25.62,145.37L25.73,127.61L26.19,167.09L26.31,168.57L26.42,152.65L26.65,175.25L27,160.31L27.12,167.85L27.58,189.3L27.92,183.55L28.04,184.34L28.38,191.6L28.73,180.03L28.85,183.72L28.96,187.25L29.08,184.36L29.19,157.34L30.35,191.17L30.46,186.56L30.58,171.47L30.81,188.42L31.15,183.8L31.27,182.84L31.38,171.42L31.85,194.8L31.96,189.36L32.88,201.26L33,200.76L33.12,200.88L33.23,203.26L33.81,204.08L34.04,125.14L34.38,145.46L34.5,157.78L35.19,108.15L35.42,113.38L35.54,148.91L35.77,140.65L35.88,156.77L36.12,138.27L36.69,180.14L36.81,170.04L36.92,150.85L37.38,183.61L37.73,171.11L37.85,173.09L38.08,190.91L38.42,168.93L38.54,155.92L39.12,174.35L39.23,170.78L39.35,155.5L40.04,189.78L40.15,187.01L40.27,163.55L40.38,158.74L40.62,179.6L40.73,180.31L41.08,139.25L41.65,148.97L41.77,170.76L42.46,195.54L42.58,201.59L43.15,187.48L43.5,190.89L43.62,192.41L44.42,173.26L44.54,182.63L44.65,182.82L44.77,179.11L46.5,144.44L46.62,151.74L46.96,144.16L47.08,146.34L47.19,131.36L47.65,157.5L48,145.8L48.12,148.06L48.46,151.61L48.58,133.09L48.69,150.99L48.92,141.5L49.15,148.72L49.27,150.63L49.5,158.7L49.73,145.04L49.85,143L50.65,127.4L50.77,145.42L51.12,141L51.92,160.97L52.04,140.68L52.96,178.64L53.08,175.49L53.19,178.25L54.23,152.92L54.35,162.53L54.58,153.28L54.69,157.97L54.81,144.98L55.62,165.99L55.73,162.56L55.96,168.31L56.19,154.74L56.31,157.63L56.42,156.9L56.54,153.13L56.77,165.54L56.88,154.96L57,171.94L57.12,171.38L57.23,165.13L57.46,173.03L57.81,170.67L57.92,151.59L58.04,149.1L58.15,160.32L58.27,134.21L58.5,136.47L58.62,111.78L58.96,128.85L59.08,131L59.54,167.77L59.65,137.42L60.81,178.1L60.92,170.04L61.27,176.39L61.38,164.09L61.62,165.81L61.73,175.17L61.85,173.2L62.19,178.43L62.31,176.48L62.42,149.11L62.88,180.51L63,180.24L63.12,80.91L63.58,189.61L63.92,178.32L64.04,184.36L64.15,186.12L64.27,184.27L64.38,177.08L64.5,176.97L64.62,187.42L64.96,165.65L65.19,179.9L65.31,189.67L65.65,200.23L66.12,197.08L66.23,196.81L66.46,198.68L66.58,173.75L66.92,169.61L67.04,202.5L67.15,195.79L67.27,130.95L67.85,168.09L67.96,153.03L68.08,122.9L68.31,110.78L69.23,171.99L69.35,163.53L69.58,177.11L70.04,168.89L70.15,158.12L70.27,182.17L70.73,154.56L70.96,170.26L71.08,174.15L71.42,181.31L71.65,166.75L71.77,162.81L72,167.43L72.12,157.62L72.35,162.56L72.46,158L72.58,157.32L72.69,177.73L72.81,157.96L73.38,185.97L73.5,158.16L73.62,150.54L73.85,171.03L74.08,118.88L74.31,148.9L74.42,150.61L74.54,145.51L74.77,161.69L74.88,155.49L75,162.63L76.62,192.12L76.73,192.34L77.65,176.09L77.77,183.02L77.88,183.18L78,179.44L78.81,161.45L78.92,165.03L79.04,144.62L79.5,151.09L79.73,134.47L79.85,143.19L79.96,148.73L80.08,136.25L80.31,142.23L80.42,127.29L80.88,143.33L81.11,131.34L81.23,126.22L81.69,139.43L81.81,119.14L81.92,117.89L82.38,149.76L82.73,146.32L82.85,142.27L82.96,130.29L83.08,142.71L83.65,132.84L83.77,137.17L83.88,130.86L84.35,140.18L84.46,138.14L84.58,137.12L85.15,155.4L85.27,124.78L86.19,176.64L86.31,173.05L86.42,174.74L86.54,171.9L86.65,163.9L87.35,150.88L87.46,161.29L88.04,152.19L88.15,165.48L88.27,167.56L88.61,162.3L88.73,159.13L88.96,159.12L89.31,163.73L89.42,146.89L90.35,170L90.46,165.34L90.81,168.44L90.92,176.59L91.04,174.59L91.15,148.41L91.38,154.91L91.5,118.76L91.61,119.93L91.73,130.21L91.96,98.41L92.31,140.24L92.42,150.42L92.54,131.19L92.77,167.09L93,160.21L93.11,169.26L93.35,167.17L93.46,161.91L93.58,162.62L93.69,178.71L94.04,184.51L94.15,177.86L94.27,168.45L95.08,189.28L95.19,183.11L95.31,182.9L95.42,185.95L95.54,183.63L95.65,161.23L95.77,152.26L96.11,181.07L96.23,182.65L96.35,98.11L96.81,192.66L96.92,184.54L97.04,170.08L97.27,190.6L97.73,184.48L97.85,167.71L99,200.89L99.11,199.69L99.35,199.93L99.46,198.64L99.92,202.07L100.04,180.84L100.27,190.87L100.5,132.49L100.85,158.67L100.96,169.81L101.19,148.64L101.31,113.34L102.11,173.93L102.46,170.26L102.58,158.01L103.04,181.48L103.5,181.44L103.61,179.37L103.96,175.9L104.42,196.65L104.65,193.58L104.77,176.29L104.88,175.9L105,171.71L105.23,179.65L105.35,170.69L105.58,176.68L105.69,161.48L106.27,199.83L106.5,195.76L106.61,194.35L106.96,198.46L107.31,160.8L107.42,165.48L107.54,175.99L107.65,176.87L107.77,175.07L107.88,185.3L108.81,201.86L108.92,204.35L109.04,205.59L109.5,202.86L109.61,202.93L109.73,202.54L109.85,203.16L109.96,204.46L110.31,202.09L110.42,189.86L111.23,198.45L111.35,197.53L111.46,198.12L111.69,199.6L112.27,195.69L112.38,196.73L112.96,193.18L113.08,196.69L113.77,168.17L114.11,177.52L114.23,177.21L114.35,178.52L114.69,175.01L114.81,176.77L114.92,175.5L115.04,169.69L115.27,188.63L115.38,188.04L115.5,189.78L115.61,189.6L115.73,185.84L116.65,189.88L116.77,190.15L116.88,190.48L117,189.96L117.11,184.38L117.92,193.83L118.04,194.78L118.27,195.2L118.38,193.97L118.5,190.82L118.61,190.43L118.85,191.34L118.96,194.51L119.08,194.97L119.19,188.51L120,194.64L120.11,193.97L120.23,193.95L120.35,195.17L120.81,194.48L120.92,193.22L121.04,195.6L121.27,192.94L121.73,194.86L121.85,193.16L122.08,195.96L122.54,195.06L122.65,193.65L122.77,196.31L123.23,194.17L123.35,190.8L124.15,194.39L124.27,193.15L124.38,184.64L124.5,185.82L124.61,184.9L124.73,166.12L124.96,161.62L125.19,172.1L125.31,173.94L126,190.08L126.35,185.53L126.46,183.39L127.38,193.02L127.5,187.69L127.73,187.1L128.65,196.15L128.77,193.08L129.58,128.21L129.69,186.59L130.04,198.8L130.27,192.69L130.38,182.62L131.08,201.62L131.19,196.11L131.31,195.31L132.23,203.73L132.35,202.97L132.46,202.45L132.58,202.86L132.69,197.27L133.5,203.99L133.61,203.55L133.73,187.2L134.77,204.23L134.88,205.67L135,205.41L135.11,201.77L135.35,206.36L135.69,206.21L135.81,187.15L136.15,200.5L136.73,172.29L136.85,199.73L137.65,208.55L137.77,208.62L138.11,208.4L138.23,207.19L138.92,208.68L139.04,207.91L139.15,207.33L139.38,200.99L139.5,191.74L139.61,206.95L140.08,180.2L140.19,176.29L140.31,167.03L140.54,183.94L140.77,180.51L140.88,181.02L141.35,145.98L141.69,154.67L141.81,164.34L141.92,170.35L142.15,148.37L142.27,149.66L142.38,153.42L142.5,153.93L142.61,152.48L142.73,152.52L142.85,156.94L143.19,147.7L144,170.19L144.11,161.58L144.92,185.81L145.15,185.7L145.27,188.22L145.38,198.34L145.96,190.94L146.08,190.62L146.31,191.17L146.88,164.35L147.11,172.68L147.23,176.9L148.04,152.99L148.15,123.82L148.27,30.42L148.61,174.05L148.73,171.76L148.85,175.49L149.65,167.78L149.88,168.43L150,142.98L150.11,145.06L150.23,163.84L150.58,142.4L150.69,173.6L150.81,181.53L150.92,183.39L151.04,158.46L151.15,155.87L151.38,164.61L151.5,169.19L152.19,195.66L152.31,194.85L152.42,173.92L153.35,197.7L153.46,197.63L153.58,197.35L154.15,194.96L154.5,195.68L154.61,197.68L155.19,196.86L155.42,199.13L155.54,198.45L155.77,197.03L155.88,192.46L156.35,197.86L156.46,191.57L156.58,187.57L156.81,197.14L157.38,195.74L157.5,193.99L157.96,177.93L158.31,181.26L158.42,181.83L158.54,181.21L158.65,173.83L159.58,193.51L159.69,192.89L159.81,192.09L160.04,191.82L160.5,197.1L160.61,192.36L160.73,192.17L160.85,192.9L160.96,195.14L161.08,194.58L161.31,196.35L161.54,195.67L161.65,197.01L161.88,198.42L162,193.87L162.69,198.25L162.81,181.84L162.92,198.73L163.15,198.8L163.27,198.18L163.38,197.23L163.5,186.61L164.08,195.57L164.19,193.47L164.42,191.28L164.65,197.97L164.77,195.17L164.88,183.69L165.11,189.81L165.23,201.53L165.46,204.03L166.04,203.53L166.15,202.74L166.96,165.65L167.31,169.65L167.42,188.51L167.54,189.13L167.65,149.57L167.88,163.64L168,171.24L168.11,167.31L168.23,188.1L168.35,180.06L168.46,182.55L168.69,175.25L168.81,185.83L168.92,183.21L169.04,171.01L169.61,191.22L169.73,175L169.85,173.85L170.19,190.96L170.42,163.11L170.54,163.69L171.11,187.69L171.23,174.72L171.35,169.45L171.46,165.22L171.81,176.61L171.92,180.67L172.04,187.32L172.5,179.01L172.61,186.45L172.73,183.62L172.96,197.27L173.08,194.03L173.19,168.89L173.77,182.95L173.88,171.25L174.23,164.98L174.35,189.74L174.46,179.03L174.58,162.91L175.15,188.35L175.38,185.57L175.5,191.17L175.85,199L176.31,194.8L176.42,193.76L176.54,194.53L176.65,191.39L176.77,186.23L177.11,189.91L177.23,187.48L177.35,176.98L177.58,180.63L177.81,171.51L177.92,171.43L179.08,128.57L179.19,131.63L179.31,131.78L179.42,122.31L179.54,132.96L179.88,107.19L180,116.92L180.11,87.38L180.92,120.46L181.04,116.42L181.5,97.66L181.73,120.63L181.85,120.61L181.96,122.37L182.08,122.05L182.19,95.1L182.54,122.97L182.88,83.55L183,86.95L183.81,150.28L184.04,147.04L184.15,141.04L184.27,138.02L184.38,150.45L184.5,151.59L184.73,156L184.85,154.56L184.96,148.19L185.42,171.95L185.77,168.26L185.88,168.22L186.11,171.97L186.23,170.07L186.35,165.19L187.38,152.16L187.5,156.69L187.73,140.24L187.96,160.53L188.19,155.93L188.31,154.8L188.77,160L189.11,139.57L189.23,155.38L190.04,169.41L190.27,168.96L190.38,165.57L190.61,171.43L190.73,169.5L190.85,155.24L191.08,165.16L191.19,135.66L191.31,126.29L191.42,131.58L191.54,101.16L192.46,170.6L192.58,158.34L192.69,157.1L193.73,187.88L193.85,180.63L194.31,170.48L194.54,184.41L194.65,183.05L194.88,179.3L195.11,186.29L195.23,183.15L195.35,156.39L195.46,157.48L195.58,172.89L195.81,183.56L195.92,177.75L196.04,160.2L196.5,189.54L196.85,178.55L196.96,182.17L197.31,175.06L197.54,190.63L197.65,178.18L197.77,155.48L198.23,189.36L198.35,194.61L198.46,194.41L198.58,197.54L199.15,202.17L199.38,200.97L199.5,180.89L199.61,200.51L200.08,166.73L200.19,143.24L200.31,132.73L200.54,154.81L200.65,145.69L200.77,169.6L201.23,106.76L201.58,151.38L201.69,148.04L201.81,171.42L202.27,138.05L202.5,162.1L202.61,163.24L202.85,174.5L202.96,159.25L203.08,148.23L203.19,149.58L203.31,170.23L203.65,158.82L204.11,188.11L204.23,185.72L204.35,178.59L204.69,149.59L205.15,158.47L205.27,160.59L205.38,153.02L205.61,178.5L205.85,169.34L205.96,179.4L206.19,188.36L206.31,186.42L206.42,151.62L206.54,153.35L206.65,176.17L207.46,138.59L207.58,167.23L208.04,133.44L208.27,153.4L208.38,162.76L208.5,160.73L208.61,168.13L208.73,172.13L208.85,172.63L208.96,178.43L209.08,178.64L209.19,180.99L209.65,180.49L210,186.72L210.11,183.92L210.23,186.69L210.46,181.05L210.58,169.04L210.69,179.95L211.15,162.74L211.27,157.32L212.42,134.16L212.54,137.35L212.77,134.31L213,140.39L213.11,138.34L213.23,124.49L213.35,103.13L213.81,133.66L213.92,141.71L214.15,113.49L214.73,121.24L214.85,134.79L215.19,142.29L215.42,134.59L215.54,139.78L215.65,124.3L216.11,120.84L216.58,145.82L216.69,142.95L216.81,135.18L217.04,145.59L217.38,143.04L217.5,139.31L217.96,162.19L218.08,153.64L218.19,133.49L218.65,154.15L218.88,132.61L219,145.33L219.11,150.83L219.23,150.12L219.35,153.23L219.46,153.99L219.69,158.68L219.81,150.55L219.92,137.04L220.27,152.06L220.38,151.37L220.5,161.72L220.96,149.29L221.08,162.79L221.19,162.62L221.31,159.89L221.54,160.41L221.88,156.38L222,159.67L222.11,161.46L222.23,160.57L222.35,152.22L223.27,171.21L223.38,167.86L223.73,173.55L223.96,171.81L224.08,158.67L224.31,167.62L224.42,137.88L224.54,128.76L224.65,135.44L224.77,110.79L225,111.35L225.11,101.65L225.58,161.57L226.15,156.45L226.27,148.01L226.38,142.69L226.61,162.22L226.73,174.88L226.96,184.94L227.19,171.8L227.31,176.26L227.42,175.86L227.77,170.59L227.88,178.28L228,180.23L228.11,177.18L228.35,184.33L228.46,177.23L228.58,148.81L229.61,183.34L229.73,191.17L229.96,169.47L230.54,176.56L230.65,182.53L230.88,168.6L231.81,200.4L231.92,201.08L232.5,201.34L232.61,199.61L232.73,198.85L232.85,202.22L232.96,180.3L233.08,178.97L233.19,191.02L233.31,185.41L233.42,123.44L233.65,164.99L234.11,137.7L234.23,129.06L234.35,113.05L234.58,149.65L234.81,142.61L234.92,138.71L235.73,172.48L235.84,172.33L236.31,161.08L236.42,175.13L236.77,183.58L236.88,161.62L237.11,172.14L237.23,176.95L237.58,183.15L237.69,165.3L237.81,165.7L237.92,151.41L238.84,180.21L238.96,170.92L239.54,191.04L239.65,163.69L239.88,188.95L240.11,155.54L240.23,149.95L240.58,154.62L240.69,142.71L240.81,160.81L241.04,156.86L241.15,179.27L241.27,179.53L241.38,176.61L241.73,173.04L241.84,184.26L242.19,197.43L242.65,189.32L242.77,191.69L243,196.12L243.11,186.73L243.46,192.42L243.58,189.01L244.96,148.8L245.08,164.94L245.88,136.23L246,147.5L246.11,149.39L246.34,158.34L246.46,153.36L246.58,144.28L246.69,134.66L247.15,150.76L247.38,139.58L247.5,144.27L247.96,136.92L248.08,150L248.31,137.08L248.42,152.24L248.54,151.46L248.65,141.24L248.88,154.38L249.23,135.62L249.34,134.22L250.15,153.11L250.27,147.49L250.38,145.25L251.31,155.79L251.42,125.58L252.34,175.34L252.58,172.82L252.69,171.02L252.81,157.21L253.5,163.84L253.61,162.09L254.19,140.45L254.31,163.92L254.42,165.43L254.54,165.54L254.65,163.82L254.77,155.06L255.23,165.82L255.34,161.95L255.46,166.31L255.58,152.21L256.15,161.17L256.27,161.51L256.73,172.92L257.08,169.26L257.19,170.24L258.11,110.46L258.23,126.75L258.34,114.51L258.69,148.72L258.81,156.48L259.04,150.71L259.27,164.79L259.38,152.81L259.5,151.18L260.19,184.98L260.54,182.17L260.65,180.7L260.77,174.22L261.23,182.57L261.34,178.93L261.46,179.87L261.58,182.23L261.69,180.86L261.81,140.54L262.73,186.42L262.84,188.84L262.96,191.84L263.08,184.63L263.19,170.81L264,191.48L264.11,190.99L264.23,174.18L264.46,161.38L264.58,186.56L265.27,203L265.38,202.49L265.5,202.47L265.96,199.08L266.08,201.87L266.19,177.5L266.31,178.84L266.42,202.98L266.54,197.88L266.65,122.75L267.11,166.74L267.23,162.23L267.34,105.36L268.27,167.45L268.5,164.02L268.61,168.93L268.73,157.38L269.08,182.35L269.19,170.3L269.31,176.57L269.88,182.69L270.11,150.38L270.23,170.36L270.69,191.86L270.92,171.64L271.04,169.62L271.96,149.32L272.08,176.21L272.19,166.88L272.65,190.85L272.77,187.6L273.58,143.15L273.69,152.98L273.81,154.47L273.92,142.28L274.96,178.81L275.08,184.79L275.42,197.88L275.88,190.97L276,184.85L276.23,185.27L276.34,182.01L276.58,185.2L276.81,183.67L276.92,178.58L277.73,156.08L278.08,157.46L278.19,155.31L279.11,128.12L279.23,134.63L279.34,136.59L279.46,137.31L279.58,130.36L279.69,129.57L279.81,115.8L280.38,151.15L280.61,149.98L280.73,131.34L281.19,122.15L281.31,142.23L281.54,142.06L281.65,143.82L281.77,150.09L281.88,138.99L282.34,142.66L282.46,146.85L282.81,147.78L283.27,132.35L283.38,147.75L284.31,162.91L284.42,160.84L284.54,160.02L284.65,144.37L284.88,166.03L285.46,161.6L285.58,163.6L285.81,164.99L286.38,153.24L286.5,157.53L286.73,143.22L287.08,149.47L287.19,156.05L287.42,131.24L287.54,144.31L287.65,159.81L287.77,160.36L287.88,159.86L288,154.98L288.11,157.93L288.34,149.26L288.46,141.7L288.81,141.61L289.04,160.22L289.15,154.62L289.27,146.37L289.73,173.33L290.19,169.43L290.31,177.26L291.58,135.57L291.69,150.66L292.27,147.25L293.08,184.69L293.19,184.19L293.42,187.4L293.54,183.2L293.65,170.13L294.23,186.46L294.46,181.91L294.58,185.54L294.92,180.85L295.04,151.81L295.15,145.95L295.27,170.62L295.38,168.25L295.5,179L295.73,157.78L295.84,180.01L296.19,187.63L296.42,164.47L296.54,174.11L296.65,181.87L296.77,180.81L296.88,167.49L297.23,191.97L297.46,153.78L297.69,176.44L297.81,181.27L298.73,203.49L298.84,203.22L299.31,195.81L299.42,178.95L299.54,176.43L299.65,192.56L299.77,184.87L299.88,123.39L300.34,177.3L300.69,144.73L300.81,131.71L300.92,112.14L301.38,149.58L301.5,155.12L301.84,168.64L301.96,141.1L302.08,166.09L302.19,170.17L302.42,175.93L302.65,167.72L302.77,155.15L303.23,195.54L303.58,172.71L303.69,180.52L304.04,185.94L304.15,168.94L304.38,154.89L304.84,164.75L304.96,168.76L305.19,150.57L305.54,164.61L305.65,175.16L305.77,181.04L306,179.71L306.11,140.63L306.58,184.57L306.81,143.41L306.92,117.57L308.08,181.1L308.19,180.77L308.31,194.11L308.65,196.84L308.77,193.29L308.88,183.49L309.23,190.66L309.46,187.75L309.58,176.63L310.04,186.47L310.15,175.39L310.27,173.59L310.38,181.99L310.84,165.36L310.96,160.03L311.08,164.58L311.42,153.25L311.54,157.13L311.65,152.82L312.58,127.08L312.69,138.9L312.81,141.56L312.92,134.25L313.04,125.59L313.15,113.4L313.38,144.02L313.61,142.73L313.73,134.74L313.84,129.66L314.31,141.1L314.42,132.68L314.54,148.51L314.88,153.76L315,152.31L315.11,142.52L315.34,130.42L315.46,136.73L315.58,144.12L315.69,144.66L315.81,138.46L316.15,146.76L316.38,134.58L316.5,112.19L317.31,162.32L317.42,158.69L317.54,157.27L317.65,161.89L317.88,140.27L318,141.62L318.11,138.01L318.23,155.71L318.34,152.78L318.46,158.77L318.92,144.1L319.04,166.87L319.15,168.96L320.19,151.89L320.31,154.41L320.65,143.81L321.34,165.89L321.46,163.77L321.58,163.36L321.69,164.31L321.81,166.54L321.92,167L322.04,159.33L322.27,162.17L322.38,152.52L322.5,157.58L322.61,154.22L322.73,154.65L322.84,162.86L323.65,175.7L323.77,162.86L323.88,166.65L324,157.86L324.11,132.65L324.92,153.25L325.04,146.04L325.38,163.71L325.5,143.8L326.54,184.4L326.65,183.78L326.88,178.12L327.11,187.26L327.23,134.53L327.69,181.25L328.15,173.65L328.27,122.3L329.08,171.67L329.19,170.92L329.31,180.94L329.54,176.91L329.65,149.82L330.46,182.15L330.58,168.14L330.69,164.75L330.92,180.47L331.04,181.89L331.96,201.63L332.08,201.11L332.19,200.77L332.31,201.14L332.42,188.05L332.54,194.52L332.65,164.09L333,185.26L333.11,137.31L333.58,173.22L333.81,142.74L333.92,101.43L334.04,102.19L334.15,117.36L335.08,169.53L335.19,154.02L335.77,145.07L336,164.85L336.11,163.86L337.04,189.03L337.15,188.66L337.27,186.06L337.5,165.64L338.08,169.11L338.19,173.32L338.65,145.36L338.77,186.35L339,190.27L339.23,188.11L339.34,177.52L339.92,195.58L340.04,181.8L340.15,136.82L340.73,165.63L340.84,170.12L342,204.65L342.11,203.84L342.23,204.2L342.46,205.41L342.81,204.55L342.92,204.02L343.5,178.95L343.84,186.77L343.96,189.05L344.08,188.19L344.19,180.07L344.42,175.38L344.88,181.62L345,182.7L345.11,182.44L345.23,180.04L345.34,182.65L345.58,175.91L346.04,182.04L346.15,177.07L346.61,157.07L346.96,169.9L347.08,174.08L347.42,176.87L347.65,157.23L347.77,169.2L347.88,170.6L348.46,174.82L348.81,174.29L348.92,160.15L349.27,168.49L349.5,116.7L349.84,140.06L349.96,142.02L350.08,140.23L350.19,143.3L350.31,141.95L350.42,158.27L350.88,184.35L351.23,177.61L351.34,184.21L351.81,183.68L352.27,197.43L352.38,196.8L352.96,200.32L353.31,199.59L353.42,198.87L353.88,197.32L354,200.33L354.23,199.72L354.34,199.79L354.92,201.25L355.15,201.01L355.27,199.99L355.5,200.68L355.84,199.08L355.96,196.76L356.42,200.32L356.88,199.34L357,198.52L357.11,199.09L357.23,197.94L357.34,193.72L357.46,190.46L357.69,196.19L358.04,192.7L358.15,195.89L359.19,200.24L359.31,200.04L359.42,199.38L360.46,202.5L360.58,202.75L361.27,203.79L361.38,200.91L361.73,204.03L362.31,203.82L362.42,203.86L362.65,204.76L362.77,202.95L362.88,201.36L363.11,204.2L366.23,200.4L366.34,183.61L367.04,184.94L367.15,199.58L367.5,207.24L367.96,205.81L368.08,195.03L368.88,208.28L369.11,207.49L369.23,208.38L370.04,208.41L370.15,208.74L370.38,209L370.5,192.37L370.61,184.84L370.96,199.8L371.08,207.07L371.19,193.84L371.77,206.53L371.88,206.55L372,206.27L372.11,207.09L372.34,207.09L372.46,204.11L372.69,149.02L373.27,153.08L373.38,154.77L373.5,158.15L373.61,150.44L373.73,137.91L373.84,134.17L374.19,143.81L374.31,146.94L374.54,156.99L374.65,131.82L374.88,137.35L375,139.32L375.11,144.63L375.58,137.34L375.69,115L376.61,170.19L376.73,170.23L377.88,199.24L378.11,197.88L378.23,197.81L378.81,197.09L378.92,200.8L379.04,201.3L379.38,200.32L379.5,189.3L379.73,186.65L379.96,193.47L380.08,185.8L380.77,186.11L380.88,179.15L381,178.51L381.11,177.85L381.23,181.24L381.34,181.98L381.69,197.37L382.15,196.45L382.27,195.91L382.38,196.75L382.5,194.55L382.61,179.42L382.84,199.18L383.42,194.9L383.54,172.73L383.65,172.43L383.77,183.18L384.23,200.5L384.58,199.84L384.69,198.89L384.81,201.61L385.04,194.87L385.27,195.68L385.38,196.54L385.84,200.77L386.31,199.93L386.42,196.66L387.34,201.04L387.46,200.75L387.58,200.91L387.69,200.47L387.81,193.97L388.61,200.86L388.84,199.74L388.96,200L389.19,192.14L389.65,200.78L389.77,201.85L390.23,196.47L390.46,196.77L390.58,185.92L391.04,194.51L391.15,194.26L391.27,190.28L391.73,200.93L391.84,199.45L391.96,191.26L392.88,201.29L393,200.39L393.11,201.01L393.23,200.7L393.34,192.32L393.57,198.5L394.15,195.34L394.27,198.95L394.38,198.75L394.5,200.05L394.61,201L394.84,197.72L394.96,203.92L395.54,204.37L395.88,200.65L396,201.79L396.11,194.67L396.92,205.28L397.04,203.12L397.5,198.24L397.84,199.95L397.96,203.95L398.07,205.9L398.77,205.35L398.88,194.7L399,188.72L399.11,203.6L399.34,198.72L399.46,205.69L400.38,172.67L400.61,178.74L400.73,193.06L401.54,200.76L401.65,188.08L401.77,189.06L402,185.4L402.11,192.68L402.23,194.51L402.34,183.68L402.46,179.3L402.69,195.38L402.81,192.38L402.92,196.95L403.04,180.61L403.61,196.5L403.73,194.21L404.07,172.96L404.42,193.85L404.54,198.57L404.65,198.99L404.77,195.24L404.88,183.17L405.46,200.76L405.57,202.14L405.69,202.53L405.81,197.17L406.27,194.23L406.38,197.14L406.5,186.04L406.84,180.48L407.07,195.39L407.19,181.93L407.42,195.44L408,190.93L408.11,190.09L408.23,192.14L408.57,185.39L408.69,185.89L408.92,186.24L409.61,180.49L409.73,184.12L409.84,182.02L409.96,164.51L410.19,177.76L410.65,162.07L410.77,158.95L411.46,118.51L411.81,125.51L411.92,129.12L412.73,92.24L412.84,120.79L412.96,107.82L413.31,127.62L413.54,122.49L413.65,115.95L413.77,116.93L413.88,124.12L414.11,113.44L414.57,139.08L414.69,138.47L414.81,129.46L415.27,148.62L415.38,148.07L415.5,127.48L416.77,155.88L416.88,151.65L417.92,168.85L418.04,165.94L418.15,171.69L418.61,163.33L418.73,164.82L418.84,164.92L419.77,143.51L419.88,149.24L420,149.45L420.11,146.47L420.34,135.4L420.69,152.27L420.92,151.55L421.04,144.22L421.61,156.33L421.73,146.27L421.84,145.34L422.54,162.43L422.77,160.02L422.88,156.93L423.23,159.96L423.46,132.23L423.57,138.64L423.69,149.77L424.15,117.81L424.5,134.51L424.61,145.05L424.73,142.72L424.84,151.48L424.96,160.24L425.07,164.19L425.19,145.69L425.42,155.48L425.54,152.39L425.65,151.8L425.77,155.36L426.34,176.44L426.46,169.42L426.57,143.87L426.81,148.11L427.15,134.36L427.27,135.34L427.38,149.52L427.5,149.66L427.61,165.51L427.73,172.03L427.96,144.88L428.07,148.6L428.31,137.93L428.42,162.4L428.54,175.11L429.23,176.19L429.34,161.19L429.46,170.37L429.81,155.93L430.15,184.09L430.27,175.52L430.38,139.96L431.31,195.32L431.42,198.41L431.88,202.74L432,202.63L432.11,186.72L432.23,202.7L432.69,185.25L432.81,146.76L432.92,110.05L433.27,152.69L433.5,133.79L433.61,145.43L433.96,108.87L434.07,153.01L434.19,154.02L434.31,146.19L434.54,138.87L434.65,153.16L434.77,164.67L434.88,145.48L435.34,167.14L435.46,164.72L435.57,163.78L436.15,167.4L436.27,127.95L436.38,129.16L436.5,145.44L436.61,147.67L436.73,165.95L436.84,164.56L436.96,164.74L437.07,150.17L437.19,151.75L437.31,142.38L437.65,130.22L437.88,147.69L438,144.13L438.11,145.9L438.23,143.35L438.34,116.94L439.27,167.36L439.38,171.72L439.61,180.92L439.96,165.24L440.07,163.7L440.19,158.8L440.77,162.92L440.88,163.7L441,164L441.11,155.85L441.34,197.95L441.92,181.3L442.04,175.21L442.15,169.71L442.73,174L442.84,172.74L442.96,174.72L443.07,170.41L443.19,158.58L443.42,166.11L443.88,155.09L444,150.9L444.34,146.7L444.46,153.18L445.27,120.95L445.38,130.27L445.5,133.78L445.73,131.4L445.84,135.6L446.19,116.19L446.65,123.29L446.77,123.73L446.88,124.14L447,119.33L447.23,123.63L447.34,110.06L447.46,116.9L447.57,123.38L447.92,132.69L448.04,103.94L448.96,134.16L449.07,139.66L449.77,131.43L449.88,138.61L450.23,155.89L450.69,150.93L450.81,151.52L450.92,164.43L451.38,145.82L451.5,137.67L452.42,149.23L452.54,142.27L452.77,145.54L452.88,127.12L453.11,137.97L453.23,143.13L453.46,133.52L453.57,133.93L453.69,147.63L453.92,146L454.04,148.17L454.15,145.5L454.27,144.82L454.38,157.75L454.5,161.15L454.84,161.07L454.96,150.22L455.54,153L455.65,152.67L455.77,164.14L456,168.45L456.11,159.64L456.57,172.46L456.69,154L456.81,157.96L456.92,155.34L457.5,126.37L457.73,134.62L457.84,144.67L458.19,122.47L458.54,146.31L458.65,149.49L459.11,166.59L459.23,147.54L459.69,152.64L459.81,134.08L459.92,150.79L460.04,147L460.27,155.68L460.5,153.92L460.61,156.98L461.07,165.56L461.19,128.8L461.54,128.3L462.34,167.21L462.46,165.94L462.57,145.65L463.38,181.26L463.5,173.12L463.61,170.9L464.77,201.38L464.88,201.11L465.11,201.71L465.69,176.91L465.81,190.21L465.92,191.03L466.04,123.01L466.73,135.14L466.84,124.75L466.96,115.22L467.19,151.88L467.42,133.66L467.54,148.36L467.65,167.95L468.11,133.02L468.23,125.44L468.69,165.12L469.15,164.2L469.27,163.25L469.38,161.61L469.5,137.43L470.07,174.89L470.42,158.74L470.54,151.89L470.88,148.68L471.34,161.15L471.46,160.05L471.57,153.57L471.69,146.69L471.81,176.99L471.92,176.83L472.27,146.23L472.73,167.24L472.84,173.41L472.96,175.02L473.07,164.75L473.19,166.27L473.31,153.89L473.65,148.14L473.88,173.36L474,162.08L474.11,154.61L474.23,151.46L474.34,160.19L474.46,185.27L474.57,195L475.04,187.44L475.15,168.28L475.27,160.33L475.61,170.51L475.84,168.69L475.96,176.84L476.07,175.91L476.19,178.38L476.31,177.36L476.42,169L476.65,173.99L476.88,168.21L477,168.73L477.11,160.35L478.04,152.08L478.15,148.49L478.27,149.26L478.38,147.18L478.5,123.65L479.07,147.05L479.19,138.48L479.31,129.53L479.77,139.78L479.88,125.35L480,124.42L480.23,123.46L481.15,142.28L481.27,135.77L481.73,145.71L481.96,136.02L482.07,134.53L482.42,146.56L482.65,125.59L482.88,141.59L483,136.18L484.15,167.26L484.38,165.6L484.5,159.12L484.73,157.77L485.19,169.83L485.31,167.45L485.42,164.86L485.54,165.4L485.65,159.91L486.11,151.34L486.46,154.53L486.57,155.43L486.81,146.16L486.92,151.3L487.04,157.69L487.38,147.77L487.84,150.56L487.96,151.85L488.31,144.61L488.77,159.43L488.88,152.7L489.69,166.18L489.81,165.27L489.92,145.96L490.15,153.29L490.27,128.74L490.38,127.39L490.61,122.02L491.19,146.87L491.42,146.35L491.54,148.72L491.65,138.6L492.11,162.05L492.23,166.31L492.46,176.05L492.92,170.82L493.04,161.82L493.61,176.77L493.84,173.76L493.96,178.64L494.31,175.81L494.42,153.38L495.34,182.07L495.46,181.02L495.57,180.68L495.81,155.47L496.04,174.7L496.15,177.74L496.38,168.23L496.5,119.02L497.31,186.78L497.42,187.68L497.54,182.55L497.88,195.57L498,199.73L498.69,201.93L498.81,183.18L498.92,181.09L499.04,203.92L499.27,136.48L499.61,158.22L499.73,171.23L499.84,173.19L499.96,138.38L500.07,103.75L500.65,144.28L500.77,160.72L501,143.47L501.23,167.7L501.34,156.63L501.46,168.42L501.81,186.93L501.92,183.82L502.04,147.21L502.27,161.1L502.38,169.58L502.61,177.32L502.73,154.87L503.19,188.17L503.54,168.89L503.65,165.73L504,171.5L504.11,155.59L504.34,158.61L504.46,177.34L505.27,194.91L505.38,193.52L505.5,166.07L505.73,186.93L506.07,164.84L506.19,150.61L506.54,150.04L507.46,184.25L507.57,179.09L508.15,197.58L508.38,188.1L508.5,189.34L508.84,194.39L509.31,191.07L509.42,189.9L511.04,158.66L511.15,162.54L511.27,163.65L511.38,160.71L511.5,152.98L511.73,140.14L512.07,160.8L512.31,142.49L512.42,142.85L513.57,160.05L513.69,153.25L513.92,137.45L514.38,158.53L514.5,147.94L514.73,145.1L514.96,150.44L515.07,144.93L515.77,128.03L515.88,130.6L516,149.25L516.23,142.63L516.34,153.69L516.46,157.41L516.57,157.1L516.69,161.82L516.92,157.62L517.04,161.21L517.15,164.81L517.27,155.91L517.73,165.1L517.84,178.44L518.19,180L519,154.87L519.11,162.29L519.34,161.74L519.46,160.67L519.57,160.91L519.69,160.01L519.81,167.99L520.04,155.02L520.61,163.65L520.73,163.35L521.07,167.94L521.19,164.86L521.31,158.87L521.42,154.9L521.77,161.12L521.88,169.09L523.04,180.03L523.15,159.96L523.27,165.38L523.5,144.45L523.61,139.71L523.73,141.9L523.84,116.07L525.11,171.49L525.23,169.28L525.34,177.37L525.69,157.73L525.92,170.71L526.04,172.87L526.27,168.75L526.5,178.64L526.61,167.83L527.42,183.35L527.54,181.28L527.65,159.77L528.11,182.84L528.23,179.3L528.34,158.16L529.27,197.86L529.38,198.55L529.5,192.85L530.07,200L530.19,199.83L530.88,203.71L531,192.09L531.11,162.69L531.57,199.81L531.69,199.73L531.81,185.08L531.92,185.7L532.04,176.38L532.15,175.48L532.27,189.25L532.38,187.55L532.5,136.31L532.61,117.42L532.96,162.41L533.19,135.04L533.31,126.09L533.42,117.12L533.65,140.82L533.77,156.78L533.88,156.45L534,142.5L534.34,168.16L534.46,156.89L534.57,128.91L535.15,177.12L535.5,176.7L535.61,166.71L535.73,166.56L535.84,182.12L535.96,161.15L536.42,191.44L536.54,189.07L536.65,185.28L537,158.45L537.46,172.31L537.57,175.59L537.69,170.14L537.92,190.48L538.04,184.56L538.15,190.19L538.5,197.52L538.61,193.92L538.73,174.27L538.96,190.28L539.31,159.23L539.42,142.67L540.34,175.42L540.46,170.14L541.38,198.11L541.5,195.98L541.73,194.3L542.07,197.9L542.19,194.93L543.57,175.46L543.69,171.76L543.92,167.39L544.27,169.33L544.38,162.6L544.5,167.7L544.84,161.44L544.96,146.45L545.42,160.7L545.54,159.45L545.65,142.84L546.23,144.63L546.34,131.11L546.46,134.03L546.57,139.37L546.92,144.87L547.04,129.31L547.15,143.38L547.84,158.48L548.07,151.55L548.19,153.36L548.54,146.34L548.65,142.12L548.77,144.7L548.88,144.04L549,132.57L549.11,119.63L549.57,140.44L549.69,147.84L549.8,146.49L549.92,157.74L550.15,156.61L550.38,163.62L550.5,139.53L551.42,176.24L551.54,173.22L551.65,174.6L551.77,169.83L551.88,159.38L552,169.02L552.57,154.99L552.69,161.23L552.8,161.09L552.92,167.34L553.15,165.72L553.27,157.76L553.73,170.69L553.96,158.46L554.07,161.58L554.54,169.01L554.65,161.97L555.57,175.63L555.69,168.7L555.8,173.33L556.04,165.66L556.27,167.48L556.38,155.8L556.61,166.51L556.73,149.14L556.96,156.32L557.07,153.32L557.19,142.58L557.65,146.82L557.77,157.96L558.11,155.28L558.92,177.39L559.04,177.21L559.27,178.33L559.5,168.14L559.84,171.81L559.96,174.04L560.54,184.53L560.77,178.74L560.88,156.77L561,156.66L561.11,173.25L561.23,158.75L561.69,176.9L561.8,181.61L562.27,169.85L562.38,186.94L562.5,191.95L562.61,191.63L562.73,188.6L562.84,186.12L563.07,193.76L563.3,189.78L563.42,195.01L563.54,193.31L563.65,176.61L564.23,202.39L564.46,201.85L564.57,200.87L564.92,201.32L565.04,187.3L565.15,187.64L565.27,178.97L565.5,191.41L565.61,185.68L565.73,140.79L566.07,179.58L566.42,142.75L566.54,142.11L566.88,122.76L567,143.22L567.11,164.68L567.34,167.2L567.46,160.85L567.57,177.65L567.8,163.79L567.92,172.77L568.04,177.8L568.15,174.8L568.27,188.16L568.5,176.07L568.61,190.36L568.84,188.68L568.96,191.67L569.07,196.06L569.19,191.54L569.77,197.48L569.88,203.71L570.57,180.74L570.69,182.11L570.8,184.46L570.92,170.57L571.38,200.44L571.5,199.99L571.73,201.38L571.84,197.77L572.19,200.22L572.65,178.85L572.77,181.07L574.15,204.45L574.27,206.18L574.73,203.02L574.84,202.25L575.19,204.8L575.54,204.11L575.65,201.86L575.88,204.89L576.46,203.69L581.65,204.7L582.34,195.79L582.46,200.8L582.57,201.53L583.04,200.1L583.15,202.47L583.27,202.61L583.5,202.73L583.61,201.54L583.73,198.68L584.07,198.43L584.19,200.91L584.3,201.59L584.42,195.65L585,200.59L585.11,198.89L585.92,202.93L586.04,202.65L586.15,201.97L586.5,201.04L586.61,203.17L586.96,202.89L587.07,202.57L587.19,202.37L587.42,203.12L587.65,202.99L587.77,201.24L587.88,198.85L588,203.22L588.46,202.27L588.57,200.54L589.15,202.46L589.38,202.4L589.5,202.08L590.07,184.1L590.3,190.15L590.42,192.77L590.88,186.85L591,193.05L591.11,201.41L591.8,198.73L591.92,198.76L592.04,198.94L592.15,202.14L592.27,202.31L592.38,202.14L592.5,200.45L592.73,195.6L593.19,201.55L593.3,201.81L593.88,202.73L594.23,197.05L594.34,202.09L594.46,201.98L594.57,203.32L594.69,202.98L594.8,193.96L595.27,204.68L595.5,190.95L595.61,194.81L595.73,189.35L596.19,201.06L596.3,201.78L596.65,203.77L596.88,199.68L597,202.89L597.11,201.88L597.46,205.11L597.57,205.01L598.38,206.28L598.5,205.09L598.61,206.86L598.84,205.1L598.96,188.68L600.11,206.88L600.23,205.6L600.34,204.37L600.8,206.94L600.92,206.58L601.38,181.11L601.5,187.62L601.61,196.01L601.84,189.12L601.96,201.86L602.54,206.28L602.77,205.98L602.88,205.96L603.23,206.52L603.34,205.72L603.46,204.9L604.04,206.62L604.5,206.36L604.61,206.2L604.84,205.1L604.96,206.43L605.07,195.42L605.3,161.77L605.65,170.72L605.77,185.5L606.57,138.43L606.8,149.38L606.92,152.82L607.04,164.73L607.27,151.48L607.61,155.16L607.73,157.98L607.96,157.24L608.07,159.31L608.19,164.93L608.42,172.64L608.65,155.06L608.77,158.25L608.88,170.71L609.23,173.16L609.34,174.4L609.46,174.28L609.57,176.6L610.27,198.28L610.73,194.91L610.84,195.18L610.96,195.06L611.07,195.94L611.19,195.67L611.3,193.77L611.88,195.82L612.34,183.41L612.46,178.29L613.04,188.87L613.15,183.04L613.27,176.52L613.5,171.25L613.73,176.99L613.96,175.85L614.07,178.68L614.19,177.58L614.3,177.63L614.42,188.75L614.54,188.64L614.65,191.02L615.11,178.14L615.23,162.76L615.8,192.21L616.04,185.23L616.15,163.02L616.5,176.87L616.61,195.09L617.07,197.57L617.19,196.37L617.3,193.59L617.42,194.77L617.54,191.5L617.65,168.28L618.46,195.05L618.57,196.39L618.69,197.03L618.8,196.67L618.92,193.31L619.04,189.66L619.5,195.32L619.61,194.66L619.73,192.98L620.19,197.49L620.65,195.49L620.77,195.82L620.88,196.75L621.11,192.33L621.46,196.14L621.57,195.33L621.69,187.28L622.27,192.69L622.38,191.91L622.61,192.91L622.84,189.57L622.96,187.66L623.07,186.9L623.19,175.41L623.42,172.13L623.65,182.14L623.77,183.41L623.88,180.17L624.34,187.71L624.46,186.49L624.8,182.83L625.04,186.38L625.15,189.3L625.5,192.02L625.84,188.63L625.96,176.39L626.88,192.56L627,194.05L627.23,190.77L627.34,181.87L627.46,182.7L627.57,180.67L627.69,175.13L628.5,190.93L628.61,187.77L628.73,178.33L629.07,191.49L629.19,191.42L629.3,192.96L629.42,193.5L629.54,192.62L629.65,188.82L630.23,196.06L630.34,192.47L630.46,177.02L631.04,201.7L631.38,201.09L631.5,191.49L631.73,202.26L632.19,168.3L632.42,175.96L632.54,178.37L632.65,181.83L632.77,181.58L632.88,142.13L634.15,189.42L634.27,171.68L634.84,193.82L634.96,180.18L635.07,171.61L635.19,191.69L635.65,164.49L635.77,167.68L635.88,178.27L636,178.97L636.11,184.83L636.23,187.93L636.34,183.72L636.46,173.35L636.69,169.22L637.04,176.84L637.15,188.73L637.27,190.6L637.38,181.51L637.5,163.43L638.07,192.66L638.3,189.72L638.42,167.32L639,186.56L639.23,177.89L639.34,162.23L640.15,185.85L640.38,180.15L640.5,173.26L640.96,188.84L641.3,187.23L641.42,183.14L641.54,180.99L641.65,184.26L642.11,183.69L642.23,184.38L643.5,104.32L643.73,109.53L643.84,67.33L643.96,11L644.42,83.81L644.54,72.63L644.65,52.89L644.88,91.81L645.34,61.26L645.46,58.6L645.57,35.04L645.92,90.85L646.04,64.71L646.15,72.86L646.27,55.55L646.61,105.1L646.73,100.5L646.96,116.42L647.07,114.15L647.19,66.68L648,130.81L648.11,121.22L648.23,122.73L648.8,120.23L649.04,139.94L649.15,132.18L649.27,131.63L650.54,157.39L650.65,153.27L650.77,160.86L650.88,152.19L651.46,157.3L651.57,150.55L651.69,154.23L651.8,142.62L652.15,149.23L652.27,147.03L652.5,149.15L652.96,131.98L653.07,145.48L653.54,152.65L654,152L654.11,148L654.23,149.04L654.34,143.38L654.69,141.89L655.04,149.81L655.15,155.85L655.5,147.56L655.96,147.95L656.07,128.15L656.3,148.65L656.77,123.66L656.88,129.58L657.11,124.49L657.69,148.42L657.8,135.99L658.96,161.96L659.07,160.89L659.19,148.72L659.88,170.57L660.11,169.57L660.23,170.79L660.34,171.27L660.46,168.02L660.57,142.25L661.15,164.84L661.27,155.52L661.73,174.31L661.96,154.94L662.07,167.33L662.19,179.17L662.54,169.64L662.65,169.91L662.77,179.14L662.88,178.52L663,165.58L664.04,197.75L664.38,197.52L664.5,198.06L664.61,196.51L664.73,181.34L665.07,195.96L665.19,172.23L665.3,162.46L665.42,112.47L666,154.46L666.11,152.84L666.23,96.36L666.8,151.19L666.92,168.46L667.04,173.43L667.15,157.32L667.38,168.04L667.5,160.14L668.07,183.62L668.19,158.33L668.3,153.68L669.34,186.85L669.46,183.94L669.57,183.79L669.69,166.36L670.15,166.99L670.27,157.83L670.38,170.53L670.5,169.24L670.61,184.64L670.96,171.98L671.19,186.69L671.3,188.81L671.42,191.39L671.54,187.04L671.65,159.81L671.77,149.62L672.11,172.84L672.23,164.91L672.34,165.49L672.46,168.87L672.57,160.51L672.69,146.29L672.92,180.46L673.5,172.04L673.61,168.17L673.73,168.32L673.84,183.76L674.07,192.59L674.54,180.94L674.65,183.42L674.88,184.16L675.69,175.41L675.8,170.02L675.92,174.99L676.27,165.56L676.38,166.67L676.5,159.27L676.61,160.08L676.73,153.49L677.3,145.59L677.42,140.48L677.65,143.86L678.57,120.66L678.8,126.51L678.92,137.23L679.04,138.33L679.15,135.65L679.27,122.32L679.84,142.5L680.19,136.46L680.3,136.51L680.42,137.34L680.54,134.93L680.65,135.43L680.77,133.14L680.88,135.37L681.46,132.03L681.57,132.38L681.69,136.7L682.04,127.16L682.15,131.81L682.27,129.17L682.5,130.34L682.61,129.2L683.65,151.95L683.77,143.14L683.88,149.25L684.23,134.92L684.57,147.74L684.69,149.71L684.92,149.07L685.04,151.63L685.15,137L685.73,151.13L686.07,146.81L686.19,134.29L686.88,159.17L687.11,159.15L687.23,156.38L687.34,160.56L687.57,146.71L687.8,155.78L687.92,152.38L689.19,170.5L689.3,142.15L689.42,152.44L689.65,116.24L689.88,138.62L690,129.03L691.61,158.4L691.73,146.84L692.3,177.49L692.54,173.84L692.65,175.35L692.88,171.75L693,181.6L693.23,176.99L693.34,177.38L693.57,181.55L693.69,185.12L693.8,148.21L694.38,176.44L694.5,167.19L695.07,183.03L695.19,159.53L696,190.83L696.11,187.7L696.23,150.7L697.04,196.21L697.15,199.77L697.73,196.9L697.84,200.34L698.3,172.77L698.42,195.96L698.54,202.49L698.65,156.45L699.11,166.12L699.46,112.55L699.57,118.36L700.61,174.07L700.73,149.11L701.3,184.78L701.65,172.25L701.77,175.08L701.88,172.37L702,184.19L702.11,161L702.69,187.21L702.92,176.48L703.04,171.8L703.15,166.76L703.38,176.9L703.61,173.29L703.73,178.13L703.84,161.19L704.3,187.52L704.42,189.98L704.54,189.61L704.65,191.07L704.77,195.03L705.57,146.14L705.69,152.39L705.92,143.6L706.5,183.46L706.61,175.91L706.73,172.57L706.96,163.88L708,187.24L708.11,183.56L708.23,188.15L708.46,180.55L708.92,186.39L709.03,173.55L709.27,175.82L709.38,167.28L709.5,170.36L709.61,167.5L709.73,154.17L709.96,155.5L710.07,151.82L710.19,140.17L710.3,150.74L710.65,135.62L710.88,136.8L711,144.97L711.8,127.81L711.92,136.87L712.27,145.1L712.5,125.97L712.73,127.98L712.84,126.89L713.07,132.94L713.19,124.56L713.53,143.82L713.88,134.65L714,127.34L714.46,136.21L714.57,125.35L714.92,135.25L715.03,128.6L715.38,133.17L715.73,122.37L715.84,126.64L715.96,126.28L716.07,134.65L716.19,134.1L716.3,134.74L716.42,142.81L716.53,145.78L716.65,125.75L717.57,167.57L717.92,165.92L718.03,155.15L718.15,156.98L718.38,152.45L718.5,154.12L718.61,149.88L719.3,157.9L719.42,144.29L720.23,160.93L720.34,160.28L720.46,163.3L720.69,161.82L720.8,156.1L721.15,150.31L721.27,157.69L721.5,150.34L721.61,159.55L721.73,161.67L721.84,156L722.07,158.01L722.19,150.07L722.42,164.94L722.53,146.49L722.77,159.95L722.88,146.55L723.23,104.29L723.57,124.89L723.69,135.53L724.15,157.97L724.61,153.1L724.73,154.94L725.42,178.12L725.53,177.27L725.65,160.23L726.46,176.96L726.57,170.99L726.92,182.99L727.03,152.4L727.27,171.52L727.38,173.21L727.5,173.62L727.61,179.72L728.42,158.02L728.53,168.34L729.11,168.14L729.23,183.52L729.34,183.04L729.46,152.09L730.27,192.41L730.38,196.57L730.84,196.47L731.07,199.42L731.3,199.39L731.42,186.96L731.77,190.08L732,121.57L732.23,147.21L732.34,154.41L732.46,154.84L732.57,150.58L732.92,121L733.03,112.67L734.53,174.3L734.65,167.82L734.77,153.76L735.23,182.07L735.46,160.46L735.57,176.55L736.27,188.54L736.38,172.48L736.5,182.79L736.73,158.19L736.96,163.41L737.07,155.45L737.77,195.62L738,193.7L738.11,159.05L738.69,185.92L738.8,142.76L738.92,155.97L739.38,152.01L739.5,134.04L740.53,186.89L740.65,183.45L741.11,167.81L741.34,174.83L741.46,179.62L741.57,168.42L742.27,168.67L742.38,172.63L742.5,174.41L742.73,167.83L742.84,165.85L743.65,125.77L743.77,132.61L743.88,135.53L744.34,124.03L744.69,129.35L744.8,129.3L744.92,129.01L745.03,111.54L745.61,132.69L745.73,119.57L745.84,112L745.96,107.98L746.07,124.09L746.19,126.99L746.3,128.34L746.42,117.5L747.23,140.26L747.34,138.2L747.46,138.34L747.57,138.11L747.69,142.34L748.5,124.66L748.61,130.61L749.19,129.79L749.42,144.14L749.53,138.36L749.77,148.24L749.88,123.81L750.8,163.56L751.03,162.51L751.15,163.95L751.38,146.2L751.96,148.63L752.07,152.02L752.53,154.2L752.65,141.05L752.77,147.87L752.88,151.73L753.11,149.28L753.23,157.19L753.34,145.48L753.57,157.93L754.03,145.42L754.15,152.39L754.27,151.42L754.73,150.77L754.84,165.3L755.07,162.19L755.19,153.81L755.65,168.75L755.77,146.22L755.88,148.31L756,156.78L756.23,133.23L756.34,145.66L756.46,133.58L757.38,153.52L757.5,142.72L757.84,141.17L758.42,171.48L758.65,168.24L758.77,160.18L758.88,139.55L759.46,159.2L759.57,161L759.8,160.22L759.92,156.51L760.03,165.22L760.27,134.38L760.61,151.91L760.73,157.83L760.84,158.16L760.96,151.83L761.53,179.86L761.77,170.41L761.88,177.88L762,178.49L762.23,176.64L762.34,171.37L762.69,152.11L763.27,193.71L763.38,190.45L763.73,198.1L764.3,196.41L764.42,179.79L764.77,172.09L765,201.58L765.11,122.27L765.69,172.14L765.8,145.99L765.92,131.52L766.03,125.86L766.38,141.89L766.5,136.73L766.61,139.74L766.73,140.5L766.84,148.25L767.77,184.53L767.88,163.41L768.23,181.23L768.34,188.77L768.46,192.63L768.57,164.62L769.15,189.41L769.27,180.46L769.38,172.74L769.5,171.9L769.61,162.89L770.3,159.91L770.53,188.3L770.65,173.58L771.23,193.07L771.34,159.09L771.46,159.18L771.57,172.58L772.38,149.54L772.5,151.65L772.61,163.56L772.73,154.73L773.19,172.78L773.3,178.6L773.42,173.48L773.65,188.65L773.77,188.62L773.88,188.34L774,190.75L774.11,183.88L774.23,184.63L774.34,181.53L775.38,189.11L775.5,173.35L775.61,178.32L776.07,168.71L776.19,160.34L776.3,161.1L776.42,156.57L777.57,138.35L777.69,139.6L777.8,144.76L778.27,126.99L778.61,132.94L778.73,141.86L778.84,143.26L778.96,122.99L779.19,121.1L779.3,124.51L779.42,129.75L779.65,123.03L780.23,138.36L780.34,128.61L780.69,127.1L780.92,132.12L781.03,121.56L781.5,119.91L782.19,138.14L782.3,130.35L783.69,172.95L783.8,161.18L784.03,174.39L784.5,162.08L784.61,160.97L784.73,161.46L784.84,157.25L785.07,155.74L785.19,157.96L785.3,155.71L785.42,155.43L785.53,151.45L785.65,150.88L785.77,159.17L785.88,147.38L786.46,163.3L786.57,157.74L786.92,162.79L787.15,160.04L787.27,153.49L787.61,152.39L788.19,167.77L788.3,165.83L788.42,162.84L788.77,171.75L788.88,172.48L789.69,138.48L789.8,146.4L790.03,144.83L790.61,163.55L790.73,151.46L790.84,148.42L790.96,160.76L791.07,164.13L791.3,151.13L791.42,169.34L791.88,185.22L792.23,176.66L792.34,178.45L792.46,173.58L792.69,181.4L793.03,176.04L793.15,181.64L793.38,183.77L793.5,154.9L794.53,185.18L794.65,186.72L794.77,187.57L794.88,146.3L795.69,186.55L795.8,185.07L795.92,177.27L796.27,176.95L796.84,198.48L796.96,198.31L797.07,196.63L797.3,196.32L797.53,199.35L797.65,186.55L797.77,199.6L798,161.99L798.23,189.57L798.34,142.99L798.46,138.8L798.57,160.54L798.69,159.92L798.8,171.89L799.15,129.02L799.27,115.37L800.3,183.28L800.42,166.13L800.65,174.98L800.88,170.16L801,188.89L801.34,189.65L801.46,182.17L801.57,188.77L801.69,192.77L801.8,180.55L802.38,195.16L802.5,191.19L803.19,167.88L803.3,174.2L803.42,183.67L803.53,172.72L804,198.3L804.11,195.17L804.34,199.05L804.46,197.68L804.57,186.18L804.8,201.04L805.03,189.35L805.15,179.68L805.27,169.38L805.5,180.71L805.73,180.37L805.84,191.01L805.96,176.79L806.42,189.93L806.53,200.16L806.77,200.91L807.23,198.48L807.34,200.5L807.8,204.4L808.15,202.17L808.27,191.46L808.38,186.29L808.84,195.14L808.96,194.57L809.07,194.39L809.19,197.06L809.88,193.44L810,193.76L810.11,192.06L810.69,192.23L810.8,189.77L810.92,190.32L811.03,190.66L811.38,190.75L811.84,183.73L811.96,184.82L812.07,187.46L812.88,179.02L813,183.8L813.11,184.98L813.46,177.13L813.57,183.33L813.69,185.43L814.27,168.9L814.73,170.02L814.84,171.47L814.96,164.53L815.3,178.24L815.42,185.56L815.88,188.74L816.23,188.59L816.34,183.09L816.92,191.37L817.03,182.32L817.15,178.7L817.96,190.45L818.07,190.39L818.19,189.15L818.3,190.86L818.42,185.12L819,190.53L819.11,187.69L819.34,191.28L819.92,190.99L820.03,190.73L820.15,191.96L820.38,191.24L820.5,185.02L820.73,188.79L821.07,187.71L821.19,182.9L822.11,188.41L822.23,184.4L822.46,186.42L822.57,169.02L822.69,164.55L823.03,172.3L823.15,178.27L823.27,165.96L823.61,182.66L823.73,182.18L823.84,185.91L823.96,180.63L824.19,185.92L824.53,182.66L824.65,187.57L824.77,192.57L825.34,185.47L825.46,186.52L825.57,183.87L825.92,190.37L826.03,191.24L826.27,195.59L826.61,194.58L826.73,175.68L826.96,175.62L827.53,188.39L827.65,184.27L827.77,196.21L828.11,180.65L828.46,193.13L828.57,195.17L829.03,199.94L829.15,193.31L829.5,188.2L830.07,201.83L830.19,201.09L830.42,200.31L830.53,188.19L831.46,203.35L831.57,186.9L832.61,204.02L832.73,204.88L832.84,205.16L832.96,202.15L833.53,206.09L833.65,202.96L833.77,200.77L834,199.61L834.11,195.11L834.46,182.39L834.57,191.76L834.69,201.37L835.38,205.38L835.61,204.47L835.73,205.31L835.96,205.68L836.07,203.58L836.65,206.07L836.88,204.41L837,204.33L837.57,206.27L837.69,197.55L838.15,160.52L838.27,181.08L838.38,182.51L838.5,170.4L838.73,177.74L838.96,163.44L839.07,156.06L839.19,155.49L839.3,162.13L839.53,159.44L839.65,165.97L839.77,171.46L840.23,173.32L840.57,159.95L841.03,162.27L841.15,164.09L841.27,166.3L841.38,153.66L842.19,168.31L842.3,168.6L842.42,169.33L842.53,175.77L843.46,195.49L843.92,194.54L844.03,192.64L844.38,192.55L844.61,193.33L844.73,180.87L844.84,187.36L845.53,184.72L845.65,183.41L846.11,161.5L846.46,174.93L846.57,175.13L846.8,174L847.03,182.72L847.15,189.35L847.5,188.46L847.61,189.47L847.73,189.03L847.84,170.37L848.53,192.42L848.65,188.84L848.77,163.82L848.88,164.72L849,174.53L849.11,174.41L849.23,193.48L849.34,195.29L849.57,192.33L849.8,193.39L849.92,190.69L850.15,195.84L850.27,182.82L850.38,187.2L850.5,168.56L851.3,193.7L851.42,194.12L851.65,190.68L852,194.17L852.11,193.54L852.23,194.41L852.34,193.43L852.69,195.57L852.8,196.32L853.03,194.5L853.61,194.69L853.73,194.73L854.07,195.15L854.19,195.09L854.3,191.94L854.42,180.64L855,189.82L855.11,189.43L855.23,191.05L855.69,187.38L855.8,166.47L856.03,160L856.15,165.62L856.27,178.01L856.5,175.33L856.84,185.61L856.96,173.49L858,190.23L858.11,190.78L858.23,191.05L858.34,190.59L858.46,189.26L858.57,175.46L859.15,182.96L859.27,184.57L859.38,183.62L859.5,189.36L859.61,193.74L860.07,184.25L860.3,193.23L860.42,193.52L860.53,192.9L860.65,186.68L861.57,196.63L861.69,197.47L861.92,199.09L862.03,195.61L862.15,198.8L862.27,193.8L862.38,189.93L862.84,196.88L862.96,199.95L863.07,199.18L863.3,201.99L863.53,200.18L863.65,200.56L863.76,199.75L864,200.94L864.11,190.87L864.34,197.98L864.92,172.17L865.03,175.64L865.15,165.39L865.26,184.09L865.5,142.24L865.96,176.69L866.07,189.7L867,168L867.11,172.7L867.23,176.95L867.69,169L868.03,195.2L868.15,195.02L868.26,160.53L868.84,194.41L869.07,175.63L869.19,168.17L869.3,155.39L869.76,185.18L869.88,188.54L870,191.35L870.11,171.23L870.23,172.43L870.34,167.4L870.46,180.19L870.92,198.45L871.03,168.94L871.15,169.92L871.26,181.64L871.5,179.44L871.61,183.48L871.73,162.05L872.07,158.82L872.65,184.47L872.76,183.38L872.88,177.8L873.11,173.58L873.57,192.44L873.92,188.19L874.03,188.27L874.38,191.95L874.5,186.94L874.73,188.84L874.84,184.61L874.96,185.68L875.07,182.46L875.19,171.32L875.3,175.59L875.65,170.97L875.76,159.8L877.03,119.08L877.15,119.27L877.26,101.24L877.84,121.34L877.96,105.17L878.07,111.85L878.53,116.21L878.65,101.92L878.76,113.24L879.11,125.98L879.23,125.24L879.34,103.31L880.15,138.63L880.26,136.35L880.38,135.3L880.61,137.64L880.73,120.99L881.65,146.49L881.76,142.25L881.88,140.52L882.11,146.29L882.23,146.96L882.46,143.9L882.57,149.75L883.38,166.29L883.5,154.04L883.73,164.28L884.19,155.36L884.3,157.09L885,145.72L885.11,147.49L885.23,153.2L885.57,132.02L885.8,154.08L885.92,152.32L886.03,155.85L886.26,152.4L886.38,157.22L886.5,155.66L886.61,159.02L886.96,142.23L887.3,148.38L887.42,151.82L887.65,147.58L888.23,167.33L888.57,166.27L888.69,152.71L888.92,161.55L889.03,141.54L889.15,132.23L889.38,122.78L890.19,161.4L890.3,156.74L890.42,147.88L890.88,146.85L891.46,175.55L891.57,181.05L891.8,161.36L891.92,172.71L892.03,175.81L892.26,168.73L892.61,181.13L892.73,173.92L892.84,183.11L892.96,185.19L893.07,184.02L893.19,152.28L893.3,153.67L893.42,167.96L893.53,159.68L893.76,179.9L894,174.59L894.11,172.5L894.23,172.67L894.34,181.14L894.46,180.33L894.57,159.51L895.38,189.09L895.5,186.96L895.61,179.9L895.96,160.41L896.53,197.1L896.65,198.12L897.23,200.81L897.34,188.61L897.46,200.52L897.8,188.72L897.92,163.99L898.15,127.38L898.73,145.78L898.84,131.29L899.07,122.17L899.19,152.34L899.53,164.03L899.76,147.29L899.88,160.93L900.23,146.27L900.57,179.03L900.69,176.27L900.8,173.6L900.92,151.78L901.38,192.02L901.5,165.69L901.61,166.51L902.07,181.9L902.3,169.67L902.42,169.86L902.53,157.1L903.11,172.72L903.23,173.01L903.57,172.01L904.15,190.54L904.26,159.25L904.38,158.9L904.5,170.38L904.61,174.47L904.73,164.16L904.84,167.06L904.96,131.02L905.76,171.61L905.88,168.71L906,147.97L906.69,185.95L906.92,184.81L907.03,176.03L907.15,174.37L907.38,178.98L907.5,178.62L907.61,181.45L908.07,182.46L908.42,165.91L908.53,174.04L908.65,174.27L909.8,142.06L909.92,142.22L910.5,120.4L910.73,133.83L910.84,131.82L911.19,107.59L911.65,125.52L911.76,123.88L911.88,115.14L912,128.03L912.34,126.42L912.46,135.34L912.57,114.28L913.15,136.9L913.26,128.89L913.84,142.04L914.07,132.58L914.19,130.31L914.3,127.53L914.53,139.07L914.65,132.65L914.76,142.91L914.88,144.23L915.11,138.71L915.23,143.61L915.34,137.65L915.92,157.26L916.15,151.55L916.26,149.1L916.61,162.14L916.84,155.61L916.96,142.05L917.3,143.55L917.42,139.93L917.53,141.86L917.65,136.18L918,138.2L918.11,131.94L918.34,128.5L918.69,143.04L918.8,122.91L919.15,145.78L919.61,138.06L919.73,139.8L920.76,157.17L920.88,153.35L921.69,167.86L921.8,164.39L921.92,147.69L922.15,154.82L922.26,133.06L922.5,150.88L922.61,134.98L923.53,154.44L923.65,143.04L924.8,177.33L924.92,172.04L925.03,156.92L925.84,172.03L925.96,166.82L926.07,166.46L926.19,170.41L926.76,137.72L926.88,156.65L927.69,177.16L927.8,162.52L928.61,189.18L928.73,187.54L928.84,173.55L928.96,165.4L929.3,185.35L929.42,182.76L929.53,186.64L930.11,195.02L930.34,194.54L930.46,195.4L931.15,201.06L931.38,129.97L931.5,159L931.73,173.29L931.96,149.98L932.07,100.75L933.23,178.48L933.46,173.3L933.57,171.53L934.15,168.03L934.61,193.8L934.73,167.68L935.3,191.45L935.53,175.3L935.65,175.9L936.46,158.22L936.57,183.19L936.8,178.5L937.15,193.83L937.26,183.58L937.38,170.77L937.5,143.78L938.07,180.5L938.19,168.71L938.3,165.62L938.42,174.67L938.53,167.04L938.65,177.31L938.88,165.86L939.11,188.11L939.23,180.88L939.34,170.86L939.92,191.87L940.15,190.13L940.26,180.83L940.84,187.42L940.96,184.06L941.07,180.76L941.42,184.63L941.53,186.69L941.65,176.27L941.88,178.93" style="vector-effect: none; fill: none; stroke: rgb(99, 110, 250); stroke-opacity: 1; stroke-width: 2px; opacity: 1;"/></g><g class="points"/><g class="text"/></g></g></g><g class="overplot"><g class="xy2" transform="translate(80,100)" clip-path="url(#clip577fffxy2plot)"><g class="scatterlayer mlayer"><g class="trace scatter trace311261" style="stroke-miterlimit: 2; opacity: 1;"><g class="fills"/><g class="errorbars"/><g class="lines"><path class="js-line" d="M0,209L63,209L63.12,11L63.92,209L64.04,209L148.15,209L148.27,11L149.08,209L149.19,209L180,209L180.11,11L180.92,209L181.04,209L182.77,209L182.88,11L183.81,209L183.92,209L643.73,209L643.84,11L644.77,11L644.88,209L645.69,11L645.8,11L646.61,209L646.73,209L647.07,209L647.19,11L648,209L648.11,209L941.88,209" style="vector-effect: none; fill: none; stroke: rgb(239, 85, 59); stroke-opacity: 1; stroke-width: 2px; opacity: 1;"/></g><g class="points"/><g class="text"/></g></g></g></g><path class="xlines-above crisp" d="M0,0" style="fill: none;"/><path class="ylines-above crisp" d="M0,0" style="fill: none;"/><g class="overlines-above"><path class="xy2-x crisp" d="M0,0" style="fill: none;"/><path class="xy2-y crisp" d="M0,0" style="fill: none;"/></g><g class="xaxislayer-above"><g class="xtick"><text text-anchor="middle" x="0" y="333" transform="translate(146.57999999999998,0)" style="font-family: 'Open Sans', verdana, arial, sans-serif; font-size: 12px; fill: rgb(42, 63, 95); fill-opacity: 1; white-space: pre; opacity: 1;"><tspan class="line" dy="0em" x="0" y="333">Jan 21</tspan><tspan class="line" dy="1.3em" x="0" y="333">2022</tspan></text></g><g class="xtick"><text text-anchor="middle" x="0" y="333" style="font-family: 'Open Sans', verdana, arial, sans-serif; font-size: 12px; fill: rgb(42, 63, 95); fill-opacity: 1; white-space: pre; opacity: 1;" transform="translate(246.27,0)">Jan 24</text></g><g class="xtick"><text text-anchor="middle" x="0" y="333" style="font-family: 'Open Sans', verdana, arial, sans-serif; font-size: 12px; fill: rgb(42, 63, 95); fill-opacity: 1; white-space: pre; opacity: 1;" transform="translate(345.96,0)">Jan 27</text></g><g class="xtick"><text text-anchor="middle" x="0" y="333" style="font-family: 'Open Sans', verdana, arial, sans-serif; font-size: 12px; fill: rgb(42, 63, 95); fill-opacity: 1; white-space: pre; opacity: 1;" transform="translate(445.65,0)">Jan 30</text></g><g class="xtick"><text text-anchor="middle" x="0" y="333" style="font-family: 'Open Sans', verdana, arial, sans-serif; font-size: 12px; fill: rgb(42, 63, 95); fill-opacity: 1; white-space: pre; opacity: 1;" transform="translate(545.3399999999999,0)">Feb 2</text></g><g class="xtick"><text text-anchor="middle" x="0" y="333" style="font-family: 'Open Sans', verdana, arial, sans-serif; font-size: 12px; fill: rgb(42, 63, 95); fill-opacity: 1; white-space: pre; opacity: 1;" transform="translate(645.04,0)">Feb 5</text></g><g class="xtick"><text text-anchor="middle" x="0" y="333" style="font-family: 'Open Sans', verdana, arial, sans-serif; font-size: 12px; fill: rgb(42, 63, 95); fill-opacity: 1; white-space: pre; opacity: 1;" transform="translate(744.73,0)">Feb 8</text></g><g class="xtick"><text text-anchor="middle" x="0" y="333" style="font-family: 'Open Sans', verdana, arial, sans-serif; font-size: 12px; fill: rgb(42, 63, 95); fill-opacity: 1; white-space: pre; opacity: 1;" transform="translate(844.42,0)">Feb 11</text></g><g class="xtick"><text text-anchor="middle" x="0" y="333" style="font-family: 'Open Sans', verdana, arial, sans-serif; font-size: 12px; fill: rgb(42, 63, 95); fill-opacity: 1; white-space: pre; opacity: 1;" transform="translate(944.11,0)">Feb 14</text></g></g><g class="yaxislayer-above"><g class="ytick"><text text-anchor="end" x="79" y="4.199999999999999" transform="translate(0,309.65)" style="font-family: 'Open Sans', verdana, arial, sans-serif; font-size: 12px; fill: rgb(42, 63, 95); fill-opacity: 1; white-space: pre; opacity: 1;">0</text></g><g class="ytick"><text text-anchor="end" x="79" y="4.199999999999999" style="font-family: 'Open Sans', verdana, arial, sans-serif; font-size: 12px; fill: rgb(42, 63, 95); fill-opacity: 1; white-space: pre; opacity: 1;" transform="translate(0,228.84)">5k</text></g><g class="ytick"><text text-anchor="end" x="79" y="4.199999999999999" style="font-family: 'Open Sans', verdana, arial, sans-serif; font-size: 12px; fill: rgb(42, 63, 95); fill-opacity: 1; white-space: pre; opacity: 1;" transform="translate(0,148.04)">10k</text></g></g><g class="overaxes-above"><g class="xy2-x"/><g class="xy2-y"><g class="y2tick"><text text-anchor="start" x="1022.88" y="4.199999999999999" transform="translate(0,309)" style="font-family: 'Open Sans', verdana, arial, sans-serif; font-size: 12px; fill: rgb(42, 63, 95); fill-opacity: 1; white-space: pre; opacity: 1;">0</text></g><g class="y2tick"><text text-anchor="start" x="1022.88" y="4.199999999999999" style="font-family: 'Open Sans', verdana, arial, sans-serif; font-size: 12px; fill: rgb(42, 63, 95); fill-opacity: 1; white-space: pre; opacity: 1;" transform="translate(0,269.4)">0.2</text></g><g class="y2tick"><text text-anchor="start" x="1022.88" y="4.199999999999999" style="font-family: 'Open Sans', verdana, arial, sans-serif; font-size: 12px; fill: rgb(42, 63, 95); fill-opacity: 1; white-space: pre; opacity: 1;" transform="translate(0,229.8)">0.4</text></g><g class="y2tick"><text text-anchor="start" x="1022.88" y="4.199999999999999" style="font-family: 'Open Sans', verdana, arial, sans-serif; font-size: 12px; fill: rgb(42, 63, 95); fill-opacity: 1; white-space: pre; opacity: 1;" transform="translate(0,190.2)">0.6</text></g><g class="y2tick"><text text-anchor="start" x="1022.88" y="4.199999999999999" style="font-family: 'Open Sans', verdana, arial, sans-serif; font-size: 12px; fill: rgb(42, 63, 95); fill-opacity: 1; white-space: pre; opacity: 1;" transform="translate(0,150.6)">0.8</text></g><g class="y2tick"><text text-anchor="start" x="1022.88" y="4.199999999999999" style="font-family: 'Open Sans', verdana, arial, sans-serif; font-size: 12px; fill: rgb(42, 63, 95); fill-opacity: 1; white-space: pre; opacity: 1;" transform="translate(0,111)">1</text></g></g></g></g><g class="subplot xy2"/></g><g class="polarlayer"/><g class="smithlayer"/><g class="ternarylayer"/><g class="geolayer"/><g class="funnelarealayer"/><g class="pielayer"/><g class="iciclelayer"/><g class="treemaplayer"/><g class="sunburstlayer"/><g class="glimages"/><defs id="topdefs-577fff"><g class="clips"/><clipPath id="legend577fff"><rect width="86" height="48" x="0" y="0"/></clipPath></defs><g class="layer-above"><g class="imagelayer"/><g class="shapelayer"/></g><g class="infolayer"><g class="legend" pointer-events="all" transform="translate(1102.04,100)"><rect class="bg" shape-rendering="crispEdges" width="86" height="48" x="0" y="0" style="stroke: rgb(68, 68, 68); stroke-opacity: 1; fill: rgb(255, 255, 255); fill-opacity: 1; stroke-width: 0px;"/><g class="scrollbox" transform="" clip-path="url(#legend577fff)"><g class="groups"><g class="traces" transform="translate(0,14.5)" style="opacity: 1;"><text class="legendtext" text-anchor="start" x="40" y="4.680000000000001" style="font-family: 'Open Sans', verdana, arial, sans-serif; font-size: 12px; fill: rgb(42, 63, 95); fill-opacity: 1; white-space: pre;">y_pred</text><g class="layers" style="opacity: 1;"><g class="legendfill"/><g class="legendlines"><path class="js-line" d="M5,0h30" style="fill: none; stroke: rgb(99, 110, 250); stroke-opacity: 1; stroke-width: 2px;"/></g><g class="legendsymbols"><g class="legendpoints"/></g></g><rect class="legendtoggle" x="0" y="-9.5" width="80.390625" height="19" style="fill: rgb(0, 0, 0); fill-opacity: 0;"/></g><g class="traces" transform="translate(0,33.5)" style="opacity: 1;"><text class="legendtext" text-anchor="start" x="40" y="4.680000000000001" style="font-family: 'Open Sans', verdana, arial, sans-serif; font-size: 12px; fill: rgb(42, 63, 95); fill-opacity: 1; white-space: pre;">labels</text><g class="layers" style="opacity: 1;"><g class="legendfill"/><g class="legendlines"><path class="js-line" d="M5,0h30" style="fill: none; stroke: rgb(239, 85, 59); stroke-opacity: 1; stroke-width: 2px;"/></g><g class="legendsymbols"><g class="legendpoints"/></g></g><rect class="legendtoggle" x="0" y="-9.5" width="80.390625" height="19" style="fill: rgb(0, 0, 0); fill-opacity: 0;"/></g></g></g><rect class="scrollbar" rx="20" ry="3" width="0" height="0" x="0" y="0" style="fill: rgb(128, 139, 164); fill-opacity: 1;"/></g><g class="g-gtitle"/><g class="g-xtitle"/><g class="g-ytitle"><text class="ytitle" transform="rotate(-90,32.48125,210)" x="32.48125" y="210" text-anchor="middle" style="font-family: 'Open Sans', verdana, arial, sans-serif; font-size: 14px; fill: rgb(42, 63, 95); opacity: 1; font-weight: normal; white-space: pre;">prediction score</text></g><g class="g-y2title"/></g></svg>