<svg class="main-svg" xmlns="http://www.w3.org/2000/svg" xmlns:xlink="http://www.w3.org/1999/xlink" width="1200" height="400" style="" viewBox="0 0 1200 400"><rect x="0" y="0" width="1200" height="400" style="fill: rgb(255, 255, 255); fill-opacity: 1;"/><defs id="defs-6d7e0c"><g class="clips"><clipPath id="clip6d7e0cxyplot" class="plotclip"><rect width="941.88" height="220"/></clipPath><clipPath id="clip6d7e0cxy2plot" class="plotclip"><rect width="941.88" height="220"/></clipPath><clipPath class="axesclip" id="clip6d7e0cx"><rect x="80" y="0" width="941.88" height="400"/></clipPath><clipPath class="axesclip" id="clip6d7e0cy"><rect x="0" y="100" width="1200" height="220"/></clipPath><clipPath class="axesclip" id="clip6d7e0cxy"><rect x="80" y="100" width="941.88" height="220"/></clipPath><clipPath class="axesclip" id="clip6d7e0cy2"><rect x="0" y="100" width="1200" height="220"/></clipPath><clipPath class="axesclip" id="clip6d7e0cxy2"><rect x="80" y="100" width="941.88" height="220"/></clipPath></g><g class="gradients"/><g class="patterns"/></defs><g class="bglayer"><rect class="bg" x="80" y="100" width="941.88" height="220" style="fill: rgb(229, 236, 246); fill-opacity: 1; stroke-width: 0;"/></g><g class="layer-below"><g class="imagelayer"/><g class="shapelayer"/></g><g class="cartesianlayer"><g class="subplot xy"><g class="layer-subplot"><g class="shapelayer"/><g class="imagelayer"/></g><g class="minor-gridlayer"><g class="x"/><g class="y"/><g class="y2"/></g><g class="gridlayer"><g class="x"><path class="xgrid crisp" transform="translate(166.74,0)" d="M0,100v220" style="stroke: rgb(255, 255, 255); stroke-opacity: 1; stroke-width: 1px;"/><path class="xgrid crisp" transform="translate(299.39,0)" d="M0,100v220" style="stroke: rgb(255, 255, 255); stroke-opacity: 1; stroke-width: 1px;"/><path class="xgrid crisp" transform="translate(432.03,0)" d="M0,100v220" style="stroke: rgb(255, 255, 255); stroke-opacity: 1; stroke-width: 1px;"/><path class="xgrid crisp" transform="translate(564.6800000000001,0)" d="M0,100v220" style="stroke: rgb(255, 255, 255); stroke-opacity: 1; stroke-width: 1px;"/><path class="xgrid crisp" transform="translate(697.33,0)" d="M0,100v220" style="stroke: rgb(255, 255, 255); stroke-opacity: 1; stroke-width: 1px;"/><path class="xgrid crisp" transform="translate(829.97,0)" d="M0,100v220" style="stroke: rgb(255, 255, 255); stroke-opacity: 1; stroke-width: 1px;"/><path class="xgrid crisp" transform="translate(962.62,0)" d="M0,100v220" style="stroke: rgb(255, 255, 255); stroke-opacity: 1; stroke-width: 1px;"/></g><g class="y"><path class="ygrid crisp" transform="translate(0,256.73)" d="M80,0h941.88" style="stroke: rgb(255, 255, 255); stroke-opacity: 1; stroke-width: 1px;"/><path class="ygrid crisp" transform="translate(0,201.05)" d="M80,0h941.88" style="stroke: rgb(255, 255, 255); stroke-opacity: 1; stroke-width: 1px;"/><path class="ygrid crisp" transform="translate(0,145.38)" d="M80,0h941.88" style="stroke: rgb(255, 255, 255); stroke-opacity: 1; stroke-width: 1px;"/></g><g class="y2"><path class="y2grid crisp" transform="translate(0,269.4)" d="M80,0h941.88" style="stroke: rgb(255, 255, 255); stroke-opacity: 1; stroke-width: 1px;"/><path class="y2grid crisp" transform="translate(0,229.8)" d="M80,0h941.88" style="stroke: rgb(255, 255, 255); stroke-opacity: 1; stroke-width: 1px;"/><path class="y2grid crisp" transform="translate(0,190.2)" d="M80,0h941.88" style="stroke: rgb(255, 255, 255); stroke-opacity: 1; stroke-width: 1px;"/><path class="y2grid crisp" transform="translate(0,150.6)" d="M80,0h941.88" style="stroke: rgb(255, 255, 255); stroke-opacity: 1; stroke-width: 1px;"/><path class="y2grid crisp" transform="translate(0,111)" d="M80,0h941.88" style="stroke: rgb(255, 255, 255); stroke-opacity: 1; stroke-width: 1px;"/></g></g><g class="zerolinelayer"><path class="yzl zl crisp" transform="translate(0,312.4)" d="M80,0h941.88" style="stroke: rgb(255, 255, 255); stroke-opacity: 1; stroke-width: 2px;"/><path class="y2zl zl crisp" transform="translate(0,309)" d="M80,0h941.88" style="stroke: rgb(255, 255, 255); stroke-opacity: 1; stroke-width: 2px;"/></g><path class="xlines-below"/><path class="ylines-below"/><g class="overlines-below"><path class="xy2-x"/><path class="xy2-y"/></g><g class="xaxislayer-below"/><g class="yaxislayer-below"/><g class="overaxes-below"><g class="xy2-x"/><g class="xy2-y"/></g><g class="plot" transform="translate(80,100)" clip-path="url(#clip6d7e0cxyplot)"><g class="scatterlayer mlayer"><g class="trace scatter trace709bb0" style="stroke-miterlimit: 2; opacity: 1;"><g class="fills"/><g class="errorbars"/><g class="lines"><path class="js-line" d="M0,127.5L1.23,148.23L1.38,141.9L2,129.24L2.3,132.41L2.46,137.84L2.92,116.07L3.38,128.34L3.53,131.95L4.45,145.15L4.61,147.24L6.14,164.25L6.29,164.75L7.06,170.5L7.68,169.87L7.83,168.82L8.6,166.18L8.75,167.73L8.9,168.52L9.06,166.83L9.21,164.74L9.37,166.9L9.83,163.24L9.98,164.94L10.13,166.6L10.44,165.03L10.59,162.73L11.36,154.28L11.51,156.46L11.67,157.58L12.28,154.83L12.44,155.4L12.59,157.26L16.12,204.05L16.27,204.57L17.04,205.53L17.19,205.07L17.35,204.98L19.65,204.24L19.8,204.78L20.57,205.4L20.73,204.98L20.88,204.26L22.11,205.7L22.26,205.6L22.41,205.39L22.57,205.88L22.72,206.46L23.34,206.24L23.49,205.26L24.87,197.2L25.02,196.98L25.33,198.16L25.49,199.52L26.87,206.37L27.02,204.75L28.4,201.05L28.56,200.25L28.71,199.55L28.86,200.71L29.17,200.34L29.32,200.38L30.86,199.77L31.01,198.9L32.09,194.63L32.24,193.58L32.39,192.87L32.55,187.94L33.01,185.98L33.32,186.51L33.47,181.28L34.24,165.71L34.39,169.96L34.54,171.09L34.85,170.52L35,168.61L35.16,167.77L35.31,172.25L35.46,172.83L35.62,172.46L35.77,183.06L36.39,177L36.85,177.9L37,178.33L37.92,181.61L38.07,180.93L38.23,179.55L39.92,172.32L40.07,173.36L40.53,176.18L40.68,174.3L42.07,150.05L42.22,145.46L43.75,107.98L44.06,112.59L44.22,114.99L45.6,139.16L45.75,133.21L46.21,116.83L46.67,120.76L46.83,122.71L47.29,119.93L47.44,120.39L47.59,123.98L48.67,145.66L48.82,148.26L49.44,155.07L49.74,152.95L49.9,153.69L50.05,153.56L50.2,155.55L50.66,156.09L50.82,157.94L51.89,163.33L52.05,162.9L52.2,161.19L53.12,166.96L53.27,166.93L53.43,162.01L53.58,164.3L53.89,160.4L54.19,163.16L54.35,164.32L55.12,149.42L55.42,153.92L55.58,159.11L56.5,162.53L56.65,163.4L59.26,195.33L59.41,197.41L60.8,206.86L60.95,206.9L62.18,205.28L62.33,205.2L63.41,206.67L63.56,207.11L64.02,208.16L64.48,207.58L64.63,207.25L65.4,207.03L65.56,206.91L66.63,205.57L66.78,205.56L68.17,200.87L68.32,199.4L69.24,193.6L69.7,194.79L69.85,195.72L71.7,204.71L71.85,204.8L72,204.9L72.31,204.23L72.46,204.08L72.92,202.88L73.23,203.71L73.39,203.83L74.46,203.62L74.61,203.36L76.61,195.63L76.76,193.94L77.84,183.39L77.99,181.4L78.3,180.91L79.07,184.05L79.22,183.02L79.37,181.88L79.83,185.31L80.14,183.09L80.29,180.61L80.45,180.48L80.6,175.62L80.75,175.43L80.91,173.64L81.37,172.61L81.52,174.87L81.83,175.51L81.98,177.97L82.29,177.38L82.44,181.71L82.75,179.35L82.9,177.45L83.83,168.88L83.98,169.28L84.13,159.15L84.29,158.16L84.59,160.7L84.75,162.28L85.05,164.16L85.21,162.77L85.36,160.41L87.97,104.78L88.12,106.93L88.28,107.15L88.43,111.63L89.2,135.33L89.35,142.08L89.66,147.12L89.81,145.13L89.97,142.56L90.12,142.53L90.27,138.79L91.35,123.48L91.5,123.54L92.88,146.54L93.04,136.91L94.11,151.8L94.26,151.59L94.42,152.75L94.73,154.01L94.88,166.34L95.19,167.56L95.34,167.42L95.49,166.05L96.57,159.78L96.72,161.08L96.87,163.63L97.03,163.46L97.18,164.35L97.34,167.28L98.56,157.28L98.72,155.82L99.18,150.14L99.33,151.75L99.48,158.19L100.41,166.02L100.56,164.42L100.71,166.37L101.17,164.42L101.48,166.13L101.63,167.92L105.01,204.65L105.17,204.91L105.32,204.7L105.63,205.25L105.78,205.53L106.24,205.75L106.39,205.09L106.55,204.51L107.93,202.27L108.08,202.4L108.24,203.64L108.54,204.84L108.85,204.57L109,203.21L110.08,204.68L110.23,204.59L110.38,204.32L110.69,203.4L110.85,205.14L111.46,206.43L111.61,206.36L111.77,205.89L112.69,199.88L112.84,198.89L113.46,194.02L113.92,195.22L114.07,196.14L115.3,203.73L115.6,203.3L115.76,202.8L116.99,201.11L117.29,201.41L117.45,201.73L118.37,203.99L118.52,203.44L118.68,203.17L119.29,201.49L119.44,200.35L120.06,199.43L120.21,198.91L120.36,199.26L120.52,198.26L120.67,196.18L120.98,194.67L121.59,195.07L121.75,194.52L122.21,191.65L122.36,183.61L123.13,186.39L123.28,184.2L124.05,177.29L124.2,182.05L124.82,172.13L125.28,172.55L125.43,172.76L125.58,172.7L125.74,173.72L126.04,177.76L126.2,180.5L127.73,172.74L127.89,170.94L128.04,169.91L128.19,170.25L128.35,160.34L128.5,160.33L128.65,161.71L129.12,164.24L129.27,162.94L129.42,161.27L130.04,154.88L130.19,161.94L132.03,120.58L132.49,122.06L132.65,124.61L133.87,156.87L134.18,149.66L134.33,149.63L135.72,123.38L135.87,129.46L136.94,136.62L137.1,139.54L138.94,152.84L139.09,154.11L139.4,156.1L139.71,154.46L139.86,152.63L140.32,153.08L140.78,149.62L140.94,151.33L142.32,162.03L142.47,163.76L142.63,162.8L142.78,155.96L144.93,123.83L145.08,125.19L146.46,143.69L146.62,145.55L147.54,150.15L147.69,149.23L148.46,152.79L148.61,153.79L149.38,161.46L149.53,163.34L151.38,185.36L151.68,183.93L151.84,182.61L153.99,171.87L154.14,171.86L156.6,162.64L156.75,162.46L157.82,166.63L157.98,165.85L160.28,162.08L160.43,162.28L160.59,162.16L161.66,160.27L161.82,160.18L162.28,159.23L162.43,160.4L162.58,161.42L164.12,169.54L164.27,171.26L165.35,179.74L165.5,182.13L165.65,183.33L166.11,181.21L166.27,180.66L166.42,179.95L166.58,169.09L167.34,165.53L167.5,162.5L168.26,157.96L168.42,166.77L170.26,148.37L170.41,147.27L171.49,134.93L171.64,134.41L171.95,136.75L172.1,132.95L172.26,132.23L173.48,138.6L173.64,137.63L173.79,137.64L173.94,139.04L174.41,138.22L174.87,138.52L175.02,138.9L176.71,127.9L176.86,128.85L177.32,127.58L177.48,131.85L178.09,129.2L178.24,126.08L178.86,122.98L179.01,124.68L179.16,125.38L179.47,123.28L179.63,115.97L179.78,115.81L179.93,105.91L181.16,74.21L181.31,76.06L182.08,116L182.7,112.45L182.85,109.94L183.31,108.09L183.46,108.76L183.62,109.93L184.54,119.54L184.69,123.21L186.38,153.46L186.53,155.77L186.69,156.45L186.84,150.78L186.99,142.05L187.45,151.56L187.61,150.66L188.22,156L188.53,155.85L188.68,162.31L188.84,172.74L189.3,161.73L189.45,159.76L189.76,157.02L189.91,154.95L190.99,149.95L191.29,151.54L191.45,151.62L191.6,151.64L191.75,149.93L192.37,141.61L192.67,144.34L192.83,146.89L193.44,150.32L193.6,153L195.13,174.99L195.28,176.37L195.44,176.73L195.59,167.62L196.21,170.48L196.36,170.16L196.51,169.21L197.13,168.66L197.28,169.21L197.43,177.83L198.05,173.14L198.51,174.35L198.66,175.08L198.97,174.14L199.12,174.28L199.28,176.76L200.5,185.15L200.66,184.89L203.58,156.38L203.73,155.7L204.65,153.26L204.8,153.38L204.96,153.19L205.57,151.86L205.88,152.12L206.03,152.78L206.18,152.31L206.34,152.72L206.49,154.41L207.41,158.54L207.57,158.16L208.03,161.41L208.18,163.41L208.95,169.66L209.1,171.84L210.18,175.68L210.33,174.74L210.64,172.13L210.79,161.27L212.17,154.43L212.33,153.66L212.48,153.6L212.63,162.74L213.55,160.09L213.71,159.42L216.78,146.57L216.93,147.7L217.55,150.91L217.7,146.47L219.23,124.61L219.39,125.88L219.54,129.26L219.7,133.45L220.31,132.39L220.46,133.06L221.84,154.67L222.31,154.45L222.46,151.07L223.53,139.2L223.69,138.27L225.07,158.49L225.22,156.43L225.38,153.29L226.14,149.79L226.3,151.47L227.83,168.34L228.14,165.56L228.29,161.07L229.37,153.6L229.52,153.43L229.83,153.78L229.98,152.29L230.13,155.54L230.29,156.8L230.6,154.09L230.75,153.45L230.9,153.14L231.06,150.56L231.36,148.06L231.67,148.45L231.82,150.58L232.13,147.16L232.59,148.55L232.74,149.77L235.2,178.64L235.35,180.98L237.2,206.38L237.35,206.3L238.12,201.84L238.27,200.06L239.96,183.51L240.11,184.39L240.27,186.05L240.73,185.74L240.88,187.44L241.04,189.35L241.8,195.71L242.11,195.01L242.26,195.35L243.49,201.74L243.65,204.09L244.11,207.05L244.57,205.86L244.72,205.01L246.26,199.15L246.41,199.58L246.56,200.11L248.71,205.44L248.87,205.55L249.63,205.33L249.79,205.25L250.86,205.41L251.01,204.94L253.01,194.23L253.16,191.56L253.32,191.37L253.62,192.05L253.78,193.32L254.55,192.05L254.85,192.3L255.01,183.31L255.31,184.1L255.62,182.62L255.77,182.16L256.69,176.79L256.85,185.65L258.08,176.86L258.23,176.07L259.46,177.28L259.61,176.91L259.77,176.23L260.07,176.9L260.23,176.09L260.38,175.32L261.3,169.36L261.45,170.12L261.61,171.77L261.91,171.25L262.07,170.2L262.99,160.01L263.14,157.54L264.83,106.87L265.29,112.33L265.45,115.81L267.13,157.34L267.29,157.33L267.6,156.11L267.75,159.14L267.9,161.41L268.36,157.32L268.52,164.45L268.82,165.91L269.13,163.24L269.28,163.94L270.82,142.34L271.13,143.04L271.28,145.2L272.82,164.17L272.97,164.75L273.12,163.81L273.43,164.97L273.58,165.83L273.89,167.57L274.04,171.59L274.81,176.38L275.12,175.15L275.27,170.7L276.35,155.6L276.5,155.66L276.65,155.2L276.81,156.63L276.96,157.67L278.19,173.83L278.34,174.77L281.57,207.24L281.72,207.44L282.03,207.01L282.18,205.71L283.56,198.69L284.02,199.59L284.18,200.3L285.4,205.89L285.56,205.59L285.86,205.37L286.02,204.61L286.79,204.68L286.94,204.62L287.71,205.59L287.86,206.75L288.47,205.81L288.63,205.24L290.93,197.76L291.08,198.2L292.93,205L293.08,204.96L293.23,204.85L295.23,204.68L295.38,203.93L297.07,198.59L297.23,198.68L297.38,196.92L297.84,191.52L298.3,193.83L298.45,194.63L298.61,195.2L298.91,193.56L299.07,192.54L299.84,196.9L299.99,193.99L301.98,176.59L302.14,176.93L302.29,177.12L302.45,176.12L302.6,176.49L302.75,175.79L303.21,181.76L303.67,180.04L303.83,180.25L304.9,176.4L305.06,176.49L305.36,171.78L305.82,174.92L305.98,174.04L309.05,117.76L309.35,119.36L309.51,122.7L309.66,121.17L309.81,123.19L309.97,130.2L310.74,148.74L310.89,143.25L311.04,139.27L311.35,137.11L311.66,141.12L311.81,136.86L311.96,137.94L312.12,133.41L312.42,114.4L313.04,119.69L313.19,121.05L313.35,122.25L313.65,120.9L313.96,121.3L314.11,119.85L316.57,162.2L316.72,161.97L317.64,155.66L317.8,156.75L317.95,159.83L318.72,164.77L318.87,168.87L320.56,159.29L320.72,156.83L321.33,163.72L321.79,162.31L321.94,161.23L322.25,160.01L322.4,161.83L322.56,163.47L325.63,204.48L325.78,205.2L326.7,206.59L326.86,206.6L327.47,205.84L327.62,205.26L329.01,203.87L329.16,204.42L330.23,206.37L330.39,206.39L331.31,205.67L331.46,205.51L332.23,205.13L332.38,205.54L332.54,205.57L333.3,203.71L333.46,202.77L334.53,195.58L334.99,196.08L335.15,196.41L336.22,201.43L336.37,202.17L337.14,200.85L337.3,201.01L337.6,201.21L337.76,200.86L337.91,200.52L338.22,200.46L338.37,202.13L339.29,203.94L339.6,203.27L339.75,203.18L341.44,198.05L341.59,198.16L343.28,182.25L343.44,172.2L343.74,171.67L343.9,175.38L344.2,180.03L344.51,177.17L344.67,176.06L345.43,186.76L345.74,184.24L345.89,184.39L346.2,183.75L346.51,184.56L346.66,185.16L347.58,187.47L347.74,186.86L349.73,168.09L350.04,170.89L350.19,172.26L350.35,172.25L350.5,168.01L351.11,159.32L351.27,156.65L352.49,134.64L352.65,129.53L353.26,117.42L353.57,120.34L353.72,123.91L353.88,125.54L354.03,116.53L354.95,143.68L355.26,136.19L355.41,132.91L355.72,126.01L355.87,135.22L356.33,130.89L356.49,122.9L356.79,117.57L356.95,127.7L357.1,129.79L358.64,156.48L358.79,153.95L358.94,153.48L359.25,151.4L359.56,152.68L359.71,155.02L360.94,160.29L361.09,160.11L361.25,160.4L361.4,159.16L361.55,157.73L361.71,157.67L361.86,158.88L363.4,169.9L363.7,167.92L363.86,167.51L365.24,156.95L365.39,159.01L365.85,158.92L366.01,159.83L366.31,161.64L366.47,163.32L369.69,204.66L369.84,204.96L370.3,205.42L370.46,204.96L370.61,203.9L374.3,205.05L374.45,203.87L375.52,205.28L375.68,205.02L376.14,205L376.29,206.6L378.9,199.18L379.21,199.68L379.36,199.92L381.05,203.83L381.2,203.95L382.43,203.19L382.59,204.26L382.74,204.06L383.05,204.45L383.2,204.92L383.66,204.57L383.81,203.43L385.35,197.29L385.66,198.2L385.81,198.69L385.96,198.94L386.12,198.53L386.27,195.2L386.73,194.29L387.04,195.02L387.19,191.76L387.5,189.89L387.65,179.06L388.88,173.78L389.03,176.65L389.34,174.59L389.49,183.15L390.42,179.01L390.57,179.17L390.72,179.08L390.88,177.41L391.03,176.77L391.18,177.47L391.34,179.29L391.8,181.86L392.26,180.52L392.41,179.55L392.57,179.39L392.72,180.84L392.87,181.51L393.03,180.22L393.18,179.32L393.33,180.1L393.49,178.8L393.64,176.03L393.95,173.47L394.41,175.54L394.56,174.22L395.79,150.06L395.94,144.88L396.71,124.63L396.86,119.03L397.32,109.14L397.63,113.01L397.79,115.11L399.17,157.44L399.32,152.94L399.47,144.89L399.63,146.23L399.93,142.59L400.09,139.85L400.55,125.66L400.7,119.94L401.01,110.37L401.32,122.43L401.47,124.43L401.78,124.57L401.93,127.35L402.08,126.44L402.24,128.93L402.39,135.1L405.61,173.91L405.77,172.63L405.92,173.1L406.23,172.19L406.38,172.92L406.54,174.75L406.84,178.08L407.15,173.83L407.3,174.37L409.15,152.76L409.3,155.4L409.45,157.45L414.37,206.77L414.52,206.23L414.83,205.55L414.98,204.63L416.21,202.1L416.36,202.2L416.82,203.05L416.98,203.87L417.59,203.86L417.74,204.61L418.36,205.49L418.51,204.67L419.43,203.91L419.59,204L420.66,205.71L420.97,205.39L421.12,204.92L421.27,205.22L421.58,204.4L421.74,203.72L423.27,200.64L423.42,200.55L423.73,201.2L424.19,200.54L424.34,200.66L425.57,201.73L425.73,201.9L426.49,201.3L426.65,200.96L427.72,203.69L427.88,203.71L428.34,202.6L428.49,202.27L429.56,197.48L429.87,198.09L430.03,198.16L430.18,197.28L430.49,198.3L430.64,199.21L431.25,201.78L431.41,200.17L431.56,199.68L432.64,192.77L432.79,190.5L434.17,180.11L434.32,179.4L434.78,181.37L435.25,180.51L435.4,181.21L436.17,181.21L436.32,181.91L436.78,179.69L436.93,182.01L437.09,182.92L437.24,182.26L437.55,183.99L437.7,183.81L438.01,172.14L438.47,175.46L438.62,175.63L439.54,165.46L439.7,173.14L440.93,138.33L441.08,128.05L441.54,113.39L442,118.98L442.15,123.19L443.08,145.34L443.38,143.63L443.54,138.77L443.84,141.14L444,138.41L444.15,134.28L445.07,123.12L445.22,128.11L446.15,134.33L446.3,135.96L447.99,155.28L448.14,157.06L449.22,168.12L449.68,166.7L449.83,166.14L450.6,160.72L450.9,162.24L451.06,164.26L452.29,170.72L452.44,170.05L452.59,167.15L454.59,122.64L454.74,123.49L454.9,126.84L455.82,148.4L455.97,153.58L457.35,180.56L457.51,182.06L459.81,190.02L459.96,190.23L460.73,192.06L460.88,191.04L461.04,190.66L461.19,192.02L461.81,191.05L461.96,190.87L463.19,188.9L463.34,182.97L465.03,147.89L465.18,152.34L466.41,181.69L466.72,180.46L466.87,178.99L469.33,145.95L469.48,145.64L470.1,145.55L470.25,144.86L471.63,141.51L471.78,142.05L473.01,146.32L473.17,146.8L474.24,151.49L474.39,153.13L475.47,159.22L475.62,158.35L475.78,156.84L476.39,152.91L476.54,151.56L480.84,128.51L481,128.59L481.3,128.95L485.45,128.58L485.6,126.47L485.91,128.8L486.06,128.36L486.22,128.72L486.83,124.96L486.98,122.79L487.6,106.05L487.75,93.14L488.98,33.96L489.13,35.6L489.29,42.96L490.51,111.26L490.98,110.03L491.13,109.92L492.36,80.27L492.51,81.49L492.66,81.29L492.97,85L493.12,93.15L494.05,106.68L494.2,89.56L494.66,62.09L494.97,71.97L495.12,75.69L496.19,120.59L496.5,108.53L496.66,107.4L496.81,107.29L496.96,105.74L497.58,105.86L499.11,59.54L499.27,59.79L499.57,59.53L499.73,50.49L499.88,52L500.03,76.28L501.26,122.81L501.41,126.29L502.18,146.53L502.34,145.45L502.49,143.86L502.8,142.77L503.1,143.05L503.26,145.14L505.71,176.4L505.87,175.22L506.02,173.03L508.48,145.49L508.63,148.72L509.09,152.65L509.4,151.67L509.55,150.94L510.78,140.92L510.93,141.51L511.39,142.23L511.7,141.41L511.85,141.63L512.32,142.04L513.7,137.44L513.85,137.68L514,138.25L514.16,138.32L514.31,139.62L515.39,134.02L515.54,134.34L516.15,140.58L516.31,143.89L517.38,140.51L517.54,141.71L518.61,148.85L518.76,150.68L519.68,156.67L519.84,156.16L519.99,155.6L520.14,155.92L520.3,144.88L520.91,141.13L521.07,140.51L521.53,140.32L521.68,141.32L521.99,140.03L522.14,149.14L522.29,149.03L522.45,149.39L522.6,147.91L522.91,148.89L523.22,148.63L523.37,147.82L524.9,133.52L525.06,133.12L525.36,134.4L526.44,129.76L526.59,130.31L527.05,133.14L527.36,131.47L527.51,130.38L527.67,130.52L527.82,130.09L527.97,128.88L529.51,119.24L529.66,120.13L529.82,117.48L530.28,122.12L530.43,123.84L531.66,140.83L531.81,140.39L531.97,138.79L532.89,132.68L533.04,133.4L533.19,132.85L533.35,132L533.5,133.03L533.66,135.26L535.34,153.36L535.5,151.88L535.8,151.39L535.96,153.26L536.27,157.08L536.57,153.89L536.73,151.39L536.88,149.66L537.19,152.89L537.34,153.86L537.95,145.75L538.11,142.4L538.26,141.8L538.57,143.46L538.72,144.71L539.34,141.19L539.49,143.14L539.64,145.84L541.18,158.85L541.33,159.09L541.49,158.47L541.64,159.12L541.79,160.97L541.95,160.51L542.1,162.14L542.25,164.85L546.24,198.63L546.4,198.6L547.78,188.19L547.93,188.44L548.09,188.13L548.24,188.7L548.39,189.27L548.55,189.88L549.16,189.28L549.31,189.32L549.47,189.42L549.62,191.46L550.54,195.95L550.7,197.28L551.62,203.75L552.08,203.32L552.23,203.87L552.54,204.29L553,203.97L553.15,203.68L555.61,196.5L555.76,196.64L555.92,197.14L558.07,205.61L558.37,205.26L558.53,205.34L559.91,205.7L560.06,205.21L560.37,205.22L560.52,204.83L560.68,204.45L563.13,199.15L563.29,199.89L563.44,200.23L563.75,199.54L563.9,199.25L564.36,189.82L564.82,191.88L564.97,191.25L565.74,184.56L565.9,189.53L566.05,190.65L566.2,188.78L566.36,174.73L566.82,134.4L567.43,138.47L567.58,138.63L568.04,136.3L568.2,150.82L568.81,186.18L569.27,183.81L569.43,183.1L570.04,182.69L570.35,184.71L570.5,179.92L570.81,177.96L571.12,179.82L571.27,179.75L572.04,168.32L572.19,165.08L572.34,165.37L572.5,162.56L574.19,116.21L574.34,99.4L574.49,98.91L574.65,99.24L574.8,101.12L575.87,136.03L576.03,139.99L576.18,153.97L576.64,138.21L576.8,138.37L576.95,139.75L577.1,137.83L577.26,135.5L578.02,122.38L578.18,124.52L578.33,138.23L580.17,165.25L580.33,165.39L581.25,183.01L581.4,182.55L581.56,171.81L582.78,161.72L582.94,161.55L583.09,161.26L583.24,161.79L583.4,172.36L584.78,185.54L584.93,186.37L585.24,188.31L585.39,184.6L586.31,151.45L586.78,152.31L586.93,152.27L587.08,151.33L587.24,155.41L588.92,195.01L589.08,195.97L590.31,200.66L590.46,200.3L590.61,200.04L591.69,195.48L591.84,194.88L592.46,191.8L592.76,192.43L592.92,192.2L593.68,188.47L593.99,189.41L594.14,189.87L594.45,189.73L596.14,199.99L596.29,201.66L597.68,205.7L597.83,205.79L598.29,205.63L598.44,205.1L598.9,204.77L599.06,203.88L600.59,200.37L600.75,200.36L601.67,203.38L601.97,202.6L602.13,202.54L603.05,202.46L603.2,202.13L603.51,201.44L603.66,203.08L604.43,203.8L604.58,204.1L605.35,203.3L605.51,202.43L606.73,198.39L606.89,198.55L607.04,198.91L607.5,202.08L607.81,199.74L607.96,198.63L608.12,198.58L608.27,197.73L608.58,196.97L608.73,187.16L609.5,181.05L609.8,183.39L609.96,185.08L610.26,185.42L610.42,182.6L610.57,189.65L611.65,179.47L611.8,178.23L612.11,174.47L612.26,176.49L612.41,180.64L613.34,189.88L613.49,190.21L614.56,187.07L614.72,175.96L617.02,146.2L617.17,148.23L618.25,119.42L618.4,102.73L618.55,90.6L619.02,100.6L619.17,102.64L620.24,124.72L620.4,129.12L621.01,121.39L621.16,124.9L621.32,125.36L622.24,137.82L622.39,140.5L622.85,153.39L623.16,145.67L623.31,145.26L623.47,143.66L623.62,145.21L623.77,149.27L623.93,142.47L624.39,150.07L624.54,152.69L624.7,152.44L624.85,157.43L625.77,179.38L626.38,177.95L626.54,178.34L627.31,169.12L627.46,170.42L627.61,172.24L627.92,175.97L628.38,174.86L628.53,173.66L628.99,180.69L629.15,182.05L629.61,179.52L629.76,175.68L630.22,167.97L630.53,169.99L630.68,170.33L631.45,175.24L631.6,177.6L632.22,189.16L632.68,188.7L632.83,189.08L635.75,205.46L635.9,205.11L637.75,193.85L638.21,194.65L638.36,194.75L638.51,194.13L638.67,194.19L638.82,196.61L640.2,205.03L640.36,204.71L641.12,205L641.28,204.63L642.35,204.17L642.5,203.26L644.19,197.37L644.35,197.8L644.5,198.03L645.58,201.04L645.73,202.07L646.8,204.13L646.96,204.2L647.88,204.47L648.03,204.66L648.34,205.01L648.65,204.43L648.8,204.28L649.41,203.01L649.57,202.34L650.33,200.14L650.64,200.69L650.8,200.96L652.18,202.55L652.33,202.1L652.48,199.99L652.79,197.83L652.94,185.92L653.71,182.82L653.87,181.19L654.17,178.98L654.63,180.67L654.79,193.12L655.4,191.39L655.55,192.79L656.02,191.84L656.17,190.03L656.48,189.32L656.63,188.63L657.24,185.28L657.4,180.96L658.47,177.77L658.63,178.54L658.78,178.01L658.93,169.2L659.09,168.88L659.24,172.71L659.7,174.15L659.85,173.9L660.01,171.99L660.62,163.96L660.77,170.87L662,139.55L662.16,130.45L662.77,117.22L663.08,118.98L663.23,123.84L663.38,127.15L663.54,123.63L663.69,115.98L664.46,145.89L664.77,137.76L664.92,138.39L665.07,138.37L665.23,134.28L665.53,145.73L665.84,142.13L665.99,136.87L666.92,117.09L667.07,119.04L667.22,119.83L667.38,119.57L667.53,120.25L667.68,122.48L667.99,115.9L668.91,137.79L669.06,135.33L669.22,135.09L669.68,137.75L669.83,149.52L670.45,153.12L670.75,152.54L670.91,155.12L671.37,155.61L671.52,158.06L671.83,157.28L672.6,163.6L672.75,164.29L672.9,168.44L673.21,160.79L673.36,161.55L673.52,159.31L674.75,147.54L674.9,153.31L676.43,167.05L676.59,167.75L677.05,171.03L677.2,173.84L679.97,203.41L680.12,203.21L681.81,202.6L681.96,201.77L682.11,201.63L682.27,201.91L682.42,202.64L682.88,202.83L683.04,203.45L683.65,202.63L683.8,203.63L683.96,204.21L684.42,203.7L684.57,201.98L685.19,203.52L685.65,203.1L685.8,202.72L686.26,201.7L686.41,202.85L686.57,202.69L687.18,199.22L687.33,197.62L688.56,189.42L688.87,190.28L689.02,191L690.1,200.55L690.4,198.27L690.56,198.08L691.17,198.24L691.33,198.01L691.48,197.86L691.94,197.12L692.09,199.8L693.17,199.44L693.32,198.5L695.16,192.43L695.32,190.97L697.01,175.34L697.16,163.38L697.31,163.27L697.47,165.18L698.54,176.74L698.7,176.52L698.85,175.5L699,186.43L700.23,168.19L700.54,169.78L700.69,170.47L701.77,177.63L701.92,175.13L702.07,172.71L704.22,143.97L704.38,142.81L704.68,138.82L704.84,139.46L704.99,142.45L705.14,143.18L705.6,141.82L705.76,141.79L706.06,133.35L706.53,135.2L706.68,134.75L706.99,121.62L707.45,127.67L707.6,130.15L707.75,128.93L707.91,133.59L708.06,134.1L709.44,113.43L709.6,122.35L709.9,120.52L710.06,124.45L710.36,117.8L710.67,122.96L710.82,128.26L711.9,143.47L712.05,134.08L712.51,139.19L712.67,137.54L712.82,130.76L713.74,137.89L713.89,149.42L714.66,158.37L714.97,156.29L715.12,156.43L716.04,152.19L716.2,151.55L717.27,160.01L717.43,155.54L718.65,146.04L718.81,146.3L719.42,157.5L719.73,155.29L719.88,154.24L720.34,156.26L720.5,158.09L723.57,199.45L723.72,199.86L724.33,201.55L724.64,200.65L724.79,200.16L726.33,201.25L726.48,201.9L727.25,202.75L727.4,202.65L727.56,202.74L727.87,202.13L728.33,202.56L728.48,202.87L730.01,206.02L730.17,205.81L730.32,205.71L731.7,201.7L731.86,200.58L733.09,194.56L733.24,195.14L734.77,201.09L734.93,200.95L735.08,200.66L737.23,199.39L737.38,198.9L738.3,196.98L738.46,197.39L738.61,197.46L738.77,196.44L739.07,196.49L739.23,197.04L739.69,199.64L739.99,197.72L740.15,197.99L740.76,198.72L740.91,197.76L742.14,193.45L742.3,190.97L743.06,186.87L743.22,177.05L743.99,171.81L744.14,172.17L744.29,172L744.45,171.75L744.6,169.6L744.75,169.27L744.91,170.07L745.06,178.79L745.52,181.79L745.98,181.69L746.13,181.55L746.44,182.47L746.9,177.52L747.06,176.63L749.05,160.86L749.21,157.36L750.43,134.98L750.59,127.53L751.05,119.16L751.35,123.7L751.51,125.31L752.89,159.51L753.04,149.56L753.2,145.61L753.35,145.22L753.5,141.43L754.58,125.52L754.73,124.54L755.5,145.47L755.65,145.03L755.81,145L755.96,145.78L756.27,143.6L756.42,142.15L756.88,138.61L757.19,140.34L757.34,141.23L758.42,145.78L758.72,145.68L758.88,144.13L759.65,140.5L759.8,141.09L759.95,143.32L761.49,161.41L761.64,155.28L763.02,117.84L763.33,119.44L763.48,122.67L763.64,122.64L763.79,121.02L764.1,120.27L764.25,122.24L764.4,123.07L765.17,125.92L772.08,126.3L772.23,125.54L772.39,127.56L772.54,128.63L774.08,142.88L774.23,141.87L774.38,141.28L775.77,138.48L775.92,139.88L776.84,142.5L776.99,142.14L777.15,141.42L780.06,134L780.22,134.04L780.52,134.65L780.83,134.26L780.99,133.95L781.29,133.77L781.45,134.58L782.98,138.72L783.13,139.02L784.67,155.35L784.82,155.17L784.98,155.94L785.44,152.75L785.59,141.81L785.9,139.78L786.05,141.22L786.2,143.72L786.51,138.87L787.13,139.77L787.28,139.43L787.43,148.36L788.05,147.44L788.2,144.56L788.35,145.01L788.51,144.13L788.66,142.08L789.89,136.49L790.04,138.36L790.5,135.02L790.96,135.49L791.12,135.55L792.96,127.47L793.11,128.15L794.96,119.12L795.11,119.42L795.26,123.26L796.34,130.84L796.49,130.89L796.95,131.92L797.11,128.78L798.95,89.32L799.1,69.48L799.25,68.34L799.56,70.44L799.72,70.64L800.18,69.94L800.33,85.38L800.94,116.76L801.4,114.35L801.56,112.09L801.86,111.42L802.02,110.42L802.17,111.2L802.33,110.16L802.79,110.94L802.94,110.36L803.09,110.53L803.25,109.25L803.55,108.56L803.71,100.16L804.01,84.26L804.47,87.61L804.63,93.26L807.85,174.79L808.01,172.7L810.31,142.04L810.46,141.71L811.08,141.41L812.46,149.74L812.61,150.68L815.53,185.53L815.68,186.77L815.84,186.99L815.99,186.47L816.14,184.5L817.98,164.63L818.14,167.55L818.29,168.89L818.45,171.46L818.75,168.63L818.91,166.64L820.29,153.02L820.44,155.05L820.59,155.36L821.06,155.07L821.21,156.56L821.82,158.7L821.98,157.22L822.13,156.88L823.2,152.84L823.36,153.26L823.51,153.21L824.89,149.38L825.05,149.23L825.2,148.9L825.35,149.36L825.51,151.96L827.81,169.13L827.96,167.99L828.27,168.33L828.58,165.85L828.73,167.44L828.89,168.1L829.19,169.21L829.35,168.52L829.5,168.1L829.65,168.13L829.81,169.79L830.42,173L830.57,171.87L830.73,171.09L831.65,167.87L831.8,164.72L832.11,162.48L832.26,161.76L832.88,162.45L833.03,161.52L833.34,161.84L833.49,163.47L834.41,165.54L834.57,165.44L834.87,166.71L835.03,165.5L835.18,162.45L836.56,148.75L836.71,147.86L836.87,146.31L837.02,146.84L837.18,133.33L838.86,113.61L839.02,123.98L839.32,123.23L840.25,132.9L840.4,139.86L841.32,160.93L841.47,160.07L841.63,157.18L841.78,157.65L841.93,154.88L842.55,142.28L843.01,143.43L843.16,145.93L844.24,155.49L844.39,152.43L845.16,149.64L845.31,151.33L846.69,162L846.85,160.83L848.54,143.91L848.69,144.24L848.84,145.68L849.15,146.35L849.3,139.68L849.76,131.16L850.07,134.51L850.23,135.82L850.53,135.29L850.99,137.36L851.15,145.77L852.37,170.68L852.53,171.67L854.06,185.61L854.22,183.69L854.37,180.13L856.21,11L856.52,19.28L856.67,19.33L857.9,67.34L858.05,66L858.21,58.1L858.67,68.06L858.82,73.62L861.59,187.72L861.74,190.34L864.35,206.63L864.5,206.61L865.12,206.12L865.27,207.24L866.35,208.03L866.5,208.36L866.96,208.61L867.11,207.77L868.8,207.95L868.96,209L870.18,208.14L870.34,208.33L871.72,207.18L871.87,206.17L873.56,194.25L873.87,194.64L874.02,195.69L874.79,201.09L875.1,200.07L875.25,199.26L875.71,201.93L875.86,199.73L876.02,198.25L876.48,196.44L876.63,194.32L876.79,194.36L876.94,193.45L877.25,190.5L877.4,189.41L877.55,189.5L877.71,191.48L878.47,193.34L878.78,193.04L878.93,192.31L879.24,195.42L879.7,192.88L879.86,192.37L880.47,186.38L880.78,186.57L880.93,184.78L882.47,154.2L882.62,151.87L883.85,110.7L884,111.8L884.15,112.49L885.54,142.03L886,141.22L886.15,140.4L886.3,136.63L886.61,143.35L886.76,142.21L886.92,148.02L887.38,155.66L887.53,160.16L888.45,172.4L888.76,170.9L888.91,163.15L889.07,164.52L889.37,163.34L889.53,161.99L890.6,154.91L890.76,162.84L890.91,163.43L891.06,161.61L891.22,161.14L891.52,163.58L891.83,162.7L891.98,161.48L892.14,159.95L892.6,161.13L892.75,162.57L893.21,168.79L893.37,157.72L893.52,157.31L893.67,157.81L893.83,160.87L893.98,164.27L894.29,155.01L894.44,153.2L894.75,149.93L894.9,145.12L895.05,142.88L895.21,152.74L899.35,202.56L899.51,203.94L899.97,205.31L900.27,204.52L900.43,204.43L900.89,203.58L901.04,202.7L902.73,192.13L902.88,192.26L903.04,191.74L903.19,192.89L903.35,193.72L903.81,193.45L903.96,195.49L905.65,202.88L905.8,202.41L906.42,201.67L906.57,201.12L907.18,201.15L907.34,201.8L907.8,203.47L907.95,204.13L909.49,207.99L909.64,207.8L910.25,207.4L910.41,207.78L910.56,208.03L911.17,208.24L911.33,207.05L912.1,207.57L912.25,207.39L912.4,207.33L913.02,206.81L913.17,207.68L914.09,207.75L914.25,207.6L915.17,206.66L915.32,205.88L916.24,201.47L916.39,200.21L917.01,193.02L917.47,195.24L917.62,195.84L918.24,188.31L918.7,189.98L918.85,194.17L919.93,187.99L920.08,192.96L920.23,192.88L920.39,191.24L921.31,187.46L921.61,188.57L921.77,189.18L922.08,188.81L923.15,190.25L923.3,189.63L925.61,176.07L925.76,171.76L928.06,125.3L928.22,126.26L928.37,127.22L929.75,154.45L929.9,148.69L930.06,146.04L930.67,135.94L930.83,143.2L931.44,141.95L932.51,169.59L932.98,166.11L933.13,164.1L933.59,154.76L933.9,155.04L934.05,155.64L934.51,154.25L934.82,155.35L934.97,158.5L935.28,170L935.74,168.18L935.89,167.47L936.2,168.75L936.35,165.64L937.12,161.79L937.27,162.26L937.43,164.49L937.58,162.43L937.89,166.44L938.04,163.95L938.2,166.09L938.35,165.6L938.5,165.69L938.66,161.83L938.81,161.26L938.96,161.89L939.12,163.93L939.27,162.78L939.42,166.41L939.58,166.46L939.73,165.97L939.88,169.2L941.42,178.81L941.57,178.66L941.88,180.65" style="vector-effect: none; fill: none; stroke: rgb(99, 110, 250); stroke-opacity: 1; stroke-width: 2px; opacity: 1;"/></g><g class="points"/><g class="text"/></g></g></g><g class="overplot"><g class="xy2" transform="translate(80,100)" clip-path="url(#clip6d7e0cxy2plot)"><g class="scatterlayer mlayer"><g class="trace scatter trace85b977" style="stroke-miterlimit: 2; opacity: 1;"><g class="fills"/><g class="errorbars"/><g class="lines"><path class="js-line" d="M0,209L87.66,209L87.82,11L88.28,11L88.43,209L179.78,209L179.93,11L181.77,11L181.93,209L264.68,209L264.83,11L265.6,209L265.75,209L487.44,209L487.6,11L490.21,11L490.36,209L491.13,209L491.28,11L496.04,11L496.19,209L496.5,209L496.66,11L500.65,11L500.8,209L574.19,209L574.34,11L575.11,11L575.26,209L618.25,209L618.4,11L619.17,11L619.32,209L798.33,209L798.49,11L800.79,11L800.94,209L803.55,209L803.71,11L805.4,11L805.55,209L854.98,209L855.14,11L859.13,11L859.28,209L941.88,209" style="vector-effect: none; fill: none; stroke: rgb(239, 85, 59); stroke-opacity: 1; stroke-width: 2px; opacity: 1;"/></g><g class="points"/><g class="text"/></g></g></g></g><path class="xlines-above crisp" d="M0,0" style="fill: none;"/><path class="ylines-above crisp" d="M0,0" style="fill: none;"/><g class="overlines-above"><path class="xy2-x crisp" d="M0,0" style="fill: none;"/><path class="xy2-y crisp" d="M0,0" style="fill: none;"/></g><g class="xaxislayer-above"><g class="xtick"><text text-anchor="middle" x="0" y="333" transform="translate(166.74,0)" style="font-family: 'Open Sans', verdana, arial, sans-serif; font-size: 12px; fill: rgb(42, 63, 95); fill-opacity: 1; white-space: pre; opacity: 1;"><tspan class="line" dy="0em" x="0" y="333">Jan 21</tspan><tspan class="line" dy="1.3em" x="0" y="333">2022</tspan></text></g><g class="xtick"><text text-anchor="middle" x="0" y="333" style="font-family: 'Open Sans', verdana, arial, sans-serif; font-size: 12px; fill: rgb(42, 63, 95); fill-opacity: 1; white-space: pre; opacity: 1;" transform="translate(299.39,0)">Jan 24</text></g><g class="xtick"><text text-anchor="middle" x="0" y="333" style="font-family: 'Open Sans', verdana, arial, sans-serif; font-size: 12px; fill: rgb(42, 63, 95); fill-opacity: 1; white-space: pre; opacity: 1;" transform="translate(432.03,0)">Jan 27</text></g><g class="xtick"><text text-anchor="middle" x="0" y="333" style="font-family: 'Open Sans', verdana, arial, sans-serif; font-size: 12px; fill: rgb(42, 63, 95); fill-opacity: 1; white-space: pre; opacity: 1;" transform="translate(564.6800000000001,0)">Jan 30</text></g><g class="xtick"><text text-anchor="middle" x="0" y="333" style="font-family: 'Open Sans', verdana, arial, sans-serif; font-size: 12px; fill: rgb(42, 63, 95); fill-opacity: 1; white-space: pre; opacity: 1;" transform="translate(697.33,0)">Feb 2</text></g><g class="xtick"><text text-anchor="middle" x="0" y="333" style="font-family: 'Open Sans', verdana, arial, sans-serif; font-size: 12px; fill: rgb(42, 63, 95); fill-opacity: 1; white-space: pre; opacity: 1;" transform="translate(829.97,0)">Feb 5</text></g><g class="xtick"><text text-anchor="middle" x="0" y="333" style="font-family: 'Open Sans', verdana, arial, sans-serif; font-size: 12px; fill: rgb(42, 63, 95); fill-opacity: 1; white-space: pre; opacity: 1;" transform="translate(962.62,0)">Feb 8</text></g></g><g class="yaxislayer-above"><g class="ytick"><text text-anchor="end" x="79" y="4.199999999999999" transform="translate(0,312.4)" style="font-family: 'Open Sans', verdana, arial, sans-serif; font-size: 12px; fill: rgb(42, 63, 95); fill-opacity: 1; white-space: pre; opacity: 1;">0</text></g><g class="ytick"><text text-anchor="end" x="79" y="4.199999999999999" style="font-family: 'Open Sans', verdana, arial, sans-serif; font-size: 12px; fill: rgb(42, 63, 95); fill-opacity: 1; white-space: pre; opacity: 1;" transform="translate(0,256.73)">0.02</text></g><g class="ytick"><text text-anchor="end" x="79" y="4.199999999999999" style="font-family: 'Open Sans', verdana, arial, sans-serif; font-size: 12px; fill: rgb(42, 63, 95); fill-opacity: 1; white-space: pre; opacity: 1;" transform="translate(0,201.05)">0.04</text></g><g class="ytick"><text text-anchor="end" x="79" y="4.199999999999999" style="font-family: 'Open Sans', verdana, arial, sans-serif; font-size: 12px; fill: rgb(42, 63, 95); fill-opacity: 1; white-space: pre; opacity: 1;" transform="translate(0,145.38)">0.06</text></g></g><g class="overaxes-above"><g class="xy2-x"/><g class="xy2-y"><g class="y2tick"><text text-anchor="start" x="1022.88" y="4.199999999999999" transform="translate(0,309)" style="font-family: 'Open Sans', verdana, arial, sans-serif; font-size: 12px; fill: rgb(42, 63, 95); fill-opacity: 1; white-space: pre; opacity: 1;">0</text></g><g class="y2tick"><text text-anchor="start" x="1022.88" y="4.199999999999999" style="font-family: 'Open Sans', verdana, arial, sans-serif; font-size: 12px; fill: rgb(42, 63, 95); fill-opacity: 1; white-space: pre; opacity: 1;" transform="translate(0,269.4)">0.2</text></g><g class="y2tick"><text text-anchor="start" x="1022.88" y="4.199999999999999" style="font-family: 'Open Sans', verdana, arial, sans-serif; font-size: 12px; fill: rgb(42, 63, 95); fill-opacity: 1; white-space: pre; opacity: 1;" transform="translate(0,229.8)">0.4</text></g><g class="y2tick"><text text-anchor="start" x="1022.88" y="4.199999999999999" style="font-family: 'Open Sans', verdana, arial, sans-serif; font-size: 12px; fill: rgb(42, 63, 95); fill-opacity: 1; white-space: pre; opacity: 1;" transform="translate(0,190.2)">0.6</text></g><g class="y2tick"><text text-anchor="start" x="1022.88" y="4.199999999999999" style="font-family: 'Open Sans', verdana, arial, sans-serif; font-size: 12px; fill: rgb(42, 63, 95); fill-opacity: 1; white-space: pre; opacity: 1;" transform="translate(0,150.6)">0.8</text></g><g class="y2tick"><text text-anchor="start" x="1022.88" y="4.199999999999999" style="font-family: 'Open Sans', verdana, arial, sans-serif; font-size: 12px; fill: rgb(42, 63, 95); fill-opacity: 1; white-space: pre; opacity: 1;" transform="translate(0,111)">1</text></g></g></g></g><g class="subplot xy2"/></g><g class="polarlayer"/><g class="smithlayer"/><g class="ternarylayer"/><g class="geolayer"/><g class="funnelarealayer"/><g class="pielayer"/><g class="iciclelayer"/><g class="treemaplayer"/><g class="sunburstlayer"/><g class="glimages"/><defs id="topdefs-6d7e0c"><g class="clips"/><clipPath id="legend6d7e0c"><rect width="86" height="48" x="0" y="0"/></clipPath></defs><g class="layer-above"><g class="imagelayer"/><g class="shapelayer"/></g><g class="infolayer"><g class="legend" pointer-events="all" transform="translate(1102.04,100)"><rect class="bg" shape-rendering="crispEdges" style="stroke: rgb(68, 68, 68); stroke-opacity: 1; fill: rgb(255, 255, 255); fill-opacity: 1; stroke-width: 0px;" width="86" height="48" x="0" y="0"/><g class="scrollbox" transform="" clip-path="url(#legend6d7e0c)"><g class="groups"><g class="traces" transform="translate(0,14.5)" style="opacity: 1;"><text class="legendtext" text-anchor="start" x="40" y="4.680000000000001" style="font-family: 'Open Sans', verdana, arial, sans-serif; font-size: 12px; fill: rgb(42, 63, 95); fill-opacity: 1; white-space: pre;">y_pred</text><g class="layers" style="opacity: 1;"><g class="legendfill"/><g class="legendlines"><path class="js-line" d="M5,0h30" style="fill: none; stroke: rgb(99, 110, 250); stroke-opacity: 1; stroke-width: 2px;"/></g><g class="legendsymbols"><g class="legendpoints"/></g></g><rect class="legendtoggle" x="0" y="-9.5" width="80.390625" height="19" style="fill: rgb(0, 0, 0); fill-opacity: 0;"/></g><g class="traces" transform="translate(0,33.5)" style="opacity: 1;"><text class="legendtext" text-anchor="start" x="40" y="4.680000000000001" style="font-family: 'Open Sans', verdana, arial, sans-serif; font-size: 12px; fill: rgb(42, 63, 95); fill-opacity: 1; white-space: pre;">labels</text><g class="layers" style="opacity: 1;"><g class="legendfill"/><g class="legendlines"><path class="js-line" d="M5,0h30" style="fill: none; stroke: rgb(239, 85, 59); stroke-opacity: 1; stroke-width: 2px;"/></g><g class="legendsymbols"><g class="legendpoints"/></g></g><rect class="legendtoggle" x="0" y="-9.5" width="80.390625" height="19" style="fill: rgb(0, 0, 0); fill-opacity: 0;"/></g></g></g><rect class="scrollbar" rx="20" ry="3" width="0" height="0" style="fill: rgb(128, 139, 164); fill-opacity: 1;" x="0" y="0"/></g><g class="g-gtitle"/><g class="g-xtitle"/><g class="g-ytitle"><text class="ytitle" transform="rotate(-90,27.981250000000003,210)" x="27.981250000000003" y="210" text-anchor="middle" style="font-family: 'Open Sans', verdana, arial, sans-serif; font-size: 14px; fill: rgb(42, 63, 95); opacity: 1; font-weight: normal; white-space: pre;">prediction score</text></g><g class="g-y2title"/></g></svg>