<svg class="main-svg" xmlns="http://www.w3.org/2000/svg" xmlns:xlink="http://www.w3.org/1999/xlink" width="1200" height="400" style="" viewBox="0 0 1200 400"><rect x="0" y="0" width="1200" height="400" style="fill: rgb(255, 255, 255); fill-opacity: 1;"/><defs id="defs-307ec1"><g class="clips"><clipPath id="clip307ec1xyplot" class="plotclip"><rect width="941.88" height="220"/></clipPath><clipPath id="clip307ec1xy2plot" class="plotclip"><rect width="941.88" height="220"/></clipPath><clipPath class="axesclip" id="clip307ec1x"><rect x="80" y="0" width="941.88" height="400"/></clipPath><clipPath class="axesclip" id="clip307ec1y"><rect x="0" y="100" width="1200" height="220"/></clipPath><clipPath class="axesclip" id="clip307ec1xy"><rect x="80" y="100" width="941.88" height="220"/></clipPath><clipPath class="axesclip" id="clip307ec1y2"><rect x="0" y="100" width="1200" height="220"/></clipPath><clipPath class="axesclip" id="clip307ec1xy2"><rect x="80" y="100" width="941.88" height="220"/></clipPath></g><g class="gradients"/><g class="patterns"/></defs><g class="bglayer"><rect class="bg" x="80" y="100" width="941.88" height="220" style="fill: rgb(229, 236, 246); fill-opacity: 1; stroke-width: 0;"/></g><g class="layer-below"><g class="imagelayer"/><g class="shapelayer"/></g><g class="cartesianlayer"><g class="subplot xy"><g class="layer-subplot"><g class="shapelayer"/><g class="imagelayer"/></g><g class="minor-gridlayer"><g class="x"/><g class="y"/><g class="y2"/></g><g class="gridlayer"><g class="x"><path class="xgrid crisp" transform="translate(235.3,0)" d="M0,100v220" style="stroke: rgb(255, 255, 255); stroke-opacity: 1; stroke-width: 1px;"/><path class="xgrid crisp" transform="translate(390.6,0)" d="M0,100v220" style="stroke: rgb(255, 255, 255); stroke-opacity: 1; stroke-width: 1px;"/><path class="xgrid crisp" transform="translate(545.89,0)" d="M0,100v220" style="stroke: rgb(255, 255, 255); stroke-opacity: 1; stroke-width: 1px;"/><path class="xgrid crisp" transform="translate(701.19,0)" d="M0,100v220" style="stroke: rgb(255, 255, 255); stroke-opacity: 1; stroke-width: 1px;"/><path class="xgrid crisp" transform="translate(856.49,0)" d="M0,100v220" style="stroke: rgb(255, 255, 255); stroke-opacity: 1; stroke-width: 1px;"/><path class="xgrid crisp" transform="translate(1011.79,0)" d="M0,100v220" style="stroke: rgb(255, 255, 255); stroke-opacity: 1; stroke-width: 1px;"/></g><g class="y"><path class="ygrid crisp" transform="translate(0,257.26)" d="M80,0h941.88" style="stroke: rgb(255, 255, 255); stroke-opacity: 1; stroke-width: 1px;"/><path class="ygrid crisp" transform="translate(0,201.67000000000002)" d="M80,0h941.88" style="stroke: rgb(255, 255, 255); stroke-opacity: 1; stroke-width: 1px;"/><path class="ygrid crisp" transform="translate(0,146.09)" d="M80,0h941.88" style="stroke: rgb(255, 255, 255); stroke-opacity: 1; stroke-width: 1px;"/></g><g class="y2"><path class="y2grid crisp" transform="translate(0,269.4)" d="M80,0h941.88" style="stroke: rgb(255, 255, 255); stroke-opacity: 1; stroke-width: 1px;"/><path class="y2grid crisp" transform="translate(0,229.8)" d="M80,0h941.88" style="stroke: rgb(255, 255, 255); stroke-opacity: 1; stroke-width: 1px;"/><path class="y2grid crisp" transform="translate(0,190.2)" d="M80,0h941.88" style="stroke: rgb(255, 255, 255); stroke-opacity: 1; stroke-width: 1px;"/><path class="y2grid crisp" transform="translate(0,150.6)" d="M80,0h941.88" style="stroke: rgb(255, 255, 255); stroke-opacity: 1; stroke-width: 1px;"/><path class="y2grid crisp" transform="translate(0,111)" d="M80,0h941.88" style="stroke: rgb(255, 255, 255); stroke-opacity: 1; stroke-width: 1px;"/></g></g><g class="zerolinelayer"><path class="xzl zl crisp" transform="translate(80,0)" d="M0,100v220" style="stroke: rgb(255, 255, 255); stroke-opacity: 1; stroke-width: 2px;"/><path class="yzl zl crisp" transform="translate(0,312.84000000000003)" d="M80,0h941.88" style="stroke: rgb(255, 255, 255); stroke-opacity: 1; stroke-width: 2px;"/><path class="y2zl zl crisp" transform="translate(0,309)" d="M80,0h941.88" style="stroke: rgb(255, 255, 255); stroke-opacity: 1; stroke-width: 2px;"/></g><path class="xlines-below"/><path class="ylines-below"/><g class="overlines-below"><path class="xy2-x"/><path class="xy2-y"/></g><g class="xaxislayer-below"/><g class="yaxislayer-below"/><g class="overaxes-below"><g class="xy2-x"/><g class="xy2-y"/></g><g class="plot" transform="translate(80,100)" clip-path="url(#clip307ec1xyplot)"><g class="scatterlayer mlayer"><g class="trace scatter tracee4477d" style="stroke-miterlimit: 2; opacity: 1;"><g class="fills"/><g class="errorbars"/><g class="lines"><path class="js-line" d="M0,126.45L1.24,150.38L1.4,144.96L2.02,132.18L2.33,134.06L2.48,138.54L2.95,112.93L3.26,121.7L3.42,126.89L5.12,151.82L5.28,154.4L7.14,169.07L7.45,167.77L7.61,167.27L7.76,167.66L8.08,166.56L8.23,165.59L8.39,164.73L8.54,165.75L8.7,165.43L8.85,167.24L9.01,168.15L9.16,166.54L9.32,164.87L9.47,166.75L9.94,163.53L10.09,164.6L10.25,166.11L10.56,164.18L10.72,161.16L11.49,149.18L11.65,151.42L11.8,153.47L12.58,150.51L12.73,152.38L16.62,205.03L16.77,205.24L17.24,205.97L17.55,205.64L17.7,205.62L19.72,204.04L19.88,204.3L20.81,205.38L20.97,205.04L21.12,204.53L21.43,205.2L21.59,204.9L21.74,205.1L23.29,206.14L23.45,205.85L23.61,205.69L25.31,196.24L25.47,196.36L27.18,206.48L27.33,204.98L29.04,198.33L29.51,199.14L29.66,199.09L31.21,197.99L31.37,196.94L32.77,193.18L32.92,188.5L33.7,185.46L33.85,180.64L34.17,177.86L34.32,165.95L34.48,165.13L34.63,165.42L34.79,170.02L35.1,170.37L35.25,169.44L35.41,167.28L35.56,165.93L35.72,170.27L35.87,170.78L36.03,170.49L36.18,180.68L36.81,173.5L37.27,174.58L37.43,175.09L38.36,177.77L38.51,177.28L38.67,176.16L40.07,168.72L40.22,169.18L40.38,168.71L41,172.45L41.15,170.52L41.31,168.31L44.26,106.13L44.42,108.29L44.57,112.25L46.12,143.37L46.28,137.82L46.43,127.43L46.74,120.2L47.21,124.14L47.37,124.23L47.99,115.91L48.14,120.07L48.3,130.26L49.38,147.51L49.54,149.93L50.01,153.57L50.47,152.28L50.63,152.34L52.02,161.5L52.18,161.15L52.65,160.38L52.8,159.32L53.89,166.55L54.04,161.7L54.2,163.56L54.51,160.49L54.82,162.85L54.98,163.81L55.75,146.99L56.06,150.5L56.22,154.79L56.84,158.28L56.99,157.29L57.15,157.97L57.3,158.18L57.46,161.12L59.01,176.56L59.17,179.06L61.03,205.54L61.19,206.28L61.65,207.27L61.96,206.64L62.12,206.43L63.36,205.69L63.52,205.95L64.29,207.49L64.45,207.78L64.76,208.1L65.07,207.67L65.22,207.65L67.55,206.13L67.71,205.57L68.49,204.22L68.64,203.29L70.19,191.66L70.35,192.16L70.51,192.77L72.37,203.91L72.52,203.89L72.68,203.99L72.83,204.08L72.99,203.71L73.15,203.19L73.77,201.71L73.92,202.49L74.08,202.56L74.85,203.1L75.01,202.83L75.16,202.16L75.47,201.87L75.63,201.13L77.18,197.36L77.34,196.47L77.65,194.92L77.8,193.9L79.05,182.37L79.2,180.88L79.98,183.27L80.13,182.43L80.29,181.38L80.75,184.87L81.07,182.47L81.22,179.93L81.38,179.55L81.53,174.51L81.84,172.59L82,172.2L82.31,171.36L82.46,173.51L82.62,173.83L82.93,176.27L83.08,176.9L83.39,180.15L84.79,166.25L84.95,166.75L85.1,155.93L85.26,155.26L85.41,155.43L85.57,157.29L86.03,161.67L86.19,159.41L86.35,157.27L88.99,103.94L89.14,106.86L89.3,106.6L89.45,110.7L90.69,149.43L91.16,145.73L91.31,139.99L92.4,121.41L92.71,126.84L92.87,130.96L93.96,146.07L94.11,136.07L95.35,150.84L95.51,151.7L95.82,152.94L95.97,165.27L96.28,166.51L96.44,166.37L96.6,164.82L97.68,159.35L97.84,160.33L97.99,162.9L98.3,163.82L98.46,167.09L99.7,157.33L99.86,156.21L100.32,149.32L100.48,150.61L100.63,156.26L101.56,162.86L101.72,161.87L101.88,162.58L102.19,160.38L102.65,162.21L102.81,163.84L106.22,205.08L106.38,205.45L106.53,205.32L106.84,205.78L107,205.91L107.47,206.31L107.62,205.87L107.78,205.33L109.17,203.48L109.33,203.56L110.11,205.52L110.26,204.33L111.5,205.52L111.66,204.99L111.81,205.12L111.97,204.51L112.12,206.15L112.28,207.01L112.9,206.6L113.06,206.32L113.37,204.75L113.52,203.24L114.76,192L115.08,192.35L115.23,193.22L116.63,202.87L117.09,201.9L117.25,201.54L118.49,199.99L118.65,200.24L118.8,200.66L119.73,202.82L119.89,202.15L120.05,201.77L120.67,199.55L120.82,198.19L121.75,198.62L121.91,198.05L122.06,196.4L122.53,196.69L123.46,193.3L123.62,192.39L123.77,183.53L124.39,184.95L124.55,185.12L125.48,175.69L125.64,180.49L126.72,169.76L126.88,169.64L127.19,171.07L127.34,171.64L127.65,177.14L128.12,176.26L128.28,174.34L129.52,166.31L129.67,166.67L129.83,156.04L129.98,156.12L130.14,157.74L130.61,161.17L130.76,159.89L130.92,156.99L131.38,153.94L131.54,151.22L131.69,157.1L132.16,148.01L132.31,147.28L132.93,135.65L133.09,129.09L133.71,118.4L134.02,121.49L134.18,123.99L135.42,157.77L135.73,150.37L135.89,150.91L137.28,122.14L137.44,128.4L138.68,139.31L138.84,140.87L140.08,149.79L140.23,150.5L140.39,150.23L140.54,151.54L141.01,154.49L141.17,152.46L141.32,151.67L142.41,145.85L142.56,147.23L144.12,162L144.27,160.79L144.43,154.01L145.67,125.68L146.14,127.38L146.29,126.34L146.6,124.19L146.76,124.37L146.91,129.34L148.62,146.9L148.78,145.69L148.93,144.5L151.57,164.63L151.73,166.91L153.12,183.1L153.43,181.13L153.59,179.72L155.76,168.09L155.92,168.06L157.78,159.14L157.94,159.51L158.09,159.8L158.56,159.2L158.71,160.34L159.65,162.77L159.8,162.11L159.96,161.75L160.11,161.59L160.27,162.02L160.42,162.51L161.2,159.95L161.35,160.02L161.51,159.5L162.44,159.16L162.6,158.57L163.68,156.81L163.84,156.06L164.15,155.38L164.3,156.33L164.46,157.57L166.01,166L166.17,168.04L167.57,181.55L167.88,180.52L168.03,178.83L168.34,177.18L168.5,166.26L168.81,165.17L168.96,165.71L169.12,164.74L170.21,155.52L170.36,163.42L173.62,132.2L173.78,133.67L174.09,130.43L174.4,131.93L174.55,133.38L174.71,131.65L175.02,134.06L175.18,133.24L175.33,134.82L175.95,138.44L176.11,137.15L176.26,135.63L177.04,138.6L177.19,137.12L178.13,128.2L178.59,129.55L178.75,129.78L178.9,128.12L179.21,130.94L179.37,130.64L179.52,132.65L179.99,134.89L180.61,128.23L180.77,129L181.23,129.54L181.54,127.82L181.7,120.52L181.85,120.8L182.01,109.76L183.1,79.48L183.25,78.39L183.56,88.05L183.72,92.01L184.18,123.26L184.65,118.98L184.8,117.51L185.43,111.39L185.74,112.67L185.89,113.26L186.2,112.73L186.51,114.31L186.67,118.36L187.75,138.91L187.91,143.11L188.84,156.38L189,151.09L189.15,141.9L190.86,161.83L191.02,172.45L193.19,148.58L193.35,148.77L193.5,149.56L193.81,149.15L193.97,146.49L194.43,137.18L194.9,140.69L195.05,143L195.83,148.3L195.99,152.54L197.69,171.63L197.85,162.7L198.47,166.39L198.63,164.94L198.78,164.53L199.09,163.68L199.4,164.84L199.56,165.78L199.71,173.46L200.33,169.33L200.49,169.48L201.58,173.04L201.73,176.3L202.66,182.72L202.82,182.17L203.13,179.68L203.28,177.36L203.6,175.63L203.75,172.5L204.22,167.35L204.37,165.05L205.46,155.51L205.61,155L207.01,150.91L207.17,151.56L207.32,151.69L207.48,151.32L207.63,150.9L208.25,149.69L208.56,149.91L208.72,150.28L209.81,154.77L209.96,154.42L211.52,168.23L211.67,170.04L212.6,172.84L212.76,171.55L212.91,169.99L213.07,168.86L213.22,157.87L214,155.83L214.16,154.33L214.62,150.59L214.93,151.18L215.09,159.95L217.88,147.4L218.04,148.64L218.19,148.55L218.35,149.32L218.66,147.88L218.81,146.03L219.28,143.3L219.59,144.92L219.75,145.47L220.06,148.28L220.21,143.82L220.37,140.17L221.61,122.81L221.76,124.38L222.23,132.58L222.7,129.92L222.85,128.84L223.63,134.72L223.78,133.94L223.94,139.48L224.87,153.5L225.03,150.08L226.11,138.41L226.27,137.47L227.51,157.38L227.82,155.46L227.98,152.38L228.75,148.55L228.91,150.24L230.46,166.58L230.62,165.66L230.77,163.28L231.7,153.12L231.86,153.29L232.01,151.54L232.48,151.63L232.64,149.86L232.95,155.09L233.41,151.45L233.57,151.45L234.03,145.52L234.5,147.43L234.65,145.54L234.81,144.03L235.28,144.7L235.43,145.66L237.76,170.61L237.92,174.29L240.09,207.03L240.25,206.73L241.64,198.47L241.8,196.34L242.73,186.05L243.04,188.1L243.2,188.44L243.51,188.57L243.66,190.19L244.59,197.97L245.06,197.53L245.21,197.72L246.77,206.75L246.92,207.03L247.54,204.62L247.7,203.62L249.1,197.46L249.25,197.94L251.27,204.74L251.43,204.63L251.58,204.71L252.51,204.72L252.67,204.69L253.14,205.46L253.45,205.02L253.6,204.78L253.91,204.12L254.07,203.27L255.31,198.34L255.46,197.31L256.24,192.1L256.55,192.68L256.71,193.68L257.48,191.87L257.79,192.29L257.95,182.92L258.26,183.44L258.42,182.94L258.57,181.2L259.04,177.14L259.19,176.26L259.35,176.61L259.5,175.37L259.66,174.55L259.81,182.85L260.43,176.04L260.59,175.06L261.21,172.98L261.52,173.24L261.68,173.91L262.76,172.67L262.92,173.08L263.07,173.3L263.23,172.02L264.32,165.36L264.47,166.11L264.63,167.42L264.78,167.83L264.94,167.42L265.09,166.47L266.8,140.51L266.96,135.06L267.89,106.48L268.35,113.02L268.51,115.84L270.22,158.59L270.37,159.4L270.68,158.67L270.99,162.08L271.15,158.49L271.46,156.78L271.62,164.14L271.93,166.3L272.24,162.75L272.39,163.81L274.1,141.55L274.26,142.32L274.41,144.25L275.81,161.34L275.96,161.45L277.05,166.53L277.21,170.75L277.98,176.03L278.29,175.5L278.45,170.98L279.54,154.34L279.69,154.46L279.85,153.79L280.16,155.69L280.31,159.6L281.24,169.5L281.4,170.15L281.55,170.33L281.71,172.52L283.11,190.11L283.26,193.72L284.51,207.58L284.66,207.65L285.28,207.71L285.44,206.75L286.99,200.11L287.3,201.04L287.46,201.63L288.7,206.85L288.85,206.75L289.01,206.54L290.56,205.05L290.72,205.28L290.87,205.17L291.03,205.93L291.18,206.99L292.74,202.74L292.89,202.11L294.13,198.66L294.29,198.81L294.44,199.62L296.31,204.25L296.46,204.13L297.39,204.06L297.55,204.2L298.48,204.2L298.64,203.49L300.35,196.74L300.5,197.12L300.66,197.7L301.28,192.69L301.74,194.68L301.9,195.25L302.05,195.96L302.36,194.05L302.52,193.24L302.68,193.1L302.83,194.14L302.99,193.76L303.14,196.32L303.3,196.94L303.45,193.57L305.63,174.43L305.78,174.6L306.25,173.89L306.4,175.78L306.71,179.55L307.18,177.36L307.33,177.64L308.42,172.28L308.58,172.52L308.89,167.67L309.35,170.85L309.51,170.31L312.61,115.65L312.92,118.79L313.08,122.28L313.24,122.07L313.39,123.65L314.32,150.5L314.63,141.45L314.79,140.9L315.25,142.05L316.03,112.14L316.5,117.72L316.65,118.28L316.96,121.59L317.58,121.22L317.74,119.27L320.22,160.6L320.38,159.66L321.31,152.8L321.47,154.71L321.62,157.52L323.17,168.52L323.33,167.77L324.42,154.12L324.57,155.52L324.73,156.49L325.04,160.75L325.5,158.37L325.66,156.39L325.97,155.25L326.12,157.33L326.28,159.21L329.23,203.2L329.39,204.37L330.63,206.76L330.78,206.58L331.09,206.97L331.25,206.26L331.41,205.65L332.49,204.54L332.65,204.65L332.96,205.05L333.11,205.59L334.2,206.82L334.36,206.77L334.51,206.95L334.82,206.44L334.98,206.34L337.15,204.15L337.31,203.07L338.39,194.42L339.01,194.9L339.17,195.53L339.79,198.03L339.95,199.43L340.26,201.38L340.72,200.32L340.88,200.16L342.12,199.51L342.28,201.11L343.21,203L343.36,202.56L343.52,202L343.98,200.01L344.14,199L345.07,196.65L345.23,196.98L345.38,197.38L345.54,197.85L345.69,196.94L345.85,197.31L346,193.51L347.56,171.67L347.87,175.3L348.02,176.4L348.18,179.04L348.49,175.95L348.64,174.18L349.26,184.3L349.73,181.71L349.89,181.75L350.2,181.17L350.51,181.38L350.66,182.27L351.28,184.36L351.59,184.19L351.75,183.78L353.77,163.89L353.92,164.73L354.08,166.77L354.23,168.49L354.54,163.55L354.7,161.5L356.25,138.41L356.41,139.53L356.56,133.98L357.34,114.06L357.65,119.8L357.81,123.25L358.12,117.37L359.05,144.8L359.36,139.49L359.51,135.91L360.91,116.06L361.07,126.72L362.78,155.02L363.09,152.47L363.24,150.88L363.55,150.29L363.71,151.56L363.86,153.71L365.1,159.25L365.26,158.58L365.42,158.51L365.88,155.34L366.19,157.74L366.35,159.59L366.5,159.11L366.66,162.53L367.59,169.91L367.74,168.28L367.9,167.49L368.06,167.31L368.21,165.19L368.52,162.8L368.68,159.4L368.83,159.55L368.99,157.25L369.45,152.98L369.76,154.37L369.92,154.96L370.54,156.9L370.7,158.88L372.4,186.52L372.56,190L373.96,204.85L374.11,205.43L374.73,205.85L374.89,205.09L376.44,205.12L376.6,205.36L376.91,205.75L377.37,205.36L377.53,205.41L378.46,205.47L378.62,205.62L378.77,204.49L379.39,205.26L379.55,205.31L379.86,205.46L380.17,205L380.32,204.74L380.63,206.45L380.79,205.82L380.95,205.33L381.88,202.21L382.03,201.19L383.27,198.37L383.43,198.58L383.59,199.06L385.45,203.9L385.6,203.65L386.85,203.32L387,204.22L387.31,203.95L387.62,204.57L387.78,204.5L388.09,203.95L388.24,202.7L389.8,195.5L389.95,195.85L390.11,196.89L390.42,198.14L390.57,198L390.73,195.26L391.51,194.17L391.66,191.52L391.82,191.43L391.97,190.31L392.44,176.39L392.9,176.45L393.06,174.61L393.37,171.2L393.83,171.99L393.99,179.97L394.92,175.74L395.08,175.92L395.23,175.88L395.39,174.82L395.54,174.66L395.7,175.4L395.85,177.13L396.32,179.7L396.63,179.09L396.79,178.06L397.41,178.16L397.72,175.85L397.87,176.59L398.49,169.72L398.65,172.45L398.8,172.44L399.11,171.05L399.27,167.88L401.13,134.93L401.29,124.57L401.91,107.28L402.22,112.4L402.38,114.36L403.77,159L403.93,154.17L404.08,147.56L404.24,148.91L404.39,148.27L404.55,144.41L405.17,125.16L405.33,118.01L405.64,107.86L405.95,120.66L406.1,123.47L406.41,123.96L406.57,126.84L406.72,126.21L406.88,128.72L407.04,134.71L410.3,173L410.45,172.07L410.92,171.29L411.54,177.28L411.69,173.93L412,174.52L412.16,172.59L412.47,172.2L412.63,168.72L413.87,150.23L414.18,154.16L414.33,156.1L415.89,174.28L416.04,175.05L417.44,193.12L417.6,195.02L419.15,207.11L419.3,206.86L419.46,206.82L421.01,203.07L421.32,203.54L421.48,203.25L423.03,206.29L423.19,206.07L424.27,204.37L424.43,204.56L424.58,204.74L425.05,204.18L425.2,205.63L425.36,205.78L425.67,205.25L425.83,205.17L426.91,202.46L427.22,202.6L427.38,202.51L429.24,199.67L429.4,199.95L430.64,200.81L430.8,200.81L431.57,199.6L431.73,200.62L432.81,202.46L433.13,202.04L433.28,201.09L434.52,195.49L434.83,196.47L434.99,196.78L435.14,196.23L435.45,197.7L435.61,198.64L436.08,201.22L436.39,199.56L436.54,199.11L437.47,194.95L437.63,191.41L439.18,177.73L439.34,177.38L440.42,180.25L440.58,180.01L440.73,179.87L440.89,179.55L441.2,179.97L441.36,180.62L441.82,178.24L441.98,180.47L442.13,181.26L442.29,180.46L442.6,181.98L442.75,181.88L442.91,170.89L443.06,170.23L443.22,170.56L443.37,172.59L443.69,173.92L443.84,172.34L444,169.44L444.62,162.37L444.77,169.2L446.01,137.55L446.17,127.01L446.64,112.29L447.1,118.16L447.26,122.19L448.19,148.15L448.65,142.74L448.81,142.18L448.97,142.63L449.12,140.22L450.21,120.53L450.36,126.38L450.52,130.86L450.67,127.17L451.14,133.26L451.29,133.06L454.25,165.45L454.4,166.12L455.95,157.37L456.11,158.39L456.26,160.13L457.51,169.37L457.66,168.65L457.82,165.59L459.84,122.18L459.99,124L461.08,143.35L461.23,148.31L462.79,178.56L462.94,179.28L466.05,190.41L466.2,189.91L466.36,189.68L466.51,190.92L467.45,189.12L467.6,189.28L467.76,189.57L468.22,188.64L468.38,188.32L468.53,188.09L468.69,183.01L470.4,150.93L470.55,154.19L471.79,178.03L472.1,176.79L472.26,175.02L474.59,143L474.74,142.54L477.07,138.41L477.23,138.9L478.32,141.78L478.47,142.31L479.87,148.78L480.02,150.2L480.96,154.82L481.11,154.6L481.27,152.77L483.44,140.57L483.6,139.99L485.62,129.37L485.77,128.98L487.01,127.64L487.17,125.16L487.79,128.5L487.95,126.23L488.1,126.02L488.26,127.04L488.41,124.81L488.57,121.19L489.19,109.28L489.34,97.74L490.43,38.6L490.74,41.04L490.9,49.05L492.14,118.24L492.6,117.21L492.76,117.23L494.16,86.74L494.31,85.65L495.55,110.72L495.71,108.33L495.87,87.78L496.18,61.98L496.64,71.14L496.8,74.72L497.88,119.12L498.19,111.81L498.35,109.14L498.66,106.86L498.82,100.86L498.97,100.66L499.13,102.38L499.28,108.27L499.59,95.49L499.75,89.34L500.68,59.74L500.83,60.41L500.99,62.02L501.46,50.39L501.61,53.19L501.77,76.91L503.01,119.66L503.16,122.3L503.94,142.21L504.1,141.03L504.25,139.42L504.56,138.19L504.87,138.81L505.03,141.38L507.51,173.05L507.67,171.78L507.82,169.38L510.31,141.83L510.46,143.01L510.93,149.69L511.24,147.1L511.4,146.17L512.33,139.62L512.48,139.48L513.88,137.45L514.04,138.19L514.5,139.89L514.66,138.2L514.81,137.1L515.74,135.54L515.9,136.38L516.21,138.74L516.36,137.46L516.52,136.8L517.45,130.12L517.61,131.26L517.76,133.91L518.23,141.75L518.69,138.7L518.85,138.05L519,137.25L519.32,137.43L519.47,139.3L520.87,148.71L521.02,150.53L521.64,152.21L521.8,152.15L521.96,151.5L522.11,151.91L522.27,140.81L522.42,141.29L522.58,139.85L522.73,139.73L523.2,135.76L523.51,136.33L523.66,138.63L523.97,138.74L524.13,146.06L525.37,144.4L525.53,141.16L525.68,141.03L525.84,138.62L528.32,127.64L528.48,128.01L528.63,128.64L529.1,132.96L529.41,130.82L529.56,129.06L529.88,129.63L530.03,127.6L531.89,114.24L532.2,115.7L532.36,117.95L532.52,118.38L532.67,122.4L533.91,138.77L534.07,137.85L534.22,136.05L534.38,138.04L534.69,135.62L534.84,136.27L535,135.27L535.16,135.63L535.31,134.99L535.47,134.2L535.78,136.12L535.93,138.56L536.86,151.23L537.33,150.13L537.49,149.81L537.64,147.84L538.11,149.86L538.26,151.38L538.42,154.57L538.73,150.07L538.88,147.37L539.04,145.29L539.35,148.15L539.5,149.8L539.97,145.42L540.13,141.44L540.44,136.59L540.75,139.63L540.9,141.7L541.52,137.1L541.68,139.45L541.83,142.15L543.39,155.34L543.54,155.3L543.7,154.08L544.32,157.76L544.47,160.4L548.67,199.65L548.82,198.31L550.37,190.51L550.53,190.84L550.69,191.66L550.84,192.29L551.15,191.33L551.46,191.73L551.62,191.79L551.77,191.76L551.93,193.84L552.39,195.26L552.55,196.05L553.48,202.27L553.64,203.5L554.57,204.64L554.72,204.88L555.5,203.97L555.65,203.35L556.74,199.08L556.9,198.11L557.98,194.04L558.14,194.31L558.29,195.01L560.62,204.9L560.78,204.62L562.33,204.93L562.49,204.41L562.8,204.37L562.95,203.93L563.11,203.44L564.66,200.3L564.82,200.36L564.97,200.56L565.28,199.87L565.44,199.46L565.75,199.84L566.37,198.62L566.53,193.48L566.84,190.01L567.3,191.05L567.46,190.17L568.23,182.81L568.39,187.75L568.54,189.25L568.7,187.84L568.86,174.14L569.32,135.16L569.94,139.18L570.1,138.94L570.56,136.17L570.72,150.1L571.18,185.03L571.81,182.18L571.96,181.3L572.12,182.44L572.43,181.48L572.58,180.19L572.89,182.39L573.05,178.32L573.36,176.13L573.82,177.79L573.98,176.72L575.38,150.29L575.53,146.4L576.62,121.09L576.78,115.57L577.09,97.62L577.55,105.83L577.71,103.25L578.79,154.9L579.1,140.95L579.26,140.5L579.57,140.63L580.5,123.8L580.66,118.01L582.68,165.97L582.83,166.15L582.99,166.41L583.14,172.08L583.92,183.36L584.07,182.83L584.23,172.37L585.78,160.38L585.94,160.87L586.09,171.56L587.65,185.17L587.8,185.97L587.96,187.25L588.11,183.47L588.27,178.38L589.2,149.38L589.35,149.48L589.82,148.07L589.98,152.63L591.68,194L591.84,195.23L593.08,201.29L593.24,201.22L593.39,201.05L594.48,197.49L594.63,196.8L595.26,193.84L595.72,194.25L595.88,193.56L596.5,191L596.81,191.59L596.96,192.08L600.07,206.16L600.23,205.87L600.38,205.83L601.16,205.3L601.31,204.62L602.71,201.36L602.87,200.97L604.42,203.46L604.57,203.98L605.19,202.85L605.35,203.14L605.51,203.15L605.82,203.03L605.97,202.5L606.44,201.23L606.59,202.7L606.75,202.78L608.15,202.75L608.3,202.27L609.39,197.58L609.54,198.04L609.7,197.94L610.32,200.7L610.47,202.21L611.1,199.55L611.25,198.14L611.56,197.22L611.72,187.22L612.34,180.8L612.65,183.21L612.8,184.48L613.27,185.37L613.43,183.27L613.58,190.14L614.2,186.16L614.36,185.82L615.13,173.39L615.29,176.35L615.44,180.44L616.38,189.59L616.53,189.85L617.62,185.86L617.77,175.17L620.1,144.03L620.26,145.35L620.88,127.2L621.04,122.32L621.35,117.37L621.5,101.1L621.66,90.12L622.12,99.34L622.28,102.31L623.36,127.04L623.52,133.23L624.14,124.99L624.45,128.34L624.61,138.14L624.76,138.16L624.92,133.16L625.07,131.47L625.23,132.91L625.38,136.72L626,153.57L626.47,149.13L626.63,146.43L626.94,152.34L627.09,143.7L628.96,179.26L629.42,178.48L629.58,177.64L629.73,177.81L629.89,176.72L630.2,173.33L630.35,170.25L630.51,169.94L630.66,170.56L630.82,171.38L631.13,175.03L631.6,174.57L631.75,173.45L632.53,181.64L632.68,180.75L632.84,178.8L633.46,165.89L633.92,167.99L634.08,169.26L634.7,172.58L634.86,175.48L635.48,187.64L635.94,186.87L636.1,187.26L637.65,200.9L637.81,202.04L639.05,205.93L639.2,205.82L641.07,195.82L641.53,196.17L641.69,196.31L641.85,196.15L642,196.48L642.16,198.47L643.55,205.83L643.71,205.52L644.49,205.63L644.64,205.39L644.8,205.16L645.73,204.06L645.88,202.93L647.59,195.89L647.75,196.41L647.9,196.78L650.54,204.29L650.7,204.2L651.78,205.27L651.94,205.13L652.09,204.68L652.87,203.05L653.03,202.32L653.49,200L653.96,200.58L654.11,200.86L655.36,202.66L655.51,202.41L655.67,202.4L656.29,198.5L656.44,186.31L657.69,178.15L658.15,179.45L658.31,191.21L658.93,188.94L659.24,189.61L659.39,189.38L660.79,182.47L660.95,178.48L661.88,175.79L662.03,175.89L662.19,176.44L662.34,176.21L662.5,167.86L662.65,167.33L662.81,170.67L663.28,172.13L663.43,171.55L663.59,169.33L665.61,138.87L665.76,129.51L666.38,114.1L666.69,118.41L666.85,123.06L667.31,116.74L668.09,148.46L668.25,141.73L668.4,141.04L668.56,142.94L668.71,140.5L668.87,136.77L669.18,148.71L669.49,142.75L669.64,134.97L670.58,116.28L670.73,118.37L670.89,119.35L671.04,119.15L671.2,120.4L671.51,125.11L671.66,114.85L672.59,136.86L673.22,136.64L673.37,136.43L674.15,151.39L674.3,150.66L674.46,150.52L675.39,158.5L675.54,156.02L676.63,167.91L676.79,164.69L676.94,160.39L677.25,159.12L677.41,157.32L678.5,144.98L678.65,148.59L679.58,153.7L679.74,155.84L681.6,180.76L681.76,184.25L683.46,202.44L683.62,202.83L684.24,203.27L684.4,202.95L684.55,203.1L685.02,202.36L685.17,203.06L685.33,203.11L685.95,201.98L686.1,202.35L686.26,202.83L686.57,202.66L686.73,203.04L686.88,203.42L687.5,203.31L687.66,204.16L687.81,204.79L688.28,204.41L688.43,203.1L689.52,203.37L689.68,203.01L691.38,195.88L691.54,194.54L692.47,187.71L692.78,188.81L692.94,189.55L694.03,199.68L694.49,197.74L694.65,197.53L695.89,196.38L696.04,199.15L696.98,198.69L697.13,198.17L698.68,190.53L698.84,190.89L698.99,191.15L699.15,191.55L699.31,190.71L699.46,189.89L700.86,176.03L701.01,175.35L701.32,161.85L701.79,169.08L701.95,170.47L703.03,184.9L703.34,180.41L703.5,179.09L703.65,178.96L703.81,176.31L704.27,166.28L704.59,167.89L704.74,168.53L705.36,172.37L705.67,171.79L705.83,174.55L708,143.61L708.16,142.11L708.78,137.08L709.09,140.38L709.24,140.34L709.87,137.27L710.02,131.3L710.18,129.82L710.49,130.98L710.64,134.06L710.8,133.25L710.95,124.02L711.11,120.44L711.57,126.76L711.73,129.81L711.88,129.48L712.04,134.92L712.19,134.82L712.35,131.37L712.51,130.93L712.66,132.47L712.82,134.87L713.59,114.24L713.75,122.55L713.9,123.44L714.52,114.37L714.83,118.78L714.99,127.18L716.08,143.27L716.23,133.7L716.54,136.05L716.7,137.57L717.01,129.31L717.47,131.87L717.63,134.52L717.94,136.88L718.1,148.16L718.87,155.73L719.03,154.22L719.18,153.23L719.34,153.33L719.49,150.07L719.65,149.14L719.8,150.74L719.96,150.47L720.12,152.69L720.43,150.08L720.74,152.9L720.89,153.53L721.51,159.67L721.67,155.95L721.82,152.43L722.91,143.53L723.07,142.78L723.69,155.05L724,152.27L724.15,150.58L724.77,154.7L724.93,157.17L728.35,200.53L728.5,200.98L728.66,201.38L729.28,200.96L729.43,201.15L731.61,203.22L731.76,203.01L731.92,203.01L732.23,202.65L732.69,203.01L732.85,203.26L734.25,206.63L734.56,206.07L734.71,205.72L736.11,201.44L736.27,199.97L737.2,193.46L737.51,193.52L737.66,193.93L738.28,197.37L738.44,198.47L739.22,200.09L739.37,199.87L739.53,199.47L741.7,197.8L741.86,197.19L742.63,195.05L742.79,195.11L742.94,195.56L743.1,195.77L743.25,194.95L743.41,194.8L743.88,196.95L744.03,197.76L744.19,198.95L744.5,197.57L744.65,197.65L744.81,197.64L745.43,197.05L745.58,196.61L746.98,188.86L747.14,187.94L747.45,186.84L747.6,185.17L748.53,170.18L748.69,170.44L749.16,167.65L749.47,168.56L749.62,177.14L750.09,180.33L750.55,179.92L750.71,179.65L751.02,180.4L751.8,171.94L751.95,170.51L753.19,160.14L753.35,162.02L754.75,138.28L754.9,135.08L755.68,116.65L755.99,122.47L756.14,124.16L757.54,160.2L757.7,150.18L757.85,147.37L758.01,147.31L758.16,142.9L759.25,124.1L759.41,123.26L760.18,144.76L760.34,144.3L760.49,144.55L760.96,142.81L761.11,141.46L761.58,138.74L762.05,140.06L762.2,140.26L762.51,140.61L762.67,143.2L762.82,143.79L762.98,142L763.13,143.01L763.29,141.56L763.44,142.11L763.6,140.36L763.75,138.98L764.06,139.66L764.37,138.25L764.53,139.13L764.69,139.87L766.24,158.63L766.39,153.17L767.79,115.47L767.95,119L768.1,121.97L768.26,124.72L768.72,120.62L768.88,119.84L769.65,126.67L769.97,126.49L770.12,126.76L770.28,125.67L770.59,128.15L770.74,129.95L770.9,129.6L771.05,130.18L771.21,132.64L772.14,140.01L772.45,138.48L772.61,137.65L773.85,135.69L774,136.91L775.09,139.19L775.25,138.16L776.8,134.72L776.95,133.77L778.35,132.4L778.51,133.18L779.44,131.16L779.59,132.04L779.75,132.79L780.84,134.31L780.99,135.47L781.46,139.05L781.61,142.44L783.17,152.98L783.32,151.98L783.79,136.64L784.25,139.35L784.41,139.95L784.72,133.89L785.18,136.64L785.34,136.69L785.5,137.02L785.65,144.67L787.05,137.77L787.2,137.48L787.67,133.4L787.98,136.05L788.14,134.98L788.6,132.07L788.76,133.02L788.91,134.18L789.84,128.62L790,126.21L791.09,128.21L791.24,127.48L791.4,127.44L792.02,122.91L792.33,124.25L792.48,125.06L792.64,125.49L792.79,124.69L792.95,123.88L793.26,120.69L793.57,124.58L793.73,126.03L793.88,124.87L794.19,126.88L794.35,128.1L795.28,134.76L795.43,132.11L795.59,129.75L796.52,120.27L796.68,120.64L796.83,107.04L798.07,73.61L798.23,74.53L798.54,78.57L798.7,91.37L799.32,121.85L799.78,119.03L799.94,115.58L800.09,115.5L800.25,114.39L800.56,114.64L800.71,113.35L801.03,113.42L801.18,114.65L801.96,111.14L802.11,100.79L802.42,83.77L802.89,87.12L803.04,92.47L806.31,174.35L806.46,172.26L809.1,138.84L809.26,138.05L809.57,137.1L809.72,140.5L810.65,142.59L810.81,143.53L811.27,147.29L811.43,149.99L813.76,178.75L813.91,179.71L814.38,182.56L814.54,182.08L814.69,179.93L816.55,161.16L816.71,163.04L816.87,165.63L817.02,168.21L817.33,165.4L817.49,162.32L818.88,149.31L819.04,150.08L819.19,151.2L819.51,149.72L819.97,151.02L820.13,151.6L820.44,153.91L820.75,152.57L820.9,151.55L821.83,146.75L821.99,147.33L822.15,147.73L823.85,143.59L824.01,144.02L825.25,153.3L825.41,153.64L826.96,165.04L827.12,164.44L827.27,163.99L827.89,167.04L828.05,165.97L828.2,165.41L828.36,165.26L828.51,166.35L829.13,168.86L829.29,167.19L829.44,166.12L831.15,158.73L831.31,158.42L832.08,157.23L832.24,159.53L832.71,161.21L833.02,160.72L833.17,161.13L833.48,161.78L833.64,162.59L833.95,158.89L834.1,155.63L835.19,144.15L835.35,144.51L835.5,144.16L835.81,141.01L835.97,128.66L837.36,114.81L837.52,114.58L837.68,112.88L837.83,122.42L837.99,122.91L838.14,119.03L838.3,119.16L838.45,121.14L840.16,160.2L840.47,156.12L840.63,156.89L841.4,141.31L841.87,142.15L842.02,144.89L843.11,154.77L843.27,151.87L844.04,148.25L844.2,150.04L845.6,160.28L845.75,159.59L847.46,141.91L847.61,142.27L847.77,143.61L848.08,144.9L848.24,138.35L848.7,130.03L849.01,133.34L849.17,134.51L849.48,134.13L849.94,135.7L850.1,143.83L851.34,166.89L851.5,167.25L852.43,179.82L852.58,181.7L853.05,184.48L853.21,183.27L853.36,180.28L855.22,11L855.53,20.35L855.69,21.04L856.78,68.23L856.93,70.11L857.24,61.3L857.4,64.99L857.55,69.35L857.86,76.95L858.02,84.65L859.42,159.71L859.57,163.86L861.13,194.89L861.28,195.32L861.44,195.54L861.59,197.16L863.3,206.39L863.45,206.37L864.08,205.66L864.23,205.52L865.16,207.2L865.32,207.45L866.09,208.8L866.41,208.27L866.56,208.29L867.96,208L868.11,209L869.36,208.02L869.51,208.2L869.67,208.13L870.29,208.27L870.44,207.63L870.91,207.24L871.06,206.39L872.77,195.64L873.08,196.23L873.24,196.87L874.01,201.08L874.33,200.07L874.48,199.14L874.95,201.58L875.1,199.33L875.26,197.83L876.34,191.67L876.5,189.29L876.66,188.58L876.81,188.65L876.97,190.62L877.9,192.12L878.05,191.9L878.21,191.09L878.36,193.58L878.52,193.93L881.31,161.2L881.47,157.34L883.18,110.4L883.64,115.5L883.8,118.51L884.89,144.34L885.04,144.26L885.2,142.52L885.35,142.72L885.51,141.52L885.66,139.92L885.97,144.1L886.13,140.86L886.28,147.34L886.59,148.57L886.75,154.66L887.84,170.75L887.99,170.3L888.15,169.13L889.08,157.04L889.23,157.25L889.39,157.28L889.54,156.09L890.01,153.63L890.17,161.24L890.32,161.69L890.48,159.85L890.63,159.45L890.79,159.59L890.94,161.84L891.56,157.58L891.87,159.53L892.03,160.45L892.65,168.05L892.81,157.12L892.96,156.6L893.12,157.33L893.27,160.07L893.43,163.91L893.74,154.72L893.89,152.61L894.2,149.44L894.36,144.08L894.51,141.81L894.67,151.38L899.48,205.66L899.64,205.64L900.73,202.64L900.88,201.17L902.59,193.62L902.75,194.46L904.92,204.46L905.07,204.22L905.23,204.49L906.63,202.8L906.78,202.86L909.11,208.21L909.27,208.07L910.2,208.27L910.35,208.34L910.82,208.56L910.98,207.62L911.75,207.37L911.91,207.11L912.68,206.18L912.84,207.12L913.46,207.34L913.62,207.14L913.77,207.05L914.86,205.55L915.01,204.68L915.48,203.01L915.63,202.24L916.1,200.63L916.26,199.17L916.57,198.28L916.72,194.56L917.34,196.3L917.5,194.83L917.65,195.08L917.81,195.3L917.96,188.85L918.43,190.49L918.59,194.09L919.67,186.84L919.83,191.56L920.91,185.3L921.07,184.02L922.93,188.29L923.09,187.78L925.42,171.78L925.57,167.63L927.28,136.92L927.44,134.64L927.9,121.48L928.21,126.76L928.37,128.8L929.61,155.18L929.92,147.98L930.08,147.91L930.54,137.29L930.7,145.18L930.85,146.19L931.01,148L931.16,144.43L931.32,140.31L931.79,156.74L931.94,159.23L932.41,168.59L932.72,166.63L932.87,165.18L933.49,153.7L933.8,153.93L933.96,154.38L934.43,152.13L934.74,153.96L934.89,156.99L935.2,167.64L935.67,166.07L935.82,165.24L936.13,165.87L937.07,160.99L937.22,161.46L937.38,163.87L937.53,161.98L937.84,166.34L938,163.65L938.15,165.97L938.46,165.07L938.62,160.77L938.93,161.52L939.08,162.8L939.24,161.5L939.4,164.92L939.55,164.87L939.71,163.99L940.79,174.53L940.95,173.22L941.26,173.11L941.41,174.12L941.57,174.19L941.72,175.31L941.88,176.43" style="vector-effect: none; fill: none; stroke: rgb(99, 110, 250); stroke-opacity: 1; stroke-width: 2px; opacity: 1;"/></g><g class="points"/><g class="text"/></g></g></g><g class="overplot"><g class="xy2" transform="translate(80,100)" clip-path="url(#clip307ec1xy2plot)"><g class="scatterlayer mlayer"><g class="trace scatter tracec61fb6" style="stroke-miterlimit: 2; opacity: 1;"><g class="fills"/><g class="errorbars"/><g class="lines"><path class="js-line" d="M0,209L489.65,209L489.81,11L491.05,11L491.21,209L496.02,209L496.18,11L497.11,209L497.26,209L500.06,209L500.21,11L501.61,11L501.77,209L854.29,209L854.45,11L856,11L856.16,209L856.62,11L856.78,209L856.93,209L857.09,209L857.24,11L857.4,11L857.55,209L941.88,209" style="vector-effect: none; fill: none; stroke: rgb(239, 85, 59); stroke-opacity: 1; stroke-width: 2px; opacity: 1;"/></g><g class="points"/><g class="text"/></g></g></g></g><path class="xlines-above crisp" d="M0,0" style="fill: none;"/><path class="ylines-above crisp" d="M0,0" style="fill: none;"/><g class="overlines-above"><path class="xy2-x crisp" d="M0,0" style="fill: none;"/><path class="xy2-y crisp" d="M0,0" style="fill: none;"/></g><g class="xaxislayer-above"><g class="xtick"><text text-anchor="middle" x="0" y="333" transform="translate(80,0)" style="font-family: 'Open Sans', verdana, arial, sans-serif; font-size: 12px; fill: rgb(42, 63, 95); fill-opacity: 1; white-space: pre; opacity: 1;">0</text></g><g class="xtick"><text text-anchor="middle" x="0" y="333" style="font-family: 'Open Sans', verdana, arial, sans-serif; font-size: 12px; fill: rgb(42, 63, 95); fill-opacity: 1; white-space: pre; opacity: 1;" transform="translate(235.3,0)">1000</text></g><g class="xtick"><text text-anchor="middle" x="0" y="333" style="font-family: 'Open Sans', verdana, arial, sans-serif; font-size: 12px; fill: rgb(42, 63, 95); fill-opacity: 1; white-space: pre; opacity: 1;" transform="translate(390.6,0)">2000</text></g><g class="xtick"><text text-anchor="middle" x="0" y="333" style="font-family: 'Open Sans', verdana, arial, sans-serif; font-size: 12px; fill: rgb(42, 63, 95); fill-opacity: 1; white-space: pre; opacity: 1;" transform="translate(545.89,0)">3000</text></g><g class="xtick"><text text-anchor="middle" x="0" y="333" style="font-family: 'Open Sans', verdana, arial, sans-serif; font-size: 12px; fill: rgb(42, 63, 95); fill-opacity: 1; white-space: pre; opacity: 1;" transform="translate(701.19,0)">4000</text></g><g class="xtick"><text text-anchor="middle" x="0" y="333" style="font-family: 'Open Sans', verdana, arial, sans-serif; font-size: 12px; fill: rgb(42, 63, 95); fill-opacity: 1; white-space: pre; opacity: 1;" transform="translate(856.49,0)">5000</text></g><g class="xtick"><text text-anchor="middle" x="0" y="333" style="font-family: 'Open Sans', verdana, arial, sans-serif; font-size: 12px; fill: rgb(42, 63, 95); fill-opacity: 1; white-space: pre; opacity: 1;" transform="translate(1011.79,0)">6000</text></g></g><g class="yaxislayer-above"><g class="ytick"><text text-anchor="end" x="79" y="4.199999999999999" transform="translate(0,312.84000000000003)" style="font-family: 'Open Sans', verdana, arial, sans-serif; font-size: 12px; fill: rgb(42, 63, 95); fill-opacity: 1; white-space: pre; opacity: 1;">0</text></g><g class="ytick"><text text-anchor="end" x="79" y="4.199999999999999" style="font-family: 'Open Sans', verdana, arial, sans-serif; font-size: 12px; fill: rgb(42, 63, 95); fill-opacity: 1; white-space: pre; opacity: 1;" transform="translate(0,257.26)">0.02</text></g><g class="ytick"><text text-anchor="end" x="79" y="4.199999999999999" style="font-family: 'Open Sans', verdana, arial, sans-serif; font-size: 12px; fill: rgb(42, 63, 95); fill-opacity: 1; white-space: pre; opacity: 1;" transform="translate(0,201.67000000000002)">0.04</text></g><g class="ytick"><text text-anchor="end" x="79" y="4.199999999999999" style="font-family: 'Open Sans', verdana, arial, sans-serif; font-size: 12px; fill: rgb(42, 63, 95); fill-opacity: 1; white-space: pre; opacity: 1;" transform="translate(0,146.09)">0.06</text></g></g><g class="overaxes-above"><g class="xy2-x"/><g class="xy2-y"><g class="y2tick"><text text-anchor="start" x="1022.88" y="4.199999999999999" transform="translate(0,309)" style="font-family: 'Open Sans', verdana, arial, sans-serif; font-size: 12px; fill: rgb(42, 63, 95); fill-opacity: 1; white-space: pre; opacity: 1;">0</text></g><g class="y2tick"><text text-anchor="start" x="1022.88" y="4.199999999999999" style="font-family: 'Open Sans', verdana, arial, sans-serif; font-size: 12px; fill: rgb(42, 63, 95); fill-opacity: 1; white-space: pre; opacity: 1;" transform="translate(0,269.4)">0.2</text></g><g class="y2tick"><text text-anchor="start" x="1022.88" y="4.199999999999999" style="font-family: 'Open Sans', verdana, arial, sans-serif; font-size: 12px; fill: rgb(42, 63, 95); fill-opacity: 1; white-space: pre; opacity: 1;" transform="translate(0,229.8)">0.4</text></g><g class="y2tick"><text text-anchor="start" x="1022.88" y="4.199999999999999" style="font-family: 'Open Sans', verdana, arial, sans-serif; font-size: 12px; fill: rgb(42, 63, 95); fill-opacity: 1; white-space: pre; opacity: 1;" transform="translate(0,190.2)">0.6</text></g><g class="y2tick"><text text-anchor="start" x="1022.88" y="4.199999999999999" style="font-family: 'Open Sans', verdana, arial, sans-serif; font-size: 12px; fill: rgb(42, 63, 95); fill-opacity: 1; white-space: pre; opacity: 1;" transform="translate(0,150.6)">0.8</text></g><g class="y2tick"><text text-anchor="start" x="1022.88" y="4.199999999999999" style="font-family: 'Open Sans', verdana, arial, sans-serif; font-size: 12px; fill: rgb(42, 63, 95); fill-opacity: 1; white-space: pre; opacity: 1;" transform="translate(0,111)">1</text></g></g></g></g><g class="subplot xy2"/></g><g class="polarlayer"/><g class="smithlayer"/><g class="ternarylayer"/><g class="geolayer"/><g class="funnelarealayer"/><g class="pielayer"/><g class="iciclelayer"/><g class="treemaplayer"/><g class="sunburstlayer"/><g class="glimages"/><defs id="topdefs-307ec1"><g class="clips"/><clipPath id="legend307ec1"><rect width="86" height="48" x="0" y="0"/></clipPath></defs><g class="layer-above"><g class="imagelayer"/><g class="shapelayer"/></g><g class="infolayer"><g class="legend" pointer-events="all" transform="translate(1102.04,100)"><rect class="bg" shape-rendering="crispEdges" style="stroke: rgb(68, 68, 68); stroke-opacity: 1; fill: rgb(255, 255, 255); fill-opacity: 1; stroke-width: 0px;" width="86" height="48" x="0" y="0"/><g class="scrollbox" transform="" clip-path="url(#legend307ec1)"><g class="groups"><g class="traces" transform="translate(0,14.5)" style="opacity: 1;"><text class="legendtext" text-anchor="start" x="40" y="4.680000000000001" style="font-family: 'Open Sans', verdana, arial, sans-serif; font-size: 12px; fill: rgb(42, 63, 95); fill-opacity: 1; white-space: pre;">y_pred</text><g class="layers" style="opacity: 1;"><g class="legendfill"/><g class="legendlines"><path class="js-line" d="M5,0h30" style="fill: none; stroke: rgb(99, 110, 250); stroke-opacity: 1; stroke-width: 2px;"/></g><g class="legendsymbols"><g class="legendpoints"/></g></g><rect class="legendtoggle" x="0" y="-9.5" width="80.390625" height="19" style="fill: rgb(0, 0, 0); fill-opacity: 0;"/></g><g class="traces" transform="translate(0,33.5)" style="opacity: 1;"><text class="legendtext" text-anchor="start" x="40" y="4.680000000000001" style="font-family: 'Open Sans', verdana, arial, sans-serif; font-size: 12px; fill: rgb(42, 63, 95); fill-opacity: 1; white-space: pre;">labels</text><g class="layers" style="opacity: 1;"><g class="legendfill"/><g class="legendlines"><path class="js-line" d="M5,0h30" style="fill: none; stroke: rgb(239, 85, 59); stroke-opacity: 1; stroke-width: 2px;"/></g><g class="legendsymbols"><g class="legendpoints"/></g></g><rect class="legendtoggle" x="0" y="-9.5" width="80.390625" height="19" style="fill: rgb(0, 0, 0); fill-opacity: 0;"/></g></g></g><rect class="scrollbar" rx="20" ry="3" width="0" height="0" style="fill: rgb(128, 139, 164); fill-opacity: 1;" x="0" y="0"/></g><g class="g-gtitle"/><g class="g-xtitle"/><g class="g-ytitle"><text class="ytitle" transform="rotate(-90,27.981250000000003,210)" x="27.981250000000003" y="210" text-anchor="middle" style="font-family: 'Open Sans', verdana, arial, sans-serif; font-size: 14px; fill: rgb(42, 63, 95); opacity: 1; font-weight: normal; white-space: pre;">prediction score</text></g><g class="g-y2title"/></g></svg>