<svg class="main-svg" xmlns="http://www.w3.org/2000/svg" xmlns:xlink="http://www.w3.org/1999/xlink" width="1200" height="400" style="" viewBox="0 0 1200 400"><rect x="0" y="0" width="1200" height="400" style="fill: rgb(255, 255, 255); fill-opacity: 1;"/><defs id="defs-0c9a99"><g class="clips"><clipPath id="clip0c9a99xyplot" class="plotclip"><rect width="941.88" height="220"/></clipPath><clipPath id="clip0c9a99xy2plot" class="plotclip"><rect width="941.88" height="220"/></clipPath><clipPath class="axesclip" id="clip0c9a99x"><rect x="80" y="0" width="941.88" height="400"/></clipPath><clipPath class="axesclip" id="clip0c9a99y"><rect x="0" y="100" width="1200" height="220"/></clipPath><clipPath class="axesclip" id="clip0c9a99xy"><rect x="80" y="100" width="941.88" height="220"/></clipPath><clipPath class="axesclip" id="clip0c9a99y2"><rect x="0" y="100" width="1200" height="220"/></clipPath><clipPath class="axesclip" id="clip0c9a99xy2"><rect x="80" y="100" width="941.88" height="220"/></clipPath></g><g class="gradients"/><g class="patterns"/></defs><g class="bglayer"><rect class="bg" x="80" y="100" width="941.88" height="220" style="fill: rgb(229, 236, 246); fill-opacity: 1; stroke-width: 0;"/></g><g class="layer-below"><g class="imagelayer"/><g class="shapelayer"/></g><g class="cartesianlayer"><g class="subplot xy"><g class="layer-subplot"><g class="shapelayer"/><g class="imagelayer"/></g><g class="minor-gridlayer"><g class="x"/><g class="y"/><g class="y2"/></g><g class="gridlayer"><g class="x"><path class="xgrid crisp" transform="translate(166.74,0)" d="M0,100v220" style="stroke: rgb(255, 255, 255); stroke-opacity: 1; stroke-width: 1px;"/><path class="xgrid crisp" transform="translate(299.39,0)" d="M0,100v220" style="stroke: rgb(255, 255, 255); stroke-opacity: 1; stroke-width: 1px;"/><path class="xgrid crisp" transform="translate(432.03,0)" d="M0,100v220" style="stroke: rgb(255, 255, 255); stroke-opacity: 1; stroke-width: 1px;"/><path class="xgrid crisp" transform="translate(564.6800000000001,0)" d="M0,100v220" style="stroke: rgb(255, 255, 255); stroke-opacity: 1; stroke-width: 1px;"/><path class="xgrid crisp" transform="translate(697.33,0)" d="M0,100v220" style="stroke: rgb(255, 255, 255); stroke-opacity: 1; stroke-width: 1px;"/><path class="xgrid crisp" transform="translate(829.97,0)" d="M0,100v220" style="stroke: rgb(255, 255, 255); stroke-opacity: 1; stroke-width: 1px;"/><path class="xgrid crisp" transform="translate(962.62,0)" d="M0,100v220" style="stroke: rgb(255, 255, 255); stroke-opacity: 1; stroke-width: 1px;"/></g><g class="y"><path class="ygrid crisp" transform="translate(0,233.74)" d="M80,0h941.88" style="stroke: rgb(255, 255, 255); stroke-opacity: 1; stroke-width: 1px;"/><path class="ygrid crisp" transform="translate(0,158.36)" d="M80,0h941.88" style="stroke: rgb(255, 255, 255); stroke-opacity: 1; stroke-width: 1px;"/></g><g class="y2"><path class="y2grid crisp" transform="translate(0,269.4)" d="M80,0h941.88" style="stroke: rgb(255, 255, 255); stroke-opacity: 1; stroke-width: 1px;"/><path class="y2grid crisp" transform="translate(0,229.8)" d="M80,0h941.88" style="stroke: rgb(255, 255, 255); stroke-opacity: 1; stroke-width: 1px;"/><path class="y2grid crisp" transform="translate(0,190.2)" d="M80,0h941.88" style="stroke: rgb(255, 255, 255); stroke-opacity: 1; stroke-width: 1px;"/><path class="y2grid crisp" transform="translate(0,150.6)" d="M80,0h941.88" style="stroke: rgb(255, 255, 255); stroke-opacity: 1; stroke-width: 1px;"/><path class="y2grid crisp" transform="translate(0,111)" d="M80,0h941.88" style="stroke: rgb(255, 255, 255); stroke-opacity: 1; stroke-width: 1px;"/></g></g><g class="zerolinelayer"><path class="yzl zl crisp" transform="translate(0,309.12)" d="M80,0h941.88" style="stroke: rgb(255, 255, 255); stroke-opacity: 1; stroke-width: 2px;"/><path class="y2zl zl crisp" transform="translate(0,309)" d="M80,0h941.88" style="stroke: rgb(255, 255, 255); stroke-opacity: 1; stroke-width: 2px;"/></g><path class="xlines-below"/><path class="ylines-below"/><g class="overlines-below"><path class="xy2-x"/><path class="xy2-y"/></g><g class="xaxislayer-below"/><g class="yaxislayer-below"/><g class="overaxes-below"><g class="xy2-x"/><g class="xy2-y"/></g><g class="plot" transform="translate(80,100)" clip-path="url(#clip0c9a99xyplot)"><g class="scatterlayer mlayer"><g class="trace scatter trace463442" style="stroke-miterlimit: 2; opacity: 1;"><g class="fills"/><g class="errorbars"/><g class="lines"><path class="js-line" d="M0,162.87L0.46,153.84L0.61,145.82L0.77,145.94L0.92,143.83L2,134.07L2.3,135.35L2.46,143.14L3.38,163.6L3.53,167.53L5.22,183.84L5.37,183.16L5.68,182.17L5.83,183.41L5.99,185.19L6.29,185.6L6.45,183.37L6.76,182.62L6.91,184.26L7.06,184.36L7.52,186.72L7.68,185.96L7.83,183.86L8.44,180.92L8.6,176.19L9.52,154.14L9.98,155.78L10.13,155.87L10.9,177.59L11.05,184.83L12.44,203.09L12.59,203L12.74,202.71L13.82,199.69L13.97,198.68L17.5,159.61L17.81,160.11L17.96,159.74L18.27,160.02L18.42,161.02L20.11,166.45L20.27,166.85L20.57,168.44L20.73,168.15L20.88,167.16L21.19,165.93L21.49,166.7L21.65,167.44L22.26,167.18L22.57,169.3L22.72,171.33L24.1,181.62L24.56,180.09L24.72,179.62L25.33,177.31L25.49,175.81L25.95,172.16L26.41,172.53L26.56,171.95L26.87,171.81L27.02,170.01L29.63,183.18L29.78,182.67L30.4,182.95L30.55,183.62L31.47,187.08L31.63,185.96L32.55,165.89L32.7,162.58L33.93,148.29L34.08,150.52L34.7,165.66L34.85,169.04L35.62,182.59L35.77,190.27L36.54,195.64L36.85,195.17L37,194.8L37.61,193.82L37.77,195.09L38.53,194.17L38.69,194.65L38.84,195.17L39.46,196.8L39.92,196.2L40.07,196.45L40.38,196.25L41.61,200.94L41.76,202.05L42.53,206.39L42.68,203.08L42.83,203.23L42.99,198.58L44.68,147.7L44.83,146.19L46.06,126.8L46.21,127.65L46.36,128.58L46.67,128.58L46.83,133.15L48.97,176.89L49.13,178.4L49.44,180.17L49.74,177.44L49.9,177.58L51.74,189.24L51.89,188.48L53.27,168.26L53.43,160.2L53.89,153.99L54.35,156.16L54.5,156.27L55.12,172.29L55.27,181.75L56.65,202.63L56.8,202.47L57.27,202.13L57.42,201L58.03,198.51L58.19,196.97L61.26,167.09L61.41,166.42L62.02,166.57L62.18,166.3L62.48,166.36L62.64,166.79L62.79,167.48L63.41,167.01L63.56,166.03L63.87,166.82L64.02,167.44L64.33,168.54L64.63,167.15L64.79,167.41L66.32,159.4L66.63,160.62L66.78,161.55L69.24,184.06L69.39,186.11L69.55,187.43L70.01,185.3L70.16,184.52L71.08,179.41L71.24,177.59L72,177.48L72.16,178.43L73.23,181.73L73.39,181.31L74,179.84L74.15,180.01L74.31,180.59L74.77,181.35L74.92,182.2L75.69,184.65L75.84,183.17L77.84,145.93L77.99,146.61L78.14,149.25L78.76,157.04L78.91,160.56L80.45,180L80.6,177.97L80.75,178.19L81.37,176.45L81.52,177.31L81.68,177.77L81.83,177.87L81.98,180.74L82.29,179.29L83.06,185.56L83.21,185.63L83.36,185.56L83.52,186.21L83.67,187.79L83.98,187.71L84.13,185.27L85.21,189.79L85.36,189.57L85.51,188.51L85.82,189.33L85.97,196.34L86.13,195.3L86.59,196.8L86.74,197.44L88.58,153.61L88.74,154.55L88.89,150.26L89.04,150.86L89.2,148.2L90.43,136.61L90.58,136.92L92.27,170.96L92.42,170.69L92.58,170.32L92.88,172.2L93.04,169.26L94.26,175.49L94.42,176.99L94.73,177.32L94.88,181.77L95.34,181.68L95.49,182.38L95.95,182.93L96.11,182.02L96.26,179.9L97.64,154.86L97.8,151L98.1,152.45L98.41,151.48L98.56,150.43L99.18,160.97L99.33,167.44L100.56,197.73L100.71,200.93L101.33,202.71L101.48,202.69L101.63,201.93L102.56,197.37L102.71,195.44L105.93,162.14L106.09,162.2L106.24,162.08L106.39,160.56L107.78,155.12L107.93,155.36L109.31,161.16L109.46,161.12L110.69,157.99L110.85,159.75L113.76,187.99L114.22,186.19L114.38,184.95L115.45,178.05L115.91,178.98L116.07,178.93L117.29,182.09L117.45,181.51L117.6,180.89L118.37,180.26L118.52,180.75L118.68,181.16L119.29,184.84L119.44,185.99L120.21,179.7L120.36,177.26L121.44,155.31L121.75,155.72L121.9,156.5L122.82,169.63L122.97,172.74L124.2,185.89L124.36,184.36L124.66,185.97L125.12,184.76L125.28,184.72L126.35,192.07L126.51,189.01L127.89,194.82L128.19,193.8L128.35,191.23L128.5,191.21L128.65,190.36L128.96,189.37L129.27,190.71L129.42,191.66L129.88,193.11L130.04,193.85L130.96,204.92L131.11,205.85L131.26,206.08L131.42,196.45L132.8,159.68L132.95,156.96L133.72,144.84L133.87,149.61L134.8,144.11L134.95,148.55L137.1,180.88L137.25,182.24L138.48,190.44L138.63,191.35L140.78,201.33L140.94,198.93L142.16,182.68L142.32,183.03L142.47,182.91L142.63,183.26L142.78,182.06L144.62,206.8L144.77,207.39L145.08,207.58L145.24,206.55L146.46,205.05L146.62,204.98L146.92,204.88L147.08,205.6L147.85,206L148,205.89L148.15,205.8L148.92,204.84L149.07,204.19L149.53,202.62L149.69,200.26L151.22,190.1L151.38,189.33L153.22,199.9L153.37,200.15L154.75,201.68L154.91,201.94L156.75,203.22L156.9,202.9L158.28,202.54L158.44,202.47L159.21,203.17L159.36,203.34L162.28,204.31L162.43,204L164.12,201.57L164.27,199.15L165.65,183.21L165.81,183.12L165.96,183.14L166.11,184.69L166.42,188.79L166.58,184.54L166.88,186.44L167.04,186.86L167.34,186.6L167.5,185.78L168.26,185.26L168.42,191.12L169.19,188.37L169.34,190.28L169.65,191.27L169.8,189.99L169.95,188.7L170.72,182.02L171.18,182.7L171.33,182.66L171.49,182.47L171.64,183.12L171.8,183.44L172.41,187.08L172.56,193.13L175.17,206.81L175.33,206.96L175.48,206.88L175.63,202.87L176.09,203.24L176.25,201.73L177.32,191.42L177.48,194.55L177.78,194.67L177.94,193.77L178.09,192.99L178.55,193.4L178.7,195.26L179.01,197.14L179.47,195.83L179.63,190.68L179.78,190.86L179.93,184.78L180.85,173.76L181.01,173.95L181.16,174.79L181.31,174.55L181.47,180.53L181.62,181.39L181.77,190.08L182.85,208.93L183,208.96L184.23,208.5L184.38,208.31L185.92,180.25L186.07,174.7L187.61,149.26L187.76,151.61L188.84,168.76L188.99,166.22L189.14,161.63L190.22,149.11L190.37,150.17L190.53,151.31L191.29,169.57L191.45,173.8L193.14,204.62L193.29,205.27L193.44,205.57L193.6,205.21L193.75,203.95L195.44,197.59L195.59,188.77L196.36,187.02L196.51,187.21L196.67,187.26L197.13,188.05L197.28,189.62L197.74,200.04L198.05,192.64L198.2,192.25L199.43,184.37L199.58,182.7L199.74,182.32L199.89,184.87L200.35,184.07L200.5,186.11L200.97,186.81L201.12,187.56L203.27,203.8L203.42,204.26L205.57,205.53L205.72,205.32L205.88,205.32L206.49,204.85L206.65,204.05L208.49,202.33L208.64,200.75L210.18,188.09L210.33,188.5L210.48,189.44L210.64,190.14L210.79,185.4L211.1,185.95L211.25,188.74L212.17,195.08L212.33,195.25L212.48,195.44L212.63,201.2L213.71,203.15L213.86,203.38L215.7,205.64L215.86,205.03L216.01,202.77L217.55,200.04L217.7,196.99L218.01,193.59L218.62,194.56L218.77,195.13L219.7,201.4L219.85,203.28L220.31,202.36L220.46,196.64L222.15,173.73L222.31,175.69L222.46,175.21L223.07,172L223.23,173.02L223.38,174.23L223.69,175.97L223.84,179.62L224.92,189.46L225.22,186.44L225.38,184.01L226.3,178.62L226.45,178.38L226.76,177.96L226.91,179.47L227.53,187.43L227.99,186.9L228.14,186.04L228.29,185.32L228.6,187.42L228.75,186.85L228.91,186.97L229.06,185.39L229.37,185.05L229.52,186.11L230.6,180.43L230.75,181.24L230.9,182.63L231.06,181.57L231.36,182.93L231.52,184.31L231.67,184.21L231.82,187.31L233.82,204.86L233.97,204.65L234.59,201.76L234.74,200.78L235.97,185.09L236.12,182.72L239.96,127.9L240.11,128.81L240.27,130.56L240.73,130.3L240.88,131.87L245.95,183.54L246.1,184.28L246.26,184.86L246.56,183.65L246.72,182.6L248.1,176.48L248.4,176.67L248.56,176.96L249.79,176.15L249.94,175.92L250.25,175.29L250.71,175.97L250.86,175.91L252.4,184.85L252.55,184.74L252.7,182.5L254.24,159.34L254.39,159.64L255.62,175.63L255.77,177.5L257.46,194.21L257.62,193.37L257.77,192.88L258.08,193.51L258.23,192.33L258.54,191.52L258.69,192.69L258.84,193.87L259,193.89L259.15,192.95L259.3,192.97L259.46,194.19L260.53,199.09L260.69,198.75L260.84,197.5L261.3,198.66L261.45,197.68L261.61,197.23L262.38,197.67L262.53,198.2L263.6,204.72L263.76,200.39L263.91,200.17L264.06,196.11L264.37,192.48L264.52,184.66L266.21,140.44L266.37,141.28L268.06,161.89L268.21,166.13L269.44,176.75L269.59,176.09L269.74,176.91L270.05,174.71L270.21,174.67L270.51,175.24L270.67,173.38L270.82,172.58L270.97,172.14L271.13,173.3L271.28,174.42L272.82,188.1L273.28,186.93L273.43,185.67L275.43,158.84L275.58,160.23L276.04,166.05L276.19,169.22L276.35,168.9L276.5,169.83L276.65,172.3L278.34,198.81L278.5,198.27L278.65,197.97L279.11,197.51L279.26,196.21L282.64,154.15L282.79,154.24L282.95,154.79L283.56,147.04L284.02,148.4L284.18,149.41L285.4,158.73L285.56,158.15L286.02,157.73L286.17,157.48L287.86,165.81L288.01,167.57L289.4,172.16L289.55,170.94L290.32,167.01L290.62,168.95L290.78,168.69L291.24,165.98L291.39,167.8L291.55,168.59L293.69,179.19L293.85,179.13L294,179.62L294.16,180.01L294.77,179.55L294.92,179.8L295.08,179.17L295.38,180.22L295.54,180.5L296.77,186.76L296.92,186.12L297.07,183.36L297.84,162.66L297.99,159.26L298.76,154.56L299.07,156.14L299.22,158.82L301.52,186.54L301.68,187.77L301.83,188.1L301.98,186.62L302.14,186.07L302.6,182.64L302.91,182.83L303.06,185.11L304.9,197.11L305.06,196.64L305.21,196.24L306.74,199.72L306.9,201.02L307.67,205.91L307.97,205.32L308.13,205.27L309.81,151.37L309.97,149.4L310.58,146.5L310.74,151.97L311.04,148.02L311.5,150.31L311.66,150.28L311.81,150.45L311.96,155.59L312.42,154.01L312.58,155.86L313.5,165.58L313.65,165.38L313.81,165.73L314.11,165.28L314.57,168.61L314.73,170.12L315.03,170.48L315.19,170.83L317.03,190.9L317.18,190.07L317.34,189.03L317.64,190.32L317.8,189.44L317.95,187.04L319.49,164.98L319.64,165.37L320.1,171.96L320.25,175.21L321.79,202.11L321.94,202.9L322.25,203.26L322.56,202.82L322.71,201.88L323.48,199.04L323.63,197.86L327.01,166.96L327.16,167.55L327.32,167.39L327.47,165.99L328.7,160.53L328.85,160.52L329.16,161.95L329.31,163.59L330.08,166.91L330.23,166.64L330.39,166.73L330.69,165.71L330.85,164.97L331.62,162.56L331.77,163.1L331.92,163.43L333.15,168.59L333.3,168.01L335.15,185.54L335.61,184.19L335.76,183.63L336.53,177.5L337.14,178.25L337.3,177.99L337.45,177.73L337.76,178.23L337.91,178.59L338.22,179.4L338.37,181.08L339.14,179.07L339.45,179.58L339.6,180.01L340.21,183.45L340.37,184.56L340.98,186.43L341.13,184.72L341.29,181.66L343.44,141.91L343.59,143.59L346.05,189.64L346.2,189.48L346.35,189.03L346.66,188.33L346.81,187.9L349.12,196.91L349.27,196.69L349.42,195.56L349.89,195.98L350.04,195.63L350.19,195.09L351.57,202.37L351.73,202.91L352.19,206.51L352.34,206.37L352.49,195.88L354.64,135.42L354.8,132.89L354.95,136.67L355.57,134.45L355.72,133.91L356.95,165.97L357.1,167.27L358.64,184L358.94,183.25L359.1,181.62L359.4,180.23L359.56,182.48L359.71,183.19L359.86,183.01L360.02,183.39L360.17,181.91L360.32,181.82L360.48,182.12L360.63,182.86L360.79,182.94L360.94,185.57L361.25,187.61L361.55,185.76L361.71,185.69L362.01,186.91L362.17,184.59L363.55,158.54L363.7,158.47L364.01,160.53L364.16,165.32L366.16,201.07L366.31,200.91L366.47,200.76L367.08,199.3L367.23,198.36L368,190.81L368.15,188.73L370.92,155.25L371.23,155.8L371.38,157.27L372.76,163.24L372.91,162.82L373.53,160.57L373.84,161.78L373.99,162.06L375.83,166.46L375.98,166.55L377.83,178.48L377.98,178.11L378.13,177.91L378.44,178.68L378.59,178.98L379.05,180.63L379.21,180.13L379.36,179.03L380.13,176.1L380.28,175.4L380.9,171.54L381.2,172.45L381.36,172.61L382.13,173.98L382.28,173.43L382.43,173.37L382.89,175.54L383.35,174.99L383.51,174.76L385.2,186.72L385.5,185.13L385.66,184.13L387.19,165.93L387.35,166.79L387.5,166.99L387.65,161.9L388.11,170.59L388.27,173.75L389.49,193.57L389.96,192.8L390.11,192.71L390.42,192.13L390.57,191.14L390.88,189.26L391.03,186.19L391.34,186.41L391.49,187.95L392.57,190.32L392.72,191.7L393.18,195.69L393.49,194.52L393.64,193.83L393.95,194.89L394.1,193.66L394.25,193.7L394.41,193.89L396.25,205.21L396.4,206.75L397.17,183.96L397.32,170.77L398.4,152.77L398.55,155.63L400.09,140.16L400.24,140.33L400.39,142.51L403,178.59L403.16,178L403.31,176.33L403.47,175.8L403.77,177.37L403.93,179.91L404.23,181.91L404.54,180.02L404.69,179.19L405,178.1L405.15,179.68L405.31,180.38L405.46,180.76L405.61,178.91L406.08,175.41L406.38,177.41L406.54,178.15L406.69,177.78L406.84,173.7L408.07,147.99L408.22,148.24L408.38,148.33L408.53,150.28L410.22,200.96L410.53,200.45L410.68,200.07L411.91,194.67L412.06,192.76L415.9,154.47L416.05,154.35L416.21,154.21L416.36,154.52L416.52,154.95L416.67,154.62L416.82,156.55L418.05,163.57L418.2,164.26L418.51,164.6L418.66,164.01L418.82,163.49L419.13,162.25L419.28,161.7L419.59,160.29L419.89,161.67L420.05,162.09L420.35,164.15L420.51,165.93L422.04,174.5L422.2,174.38L422.66,173.2L422.96,173.99L423.12,175.29L424.5,181.09L424.65,180.82L424.81,180.46L424.96,178.89L425.57,179.59L425.73,179.69L426.8,183.54L427.11,182.76L427.26,182.28L427.57,182.05L427.72,181.34L428.18,181.63L428.34,182.34L428.8,184.65L428.95,185.95L429.41,187.41L429.56,186.37L429.72,185.37L430.33,179.21L430.49,177.64L431.41,173.27L431.56,173.64L431.71,174.25L433.1,184.36L433.25,187.35L433.56,189.96L434.02,188.6L434.17,188.4L434.94,185.98L435.09,182.01L436.01,178.27L436.17,177.87L436.78,179.39L436.93,181.67L437.39,185.26L437.7,184.69L437.86,179.58L439.54,189.35L439.7,196.01L440.16,199.46L440.31,201.38L440.62,203.48L440.77,201.1L440.93,190.1L442.15,159.91L442.31,156.68L444,134.83L444.15,134.77L444.3,134.03L444.46,138.14L445.38,156.58L445.53,155.56L445.69,156.3L446.91,169.46L447.07,172.55L448.6,184.99L448.76,185.33L448.91,184.11L449.22,187.34L449.37,189.01L450.75,197.47L450.9,196.05L451.06,193.7L452.29,181.94L452.44,181.56L452.59,181.68L452.75,183.08L454.74,207.28L454.9,205.46L458.12,189.52L458.27,189.59L458.43,190.7L458.73,192.13L459.04,190.93L459.2,189.41L460.42,181.85L460.58,181.39L461.04,177.83L461.34,179.08L461.5,178.9L463.19,174.88L463.34,167.78L464.42,131.07L464.88,132.6L465.03,133.87L467.18,197.65L467.33,199.09L468.87,205.93L469.02,206.05L472.4,206.01L472.55,205.99L473.78,205.62L473.93,204.82L475.16,202.42L475.32,202.34L475.62,202.56L475.78,203.29L477,205.21L477.16,205.33L481.3,207.96L485.45,207.96L488.98,157.47L489.13,157.58L489.29,159.97L491.13,195.64L491.28,189.4L492.2,178.14L492.36,178.59L492.51,179.3L492.82,180.73L492.97,180.17L493.12,187.89L493.74,201.03L494.05,197.96L494.2,179.23L495.43,119.3L495.58,109.35L495.73,99.94L496.19,116.3L496.35,113.95L497.27,96.22L497.42,97.78L497.58,101.06L499.11,65.39L499.27,65.84L499.42,66.62L499.88,71.94L500.03,90.01L502.18,204.47L502.34,204.93L503.1,205.64L503.26,205.43L503.41,205.19L504.49,200.98L504.64,200.17L505.71,195.49L506.02,196.36L506.17,197.04L507.25,203.33L507.4,199.85L507.71,200.62L507.86,198.21L508.48,197.5L508.63,196.17L509.09,192.42L509.24,196.53L509.55,196.81L509.71,199.16L510.17,199.21L510.32,200.09L510.78,206.12L511.39,205.66L511.55,205.6L513.08,206.25L513.24,206.39L514.16,207.19L514.31,206.5L514.46,203.06L516,202.55L516.15,202.68L516.61,206.21L516.92,206.18L517.07,206.24L518,206.13L518.15,205.1L519.38,201.97L519.53,201.95L520.14,203.55L520.3,197.66L521.99,198.65L522.14,204.93L523.37,203.73L523.52,204.25L523.83,204.28L523.98,204.51L524.14,204.87L525.83,207.14L525.98,207.13L527.51,207.34L527.67,206.67L528.44,206.21L528.59,206.27L529.05,206.19L529.2,200.23L530.12,198.72L530.28,198.09L530.89,193.92L531.2,195.29L531.35,193.89L532.73,188.3L532.89,189.17L535.04,198.68L535.19,198.58L536.11,198.59L536.27,198.08L536.88,201.4L537.03,200.39L537.19,199.26L537.34,198.56L537.8,199.65L537.95,200.3L539.34,205.44L539.49,205.01L539.64,204.05L541.33,202.31L541.49,202.93L541.64,202.83L543.63,197.91L543.79,196.12L544.86,188.09L545.02,185.09L548.09,132.9L548.24,133.17L548.55,134.57L549.16,134.47L549.31,134.91L549.62,138.01L549.78,138.98L552.08,157.06L552.23,158.15L553.46,166.33L553.61,168.34L555.61,188.37L555.76,188.18L556.22,185.15L556.38,184.08L557.91,174.88L558.07,175.57L558.22,175.63L559.45,178.27L559.75,178.11L559.91,177.69L561.6,182.34L561.75,181.61L562.52,177.38L562.67,173.79L563.44,165.16L563.75,166.08L563.9,166.2L564.21,161.23L564.51,164.83L564.67,167.29L565.9,181.6L566.2,179.38L566.36,169.68L567.58,133.4L567.74,132.69L568.2,145.17L568.35,154.53L569.43,181.87L569.58,184.01L570.04,190.34L570.35,188.33L570.5,185.47L570.96,184.66L571.58,186.83L571.73,187.12L572.19,191.36L572.34,195.46L572.65,196.55L572.8,199.48L573.11,201.26L573.26,198.75L573.42,199.14L573.57,195.34L573.88,195.94L574.03,192.05L574.19,181.55L575.26,139.58L575.41,141.74L575.57,141.33L575.72,137.13L575.87,137.75L576.03,141.64L576.18,150.05L576.8,143.7L576.95,145.52L577.41,143.04L577.56,145.64L577.72,145L577.87,145.56L578.02,145.77L578.18,149.26L578.48,157.56L578.95,153.95L579.1,152.34L579.25,150.06L579.71,150.97L579.87,152.97L580.17,153.63L580.33,152.93L580.48,154.65L581.25,168.09L581.4,167.1L581.56,159.05L582.02,156.57L582.32,157.86L582.48,158.72L582.63,155.86L583.09,158.64L583.24,161.47L583.86,177.12L584.17,176.32L584.32,177.84L584.47,181.97L585.09,179L585.24,178.69L585.55,180.44L585.7,175.91L586.62,186.04L587.08,185.54L587.24,184.01L587.39,182.61L587.54,187.67L587.7,188.26L590.31,160.1L590.46,157.23L592.3,138.32L592.46,137.43L592.61,138.13L592.92,137.39L593.07,136.48L593.68,133.06L593.99,134.35L594.14,135.04L595.53,143.53L595.68,145.17L598.75,175.32L599.06,173.27L599.21,171.63L599.67,170L599.82,168.91L601.21,161.06L601.36,161.02L601.67,161.06L601.82,159.9L602.74,162.15L602.9,163.73L604.89,176.77L605.04,177.28L605.51,179.58L605.66,181.12L606.12,184.22L606.43,182.57L606.58,181.04L608.73,153L608.88,153.74L609.04,155.27L609.96,161.12L610.26,160.94L610.42,159.31L610.57,162.2L610.88,156.26L611.03,155.54L611.34,157.78L611.8,156.51L611.95,155.16L612.11,153.2L612.41,155.79L612.57,158.78L614.56,176.1L614.72,172.54L617.33,204.45L617.48,198.09L618.25,183.2L618.4,164.07L619.17,136.58L619.32,137.16L619.48,134.03L620.09,120.28L620.24,127.18L620.4,132.71L620.7,131.37L620.86,129.32L621.01,128.61L621.32,130.14L621.47,139.09L622.85,157.41L623.01,154.82L623.16,154.06L623.93,148.78L624.08,149.31L624.24,150.65L624.7,151.66L624.85,156.13L626.38,173.24L626.54,173.7L627.15,167.79L627.46,168.99L627.61,171.59L627.92,173.38L628.07,169.5L628.23,168.4L628.53,165.74L628.84,168.61L628.99,170.25L629.46,162.17L629.76,163.82L629.92,167.67L631.3,184.16L631.45,183.26L631.6,182.37L631.76,182.54L631.91,181.96L632.07,181.38L632.22,180.4L632.53,183.26L632.68,184.87L632.99,186.03L633.29,185.11L633.45,182.68L635.6,164.09L635.75,163.66L637.75,141L638.36,141.95L638.51,141.78L638.82,145.41L638.97,148.15L640.2,160.71L640.36,160.67L640.51,160.83L641.89,164.94L642.04,165.77L644.04,184.59L644.19,184.78L644.65,182.69L644.81,181.65L646.96,171.82L647.11,171.86L648.49,169.52L648.65,170.02L648.8,170.13L649.26,172.27L649.41,172.98L650.49,176.95L650.64,176.1L652.48,162.35L652.64,162.2L652.79,163.33L652.94,158.68L653.41,164.8L653.56,167.11L653.71,166.77L653.87,168.25L654.02,169.5L654.48,175.94L654.63,177.61L655.55,191.09L655.71,191.25L656.02,192.03L656.17,190.5L656.32,189.98L656.78,190.78L656.94,190.86L657.86,187.1L658.01,187.33L658.16,187.48L658.63,186.12L658.78,184.98L658.93,179.33L659.55,181.37L659.7,182.51L661.85,204.63L662,196.08L663.69,140.94L663.85,142.74L664,142.79L665.07,131.19L665.23,129.38L667.22,165.47L667.38,164.92L667.68,164.73L667.84,165.15L667.99,160.83L668.91,171.22L669.22,170.73L669.37,170.29L669.53,170.58L669.68,169.94L669.83,174.67L670.29,175.46L670.45,178.13L671.21,184.65L671.67,182.97L671.83,178.43L673.21,155.39L673.36,156.28L673.52,157.96L675.97,202.85L676.13,202.72L676.28,202.34L677.82,191.67L677.97,189.55L680.27,165.9L680.43,164.99L680.58,164.23L680.89,165.68L681.04,166.06L681.81,167.57L681.96,166.7L682.11,165.94L683.19,164.77L683.34,163.75L683.65,162.84L683.8,163.87L683.96,164.63L684.72,158.15L685.19,159.37L685.34,159.59L686.26,167.6L686.41,171.6L688.41,185.83L688.56,186.51L688.87,185.37L689.02,184.89L690.56,175.62L690.71,176.43L690.87,176.57L692.09,179.62L692.4,179.12L692.55,178.82L693.48,182.1L693.63,182.59L694.55,188.93L694.7,188.52L694.86,187.34L695.78,162L695.93,158.15L697.16,146.28L697.31,149.66L698.7,175.83L698.85,176.34L699,183.03L699.62,180.24L699.77,179.41L699.92,176.09L700.54,176.2L700.69,177.23L703.3,204.96L703.45,205.59L704.68,207.13L704.84,206.84L704.99,202.05L706.68,179.13L706.83,171.54L708.21,136.94L708.37,132.93L708.52,131.89L708.67,135.66L708.83,136.13L709.44,128.79L709.6,132.41L709.75,133.95L711.75,161.35L711.9,163.15L712.05,161.93L712.21,163.66L712.36,167.29L713.28,171.35L713.43,173.46L714.51,184.2L714.66,190.37L715.74,193.78L715.89,190.47L717.43,150.22L717.58,149.14L718.04,160.15L718.19,162.28L719.88,204.48L720.04,204.53L720.5,204.31L720.65,203.54L721.57,198.57L721.72,196.74L726.18,152.79L726.33,153.89L728.17,165.71L728.33,165.32L728.48,165.63L728.79,164.9L728.94,163.75L729.55,161.81L729.71,162.23L729.86,162.58L732.78,183.14L732.93,182.93L733.09,182.69L733.24,184.17L733.39,185.05L733.7,182.9L733.85,181.96L734.62,179.74L734.93,180.61L735.08,181.22L735.39,181.99L735.54,182.13L736.16,182.75L736.31,183.54L736.92,183.96L737.08,184.29L737.84,186.84L738.15,186.3L738.3,186.09L738.61,184.92L738.77,183.65L738.92,183.78L739.07,182.97L739.23,181.63L740.3,173.38L740.61,174.85L740.76,174.8L741.07,175.37L741.22,176.08L741.68,178.29L741.84,180.14L743.06,185.13L743.22,180.81L743.37,180.25L743.52,182.03L743.68,182.56L743.99,180.93L744.29,182.32L744.45,182.44L744.75,178.22L745.06,182.41L745.21,183.4L745.52,182.27L745.67,182.94L745.83,184.03L746.13,183.33L746.29,183.45L746.44,185.54L747.82,195.52L747.98,196.61L749.36,200.81L749.51,201.37L749.97,202.52L750.13,196.86L752.74,153.1L752.89,157.12L753.66,144.59L753.81,145.83L753.96,146.8L756.11,192.27L756.27,191.73L756.42,191.69L757.5,196.67L757.65,196.15L758.26,197.49L758.42,198.24L759.8,202.69L759.95,200.83L761.79,186.93L761.95,188.74L764.1,208.37L764.25,208.27L765.17,208.1L772.08,208.1L773.92,205.39L774.08,205.5L776.53,204.7L776.69,204.51L777.61,204.6L777.76,204.95L780.37,206.97L780.52,206.89L783.13,206.07L783.29,205.37L784.98,191.88L785.13,191.93L785.44,193.52L785.59,187.94L785.9,188.7L786.05,191.84L786.97,198.15L787.13,198.23L787.28,198.57L787.43,204.72L787.89,204.78L788.05,204.32L788.2,201.86L789.74,202.4L789.89,202.98L790.81,206.11L790.96,204.3L792.04,202.73L792.19,202.72L792.65,203.41L792.81,205.34L794.19,208.07L794.34,208.06L795.11,208.28L795.26,206.62L797.72,194.55L798.33,194.83L798.49,186L799.1,166.56L799.72,169.67L799.87,169.93L800.18,169.45L800.33,179.61L801.56,207.03L801.71,206.78L801.86,206.84L803.25,206.72L803.4,203.27L804.94,150.43L805.09,145.84L805.4,135.31L805.86,141.88L806.01,140.13L806.16,139.02L806.32,141.34L806.47,141.01L806.62,141.93L807.85,166.89L808.01,164.97L808.16,161.84L809.39,146.02L809.54,148.64L809.69,148.97L809.85,152.63L811.84,205.19L812,205.05L812.15,204.83L812.92,203.75L813.07,203.18L815.84,192.62L815.99,192.84L816.76,196.84L816.91,192.65L817.22,193.26L817.37,191.43L817.83,191.94L817.98,191.16L818.14,189.48L818.6,185.01L818.75,189.7L818.91,190.19L820.44,200.53L820.9,199.91L821.06,199.74L821.67,200.01L821.82,201.32L822.74,204.93L822.9,205.01L825.35,205.79L825.51,205.17L827.2,202.73L827.35,202.92L828.42,187.62L828.58,184.34L829.19,181.74L829.35,181.81L829.5,183.27L830.27,192.58L830.42,196.01L831.5,199.84L831.65,199.5L832.57,194.67L832.72,194.71L832.88,194.91L833.34,194.94L833.49,194.28L833.95,198.69L834.41,198.37L834.57,198.41L835.03,198.11L835.18,197.37L835.95,199.64L836.1,199.57L836.25,199.2L836.56,199.49L836.71,200.48L837.02,203.13L837.18,192.99L837.48,190.91L837.94,191.54L838.1,192.24L838.4,192.75L838.56,189.64L838.71,185.29L839.02,196.28L839.17,196.53L839.32,197.41L839.48,192.68L841.63,171.83L841.78,173.69L842.09,172.39L842.24,173.55L842.4,174.27L842.55,174.77L842.7,178.71L843.93,188.92L844.24,187.1L844.39,185.84L845.31,181.59L845.47,181.16L845.77,181.09L845.93,182.15L846.39,189.91L846.69,185.44L846.85,182.56L847,181.21L847.46,182.4L847.62,183.34L848.38,179.1L848.54,182.32L848.69,183.72L849,181.33L849.15,178.95L849.76,166.28L850.07,169.05L850.23,169.26L850.53,167.31L850.69,167.91L850.84,169.91L852.84,198.51L852.99,198.05L854.06,179.82L854.22,173.26L855.14,81.13L855.29,59.86L856.21,11L856.52,15.39L856.67,14.9L857.13,41.01L857.75,40.69L857.9,41.82L858.21,36.09L858.36,38.46L858.52,41.15L858.82,45.78L858.98,50.56L860.51,108.09L860.66,112.69L863.43,157.32L863.58,159.06L865.42,175.06L865.58,174.06L865.73,172.63L867.27,164.36L867.73,165L867.88,165.28L868.96,169.44L869.26,168.5L869.42,168.03L870.49,166.03L870.64,166.22L871.1,168.34L871.57,167.77L871.72,166.49L873.56,144.26L873.71,144.57L873.87,145.38L875.25,165.01L875.4,168.18L876.79,179.13L876.94,179.47L877.09,179.88L877.25,178.24L877.4,176.56L878.32,176.95L878.47,178.07L878.78,178.59L878.93,178.22L879.09,180.84L879.7,188.27L880.16,186.57L880.32,187.47L880.78,189.47L880.93,190.81L882.16,200.6L882.31,201.86L882.62,203.82L882.77,198.64L883.39,191.24L883.54,184.29L884.46,138.83L884.61,140.4L884.77,132.27L885.38,126.22L885.54,132.46L888.61,186.78L888.76,187.8L889.07,183.41L889.53,185.53L889.68,183.37L890.45,181.2L890.6,181.97L890.76,186.17L890.91,186.86L891.06,184.76L891.22,184.45L891.52,187.83L891.68,188.65L891.83,189.29L891.98,187.96L892.14,184.97L893.67,158.93L894.13,160.03L894.29,161.66L894.59,162.06L894.9,161.02L895.05,162.99L896.13,189.16L896.28,191.35L896.74,198.6L897.36,197.2L897.51,196.15L898.13,193.18L898.28,191.86L902.12,141.93L902.27,140.72L902.73,136.97L903.19,138.61L903.35,139.89L903.81,139.29L903.96,141.43L905.65,149.04L905.8,148.44L906.26,147.69L906.42,147.46L906.88,146.77L907.18,147.27L907.34,148.39L908.1,155.71L908.26,157.47L909.64,164.94L909.79,164.81L909.95,164.08L910.1,163.87L910.25,164.25L910.41,165.02L910.71,166.93L911.17,166.12L911.33,164.5L911.79,166.24L911.94,166.98L913.94,175.35L914.09,174.58L914.71,174.61L914.86,174.85L915.01,176.3L915.32,178.49L915.63,176.8L915.78,173.99L917.32,147.73L917.62,150.31L917.78,150L918.7,157.75L918.85,162.69L921.31,191.71L921.46,191.23L921.61,190.5L921.92,188.61L922.08,186.76L923.15,184.8L923.3,185.35L923.46,186.18L924.53,191.64L924.69,191.18L924.84,191.45L925.15,192.19L925.3,193.07L925.76,195.81L925.91,198.14L926.99,205.12L927.14,203.41L927.3,198.54L928.06,174.71L928.22,169.93L929.6,140.2L929.9,142.02L930.06,142.57L930.67,140.32L930.83,146.22L932.67,181.84L932.82,182.47L932.98,183.75L933.13,183.34L933.28,179.43L936.05,192.36L936.2,190.93L938.04,152.64L938.35,154.84L938.5,156.61L938.66,155.25L938.81,156.7L938.96,160.08L941.27,199.64L941.42,199.56L941.57,199.67L941.88,198.44" style="vector-effect: none; fill: none; stroke: rgb(99, 110, 250); stroke-opacity: 1; stroke-width: 2px; opacity: 1;"/></g><g class="points"/><g class="text"/></g></g></g><g class="overplot"><g class="xy2" transform="translate(80,100)" clip-path="url(#clip0c9a99xy2plot)"><g class="scatterlayer mlayer"><g class="trace scatter trace5329f6" style="stroke-miterlimit: 2; opacity: 1;"><g class="fills"/><g class="errorbars"/><g class="lines"><path class="js-line" d="M0,209L495.27,209L495.43,11L500.34,11L500.49,209L619.94,209L620.09,11L620.86,209L621.01,209L854.83,209L854.98,11L861.13,11L861.28,209L941.88,209" style="vector-effect: none; fill: none; stroke: rgb(239, 85, 59); stroke-opacity: 1; stroke-width: 2px; opacity: 1;"/></g><g class="points"/><g class="text"/></g></g></g></g><path class="xlines-above crisp" d="M0,0" style="fill: none;"/><path class="ylines-above crisp" d="M0,0" style="fill: none;"/><g class="overlines-above"><path class="xy2-x crisp" d="M0,0" style="fill: none;"/><path class="xy2-y crisp" d="M0,0" style="fill: none;"/></g><g class="xaxislayer-above"><g class="xtick"><text text-anchor="middle" x="0" y="333" transform="translate(166.74,0)" style="font-family: 'Open Sans', verdana, arial, sans-serif; font-size: 12px; fill: rgb(42, 63, 95); fill-opacity: 1; white-space: pre; opacity: 1;"><tspan class="line" dy="0em" x="0" y="333">Jan 21</tspan><tspan class="line" dy="1.3em" x="0" y="333">2022</tspan></text></g><g class="xtick"><text text-anchor="middle" x="0" y="333" style="font-family: 'Open Sans', verdana, arial, sans-serif; font-size: 12px; fill: rgb(42, 63, 95); fill-opacity: 1; white-space: pre; opacity: 1;" transform="translate(299.39,0)">Jan 24</text></g><g class="xtick"><text text-anchor="middle" x="0" y="333" style="font-family: 'Open Sans', verdana, arial, sans-serif; font-size: 12px; fill: rgb(42, 63, 95); fill-opacity: 1; white-space: pre; opacity: 1;" transform="translate(432.03,0)">Jan 27</text></g><g class="xtick"><text text-anchor="middle" x="0" y="333" style="font-family: 'Open Sans', verdana, arial, sans-serif; font-size: 12px; fill: rgb(42, 63, 95); fill-opacity: 1; white-space: pre; opacity: 1;" transform="translate(564.6800000000001,0)">Jan 30</text></g><g class="xtick"><text text-anchor="middle" x="0" y="333" style="font-family: 'Open Sans', verdana, arial, sans-serif; font-size: 12px; fill: rgb(42, 63, 95); fill-opacity: 1; white-space: pre; opacity: 1;" transform="translate(697.33,0)">Feb 2</text></g><g class="xtick"><text text-anchor="middle" x="0" y="333" style="font-family: 'Open Sans', verdana, arial, sans-serif; font-size: 12px; fill: rgb(42, 63, 95); fill-opacity: 1; white-space: pre; opacity: 1;" transform="translate(829.97,0)">Feb 5</text></g><g class="xtick"><text text-anchor="middle" x="0" y="333" style="font-family: 'Open Sans', verdana, arial, sans-serif; font-size: 12px; fill: rgb(42, 63, 95); fill-opacity: 1; white-space: pre; opacity: 1;" transform="translate(962.62,0)">Feb 8</text></g></g><g class="yaxislayer-above"><g class="ytick"><text text-anchor="end" x="79" y="4.199999999999999" transform="translate(0,309.12)" style="font-family: 'Open Sans', verdana, arial, sans-serif; font-size: 12px; fill: rgb(42, 63, 95); fill-opacity: 1; white-space: pre; opacity: 1;">0</text></g><g class="ytick"><text text-anchor="end" x="79" y="4.199999999999999" style="font-family: 'Open Sans', verdana, arial, sans-serif; font-size: 12px; fill: rgb(42, 63, 95); fill-opacity: 1; white-space: pre; opacity: 1;" transform="translate(0,233.74)">0.05</text></g><g class="ytick"><text text-anchor="end" x="79" y="4.199999999999999" style="font-family: 'Open Sans', verdana, arial, sans-serif; font-size: 12px; fill: rgb(42, 63, 95); fill-opacity: 1; white-space: pre; opacity: 1;" transform="translate(0,158.36)">0.1</text></g></g><g class="overaxes-above"><g class="xy2-x"/><g class="xy2-y"><g class="y2tick"><text text-anchor="start" x="1022.88" y="4.199999999999999" transform="translate(0,309)" style="font-family: 'Open Sans', verdana, arial, sans-serif; font-size: 12px; fill: rgb(42, 63, 95); fill-opacity: 1; white-space: pre; opacity: 1;">0</text></g><g class="y2tick"><text text-anchor="start" x="1022.88" y="4.199999999999999" style="font-family: 'Open Sans', verdana, arial, sans-serif; font-size: 12px; fill: rgb(42, 63, 95); fill-opacity: 1; white-space: pre; opacity: 1;" transform="translate(0,269.4)">0.2</text></g><g class="y2tick"><text text-anchor="start" x="1022.88" y="4.199999999999999" style="font-family: 'Open Sans', verdana, arial, sans-serif; font-size: 12px; fill: rgb(42, 63, 95); fill-opacity: 1; white-space: pre; opacity: 1;" transform="translate(0,229.8)">0.4</text></g><g class="y2tick"><text text-anchor="start" x="1022.88" y="4.199999999999999" style="font-family: 'Open Sans', verdana, arial, sans-serif; font-size: 12px; fill: rgb(42, 63, 95); fill-opacity: 1; white-space: pre; opacity: 1;" transform="translate(0,190.2)">0.6</text></g><g class="y2tick"><text text-anchor="start" x="1022.88" y="4.199999999999999" style="font-family: 'Open Sans', verdana, arial, sans-serif; font-size: 12px; fill: rgb(42, 63, 95); fill-opacity: 1; white-space: pre; opacity: 1;" transform="translate(0,150.6)">0.8</text></g><g class="y2tick"><text text-anchor="start" x="1022.88" y="4.199999999999999" style="font-family: 'Open Sans', verdana, arial, sans-serif; font-size: 12px; fill: rgb(42, 63, 95); fill-opacity: 1; white-space: pre; opacity: 1;" transform="translate(0,111)">1</text></g></g></g></g><g class="subplot xy2"/></g><g class="polarlayer"/><g class="smithlayer"/><g class="ternarylayer"/><g class="geolayer"/><g class="funnelarealayer"/><g class="pielayer"/><g class="iciclelayer"/><g class="treemaplayer"/><g class="sunburstlayer"/><g class="glimages"/><defs id="topdefs-0c9a99"><g class="clips"/><clipPath id="legend0c9a99"><rect width="86" height="48" x="0" y="0"/></clipPath></defs><g class="layer-above"><g class="imagelayer"/><g class="shapelayer"/></g><g class="infolayer"><g class="legend" pointer-events="all" transform="translate(1102.04,100)"><rect class="bg" shape-rendering="crispEdges" style="stroke: rgb(68, 68, 68); stroke-opacity: 1; fill: rgb(255, 255, 255); fill-opacity: 1; stroke-width: 0px;" width="86" height="48" x="0" y="0"/><g class="scrollbox" transform="" clip-path="url(#legend0c9a99)"><g class="groups"><g class="traces" transform="translate(0,14.5)" style="opacity: 1;"><text class="legendtext" text-anchor="start" x="40" y="4.680000000000001" style="font-family: 'Open Sans', verdana, arial, sans-serif; font-size: 12px; fill: rgb(42, 63, 95); fill-opacity: 1; white-space: pre;">y_pred</text><g class="layers" style="opacity: 1;"><g class="legendfill"/><g class="legendlines"><path class="js-line" d="M5,0h30" style="fill: none; stroke: rgb(99, 110, 250); stroke-opacity: 1; stroke-width: 2px;"/></g><g class="legendsymbols"><g class="legendpoints"/></g></g><rect class="legendtoggle" x="0" y="-9.5" width="80.390625" height="19" style="fill: rgb(0, 0, 0); fill-opacity: 0;"/></g><g class="traces" transform="translate(0,33.5)" style="opacity: 1;"><text class="legendtext" text-anchor="start" x="40" y="4.680000000000001" style="font-family: 'Open Sans', verdana, arial, sans-serif; font-size: 12px; fill: rgb(42, 63, 95); fill-opacity: 1; white-space: pre;">labels</text><g class="layers" style="opacity: 1;"><g class="legendfill"/><g class="legendlines"><path class="js-line" d="M5,0h30" style="fill: none; stroke: rgb(239, 85, 59); stroke-opacity: 1; stroke-width: 2px;"/></g><g class="legendsymbols"><g class="legendpoints"/></g></g><rect class="legendtoggle" x="0" y="-9.5" width="80.390625" height="19" style="fill: rgb(0, 0, 0); fill-opacity: 0;"/></g></g></g><rect class="scrollbar" rx="20" ry="3" width="0" height="0" style="fill: rgb(128, 139, 164); fill-opacity: 1;" x="0" y="0"/></g><g class="g-gtitle"/><g class="g-xtitle"/><g class="g-ytitle"><text class="ytitle" transform="rotate(-90,27.981250000000003,210)" x="27.981250000000003" y="210" text-anchor="middle" style="font-family: 'Open Sans', verdana, arial, sans-serif; font-size: 14px; fill: rgb(42, 63, 95); opacity: 1; font-weight: normal; white-space: pre;">prediction score</text></g><g class="g-y2title"/></g></svg>